# Generated by tools/generate_farm_crop_meshes.py
o crop_carrot
vt 0.5 0.5
s off
v 0.0350000 0.0000000 0.0000000
v 0.4000000 0.4500000 0.0000000
v 0.3464102 0.4500000 0.2000000
vn 0.7603523 -0.6167302 0.2037358
f 1/1/1 2/1/1 3/1/1
v 0.0350000 0.0000000 0.0000000
v 0.3464102 0.4500000 0.2000000
v 0.0303109 0.0000000 0.0175000
vn 0.7603523 -0.6167302 0.2037358
f 4/1/2 5/1/2 6/1/2
v 0.0303109 0.0000000 0.0175000
v 0.3464102 0.4500000 0.2000000
v 0.2000000 0.4500000 0.3464102
vn 0.5566165 -0.6167302 0.5566165
f 7/1/3 8/1/3 9/1/3
v 0.0303109 0.0000000 0.0175000
v 0.2000000 0.4500000 0.3464102
v 0.0175000 0.0000000 0.0303109
vn 0.5566165 -0.6167302 0.5566165
f 10/1/4 11/1/4 12/1/4
v 0.0175000 0.0000000 0.0303109
v 0.2000000 0.4500000 0.3464102
v 0.0000000 0.4500000 0.4000000
vn 0.2037358 -0.6167302 0.7603523
f 13/1/5 14/1/5 15/1/5
v 0.0175000 0.0000000 0.0303109
v 0.0000000 0.4500000 0.4000000
v 0.0000000 0.0000000 0.0350000
vn 0.2037358 -0.6167302 0.7603523
f 16/1/6 17/1/6 18/1/6
v 0.0000000 0.0000000 0.0350000
v 0.0000000 0.4500000 0.4000000
v -0.2000000 0.4500000 0.3464102
vn -0.2037358 -0.6167302 0.7603523
f 19/1/7 20/1/7 21/1/7
v 0.0000000 0.0000000 0.0350000
v -0.2000000 0.4500000 0.3464102
v -0.0175000 0.0000000 0.0303109
vn -0.2037358 -0.6167302 0.7603523
f 22/1/8 23/1/8 24/1/8
v -0.0175000 0.0000000 0.0303109
v -0.2000000 0.4500000 0.3464102
v -0.3464102 0.4500000 0.2000000
vn -0.5566165 -0.6167302 0.5566165
f 25/1/9 26/1/9 27/1/9
v -0.0175000 0.0000000 0.0303109
v -0.3464102 0.4500000 0.2000000
v -0.0303109 0.0000000 0.0175000
vn -0.5566165 -0.6167302 0.5566165
f 28/1/10 29/1/10 30/1/10
v -0.0303109 0.0000000 0.0175000
v -0.3464102 0.4500000 0.2000000
v -0.4000000 0.4500000 0.0000000
vn -0.7603523 -0.6167302 0.2037358
f 31/1/11 32/1/11 33/1/11
v -0.0303109 0.0000000 0.0175000
v -0.4000000 0.4500000 0.0000000
v -0.0350000 0.0000000 0.0000000
vn -0.7603523 -0.6167302 0.2037358
f 34/1/12 35/1/12 36/1/12
v -0.0350000 0.0000000 0.0000000
v -0.4000000 0.4500000 0.0000000
v -0.3464102 0.4500000 -0.2000000
vn -0.7603523 -0.6167302 -0.2037358
f 37/1/13 38/1/13 39/1/13
v -0.0350000 0.0000000 0.0000000
v -0.3464102 0.4500000 -0.2000000
v -0.0303109 0.0000000 -0.0175000
vn -0.7603523 -0.6167302 -0.2037358
f 40/1/14 41/1/14 42/1/14
v -0.0303109 0.0000000 -0.0175000
v -0.3464102 0.4500000 -0.2000000
v -0.2000000 0.4500000 -0.3464102
vn -0.5566165 -0.6167302 -0.5566165
f 43/1/15 44/1/15 45/1/15
v -0.0303109 0.0000000 -0.0175000
v -0.2000000 0.4500000 -0.3464102
v -0.0175000 0.0000000 -0.0303109
vn -0.5566165 -0.6167302 -0.5566165
f 46/1/16 47/1/16 48/1/16
v -0.0175000 0.0000000 -0.0303109
v -0.2000000 0.4500000 -0.3464102
v -0.0000000 0.4500000 -0.4000000
vn -0.2037358 -0.6167302 -0.7603523
f 49/1/17 50/1/17 51/1/17
v -0.0175000 0.0000000 -0.0303109
v -0.0000000 0.4500000 -0.4000000
v -0.0000000 0.0000000 -0.0350000
vn -0.2037358 -0.6167302 -0.7603523
f 52/1/18 53/1/18 54/1/18
v -0.0000000 0.0000000 -0.0350000
v -0.0000000 0.4500000 -0.4000000
v 0.2000000 0.4500000 -0.3464102
vn 0.2037358 -0.6167302 -0.7603523
f 55/1/19 56/1/19 57/1/19
v -0.0000000 0.0000000 -0.0350000
v 0.2000000 0.4500000 -0.3464102
v 0.0175000 0.0000000 -0.0303109
vn 0.2037358 -0.6167302 -0.7603523
f 58/1/20 59/1/20 60/1/20
v 0.0175000 0.0000000 -0.0303109
v 0.2000000 0.4500000 -0.3464102
v 0.3464102 0.4500000 -0.2000000
vn 0.5566165 -0.6167302 -0.5566165
f 61/1/21 62/1/21 63/1/21
v 0.0175000 0.0000000 -0.0303109
v 0.3464102 0.4500000 -0.2000000
v 0.0303109 0.0000000 -0.0175000
vn 0.5566165 -0.6167302 -0.5566165
f 64/1/22 65/1/22 66/1/22
v 0.0303109 0.0000000 -0.0175000
v 0.3464102 0.4500000 -0.2000000
v 0.4000000 0.4500000 0.0000000
vn 0.7603523 -0.6167302 -0.2037358
f 67/1/23 68/1/23 69/1/23
v 0.0303109 0.0000000 -0.0175000
v 0.4000000 0.4500000 0.0000000
v 0.0350000 0.0000000 0.0000000
vn 0.7603523 -0.6167302 -0.2037358
f 70/1/24 71/1/24 72/1/24
v 0.4000000 0.4500000 0.0000000
v 1.0000000 0.8400000 0.0000000
v 0.8660254 0.8400000 0.5000000
vn 0.5392689 -0.8296444 0.1444967
f 73/1/25 74/1/25 75/1/25
v 0.4000000 0.4500000 0.0000000
v 0.8660254 0.8400000 0.5000000
v 0.3464102 0.4500000 0.2000000
vn 0.5392689 -0.8296444 0.1444967
f 76/1/26 77/1/26 78/1/26
v 0.3464102 0.4500000 0.2000000
v 0.8660254 0.8400000 0.5000000
v 0.5000000 0.8400000 0.8660254
vn 0.3947722 -0.8296444 0.3947722
f 79/1/27 80/1/27 81/1/27
v 0.3464102 0.4500000 0.2000000
v 0.5000000 0.8400000 0.8660254
v 0.2000000 0.4500000 0.3464102
vn 0.3947722 -0.8296444 0.3947722
f 82/1/28 83/1/28 84/1/28
v 0.2000000 0.4500000 0.3464102
v 0.5000000 0.8400000 0.8660254
v 0.0000000 0.8400000 1.0000000
vn 0.1444967 -0.8296444 0.5392689
f 85/1/29 86/1/29 87/1/29
v 0.2000000 0.4500000 0.3464102
v 0.0000000 0.8400000 1.0000000
v 0.0000000 0.4500000 0.4000000
vn 0.1444967 -0.8296444 0.5392689
f 88/1/30 89/1/30 90/1/30
v 0.0000000 0.4500000 0.4000000
v 0.0000000 0.8400000 1.0000000
v -0.5000000 0.8400000 0.8660254
vn -0.1444967 -0.8296444 0.5392689
f 91/1/31 92/1/31 93/1/31
v 0.0000000 0.4500000 0.4000000
v -0.5000000 0.8400000 0.8660254
v -0.2000000 0.4500000 0.3464102
vn -0.1444967 -0.8296444 0.5392689
f 94/1/32 95/1/32 96/1/32
v -0.2000000 0.4500000 0.3464102
v -0.5000000 0.8400000 0.8660254
v -0.8660254 0.8400000 0.5000000
vn -0.3947722 -0.8296444 0.3947722
f 97/1/33 98/1/33 99/1/33
v -0.2000000 0.4500000 0.3464102
v -0.8660254 0.8400000 0.5000000
v -0.3464102 0.4500000 0.2000000
vn -0.3947722 -0.8296444 0.3947722
f 100/1/34 101/1/34 102/1/34
v -0.3464102 0.4500000 0.2000000
v -0.8660254 0.8400000 0.5000000
v -1.0000000 0.8400000 0.0000000
vn -0.5392689 -0.8296444 0.1444967
f 103/1/35 104/1/35 105/1/35
v -0.3464102 0.4500000 0.2000000
v -1.0000000 0.8400000 0.0000000
v -0.4000000 0.4500000 0.0000000
vn -0.5392689 -0.8296444 0.1444967
f 106/1/36 107/1/36 108/1/36
v -0.4000000 0.4500000 0.0000000
v -1.0000000 0.8400000 0.0000000
v -0.8660254 0.8400000 -0.5000000
vn -0.5392689 -0.8296444 -0.1444967
f 109/1/37 110/1/37 111/1/37
v -0.4000000 0.4500000 0.0000000
v -0.8660254 0.8400000 -0.5000000
v -0.3464102 0.4500000 -0.2000000
vn -0.5392689 -0.8296444 -0.1444967
f 112/1/38 113/1/38 114/1/38
v -0.3464102 0.4500000 -0.2000000
v -0.8660254 0.8400000 -0.5000000
v -0.5000000 0.8400000 -0.8660254
vn -0.3947722 -0.8296444 -0.3947722
f 115/1/39 116/1/39 117/1/39
v -0.3464102 0.4500000 -0.2000000
v -0.5000000 0.8400000 -0.8660254
v -0.2000000 0.4500000 -0.3464102
vn -0.3947722 -0.8296444 -0.3947722
f 118/1/40 119/1/40 120/1/40
v -0.2000000 0.4500000 -0.3464102
v -0.5000000 0.8400000 -0.8660254
v -0.0000000 0.8400000 -1.0000000
vn -0.1444967 -0.8296444 -0.5392689
f 121/1/41 122/1/41 123/1/41
v -0.2000000 0.4500000 -0.3464102
v -0.0000000 0.8400000 -1.0000000
v -0.0000000 0.4500000 -0.4000000
vn -0.1444967 -0.8296444 -0.5392689
f 124/1/42 125/1/42 126/1/42
v -0.0000000 0.4500000 -0.4000000
v -0.0000000 0.8400000 -1.0000000
v 0.5000000 0.8400000 -0.8660254
vn 0.1444967 -0.8296444 -0.5392689
f 127/1/43 128/1/43 129/1/43
v -0.0000000 0.4500000 -0.4000000
v 0.5000000 0.8400000 -0.8660254
v 0.2000000 0.4500000 -0.3464102
vn 0.1444967 -0.8296444 -0.5392689
f 130/1/44 131/1/44 132/1/44
v 0.2000000 0.4500000 -0.3464102
v 0.5000000 0.8400000 -0.8660254
v 0.8660254 0.8400000 -0.5000000
vn 0.3947722 -0.8296444 -0.3947722
f 133/1/45 134/1/45 135/1/45
v 0.2000000 0.4500000 -0.3464102
v 0.8660254 0.8400000 -0.5000000
v 0.3464102 0.4500000 -0.2000000
vn 0.3947722 -0.8296444 -0.3947722
f 136/1/46 137/1/46 138/1/46
v 0.3464102 0.4500000 -0.2000000
v 0.8660254 0.8400000 -0.5000000
v 1.0000000 0.8400000 0.0000000
vn 0.5392689 -0.8296444 -0.1444967
f 139/1/47 140/1/47 141/1/47
v 0.3464102 0.4500000 -0.2000000
v 1.0000000 0.8400000 0.0000000
v 0.4000000 0.4500000 0.0000000
vn 0.5392689 -0.8296444 -0.1444967
f 142/1/48 143/1/48 144/1/48
v 1.0000000 0.8400000 0.0000000
v 0.8000000 1.0000000 0.0000000
v 0.6928203 1.0000000 0.4000000
vn 0.6161233 0.7701542 0.1650897
f 145/1/49 146/1/49 147/1/49
v 1.0000000 0.8400000 0.0000000
v 0.6928203 1.0000000 0.4000000
v 0.8660254 0.8400000 0.5000000
vn 0.6161233 0.7701542 0.1650897
f 148/1/50 149/1/50 150/1/50
v 0.8660254 0.8400000 0.5000000
v 0.6928203 1.0000000 0.4000000
v 0.4000000 1.0000000 0.6928203
vn 0.4510336 0.7701542 0.4510336
f 151/1/51 152/1/51 153/1/51
v 0.8660254 0.8400000 0.5000000
v 0.4000000 1.0000000 0.6928203
v 0.5000000 0.8400000 0.8660254
vn 0.4510336 0.7701542 0.4510336
f 154/1/52 155/1/52 156/1/52
v 0.5000000 0.8400000 0.8660254
v 0.4000000 1.0000000 0.6928203
v 0.0000000 1.0000000 0.8000000
vn 0.1650897 0.7701542 0.6161233
f 157/1/53 158/1/53 159/1/53
v 0.5000000 0.8400000 0.8660254
v 0.0000000 1.0000000 0.8000000
v 0.0000000 0.8400000 1.0000000
vn 0.1650897 0.7701542 0.6161233
f 160/1/54 161/1/54 162/1/54
v 0.0000000 0.8400000 1.0000000
v 0.0000000 1.0000000 0.8000000
v -0.4000000 1.0000000 0.6928203
vn -0.1650897 0.7701542 0.6161233
f 163/1/55 164/1/55 165/1/55
v 0.0000000 0.8400000 1.0000000
v -0.4000000 1.0000000 0.6928203
v -0.5000000 0.8400000 0.8660254
vn -0.1650897 0.7701542 0.6161233
f 166/1/56 167/1/56 168/1/56
v -0.5000000 0.8400000 0.8660254
v -0.4000000 1.0000000 0.6928203
v -0.6928203 1.0000000 0.4000000
vn -0.4510336 0.7701542 0.4510336
f 169/1/57 170/1/57 171/1/57
v -0.5000000 0.8400000 0.8660254
v -0.6928203 1.0000000 0.4000000
v -0.8660254 0.8400000 0.5000000
vn -0.4510336 0.7701542 0.4510336
f 172/1/58 173/1/58 174/1/58
v -0.8660254 0.8400000 0.5000000
v -0.6928203 1.0000000 0.4000000
v -0.8000000 1.0000000 0.0000000
vn -0.6161233 0.7701542 0.1650897
f 175/1/59 176/1/59 177/1/59
v -0.8660254 0.8400000 0.5000000
v -0.8000000 1.0000000 0.0000000
v -1.0000000 0.8400000 0.0000000
vn -0.6161233 0.7701542 0.1650897
f 178/1/60 179/1/60 180/1/60
v -1.0000000 0.8400000 0.0000000
v -0.8000000 1.0000000 0.0000000
v -0.6928203 1.0000000 -0.4000000
vn -0.6161233 0.7701542 -0.1650897
f 181/1/61 182/1/61 183/1/61
v -1.0000000 0.8400000 0.0000000
v -0.6928203 1.0000000 -0.4000000
v -0.8660254 0.8400000 -0.5000000
vn -0.6161233 0.7701542 -0.1650897
f 184/1/62 185/1/62 186/1/62
v -0.8660254 0.8400000 -0.5000000
v -0.6928203 1.0000000 -0.4000000
v -0.4000000 1.0000000 -0.6928203
vn -0.4510336 0.7701542 -0.4510336
f 187/1/63 188/1/63 189/1/63
v -0.8660254 0.8400000 -0.5000000
v -0.4000000 1.0000000 -0.6928203
v -0.5000000 0.8400000 -0.8660254
vn -0.4510336 0.7701542 -0.4510336
f 190/1/64 191/1/64 192/1/64
v -0.5000000 0.8400000 -0.8660254
v -0.4000000 1.0000000 -0.6928203
v -0.0000000 1.0000000 -0.8000000
vn -0.1650897 0.7701542 -0.6161233
f 193/1/65 194/1/65 195/1/65
v -0.5000000 0.8400000 -0.8660254
v -0.0000000 1.0000000 -0.8000000
v -0.0000000 0.8400000 -1.0000000
vn -0.1650897 0.7701542 -0.6161233
f 196/1/66 197/1/66 198/1/66
v -0.0000000 0.8400000 -1.0000000
v -0.0000000 1.0000000 -0.8000000
v 0.4000000 1.0000000 -0.6928203
vn 0.1650897 0.7701542 -0.6161233
f 199/1/67 200/1/67 201/1/67
v -0.0000000 0.8400000 -1.0000000
v 0.4000000 1.0000000 -0.6928203
v 0.5000000 0.8400000 -0.8660254
vn 0.1650897 0.7701542 -0.6161233
f 202/1/68 203/1/68 204/1/68
v 0.5000000 0.8400000 -0.8660254
v 0.4000000 1.0000000 -0.6928203
v 0.6928203 1.0000000 -0.4000000
vn 0.4510336 0.7701542 -0.4510336
f 205/1/69 206/1/69 207/1/69
v 0.5000000 0.8400000 -0.8660254
v 0.6928203 1.0000000 -0.4000000
v 0.8660254 0.8400000 -0.5000000
vn 0.4510336 0.7701542 -0.4510336
f 208/1/70 209/1/70 210/1/70
v 0.8660254 0.8400000 -0.5000000
v 0.6928203 1.0000000 -0.4000000
v 0.8000000 1.0000000 0.0000000
vn 0.6161233 0.7701542 -0.1650897
f 211/1/71 212/1/71 213/1/71
v 0.8660254 0.8400000 -0.5000000
v 0.8000000 1.0000000 0.0000000
v 1.0000000 0.8400000 0.0000000
vn 0.6161233 0.7701542 -0.1650897
f 214/1/72 215/1/72 216/1/72
v 0.0000000 0.0000000 0.0000000
v 0.0350000 0.0000000 0.0000000
v 0.0303109 0.0000000 0.0175000
vn 0.0000000 -1.0000000 0.0000000
f 217/1/73 218/1/73 219/1/73
v 0.0000000 1.0000000 0.0000000
v 0.6928203 1.0000000 0.4000000
v 0.8000000 1.0000000 0.0000000
vn 0.0000000 1.0000000 0.0000000
f 220/1/74 221/1/74 222/1/74
v 0.0000000 0.0000000 0.0000000
v 0.0303109 0.0000000 0.0175000
v 0.0175000 0.0000000 0.0303109
vn 0.0000000 -1.0000000 0.0000000
f 223/1/75 224/1/75 225/1/75
v 0.0000000 1.0000000 0.0000000
v 0.4000000 1.0000000 0.6928203
v 0.6928203 1.0000000 0.4000000
vn 0.0000000 1.0000000 0.0000000
f 226/1/76 227/1/76 228/1/76
v 0.0000000 0.0000000 0.0000000
v 0.0175000 0.0000000 0.0303109
v 0.0000000 0.0000000 0.0350000
vn 0.0000000 -1.0000000 0.0000000
f 229/1/77 230/1/77 231/1/77
v 0.0000000 1.0000000 0.0000000
v 0.0000000 1.0000000 0.8000000
v 0.4000000 1.0000000 0.6928203
vn 0.0000000 1.0000000 0.0000000
f 232/1/78 233/1/78 234/1/78
v 0.0000000 0.0000000 0.0000000
v 0.0000000 0.0000000 0.0350000
v -0.0175000 0.0000000 0.0303109
vn 0.0000000 -1.0000000 0.0000000
f 235/1/79 236/1/79 237/1/79
v 0.0000000 1.0000000 0.0000000
v -0.4000000 1.0000000 0.6928203
v 0.0000000 1.0000000 0.8000000
vn 0.0000000 1.0000000 -0.0000000
f 238/1/80 239/1/80 240/1/80
v 0.0000000 0.0000000 0.0000000
v -0.0175000 0.0000000 0.0303109
v -0.0303109 0.0000000 0.0175000
vn 0.0000000 -1.0000000 0.0000000
f 241/1/81 242/1/81 243/1/81
v 0.0000000 1.0000000 0.0000000
v -0.6928203 1.0000000 0.4000000
v -0.4000000 1.0000000 0.6928203
vn 0.0000000 1.0000000 0.0000000
f 244/1/82 245/1/82 246/1/82
v 0.0000000 0.0000000 0.0000000
v -0.0303109 0.0000000 0.0175000
v -0.0350000 0.0000000 0.0000000
vn 0.0000000 -1.0000000 0.0000000
f 247/1/83 248/1/83 249/1/83
v 0.0000000 1.0000000 0.0000000
v -0.8000000 1.0000000 0.0000000
v -0.6928203 1.0000000 0.4000000
vn 0.0000000 1.0000000 0.0000000
f 250/1/84 251/1/84 252/1/84
v 0.0000000 0.0000000 0.0000000
v -0.0350000 0.0000000 0.0000000
v -0.0303109 0.0000000 -0.0175000
vn -0.0000000 -1.0000000 0.0000000
f 253/1/85 254/1/85 255/1/85
v 0.0000000 1.0000000 0.0000000
v -0.6928203 1.0000000 -0.4000000
v -0.8000000 1.0000000 0.0000000
vn 0.0000000 1.0000000 0.0000000
f 256/1/86 257/1/86 258/1/86
v 0.0000000 0.0000000 0.0000000
v -0.0303109 0.0000000 -0.0175000
v -0.0175000 0.0000000 -0.0303109
vn 0.0000000 -1.0000000 0.0000000
f 259/1/87 260/1/87 261/1/87
v 0.0000000 1.0000000 0.0000000
v -0.4000000 1.0000000 -0.6928203
v -0.6928203 1.0000000 -0.4000000
vn 0.0000000 1.0000000 0.0000000
f 262/1/88 263/1/88 264/1/88
v 0.0000000 0.0000000 0.0000000
v -0.0175000 0.0000000 -0.0303109
v -0.0000000 0.0000000 -0.0350000
vn 0.0000000 -1.0000000 0.0000000
f 265/1/89 266/1/89 267/1/89
v 0.0000000 1.0000000 0.0000000
v -0.0000000 1.0000000 -0.8000000
v -0.4000000 1.0000000 -0.6928203
vn 0.0000000 1.0000000 0.0000000
f 268/1/90 269/1/90 270/1/90
v 0.0000000 0.0000000 0.0000000
v -0.0000000 0.0000000 -0.0350000
v 0.0175000 0.0000000 -0.0303109
vn 0.0000000 -1.0000000 -0.0000000
f 271/1/91 272/1/91 273/1/91
v 0.0000000 1.0000000 0.0000000
v 0.4000000 1.0000000 -0.6928203
v -0.0000000 1.0000000 -0.8000000
vn 0.0000000 1.0000000 0.0000000
f 274/1/92 275/1/92 276/1/92
v 0.0000000 0.0000000 0.0000000
v 0.0175000 0.0000000 -0.0303109
v 0.0303109 0.0000000 -0.0175000
vn 0.0000000 -1.0000000 0.0000000
f 277/1/93 278/1/93 279/1/93
v 0.0000000 1.0000000 0.0000000
v 0.6928203 1.0000000 -0.4000000
v 0.4000000 1.0000000 -0.6928203
vn 0.0000000 1.0000000 0.0000000
f 280/1/94 281/1/94 282/1/94
v 0.0000000 0.0000000 0.0000000
v 0.0303109 0.0000000 -0.0175000
v 0.0350000 0.0000000 0.0000000
vn 0.0000000 -1.0000000 0.0000000
f 283/1/95 284/1/95 285/1/95
v 0.0000000 1.0000000 0.0000000
v 0.8000000 1.0000000 0.0000000
v 0.6928203 1.0000000 -0.4000000
vn -0.0000000 1.0000000 0.0000000
f 286/1/96 287/1/96 288/1/96
