# Blender 4.4.1
# www.blender.org
mtllib BackTitle.mtl
o テキスト
v -1.334762 0.241196 0.000000
v -1.190090 0.241196 0.000000
v -1.190090 0.000000 0.000000
v -1.338126 0.000000 0.000000
v -1.338126 0.031122 0.000000
v -1.226725 0.031122 0.000000
v -1.226725 0.106098 0.000000
v -1.331024 0.106098 0.000000
v -1.331024 0.137220 0.000000
v -1.226725 0.137220 0.000000
v -1.226725 0.210074 0.000000
v -1.334762 0.210074 0.000000
v -1.043175 0.241196 0.000000
v -1.006540 0.241196 0.000000
v -1.006540 0.000000 0.000000
v -1.158314 0.000000 0.000000
v -1.158314 0.031122 0.000000
v -1.043175 0.031122 0.000000
v -0.972521 0.241196 0.000000
v -0.759439 0.241196 0.000000
v -0.759439 0.210074 0.000000
v -0.847662 0.210074 0.000000
v -0.847662 0.000000 0.000000
v -0.884298 0.000000 0.000000
v -0.884298 0.210074 0.000000
v -0.972521 0.210074 0.000000
v -0.724673 0.241196 0.000000
v -0.688038 0.241196 0.000000
v -0.688038 0.000000 0.000000
v -0.724673 0.000000 0.000000
v -0.653271 0.241196 0.000000
v -0.440189 0.241196 0.000000
v -0.440189 0.210074 0.000000
v -0.528412 0.210074 0.000000
v -0.528412 0.000000 0.000000
v -0.565048 0.000000 0.000000
v -0.565048 0.210074 0.000000
v -0.653271 0.210074 0.000000
v -0.039070 0.120598 0.000000
v -0.040155 0.104418 0.000000
v -0.043360 0.088711 0.000000
v -0.048609 0.073655 0.000000
v -0.055823 0.059428 0.000000
v -0.064928 0.046208 0.000000
v -0.075845 0.034172 0.000000
v -0.088500 0.023500 0.000000
v -0.102815 0.014369 0.000000
v -0.118713 0.006957 0.000000
v -0.136118 0.001442 0.000000
v -0.154954 -0.001997 0.000000
v -0.175144 -0.003183 0.000000
v -0.195998 -0.001990 0.000000
v -0.215346 0.001467 0.000000
v -0.233128 0.007007 0.000000
v -0.249287 0.014448 0.000000
v -0.263763 0.023608 0.000000
v -0.276498 0.034305 0.000000
v -0.287435 0.046358 0.000000
v -0.296514 0.059585 0.000000
v -0.303677 0.073804 0.000000
v -0.308866 0.088834 0.000000
v -0.312022 0.104492 0.000000
v -0.313087 0.120598 0.000000
v -0.311994 0.137149 0.000000
v -0.308765 0.153099 0.000000
v -0.303478 0.168287 0.000000
v -0.296209 0.182554 0.000000
v -0.287035 0.195740 0.000000
v -0.276031 0.207686 0.000000
v -0.263275 0.218233 0.000000
v -0.248844 0.227220 0.000000
v -0.232813 0.234487 0.000000
v -0.215260 0.239876 0.000000
v -0.196260 0.243226 0.000000
v -0.175891 0.244379 0.000000
v -0.155844 0.243220 0.000000
v -0.137070 0.239852 0.000000
v -0.119659 0.234438 0.000000
v -0.103701 0.227141 0.000000
v -0.089284 0.218125 0.000000
v -0.076499 0.207554 0.000000
v -0.065436 0.195590 0.000000
v -0.056183 0.182397 0.000000
v -0.048830 0.168137 0.000000
v -0.043468 0.152976 0.000000
v -0.040184 0.137075 0.000000
v -0.076827 0.120598 0.000000
v -0.077691 0.133551 0.000000
v -0.080219 0.145829 0.000000
v -0.084315 0.157345 0.000000
v -0.089883 0.168014 0.000000
v -0.096827 0.177750 0.000000
v -0.105051 0.186467 0.000000
v -0.114458 0.194078 0.000000
v -0.124954 0.200499 0.000000
v -0.136441 0.205642 0.000000
v -0.148823 0.209422 0.000000
v -0.162006 0.211753 0.000000
v -0.175891 0.212549 0.000000
v -0.189863 0.211753 0.000000
v -0.203117 0.209422 0.000000
v -0.215558 0.205642 0.000000
v -0.227092 0.200499 0.000000
v -0.237624 0.194078 0.000000
v -0.247059 0.186467 0.000000
v -0.255302 0.177750 0.000000
v -0.262260 0.168014 0.000000
v -0.267836 0.157345 0.000000
v -0.271936 0.145829 0.000000
v -0.274465 0.133551 0.000000
v -0.275330 0.120598 0.000000
v -0.274466 0.107719 0.000000
v -0.271936 0.095490 0.000000
v -0.267836 0.084000 0.000000
v -0.262260 0.073338 0.000000
v -0.255303 0.063596 0.000000
v -0.247059 0.054861 0.000000
v -0.237624 0.047225 0.000000
v -0.227092 0.040776 0.000000
v -0.215558 0.035604 0.000000
v -0.203117 0.031798 0.000000
v -0.189863 0.029449 0.000000
v -0.175891 0.028646 0.000000
v -0.162006 0.029449 0.000000
v -0.148823 0.031798 0.000000
v -0.136441 0.035604 0.000000
v -0.124954 0.040776 0.000000
v -0.114458 0.047225 0.000000
v -0.105051 0.054861 0.000000
v -0.096827 0.063596 0.000000
v -0.089883 0.073338 0.000000
v -0.084315 0.084000 0.000000
v -0.080219 0.095490 0.000000
v -0.077691 0.107719 0.000000
v -0.015893 0.241196 0.000000
v 0.197190 0.241196 0.000000
v 0.197190 0.210074 0.000000
v 0.108966 0.210074 0.000000
v 0.108966 0.000000 0.000000
v 0.072331 0.000000 0.000000
v 0.072331 0.210074 0.000000
v -0.015893 0.210074 0.000000
v 0.446160 0.126964 0.000000
v 0.335133 0.241196 0.000000
v 0.380740 0.241196 0.000000
v 0.488029 0.130854 0.000000
v 0.488029 0.241196 0.000000
v 0.524664 0.241196 0.000000
v 0.524664 0.000000 0.000000
v 0.488029 0.000000 0.000000
v 0.488029 0.119183 0.000000
v 0.358311 0.000000 0.000000
v 0.307844 0.000000 0.000000
v 0.572141 0.224574 0.000000
v 0.580665 0.227861 0.000000
v 0.588875 0.230830 0.000000
v 0.596796 0.233487 0.000000
v 0.604456 0.235838 0.000000
v 0.611883 0.237890 0.000000
v 0.619103 0.239648 0.000000
v 0.626144 0.241119 0.000000
v 0.633033 0.242309 0.000000
v 0.639798 0.243224 0.000000
v 0.646465 0.243869 0.000000
v 0.653062 0.244252 0.000000
v 0.659617 0.244379 0.000000
v 0.679409 0.243278 0.000000
v 0.698140 0.240056 0.000000
v 0.715685 0.234830 0.000000
v 0.731918 0.227717 0.000000
v 0.746713 0.218837 0.000000
v 0.759943 0.208305 0.000000
v 0.771484 0.196242 0.000000
v 0.781208 0.182763 0.000000
v 0.788991 0.167988 0.000000
v 0.794706 0.152034 0.000000
v 0.798227 0.135019 0.000000
v 0.799429 0.117061 0.000000
v 0.798550 0.104071 0.000000
v 0.795884 0.090594 0.000000
v 0.791392 0.076938 0.000000
v 0.785030 0.063410 0.000000
v 0.776757 0.050319 0.000000
v 0.766532 0.037974 0.000000
v 0.754313 0.026683 0.000000
v 0.740059 0.016753 0.000000
v 0.723728 0.008493 0.000000
v 0.705279 0.002212 0.000000
v 0.684670 -0.001783 0.000000
v 0.661860 -0.003183 0.000000
v 0.652119 -0.003002 0.000000
v 0.642871 -0.002471 0.000000
v 0.634080 -0.001608 0.000000
v 0.625709 -0.000432 0.000000
v 0.617723 0.001038 0.000000
v 0.610084 0.002785 0.000000
v 0.602758 0.004790 0.000000
v 0.595706 0.007034 0.000000
v 0.588893 0.009499 0.000000
v 0.582283 0.012167 0.000000
v 0.575838 0.015019 0.000000
v 0.569524 0.018037 0.000000
v 0.569524 0.055878 0.000000
v 0.576772 0.051628 0.000000
v 0.584110 0.047721 0.000000
v 0.591521 0.044163 0.000000
v 0.598987 0.040959 0.000000
v 0.606489 0.038113 0.000000
v 0.614010 0.035631 0.000000
v 0.621530 0.033517 0.000000
v 0.629032 0.031777 0.000000
v 0.636498 0.030415 0.000000
v 0.643909 0.029436 0.000000
v 0.651248 0.028845 0.000000
v 0.658495 0.028646 0.000000
v 0.673404 0.029415 0.000000
v 0.687426 0.031674 0.000000
v 0.700481 0.035349 0.000000
v 0.712493 0.040370 0.000000
v 0.723383 0.046662 0.000000
v 0.733074 0.054154 0.000000
v 0.741488 0.062774 0.000000
v 0.748547 0.072448 0.000000
v 0.754172 0.083104 0.000000
v 0.758287 0.094671 0.000000
v 0.760813 0.107075 0.000000
v 0.761672 0.120244 0.000000
v 0.760785 0.133204 0.000000
v 0.758190 0.145501 0.000000
v 0.753985 0.157047 0.000000
v 0.748270 0.167752 0.000000
v 0.741142 0.177530 0.000000
v 0.732700 0.186290 0.000000
v 0.723044 0.193945 0.000000
v 0.712271 0.200407 0.000000
v 0.700481 0.205587 0.000000
v 0.687772 0.209396 0.000000
v 0.674242 0.211746 0.000000
v 0.659991 0.212549 0.000000
v 0.652658 0.212386 0.000000
v 0.645410 0.211893 0.000000
v 0.638221 0.211063 0.000000
v 0.631067 0.209890 0.000000
v 0.623924 0.208369 0.000000
v 0.616767 0.206493 0.000000
v 0.609570 0.204256 0.000000
v 0.602310 0.201651 0.000000
v 0.594962 0.198674 0.000000
v 0.587501 0.195317 0.000000
v 0.579902 0.191574 0.000000
v 0.572141 0.187440 0.000000
v 0.931391 0.242610 0.000000
v 0.957185 0.242610 0.000000
v 1.066717 0.000000 0.000000
v 1.029334 0.000000 0.000000
v 0.997185 0.071086 0.000000
v 0.888774 0.071086 0.000000
v 0.854756 0.000000 0.000000
v 0.817373 0.000000 0.000000
v 0.944848 0.189561 0.000000
v 0.903727 0.102208 0.000000
v 0.982979 0.102208 0.000000
v 1.249145 0.000000 0.000000
v 1.161669 0.000000 0.000000
v 1.146520 0.000699 0.000000
v 1.132994 0.002705 0.000000
v 1.121033 0.005880 0.000000
v 1.110579 0.010086 0.000000
v 1.101574 0.015186 0.000000
v 1.093960 0.021043 0.000000
v 1.087677 0.027518 0.000000
v 1.082667 0.034475 0.000000
v 1.078872 0.041776 0.000000
v 1.076234 0.049283 0.000000
v 1.074694 0.056859 0.000000
v 1.074193 0.064366 0.000000
v 1.074671 0.072311 0.000000
v 1.076087 0.079860 0.000000
v 1.078411 0.086984 0.000000
v 1.081614 0.093654 0.000000
v 1.085670 0.099844 0.000000
v 1.090548 0.105523 0.000000
v 1.096221 0.110665 0.000000
v 1.102660 0.115241 0.000000
v 1.109836 0.119222 0.000000
v 1.117720 0.122581 0.000000
v 1.126285 0.125289 0.000000
v 1.135501 0.127317 0.000000
v 1.135501 0.128025 0.000000
v 1.129161 0.130716 0.000000
v 1.123406 0.133667 0.000000
v 1.118229 0.136888 0.000000
v 1.113625 0.140390 0.000000
v 1.109587 0.144181 0.000000
v 1.106109 0.148272 0.000000
v 1.103184 0.152672 0.000000
v 1.100804 0.157392 0.000000
v 1.098965 0.162440 0.000000
v 1.097660 0.167828 0.000000
v 1.096881 0.173564 0.000000
v 1.096623 0.179659 0.000000
v 1.097118 0.187259 0.000000
v 1.098622 0.194778 0.000000
v 1.101162 0.202105 0.000000
v 1.104764 0.209131 0.000000
v 1.109457 0.215743 0.000000
v 1.115268 0.221833 0.000000
v 1.122223 0.227289 0.000000
v 1.130351 0.232001 0.000000
v 1.139678 0.235858 0.000000
v 1.150231 0.238750 0.000000
v 1.162039 0.240566 -0.000000
v 1.175127 0.241196 -0.000000
v 1.249145 0.241196 -0.000000
v 1.212510 0.210074 -0.000000
v 1.178866 0.210074 -0.000000
v 1.170923 0.209757 0.000000
v 1.163888 0.208838 0.000000
v 1.157721 0.207360 0.000000
v 1.152379 0.205371 0.000000
v 1.147821 0.202916 0.000000
v 1.144006 0.200039 0.000000
v 1.140892 0.196786 0.000000
v 1.138437 0.193203 0.000000
v 1.136599 0.189335 0.000000
v 1.135339 0.185227 0.000000
v 1.134613 0.180926 0.000000
v 1.134380 0.176476 0.000000
v 1.134747 0.170294 0.000000
v 1.135849 0.164656 0.000000
v 1.137692 0.159561 0.000000
v 1.140278 0.155008 0.000000
v 1.143612 0.150994 0.000000
v 1.147697 0.147520 0.000000
v 1.152538 0.144584 0.000000
v 1.158139 0.142184 0.000000
v 1.164502 0.140320 0.000000
v 1.171633 0.138990 0.000000
v 1.179535 0.138193 0.000000
v 1.188211 0.137927 0.000000
v 1.212510 0.137927 -0.000000
v 1.212510 0.106805 0.000000
v 1.168398 0.106805 0.000000
v 1.159199 0.106486 0.000000
v 1.150847 0.105551 0.000000
v 1.143334 0.104031 0.000000
v 1.136651 0.101959 0.000000
v 1.130787 0.099366 0.000000
v 1.125735 0.096284 0.000000
v 1.121485 0.092745 0.000000
v 1.118028 0.088782 0.000000
v 1.115355 0.084425 0.000000
v 1.113458 0.079708 0.000000
v 1.112325 0.074661 0.000000
v 1.111950 0.069317 0.000000
v 1.112203 0.064777 0.000000
v 1.113008 0.060225 0.000000
v 1.114433 0.055740 0.000000
v 1.116547 0.051399 0.000000
v 1.119419 0.047278 0.000000
v 1.123118 0.043456 0.000000
v 1.127713 0.040010 0.000000
v 1.133272 0.037016 0.000000
v 1.139865 0.034554 0.000000
v 1.147559 0.032699 0.000000
v 1.156424 0.031529 0.000000
v 1.166529 0.031122 0.000000
v 1.212510 0.031122 0.000000
v -1.334762 0.241196 -0.210089
v -1.190090 0.241196 -0.210089
v -1.190090 -0.000000 -0.210089
v -1.338126 -0.000000 -0.210089
v -1.338126 0.031122 -0.210089
v -1.226725 0.031122 -0.210089
v -1.226725 0.106098 -0.210089
v -1.331024 0.106098 -0.210089
v -1.331024 0.137220 -0.210089
v -1.226725 0.137220 -0.210089
v -1.226725 0.210074 -0.210089
v -1.334762 0.210074 -0.210089
v -1.043175 0.241196 -0.210089
v -1.006540 0.241196 -0.210089
v -1.006540 -0.000000 -0.210089
v -1.158314 -0.000000 -0.210089
v -1.158314 0.031122 -0.210089
v -1.043175 0.031122 -0.210089
v -0.972521 0.241196 -0.210089
v -0.759439 0.241196 -0.210089
v -0.759439 0.210074 -0.210089
v -0.847662 0.210074 -0.210089
v -0.847662 -0.000000 -0.210089
v -0.884298 -0.000000 -0.210089
v -0.884298 0.210074 -0.210089
v -0.972521 0.210074 -0.210089
v -0.724673 0.241196 -0.210089
v -0.688038 0.241196 -0.210089
v -0.688038 -0.000000 -0.210089
v -0.724673 -0.000000 -0.210089
v -0.653271 0.241196 -0.210089
v -0.440189 0.241196 -0.210089
v -0.440189 0.210074 -0.210089
v -0.528412 0.210074 -0.210089
v -0.528412 -0.000000 -0.210089
v -0.565048 -0.000000 -0.210089
v -0.565048 0.210074 -0.210089
v -0.653271 0.210074 -0.210089
v -0.039070 0.120598 -0.210089
v -0.040155 0.104418 -0.210089
v -0.043360 0.088711 -0.210089
v -0.048609 0.073655 -0.210089
v -0.055823 0.059428 -0.210089
v -0.064928 0.046208 -0.210089
v -0.075845 0.034172 -0.210089
v -0.088500 0.023500 -0.210089
v -0.102815 0.014369 -0.210089
v -0.118713 0.006957 -0.210089
v -0.136118 0.001442 -0.210089
v -0.154954 -0.001997 -0.210089
v -0.175144 -0.003183 -0.210089
v -0.195998 -0.001990 -0.210089
v -0.215346 0.001467 -0.210089
v -0.233128 0.007007 -0.210089
v -0.249287 0.014448 -0.210089
v -0.263763 0.023608 -0.210089
v -0.276498 0.034305 -0.210089
v -0.287435 0.046358 -0.210089
v -0.296514 0.059585 -0.210089
v -0.303677 0.073804 -0.210089
v -0.308866 0.088834 -0.210089
v -0.312022 0.104492 -0.210089
v -0.313087 0.120598 -0.210089
v -0.311994 0.137149 -0.210089
v -0.308765 0.153098 -0.210089
v -0.303478 0.168287 -0.210089
v -0.296209 0.182554 -0.210089
v -0.287035 0.195740 -0.210089
v -0.276031 0.207686 -0.210089
v -0.263275 0.218233 -0.210089
v -0.248844 0.227220 -0.210089
v -0.232813 0.234487 -0.210089
v -0.215260 0.239876 -0.210089
v -0.196260 0.243226 -0.210089
v -0.175891 0.244379 -0.210089
v -0.155844 0.243220 -0.210089
v -0.137070 0.239851 -0.210089
v -0.119659 0.234438 -0.210089
v -0.103701 0.227141 -0.210089
v -0.089284 0.218125 -0.210089
v -0.076499 0.207554 -0.210089
v -0.065436 0.195590 -0.210089
v -0.056183 0.182397 -0.210089
v -0.048830 0.168137 -0.210089
v -0.043468 0.152976 -0.210089
v -0.040184 0.137075 -0.210089
v -0.076827 0.120598 -0.210089
v -0.077691 0.133551 -0.210089
v -0.080219 0.145829 -0.210089
v -0.084315 0.157345 -0.210089
v -0.089883 0.168014 -0.210089
v -0.096827 0.177750 -0.210089
v -0.105051 0.186467 -0.210089
v -0.114458 0.194078 -0.210089
v -0.124954 0.200499 -0.210089
v -0.136441 0.205642 -0.210089
v -0.148823 0.209422 -0.210089
v -0.162006 0.211753 -0.210089
v -0.175891 0.212549 -0.210089
v -0.189863 0.211753 -0.210089
v -0.203117 0.209422 -0.210089
v -0.215558 0.205642 -0.210089
v -0.227092 0.200499 -0.210089
v -0.237624 0.194078 -0.210089
v -0.247059 0.186467 -0.210089
v -0.255302 0.177750 -0.210089
v -0.262260 0.168014 -0.210089
v -0.267836 0.157345 -0.210089
v -0.271936 0.145829 -0.210089
v -0.274465 0.133551 -0.210089
v -0.275330 0.120598 -0.210089
v -0.274466 0.107719 -0.210089
v -0.271936 0.095490 -0.210089
v -0.267836 0.084000 -0.210089
v -0.262260 0.073338 -0.210089
v -0.255303 0.063596 -0.210089
v -0.247059 0.054861 -0.210089
v -0.237624 0.047225 -0.210089
v -0.227092 0.040776 -0.210089
v -0.215558 0.035604 -0.210089
v -0.203117 0.031798 -0.210089
v -0.189863 0.029449 -0.210089
v -0.175891 0.028646 -0.210089
v -0.162006 0.029449 -0.210089
v -0.148823 0.031798 -0.210089
v -0.136441 0.035604 -0.210089
v -0.124954 0.040776 -0.210089
v -0.114458 0.047225 -0.210089
v -0.105051 0.054861 -0.210089
v -0.096827 0.063596 -0.210089
v -0.089883 0.073338 -0.210089
v -0.084315 0.084000 -0.210089
v -0.080219 0.095490 -0.210089
v -0.077691 0.107719 -0.210089
v -0.015893 0.241196 -0.210089
v 0.197190 0.241196 -0.210089
v 0.197190 0.210074 -0.210089
v 0.108966 0.210074 -0.210089
v 0.108966 -0.000000 -0.210089
v 0.072331 -0.000000 -0.210089
v 0.072331 0.210074 -0.210089
v -0.015893 0.210074 -0.210089
v 0.446160 0.126964 -0.210089
v 0.335133 0.241196 -0.210089
v 0.380740 0.241196 -0.210089
v 0.488029 0.130854 -0.210089
v 0.488029 0.241196 -0.210089
v 0.524664 0.241196 -0.210089
v 0.524664 -0.000000 -0.210089
v 0.488029 -0.000000 -0.210089
v 0.488029 0.119183 -0.210089
v 0.358311 -0.000000 -0.210089
v 0.307844 -0.000000 -0.210089
v 0.572141 0.224574 -0.210089
v 0.580665 0.227861 -0.210089
v 0.588875 0.230830 -0.210089
v 0.596796 0.233487 -0.210089
v 0.604456 0.235838 -0.210089
v 0.611883 0.237890 -0.210089
v 0.619103 0.239648 -0.210089
v 0.626144 0.241119 -0.210089
v 0.633033 0.242309 -0.210089
v 0.639798 0.243224 -0.210089
v 0.646465 0.243869 -0.210089
v 0.653062 0.244252 -0.210089
v 0.659617 0.244379 -0.210089
v 0.679409 0.243278 -0.210089
v 0.698140 0.240056 -0.210089
v 0.715685 0.234830 -0.210089
v 0.731918 0.227717 -0.210089
v 0.746713 0.218837 -0.210089
v 0.759943 0.208305 -0.210089
v 0.771484 0.196242 -0.210089
v 0.781208 0.182763 -0.210089
v 0.788991 0.167988 -0.210089
v 0.794706 0.152034 -0.210089
v 0.798227 0.135019 -0.210089
v 0.799429 0.117061 -0.210089
v 0.798550 0.104071 -0.210089
v 0.795884 0.090594 -0.210089
v 0.791391 0.076937 -0.210089
v 0.785030 0.063410 -0.210089
v 0.776757 0.050319 -0.210089
v 0.766532 0.037974 -0.210089
v 0.754313 0.026683 -0.210089
v 0.740059 0.016753 -0.210089
v 0.723728 0.008493 -0.210089
v 0.705279 0.002212 -0.210089
v 0.684670 -0.001783 -0.210089
v 0.661860 -0.003183 -0.210089
v 0.652119 -0.003002 -0.210089
v 0.642871 -0.002471 -0.210089
v 0.634080 -0.001608 -0.210089
v 0.625709 -0.000432 -0.210089
v 0.617723 0.001038 -0.210089
v 0.610084 0.002785 -0.210089
v 0.602758 0.004790 -0.210089
v 0.595706 0.007034 -0.210089
v 0.588893 0.009499 -0.210089
v 0.582283 0.012167 -0.210089
v 0.575838 0.015019 -0.210089
v 0.569524 0.018037 -0.210089
v 0.569524 0.055878 -0.210089
v 0.576772 0.051628 -0.210089
v 0.584110 0.047721 -0.210089
v 0.591521 0.044163 -0.210089
v 0.598987 0.040959 -0.210089
v 0.606489 0.038113 -0.210089
v 0.614010 0.035631 -0.210089
v 0.621530 0.033517 -0.210089
v 0.629032 0.031777 -0.210089
v 0.636498 0.030415 -0.210089
v 0.643909 0.029436 -0.210089
v 0.651248 0.028845 -0.210089
v 0.658495 0.028646 -0.210089
v 0.673404 0.029415 -0.210089
v 0.687426 0.031674 -0.210089
v 0.700481 0.035349 -0.210089
v 0.712493 0.040370 -0.210089
v 0.723383 0.046662 -0.210089
v 0.733074 0.054154 -0.210089
v 0.741488 0.062774 -0.210089
v 0.748547 0.072448 -0.210089
v 0.754172 0.083104 -0.210089
v 0.758287 0.094671 -0.210089
v 0.760813 0.107075 -0.210089
v 0.761672 0.120244 -0.210089
v 0.760785 0.133204 -0.210089
v 0.758190 0.145501 -0.210089
v 0.753985 0.157047 -0.210089
v 0.748270 0.167752 -0.210089
v 0.741142 0.177530 -0.210089
v 0.732700 0.186290 -0.210089
v 0.723044 0.193945 -0.210089
v 0.712271 0.200407 -0.210089
v 0.700481 0.205587 -0.210089
v 0.687772 0.209396 -0.210089
v 0.674242 0.211746 -0.210089
v 0.659991 0.212549 -0.210089
v 0.652658 0.212386 -0.210089
v 0.645410 0.211893 -0.210089
v 0.638221 0.211063 -0.210089
v 0.631067 0.209890 -0.210089
v 0.623924 0.208369 -0.210089
v 0.616767 0.206493 -0.210089
v 0.609570 0.204256 -0.210089
v 0.602310 0.201651 -0.210089
v 0.594962 0.198674 -0.210089
v 0.587501 0.195317 -0.210089
v 0.579902 0.191574 -0.210089
v 0.572141 0.187439 -0.210089
v 0.931391 0.242610 -0.210089
v 0.957185 0.242610 -0.210089
v 1.066717 -0.000000 -0.210089
v 1.029334 -0.000000 -0.210089
v 0.997185 0.071086 -0.210089
v 0.888774 0.071086 -0.210089
v 0.854756 -0.000000 -0.210089
v 0.817373 -0.000000 -0.210089
v 0.944848 0.189561 -0.210089
v 0.903727 0.102208 -0.210089
v 0.982979 0.102208 -0.210089
v 1.249145 -0.000000 -0.210089
v 1.161669 -0.000000 -0.210089
v 1.146520 0.000699 -0.210089
v 1.132994 0.002705 -0.210089
v 1.121033 0.005880 -0.210089
v 1.110579 0.010086 -0.210089
v 1.101574 0.015186 -0.210089
v 1.093960 0.021043 -0.210089
v 1.087677 0.027518 -0.210089
v 1.082667 0.034475 -0.210089
v 1.078872 0.041776 -0.210089
v 1.076234 0.049283 -0.210089
v 1.074694 0.056859 -0.210089
v 1.074193 0.064366 -0.210089
v 1.074671 0.072311 -0.210089
v 1.076087 0.079860 -0.210089
v 1.078411 0.086984 -0.210089
v 1.081614 0.093654 -0.210089
v 1.085670 0.099843 -0.210089
v 1.090548 0.105523 -0.210089
v 1.096221 0.110665 -0.210089
v 1.102660 0.115241 -0.210089
v 1.109836 0.119222 -0.210089
v 1.117720 0.122581 -0.210089
v 1.126285 0.125289 -0.210089
v 1.135501 0.127317 -0.210089
v 1.135501 0.128025 -0.210089
v 1.129161 0.130716 -0.210089
v 1.123405 0.133667 -0.210089
v 1.118229 0.136888 -0.210089
v 1.113625 0.140390 -0.210089
v 1.109587 0.144181 -0.210089
v 1.106109 0.148272 -0.210089
v 1.103184 0.152672 -0.210089
v 1.100804 0.157392 -0.210089
v 1.098965 0.162440 -0.210089
v 1.097660 0.167828 -0.210089
v 1.096881 0.173564 -0.210089
v 1.096623 0.179659 -0.210089
v 1.097118 0.187259 -0.210089
v 1.098622 0.194778 -0.210089
v 1.101162 0.202105 -0.210089
v 1.104764 0.209131 -0.210089
v 1.109457 0.215743 -0.210089
v 1.115268 0.221833 -0.210089
v 1.122223 0.227289 -0.210089
v 1.130351 0.232001 -0.210089
v 1.139678 0.235858 -0.210089
v 1.150231 0.238750 -0.210089
v 1.162039 0.240566 -0.210089
v 1.175127 0.241196 -0.210089
v 1.249145 0.241196 -0.210089
v 1.212510 0.210074 -0.210089
v 1.178865 0.210074 -0.210089
v 1.170923 0.209757 -0.210089
v 1.163888 0.208838 -0.210089
v 1.157721 0.207360 -0.210089
v 1.152379 0.205371 -0.210089
v 1.147821 0.202916 -0.210089
v 1.144006 0.200039 -0.210089
v 1.140892 0.196786 -0.210089
v 1.138437 0.193203 -0.210089
v 1.136599 0.189335 -0.210089
v 1.135339 0.185227 -0.210089
v 1.134613 0.180926 -0.210089
v 1.134380 0.176476 -0.210089
v 1.134747 0.170294 -0.210089
v 1.135849 0.164656 -0.210089
v 1.137692 0.159561 -0.210089
v 1.140278 0.155008 -0.210089
v 1.143612 0.150994 -0.210089
v 1.147697 0.147520 -0.210089
v 1.152538 0.144584 -0.210089
v 1.158139 0.142184 -0.210089
v 1.164502 0.140320 -0.210089
v 1.171633 0.138990 -0.210089
v 1.179535 0.138193 -0.210089
v 1.188211 0.137927 -0.210089
v 1.212510 0.137927 -0.210089
v 1.212510 0.106805 -0.210089
v 1.168398 0.106805 -0.210089
v 1.159199 0.106486 -0.210089
v 1.150847 0.105551 -0.210089
v 1.143334 0.104031 -0.210089
v 1.136650 0.101959 -0.210089
v 1.130787 0.099366 -0.210089
v 1.125735 0.096284 -0.210089
v 1.121485 0.092745 -0.210089
v 1.118028 0.088782 -0.210089
v 1.115355 0.084425 -0.210089
v 1.113457 0.079708 -0.210089
v 1.112325 0.074661 -0.210089
v 1.111950 0.069317 -0.210089
v 1.112203 0.064777 -0.210089
v 1.113008 0.060225 -0.210089
v 1.114433 0.055740 -0.210089
v 1.116547 0.051399 -0.210089
v 1.119419 0.047278 -0.210089
v 1.123118 0.043456 -0.210089
v 1.127713 0.040010 -0.210089
v 1.133272 0.037016 -0.210089
v 1.139865 0.034554 -0.210089
v 1.147559 0.032699 -0.210089
v 1.156424 0.031529 -0.210089
v 1.166529 0.031122 -0.210089
v 1.212510 0.031122 -0.210089
vn -0.0000 -0.0000 1.0000
vn -0.0000 1.0000 -0.0000
vn -0.0000 -1.0000 -0.0000
vn -0.0000 -0.0000 -1.0000
vn -0.0000 -0.0001 -1.0000
vn -0.0000 0.0001 -1.0000
vn 0.9810 -0.1940 -0.0000
vn 0.9443 -0.3292 -0.0000
vn 0.0306 0.9995 -0.0000
vn 0.0555 0.9985 -0.0000
vn -0.7177 -0.6964 -0.0000
vn -0.5286 0.8489 -0.0000
vn 0.8861 0.4635 -0.0000
vn 0.5302 0.8479 -0.0000
vn -0.9422 0.3352 -0.0000
vn -0.0193 0.9998 -0.0000
vn -0.6097 -0.7927 -0.0000
vn 0.9499 -0.3125 -0.0000
vn -0.9111 -0.4121 -0.0000
vn -0.0580 0.9983 -0.0000
vn -0.4928 -0.8701 -0.0000
vn -0.8864 0.4629 -0.0000
vn -0.6372 0.7707 -0.0000
vn 0.9020 -0.4317 -0.0000
vn 0.6372 0.7707 -0.0000
vn -0.8843 0.4668 -0.0000
vn -0.0964 0.9953 -0.0000
vn -0.3733 -0.9277 -0.0000
vn -0.8931 -0.4499 -0.0000
vn 1.0000 -0.0000 -0.0000
vn 0.9049 -0.4256 -0.0000
vn 0.1695 0.9855 -0.0000
vn 0.8919 -0.4523 -0.0000
vn -0.5284 -0.8490 -0.0000
vn -0.2565 -0.9665 -0.0000
vn 0.8138 0.5811 -0.0000
vn -0.4563 -0.8898 -0.0000
vn -0.8078 0.5894 -0.0000
vn -0.1340 0.9910 -0.0000
vn -0.1467 -0.9892 -0.0000
vn -0.0572 -0.9984 -0.0000
vn 0.8453 -0.5342 -0.0000
vn -0.3907 -0.9205 -0.0000
vn 0.0569 -0.9984 -0.0000
vn -0.1702 0.9854 -0.0000
vn -0.0461 -0.9989 -0.0000
vn -0.8143 0.5804 -0.0000
vn -0.0481 0.9988 -0.0000
vn 0.7273 0.6864 -0.0000
vn -1.0000 -0.0000 -0.0000
vn 0.1732 -0.9849 -0.0000
vn -0.7156 0.6985 -0.0000
vn -0.2045 0.9789 -0.0000
vn -0.1520 0.9884 -0.0000
vn 0.5059 0.8626 -0.0000
vn 0.2855 0.9584 -0.0000
vn -0.2150 0.9766 -0.0000
vn -0.7281 0.6855 -0.0000
vn -0.1741 -0.9847 -0.0000
vn -0.2643 0.9644 -0.0000
vn -0.3015 0.9535 -0.0000
vn 0.2907 -0.9568 -0.0000
vn -0.2366 0.9716 -0.0000
vn -0.8245 -0.5659 -0.0000
vn -0.3822 0.9241 -0.0000
vn -0.6116 0.7911 -0.0000
vn 0.8236 -0.5672 -0.0000
vn -0.3919 0.9200 -0.0000
vn 0.4699 0.8827 -0.0000
vn -0.2663 0.9639 -0.0000
vn -0.2920 -0.9564 -0.0000
vn -0.5015 0.8651 -0.0000
vn 0.6291 0.7773 -0.0000
vn -0.4852 0.8744 -0.0000
vn 0.7701 -0.6379 -0.0000
vn -0.2934 0.9560 -0.0000
vn -0.7355 0.6775 -0.0000
vn -0.6172 0.7868 -0.0000
vn 0.4013 0.9159 -0.0000
vn -0.5793 0.8151 -0.0000
vn 0.7342 0.6789 -0.0000
vn 0.4328 0.9015 -0.0000
vn -0.6302 0.7764 -0.0000
vn -0.7235 0.6903 -0.0000
vn 0.5222 0.8528 -0.0000
vn 0.4073 -0.9133 -0.0000
vn -0.3180 0.9481 -0.0000
vn -0.5003 0.8659 -0.0000
vn -0.6716 0.7409 -0.0000
vn 0.3944 0.9189 -0.0000
vn -0.3401 0.9404 -0.0000
vn -0.5235 0.8520 -0.0000
vn -0.4086 -0.9127 -0.0000
vn -0.8155 0.5788 -0.0000
vn 0.5205 -0.8539 -0.0000
vn 0.3547 0.9350 -0.0000
vn -0.3598 0.9330 -0.0000
vn -0.7406 -0.6720 -0.0000
vn 0.0346 -0.9994 -0.0000
vn 0.5147 0.8574 -0.0000
vn 0.7407 -0.6719 -0.0000
vn 0.0398 -0.9992 -0.0000
vn 0.1113 -0.9938 -0.0000
vn -0.5218 -0.8530 -0.0000
vn -0.3856 0.9227 -0.0000
vn 0.4092 0.9125 -0.0000
vn 0.1296 -0.9916 -0.0000
vn 0.3134 0.9496 -0.0000
vn 0.1983 -0.9801 -0.0000
vn -0.8209 0.5711 -0.0000
vn 0.1147 -0.9934 -0.0000
vn 0.8187 0.5742 -0.0000
vn 0.6787 -0.7344 -0.0000
vn -0.4106 0.9118 -0.0000
vn -0.8898 0.4563 -0.0000
vn 0.1617 -0.9868 -0.0000
vn 0.2925 0.9563 -0.0000
vn -0.7586 0.6516 -0.0000
vn 0.6279 -0.7783 -0.0000
vn 0.2329 -0.9725 -0.0000
vn 0.2706 0.9627 -0.0000
vn 0.2962 -0.9551 -0.0000
vn 0.2083 -0.9781 -0.0000
vn 0.3490 -0.9371 -0.0000
vn -0.2938 0.9559 -0.0000
vn 0.4045 -0.9146 -0.0000
vn -0.6290 -0.7774 -0.0000
vn -0.2710 0.9626 -0.0000
vn 0.2536 -0.9673 -0.0000
vn 0.7266 -0.6871 -0.0000
vn 0.4743 -0.8803 -0.0000
vn 0.2260 0.9741 -0.0000
vn -0.6432 -0.7657 -0.0000
vn 0.2969 -0.9549 -0.0000
vn 0.6447 -0.7644 -0.0000
vn -0.8364 0.5481 -0.0000
vn 0.6021 -0.7984 -0.0000
vn 0.1795 0.9838 -0.0000
vn 0.5208 -0.8537 -0.0000
vn -0.7274 -0.6862 -0.0000
vn 0.3377 -0.9413 -0.0000
vn 0.1745 0.9847 -0.0000
vn 0.6399 -0.7685 -0.0000
vn -0.8910 0.4540 -0.0000
vn -0.9449 0.3275 -0.0000
vn -0.1590 0.9873 -0.0000
vn 0.3756 -0.9268 -0.0000
vn 0.8888 0.4583 -0.0000
vn 0.7223 -0.6916 -0.0000
vn 0.1310 0.9914 -0.0000
vn -0.1754 0.9845 -0.0000
vn 0.4103 -0.9119 -0.0000
vn 0.0574 0.9984 -0.0000
vn -0.9014 0.4329 -0.0000
vn 0.8136 -0.5814 -0.0000
vn 0.8249 -0.5652 -0.0000
vn 0.0803 0.9968 -0.0000
vn 0.7536 -0.6573 -0.0000
vn 0.4418 -0.8971 -0.0000
vn -0.0577 0.9983 -0.0000
vn 0.8524 -0.5230 -0.0000
vn -0.8141 -0.5807 -0.0000
vn -0.9806 0.1961 -0.0000
vn -0.0515 0.9987 -0.0000
vn 0.4702 -0.8826 -0.0000
vn 0.9033 -0.4290 -0.0000
vn 0.0273 0.9996 -0.0000
vn -0.9444 0.3288 -0.0000
vn 0.6228 0.7824 -0.0000
vn -0.5347 -0.8450 -0.0000
vn -0.9507 0.3101 -0.0000
vn 0.9428 0.3335 -0.0000
vn 0.9560 -0.2934 -0.0000
vn 0.5378 -0.8431 -0.0000
vn 0.9277 -0.3732 -0.0000
vn 0.5716 -0.8205 -0.0000
vn 0.8863 -0.4632 -0.0000
vn 0.0222 -0.9998 -0.0000
vn -0.9979 0.0650 -0.0000
vn -0.4183 -0.9083 -0.0000
vn -0.9829 0.1843 -0.0000
vn 0.9860 -0.1665 -0.0000
vn -0.4312 -0.9023 -0.0000
vn 0.0679 -0.9977 -0.0000
vn 0.4225 -0.9063 -0.0000
vn 0.9758 -0.2189 -0.0000
vn -0.8865 -0.4627 -0.0000
vn 0.4513 -0.8924 -0.0000
vn 0.9421 -0.3354 -0.0000
vn 0.9986 -0.0522 -0.0000
vn -0.0563 -0.9984 -0.0000
vn 0.9975 -0.0701 -0.0000
vn -0.2974 -0.9547 -0.0000
vn -0.4047 -0.9144 -0.0000
vn -0.1712 -0.9852 -0.0000
vn 0.3020 -0.9533 -0.0000
vn -0.9422 -0.3351 -0.0000
vn -0.9991 -0.0423 -0.0000
vn -0.9982 0.0601 -0.0000
vn 0.9982 0.0592 -0.0000
vn -0.3742 -0.9273 -0.0000
vn -0.2871 -0.9579 -0.0000
vn 0.9985 0.0556 -0.0000
vn -0.9801 0.1984 -0.0000
vn 0.7226 0.6913 -0.0000
vn -0.1759 -0.9844 -0.0000
vn 0.9793 0.2022 -0.0000
vn -0.3402 -0.9403 -0.0000
vn 0.1796 -0.9837 -0.0000
vn 0.9847 0.1741 -0.0000
vn -0.9909 -0.1345 -0.0000
vn 0.3223 -0.9466 -0.0000
vn 0.9794 -0.2018 -0.0000
vn 0.9814 0.1919 -0.0000
vn -0.4022 -0.9155 -0.0000
vn 0.0586 -0.9983 -0.0000
vn -0.0571 -0.9984 -0.0000
vn -0.9978 -0.0665 -0.0000
vn -0.3033 -0.9529 -0.0000
vn -0.5144 -0.8576 -0.0000
vn 0.9531 0.3028 -0.0000
vn -0.9795 -0.2017 -0.0000
vn -0.9719 -0.2355 -0.0000
vn 0.8110 0.5851 -0.0000
vn 0.9404 0.3401 -0.0000
vn -0.2639 -0.9645 -0.0000
vn -0.9978 0.0659 -0.0000
vn -0.9800 -0.1992 -0.0000
vn 0.9977 0.0675 -0.0000
vn -0.2229 -0.9748 -0.0000
vn -0.6212 -0.7836 -0.0000
vn 0.8991 0.4378 -0.0000
vn -0.9396 -0.3423 -0.0000
vn 0.1903 -0.9817 -0.0000
vn 0.9978 -0.0666 -0.0000
vn 0.8695 0.4939 -0.0000
vn -0.7201 -0.6939 -0.0000
vn 0.8204 0.5718 -0.0000
vn 0.8848 0.4660 -0.0000
vn -0.1811 -0.9835 -0.0000
vn -0.9978 -0.0666 -0.0000
vn -0.8930 -0.4501 -0.0000
vn -0.9434 -0.3316 -0.0000
vn 0.9978 -0.0669 -0.0000
vn 0.7692 0.6390 -0.0000
vn -0.1391 -0.9903 -0.0000
vn -0.8081 -0.5891 -0.0000
vn 0.7186 0.6955 -0.0000
vn 0.9414 0.3372 -0.0000
vn -0.0977 -0.9952 -0.0000
vn 0.6000 0.8000 -0.0000
vn -0.9978 0.0669 -0.0000
vn -0.8327 -0.5537 -0.0000
vn 0.0613 -0.9981 -0.0000
vn 0.9978 0.0669 -0.0000
vn 0.6478 0.7618 -0.0000
vn -0.8821 -0.4710 -0.0000
vn -0.0186 -0.9998 -0.0000
vn -0.8873 -0.4612 -0.0000
vn -0.0573 -0.9984 -0.0000
vn -0.9396 -0.3422 -0.0000
vn 0.4741 0.8805 -0.0000
vn -0.9978 -0.0660 -0.0000
vn -0.7618 -0.6478 -0.0000
vn 0.0577 0.9983 -0.0000
vn 0.9114 0.4115 -0.0000
vn 0.9792 0.2027 -0.0000
vn 0.5186 0.8550 -0.0000
vn 0.7170 0.6971 -0.0000
vn 0.3499 0.9368 -0.0000
vn -0.9793 0.2024 -0.0000
vn -0.0565 0.9984 -0.0000
vn 0.9793 0.2026 -0.0000
vn 0.3939 0.9192 -0.0000
vn -0.9784 -0.2065 -0.0000
vn 0.2344 0.9722 -0.0000
vn -0.1737 0.9848 -0.0000
vn 0.9978 0.0668 -0.0000
vn 0.1766 0.9843 -0.0000
vn -0.7171 -0.6970 -0.0000
vn -0.9803 -0.1976 -0.0000
vn -0.6845 -0.7290 -0.0000
vn -0.9050 0.4253 -0.0000
vn -0.8115 -0.5844 -0.0000
vn 0.9798 -0.1999 -0.0000
vn 0.2811 0.9597 -0.0000
vn -0.9977 -0.0683 -0.0000
vn 0.1308 0.9914 -0.0000
vn -0.2935 0.9560 -0.0000
vn -0.9165 -0.4001 -0.0000
vn 0.2969 0.9549 -0.0000
vn 0.9048 -0.4259 -0.0000
vn -0.9979 0.0651 -0.0000
vn 0.0403 0.9992 -0.0000
vn -0.9419 0.3358 -0.0000
vn -0.6054 -0.7960 -0.0000
vn 0.9977 -0.0675 -0.0000
vn -0.6762 0.7367 -0.0000
vn 0.9418 0.3361 -0.0000
vn 0.1834 0.9830 -0.0000
vn -0.4129 0.9108 -0.0000
vn 0.1004 0.9949 -0.0000
vn 0.4158 0.9094 -0.0000
vn -0.9799 0.1995 -0.0000
vn 0.6766 -0.7364 -0.0000
vn -0.9453 -0.3263 -0.0000
vt 0.181818 0.000000
vt 0.090909 0.000000
vt 0.909091 0.000000
vt 0.000000 0.000000
vt 1.000000 0.000000
vt 0.818182 0.000000
vt 0.545455 0.000000
vt 0.727273 0.000000
vt 0.636364 0.000000
vt 0.454545 0.000000
vt 0.363636 0.000000
vt 0.272727 0.000000
vt 0.400000 0.000000
vt 0.200000 0.000000
vt 0.800000 0.000000
vt 0.600000 0.000000
vt 0.285714 0.000000
vt 0.142857 0.000000
vt 0.428571 0.000000
vt 0.571429 0.000000
vt 0.857143 0.000000
vt 0.714286 0.000000
vt 0.666667 0.000000
vt 0.333333 0.000000
vt 0.389474 0.000000
vt 0.378947 0.000000
vt 0.368421 0.000000
vt 0.357895 0.000000
vt 0.347368 0.000000
vt 0.410526 0.000000
vt 0.336842 0.000000
vt 0.421053 0.000000
vt 0.326316 0.000000
vt 0.431579 0.000000
vt 0.315789 0.000000
vt 0.442105 0.000000
vt 0.631579 0.000000
vt 0.621053 0.000000
vt 0.642105 0.000000
vt 0.652632 0.000000
vt 0.610526 0.000000
vt 0.663158 0.000000
vt 0.305263 0.000000
vt 0.452632 0.000000
vt 0.673684 0.000000
vt 0.589474 0.000000
vt 0.684211 0.000000
vt 0.578947 0.000000
vt 0.294737 0.000000
vt 0.463158 0.000000
vt 0.694737 0.000000
vt 0.568421 0.000000
vt 0.705263 0.000000
vt 0.557895 0.000000
vt 0.284211 0.000000
vt 0.473684 0.000000
vt 0.715789 0.000000
vt 0.547368 0.000000
vt 0.273684 0.000000
vt 0.484211 0.000000
vt 0.726316 0.000000
vt 0.536842 0.000000
vt 0.736842 0.000000
vt 0.526316 0.000000
vt 0.263158 0.000000
vt 0.494737 0.000000
vt 0.747368 0.000000
vt 0.515789 0.000000
vt 0.252632 0.000000
vt 0.757895 0.000000
vt 0.505263 0.000000
vt 0.010526 0.000000
vt 0.768421 0.000000
vt 0.242105 0.000000
vt 0.989474 0.000000
vt 0.778947 0.000000
vt 0.231579 0.000000
vt 0.021053 0.000000
vt 0.978947 0.000000
vt 0.789474 0.000000
vt 0.221053 0.000000
vt 0.031579 0.000000
vt 0.968421 0.000000
vt 0.210526 0.000000
vt 0.042105 0.000000
vt 0.810526 0.000000
vt 0.957895 0.000000
vt 0.821053 0.000000
vt 0.947368 0.000000
vt 0.052632 0.000000
vt 0.831579 0.000000
vt 0.936842 0.000000
vt 0.842105 0.000000
vt 0.926316 0.000000
vt 0.189474 0.000000
vt 0.063158 0.000000
vt 0.852632 0.000000
vt 0.915789 0.000000
vt 0.863158 0.000000
vt 0.905263 0.000000
vt 0.178947 0.000000
vt 0.073684 0.000000
vt 0.873684 0.000000
vt 0.894737 0.000000
vt 0.884211 0.000000
vt 0.168421 0.000000
vt 0.084211 0.000000
vt 0.157895 0.000000
vt 0.094737 0.000000
vt 0.147368 0.000000
vt 0.105263 0.000000
vt 0.136842 0.000000
vt 0.115789 0.000000
vt 0.126316 0.000000
vt 0.500000 0.000000
vt 0.300000 0.000000
vt 0.100000 0.000000
vt 0.700000 0.000000
vt 0.900000 0.000000
vt 0.134021 0.000000
vt 0.123711 0.000000
vt 0.113402 0.000000
vt 0.103093 0.000000
vt 0.092784 0.000000
vt 0.144330 0.000000
vt 0.082474 0.000000
vt 0.072165 0.000000
vt 0.061856 0.000000
vt 0.154639 0.000000
vt 0.051546 0.000000
vt 0.041237 0.000000
vt 0.030928 0.000000
vt 0.164948 0.000000
vt 0.020619 0.000000
vt 0.010309 0.000000
vt 0.175258 0.000000
vt 0.896907 0.000000
vt 0.907216 0.000000
vt 0.917526 0.000000
vt 0.927835 0.000000
vt 0.938144 0.000000
vt 0.948454 0.000000
vt 0.958763 0.000000
vt 0.969072 0.000000
vt 0.979381 0.000000
vt 0.989691 0.000000
vt 0.185567 0.000000
vt 0.876289 0.000000
vt 0.886598 0.000000
vt 0.865979 0.000000
vt 0.855670 0.000000
vt 0.845361 0.000000
vt 0.195876 0.000000
vt 0.835052 0.000000
vt 0.824742 0.000000
vt 0.206186 0.000000
vt 0.814433 0.000000
vt 0.804124 0.000000
vt 0.216495 0.000000
vt 0.793814 0.000000
vt 0.226804 0.000000
vt 0.783505 0.000000
vt 0.773196 0.000000
vt 0.237113 0.000000
vt 0.762887 0.000000
vt 0.247423 0.000000
vt 0.752577 0.000000
vt 0.742268 0.000000
vt 0.257732 0.000000
vt 0.731959 0.000000
vt 0.268041 0.000000
vt 0.721649 0.000000
vt 0.278351 0.000000
vt 0.711340 0.000000
vt 0.288660 0.000000
vt 0.701031 0.000000
vt 0.298969 0.000000
vt 0.690722 0.000000
vt 0.515464 0.000000
vt 0.505155 0.000000
vt 0.494845 0.000000
vt 0.680412 0.000000
vt 0.525773 0.000000
vt 0.309278 0.000000
vt 0.536082 0.000000
vt 0.670103 0.000000
vt 0.546392 0.000000
vt 0.556701 0.000000
vt 0.659794 0.000000
vt 0.567010 0.000000
vt 0.319588 0.000000
vt 0.577320 0.000000
vt 0.649485 0.000000
vt 0.587629 0.000000
vt 0.597938 0.000000
vt 0.639175 0.000000
vt 0.608247 0.000000
vt 0.618557 0.000000
vt 0.628866 0.000000
vt 0.329897 0.000000
vt 0.484536 0.000000
vt 0.340206 0.000000
vt 0.474227 0.000000
vt 0.463918 0.000000
vt 0.453608 0.000000
vt 0.350515 0.000000
vt 0.443299 0.000000
vt 0.432990 0.000000
vt 0.422680 0.000000
vt 0.360825 0.000000
vt 0.412371 0.000000
vt 0.402062 0.000000
vt 0.391753 0.000000
vt 0.371134 0.000000
vt 0.381443 0.000000
vt 0.485714 0.000000
vt 0.495238 0.000000
vt 0.476190 0.000000
vt 0.466667 0.000000
vt 0.457143 0.000000
vt 0.447619 0.000000
vt 0.438095 0.000000
vt 0.419048 0.000000
vt 0.409524 0.000000
vt 0.504762 0.000000
vt 0.742857 0.000000
vt 0.514286 0.000000
vt 0.523810 0.000000
vt 0.390476 0.000000
vt 0.533333 0.000000
vt 0.542857 0.000000
vt 0.552381 0.000000
vt 0.561905 0.000000
vt 0.380952 0.000000
vt 0.580952 0.000000
vt 0.371429 0.000000
vt 0.590476 0.000000
vt 0.361905 0.000000
vt 0.609524 0.000000
vt 0.619048 0.000000
vt 0.352381 0.000000
vt 0.628571 0.000000
vt 0.342857 0.000000
vt 0.638095 0.000000
vt 0.647619 0.000000
vt 0.323810 0.000000
vt 0.657143 0.000000
vt 0.314286 0.000000
vt 0.304762 0.000000
vt 0.676190 0.000000
vt 0.295238 0.000000
vt 0.685714 0.000000
vt 0.695238 0.000000
vt 0.704762 0.000000
vt 0.276190 0.000000
vt 0.723810 0.000000
vt 0.733333 0.000000
vt 0.752381 0.000000
vt 0.266667 0.000000
vt 0.257143 0.000000
vt 0.247619 0.000000
vt 0.238095 0.000000
vt 0.228571 0.000000
vt 0.219048 0.000000
vt 0.209524 0.000000
vt 0.190476 0.000000
vt 0.761905 0.000000
vt 0.180952 0.000000
vt 0.771429 0.000000
vt 0.780952 0.000000
vt 0.790476 0.000000
vt 0.171429 0.000000
vt 0.809524 0.000000
vt 0.161905 0.000000
vt 0.819048 0.000000
vt 0.828571 0.000000
vt 0.152381 0.000000
vt 0.838095 0.000000
vt 0.847619 0.000000
vt 0.133333 0.000000
vt 0.866667 0.000000
vt 0.876190 0.000000
vt 0.123810 0.000000
vt 0.885714 0.000000
vt 0.895238 0.000000
vt 0.114286 0.000000
vt 0.904762 0.000000
vt 0.104762 0.000000
vt 0.914286 0.000000
vt 0.923810 0.000000
vt 0.095238 0.000000
vt 0.933333 0.000000
vt 0.942857 0.000000
vt 0.085714 0.000000
vt 0.952381 0.000000
vt 0.961905 0.000000
vt 0.971429 0.000000
vt 0.076190 0.000000
vt 0.980952 0.000000
vt 0.990476 0.000000
vt 0.066667 0.000000
vt 0.057143 0.000000
vt 0.047619 0.000000
vt 0.038095 0.000000
vt 0.028571 0.000000
vt 0.019048 0.000000
vt 0.009524 0.000000
s 0
usemtl マテリアル
f 3/1/1 2/2/1 11/3/1
f 11/3/1 2/2/1 1/4/1
f 11/3/1 1/4/1 12/5/1
f 3/1/1 11/3/1 10/6/1
f 3/1/1 10/6/1 7/7/1
f 7/7/1 10/6/1 9/8/1
f 7/7/1 9/8/1 8/9/1
f 3/1/1 7/7/1 6/10/1
f 3/1/1 6/10/1 5/11/1
f 3/1/1 5/11/1 4/12/1
f 15/13/1 14/14/1 13/4/1
f 15/13/1 13/4/1 18/5/1
f 15/13/1 18/5/1 17/15/1
f 15/13/1 17/15/1 16/16/1
f 21/17/1 20/18/1 19/4/1
f 21/17/1 19/4/1 26/5/1
f 22/19/2 21/17/2 26/5/2
f 23/20/1 22/19/1 25/21/1
f 25/21/3 22/19/3 26/5/3
f 23/20/1 25/21/1 24/22/1
f 29/23/1 28/24/1 27/4/1
f 29/23/1 27/4/1 30/5/1
f 33/17/1 32/18/1 31/4/1
f 33/17/1 31/4/1 38/5/1
f 34/19/2 33/17/2 38/5/2
f 35/20/1 34/19/1 37/21/1
f 37/21/2 34/19/2 38/5/2
f 35/20/1 37/21/1 36/22/1
f 76/25/1 75/26/1 74/27/1
f 76/25/1 74/27/1 73/28/1
f 77/13/1 76/25/1 73/28/1
f 77/13/1 73/28/1 72/29/1
f 78/30/1 77/13/1 72/29/1
f 78/30/1 72/29/1 71/31/1
f 79/32/1 78/30/1 71/31/1
f 79/32/1 71/31/1 70/33/1
f 80/34/1 79/32/1 70/33/1
f 80/34/1 70/33/1 69/35/1
f 81/36/1 80/34/1 99/37/1
f 99/37/1 80/34/1 69/35/1
f 81/36/1 99/37/1 98/38/1
f 100/39/1 99/37/1 69/35/1
f 101/40/1 100/39/1 69/35/1
f 81/36/1 98/38/1 97/41/1
f 102/42/1 101/40/1 69/35/1
f 81/36/1 97/41/1 96/16/1
f 102/42/1 69/35/1 68/43/1
f 82/44/1 81/36/1 96/16/1
f 103/45/1 102/42/1 68/43/1
f 82/44/1 96/16/1 95/46/1
f 104/47/1 103/45/1 68/43/1
f 82/44/1 95/46/1 94/48/1
f 104/47/1 68/43/1 67/49/1
f 83/50/1 82/44/1 94/48/1
f 105/51/1 104/47/1 67/49/1
f 83/50/1 94/48/1 93/52/1
f 106/53/1 105/51/1 67/49/1
f 83/50/1 93/52/1 92/54/1
f 106/53/1 67/49/1 66/55/1
f 84/56/1 83/50/1 92/54/1
f 107/57/1 106/53/1 66/55/1
f 84/56/1 92/54/1 91/58/1
f 107/57/1 66/55/1 65/59/1
f 85/60/1 84/56/1 91/58/1
f 108/61/1 107/57/1 65/59/1
f 85/60/1 91/58/1 90/62/1
f 109/63/1 108/61/1 65/59/1
f 85/60/1 90/62/1 89/64/1
f 109/63/1 65/59/1 64/65/1
f 86/66/1 85/60/1 89/64/1
f 110/67/1 109/63/1 64/65/1
f 86/66/1 89/64/1 88/68/1
f 110/67/1 64/65/1 63/69/1
f 39/4/1 86/66/1 88/68/1
f 111/70/1 110/67/1 63/69/1
f 39/4/1 88/68/1 87/71/1
f 40/72/1 39/4/1 87/71/1
f 40/72/1 87/71/1 134/5/1
f 112/73/1 111/70/1 63/69/1
f 112/73/1 63/69/1 62/74/1
f 40/72/1 134/5/1 133/75/1
f 113/76/1 112/73/1 62/74/1
f 113/76/1 62/74/1 61/77/1
f 41/78/1 40/72/1 133/75/1
f 41/78/1 133/75/1 132/79/1
f 114/80/1 113/76/1 61/77/1
f 114/80/1 61/77/1 60/81/1
f 42/82/1 41/78/1 132/79/1
f 115/15/1 114/80/1 60/81/1
f 42/82/1 132/79/1 131/83/1
f 115/15/1 60/81/1 59/84/1
f 43/85/1 42/82/1 131/83/1
f 116/86/1 115/15/1 59/84/1
f 43/85/1 131/83/1 130/87/1
f 117/88/1 116/86/1 59/84/1
f 43/85/1 130/87/1 129/89/1
f 117/88/1 59/84/1 58/14/1
f 44/90/1 43/85/1 129/89/1
f 118/91/1 117/88/1 58/14/1
f 44/90/1 129/89/1 128/92/1
f 119/93/1 118/91/1 58/14/1
f 44/90/1 128/92/1 127/94/1
f 119/93/1 58/14/1 57/95/1
f 45/96/1 44/90/1 127/94/1
f 120/97/1 119/93/1 57/95/1
f 45/96/1 127/94/1 126/98/1
f 121/99/1 120/97/1 57/95/1
f 45/96/1 126/98/1 125/100/1
f 121/99/1 57/95/1 56/101/1
f 46/102/1 45/96/1 125/100/1
f 122/103/1 121/99/1 56/101/1
f 46/102/1 125/100/1 124/104/1
f 123/105/1 122/103/1 56/101/1
f 46/102/1 124/104/1 123/105/1
f 46/102/1 123/105/1 56/101/1
f 46/102/1 56/101/1 55/106/1
f 47/107/1 46/102/1 55/106/1
f 47/107/1 55/106/1 54/108/1
f 48/109/1 47/107/1 54/108/1
f 48/109/1 54/108/1 53/110/1
f 49/111/1 48/109/1 53/110/1
f 49/111/1 53/110/1 52/112/1
f 50/113/1 49/111/1 52/112/1
f 50/113/1 52/112/1 51/114/1
f 137/17/1 136/18/1 135/4/1
f 137/17/1 135/4/1 142/5/1
f 138/19/2 137/17/2 142/5/2
f 139/20/1 138/19/1 141/21/1
f 141/21/2 138/19/2 142/5/2
f 139/20/1 141/21/1 140/22/1
f 149/16/1 148/115/1 147/13/1
f 149/16/1 147/13/1 146/116/1
f 146/116/1 145/14/1 144/117/1
f 146/116/1 144/117/1 143/4/1
f 149/16/1 146/116/1 151/15/1
f 151/15/1 146/116/1 143/4/1
f 151/15/1 143/4/1 153/5/1
f 149/16/1 151/15/1 150/118/1
f 152/119/1 151/15/1 153/5/1
f 167/120/1 166/121/1 165/122/1
f 167/120/1 165/122/1 164/123/1
f 167/120/1 164/123/1 163/124/1
f 168/125/1 167/120/1 163/124/1
f 168/125/1 163/124/1 162/126/1
f 168/125/1 162/126/1 161/127/1
f 168/125/1 161/127/1 160/128/1
f 169/129/1 168/125/1 160/128/1
f 169/129/1 160/128/1 159/130/1
f 169/129/1 159/130/1 158/131/1
f 169/129/1 158/131/1 157/132/1
f 170/133/1 169/129/1 157/132/1
f 170/133/1 157/132/1 156/134/1
f 170/133/1 156/134/1 155/135/1
f 170/133/1 155/135/1 154/4/1
f 171/136/1 170/133/1 154/4/1
f 171/136/1 154/4/1 241/137/1
f 241/137/1 154/4/1 242/138/1
f 242/138/1 154/4/1 243/139/1
f 243/139/1 154/4/1 244/140/1
f 244/140/1 154/4/1 245/141/1
f 245/141/1 154/4/1 246/142/1
f 246/142/1 154/4/1 247/143/1
f 247/143/1 154/4/1 248/144/1
f 248/144/1 154/4/1 249/145/1
f 249/145/1 154/4/1 250/146/1
f 250/146/1 154/4/1 251/5/1
f 172/147/1 171/136/1 239/148/1
f 239/148/1 171/136/1 240/149/1
f 240/149/1 171/136/1 241/137/1
f 172/147/1 239/148/1 238/150/1
f 172/147/1 238/150/1 237/151/1
f 172/147/1 237/151/1 236/152/1
f 173/153/1 172/147/1 236/152/1
f 173/153/1 236/152/1 235/154/1
f 173/153/1 235/154/1 234/155/1
f 174/156/1 173/153/1 234/155/1
f 174/156/1 234/155/1 233/157/1
f 174/156/1 233/157/1 232/158/1
f 175/159/1 174/156/1 232/158/1
f 175/159/1 232/158/1 231/160/1
f 176/161/1 175/159/1 231/160/1
f 176/161/1 231/160/1 230/162/1
f 176/161/1 230/162/1 229/163/1
f 177/164/1 176/161/1 229/163/1
f 177/164/1 229/163/1 228/165/1
f 178/166/1 177/164/1 228/165/1
f 178/166/1 228/165/1 227/167/1
f 178/166/1 227/167/1 226/168/1
f 179/169/1 178/166/1 226/168/1
f 179/169/1 226/168/1 225/170/1
f 180/171/1 179/169/1 225/170/1
f 180/171/1 225/170/1 224/172/1
f 181/173/1 180/171/1 224/172/1
f 181/173/1 224/172/1 223/174/1
f 182/175/1 181/173/1 223/174/1
f 182/175/1 223/174/1 222/176/1
f 183/177/1 182/175/1 222/176/1
f 183/177/1 222/176/1 221/178/1
f 204/179/1 203/180/1 202/181/1
f 183/177/1 221/178/1 220/182/1
f 205/183/1 204/179/1 202/181/1
f 184/184/1 183/177/1 220/182/1
f 206/185/1 205/183/1 202/181/1
f 184/184/1 220/182/1 219/186/1
f 207/187/1 206/185/1 202/181/1
f 208/188/1 207/187/1 202/181/1
f 184/184/1 219/186/1 218/189/1
f 209/190/1 208/188/1 202/181/1
f 185/191/1 184/184/1 218/189/1
f 210/192/1 209/190/1 202/181/1
f 185/191/1 218/189/1 217/193/1
f 211/194/1 210/192/1 202/181/1
f 212/195/1 211/194/1 202/181/1
f 185/191/1 217/193/1 216/196/1
f 213/197/1 212/195/1 202/181/1
f 214/198/1 213/197/1 202/181/1
f 185/191/1 216/196/1 215/199/1
f 215/199/1 214/198/1 202/181/1
f 185/191/1 215/199/1 202/181/1
f 186/200/1 185/191/1 202/181/1
f 186/200/1 202/181/1 201/201/1
f 187/202/1 186/200/1 201/201/1
f 187/202/1 201/201/1 200/203/1
f 187/202/1 200/203/1 199/204/1
f 187/202/1 199/204/1 198/205/1
f 188/206/1 187/202/1 198/205/1
f 188/206/1 198/205/1 197/207/1
f 188/206/1 197/207/1 196/208/1
f 188/206/1 196/208/1 195/209/1
f 189/210/1 188/206/1 195/209/1
f 189/210/1 195/209/1 194/211/1
f 189/210/1 194/211/1 193/212/1
f 189/210/1 193/212/1 192/213/1
f 190/214/1 189/210/1 192/213/1
f 190/214/1 192/213/1 191/215/1
f 254/14/1 253/117/1 252/4/1
f 254/14/1 252/4/1 260/15/1
f 260/15/1 252/4/1 259/118/1
f 254/14/1 260/15/1 262/5/1
f 261/119/1 260/15/1 259/118/1
f 254/14/1 262/5/1 256/13/1
f 256/13/1 262/5/1 261/119/1
f 256/13/1 261/119/1 257/115/1
f 257/115/1 261/119/1 259/118/1
f 254/14/1 256/13/1 255/116/1
f 258/16/1 257/115/1 259/118/1
f 263/4/1 314/216/1 315/217/1
f 315/217/1 314/216/1 313/218/1
f 315/217/1 313/218/1 312/219/1
f 315/217/1 312/219/1 311/220/1
f 315/217/1 311/220/1 310/221/1
f 315/217/1 310/221/1 309/222/1
f 315/217/1 309/222/1 308/19/1
f 315/217/1 308/19/1 307/223/1
f 315/217/1 307/223/1 306/224/1
f 315/217/1 306/224/1 316/225/1
f 316/225/1 306/224/1 305/13/1
f 263/4/1 315/217/1 341/226/1
f 317/227/1 316/225/1 305/13/1
f 318/228/1 317/227/1 305/13/1
f 318/228/1 305/13/1 304/229/1
f 319/230/1 318/228/1 304/229/1
f 320/231/1 319/230/1 304/229/1
f 321/232/1 320/231/1 304/229/1
f 322/233/1 321/232/1 304/229/1
f 322/233/1 304/229/1 303/234/1
f 323/20/1 322/233/1 303/234/1
f 324/235/1 323/20/1 303/234/1
f 324/235/1 303/234/1 302/236/1
f 325/237/1 324/235/1 302/236/1
f 326/16/1 325/237/1 302/236/1
f 326/16/1 302/236/1 301/238/1
f 327/239/1 326/16/1 301/238/1
f 328/240/1 327/239/1 301/238/1
f 328/240/1 301/238/1 300/241/1
f 329/242/1 328/240/1 300/241/1
f 329/242/1 300/241/1 299/243/1
f 330/244/1 329/242/1 299/243/1
f 330/244/1 299/243/1 298/24/1
f 331/245/1 330/244/1 298/24/1
f 331/245/1 298/24/1 297/246/1
f 332/247/1 331/245/1 297/246/1
f 332/247/1 297/246/1 296/248/1
f 333/23/1 332/247/1 296/248/1
f 333/23/1 296/248/1 295/249/1
f 334/250/1 333/23/1 295/249/1
f 334/250/1 295/249/1 294/251/1
f 335/252/1 334/250/1 294/251/1
f 336/253/1 335/252/1 294/251/1
f 336/253/1 294/251/1 293/17/1
f 337/254/1 336/253/1 293/17/1
f 337/254/1 293/17/1 292/255/1
f 338/22/1 337/254/1 292/255/1
f 339/256/1 338/22/1 292/255/1
f 340/257/1 339/256/1 292/255/1
f 263/4/1 341/226/1 342/258/1
f 342/258/1 341/226/1 340/257/1
f 342/258/1 340/257/1 292/255/1
f 342/258/1 292/255/1 291/259/1
f 342/258/1 291/259/1 290/260/1
f 342/258/1 290/260/1 289/261/1
f 342/258/1 289/261/1 288/262/1
f 342/258/1 288/262/1 287/263/1
f 342/258/1 287/263/1 286/264/1
f 342/258/1 286/264/1 285/265/1
f 342/258/1 285/265/1 284/14/1
f 342/258/1 284/14/1 283/266/1
f 342/258/1 283/266/1 343/267/1
f 343/267/1 283/266/1 282/268/1
f 263/4/1 342/258/1 368/5/1
f 344/269/1 343/267/1 282/268/1
f 345/270/1 344/269/1 282/268/1
f 346/271/1 345/270/1 282/268/1
f 346/271/1 282/268/1 281/272/1
f 347/15/1 346/271/1 281/272/1
f 348/273/1 347/15/1 281/272/1
f 348/273/1 281/272/1 280/274/1
f 349/275/1 348/273/1 280/274/1
f 350/276/1 349/275/1 280/274/1
f 350/276/1 280/274/1 279/277/1
f 351/278/1 350/276/1 279/277/1
f 352/279/1 351/278/1 279/277/1
f 352/279/1 279/277/1 278/18/1
f 353/21/1 352/279/1 278/18/1
f 353/21/1 278/18/1 277/280/1
f 354/281/1 353/21/1 277/280/1
f 355/282/1 354/281/1 277/280/1
f 355/282/1 277/280/1 276/283/1
f 356/284/1 355/282/1 276/283/1
f 357/285/1 356/284/1 276/283/1
f 357/285/1 276/283/1 275/286/1
f 358/287/1 357/285/1 275/286/1
f 358/287/1 275/286/1 274/288/1
f 359/289/1 358/287/1 274/288/1
f 360/290/1 359/289/1 274/288/1
f 360/290/1 274/288/1 273/291/1
f 361/292/1 360/290/1 273/291/1
f 362/293/1 361/292/1 273/291/1
f 362/293/1 273/291/1 272/294/1
f 363/295/1 362/293/1 272/294/1
f 364/296/1 363/295/1 272/294/1
f 365/297/1 364/296/1 272/294/1
f 365/297/1 272/294/1 271/298/1
f 366/299/1 365/297/1 271/298/1
f 367/300/1 366/299/1 271/298/1
f 263/4/1 368/5/1 367/300/1
f 263/4/1 367/300/1 271/298/1
f 263/4/1 271/298/1 270/301/1
f 263/4/1 270/301/1 269/302/1
f 263/4/1 269/302/1 268/303/1
f 263/4/1 268/303/1 267/304/1
f 263/4/1 267/304/1 266/305/1
f 263/4/1 266/305/1 265/306/1
f 263/4/1 265/306/1 264/307/1
f 371/1/4 379/3/4 370/2/4
f 379/3/4 369/4/4 370/2/4
f 379/3/4 380/5/4 369/4/4
f 371/1/4 378/6/4 379/3/4
f 371/1/4 375/7/4 378/6/4
f 375/7/4 377/8/4 378/6/4
f 375/7/4 376/9/4 377/8/4
f 371/1/4 374/10/4 375/7/4
f 371/1/4 373/11/4 374/10/4
f 371/1/4 372/12/4 373/11/4
f 383/13/4 381/4/4 382/14/4
f 383/13/4 386/5/4 381/4/4
f 383/13/4 385/15/4 386/5/4
f 383/13/4 384/16/4 385/15/4
f 389/17/4 387/4/4 388/18/4
f 389/17/4 394/5/4 387/4/4
f 390/19/2 394/5/2 389/17/2
f 391/20/4 393/21/4 390/19/4
f 393/21/2 394/5/2 390/19/2
f 391/20/4 392/22/4 393/21/4
f 397/23/4 395/4/4 396/24/4
f 397/23/4 398/5/4 395/4/4
f 401/17/4 399/4/4 400/18/4
f 401/17/4 406/5/4 399/4/4
f 402/19/2 406/5/2 401/17/2
f 403/20/4 405/21/4 402/19/4
f 405/21/2 406/5/2 402/19/2
f 403/20/4 404/22/4 405/21/4
f 444/25/4 442/27/4 443/26/4
f 444/25/4 441/28/4 442/27/4
f 445/13/4 441/28/4 444/25/4
f 445/13/4 440/29/4 441/28/4
f 446/30/4 440/29/4 445/13/4
f 446/30/4 439/31/4 440/29/4
f 447/32/4 439/31/4 446/30/4
f 447/32/4 438/33/4 439/31/4
f 448/34/4 438/33/4 447/32/4
f 448/34/4 437/35/4 438/33/4
f 449/36/4 467/37/4 448/34/4
f 467/37/5 437/35/5 448/34/5
f 449/36/4 466/38/4 467/37/4
f 468/39/4 437/35/4 467/37/4
f 469/40/4 437/35/4 468/39/4
f 449/36/4 465/41/4 466/38/4
f 470/42/4 437/35/4 469/40/4
f 449/36/4 464/16/4 465/41/4
f 470/42/4 436/43/4 437/35/4
f 450/44/4 464/16/4 449/36/4
f 471/45/4 436/43/4 470/42/4
f 450/44/4 463/46/4 464/16/4
f 472/47/4 436/43/4 471/45/4
f 450/44/4 462/48/4 463/46/4
f 472/47/4 435/49/4 436/43/4
f 451/50/4 462/48/4 450/44/4
f 473/51/4 435/49/4 472/47/4
f 451/50/4 461/52/4 462/48/4
f 474/53/4 435/49/4 473/51/4
f 451/50/4 460/54/4 461/52/4
f 474/53/4 434/55/4 435/49/4
f 452/56/4 460/54/4 451/50/4
f 475/57/4 434/55/4 474/53/4
f 452/56/4 459/58/4 460/54/4
f 475/57/4 433/59/4 434/55/4
f 453/60/4 459/58/4 452/56/4
f 476/61/4 433/59/4 475/57/4
f 453/60/4 458/62/4 459/58/4
f 477/63/4 433/59/4 476/61/4
f 453/60/4 457/64/4 458/62/4
f 477/63/4 432/65/4 433/59/4
f 454/66/4 457/64/4 453/60/4
f 478/67/4 432/65/4 477/63/4
f 454/66/4 456/68/4 457/64/4
f 478/67/4 431/69/4 432/65/4
f 407/4/4 456/68/4 454/66/4
f 479/70/4 431/69/4 478/67/4
f 407/4/4 455/71/4 456/68/4
f 408/72/4 455/71/4 407/4/4
f 408/72/4 502/5/4 455/71/4
f 480/73/4 431/69/4 479/70/4
f 480/73/4 430/74/4 431/69/4
f 408/72/4 501/75/4 502/5/4
f 481/76/4 430/74/4 480/73/4
f 481/76/4 429/77/4 430/74/4
f 409/78/4 501/75/4 408/72/4
f 409/78/4 500/79/4 501/75/4
f 482/80/4 429/77/4 481/76/4
f 482/80/4 428/81/4 429/77/4
f 410/82/4 500/79/4 409/78/4
f 483/15/4 428/81/4 482/80/4
f 410/82/4 499/83/4 500/79/4
f 483/15/4 427/84/4 428/81/4
f 411/85/4 499/83/4 410/82/4
f 484/86/4 427/84/4 483/15/4
f 411/85/4 498/87/4 499/83/4
f 485/88/4 427/84/4 484/86/4
f 411/85/4 497/89/4 498/87/4
f 485/88/4 426/14/4 427/84/4
f 412/90/4 497/89/4 411/85/4
f 486/91/4 426/14/4 485/88/4
f 412/90/4 496/92/4 497/89/4
f 487/93/4 426/14/4 486/91/4
f 412/90/4 495/94/4 496/92/4
f 487/93/4 425/95/4 426/14/4
f 413/96/4 495/94/4 412/90/4
f 488/97/4 425/95/4 487/93/4
f 413/96/4 494/98/4 495/94/4
f 489/99/4 425/95/4 488/97/4
f 413/96/4 493/100/4 494/98/4
f 489/99/4 424/101/4 425/95/4
f 414/102/4 493/100/4 413/96/4
f 490/103/4 424/101/4 489/99/4
f 414/102/4 492/104/4 493/100/4
f 491/105/4 424/101/4 490/103/4
f 414/102/4 491/105/4 492/104/4
f 414/102/4 424/101/4 491/105/4
f 414/102/4 423/106/4 424/101/4
f 415/107/4 423/106/4 414/102/4
f 415/107/4 422/108/4 423/106/4
f 416/109/4 422/108/4 415/107/4
f 416/109/4 421/110/4 422/108/4
f 417/111/4 421/110/4 416/109/4
f 417/111/4 420/112/4 421/110/4
f 418/113/4 420/112/4 417/111/4
f 418/113/4 419/114/4 420/112/4
f 505/17/4 503/4/4 504/18/4
f 505/17/4 510/5/4 503/4/4
f 506/19/2 510/5/2 505/17/2
f 507/20/4 509/21/4 506/19/4
f 509/21/2 510/5/2 506/19/2
f 507/20/4 508/22/4 509/21/4
f 517/16/4 515/13/4 516/115/4
f 517/16/4 514/116/4 515/13/4
f 514/116/4 512/117/4 513/14/4
f 514/116/4 511/4/4 512/117/4
f 517/16/4 519/15/4 514/116/4
f 519/15/4 511/4/4 514/116/4
f 519/15/4 521/5/4 511/4/4
f 517/16/4 518/118/4 519/15/4
f 520/119/4 521/5/4 519/15/4
f 535/120/4 533/122/4 534/121/4
f 535/120/4 532/123/4 533/122/4
f 535/120/4 531/124/4 532/123/4
f 536/125/4 531/124/4 535/120/4
f 536/125/4 530/126/4 531/124/4
f 536/125/4 529/127/4 530/126/4
f 536/125/4 528/128/4 529/127/4
f 537/129/4 528/128/4 536/125/4
f 537/129/4 527/130/4 528/128/4
f 537/129/4 526/131/4 527/130/4
f 537/129/4 525/132/4 526/131/4
f 538/133/4 525/132/4 537/129/4
f 538/133/4 524/134/4 525/132/4
f 538/133/4 523/135/4 524/134/4
f 538/133/4 522/4/4 523/135/4
f 539/136/4 522/4/4 538/133/4
f 539/136/4 609/137/4 522/4/4
f 609/137/4 610/138/4 522/4/4
f 610/138/4 611/139/4 522/4/4
f 611/139/4 612/140/4 522/4/4
f 612/140/4 613/141/4 522/4/4
f 613/141/4 614/142/4 522/4/4
f 614/142/4 615/143/4 522/4/4
f 615/143/4 616/144/4 522/4/4
f 616/144/4 617/145/4 522/4/4
f 617/145/4 618/146/4 522/4/4
f 618/146/4 619/5/4 522/4/4
f 540/147/4 607/148/4 539/136/4
f 607/148/6 608/149/6 539/136/6
f 608/149/4 609/137/4 539/136/4
f 540/147/4 606/150/4 607/148/4
f 540/147/4 605/151/4 606/150/4
f 540/147/4 604/152/4 605/151/4
f 541/153/4 604/152/4 540/147/4
f 541/153/4 603/154/4 604/152/4
f 541/153/4 602/155/4 603/154/4
f 542/156/4 602/155/4 541/153/4
f 542/156/4 601/157/4 602/155/4
f 542/156/4 600/158/4 601/157/4
f 543/159/4 600/158/4 542/156/4
f 543/159/4 599/160/4 600/158/4
f 544/161/4 599/160/4 543/159/4
f 544/161/4 598/162/4 599/160/4
f 544/161/4 597/163/4 598/162/4
f 545/164/4 597/163/4 544/161/4
f 545/164/4 596/165/4 597/163/4
f 546/166/4 596/165/4 545/164/4
f 546/166/4 595/167/4 596/165/4
f 546/166/4 594/168/4 595/167/4
f 547/169/4 594/168/4 546/166/4
f 547/169/4 593/170/4 594/168/4
f 548/171/4 593/170/4 547/169/4
f 548/171/4 592/172/4 593/170/4
f 549/173/4 592/172/4 548/171/4
f 549/173/4 591/174/4 592/172/4
f 550/175/4 591/174/4 549/173/4
f 550/175/4 590/176/4 591/174/4
f 551/177/4 590/176/4 550/175/4
f 551/177/4 589/178/4 590/176/4
f 572/179/4 570/181/4 571/180/4
f 551/177/4 588/182/4 589/178/4
f 573/183/4 570/181/4 572/179/4
f 552/184/4 588/182/4 551/177/4
f 574/185/4 570/181/4 573/183/4
f 552/184/4 587/186/4 588/182/4
f 575/187/4 570/181/4 574/185/4
f 576/188/4 570/181/4 575/187/4
f 552/184/4 586/189/4 587/186/4
f 577/190/4 570/181/4 576/188/4
f 553/191/4 586/189/4 552/184/4
f 578/192/4 570/181/4 577/190/4
f 553/191/4 585/193/4 586/189/4
f 579/194/4 570/181/4 578/192/4
f 580/195/4 570/181/4 579/194/4
f 553/191/4 584/196/4 585/193/4
f 581/197/4 570/181/4 580/195/4
f 582/198/4 570/181/4 581/197/4
f 553/191/4 583/199/4 584/196/4
f 583/199/4 570/181/4 582/198/4
f 553/191/4 570/181/4 583/199/4
f 554/200/4 570/181/4 553/191/4
f 554/200/4 569/201/4 570/181/4
f 555/202/4 569/201/4 554/200/4
f 555/202/4 568/203/4 569/201/4
f 555/202/4 567/204/4 568/203/4
f 555/202/4 566/205/4 567/204/4
f 556/206/4 566/205/4 555/202/4
f 556/206/4 565/207/4 566/205/4
f 556/206/4 564/208/4 565/207/4
f 556/206/4 563/209/4 564/208/4
f 557/210/4 563/209/4 556/206/4
f 557/210/4 562/211/4 563/209/4
f 557/210/4 561/212/4 562/211/4
f 557/210/4 560/213/4 561/212/4
f 558/214/4 560/213/4 557/210/4
f 558/214/6 559/215/6 560/213/6
f 622/14/4 620/4/4 621/117/4
f 622/14/4 628/15/4 620/4/4
f 628/15/4 627/118/4 620/4/4
f 622/14/4 630/5/4 628/15/4
f 629/119/4 627/118/4 628/15/4
f 622/14/4 624/13/4 630/5/4
f 624/13/4 629/119/4 630/5/4
f 624/13/4 625/115/4 629/119/4
f 625/115/4 627/118/4 629/119/4
f 622/14/4 623/116/4 624/13/4
f 626/16/4 627/118/4 625/115/4
f 631/4/4 683/217/4 682/216/4
f 683/217/4 681/218/4 682/216/4
f 683/217/4 680/219/4 681/218/4
f 683/217/4 679/220/4 680/219/4
f 683/217/4 678/221/4 679/220/4
f 683/217/4 677/222/4 678/221/4
f 683/217/4 676/19/4 677/222/4
f 683/217/4 675/223/4 676/19/4
f 683/217/4 674/224/4 675/223/4
f 683/217/4 684/225/4 674/224/4
f 684/225/4 673/13/4 674/224/4
f 631/4/4 709/226/4 683/217/4
f 685/227/4 673/13/4 684/225/4
f 686/228/4 673/13/4 685/227/4
f 686/228/4 672/229/4 673/13/4
f 687/230/4 672/229/4 686/228/4
f 688/231/4 672/229/4 687/230/4
f 689/232/4 672/229/4 688/231/4
f 690/233/4 672/229/4 689/232/4
f 690/233/4 671/234/4 672/229/4
f 691/20/4 671/234/4 690/233/4
f 692/235/4 671/234/4 691/20/4
f 692/235/4 670/236/4 671/234/4
f 693/237/4 670/236/4 692/235/4
f 694/16/4 670/236/4 693/237/4
f 694/16/4 669/238/4 670/236/4
f 695/239/4 669/238/4 694/16/4
f 696/240/4 669/238/4 695/239/4
f 696/240/4 668/241/4 669/238/4
f 697/242/4 668/241/4 696/240/4
f 697/242/4 667/243/4 668/241/4
f 698/244/4 667/243/4 697/242/4
f 698/244/4 666/24/4 667/243/4
f 699/245/4 666/24/4 698/244/4
f 699/245/4 665/246/4 666/24/4
f 700/247/4 665/246/4 699/245/4
f 700/247/4 664/248/4 665/246/4
f 701/23/4 664/248/4 700/247/4
f 701/23/4 663/249/4 664/248/4
f 702/250/4 663/249/4 701/23/4
f 702/250/4 662/251/4 663/249/4
f 703/252/4 662/251/4 702/250/4
f 704/253/4 662/251/4 703/252/4
f 704/253/4 661/17/4 662/251/4
f 705/254/4 661/17/4 704/253/4
f 705/254/4 660/255/4 661/17/4
f 706/22/4 660/255/4 705/254/4
f 707/256/4 660/255/4 706/22/4
f 708/257/4 660/255/4 707/256/4
f 631/4/4 710/258/4 709/226/4
f 710/258/4 708/257/4 709/226/4
f 710/258/4 660/255/4 708/257/4
f 710/258/4 659/259/4 660/255/4
f 710/258/4 658/260/4 659/259/4
f 710/258/4 657/261/4 658/260/4
f 710/258/4 656/262/4 657/261/4
f 710/258/4 655/263/4 656/262/4
f 710/258/4 654/264/4 655/263/4
f 710/258/4 653/265/4 654/264/4
f 710/258/4 652/14/4 653/265/4
f 710/258/4 651/266/4 652/14/4
f 710/258/4 711/267/4 651/266/4
f 711/267/4 650/268/4 651/266/4
f 631/4/4 736/5/4 710/258/4
f 712/269/4 650/268/4 711/267/4
f 713/270/4 650/268/4 712/269/4
f 714/271/4 650/268/4 713/270/4
f 714/271/4 649/272/4 650/268/4
f 715/15/4 649/272/4 714/271/4
f 716/273/4 649/272/4 715/15/4
f 716/273/4 648/274/4 649/272/4
f 717/275/4 648/274/4 716/273/4
f 718/276/4 648/274/4 717/275/4
f 718/276/4 647/277/4 648/274/4
f 719/278/4 647/277/4 718/276/4
f 720/279/4 647/277/4 719/278/4
f 720/279/4 646/18/4 647/277/4
f 721/21/4 646/18/4 720/279/4
f 721/21/4 645/280/4 646/18/4
f 722/281/4 645/280/4 721/21/4
f 723/282/4 645/280/4 722/281/4
f 723/282/4 644/283/4 645/280/4
f 724/284/4 644/283/4 723/282/4
f 725/285/4 644/283/4 724/284/4
f 725/285/4 643/286/4 644/283/4
f 726/287/4 643/286/4 725/285/4
f 726/287/4 642/288/4 643/286/4
f 727/289/4 642/288/4 726/287/4
f 728/290/4 642/288/4 727/289/4
f 728/290/4 641/291/4 642/288/4
f 729/292/4 641/291/4 728/290/4
f 730/293/4 641/291/4 729/292/4
f 730/293/4 640/294/4 641/291/4
f 731/295/4 640/294/4 730/293/4
f 732/296/4 640/294/4 731/295/4
f 733/297/4 640/294/4 732/296/4
f 733/297/4 639/298/4 640/294/4
f 734/299/4 639/298/4 733/297/4
f 735/300/4 639/298/4 734/299/4
f 631/4/4 735/300/4 736/5/4
f 631/4/4 639/298/4 735/300/4
f 631/4/4 638/301/4 639/298/4
f 631/4/4 637/302/4 638/301/4
f 631/4/4 636/303/4 637/302/4
f 631/4/4 635/304/4 636/303/4
f 631/4/4 634/305/4 635/304/4
f 631/4/4 633/306/4 634/305/4
f 631/4/6 632/307/6 633/306/6
f 261/119/2 262/5/2 630/5/2 629/119/2
f 179/169/7 180/171/7 548/171/7 547/169/7
f 152/119/3 153/5/3 521/5/3 520/119/3
f 41/78/8 42/82/8 410/82/8 409/78/8
f 339/256/9 340/257/9 708/257/9 707/256/9
f 256/13/3 257/115/3 625/115/3 624/13/3
f 166/121/10 167/120/10 535/120/10 534/121/10
f 270/301/11 271/298/11 639/298/11 638/301/11
f 70/33/12 71/31/12 439/31/12 438/33/12
f 114/80/13 115/15/13 483/15/13 482/80/13
f 79/32/14 80/34/14 448/34/14 447/32/14
f 224/172/15 225/170/15 593/170/15 592/172/15
f 165/122/16 166/121/16 534/121/16 533/122/16
f 269/302/17 270/301/17 638/301/17 637/302/17
f 254/14/3 255/116/3 623/116/3 622/14/3
f 180/171/18 181/173/18 549/173/18 548/171/18
f 255/116/19 256/13/19 624/13/19 623/116/19
f 164/123/20 165/122/20 533/122/20 532/123/20
f 268/303/21 269/302/21 637/302/21 636/303/21
f 131/83/22 132/79/22 500/79/22 499/83/22
f 340/257/2 341/226/2 709/226/2 708/257/2
f 69/35/23 70/33/23 438/33/23 437/35/23
f 257/115/24 258/16/24 626/16/24 625/115/24
f 80/34/25 81/36/25 449/36/25 448/34/25
f 258/16/3 259/118/3 627/118/3 626/16/3
f 223/174/26 224/172/26 592/172/26 591/174/26
f 163/124/27 164/123/27 532/123/27 531/124/27
f 267/304/28 268/303/28 636/303/28 635/304/28
f 59/84/29 60/81/29 428/81/29 427/84/29
f 314/216/30 263/4/30 631/4/30 682/216/30
f 181/173/31 182/175/31 550/175/31 549/173/31
f 167/120/32 168/125/32 536/125/32 535/120/32
f 42/82/33 43/85/33 411/85/33 410/82/33
f 291/259/34 292/255/34 660/255/34 659/259/34
f 266/305/35 267/304/35 635/304/35 634/305/35
f 115/15/36 116/86/36 484/86/36 483/15/36
f 290/260/37 291/259/37 659/259/37 658/260/37
f 222/176/38 223/174/38 591/174/38 590/176/38
f 162/126/39 163/124/39 531/124/39 530/126/39
f 265/306/40 266/305/40 634/305/40 633/306/40
f 98/38/41 99/37/41 467/37/41 466/38/41
f 313/218/2 314/216/2 682/216/2 681/218/2
f 182/175/42 183/177/42 551/177/42 550/175/42
f 263/4/3 264/307/3 632/307/3 631/4/3
f 289/261/43 290/260/43 658/260/43 657/261/43
f 99/37/44 100/39/44 468/39/44 467/37/44
f 161/127/45 162/126/45 530/126/45 529/127/45
f 264/307/46 265/306/46 633/306/46 632/307/46
f 130/87/47 131/83/47 499/83/47 498/87/47
f 312/219/48 313/218/48 681/218/48 680/219/48
f 116/86/49 117/88/49 485/88/49 484/86/49
f 288/262/50 289/261/50 657/261/50 656/262/50
f 100/39/51 101/40/51 469/40/51 468/39/51
f 221/178/52 222/176/52 590/176/52 589/178/52
f 160/128/53 161/127/53 529/127/53 528/128/53
f 311/220/54 312/219/54 680/219/54 679/220/54
f 203/180/55 204/179/55 572/179/55 571/180/55
f 168/125/56 169/129/56 537/129/56 536/125/56
f 287/263/57 288/262/57 656/262/57 655/263/57
f 129/89/58 130/87/58 498/87/58 497/89/58
f 97/41/59 98/38/59 466/38/59 465/41/59
f 310/221/60 311/220/60 679/220/60 678/221/60
f 202/181/50 203/180/50 571/180/50 570/181/50
f 286/264/61 287/263/61 655/263/61 654/264/61
f 101/40/62 102/42/62 470/42/62 469/40/62
f 159/130/63 160/128/63 528/128/63 527/130/63
f 58/14/64 59/84/64 427/84/64 426/14/64
f 309/222/65 310/221/65 678/221/65 677/222/65
f 220/182/66 221/178/66 589/178/66 588/182/66
f 43/85/67 44/90/67 412/90/67 411/85/67
f 285/265/68 286/264/68 654/264/68 653/265/68
f 204/179/69 205/183/69 573/183/69 572/179/69
f 158/131/70 159/130/70 527/130/70 526/131/70
f 96/16/71 97/41/71 465/41/71 464/16/71
f 308/19/72 309/222/72 677/222/72 676/19/72
f 117/88/73 118/91/73 486/91/73 485/88/73
f 284/14/74 285/265/74 653/265/74 652/14/74
f 183/177/75 184/184/75 552/184/75 551/177/75
f 157/132/76 158/131/76 526/131/76 525/132/76
f 68/43/77 69/35/77 437/35/77 436/43/77
f 307/223/78 308/19/78 676/19/78 675/223/78
f 169/129/79 170/133/79 538/133/79 537/129/79
f 283/266/80 284/14/80 652/14/80 651/266/80
f 81/36/81 82/44/81 450/44/81 449/36/81
f 205/183/82 206/185/82 574/185/82 573/183/82
f 128/92/83 129/89/83 497/89/83 496/92/83
f 342/258/3 343/267/3 711/267/3 710/258/3
f 306/224/84 307/223/84 675/223/84 674/224/84
f 118/91/85 119/93/85 487/93/85 486/91/85
f 102/42/86 103/45/86 471/45/86 470/42/86
f 315/217/3 316/225/3 684/225/3 683/217/3
f 156/134/87 157/132/87 525/132/87 524/134/87
f 219/186/88 220/182/88 588/182/88 587/186/88
f 282/268/89 283/266/89 651/266/89 650/268/89
f 2/2/30 3/1/30 371/1/30 370/2/30
f 206/185/90 207/187/90 575/187/90 574/185/90
f 155/135/91 156/134/91 524/134/91 523/135/91
f 127/94/92 128/92/92 496/92/92 495/94/92
f 95/46/93 96/16/93 464/16/93 463/46/93
f 305/13/94 306/224/94 674/224/94 673/13/94
f 368/5/50 342/258/50 710/258/50 736/5/50
f 103/45/95 104/47/95 472/47/95 471/45/95
f 207/187/96 208/188/96 576/188/96 575/187/96
f 154/4/97 155/135/97 523/135/97 522/4/97
f 57/95/98 58/14/98 426/14/98 425/95/98
f 343/267/99 344/269/99 712/269/99 711/267/99
f 341/226/50 315/217/50 683/217/50 709/226/50
f 170/133/100 171/136/100 539/136/100 538/133/100
f 44/90/101 45/96/101 413/96/101 412/90/101
f 316/225/102 317/227/102 685/227/102 684/225/102
f 1/4/2 2/2/2 370/2/2 369/4/2
f 344/269/103 345/270/103 713/270/103 712/269/103
f 94/48/104 95/46/104 463/46/104 462/48/104
f 11/3/3 12/5/3 380/5/3 379/3/3
f 218/189/105 219/186/105 587/186/105 586/189/105
f 119/93/106 120/97/106 488/97/106 487/93/106
f 317/227/107 318/228/107 686/228/107 685/227/107
f 12/5/50 1/4/50 369/4/50 380/5/50
f 208/188/108 209/190/108 577/190/108 576/188/108
f 345/270/109 346/271/109 714/271/109 713/270/109
f 67/49/110 68/43/110 436/43/110 435/49/110
f 241/137/111 242/138/111 610/138/111 609/137/111
f 82/44/112 83/50/112 451/50/112 450/44/112
f 10/6/50 11/3/50 379/3/50 378/6/50
f 184/184/113 185/191/113 553/191/113 552/184/113
f 126/98/114 127/94/114 495/94/114 494/98/114
f 304/229/115 305/13/115 673/13/115 672/229/115
f 242/138/116 243/139/116 611/139/116 610/138/116
f 120/97/117 121/99/117 489/99/117 488/97/117
f 281/272/118 282/268/118 650/268/118 649/272/118
f 104/47/119 105/51/119 473/51/119 472/47/119
f 318/228/120 319/230/120 687/230/120 686/228/120
f 209/190/121 210/192/121 578/192/121 577/190/121
f 346/271/122 347/15/122 715/15/122 714/271/122
f 243/139/123 244/140/123 612/140/123 611/139/123
f 319/230/124 320/231/124 688/231/124 687/230/124
f 9/8/2 10/6/2 378/6/2 377/8/2
f 125/100/125 126/98/125 494/98/125 493/100/125
f 347/15/126 348/273/126 716/273/126 715/15/126
f 93/52/127 94/48/127 462/48/127 461/52/127
f 7/7/3 8/9/3 376/9/3 375/7/3
f 217/193/128 218/189/128 586/189/128 585/193/128
f 244/140/129 245/141/129 613/141/129 612/140/129
f 105/51/130 106/53/130 474/53/130 473/51/130
f 320/231/131 321/232/131 689/232/131 688/231/131
f 8/9/50 9/8/50 377/8/50 376/9/50
f 210/192/132 211/194/132 579/194/132 578/192/132
f 56/101/133 57/95/133 425/95/133 424/101/133
f 245/141/134 246/142/134 614/142/134 613/141/134
f 45/96/135 46/102/135 414/102/135 413/96/135
f 280/274/136 281/272/136 649/272/136 648/274/136
f 321/232/137 322/233/137 690/233/137 689/232/137
f 6/10/50 7/7/50 375/7/50 374/10/50
f 211/194/138 212/195/138 580/195/138 579/194/138
f 348/273/139 349/275/139 717/275/139 716/273/139
f 92/54/140 93/52/140 461/52/140 460/54/140
f 246/142/141 247/143/141 615/143/141 614/142/141
f 121/99/142 122/103/142 490/103/142 489/99/142
f 5/11/2 6/10/2 374/10/2 373/11/2
f 349/275/143 350/276/143 718/276/143 717/275/143
f 66/55/144 67/49/144 435/49/144 434/55/144
f 303/234/145 304/229/145 672/229/145 671/234/145
f 3/1/3 4/12/3 372/12/3 371/1/3
f 216/196/146 217/193/146 585/193/146 584/196/146
f 247/143/147 248/144/147 616/144/147 615/143/147
f 83/50/148 84/56/148 452/56/148 451/50/148
f 322/233/149 323/20/149 691/20/149 690/233/149
f 4/12/50 5/11/50 373/11/50 372/12/50
f 212/195/150 213/197/150 581/197/150 580/195/150
f 124/104/151 125/100/151 493/100/151 492/104/151
f 14/14/30 15/13/30 383/13/30 382/14/30
f 248/144/152 249/145/152 617/145/152 616/144/152
f 122/103/153 123/105/153 491/105/153 490/103/153
f 279/277/154 280/274/154 648/274/154 647/277/154
f 106/53/155 107/57/155 475/57/155 474/53/155
f 323/20/156 324/235/156 692/235/156 691/20/156
f 213/197/157 214/198/157 582/198/157 581/197/157
f 350/276/158 351/278/158 719/278/158 718/276/158
f 13/4/2 14/14/2 382/14/2 381/4/2
f 249/145/159 250/146/159 618/146/159 617/145/159
f 123/105/160 124/104/160 492/104/160 491/105/160
f 351/278/161 352/279/161 720/279/161 719/278/161
f 91/58/162 92/54/162 460/54/162 459/58/162
f 302/236/163 303/234/163 671/234/163 670/236/163
f 18/5/50 13/4/50 381/4/50 386/5/50
f 215/199/164 216/196/164 584/196/164 583/199/164
f 250/146/165 251/5/165 619/5/165 618/146/165
f 324/235/166 325/237/166 693/237/166 692/235/166
f 214/198/167 215/199/167 583/199/167 582/198/167
f 251/5/50 154/4/50 522/4/50 619/5/50
f 65/59/168 66/55/168 434/55/168 433/59/168
f 17/15/2 18/5/2 386/5/2 385/15/2
f 171/136/169 172/147/169 540/147/169 539/136/169
f 55/106/170 56/101/170 424/101/170 423/106/170
f 278/18/171 279/277/171 647/277/171 646/18/171
f 84/56/172 85/60/172 453/60/172 452/56/172
f 325/237/173 326/16/173 694/16/173 693/237/173
f 15/13/3 16/16/3 384/16/3 383/13/3
f 46/102/174 47/107/174 415/107/174 414/102/174
f 352/279/175 353/21/175 721/21/175 720/279/175
f 16/16/50 17/15/50 385/15/50 384/16/50
f 185/191/176 186/200/176 554/200/176 553/191/176
f 107/57/177 108/61/177 476/61/177 475/57/177
f 20/18/30 21/17/30 389/17/30 388/18/30
f 239/148/178 240/149/178 608/149/178 607/148/178
f 301/238/179 302/236/179 670/236/179 669/238/179
f 54/108/180 55/106/180 423/106/180 422/108/180
f 277/280/181 278/18/181 646/18/181 645/280/181
f 326/16/182 327/239/182 695/239/182 694/16/182
f 19/4/2 20/18/2 388/18/2 387/4/2
f 201/201/183 202/181/183 570/181/183 569/201/183
f 240/149/184 241/137/184 609/137/184 608/149/184
f 47/107/185 48/109/185 416/109/185 415/107/185
f 353/21/186 354/281/186 722/281/186 721/21/186
f 90/62/187 91/58/187 459/58/187 458/62/187
f 186/200/188 187/202/188 555/202/188 554/200/188
f 108/61/189 109/63/189 477/63/189 476/61/189
f 327/239/190 328/240/190 696/240/190 695/239/190
f 26/5/50 19/4/50 387/4/50 394/5/50
f 238/150/191 239/148/191 607/148/191 606/150/191
f 354/281/192 355/282/192 723/282/192 722/281/192
f 21/17/3 22/19/3 390/19/3 389/17/3
f 53/110/193 54/108/193 422/108/193 421/110/193
f 200/203/194 201/201/194 569/201/194 568/203/194
f 237/151/195 238/150/195 606/150/195 605/151/195
f 48/109/196 49/111/196 417/111/196 416/109/196
f 89/64/197 90/62/197 458/62/197 457/64/197
f 300/241/198 301/238/198 669/238/198 668/241/198
f 22/19/30 23/20/30 391/20/30 390/19/30
f 276/283/199 277/280/199 645/280/199 644/283/199
f 328/240/200 329/242/200 697/242/200 696/240/200
f 199/204/201 200/203/201 568/203/201 567/204/201
f 236/152/202 237/151/202 605/151/202 604/152/202
f 355/282/203 356/284/203 724/284/203 723/282/203
f 64/65/204 65/59/204 433/59/204 432/65/204
f 172/147/205 173/153/205 541/153/205 540/147/205
f 52/112/206 53/110/206 421/110/206 420/112/206
f 85/60/207 86/66/207 454/66/207 453/60/207
f 25/21/3 26/5/3 394/5/3 393/21/3
f 198/205/208 199/204/208 567/204/208 566/205/208
f 49/111/209 50/113/209 418/113/209 417/111/209
f 356/284/210 357/285/210 725/285/210 724/284/210
f 299/243/211 300/241/211 668/241/211 667/243/211
f 23/20/3 24/22/3 392/22/3 391/20/3
f 187/202/212 188/206/212 556/206/212 555/202/212
f 109/63/213 110/67/213 478/67/213 477/63/213
f 329/242/214 330/244/214 698/244/214 697/242/214
f 24/22/50 25/21/50 393/21/50 392/22/50
f 235/154/215 236/152/215 604/152/215 603/154/215
f 50/113/216 51/114/216 419/114/216 418/113/216
f 28/24/30 29/23/30 397/23/30 396/24/30
f 51/114/217 52/112/217 420/112/217 419/114/217
f 275/286/218 276/283/218 644/283/218 643/286/218
f 197/207/219 198/205/219 566/205/219 565/207/219
f 234/155/220 235/154/220 603/154/220 602/155/220
f 136/18/30 137/17/30 505/17/30 504/18/30
f 357/285/221 358/287/221 726/287/221 725/285/221
f 88/68/222 89/64/222 457/64/222 456/68/222
f 298/24/223 299/243/223 667/243/223 666/24/223
f 27/4/2 28/24/2 396/24/2 395/4/2
f 173/153/224 174/156/224 542/156/224 541/153/224
f 330/244/225 331/245/225 699/245/225 698/244/225
f 29/23/3 30/5/3 398/5/3 397/23/3
f 196/208/226 197/207/226 565/207/226 564/208/226
f 135/4/2 136/18/2 504/18/2 503/4/2
f 63/69/227 64/65/227 432/65/227 431/69/227
f 30/5/50 27/4/50 395/4/50 398/5/50
f 274/288/228 275/286/228 643/286/228 642/288/228
f 86/66/229 39/4/229 407/4/229 454/66/229
f 32/18/30 33/17/30 401/17/30 400/18/30
f 195/209/230 196/208/230 564/208/230 563/209/230
f 233/157/231 234/155/231 602/155/231 601/157/231
f 142/5/50 135/4/50 503/4/50 510/5/50
f 358/287/232 359/289/232 727/289/232 726/287/232
f 297/246/233 298/24/233 666/24/233 665/246/233
f 188/206/234 189/210/234 557/210/234 556/206/234
f 137/17/3 138/19/3 506/19/3 505/17/3
f 110/67/235 111/70/235 479/70/235 478/67/235
f 331/245/236 332/247/236 700/247/236 699/245/236
f 31/4/2 32/18/2 400/18/2 399/4/2
f 232/158/237 233/157/237 601/157/237 600/158/237
f 359/289/238 360/290/238 728/290/238 727/289/238
f 174/156/239 175/159/239 543/159/239 542/156/239
f 138/19/30 139/20/30 507/20/30 506/19/30
f 38/5/50 31/4/50 399/4/50 406/5/50
f 194/211/240 195/209/240 563/209/240 562/211/240
f 87/71/241 88/68/241 456/68/241 455/71/241
f 296/248/242 297/246/242 665/246/242 664/248/242
f 33/17/3 34/19/3 402/19/3 401/17/3
f 273/291/243 274/288/243 642/288/243 641/291/243
f 39/4/244 40/72/244 408/72/244 407/4/244
f 332/247/245 333/23/245 701/23/245 700/247/245
f 193/212/246 194/211/246 562/211/246 561/212/246
f 231/160/247 232/158/247 600/158/247 599/160/247
f 141/21/3 142/5/3 510/5/3 509/21/3
f 360/290/248 361/292/248 729/292/248 728/290/248
f 34/19/30 35/20/30 403/20/30 402/19/30
f 175/159/249 176/161/249 544/161/249 543/159/249
f 139/20/3 140/22/3 508/22/3 507/20/3
f 192/213/250 193/212/250 561/212/250 560/213/250
f 140/22/50 141/21/50 509/21/50 508/22/50
f 361/292/251 362/293/251 730/293/251 729/292/251
f 134/5/252 87/71/252 455/71/252 502/5/252
f 295/249/253 296/248/253 664/248/253 663/249/253
f 189/210/254 190/214/254 558/214/254 557/210/254
f 148/115/30 149/16/30 517/16/30 516/115/30
f 111/70/255 112/73/255 480/73/255 479/70/255
f 333/23/256 334/250/256 702/250/256 701/23/256
f 37/21/3 38/5/3 406/5/3 405/21/3
f 230/162/257 231/160/257 599/160/257 598/162/257
f 35/20/3 36/22/3 404/22/3 403/20/3
f 190/214/258 191/215/258 559/215/258 558/214/258
f 147/13/2 148/115/2 516/115/2 515/13/2
f 272/294/259 273/291/259 641/291/259 640/294/259
f 36/22/50 37/21/50 405/21/50 404/22/50
f 191/215/260 192/213/260 560/213/260 559/215/260
f 229/163/261 230/162/261 598/162/261 597/163/261
f 362/293/262 363/295/262 731/295/262 730/293/262
f 62/74/263 63/69/263 431/69/263 430/74/263
f 294/251/264 295/249/264 663/249/264 662/251/264
f 75/26/265 76/25/265 444/25/265 443/26/265
f 253/117/266 254/14/266 622/14/266 621/117/266
f 176/161/267 177/164/267 545/164/267 544/161/267
f 146/116/50 147/13/50 515/13/50 514/116/50
f 334/250/268 335/252/268 703/252/268 702/250/268
f 145/14/269 146/116/269 514/116/269 513/14/269
f 363/295/270 364/296/270 732/296/270 731/295/270
f 133/75/271 134/5/271 502/5/271 501/75/271
f 74/27/272 75/26/272 443/26/272 442/27/272
f 252/4/2 253/117/2 621/117/2 620/4/2
f 112/73/273 113/76/273 481/76/273 480/73/273
f 335/252/274 336/253/274 704/253/274 703/252/274
f 228/165/275 229/163/275 597/163/275 596/165/275
f 144/117/2 145/14/2 513/14/2 512/117/2
f 364/296/276 365/297/276 733/297/276 732/296/276
f 73/28/277 74/27/277 442/27/277 441/28/277
f 177/164/278 178/166/278 546/166/278 545/164/278
f 76/25/279 77/13/279 445/13/279 444/25/279
f 143/4/280 144/117/280 512/117/280 511/4/280
f 61/77/281 62/74/281 430/74/281 429/77/281
f 293/17/282 294/251/282 662/251/282 661/17/282
f 259/118/283 252/4/283 620/4/283 627/118/283
f 271/298/284 272/294/284 640/294/284 639/298/284
f 40/72/285 41/78/285 409/78/285 408/72/285
f 336/253/286 337/254/286 705/254/286 704/253/286
f 227/167/287 228/165/287 596/165/287 595/167/287
f 365/297/288 366/299/288 734/299/288 733/297/288
f 72/29/289 73/28/289 441/28/289 440/29/289
f 262/5/290 260/15/290 628/15/290 630/5/290
f 77/13/291 78/30/291 446/30/291 445/13/291
f 260/15/292 261/119/292 629/119/292 628/15/292
f 226/168/293 227/167/293 595/167/293 594/168/293
f 366/299/294 367/300/294 735/300/294 734/299/294
f 132/79/295 133/75/295 501/75/295 500/79/295
f 292/255/296 293/17/296 661/17/296 660/255/296
f 178/166/297 179/169/297 547/169/297 546/166/297
f 153/5/298 143/4/298 511/4/298 521/5/298
f 113/76/299 114/80/299 482/80/299 481/76/299
f 337/254/300 338/22/300 706/22/300 705/254/300
f 149/16/3 150/118/3 518/118/3 517/16/3
f 71/31/301 72/29/301 440/29/301 439/31/301
f 150/118/50 151/15/50 519/15/50 518/118/50
f 367/300/2 368/5/2 736/5/2 735/300/2
f 338/22/302 339/256/302 707/256/302 706/22/302
f 78/30/303 79/32/303 447/32/303 446/30/303
f 225/170/304 226/168/304 594/168/304 593/170/304
f 151/15/305 152/119/305 520/119/305 519/15/305
f 60/81/306 61/77/306 429/77/306 428/81/306
