# Blender 4.4.1
# www.blender.org
mtllib pause.mtl
o テキスト
v -0.884132 0.503648 -0.000000
v -0.633382 0.503648 -0.000000
v -0.633382 0.000000 -0.000000
v -0.889963 0.000000 -0.000000
v -0.889963 0.064987 -0.000000
v -0.696880 0.064987 -0.000000
v -0.696880 0.221546 -0.000000
v -0.877653 0.221546 -0.000000
v -0.877653 0.286533 -0.000000
v -0.696880 0.286533 -0.000000
v -0.696880 0.438661 -0.000000
v -0.884132 0.438661 -0.000000
v -0.546559 0.474847 -0.000000
v -0.538732 0.480509 -0.000000
v -0.530805 0.485678 -0.000000
v -0.522788 0.490355 -0.000000
v -0.514691 0.494540 -0.000000
v -0.506521 0.498232 -0.000000
v -0.498288 0.501432 -0.000000
v -0.490002 0.504140 -0.000000
v -0.481670 0.506356 -0.000000
v -0.473302 0.508079 -0.000000
v -0.464908 0.509310 -0.000000
v -0.456495 0.510048 -0.000000
v -0.448074 0.510294 -0.000000
v -0.428421 0.509215 -0.000000
v -0.410017 0.506031 -0.000000
v -0.392949 0.500821 -0.000000
v -0.377305 0.493665 -0.000000
v -0.363173 0.484642 -0.000000
v -0.350641 0.473831 -0.000000
v -0.339796 0.461313 -0.000000
v -0.330726 0.447167 -0.000000
v -0.323519 0.431472 -0.000000
v -0.318262 0.414308 -0.000000
v -0.315044 0.395754 -0.000000
v -0.313951 0.375890 -0.000000
v -0.317712 0.343870 -0.000000
v -0.328110 0.316353 -0.000000
v -0.343817 0.292579 -0.000000
v -0.363506 0.271790 -0.000000
v -0.385850 0.253227 -0.000000
v -0.409522 0.236131 -0.000000
v -0.433193 0.219742 -0.000000
v -0.455537 0.203303 -0.000000
v -0.475226 0.186052 -0.000000
v -0.490933 0.167233 -0.000000
v -0.501331 0.146085 -0.000000
v -0.505092 0.121850 -0.000000
v -0.504617 0.114706 -0.000000
v -0.503184 0.107402 -0.000000
v -0.500779 0.100088 -0.000000
v -0.497388 0.092913 -0.000000
v -0.492999 0.086024 -0.000000
v -0.487597 0.079572 -0.000000
v -0.481170 0.073704 -0.000000
v -0.473703 0.068570 -0.000000
v -0.465183 0.064318 -0.000000
v -0.455597 0.061096 -0.000000
v -0.444931 0.059054 -0.000000
v -0.433171 0.058340 -0.000000
v -0.422376 0.058876 -0.000000
v -0.411708 0.060474 -0.000000
v -0.401190 0.063118 -0.000000
v -0.390839 0.066792 -0.000000
v -0.380678 0.071482 -0.000000
v -0.370727 0.077172 -0.000000
v -0.361004 0.083846 -0.000000
v -0.351532 0.091490 -0.000000
v -0.342329 0.100088 -0.000000
v -0.333416 0.109624 -0.000000
v -0.324815 0.120084 -0.000000
v -0.316543 0.131451 -0.000000
v -0.316543 0.039878 -0.000000
v -0.325821 0.032292 -0.000000
v -0.335204 0.025406 -0.000000
v -0.344718 0.019212 -0.000000
v -0.354387 0.013703 -0.000000
v -0.364236 0.008871 -0.000000
v -0.374290 0.004708 -0.000000
v -0.384574 0.001206 -0.000000
v -0.395111 -0.001641 -0.000000
v -0.405928 -0.003842 -0.000000
v -0.417048 -0.005405 -0.000000
v -0.428496 -0.006337 -0.000000
v -0.440298 -0.006646 -0.000000
v -0.457705 -0.005467 -0.000000
v -0.474213 -0.002014 -0.000000
v -0.489703 0.003589 -0.000000
v -0.504060 0.011214 -0.000000
v -0.517165 0.020737 -0.000000
v -0.528903 0.032032 -0.000000
v -0.539156 0.044973 -0.000000
v -0.547807 0.059434 -0.000000
v -0.554739 0.075291 -0.000000
v -0.559836 0.092417 -0.000000
v -0.562980 0.110686 -0.000000
v -0.564053 0.129974 -0.000000
v -0.560293 0.166818 -0.000000
v -0.549895 0.197825 -0.000000
v -0.534188 0.223900 -0.000000
v -0.514499 0.245943 -0.000000
v -0.492155 0.264859 -0.000000
v -0.468484 0.281548 -0.000000
v -0.444812 0.296914 -0.000000
v -0.422468 0.311860 -0.000000
v -0.402779 0.327288 -0.000000
v -0.387072 0.344100 -0.000000
v -0.376675 0.363200 -0.000000
v -0.372913 0.385490 -0.000000
v -0.373511 0.394113 -0.000000
v -0.375262 0.402229 -0.000000
v -0.378107 0.409791 -0.000000
v -0.381985 0.416753 -0.000000
v -0.386834 0.423068 -0.000000
v -0.392594 0.428691 -0.000000
v -0.399205 0.433576 -0.000000
v -0.406606 0.437676 -0.000000
v -0.414736 0.440946 -0.000000
v -0.423533 0.443338 -0.000000
v -0.432938 0.444807 -0.000000
v -0.442890 0.445307 -0.000000
v -0.450473 0.445051 -0.000000
v -0.458308 0.444244 -0.000000
v -0.466378 0.442827 -0.000000
v -0.474663 0.440740 -0.000000
v -0.483146 0.437925 -0.000000
v -0.491809 0.434322 -0.000000
v -0.500634 0.429874 -0.000000
v -0.509603 0.424520 -0.000000
v -0.518698 0.418203 -0.000000
v -0.527901 0.410862 -0.000000
v -0.537194 0.402439 -0.000000
v -0.546559 0.392875 -0.000000
v -0.249158 0.503648 -0.000000
v -0.185661 0.503648 -0.000000
v -0.185661 0.210469 -0.000000
v -0.185546 0.198869 -0.000000
v -0.185172 0.187702 -0.000000
v -0.184497 0.176971 -0.000000
v -0.183477 0.166679 -0.000000
v -0.182071 0.156828 -0.000000
v -0.180235 0.147420 -0.000000
v -0.177926 0.138459 -0.000000
v -0.175102 0.129946 -0.000000
v -0.171720 0.121885 -0.000000
v -0.167738 0.114277 -0.000000
v -0.163112 0.107126 -0.000000
v -0.157800 0.100434 -0.000000
v -0.152469 0.094826 -0.000000
v -0.146521 0.089477 -0.000000
v -0.139961 0.084430 -0.000000
v -0.132794 0.079729 -0.000000
v -0.125025 0.075418 -0.000000
v -0.116656 0.071541 -0.000000
v -0.107694 0.068140 -0.000000
v -0.098142 0.065260 -0.000000
v -0.088005 0.062944 -0.000000
v -0.077288 0.061236 -0.000000
v -0.065995 0.060179 -0.000000
v -0.054131 0.059817 -0.000000
v -0.044709 0.060110 -0.000000
v -0.035557 0.060990 -0.000000
v -0.026675 0.062460 -0.000000
v -0.018062 0.064522 -0.000000
v -0.009720 0.067179 -0.000000
v -0.001648 0.070433 -0.000000
v 0.006154 0.074288 -0.000000
v 0.013686 0.078745 -0.000000
v 0.020948 0.083807 -0.000000
v 0.027941 0.089477 -0.000000
v 0.034663 0.095757 -0.000000
v 0.041115 0.102650 -0.000000
v 0.045857 0.108407 -0.000000
v 0.050057 0.114308 -0.000000
v 0.053740 0.120466 -0.000000
v 0.056930 0.126992 -0.000000
v 0.059651 0.134001 -0.000000
v 0.061930 0.141605 -0.000000
v 0.063790 0.149916 -0.000000
v 0.065257 0.159048 -0.000000
v 0.066354 0.169113 -0.000000
v 0.067108 0.180225 -0.000000
v 0.067541 0.192495 -0.000000
v 0.067681 0.206038 -0.000000
v 0.067681 0.503648 -0.000000
v 0.131178 0.503648 -0.000000
v 0.131178 0.190530 -0.000000
v 0.129339 0.157795 -0.000000
v 0.124027 0.128230 -0.000000
v 0.115547 0.101773 -0.000000
v 0.104205 0.078362 -0.000000
v 0.090307 0.057935 -0.000000
v 0.074160 0.040432 -0.000000
v 0.056069 0.025791 -0.000000
v 0.036340 0.013949 -0.000000
v 0.015279 0.004846 -0.000000
v -0.006808 -0.001580 -0.000000
v -0.029614 -0.005390 -0.000000
v -0.052835 -0.006646 -0.000000
v -0.084328 -0.004977 -0.000000
v -0.113048 -0.000058 -0.000000
v -0.139000 0.007973 -0.000000
v -0.162191 0.018982 -0.000000
v -0.182629 0.032831 -0.000000
v -0.200320 0.049386 -0.000000
v -0.215271 0.068510 -0.000000
v -0.227489 0.090068 -0.000000
v -0.236979 0.113923 -0.000000
v -0.243750 0.139940 -0.000000
v -0.247807 0.167982 -0.000000
v -0.249158 0.197914 -0.000000
v 0.368321 0.506602 -0.000000
v 0.413029 0.506602 -0.000000
v 0.602873 0.000000 -0.000000
v 0.538080 0.000000 -0.000000
v 0.482357 0.148436 -0.000000
v 0.294457 0.148436 -0.000000
v 0.235495 0.000000 -0.000000
v 0.170702 0.000000 -0.000000
v 0.391647 0.395829 -0.000000
v 0.320374 0.213423 -0.000000
v 0.457736 0.213423 -0.000000
v 0.887963 0.503648 -0.000000
v 0.887963 0.000000 -0.000000
v 0.824466 0.000000 -0.000000
v 0.824466 0.217854 -0.000000
v 0.758376 0.217854 -0.000000
v 0.733939 0.219120 -0.000000
v 0.711791 0.222814 -0.000000
v 0.691903 0.228781 -0.000000
v 0.674241 0.236863 -0.000000
v 0.658776 0.246904 -0.000000
v 0.645474 0.258747 -0.000000
v 0.634306 0.272237 -0.000000
v 0.625238 0.287217 -0.000000
v 0.618241 0.303530 -0.000000
v 0.613282 0.321019 -0.000000
v 0.610329 0.339530 -0.000000
v 0.609352 0.358904 -0.000000
v 0.610275 0.378507 -0.000000
v 0.613063 0.397319 -0.000000
v 0.617745 0.415168 -0.000000
v 0.624350 0.431878 -0.000000
v 0.632909 0.447275 -0.000000
v 0.643449 0.461185 -0.000000
v 0.656001 0.473433 -0.000000
v 0.670594 0.483845 -0.000000
v 0.687256 0.492247 -0.000000
v 0.706017 0.498465 -0.000000
v 0.726906 0.502323 -0.000000
v 0.749953 0.503648 -0.000000
v 0.824466 0.438661 -0.000000
v 0.749953 0.438661 -0.000000
v 0.736361 0.437855 -0.000000
v 0.724363 0.435536 -0.000000
v 0.713882 0.431853 -0.000000
v 0.704838 0.426955 -0.000000
v 0.697153 0.420989 -0.000000
v 0.690749 0.414106 -0.000000
v 0.685545 0.406454 -0.000000
v 0.681465 0.398181 -0.000000
v 0.678428 0.389436 -0.000000
v 0.676356 0.380368 -0.000000
v 0.675171 0.371126 -0.000000
v 0.674793 0.361858 -0.000000
v 0.675420 0.349755 -0.000000
v 0.677268 0.338569 -0.000000
v 0.680291 0.328326 -0.000000
v 0.684440 0.319054 -0.000000
v 0.689670 0.310775 -0.000000
v 0.695932 0.303518 -0.000000
v 0.703180 0.297307 -0.000000
v 0.711365 0.292167 -0.000000
v 0.720442 0.288125 -0.000000
v 0.730362 0.285206 -0.000000
v 0.741079 0.283436 -0.000000
v 0.752545 0.282840 -0.000000
v 0.824466 0.282840 -0.000000
v -0.884132 0.503648 -0.135208
v -0.633382 0.503648 -0.135208
v -0.633382 -0.000000 -0.135208
v -0.889963 -0.000000 -0.135208
v -0.889963 0.064987 -0.135208
v -0.696880 0.064987 -0.135208
v -0.696880 0.221546 -0.135208
v -0.877653 0.221546 -0.135208
v -0.877653 0.286533 -0.135208
v -0.696880 0.286533 -0.135208
v -0.696880 0.438661 -0.135208
v -0.884132 0.438661 -0.135208
v -0.546559 0.474847 -0.135208
v -0.538732 0.480509 -0.135208
v -0.530805 0.485678 -0.135208
v -0.522788 0.490355 -0.135208
v -0.514691 0.494540 -0.135208
v -0.506521 0.498232 -0.135208
v -0.498288 0.501432 -0.135208
v -0.490002 0.504140 -0.135208
v -0.481670 0.506356 -0.135208
v -0.473302 0.508079 -0.135208
v -0.464908 0.509310 -0.135208
v -0.456495 0.510048 -0.135208
v -0.448074 0.510294 -0.135208
v -0.428421 0.509215 -0.135208
v -0.410017 0.506031 -0.135208
v -0.392949 0.500821 -0.135208
v -0.377305 0.493665 -0.135208
v -0.363173 0.484642 -0.135208
v -0.350641 0.473831 -0.135208
v -0.339796 0.461313 -0.135208
v -0.330726 0.447167 -0.135208
v -0.323519 0.431472 -0.135208
v -0.318262 0.414308 -0.135208
v -0.315044 0.395754 -0.135208
v -0.313951 0.375890 -0.135208
v -0.317712 0.343870 -0.135208
v -0.328110 0.316353 -0.135208
v -0.343817 0.292579 -0.135208
v -0.363506 0.271790 -0.135208
v -0.385850 0.253227 -0.135208
v -0.409522 0.236131 -0.135208
v -0.433193 0.219742 -0.135208
v -0.455537 0.203303 -0.135208
v -0.475226 0.186052 -0.135208
v -0.490933 0.167233 -0.135208
v -0.501331 0.146085 -0.135208
v -0.505092 0.121850 -0.135208
v -0.504617 0.114706 -0.135208
v -0.503184 0.107402 -0.135208
v -0.500779 0.100088 -0.135208
v -0.497388 0.092913 -0.135208
v -0.492999 0.086024 -0.135208
v -0.487597 0.079572 -0.135208
v -0.481170 0.073704 -0.135208
v -0.473703 0.068570 -0.135208
v -0.465183 0.064318 -0.135208
v -0.455597 0.061096 -0.135208
v -0.444931 0.059054 -0.135208
v -0.433171 0.058340 -0.135208
v -0.422376 0.058876 -0.135208
v -0.411708 0.060474 -0.135208
v -0.401190 0.063118 -0.135208
v -0.390839 0.066792 -0.135208
v -0.380678 0.071482 -0.135208
v -0.370727 0.077172 -0.135208
v -0.361004 0.083846 -0.135208
v -0.351532 0.091490 -0.135208
v -0.342329 0.100088 -0.135208
v -0.333416 0.109624 -0.135208
v -0.324815 0.120084 -0.135208
v -0.316543 0.131451 -0.135208
v -0.316543 0.039878 -0.135208
v -0.325821 0.032292 -0.135208
v -0.335204 0.025406 -0.135208
v -0.344718 0.019212 -0.135208
v -0.354387 0.013703 -0.135208
v -0.364236 0.008871 -0.135208
v -0.374290 0.004708 -0.135208
v -0.384574 0.001206 -0.135208
v -0.395111 -0.001641 -0.135208
v -0.405928 -0.003842 -0.135208
v -0.417048 -0.005405 -0.135208
v -0.428496 -0.006337 -0.135208
v -0.440298 -0.006646 -0.135208
v -0.457705 -0.005467 -0.135208
v -0.474213 -0.002014 -0.135208
v -0.489703 0.003589 -0.135208
v -0.504060 0.011214 -0.135208
v -0.517165 0.020737 -0.135208
v -0.528903 0.032032 -0.135208
v -0.539156 0.044973 -0.135208
v -0.547807 0.059434 -0.135208
v -0.554739 0.075291 -0.135208
v -0.559836 0.092417 -0.135208
v -0.562980 0.110686 -0.135208
v -0.564053 0.129974 -0.135208
v -0.560293 0.166818 -0.135208
v -0.549895 0.197825 -0.135208
v -0.534188 0.223900 -0.135208
v -0.514499 0.245943 -0.135208
v -0.492155 0.264859 -0.135208
v -0.468484 0.281548 -0.135208
v -0.444812 0.296914 -0.135208
v -0.422468 0.311860 -0.135208
v -0.402779 0.327288 -0.135208
v -0.387072 0.344100 -0.135208
v -0.376675 0.363200 -0.135208
v -0.372913 0.385490 -0.135208
v -0.373511 0.394113 -0.135208
v -0.375262 0.402229 -0.135208
v -0.378107 0.409791 -0.135208
v -0.381985 0.416753 -0.135208
v -0.386834 0.423068 -0.135208
v -0.392594 0.428691 -0.135208
v -0.399205 0.433576 -0.135208
v -0.406606 0.437676 -0.135208
v -0.414736 0.440946 -0.135208
v -0.423533 0.443338 -0.135208
v -0.432938 0.444807 -0.135208
v -0.442890 0.445307 -0.135208
v -0.450473 0.445051 -0.135208
v -0.458308 0.444244 -0.135208
v -0.466378 0.442827 -0.135208
v -0.474663 0.440740 -0.135208
v -0.483146 0.437925 -0.135208
v -0.491809 0.434322 -0.135208
v -0.500634 0.429874 -0.135208
v -0.509603 0.424520 -0.135208
v -0.518698 0.418203 -0.135208
v -0.527901 0.410862 -0.135208
v -0.537194 0.402439 -0.135208
v -0.546559 0.392875 -0.135208
v -0.249158 0.503648 -0.135208
v -0.185661 0.503648 -0.135208
v -0.185661 0.210469 -0.135208
v -0.185546 0.198869 -0.135208
v -0.185172 0.187702 -0.135208
v -0.184497 0.176971 -0.135208
v -0.183477 0.166679 -0.135208
v -0.182071 0.156828 -0.135208
v -0.180235 0.147420 -0.135208
v -0.177926 0.138459 -0.135208
v -0.175102 0.129946 -0.135208
v -0.171720 0.121885 -0.135208
v -0.167738 0.114277 -0.135208
v -0.163112 0.107126 -0.135208
v -0.157800 0.100434 -0.135208
v -0.152469 0.094826 -0.135208
v -0.146521 0.089477 -0.135208
v -0.139961 0.084430 -0.135208
v -0.132794 0.079729 -0.135208
v -0.125025 0.075418 -0.135208
v -0.116656 0.071541 -0.135208
v -0.107694 0.068140 -0.135208
v -0.098142 0.065260 -0.135208
v -0.088005 0.062944 -0.135208
v -0.077288 0.061236 -0.135208
v -0.065995 0.060179 -0.135208
v -0.054131 0.059817 -0.135208
v -0.044709 0.060110 -0.135208
v -0.035557 0.060990 -0.135208
v -0.026675 0.062460 -0.135208
v -0.018062 0.064522 -0.135208
v -0.009720 0.067179 -0.135208
v -0.001648 0.070433 -0.135208
v 0.006154 0.074288 -0.135208
v 0.013686 0.078745 -0.135208
v 0.020948 0.083807 -0.135208
v 0.027941 0.089477 -0.135208
v 0.034663 0.095757 -0.135208
v 0.041115 0.102650 -0.135208
v 0.045857 0.108407 -0.135208
v 0.050057 0.114308 -0.135208
v 0.053740 0.120466 -0.135208
v 0.056930 0.126992 -0.135208
v 0.059651 0.134001 -0.135208
v 0.061930 0.141605 -0.135208
v 0.063790 0.149916 -0.135208
v 0.065257 0.159048 -0.135208
v 0.066354 0.169113 -0.135208
v 0.067108 0.180225 -0.135208
v 0.067541 0.192495 -0.135208
v 0.067681 0.206038 -0.135208
v 0.067681 0.503648 -0.135208
v 0.131178 0.503648 -0.135208
v 0.131178 0.190530 -0.135208
v 0.129339 0.157795 -0.135208
v 0.124027 0.128230 -0.135208
v 0.115547 0.101773 -0.135208
v 0.104205 0.078362 -0.135208
v 0.090307 0.057935 -0.135208
v 0.074160 0.040432 -0.135208
v 0.056069 0.025791 -0.135208
v 0.036340 0.013949 -0.135208
v 0.015279 0.004846 -0.135208
v -0.006808 -0.001580 -0.135208
v -0.029614 -0.005390 -0.135208
v -0.052835 -0.006646 -0.135208
v -0.084328 -0.004977 -0.135208
v -0.113048 -0.000058 -0.135208
v -0.139000 0.007973 -0.135208
v -0.162191 0.018982 -0.135208
v -0.182629 0.032831 -0.135208
v -0.200320 0.049386 -0.135208
v -0.215271 0.068510 -0.135208
v -0.227489 0.090068 -0.135208
v -0.236979 0.113923 -0.135208
v -0.243750 0.139940 -0.135208
v -0.247807 0.167982 -0.135208
v -0.249158 0.197914 -0.135208
v 0.368321 0.506602 -0.135208
v 0.413029 0.506602 -0.135208
v 0.602873 -0.000000 -0.135208
v 0.538080 -0.000000 -0.135208
v 0.482357 0.148436 -0.135208
v 0.294457 0.148436 -0.135208
v 0.235495 -0.000000 -0.135208
v 0.170702 -0.000000 -0.135208
v 0.391647 0.395829 -0.135208
v 0.320374 0.213423 -0.135208
v 0.457736 0.213423 -0.135208
v 0.887963 0.503648 -0.135208
v 0.887963 -0.000000 -0.135208
v 0.824466 -0.000000 -0.135208
v 0.824466 0.217854 -0.135208
v 0.758377 0.217854 -0.135208
v 0.733939 0.219120 -0.135208
v 0.711791 0.222814 -0.135208
v 0.691903 0.228781 -0.135208
v 0.674241 0.236863 -0.135208
v 0.658776 0.246904 -0.135208
v 0.645474 0.258747 -0.135208
v 0.634306 0.272237 -0.135208
v 0.625238 0.287217 -0.135208
v 0.618241 0.303530 -0.135208
v 0.613282 0.321019 -0.135208
v 0.610329 0.339530 -0.135208
v 0.609352 0.358904 -0.135208
v 0.610275 0.378507 -0.135208
v 0.613063 0.397319 -0.135208
v 0.617745 0.415168 -0.135208
v 0.624350 0.431878 -0.135208
v 0.632909 0.447275 -0.135208
v 0.643449 0.461185 -0.135208
v 0.656001 0.473433 -0.135208
v 0.670594 0.483845 -0.135208
v 0.687256 0.492247 -0.135208
v 0.706017 0.498465 -0.135208
v 0.726906 0.502323 -0.135208
v 0.749953 0.503648 -0.135208
v 0.824466 0.438661 -0.135208
v 0.749953 0.438661 -0.135208
v 0.736361 0.437855 -0.135208
v 0.724363 0.435536 -0.135208
v 0.713882 0.431853 -0.135208
v 0.704838 0.426955 -0.135208
v 0.697153 0.420989 -0.135208
v 0.690749 0.414106 -0.135208
v 0.685545 0.406454 -0.135208
v 0.681465 0.398181 -0.135208
v 0.678428 0.389436 -0.135208
v 0.676356 0.380368 -0.135208
v 0.675171 0.371126 -0.135208
v 0.674793 0.361858 -0.135208
v 0.675420 0.349755 -0.135208
v 0.677268 0.338569 -0.135208
v 0.680291 0.328326 -0.135208
v 0.684440 0.319054 -0.135208
v 0.689670 0.310775 -0.135208
v 0.695932 0.303518 -0.135208
v 0.703180 0.297307 -0.135208
v 0.711365 0.292167 -0.135208
v 0.720442 0.288125 -0.135208
v 0.730362 0.285206 -0.135208
v 0.741079 0.283436 -0.135208
v 0.752545 0.282840 -0.135208
v 0.824466 0.282840 -0.135208
vn -0.0000 -0.0000 1.0000
vn -0.0000 -0.0000 -1.0000
vn -0.0000 -0.0001 -1.0000
vn -0.7307 0.6827 -0.0000
vn -0.2873 -0.9578 -0.0000
vn 0.0548 0.9985 -0.0000
vn 0.5916 -0.8062 -0.0000
vn 0.9354 -0.3535 -0.0000
vn -0.7301 0.6834 -0.0000
vn -0.1645 -0.9864 -0.0000
vn -0.0292 0.9996 -0.0000
vn 0.9000 -0.4360 -0.0000
vn -0.0000 -1.0000 -0.0000
vn -0.0000 1.0000 -0.0000
vn -0.6934 -0.7206 -0.0000
vn -0.6168 0.7871 -0.0000
vn -0.0517 -0.9987 -0.0000
vn -0.0874 0.9962 -0.0000
vn 0.7248 0.6890 -0.0000
vn 0.5456 -0.8381 -0.0000
vn 0.8343 -0.5512 -0.0000
vn -0.0574 0.9984 -0.0000
vn -1.0000 -0.0000 -0.0000
vn -0.1451 0.9894 -0.0000
vn 0.1705 0.9854 -0.0000
vn -0.1816 0.9834 -0.0000
vn -0.6827 0.7307 -0.0000
vn -0.5878 -0.8090 -0.0000
vn -0.5560 0.8312 -0.0000
vn 0.6687 0.7435 -0.0000
vn 0.4951 -0.8689 -0.0000
vn -0.3146 0.9492 -0.0000
vn -0.5445 0.8388 -0.0000
vn -0.2017 0.9794 -0.0000
vn 0.4405 -0.8978 -0.0000
vn 0.7260 -0.6876 -0.0000
vn -0.4503 0.8929 -0.0000
vn -0.8700 -0.4931 -0.0000
vn -0.2570 0.9664 -0.0000
vn 0.2920 0.9564 -0.0000
vn -0.5808 0.8140 -0.0000
vn -0.6298 0.7767 -0.0000
vn -0.4691 -0.8832 -0.0000
vn -0.5762 0.8173 -0.0000
vn 0.6098 0.7926 -0.0000
vn 0.3826 -0.9239 -0.0000
vn 0.6390 -0.7692 -0.0000
vn -0.6984 0.7157 -0.0000
vn -0.3106 0.9505 -0.0000
vn 0.5484 0.8362 -0.0000
vn 0.3223 -0.9466 -0.0000
vn -0.7970 0.6040 -0.0000
vn -0.6461 0.7632 -0.0000
vn -0.3623 0.9321 -0.0000
vn 0.5855 -0.8107 -0.0000
vn 0.4160 0.9094 -0.0000
vn -0.5718 0.8204 -0.0000
vn -0.3401 -0.9404 -0.0000
vn 0.4851 0.8744 -0.0000
vn 0.2609 -0.9654 -0.0000
vn -0.8740 0.4858 -0.0000
vn -0.7458 0.6662 -0.0000
vn -0.4119 0.9112 -0.0000
vn 0.1994 -0.9799 -0.0000
vn 0.5692 -0.8222 -0.0000
vn -0.5092 0.8606 -0.0000
vn -0.4591 0.8884 -0.0000
vn 0.0592 -0.9982 -0.0000
vn 0.8268 -0.5625 -0.0000
vn 0.5381 0.8429 -0.0000
vn -0.2048 -0.9788 -0.0000
vn -0.8566 0.5160 -0.0000
vn 0.1898 -0.9818 -0.0000
vn 0.4204 0.9073 -0.0000
vn 0.1392 -0.9903 -0.0000
vn 0.5926 -0.8055 -0.0000
vn -0.5039 0.8637 -0.0000
vn 0.3315 -0.9434 -0.0000
vn 0.0811 -0.9967 -0.0000
vn 0.6590 -0.7522 -0.0000
vn -0.4429 0.8966 -0.0000
vn -0.5463 0.8376 -0.0000
vn 0.3547 0.9350 -0.0000
vn 0.0262 -0.9997 -0.0000
vn 0.6532 0.7572 -0.0000
vn -0.9300 0.3676 -0.0000
vn -0.0676 -0.9977 -0.0000
vn -0.9481 0.3179 -0.0000
vn 0.4763 -0.8793 -0.0000
vn 1.0000 -0.0000 -0.0000
vn 0.7677 -0.6408 -0.0000
vn -0.3739 0.9275 -0.0000
vn -0.5861 0.8103 -0.0000
vn 0.6132 -0.7899 -0.0000
vn 0.8974 -0.4412 -0.0000
vn -0.7878 -0.6159 -0.0000
vn 0.7321 -0.6812 -0.0000
vn 0.2887 0.9574 -0.0000
vn 0.3150 -0.9491 -0.0000
vn -0.9948 0.1015 -0.0000
vn 0.9882 -0.1534 -0.0000
vn 0.3840 -0.9234 -0.0000
vn -0.9673 0.2537 -0.0000
vn -0.3035 0.9528 -0.0000
vn 0.8269 -0.5623 -0.0000
vn 0.2227 0.9749 -0.0000
vn 0.4501 -0.8930 -0.0000
vn 0.8968 -0.4424 -0.0000
vn 1.0000 0.0099 -0.0000
vn -0.8086 0.5884 -0.0000
vn 0.5125 -0.8587 -0.0000
vn -0.2329 0.9725 -0.0000
vn 0.9447 -0.3281 -0.0000
vn 0.1574 0.9875 -0.0000
vn -0.9985 -0.0556 -0.0000
vn 0.5705 -0.8213 -0.0000
vn -0.9999 0.0103 -0.0000
vn 0.9978 0.0663 -0.0000
vn 0.9994 0.0335 -0.0000
vn 0.6236 -0.7818 -0.0000
vn -0.9892 0.1466 -0.0000
vn -0.1632 0.9866 -0.0000
vn 0.9749 -0.2227 -0.0000
vn 0.0932 0.9956 -0.0000
vn -0.7724 0.6352 -0.0000
vn 0.6716 -0.7409 -0.0000
vn -0.9990 -0.0451 -0.0000
vn 0.9813 0.1925 -0.0000
vn 0.9919 -0.1272 -0.0000
vn 0.7145 -0.6996 -0.0000
vn -0.0957 0.9954 -0.0000
vn -0.9994 0.0353 -0.0000
vn 0.0305 0.9995 -0.0000
vn 0.9984 -0.0561 -0.0000
vn -0.9855 -0.1696 -0.0000
vn 0.7558 0.6548 -0.0000
vn -0.9989 0.0470 -0.0000
vn 0.9992 -0.0407 -0.0000
vn 0.9980 0.0628 -0.0000
vn -0.7306 0.6828 -0.0000
vn -0.0311 0.9995 -0.0000
vn 0.9500 0.3124 -0.0000
vn 0.1730 -0.9849 -0.0000
vn 0.9987 0.0517 -0.0000
vn 0.7350 -0.6781 -0.0000
vn -0.9977 0.0676 -0.0000
vn 0.2442 -0.9697 -0.0000
vn 0.9951 0.0986 -0.0000
vn 0.8418 0.5397 -0.0000
vn -0.9987 -0.0504 -0.0000
vn 0.9042 0.4272 -0.0000
vn 0.9866 0.1630 -0.0000
vn -0.6833 -0.7302 -0.0000
vn 0.6291 -0.7773 -0.0000
vn -0.9941 0.1084 -0.0000
vn 0.8433 0.5374 -0.0000
vn 0.0337 -0.9994 -0.0000
vn -0.9875 -0.1575 -0.0000
vn -0.9897 -0.1432 -0.0000
vn 0.1025 -0.9947 -0.0000
vn 0.9591 0.2830 -0.0000
vn -0.5610 -0.8278 -0.0000
vn 0.9900 0.1413 -0.0000
vn -0.9585 -0.2852 -0.0000
vn 0.9088 0.4173 -0.0000
vn 0.5146 -0.8574 -0.0000
vn 0.9128 0.4085 -0.0000
vn -0.6280 0.7782 -0.0000
vn -0.9874 0.1586 -0.0000
vn 0.7668 0.6419 -0.0000
vn -0.0502 -0.9987 -0.0000
vn -0.4288 -0.9034 -0.0000
vn 0.9842 -0.1769 -0.0000
vn -0.9621 -0.2728 -0.0000
vn 0.3967 -0.9179 -0.0000
vn -0.1543 -0.9880 -0.0000
vn 0.8454 0.5341 -0.0000
vn 0.9815 0.1916 -0.0000
vn -0.5660 0.8244 -0.0000
vn 0.6742 0.7385 -0.0000
vn -0.2624 -0.9650 -0.0000
vn 0.7571 0.6533 -0.0000
vn -0.2956 -0.9553 -0.0000
vn 0.2794 -0.9602 -0.0000
vn -0.9759 0.2184 -0.0000
vn -0.3731 -0.9278 -0.0000
vn 0.9684 0.2495 -0.0000
vn -0.4963 0.8681 -0.0000
vn -0.9190 -0.3942 -0.0000
vn -0.4846 -0.8747 -0.0000
vn 0.6507 0.7593 -0.0000
vn -0.1688 -0.9856 -0.0000
vn -0.9163 -0.4006 -0.0000
vn 0.1648 -0.9863 -0.0000
vn -0.9579 0.2871 -0.0000
vn 0.5666 0.8240 -0.0000
vn -0.5943 -0.8043 -0.0000
vn 0.5317 0.8469 -0.0000
vn 0.9562 0.2928 -0.0000
vn 0.0540 -0.9985 -0.0000
vn -0.9678 -0.2519 -0.0000
vn 0.4068 0.9135 -0.0000
vn -0.0529 -0.9986 -0.0000
vn 0.9491 0.3148 -0.0000
vn -0.4191 0.9080 -0.0000
vn 0.9364 0.3509 -0.0000
vn 0.4466 0.8947 -0.0000
vn -0.6985 -0.7156 -0.0000
vn 0.2823 0.9593 -0.0000
vn -0.9322 0.3620 -0.0000
vn -0.7932 -0.6090 -0.0000
vn 0.9221 0.3868 -0.0000
vn -0.3346 0.9424 -0.0000
vn -0.8555 -0.5178 -0.0000
vn 0.3185 0.9479 -0.0000
vn -0.8736 -0.4866 -0.0000
vn 0.1630 0.9866 -0.0000
vn 0.9523 -0.3052 -0.0000
vn 0.9853 0.1709 -0.0000
vn -0.9316 0.3634 -0.0000
vn 0.0519 0.9987 -0.0000
vn -0.2437 0.9698 -0.0000
vn -0.9402 -0.3406 -0.0000
vn -0.8984 0.4391 -0.0000
vn 0.1880 0.9822 -0.0000
vn -0.9360 -0.3521 -0.0000
vn 0.9314 -0.3639 -0.0000
vn 0.8859 0.4638 -0.0000
vn -0.9775 -0.2110 -0.0000
vn -0.1481 0.9890 -0.0000
vn 0.9985 0.0549 -0.0000
vn -0.8582 0.5133 -0.0000
vn -0.8582 -0.5134 -0.0000
vn -0.8147 0.5798 -0.0000
vn 0.0606 0.9982 -0.0000
vn -0.9976 -0.0691 -0.0000
vn -0.7703 -0.6377 -0.0000
vn 0.8396 0.5431 -0.0000
vn -0.9861 0.1664 -0.0000
vn -0.6650 -0.7468 -0.0000
vn -0.0496 0.9988 -0.0000
vn 0.9932 -0.1167 -0.0000
vn -0.9292 -0.3697 -0.0000
vn -0.5445 -0.8387 -0.0000
vn -0.9362 -0.3514 -0.0000
vn 0.9294 -0.3692 -0.0000
vn -0.7719 0.6358 -0.0000
vn -0.7838 -0.6210 -0.0000
vn -0.8783 0.4781 -0.0000
vn -0.4161 -0.9093 -0.0000
vn 0.7832 0.6217 -0.0000
vn 0.6330 -0.7741 -0.0000
vt 0.181818 0.181361
vt 0.090909 0.090681
vt 0.909091 0.906805
vt 0.000000 0.000000
vt 1.000000 0.997486
vt 0.818181 0.816125
vt 0.545454 0.544083
vt 0.727272 0.725444
vt 0.636363 0.634764
vt 0.454545 0.453403
vt 0.363636 0.362722
vt 0.272727 0.272042
vt 0.002881 0.250124
vt 0.002881 0.252377
vt 0.002881 0.254631
vt 0.002881 0.256884
vt 0.002881 0.259138
vt 0.002881 0.247870
vt 0.002881 0.261392
vt 0.002881 0.263645
vt 0.002881 0.245616
vt 0.002881 0.265899
vt 0.002881 0.268153
vt 0.002881 0.243363
vt 0.002881 0.270406
vt 0.002881 0.272660
vt 0.002881 0.241109
vt 0.002881 0.274914
vt 0.002881 0.277167
vt 0.002881 0.238855
vt 0.002881 0.279421
vt 0.002881 0.024760
vt 0.002881 0.022507
vt 0.002881 0.020253
vt 0.002881 0.017999
vt 0.002881 0.015746
vt 0.002881 0.013492
vt 0.002881 0.011238
vt 0.002881 0.008985
vt 0.002881 0.006731
vt 0.002881 0.236602
vt 0.002881 0.029267
vt 0.002881 0.027014
vt 0.002881 0.234348
vt 0.002881 0.033775
vt 0.002881 0.031521
vt 0.002881 0.232094
vt 0.002881 0.036028
vt 0.002881 0.038282
vt 0.002881 0.040536
vt 0.002881 0.042789
vt 0.002881 0.045043
vt 0.002881 0.047297
vt 0.002881 0.229841
vt 0.002881 0.049550
vt 0.002881 0.051804
vt 0.002881 0.054057
vt 0.002881 0.227587
vt 0.002881 0.056311
vt 0.002881 0.058565
vt 0.002881 0.225334
vt 0.002881 0.060818
vt 0.002881 0.063072
vt 0.002881 0.223080
vt 0.002881 0.065326
vt 0.002881 0.067579
vt 0.002881 0.220826
vt 0.002881 0.069833
vt 0.002881 0.218573
vt 0.002881 0.072086
vt 0.002881 0.074340
vt 0.002881 0.216319
vt 0.002881 0.076594
vt 0.002881 0.214065
vt 0.002881 0.078847
vt 0.002881 0.211812
vt 0.002881 0.081101
vt 0.002881 0.209558
vt 0.002881 0.083355
vt 0.002881 0.207305
vt 0.002881 0.205051
vt 0.002881 0.085608
vt 0.002881 0.202797
vt 0.002881 0.200544
vt 0.002881 0.087862
vt 0.002881 0.198290
vt 0.002881 0.141949
vt 0.002881 0.144203
vt 0.002881 0.146456
vt 0.002881 0.090116
vt 0.002881 0.196036
vt 0.002881 0.148710
vt 0.002881 0.193783
vt 0.002881 0.092369
vt 0.002881 0.150964
vt 0.002881 0.191529
vt 0.002881 0.153217
vt 0.002881 0.189275
vt 0.002881 0.187022
vt 0.002881 0.094623
vt 0.002881 0.155471
vt 0.002881 0.184768
vt 0.002881 0.157725
vt 0.002881 0.182515
vt 0.002881 0.159978
vt 0.002881 0.096876
vt 0.002881 0.180261
vt 0.002881 0.162232
vt 0.002881 0.178007
vt 0.002881 0.164485
vt 0.002881 0.175754
vt 0.002881 0.166739
vt 0.002881 0.173500
vt 0.002881 0.168993
vt 0.002881 0.099130
vt 0.002881 0.171246
vt 0.002881 0.101384
vt 0.002881 0.139695
vt 0.002881 0.137442
vt 0.002881 0.103637
vt 0.002881 0.135188
vt 0.002881 0.105891
vt 0.002881 0.132935
vt 0.002881 0.130681
vt 0.002881 0.108145
vt 0.002881 0.128427
vt 0.002881 0.126174
vt 0.002881 0.110398
vt 0.002881 0.123920
vt 0.002881 0.121666
vt 0.002881 0.112652
vt 0.002881 0.119413
vt 0.002881 0.117159
vt 0.002881 0.114906
vt 0.005761 0.091150
vt 0.005761 0.094539
vt 0.005761 0.097928
vt 0.005761 0.101318
vt 0.005761 0.264000
vt 0.005761 0.267390
vt 0.005761 0.270779
vt 0.005761 0.009809
vt 0.005761 0.260611
vt 0.005761 0.104707
vt 0.005761 0.257222
vt 0.005761 0.013198
vt 0.005761 0.108096
vt 0.005761 0.087761
vt 0.005761 0.253833
vt 0.005761 0.111485
vt 0.005761 0.250444
vt 0.005761 0.114875
vt 0.005761 0.016587
vt 0.005761 0.247054
vt 0.005761 0.118264
vt 0.005761 0.084372
vt 0.005761 0.243665
vt 0.005761 0.121653
vt 0.005761 0.240276
vt 0.005761 0.125042
vt 0.005761 0.019976
vt 0.005761 0.236887
vt 0.005761 0.128431
vt 0.005761 0.233497
vt 0.005761 0.080982
vt 0.005761 0.131821
vt 0.005761 0.230108
vt 0.005761 0.135210
vt 0.005761 0.138599
vt 0.005761 0.226719
vt 0.005761 0.023365
vt 0.005761 0.141988
vt 0.005761 0.223330
vt 0.005761 0.145378
vt 0.005761 0.077593
vt 0.005761 0.219941
vt 0.005761 0.148767
vt 0.005761 0.216551
vt 0.005761 0.026755
vt 0.005761 0.152156
vt 0.005761 0.213162
vt 0.005761 0.209773
vt 0.005761 0.155545
vt 0.005761 0.206384
vt 0.005761 0.158934
vt 0.005761 0.074204
vt 0.005761 0.202994
vt 0.005761 0.162324
vt 0.005761 0.199605
vt 0.005761 0.165713
vt 0.005761 0.030144
vt 0.005761 0.196216
vt 0.005761 0.169102
vt 0.005761 0.192827
vt 0.005761 0.172491
vt 0.005761 0.189438
vt 0.005761 0.175881
vt 0.005761 0.186048
vt 0.005761 0.179270
vt 0.005761 0.182659
vt 0.005761 0.070815
vt 0.005761 0.033533
vt 0.005761 0.067425
vt 0.005761 0.036922
vt 0.005761 0.064036
vt 0.005761 0.040312
vt 0.005761 0.060647
vt 0.005761 0.043701
vt 0.005761 0.057258
vt 0.005761 0.047090
vt 0.005761 0.053868
vt 0.005761 0.050479
vt 0.744640 0.746836
vt 0.712914 0.715191
vt 0.681189 0.683546
vt 0.934991 0.936709
vt 0.903265 0.905064
vt 0.998441 1.000000
vt 0.966716 0.968355
vt 0.808090 0.810127
vt 0.839815 0.841773
vt 0.776365 0.778482
vt 0.871540 0.873418
vt 0.198763 0.186686
vt 0.198763 0.190121
vt 0.198763 0.090505
vt 0.198763 0.093940
vt 0.198763 0.097375
vt 0.198763 0.100810
vt 0.198763 0.104245
vt 0.198763 0.107680
vt 0.198763 0.111115
vt 0.198763 0.114550
vt 0.198763 0.117985
vt 0.198763 0.087070
vt 0.198763 0.121420
vt 0.198763 0.001193
vt 0.198763 0.083634
vt 0.198763 0.080199
vt 0.198763 0.076764
vt 0.198763 0.124855
vt 0.198763 0.073329
vt 0.198763 0.069894
vt 0.198763 0.066459
vt 0.198763 0.128290
vt 0.198763 0.063024
vt 0.198763 0.059589
vt 0.198763 0.056154
vt 0.198763 0.131725
vt 0.198763 0.052719
vt 0.198763 0.049284
vt 0.198763 0.135160
vt 0.198763 0.045849
vt 0.198763 0.042414
vt 0.198763 0.138595
vt 0.198763 0.038979
vt 0.198763 0.142030
vt 0.198763 0.035544
vt 0.198763 0.032109
vt 0.198763 0.145466
vt 0.198763 0.028673
vt 0.198763 0.025238
vt 0.198763 0.148901
vt 0.198763 0.021803
vt 0.198763 0.018368
vt 0.198763 0.014933
vt 0.198763 0.011498
vt 0.198763 0.152336
vt 0.198763 0.008063
vt 0.198763 0.004628
vt 0.198763 0.179816
vt 0.198763 0.155771
vt 0.198763 0.159206
vt 0.198763 0.162641
vt 0.198763 0.166076
vt 0.198763 0.169511
vt 0.198763 0.172946
vt 0.198763 0.176381
vt 0.198763 0.183251
s 0
usemtl マテリアル
f 3/1/1 2/2/1 11/3/1
f 11/3/1 2/2/1 1/4/1
f 11/3/1 1/4/1 12/5/1
f 3/1/1 11/3/1 10/6/1
f 3/1/1 10/6/1 7/7/1
f 7/7/1 10/6/1 9/8/1
f 7/7/1 9/8/1 8/9/1
f 3/1/1 7/7/1 6/10/1
f 3/1/1 6/10/1 5/11/1
f 3/1/1 5/11/1 4/12/1
f 26/13/1 25/14/1 24/15/1
f 26/13/1 24/15/1 23/16/1
f 26/13/1 23/16/1 22/17/1
f 27/18/1 26/13/1 22/17/1
f 27/18/1 22/17/1 21/19/1
f 27/18/1 21/19/1 20/20/1
f 28/21/1 27/18/1 20/20/1
f 28/21/1 20/20/1 19/22/1
f 28/21/1 19/22/1 18/23/1
f 29/24/1 28/21/1 18/23/1
f 29/24/1 18/23/1 17/25/1
f 29/24/1 17/25/1 16/26/1
f 30/27/1 29/24/1 16/26/1
f 30/27/1 16/26/1 15/28/1
f 30/27/1 15/28/1 14/29/1
f 31/30/1 30/27/1 14/29/1
f 31/30/1 14/29/1 13/31/1
f 31/30/1 13/31/1 126/32/1
f 126/32/1 13/31/1 127/33/1
f 127/33/1 13/31/1 128/34/1
f 128/34/1 13/31/1 129/35/1
f 129/35/1 13/31/1 130/36/1
f 130/36/1 13/31/1 131/37/1
f 131/37/1 13/31/1 132/38/1
f 132/38/1 13/31/1 133/39/1
f 133/39/1 13/31/1 134/40/1
f 32/41/1 31/30/1 124/42/1
f 124/42/1 31/30/1 125/43/1
f 125/43/1 31/30/1 126/32/1
f 33/44/1 32/41/1 122/45/1
f 122/45/1 32/41/1 123/46/1
f 123/46/1 32/41/1 124/42/1
f 34/47/1 33/44/1 121/48/1
f 121/48/1 33/44/1 122/45/1
f 34/47/1 121/48/1 120/49/1
f 34/47/1 120/49/1 119/50/1
f 34/47/1 119/50/1 118/51/1
f 34/47/1 118/51/1 117/52/1
f 34/47/1 117/52/1 116/53/1
f 35/54/1 34/47/1 116/53/1
f 35/54/1 116/53/1 115/55/1
f 35/54/1 115/55/1 114/56/1
f 35/54/1 114/56/1 113/57/1
f 36/58/1 35/54/1 113/57/1
f 36/58/1 113/57/1 112/59/1
f 36/58/1 112/59/1 111/60/1
f 37/61/1 36/58/1 111/60/1
f 37/61/1 111/60/1 110/62/1
f 37/61/1 110/62/1 109/63/1
f 38/64/1 37/61/1 109/63/1
f 38/64/1 109/63/1 108/65/1
f 38/64/1 108/65/1 107/66/1
f 39/67/1 38/64/1 107/66/1
f 39/67/1 107/66/1 106/68/1
f 40/69/1 39/67/1 106/68/1
f 40/69/1 106/68/1 105/70/1
f 40/69/1 105/70/1 104/71/1
f 41/72/1 40/69/1 104/71/1
f 41/72/1 104/71/1 103/73/1
f 42/74/1 41/72/1 103/73/1
f 42/74/1 103/73/1 102/75/1
f 43/76/1 42/74/1 102/75/1
f 43/76/1 102/75/1 101/77/1
f 44/78/1 43/76/1 101/77/1
f 44/78/1 101/77/1 100/79/1
f 45/80/1 44/78/1 100/79/1
f 46/81/1 45/80/1 100/79/1
f 46/81/1 100/79/1 99/82/1
f 47/83/1 46/81/1 99/82/1
f 48/84/1 47/83/1 99/82/1
f 48/84/1 99/82/1 98/85/1
f 49/86/1 48/84/1 98/85/1
f 74/87/1 73/88/1 72/89/1
f 49/86/1 98/85/1 97/90/1
f 50/91/1 49/86/1 97/90/1
f 74/87/1 72/89/1 71/92/1
f 51/93/1 50/91/1 97/90/1
f 51/93/1 97/90/1 96/94/1
f 74/87/1 71/92/1 70/95/1
f 52/96/1 51/93/1 96/94/1
f 74/87/1 70/95/1 69/97/1
f 53/98/1 52/96/1 96/94/1
f 54/99/1 53/98/1 96/94/1
f 54/99/1 96/94/1 95/100/1
f 74/87/1 69/97/1 68/101/1
f 55/102/1 54/99/1 95/100/1
f 74/87/1 68/101/1 67/103/1
f 56/104/1 55/102/1 95/100/1
f 74/87/1 67/103/1 66/105/1
f 56/104/1 95/100/1 94/106/1
f 57/107/1 56/104/1 94/106/1
f 74/87/1 66/105/1 65/108/1
f 58/109/1 57/107/1 94/106/1
f 74/87/1 65/108/1 64/110/1
f 59/111/1 58/109/1 94/106/1
f 74/87/1 64/110/1 63/112/1
f 60/113/1 59/111/1 94/106/1
f 74/87/1 63/112/1 62/114/1
f 60/113/1 94/106/1 93/115/1
f 61/116/1 60/113/1 93/115/1
f 74/87/1 62/114/1 61/116/1
f 74/87/1 61/116/1 93/115/1
f 74/87/1 93/115/1 92/117/1
f 75/118/1 74/87/1 92/117/1
f 76/119/1 75/118/1 92/117/1
f 76/119/1 92/117/1 91/120/1
f 77/121/1 76/119/1 91/120/1
f 77/121/1 91/120/1 90/122/1
f 78/123/1 77/121/1 90/122/1
f 79/124/1 78/123/1 90/122/1
f 79/124/1 90/122/1 89/125/1
f 80/126/1 79/124/1 89/125/1
f 81/127/1 80/126/1 89/125/1
f 81/127/1 89/125/1 88/128/1
f 82/129/1 81/127/1 88/128/1
f 83/130/1 82/129/1 88/128/1
f 83/130/1 88/128/1 87/131/1
f 84/132/1 83/130/1 87/131/1
f 85/133/1 84/132/1 87/131/1
f 85/133/1 87/131/1 86/134/1
f 188/135/1 187/136/1 186/137/1
f 188/135/1 186/137/1 185/138/1
f 137/139/1 136/140/1 135/141/1
f 137/139/1 135/141/1 212/142/1
f 138/143/1 137/139/1 212/142/1
f 188/135/1 185/138/1 184/144/1
f 139/145/1 138/143/1 212/142/1
f 139/145/1 212/142/1 211/146/1
f 188/135/1 184/144/1 183/147/1
f 189/148/1 188/135/1 183/147/1
f 140/149/1 139/145/1 211/146/1
f 189/148/1 183/147/1 182/150/1
f 141/151/1 140/149/1 211/146/1
f 189/148/1 182/150/1 181/152/1
f 141/151/1 211/146/1 210/153/1
f 142/154/1 141/151/1 210/153/1
f 189/148/1 181/152/1 180/155/1
f 190/156/1 189/148/1 180/155/1
f 143/157/1 142/154/1 210/153/1
f 190/156/1 180/155/1 179/158/1
f 144/159/1 143/157/1 210/153/1
f 190/156/1 179/158/1 178/160/1
f 144/159/1 210/153/1 209/161/1
f 145/162/1 144/159/1 209/161/1
f 190/156/1 178/160/1 177/163/1
f 146/164/1 145/162/1 209/161/1
f 191/165/1 190/156/1 177/163/1
f 191/165/1 177/163/1 176/166/1
f 147/167/1 146/164/1 209/161/1
f 191/165/1 176/166/1 175/168/1
f 191/165/1 175/168/1 174/169/1
f 148/170/1 147/167/1 209/161/1
f 148/170/1 209/161/1 208/171/1
f 191/165/1 174/169/1 173/172/1
f 149/173/1 148/170/1 208/171/1
f 191/165/1 173/172/1 172/174/1
f 192/175/1 191/165/1 172/174/1
f 150/176/1 149/173/1 208/171/1
f 192/175/1 172/174/1 171/177/1
f 151/178/1 150/176/1 208/171/1
f 151/178/1 208/171/1 207/179/1
f 192/175/1 171/177/1 170/180/1
f 152/181/1 151/178/1 207/179/1
f 153/182/1 152/181/1 207/179/1
f 192/175/1 170/180/1 169/183/1
f 154/184/1 153/182/1 207/179/1
f 192/175/1 169/183/1 168/185/1
f 193/186/1 192/175/1 168/185/1
f 155/187/1 154/184/1 207/179/1
f 193/186/1 168/185/1 167/188/1
f 156/189/1 155/187/1 207/179/1
f 193/186/1 167/188/1 166/190/1
f 156/189/1 207/179/1 206/191/1
f 157/192/1 156/189/1 206/191/1
f 193/186/1 166/190/1 165/193/1
f 158/194/1 157/192/1 206/191/1
f 193/186/1 165/193/1 164/195/1
f 159/196/1 158/194/1 206/191/1
f 193/186/1 164/195/1 163/197/1
f 160/198/1 159/196/1 206/191/1
f 193/186/1 163/197/1 162/199/1
f 161/200/1 160/198/1 206/191/1
f 193/186/1 162/199/1 161/200/1
f 193/186/1 161/200/1 206/191/1
f 194/201/1 193/186/1 206/191/1
f 194/201/1 206/191/1 205/202/1
f 195/203/1 194/201/1 205/202/1
f 195/203/1 205/202/1 204/204/1
f 196/205/1 195/203/1 204/204/1
f 196/205/1 204/204/1 203/206/1
f 197/207/1 196/205/1 203/206/1
f 197/207/1 203/206/1 202/208/1
f 198/209/1 197/207/1 202/208/1
f 198/209/1 202/208/1 201/210/1
f 199/211/1 198/209/1 201/210/1
f 199/211/1 201/210/1 200/212/1
f 215/213/1 214/214/1 213/215/1
f 215/213/1 213/215/1 221/216/1
f 221/216/1 213/215/1 220/217/1
f 215/213/1 221/216/1 223/218/1
f 222/219/1 221/216/1 220/217/1
f 215/213/1 223/218/1 217/220/1
f 217/220/1 223/218/1 222/219/1
f 217/220/1 222/219/1 218/221/1
f 218/221/1 222/219/1 220/217/1
f 215/213/1 217/220/1 216/222/1
f 219/223/1 218/221/1 220/217/1
f 225/224/1 224/225/1 253/226/1
f 253/226/1 224/225/1 252/227/1
f 253/226/1 252/227/1 251/228/1
f 253/226/1 251/228/1 250/229/1
f 253/226/1 250/229/1 249/230/1
f 253/226/1 249/230/1 248/231/1
f 253/226/1 248/231/1 247/232/1
f 253/226/1 247/232/1 246/233/1
f 253/226/1 246/233/1 245/234/1
f 253/226/1 245/234/1 254/235/1
f 254/235/1 245/234/1 244/236/1
f 225/224/1 253/226/1 279/237/1
f 255/238/1 254/235/1 244/236/1
f 256/239/1 255/238/1 244/236/1
f 257/240/1 256/239/1 244/236/1
f 257/240/1 244/236/1 243/241/1
f 258/242/1 257/240/1 243/241/1
f 259/243/1 258/242/1 243/241/1
f 260/244/1 259/243/1 243/241/1
f 260/244/1 243/241/1 242/245/1
f 261/246/1 260/244/1 242/245/1
f 262/247/1 261/246/1 242/245/1
f 263/248/1 262/247/1 242/245/1
f 263/248/1 242/245/1 241/249/1
f 264/250/1 263/248/1 241/249/1
f 265/251/1 264/250/1 241/249/1
f 265/251/1 241/249/1 240/252/1
f 266/253/1 265/251/1 240/252/1
f 267/254/1 266/253/1 240/252/1
f 267/254/1 240/252/1 239/255/1
f 268/256/1 267/254/1 239/255/1
f 268/256/1 239/255/1 238/257/1
f 269/258/1 268/256/1 238/257/1
f 270/259/1 269/258/1 238/257/1
f 270/259/1 238/257/1 237/260/1
f 271/261/1 270/259/1 237/260/1
f 272/262/1 271/261/1 237/260/1
f 272/262/1 237/260/1 236/263/1
f 273/264/1 272/262/1 236/263/1
f 274/265/1 273/264/1 236/263/1
f 275/266/1 274/265/1 236/263/1
f 276/267/1 275/266/1 236/263/1
f 276/267/1 236/263/1 235/268/1
f 277/269/1 276/267/1 235/268/1
f 278/270/1 277/269/1 235/268/1
f 225/224/1 279/237/1 227/271/1
f 227/271/1 279/237/1 278/270/1
f 227/271/1 278/270/1 235/268/1
f 227/271/1 235/268/1 234/272/1
f 227/271/1 234/272/1 233/273/1
f 227/271/1 233/273/1 232/274/1
f 227/271/1 232/274/1 231/275/1
f 227/271/1 231/275/1 230/276/1
f 227/271/1 230/276/1 229/277/1
f 227/271/1 229/277/1 228/278/1
f 225/224/1 227/271/1 226/279/1
f 282/1/2 290/3/2 281/2/2
f 290/3/2 280/4/2 281/2/2
f 290/3/2 291/5/2 280/4/2
f 282/1/2 289/6/2 290/3/2
f 282/1/2 286/7/2 289/6/2
f 286/7/2 288/8/2 289/6/2
f 286/7/2 287/9/2 288/8/2
f 282/1/2 285/10/2 286/7/2
f 282/1/2 284/11/2 285/10/2
f 282/1/2 283/12/2 284/11/2
f 305/13/2 303/15/2 304/14/2
f 305/13/2 302/16/2 303/15/2
f 305/13/2 301/17/2 302/16/2
f 306/18/2 301/17/2 305/13/2
f 306/18/2 300/19/2 301/17/2
f 306/18/2 299/20/2 300/19/2
f 307/21/2 299/20/2 306/18/2
f 307/21/2 298/22/2 299/20/2
f 307/21/2 297/23/2 298/22/2
f 308/24/2 297/23/2 307/21/2
f 308/24/2 296/25/2 297/23/2
f 308/24/2 295/26/2 296/25/2
f 309/27/2 295/26/2 308/24/2
f 309/27/2 294/28/2 295/26/2
f 309/27/2 293/29/2 294/28/2
f 310/30/2 293/29/2 309/27/2
f 310/30/2 292/31/2 293/29/2
f 310/30/2 405/32/2 292/31/2
f 405/32/2 406/33/2 292/31/2
f 406/33/2 407/34/2 292/31/2
f 407/34/2 408/35/2 292/31/2
f 408/35/2 409/36/2 292/31/2
f 409/36/2 410/37/2 292/31/2
f 410/37/2 411/38/2 292/31/2
f 411/38/2 412/39/2 292/31/2
f 412/39/2 413/40/2 292/31/2
f 311/41/2 403/42/2 310/30/2
f 403/42/2 404/43/2 310/30/2
f 404/43/2 405/32/2 310/30/2
f 312/44/2 401/45/2 311/41/2
f 401/45/2 402/46/2 311/41/2
f 402/46/3 403/42/3 311/41/3
f 313/47/2 400/48/2 312/44/2
f 400/48/2 401/45/2 312/44/2
f 313/47/2 399/49/2 400/48/2
f 313/47/2 398/50/2 399/49/2
f 313/47/2 397/51/2 398/50/2
f 313/47/2 396/52/2 397/51/2
f 313/47/2 395/53/2 396/52/2
f 314/54/2 395/53/2 313/47/2
f 314/54/2 394/55/2 395/53/2
f 314/54/2 393/56/2 394/55/2
f 314/54/2 392/57/2 393/56/2
f 315/58/2 392/57/2 314/54/2
f 315/58/2 391/59/2 392/57/2
f 315/58/2 390/60/2 391/59/2
f 316/61/2 390/60/2 315/58/2
f 316/61/2 389/62/2 390/60/2
f 316/61/2 388/63/2 389/62/2
f 317/64/2 388/63/2 316/61/2
f 317/64/2 387/65/2 388/63/2
f 317/64/2 386/66/2 387/65/2
f 318/67/2 386/66/2 317/64/2
f 318/67/2 385/68/2 386/66/2
f 319/69/2 385/68/2 318/67/2
f 319/69/2 384/70/2 385/68/2
f 319/69/2 383/71/2 384/70/2
f 320/72/2 383/71/2 319/69/2
f 320/72/2 382/73/2 383/71/2
f 321/74/2 382/73/2 320/72/2
f 321/74/2 381/75/2 382/73/2
f 322/76/2 381/75/2 321/74/2
f 322/76/2 380/77/2 381/75/2
f 323/78/2 380/77/2 322/76/2
f 323/78/2 379/79/2 380/77/2
f 324/80/2 379/79/2 323/78/2
f 325/81/2 379/79/2 324/80/2
f 325/81/2 378/82/2 379/79/2
f 326/83/2 378/82/2 325/81/2
f 327/84/2 378/82/2 326/83/2
f 327/84/2 377/85/2 378/82/2
f 328/86/2 377/85/2 327/84/2
f 353/87/2 351/89/2 352/88/2
f 328/86/2 376/90/2 377/85/2
f 329/91/2 376/90/2 328/86/2
f 353/87/2 350/92/2 351/89/2
f 330/93/2 376/90/2 329/91/2
f 330/93/2 375/94/2 376/90/2
f 353/87/2 349/95/2 350/92/2
f 331/96/2 375/94/2 330/93/2
f 353/87/2 348/97/2 349/95/2
f 332/98/2 375/94/2 331/96/2
f 333/99/2 375/94/2 332/98/2
f 333/99/2 374/100/2 375/94/2
f 353/87/2 347/101/2 348/97/2
f 334/102/2 374/100/2 333/99/2
f 353/87/2 346/103/2 347/101/2
f 335/104/2 374/100/2 334/102/2
f 353/87/2 345/105/2 346/103/2
f 335/104/2 373/106/2 374/100/2
f 336/107/2 373/106/2 335/104/2
f 353/87/2 344/108/2 345/105/2
f 337/109/2 373/106/2 336/107/2
f 353/87/2 343/110/2 344/108/2
f 338/111/2 373/106/2 337/109/2
f 353/87/2 342/112/2 343/110/2
f 339/113/2 373/106/2 338/111/2
f 353/87/2 341/114/2 342/112/2
f 339/113/2 372/115/2 373/106/2
f 340/116/2 372/115/2 339/113/2
f 353/87/2 340/116/2 341/114/2
f 353/87/2 372/115/2 340/116/2
f 353/87/2 371/117/2 372/115/2
f 354/118/2 371/117/2 353/87/2
f 355/119/2 371/117/2 354/118/2
f 355/119/2 370/120/2 371/117/2
f 356/121/2 370/120/2 355/119/2
f 356/121/2 369/122/2 370/120/2
f 357/123/2 369/122/2 356/121/2
f 358/124/2 369/122/2 357/123/2
f 358/124/2 368/125/2 369/122/2
f 359/126/2 368/125/2 358/124/2
f 360/127/2 368/125/2 359/126/2
f 360/127/2 367/128/2 368/125/2
f 361/129/2 367/128/2 360/127/2
f 362/130/2 367/128/2 361/129/2
f 362/130/2 366/131/2 367/128/2
f 363/132/2 366/131/2 362/130/2
f 364/133/2 366/131/2 363/132/2
f 364/133/2 365/134/2 366/131/2
f 467/135/2 465/137/2 466/136/2
f 467/135/2 464/138/2 465/137/2
f 416/139/2 414/141/2 415/140/2
f 416/139/2 491/142/2 414/141/2
f 417/143/2 491/142/2 416/139/2
f 467/135/2 463/144/2 464/138/2
f 418/145/2 491/142/2 417/143/2
f 418/145/2 490/146/2 491/142/2
f 467/135/2 462/147/2 463/144/2
f 468/148/2 462/147/2 467/135/2
f 419/149/2 490/146/2 418/145/2
f 468/148/2 461/150/2 462/147/2
f 420/151/2 490/146/2 419/149/2
f 468/148/2 460/152/2 461/150/2
f 420/151/2 489/153/2 490/146/2
f 421/154/2 489/153/2 420/151/2
f 468/148/2 459/155/2 460/152/2
f 469/156/2 459/155/2 468/148/2
f 422/157/2 489/153/2 421/154/2
f 469/156/2 458/158/2 459/155/2
f 423/159/2 489/153/2 422/157/2
f 469/156/2 457/160/2 458/158/2
f 423/159/2 488/161/2 489/153/2
f 424/162/2 488/161/2 423/159/2
f 469/156/2 456/163/2 457/160/2
f 425/164/2 488/161/2 424/162/2
f 470/165/2 456/163/2 469/156/2
f 470/165/2 455/166/2 456/163/2
f 426/167/2 488/161/2 425/164/2
f 470/165/2 454/168/2 455/166/2
f 470/165/2 453/169/2 454/168/2
f 427/170/2 488/161/2 426/167/2
f 427/170/2 487/171/2 488/161/2
f 470/165/2 452/172/2 453/169/2
f 428/173/2 487/171/2 427/170/2
f 470/165/2 451/174/2 452/172/2
f 471/175/2 451/174/2 470/165/2
f 429/176/2 487/171/2 428/173/2
f 471/175/2 450/177/2 451/174/2
f 430/178/2 487/171/2 429/176/2
f 430/178/2 486/179/2 487/171/2
f 471/175/2 449/180/2 450/177/2
f 431/181/2 486/179/2 430/178/2
f 432/182/2 486/179/2 431/181/2
f 471/175/2 448/183/2 449/180/2
f 433/184/2 486/179/2 432/182/2
f 471/175/2 447/185/2 448/183/2
f 472/186/2 447/185/2 471/175/2
f 434/187/2 486/179/2 433/184/2
f 472/186/2 446/188/2 447/185/2
f 435/189/2 486/179/2 434/187/2
f 472/186/2 445/190/2 446/188/2
f 435/189/2 485/191/2 486/179/2
f 436/192/2 485/191/2 435/189/2
f 472/186/2 444/193/2 445/190/2
f 437/194/2 485/191/2 436/192/2
f 472/186/2 443/195/2 444/193/2
f 438/196/2 485/191/2 437/194/2
f 472/186/2 442/197/2 443/195/2
f 439/198/2 485/191/2 438/196/2
f 472/186/2 441/199/2 442/197/2
f 440/200/2 485/191/2 439/198/2
f 472/186/2 440/200/2 441/199/2
f 472/186/2 485/191/2 440/200/2
f 473/201/2 485/191/2 472/186/2
f 473/201/2 484/202/2 485/191/2
f 474/203/2 484/202/2 473/201/2
f 474/203/2 483/204/2 484/202/2
f 475/205/2 483/204/2 474/203/2
f 475/205/2 482/206/2 483/204/2
f 476/207/2 482/206/2 475/205/2
f 476/207/2 481/208/2 482/206/2
f 477/209/2 481/208/2 476/207/2
f 477/209/2 480/210/2 481/208/2
f 478/211/2 480/210/2 477/209/2
f 478/211/2 479/212/2 480/210/2
f 494/213/2 492/215/2 493/214/2
f 494/213/2 500/216/2 492/215/2
f 500/216/2 499/217/2 492/215/2
f 494/213/2 502/218/2 500/216/2
f 501/219/2 499/217/2 500/216/2
f 494/213/2 496/220/2 502/218/2
f 496/220/2 501/219/2 502/218/2
f 496/220/2 497/221/2 501/219/2
f 497/221/2 499/217/2 501/219/2
f 494/213/2 495/222/2 496/220/2
f 498/223/2 499/217/2 497/221/2
f 504/224/2 532/226/2 503/225/2
f 532/226/2 531/227/2 503/225/2
f 532/226/2 530/228/2 531/227/2
f 532/226/2 529/229/2 530/228/2
f 532/226/2 528/230/2 529/229/2
f 532/226/2 527/231/2 528/230/2
f 532/226/2 526/232/2 527/231/2
f 532/226/2 525/233/2 526/232/2
f 532/226/2 524/234/2 525/233/2
f 532/226/2 533/235/2 524/234/2
f 533/235/2 523/236/2 524/234/2
f 504/224/2 558/237/2 532/226/2
f 534/238/2 523/236/2 533/235/2
f 535/239/2 523/236/2 534/238/2
f 536/240/2 523/236/2 535/239/2
f 536/240/2 522/241/2 523/236/2
f 537/242/2 522/241/2 536/240/2
f 538/243/2 522/241/2 537/242/2
f 539/244/2 522/241/2 538/243/2
f 539/244/2 521/245/2 522/241/2
f 540/246/2 521/245/2 539/244/2
f 541/247/2 521/245/2 540/246/2
f 542/248/2 521/245/2 541/247/2
f 542/248/2 520/249/2 521/245/2
f 543/250/2 520/249/2 542/248/2
f 544/251/2 520/249/2 543/250/2
f 544/251/2 519/252/2 520/249/2
f 545/253/2 519/252/2 544/251/2
f 546/254/2 519/252/2 545/253/2
f 546/254/2 518/255/2 519/252/2
f 547/256/2 518/255/2 546/254/2
f 547/256/2 517/257/2 518/255/2
f 548/258/2 517/257/2 547/256/2
f 549/259/2 517/257/2 548/258/2
f 549/259/2 516/260/2 517/257/2
f 550/261/2 516/260/2 549/259/2
f 551/262/2 516/260/2 550/261/2
f 551/262/2 515/263/2 516/260/2
f 552/264/2 515/263/2 551/262/2
f 553/265/2 515/263/2 552/264/2
f 554/266/2 515/263/2 553/265/2
f 555/267/2 515/263/2 554/266/2
f 555/267/2 514/268/2 515/263/2
f 556/269/2 514/268/2 555/267/2
f 557/270/2 514/268/2 556/269/2
f 504/224/2 506/271/2 558/237/2
f 506/271/2 557/270/2 558/237/2
f 506/271/2 514/268/2 557/270/2
f 506/271/2 513/272/2 514/268/2
f 506/271/2 512/273/2 513/272/2
f 506/271/2 511/274/2 512/273/2
f 506/271/2 510/275/2 511/274/2
f 506/271/2 509/276/2 510/275/2
f 506/271/2 508/277/2 509/276/2
f 506/271/2 507/278/2 508/277/2
f 504/224/2 505/279/2 506/271/2
f 107/66/4 108/65/4 387/65/4 386/66/4
f 230/276/5 231/275/5 510/275/5 509/276/5
f 25/14/6 26/13/6 305/13/6 304/14/6
f 75/118/7 76/119/7 355/119/7 354/118/7
f 38/64/8 39/67/8 318/67/8 317/64/8
f 172/174/9 173/172/9 452/172/9 451/174/9
f 229/277/10 230/276/10 509/276/10 508/277/10
f 24/15/11 25/14/11 304/14/11 303/15/11
f 191/165/12 192/175/12 471/175/12 470/165/12
f 227/271/13 228/278/13 507/278/13 506/271/13
f 252/227/14 224/225/14 503/225/14 531/227/14
f 91/120/15 92/117/15 371/117/15 370/120/15
f 106/68/16 107/66/16 386/66/16 385/68/16
f 228/278/17 229/277/17 508/277/17 507/278/17
f 23/16/18 24/15/18 303/15/18 302/16/18
f 149/173/19 150/176/19 429/176/19 428/173/19
f 76/119/20 77/121/20 356/121/20 355/119/20
f 39/67/21 40/69/21 319/69/21 318/67/21
f 225/224/13 226/279/13 505/279/13 504/224/13
f 251/228/22 252/227/22 531/227/22 530/228/22
f 226/279/23 227/271/23 506/271/23 505/279/23
f 22/17/24 23/16/24 302/16/24 301/17/24
f 26/13/25 27/18/25 306/18/25 305/13/25
f 250/229/26 251/228/26 530/228/26 529/229/26
f 171/177/27 172/174/27 451/174/27 450/177/27
f 90/122/28 91/120/28 370/120/28 369/122/28
f 105/70/29 106/68/29 385/68/29 384/70/29
f 150/176/30 151/178/30 430/178/30 429/176/30
f 77/121/31 78/123/31 357/123/31 356/121/31
f 249/230/32 250/229/32 529/229/32 528/230/32
f 104/71/33 105/70/33 384/70/33 383/71/33
f 21/19/34 22/17/34 301/17/34 300/19/34
f 78/123/35 79/124/35 358/124/35 357/123/35
f 40/69/36 41/72/36 320/72/36 319/69/36
f 248/231/37 249/230/37 528/230/37 527/231/37
f 207/179/38 208/171/38 487/171/38 486/179/38
f 20/20/39 21/19/39 300/19/39 299/20/39
f 27/18/40 28/21/40 307/21/40 306/18/40
f 247/232/41 248/231/41 527/231/41 526/232/41
f 170/180/42 171/177/42 450/177/42 449/180/42
f 89/125/43 90/122/43 369/122/43 368/125/43
f 103/73/44 104/71/44 383/71/44 382/73/44
f 151/178/45 152/181/45 431/181/45 430/178/45
f 79/124/46 80/126/46 359/126/46 358/124/46
f 41/72/47 42/74/47 321/74/47 320/72/47
f 246/233/48 247/232/48 526/232/48 525/233/48
f 19/22/49 20/20/49 299/20/49 298/22/49
f 152/181/50 153/182/50 432/182/50 431/181/50
f 80/126/51 81/127/51 360/127/51 359/126/51
f 245/234/52 246/233/52 525/233/52 524/234/52
f 102/75/53 103/73/53 382/73/53 381/75/53
f 18/23/54 19/22/54 298/22/54 297/23/54
f 253/226/13 254/235/13 533/235/13 532/226/13
f 42/74/55 43/76/55 322/76/55 321/74/55
f 28/21/56 29/24/56 308/24/56 307/21/56
f 169/183/57 170/180/57 449/180/57 448/183/57
f 88/128/58 89/125/58 368/125/58 367/128/58
f 153/182/59 154/184/59 433/184/59 432/182/59
f 81/127/60 82/129/60 361/129/60 360/127/60
f 244/236/61 245/234/61 524/234/61 523/236/61
f 101/77/62 102/75/62 381/75/62 380/77/62
f 17/25/63 18/23/63 297/23/63 296/25/63
f 82/129/64 83/130/64 362/130/64 361/129/64
f 43/76/65 44/78/65 323/78/65 322/76/65
f 279/237/23 253/226/23 532/226/23 558/237/23
f 168/185/66 169/183/66 448/183/66 447/185/66
f 16/26/67 17/25/67 296/25/67 295/26/67
f 254/235/68 255/238/68 534/238/68 533/235/68
f 192/175/69 193/186/69 472/186/69 471/175/69
f 29/24/70 30/27/70 309/27/70 308/24/70
f 87/131/71 88/128/71 367/128/71 366/131/71
f 100/79/72 101/77/72 380/77/72 379/79/72
f 255/238/73 256/239/73 535/239/73 534/238/73
f 154/184/74 155/187/74 434/187/74 433/184/74
f 83/130/75 84/132/75 363/132/75 362/130/75
f 44/78/76 45/80/76 324/80/76 323/78/76
f 15/28/77 16/26/77 295/26/77 294/28/77
f 256/239/78 257/240/78 536/240/78 535/239/78
f 84/132/79 85/133/79 364/133/79 363/132/79
f 45/80/80 46/81/80 325/81/80 324/80/80
f 167/188/81 168/185/81 447/185/81 446/188/81
f 14/29/82 15/28/82 294/28/82 293/29/82
f 155/187/83 156/189/83 435/189/83 434/187/83
f 85/133/84 86/134/84 365/134/84 364/133/84
f 30/27/85 31/30/85 310/30/85 309/27/85
f 243/241/86 244/236/86 523/236/86 522/241/86
f 86/134/87 87/131/87 366/131/87 365/134/87
f 99/82/88 100/79/88 379/79/88 378/82/88
f 257/240/89 258/242/89 537/242/89 536/240/89
f 187/136/90 188/135/90 467/135/90 466/136/90
f 46/81/91 47/83/91 326/83/91 325/81/91
f 166/190/92 167/188/92 446/188/92 445/190/92
f 13/31/93 14/29/93 293/29/93 292/31/93
f 258/242/94 259/243/94 538/243/94 537/242/94
f 186/137/14 187/136/14 466/136/14 465/137/14
f 47/83/95 48/84/95 327/84/95 326/83/95
f 206/191/96 207/179/96 486/179/96 485/191/96
f 259/243/97 260/244/97 539/244/97 538/243/97
f 156/189/98 157/192/98 436/192/98 435/189/98
f 185/138/23 186/137/23 465/137/23 464/138/23
f 126/32/99 127/33/99 406/33/99 405/32/99
f 136/140/90 137/139/90 416/139/90 415/140/90
f 98/85/100 99/82/100 378/82/100 377/85/100
f 48/84/101 49/86/101 328/86/101 327/84/101
f 127/33/102 128/34/102 407/34/102 406/33/102
f 242/245/103 243/241/103 522/241/103 521/245/103
f 165/193/104 166/190/104 445/190/104 444/193/104
f 135/141/14 136/140/14 415/140/14 414/141/14
f 260/244/105 261/246/105 540/246/105 539/244/105
f 157/192/106 158/194/106 437/194/106 436/192/106
f 73/88/90 74/87/90 353/87/90 352/88/90
f 128/34/107 129/35/107 408/35/107 407/34/107
f 212/142/23 135/141/23 414/141/23 491/142/23
f 261/246/108 262/247/108 541/247/108 540/246/108
f 137/139/109 138/143/109 417/143/109 416/139/109
f 72/89/110 73/88/110 352/88/110 351/89/110
f 129/35/111 130/36/111 409/36/111 408/35/111
f 164/195/112 165/193/112 444/193/112 443/195/112
f 262/247/113 263/248/113 542/248/113 541/247/113
f 158/194/114 159/196/114 438/196/114 437/194/114
f 97/90/115 98/85/115 377/85/115 376/90/115
f 130/36/116 131/37/116 410/37/116 409/36/116
f 184/144/117 185/138/117 464/138/117 463/144/117
f 49/86/118 50/91/118 329/91/118 328/86/118
f 138/143/119 139/145/119 418/145/119 417/143/119
f 131/37/120 132/38/120 411/38/120 410/37/120
f 241/249/121 242/245/121 521/245/121 520/249/121
f 163/197/122 164/195/122 443/195/122 442/197/122
f 263/248/123 264/250/123 543/250/123 542/248/123
f 159/196/124 160/198/124 439/198/124 438/196/124
f 71/92/125 72/89/125 351/89/125 350/92/125
f 132/38/126 133/39/126 412/39/126 411/38/126
f 211/146/127 212/142/127 491/142/127 490/146/127
f 50/91/128 51/93/128 330/93/128 329/91/128
f 264/250/129 265/251/129 544/251/129 543/250/129
f 133/39/130 134/40/130 413/40/130 412/39/130
f 162/199/131 163/197/131 442/197/131 441/199/131
f 183/147/132 184/144/132 463/144/132 462/147/132
f 134/40/23 13/31/23 292/31/23 413/40/23
f 160/198/133 161/200/133 440/200/133 439/198/133
f 188/135/134 189/148/134 468/148/134 467/135/134
f 96/94/135 97/90/135 376/90/135 375/94/135
f 31/30/136 32/41/136 311/41/136 310/30/136
f 240/252/137 241/249/137 520/249/137 519/252/137
f 265/251/138 266/253/138 545/253/138 544/251/138
f 139/145/139 140/149/139 419/149/139 418/145/139
f 70/95/140 71/92/140 350/92/140 349/95/140
f 161/200/141 162/199/141 441/199/141 440/200/141
f 51/93/142 52/96/142 331/96/142 330/93/142
f 124/42/143 125/43/143 404/43/143 403/42/143
f 266/253/144 267/254/144 546/254/144 545/253/144
f 193/186/145 194/201/145 473/201/145 472/186/145
f 182/150/146 183/147/146 462/147/146 461/150/146
f 125/43/147 126/32/147 405/32/147 404/43/147
f 140/149/148 141/151/148 420/151/148 419/149/148
f 69/97/27 70/95/27 349/95/27 348/97/27
f 32/41/149 33/44/149 312/44/149 311/41/149
f 239/255/150 240/252/150 519/252/150 518/255/150
f 52/96/151 53/98/151 332/98/151 331/96/151
f 267/254/152 268/256/152 547/256/152 546/254/152
f 205/202/153 206/191/153 485/191/153 484/202/153
f 194/201/154 195/203/154 474/203/154 473/201/154
f 181/152/155 182/150/155 461/150/155 460/152/155
f 53/98/156 54/99/156 333/99/156 332/98/156
f 122/45/157 123/46/157 402/46/157 401/45/157
f 238/257/158 239/255/158 518/255/158 517/257/158
f 210/153/159 211/146/159 490/146/159 489/153/159
f 123/46/160 124/42/160 403/42/160 402/46/160
f 268/256/161 269/258/161 548/258/161 547/256/161
f 204/204/162 205/202/162 484/202/162 483/204/162
f 141/151/163 142/154/163 421/154/163 420/151/163
f 95/100/164 96/94/164 375/94/164 374/100/164
f 33/44/165 34/47/165 313/47/165 312/44/165
f 195/203/166 196/205/166 475/205/166 474/203/166
f 269/258/167 270/259/167 549/259/167 548/258/167
f 68/101/168 69/97/168 348/97/168 347/101/168
f 180/155/169 181/152/169 460/152/169 459/155/169
f 54/99/170 55/102/170 334/102/170 333/99/170
f 121/48/171 122/45/171 401/45/171 400/48/171
f 203/206/172 204/204/172 483/204/172 482/206/172
f 189/148/173 190/156/173 469/156/173 468/148/173
f 237/260/174 238/257/174 517/257/174 516/260/174
f 196/205/175 197/207/175 476/207/175 475/205/175
f 120/49/176 121/48/176 400/48/176 399/49/176
f 270/259/177 271/261/177 550/261/177 549/259/177
f 142/154/178 143/157/178 422/157/178 421/154/178
f 67/103/179 68/101/179 347/101/179 346/103/179
f 55/102/180 56/104/180 335/104/180 334/102/180
f 119/50/181 120/49/181 399/49/181 398/50/181
f 271/261/182 272/262/182 551/262/182 550/261/182
f 202/208/183 203/206/183 482/206/183 481/208/183
f 197/207/184 198/209/184 477/209/184 476/207/184
f 179/158/185 180/155/185 459/155/185 458/158/185
f 118/51/186 119/50/186 398/50/186 397/51/186
f 143/157/187 144/159/187 423/159/187 422/157/187
f 66/105/188 67/103/188 346/103/188 345/105/188
f 236/263/189 237/260/189 516/260/189 515/263/189
f 117/52/190 118/51/190 397/51/190 396/52/190
f 272/262/191 273/264/191 552/264/191 551/262/191
f 201/210/192 202/208/192 481/208/192 480/210/192
f 94/106/193 95/100/193 374/100/193 373/106/193
f 198/209/194 199/211/194 478/211/194 477/209/194
f 178/160/195 179/158/195 458/158/195 457/160/195
f 56/104/196 57/107/196 336/107/196 335/104/196
f 116/53/197 117/52/197 396/52/197 395/53/197
f 273/264/198 274/265/198 553/265/198 552/264/198
f 34/47/199 35/54/199 314/54/199 313/47/199
f 199/211/200 200/212/200 479/212/200 478/211/200
f 209/161/201 210/153/201 489/153/201 488/161/201
f 274/265/202 275/266/202 554/266/202 553/265/202
f 200/212/203 201/210/203 480/210/203 479/212/203
f 144/159/204 145/162/204 424/162/204 423/159/204
f 65/108/205 66/105/205 345/105/205 344/108/205
f 214/214/206 215/213/206 494/213/206 493/214/206
f 57/107/207 58/109/207 337/109/207 336/107/207
f 115/55/208 116/53/208 395/53/208 394/55/208
f 275/266/209 276/267/209 555/267/209 554/266/209
f 2/2/90 3/1/90 282/1/90 281/2/90
f 213/215/14 214/214/14 493/214/14 492/215/14
f 177/163/210 178/160/210 457/160/210 456/163/210
f 114/56/211 115/55/211 394/55/211 393/56/211
f 145/162/212 146/164/212 425/164/212 424/162/212
f 64/110/213 65/108/213 344/108/213 343/110/213
f 235/268/214 236/263/214 515/263/214 514/268/214
f 58/109/215 59/111/215 338/111/215 337/109/215
f 113/57/216 114/56/216 393/56/216 392/57/216
f 276/267/217 277/269/217 556/269/217 555/267/217
f 190/156/218 191/165/218 470/165/218 469/156/218
f 35/54/219 36/58/219 315/58/219 314/54/219
f 1/4/14 2/2/14 281/2/14 280/4/14
f 220/217/220 213/215/220 492/215/220 499/217/220
f 277/269/221 278/270/221 557/270/221 556/269/221
f 11/3/13 12/5/13 291/5/13 290/3/13
f 63/112/222 64/110/222 343/110/222 342/112/222
f 12/5/23 1/4/23 280/4/23 291/5/23
f 223/218/223 221/216/223 500/216/223 502/218/223
f 176/166/224 177/163/224 456/163/224 455/166/224
f 59/111/225 60/113/225 339/113/225 338/111/225
f 112/59/226 113/57/226 392/57/226 391/59/226
f 221/216/227 222/219/227 501/219/227 500/216/227
f 146/164/228 147/167/228 426/167/228 425/164/228
f 10/6/23 11/3/23 290/3/23 289/6/23
f 111/60/229 112/59/229 391/59/229 390/60/229
f 62/114/230 63/112/230 342/112/230 341/114/230
f 36/58/231 37/61/231 316/61/231 315/58/231
f 278/270/14 279/237/14 558/237/14 557/270/14
f 175/168/232 176/166/232 455/166/232 454/168/232
f 93/115/233 94/106/233 373/106/233 372/115/233
f 9/8/14 10/6/14 289/6/14 288/8/14
f 222/219/14 223/218/14 502/218/14 501/219/14
f 174/169/234 175/168/234 454/168/234 453/169/234
f 60/113/235 61/116/235 340/116/235 339/113/235
f 110/62/236 111/60/236 390/60/236 389/62/236
f 234/272/237 235/268/237 514/268/237 513/272/237
f 7/7/13 8/9/13 287/9/13 286/7/13
f 217/220/13 218/221/13 497/221/13 496/220/13
f 147/167/238 148/170/238 427/170/238 426/167/238
f 8/9/23 9/8/23 288/8/23 287/9/23
f 109/63/239 110/62/239 389/62/239 388/63/239
f 233/273/240 234/272/240 513/272/240 512/273/240
f 61/116/241 62/114/241 341/114/241 340/116/241
f 37/61/242 38/64/242 317/64/242 316/61/242
f 6/10/23 7/7/23 286/7/23 285/10/23
f 215/213/13 216/222/13 495/222/13 494/213/13
f 208/171/243 209/161/243 488/161/243 487/171/243
f 232/274/244 233/273/244 512/273/244 511/274/244
f 216/222/245 217/220/245 496/220/245 495/222/245
f 5/11/14 6/10/14 285/10/14 284/11/14
f 218/221/246 219/223/246 498/223/246 497/221/246
f 173/172/247 174/169/247 453/169/247 452/172/247
f 92/117/248 93/115/248 372/115/248 371/117/248
f 108/65/249 109/63/249 388/63/249 387/65/249
f 231/275/250 232/274/250 511/274/250 510/275/250
f 3/1/13 4/12/13 283/12/13 282/1/13
f 219/223/13 220/217/13 499/217/13 498/223/13
f 148/170/251 149/173/251 428/173/251 427/170/251
f 74/87/252 75/118/252 354/118/252 353/87/252
f 4/12/23 5/11/23 284/11/23 283/12/23
f 224/225/90 225/224/90 504/224/90 503/225/90
