# Blender 4.4.1
# www.blender.org
mtllib restart.mtl
o テキスト
v 2.214318 0.682000 0.000000
v 1.644318 0.682000 0.000000
v 1.644318 0.594000 0.000000
v 1.880318 0.594000 0.000000
v 1.880318 0.000000 0.000000
v 1.978318 0.000000 0.000000
v 1.978318 0.594000 0.000000
v 2.214318 0.594000 0.000000
v 1.100318 0.682000 0.000000
v 1.100318 0.000000 0.000000
v 1.198318 0.000000 0.000000
v 1.198318 0.296000 0.000000
v 1.239318 0.296000 0.000000
v 1.251664 0.295604 0.000000
v 1.263837 0.294167 0.000000
v 1.276037 0.291313 0.000000
v 1.288466 0.286667 0.000000
v 1.301326 0.279854 0.000000
v 1.314818 0.270500 0.000000
v 1.329143 0.258229 0.000000
v 1.344503 0.242667 0.000000
v 1.361099 0.223437 0.000000
v 1.379133 0.200167 0.000000
v 1.398805 0.172479 0.000000
v 1.420318 0.140000 0.000000
v 1.510318 0.000000 0.000000
v 1.627318 0.000000 0.000000
v 1.616169 0.015413 0.000000
v 1.606124 0.029306 0.000000
v 1.597037 0.041906 0.000000
v 1.588763 0.053444 0.000000
v 1.581155 0.064149 0.000000
v 1.574068 0.074250 0.000000
v 1.567356 0.083976 0.000000
v 1.560874 0.093556 0.000000
v 1.554474 0.103219 0.000000
v 1.548012 0.113194 0.000000
v 1.541342 0.123712 0.000000
v 1.534318 0.135000 0.000000
v 1.521588 0.155792 0.000000
v 1.509309 0.175667 0.000000
v 1.497349 0.194625 0.000000
v 1.485577 0.212667 0.000000
v 1.473861 0.229792 0.000000
v 1.462068 0.246000 0.000000
v 1.450067 0.261292 0.000000
v 1.437725 0.275667 0.000000
v 1.424912 0.289125 0.000000
v 1.411494 0.301667 0.000000
v 1.397340 0.313292 0.000000
v 1.382318 0.324000 0.000000
v 1.399896 0.331869 0.000000
v 1.416110 0.340954 0.000000
v 1.430928 0.351219 0.000000
v 1.444318 0.362630 0.000000
v 1.456250 0.375152 0.000000
v 1.466693 0.388750 0.000000
v 1.475615 0.403390 0.000000
v 1.482985 0.419037 0.000000
v 1.488771 0.435656 0.000000
v 1.492943 0.453213 0.000000
v 1.495469 0.471673 0.000000
v 1.496318 0.491000 0.000000
v 1.494546 0.519546 0.000000
v 1.489309 0.546120 0.000000
v 1.480724 0.570625 0.000000
v 1.468911 0.592963 0.000000
v 1.453986 0.613037 0.000000
v 1.436068 0.630750 0.000000
v 1.415275 0.646005 0.000000
v 1.391726 0.658704 0.000000
v 1.365537 0.668750 0.000000
v 1.336828 0.676046 0.000000
v 1.305715 0.680495 0.000000
v 1.272318 0.682000 0.000000
v 1.198318 0.598000 0.000000
v 1.261318 0.598000 0.000000
v 1.283892 0.597196 0.000000
v 1.304161 0.594815 0.000000
v 1.322193 0.590906 0.000000
v 1.338059 0.585519 0.000000
v 1.351827 0.578700 0.000000
v 1.363568 0.570500 0.000000
v 1.373350 0.560966 0.000000
v 1.381244 0.550148 0.000000
v 1.387318 0.538094 0.000000
v 1.391642 0.524852 0.000000
v 1.394285 0.510471 0.000000
v 1.395318 0.495000 0.000000
v 1.394897 0.480842 0.000000
v 1.393031 0.466986 0.000000
v 1.389568 0.453609 0.000000
v 1.384355 0.440889 0.000000
v 1.377239 0.429002 0.000000
v 1.368068 0.418125 0.000000
v 1.356688 0.408436 0.000000
v 1.342947 0.400111 0.000000
v 1.326693 0.393328 0.000000
v 1.307771 0.388264 0.000000
v 1.286031 0.385095 0.000000
v 1.261318 0.384000 0.000000
v 1.198318 0.384000 0.000000
v 0.718318 0.686000 0.000000
v 0.649318 0.686000 0.000000
v 0.356318 0.000000 0.000000
v 0.456318 0.000000 0.000000
v 0.542318 0.201000 0.000000
v 0.832318 0.201000 0.000000
v 0.923318 0.000000 0.000000
v 1.023318 0.000000 0.000000
v 0.682318 0.536000 0.000000
v 0.792318 0.289000 0.000000
v 0.580318 0.289000 0.000000
v 0.339318 0.682000 0.000000
v -0.230682 0.682000 0.000000
v -0.230682 0.594000 0.000000
v 0.005318 0.594000 0.000000
v 0.005318 0.000000 0.000000
v 0.103318 0.000000 0.000000
v 0.103318 0.594000 0.000000
v 0.339318 0.594000 0.000000
v -0.306682 0.643000 0.000000
v -0.318763 0.650667 0.000000
v -0.330997 0.657667 0.000000
v -0.343370 0.664000 0.000000
v -0.355867 0.669667 0.000000
v -0.368476 0.674667 0.000000
v -0.381182 0.679000 0.000000
v -0.393971 0.682667 0.000000
v -0.406830 0.685667 0.000000
v -0.419745 0.688000 0.000000
v -0.432701 0.689667 0.000000
v -0.445684 0.690667 0.000000
v -0.458682 0.691000 0.000000
v -0.489014 0.689539 0.000000
v -0.517418 0.685227 0.000000
v -0.543760 0.678172 0.000000
v -0.567904 0.668482 0.000000
v -0.589715 0.656263 0.000000
v -0.609057 0.641625 0.000000
v -0.625795 0.624674 0.000000
v -0.639793 0.605519 0.000000
v -0.650916 0.584266 0.000000
v -0.659029 0.561023 0.000000
v -0.663996 0.535899 0.000000
v -0.665682 0.509000 0.000000
v -0.659878 0.465641 0.000000
v -0.643830 0.428380 0.000000
v -0.619588 0.396187 0.000000
v -0.589200 0.368037 0.000000
v -0.554716 0.342900 0.000000
v -0.518182 0.319750 0.000000
v -0.481648 0.297558 0.000000
v -0.447163 0.275296 0.000000
v -0.416776 0.251937 0.000000
v -0.392534 0.226454 0.000000
v -0.376486 0.197817 0.000000
v -0.370682 0.165000 0.000000
v -0.371415 0.155325 0.000000
v -0.373626 0.145435 0.000000
v -0.377338 0.135531 0.000000
v -0.382571 0.125815 0.000000
v -0.389345 0.116487 0.000000
v -0.397682 0.107750 0.000000
v -0.407602 0.099804 0.000000
v -0.419127 0.092852 0.000000
v -0.432276 0.087094 0.000000
v -0.447071 0.082731 0.000000
v -0.463533 0.079966 0.000000
v -0.481682 0.079000 0.000000
v -0.498343 0.079726 0.000000
v -0.514807 0.081889 0.000000
v -0.531041 0.085469 0.000000
v -0.547015 0.090444 0.000000
v -0.562698 0.096795 0.000000
v -0.578057 0.104500 0.000000
v -0.593062 0.113538 0.000000
v -0.607682 0.123889 0.000000
v -0.621885 0.135531 0.000000
v -0.635640 0.148444 0.000000
v -0.648916 0.162608 0.000000
v -0.661682 0.178000 0.000000
v -0.661682 0.054000 0.000000
v -0.647363 0.043727 0.000000
v -0.632881 0.034403 0.000000
v -0.618198 0.026016 0.000000
v -0.603275 0.018556 0.000000
v -0.588074 0.012012 0.000000
v -0.572557 0.006375 0.000000
v -0.556686 0.001634 0.000000
v -0.540423 -0.002222 -0.000000
v -0.523729 -0.005203 -0.000000
v -0.506566 -0.007319 -0.000000
v -0.488897 -0.008582 -0.000000
v -0.470682 -0.009000 -0.000000
v -0.443816 -0.007403 -0.000000
v -0.418339 -0.002727 -0.000000
v -0.394432 0.004859 0.000000
v -0.372275 0.015185 0.000000
v -0.352048 0.028080 0.000000
v -0.333932 0.043375 0.000000
v -0.318108 0.060899 0.000000
v -0.304756 0.080481 0.000000
v -0.294057 0.101953 0.000000
v -0.286191 0.125144 0.000000
v -0.281340 0.149883 0.000000
v -0.279682 0.176000 0.000000
v -0.285486 0.225891 0.000000
v -0.301534 0.267880 0.000000
v -0.325776 0.303187 0.000000
v -0.356164 0.333037 0.000000
v -0.390649 0.358650 0.000000
v -0.427182 0.381250 0.000000
v -0.463716 0.402058 0.000000
v -0.498201 0.422296 0.000000
v -0.528589 0.443187 0.000000
v -0.552830 0.465954 0.000000
v -0.568878 0.491817 0.000000
v -0.574682 0.522000 0.000000
v -0.573760 0.533677 0.000000
v -0.571057 0.544667 0.000000
v -0.566666 0.554906 0.000000
v -0.560682 0.564333 0.000000
v -0.553198 0.572885 0.000000
v -0.544307 0.580500 0.000000
v -0.534104 0.587115 0.000000
v -0.522682 0.592667 0.000000
v -0.510135 0.597094 0.000000
v -0.496557 0.600333 0.000000
v -0.482041 0.602323 0.000000
v -0.466682 0.603000 0.000000
v -0.454978 0.602653 0.000000
v -0.442886 0.601560 0.000000
v -0.430432 0.599641 0.000000
v -0.417645 0.596815 0.000000
v -0.404552 0.593003 0.000000
v -0.391182 0.588125 0.000000
v -0.377562 0.582101 0.000000
v -0.363719 0.574852 0.000000
v -0.349682 0.566297 0.000000
v -0.335478 0.556357 0.000000
v -0.321136 0.544951 0.000000
v -0.306682 0.532000 0.000000
v -0.743682 0.682000 0.000000
v -1.130682 0.682000 0.000000
v -1.130682 0.000000 0.000000
v -0.734682 0.000000 0.000000
v -0.734682 0.088000 0.000000
v -1.032682 0.088000 0.000000
v -1.032682 0.300000 0.000000
v -0.753682 0.300000 0.000000
v -0.753682 0.388000 0.000000
v -1.032682 0.388000 0.000000
v -1.032682 0.594000 0.000000
v -0.743682 0.594000 0.000000
v -1.732682 0.682000 0.000000
v -1.732682 0.000000 0.000000
v -1.634682 0.000000 0.000000
v -1.634682 0.296000 0.000000
v -1.593682 0.296000 0.000000
v -1.581336 0.295604 0.000000
v -1.569164 0.294167 0.000000
v -1.556963 0.291313 0.000000
v -1.544534 0.286667 0.000000
v -1.531674 0.279854 0.000000
v -1.518182 0.270500 0.000000
v -1.503857 0.258229 0.000000
v -1.488497 0.242667 0.000000
v -1.471901 0.223437 0.000000
v -1.453867 0.200167 0.000000
v -1.434195 0.172479 0.000000
v -1.412682 0.140000 0.000000
v -1.322682 0.000000 0.000000
v -1.205682 0.000000 0.000000
v -1.216831 0.015413 0.000000
v -1.226876 0.029306 0.000000
v -1.235963 0.041906 0.000000
v -1.244238 0.053444 0.000000
v -1.251845 0.064149 0.000000
v -1.258932 0.074250 0.000000
v -1.265644 0.083976 0.000000
v -1.272126 0.093556 0.000000
v -1.278526 0.103219 0.000000
v -1.284988 0.113194 0.000000
v -1.291658 0.123712 0.000000
v -1.298682 0.135000 0.000000
v -1.311412 0.155792 0.000000
v -1.323691 0.175667 0.000000
v -1.335651 0.194625 0.000000
v -1.347423 0.212667 0.000000
v -1.359139 0.229792 0.000000
v -1.370932 0.246000 0.000000
v -1.382933 0.261292 0.000000
v -1.395275 0.275667 0.000000
v -1.408088 0.289125 0.000000
v -1.421506 0.301667 0.000000
v -1.435660 0.313292 0.000000
v -1.450682 0.324000 0.000000
v -1.433104 0.331869 0.000000
v -1.416890 0.340954 0.000000
v -1.402073 0.351219 0.000000
v -1.388682 0.362630 0.000000
v -1.376750 0.375152 0.000000
v -1.366307 0.388750 0.000000
v -1.357385 0.403390 0.000000
v -1.350015 0.419037 0.000000
v -1.344229 0.435656 0.000000
v -1.340057 0.453213 0.000000
v -1.337531 0.471673 0.000000
v -1.336682 0.491000 0.000000
v -1.338454 0.519546 0.000000
v -1.343691 0.546120 0.000000
v -1.352276 0.570625 0.000000
v -1.364089 0.592963 0.000000
v -1.379014 0.613037 0.000000
v -1.396932 0.630750 0.000000
v -1.417725 0.646005 0.000000
v -1.441275 0.658704 0.000000
v -1.467463 0.668750 0.000000
v -1.496173 0.676046 0.000000
v -1.527285 0.680495 0.000000
v -1.560682 0.682000 0.000000
v -1.634682 0.598000 0.000000
v -1.571682 0.598000 0.000000
v -1.549108 0.597196 0.000000
v -1.528840 0.594815 0.000000
v -1.510807 0.590906 0.000000
v -1.494941 0.585519 0.000000
v -1.481173 0.578700 0.000000
v -1.469432 0.570500 0.000000
v -1.459650 0.560966 0.000000
v -1.451756 0.550148 0.000000
v -1.445682 0.538094 0.000000
v -1.441358 0.524852 0.000000
v -1.438715 0.510471 0.000000
v -1.437682 0.495000 0.000000
v -1.438103 0.480842 0.000000
v -1.439969 0.466986 0.000000
v -1.443432 0.453609 0.000000
v -1.448645 0.440889 0.000000
v -1.455761 0.429002 0.000000
v -1.464932 0.418125 0.000000
v -1.476312 0.408436 0.000000
v -1.490052 0.400111 0.000000
v -1.506307 0.393328 0.000000
v -1.525229 0.388264 0.000000
v -1.546969 0.385095 0.000000
v -1.571682 0.384000 0.000000
v -1.634682 0.384000 0.000000
v 2.214318 0.682000 0.279219
v 1.644318 0.682000 0.279219
v 1.644318 0.594000 0.279219
v 1.880318 0.594000 0.279219
v 1.880318 -0.000000 0.279219
v 1.978318 -0.000000 0.279219
v 1.978318 0.594000 0.279219
v 2.214318 0.594000 0.279219
v 1.100318 0.682000 0.279219
v 1.100318 -0.000000 0.279219
v 1.198318 -0.000000 0.279219
v 1.198318 0.296000 0.279219
v 1.239318 0.296000 0.279219
v 1.251664 0.295604 0.279219
v 1.263837 0.294167 0.279219
v 1.276037 0.291313 0.279219
v 1.288466 0.286667 0.279219
v 1.301326 0.279854 0.279219
v 1.314818 0.270500 0.279219
v 1.329143 0.258229 0.279219
v 1.344503 0.242667 0.279219
v 1.361099 0.223437 0.279219
v 1.379133 0.200167 0.279219
v 1.398805 0.172479 0.279219
v 1.420318 0.140000 0.279219
v 1.510318 -0.000000 0.279219
v 1.627318 -0.000000 0.279219
v 1.616169 0.015413 0.279219
v 1.606124 0.029306 0.279219
v 1.597037 0.041906 0.279219
v 1.588763 0.053444 0.279219
v 1.581155 0.064149 0.279219
v 1.574068 0.074250 0.279219
v 1.567356 0.083976 0.279219
v 1.560874 0.093556 0.279219
v 1.554474 0.103219 0.279219
v 1.548012 0.113194 0.279219
v 1.541342 0.123712 0.279219
v 1.534318 0.135000 0.279219
v 1.521588 0.155792 0.279219
v 1.509309 0.175667 0.279219
v 1.497349 0.194625 0.279219
v 1.485577 0.212667 0.279219
v 1.473861 0.229792 0.279219
v 1.462068 0.246000 0.279219
v 1.450067 0.261292 0.279219
v 1.437725 0.275667 0.279219
v 1.424912 0.289125 0.279219
v 1.411494 0.301667 0.279219
v 1.397340 0.313292 0.279219
v 1.382318 0.324000 0.279219
v 1.399896 0.331869 0.279219
v 1.416110 0.340954 0.279219
v 1.430928 0.351219 0.279219
v 1.444318 0.362630 0.279219
v 1.456250 0.375152 0.279219
v 1.466693 0.388750 0.279219
v 1.475615 0.403390 0.279219
v 1.482985 0.419037 0.279219
v 1.488771 0.435656 0.279219
v 1.492943 0.453213 0.279219
v 1.495469 0.471673 0.279219
v 1.496318 0.491000 0.279219
v 1.494546 0.519546 0.279219
v 1.489309 0.546120 0.279219
v 1.480724 0.570625 0.279219
v 1.468911 0.592963 0.279219
v 1.453986 0.613037 0.279219
v 1.436068 0.630750 0.279219
v 1.415275 0.646005 0.279219
v 1.391726 0.658704 0.279219
v 1.365537 0.668750 0.279219
v 1.336828 0.676046 0.279219
v 1.305715 0.680495 0.279219
v 1.272318 0.682000 0.279219
v 1.198318 0.598000 0.279219
v 1.261318 0.598000 0.279219
v 1.283892 0.597196 0.279219
v 1.304161 0.594815 0.279219
v 1.322193 0.590906 0.279219
v 1.338059 0.585519 0.279219
v 1.351827 0.578700 0.279219
v 1.363568 0.570500 0.279219
v 1.373350 0.560966 0.279219
v 1.381244 0.550148 0.279219
v 1.387318 0.538094 0.279219
v 1.391642 0.524852 0.279219
v 1.394285 0.510471 0.279219
v 1.395318 0.495000 0.279219
v 1.394897 0.480842 0.279219
v 1.393031 0.466986 0.279219
v 1.389568 0.453609 0.279219
v 1.384355 0.440889 0.279219
v 1.377239 0.429002 0.279219
v 1.368068 0.418125 0.279219
v 1.356688 0.408436 0.279219
v 1.342947 0.400111 0.279219
v 1.326693 0.393328 0.279219
v 1.307771 0.388264 0.279219
v 1.286031 0.385095 0.279219
v 1.261318 0.384000 0.279219
v 1.198318 0.384000 0.279219
v 0.718318 0.686000 0.279219
v 0.649318 0.686000 0.279219
v 0.356318 -0.000000 0.279219
v 0.456318 -0.000000 0.279219
v 0.542318 0.201000 0.279219
v 0.832318 0.201000 0.279219
v 0.923318 -0.000000 0.279219
v 1.023318 -0.000000 0.279219
v 0.682318 0.536000 0.279219
v 0.792318 0.289000 0.279219
v 0.580318 0.289000 0.279219
v 0.339318 0.682000 0.279219
v -0.230682 0.682000 0.279219
v -0.230682 0.594000 0.279219
v 0.005318 0.594000 0.279219
v 0.005318 -0.000000 0.279219
v 0.103318 -0.000000 0.279219
v 0.103318 0.594000 0.279219
v 0.339318 0.594000 0.279219
v -0.306682 0.643000 0.279219
v -0.318763 0.650667 0.279219
v -0.330997 0.657667 0.279219
v -0.343370 0.664000 0.279219
v -0.355867 0.669667 0.279219
v -0.368476 0.674667 0.279219
v -0.381182 0.679000 0.279219
v -0.393971 0.682667 0.279219
v -0.406830 0.685667 0.279219
v -0.419745 0.688000 0.279219
v -0.432701 0.689667 0.279219
v -0.445684 0.690667 0.279219
v -0.458682 0.691000 0.279219
v -0.489014 0.689539 0.279219
v -0.517418 0.685227 0.279219
v -0.543760 0.678172 0.279219
v -0.567904 0.668482 0.279219
v -0.589715 0.656263 0.279219
v -0.609057 0.641625 0.279219
v -0.625795 0.624674 0.279219
v -0.639793 0.605519 0.279219
v -0.650916 0.584266 0.279219
v -0.659029 0.561023 0.279219
v -0.663996 0.535899 0.279219
v -0.665682 0.509000 0.279219
v -0.659878 0.465641 0.279219
v -0.643830 0.428380 0.279219
v -0.619588 0.396187 0.279219
v -0.589200 0.368037 0.279219
v -0.554716 0.342900 0.279219
v -0.518182 0.319750 0.279219
v -0.481648 0.297558 0.279219
v -0.447163 0.275296 0.279219
v -0.416776 0.251937 0.279219
v -0.392534 0.226454 0.279219
v -0.376486 0.197817 0.279219
v -0.370682 0.165000 0.279219
v -0.371415 0.155325 0.279219
v -0.373626 0.145435 0.279219
v -0.377338 0.135531 0.279219
v -0.382571 0.125815 0.279219
v -0.389345 0.116487 0.279219
v -0.397682 0.107750 0.279219
v -0.407602 0.099804 0.279219
v -0.419127 0.092852 0.279219
v -0.432276 0.087094 0.279219
v -0.447071 0.082731 0.279219
v -0.463533 0.079966 0.279219
v -0.481682 0.079000 0.279219
v -0.498343 0.079726 0.279219
v -0.514807 0.081889 0.279219
v -0.531041 0.085469 0.279219
v -0.547015 0.090444 0.279219
v -0.562698 0.096795 0.279219
v -0.578057 0.104500 0.279219
v -0.593062 0.113538 0.279219
v -0.607682 0.123889 0.279219
v -0.621885 0.135531 0.279219
v -0.635640 0.148444 0.279219
v -0.648916 0.162608 0.279219
v -0.661682 0.178000 0.279219
v -0.661682 0.054000 0.279219
v -0.647363 0.043727 0.279219
v -0.632881 0.034403 0.279219
v -0.618198 0.026016 0.279219
v -0.603275 0.018556 0.279219
v -0.588074 0.012012 0.279219
v -0.572557 0.006375 0.279219
v -0.556686 0.001634 0.279219
v -0.540423 -0.002222 0.279219
v -0.523729 -0.005203 0.279219
v -0.506566 -0.007319 0.279219
v -0.488897 -0.008582 0.279219
v -0.470682 -0.009000 0.279219
v -0.443816 -0.007403 0.279219
v -0.418339 -0.002727 0.279219
v -0.394432 0.004859 0.279219
v -0.372275 0.015185 0.279219
v -0.352048 0.028080 0.279219
v -0.333932 0.043375 0.279219
v -0.318108 0.060899 0.279219
v -0.304756 0.080481 0.279219
v -0.294057 0.101953 0.279219
v -0.286191 0.125144 0.279219
v -0.281340 0.149883 0.279219
v -0.279682 0.176000 0.279219
v -0.285486 0.225891 0.279219
v -0.301534 0.267880 0.279219
v -0.325776 0.303187 0.279219
v -0.356164 0.333037 0.279219
v -0.390649 0.358650 0.279219
v -0.427182 0.381250 0.279219
v -0.463716 0.402058 0.279219
v -0.498201 0.422296 0.279219
v -0.528589 0.443187 0.279219
v -0.552830 0.465954 0.279219
v -0.568878 0.491817 0.279219
v -0.574682 0.522000 0.279219
v -0.573760 0.533677 0.279219
v -0.571057 0.544667 0.279219
v -0.566666 0.554906 0.279219
v -0.560682 0.564333 0.279219
v -0.553198 0.572885 0.279219
v -0.544307 0.580500 0.279219
v -0.534104 0.587115 0.279219
v -0.522682 0.592667 0.279219
v -0.510135 0.597094 0.279219
v -0.496557 0.600333 0.279219
v -0.482041 0.602323 0.279219
v -0.466682 0.603000 0.279219
v -0.454978 0.602653 0.279219
v -0.442886 0.601560 0.279219
v -0.430432 0.599641 0.279219
v -0.417645 0.596815 0.279219
v -0.404552 0.593003 0.279219
v -0.391182 0.588125 0.279219
v -0.377562 0.582101 0.279219
v -0.363719 0.574852 0.279219
v -0.349682 0.566297 0.279219
v -0.335478 0.556357 0.279219
v -0.321136 0.544951 0.279219
v -0.306682 0.532000 0.279219
v -0.743682 0.682000 0.279219
v -1.130682 0.682000 0.279219
v -1.130682 -0.000000 0.279219
v -0.734682 -0.000000 0.279219
v -0.734682 0.088000 0.279219
v -1.032682 0.088000 0.279219
v -1.032682 0.300000 0.279219
v -0.753682 0.300000 0.279219
v -0.753682 0.388000 0.279219
v -1.032682 0.388000 0.279219
v -1.032682 0.594000 0.279219
v -0.743682 0.594000 0.279219
v -1.732682 0.682000 0.279219
v -1.732682 -0.000000 0.279219
v -1.634682 -0.000000 0.279219
v -1.634682 0.296000 0.279219
v -1.593682 0.296000 0.279219
v -1.581336 0.295604 0.279219
v -1.569164 0.294167 0.279219
v -1.556963 0.291313 0.279219
v -1.544534 0.286667 0.279219
v -1.531674 0.279854 0.279219
v -1.518182 0.270500 0.279219
v -1.503857 0.258229 0.279219
v -1.488497 0.242667 0.279219
v -1.471901 0.223437 0.279219
v -1.453867 0.200167 0.279219
v -1.434195 0.172479 0.279219
v -1.412682 0.140000 0.279219
v -1.322682 -0.000000 0.279219
v -1.205682 -0.000000 0.279219
v -1.216831 0.015413 0.279219
v -1.226876 0.029306 0.279219
v -1.235963 0.041906 0.279219
v -1.244238 0.053444 0.279219
v -1.251845 0.064149 0.279219
v -1.258932 0.074250 0.279219
v -1.265644 0.083976 0.279219
v -1.272126 0.093556 0.279219
v -1.278526 0.103219 0.279219
v -1.284988 0.113194 0.279219
v -1.291658 0.123712 0.279219
v -1.298682 0.135000 0.279219
v -1.311412 0.155792 0.279219
v -1.323691 0.175667 0.279219
v -1.335651 0.194625 0.279219
v -1.347423 0.212667 0.279219
v -1.359139 0.229792 0.279219
v -1.370932 0.246000 0.279219
v -1.382933 0.261292 0.279219
v -1.395275 0.275667 0.279219
v -1.408088 0.289125 0.279219
v -1.421506 0.301667 0.279219
v -1.435660 0.313292 0.279219
v -1.450682 0.324000 0.279219
v -1.433104 0.331869 0.279219
v -1.416890 0.340954 0.279219
v -1.402073 0.351219 0.279219
v -1.388682 0.362630 0.279219
v -1.376750 0.375152 0.279219
v -1.366307 0.388750 0.279219
v -1.357385 0.403390 0.279219
v -1.350015 0.419037 0.279219
v -1.344229 0.435656 0.279219
v -1.340057 0.453213 0.279219
v -1.337531 0.471673 0.279219
v -1.336682 0.491000 0.279219
v -1.338454 0.519546 0.279219
v -1.343691 0.546120 0.279219
v -1.352276 0.570625 0.279219
v -1.364089 0.592963 0.279219
v -1.379014 0.613037 0.279219
v -1.396932 0.630750 0.279219
v -1.417725 0.646005 0.279219
v -1.441275 0.658704 0.279219
v -1.467463 0.668750 0.279219
v -1.496173 0.676046 0.279219
v -1.527285 0.680495 0.279219
v -1.560682 0.682000 0.279219
v -1.634682 0.598000 0.279219
v -1.571682 0.598000 0.279219
v -1.549108 0.597196 0.279219
v -1.528840 0.594815 0.279219
v -1.510807 0.590906 0.279219
v -1.494941 0.585519 0.279219
v -1.481173 0.578700 0.279219
v -1.469432 0.570500 0.279219
v -1.459650 0.560966 0.279219
v -1.451756 0.550148 0.279219
v -1.445682 0.538094 0.279219
v -1.441358 0.524852 0.279219
v -1.438715 0.510471 0.279219
v -1.437682 0.495000 0.279219
v -1.438103 0.480842 0.279219
v -1.439969 0.466986 0.279219
v -1.443432 0.453609 0.279219
v -1.448645 0.440889 0.279219
v -1.455761 0.429002 0.279219
v -1.464932 0.418125 0.279219
v -1.476312 0.408436 0.279219
v -1.490052 0.400111 0.279219
v -1.506307 0.393328 0.279219
v -1.525229 0.388264 0.279219
v -1.546969 0.385095 0.279219
v -1.571682 0.384000 0.279219
v -1.634682 0.384000 0.279219
vn -0.0000 -0.0000 -1.0000
vn -0.0000 1.0000 -0.0000
vn -0.0000 -1.0000 -0.0000
vn -0.0000 -0.0000 1.0000
vn -0.0000 -0.0001 1.0000
vn 0.1276 0.9918 -0.0000
vn 0.8528 0.5222 -0.0000
vn -0.9996 0.0297 -0.0000
vn -0.1501 0.9887 -0.0000
vn -0.8412 -0.5408 -0.0000
vn -0.3501 -0.9367 -0.0000
vn 0.8025 0.5966 -0.0000
vn 0.5376 -0.8432 -0.0000
vn 0.5061 0.8624 -0.0000
vn -0.4471 -0.8945 -0.0000
vn 0.9990 -0.0439 -0.0000
vn 1.0000 -0.0000 -0.0000
vn 0.4949 0.8689 -0.0000
vn 0.1778 0.9841 -0.0000
vn 0.8490 0.5283 -0.0000
vn 0.7242 0.6895 -0.0000
vn -0.9911 0.1334 -0.0000
vn -0.0356 -0.9994 -0.0000
vn -0.3954 -0.9185 -0.0000
vn -0.6796 -0.7336 -0.0000
vn -0.4681 -0.8837 -0.0000
vn 0.2272 0.9738 -0.0000
vn 0.8445 0.5356 -0.0000
vn -0.1167 -0.9932 -0.0000
vn -0.2587 0.9660 -0.0000
vn -0.5698 -0.8218 -0.0000
vn 0.9908 -0.1356 -0.0000
vn 0.4224 -0.9064 -0.0000
vn 0.5261 0.8504 -0.0000
vn 0.8393 0.5437 -0.0000
vn -0.9681 0.2506 -0.0000
vn -0.2118 -0.9773 -0.0000
vn -0.3415 -0.9399 -0.0000
vn -0.5890 -0.8081 -0.0000
vn 0.2756 0.9613 -0.0000
vn 0.8337 0.5521 -0.0000
vn 0.7587 0.6514 -0.0000
vn -0.9253 0.3792 -0.0000
vn -0.2862 -0.9582 -0.0000
vn -0.6506 -0.7595 -0.0000
vn 0.8840 0.4675 -0.0000
vn 0.5963 0.8028 -0.0000
vn 0.3228 0.9465 -0.0000
vn 0.8282 0.5604 -0.0000
vn -0.3215 -0.9469 -0.0000
vn -0.5353 -0.8447 -0.0000
vn -0.3725 0.9280 -0.0000
vn 0.9729 -0.2312 -0.0000
vn 0.3025 -0.9532 -0.0000
vn 0.8230 0.5680 -0.0000
vn 0.7867 0.6174 -0.0000
vn -0.8580 0.5136 -0.0000
vn -0.4438 -0.8961 -0.0000
vn -0.2307 -0.9730 -0.0000
vn -0.7117 -0.7025 -0.0000
vn 0.7008 0.7134 -0.0000
vn 0.3686 0.9296 -0.0000
vn 0.8186 0.5744 -0.0000
vn -0.5726 -0.8198 -0.0000
vn -0.1758 -0.9844 -0.0000
vn -0.5192 -0.8547 -0.0000
vn 0.9444 -0.3288 -0.0000
vn 0.4130 0.9108 -0.0000
vn 0.8151 0.5793 -0.0000
vn 0.8086 0.5883 -0.0000
vn -0.7645 0.6446 -0.0000
vn -0.4887 0.8724 -0.0000
vn -0.7570 -0.6534 -0.0000
vn 0.9438 0.3306 -0.0000
vn 0.1805 -0.9836 -0.0000
vn 0.8244 0.5660 -0.0000
vn 0.8126 0.5828 -0.0000
vn -0.6979 -0.7162 -0.0000
vn -0.1224 -0.9925 -0.0000
vn -0.5424 -0.8401 -0.0000
vn 0.9047 -0.4261 -0.0000
vn 0.4557 0.8902 -0.0000
vn 0.8111 0.5849 -0.0000
vn 0.8253 0.5647 -0.0000
vn -0.6483 0.7614 -0.0000
vn -0.8078 -0.5894 -0.0000
vn -0.0712 -0.9975 -0.0000
vn -0.6094 -0.7928 -0.0000
vn -0.7904 -0.6125 -0.0000
vn 0.4966 0.8680 -0.0000
vn 0.8104 0.5859 -0.0000
vn -0.5182 0.8553 -0.0000
vn -0.8930 -0.4500 -0.0000
vn -0.0230 -0.9997 -0.0000
vn -0.6035 0.7974 -0.0000
vn 0.0593 -0.9982 -0.0000
vn 0.9341 0.3570 -0.0000
vn 0.8102 0.5861 -0.0000
vn 0.8375 0.5465 -0.0000
vn -1.0000 -0.0000 -0.0000
vn -0.7245 -0.6892 -0.0000
vn -0.8152 -0.5792 -0.0000
vn 0.8539 -0.5204 -0.0000
vn 0.9811 0.1934 -0.0000
vn 0.5358 0.8443 -0.0000
vn -0.3851 0.9229 -0.0000
vn -0.9506 -0.3104 -0.0000
vn -0.8724 -0.4889 -0.0000
vn 0.8458 0.5335 -0.0000
vn -0.2585 0.9660 -0.0000
vn -0.9835 -0.1808 -0.0000
vn -0.2795 -0.9601 -0.0000
vn 0.9933 0.1156 -0.0000
vn 0.8507 0.5256 -0.0000
vn -0.9847 -0.1742 -0.0000
vn -0.3427 -0.9394 -0.0000
vn -0.8337 -0.5522 -0.0000
vn 0.7931 -0.6091 -0.0000
vn 0.9981 0.0620 -0.0000
vn -0.1442 0.9895 -0.0000
vn -0.9978 -0.0666 -0.0000
vn -0.4045 -0.9146 -0.0000
vn -0.0443 0.9990 -0.0000
vn 0.7697 0.6384 -0.0000
vn -0.4639 -0.8859 -0.0000
vn 0.9980 -0.0633 -0.0000
vn -0.5204 -0.8539 -0.0000
vn -0.9971 0.0755 -0.0000
vn -0.5734 -0.8193 -0.0000
vn 0.7296 0.6839 -0.0000
vn -0.6224 -0.7827 -0.0000
vn -0.9759 0.2182 -0.0000
vn 0.7239 -0.6899 -0.0000
vn -0.6673 -0.7448 -0.0000
vn 0.6486 -0.7611 -0.0000
vn 0.9813 -0.1925 -0.0000
vn -0.7116 0.7026 -0.0000
vn 0.5695 -0.8220 -0.0000
vn 0.6844 0.7291 -0.0000
vn -0.9364 0.3509 -0.0000
vn -0.1523 -0.9883 -0.0000
vn 0.4888 -0.8724 -0.0000
vn -0.2158 -0.9764 -0.0000
vn 0.8186 0.5743 -0.0000
vn 0.4086 -0.9127 -0.0000
vn 0.6339 0.7734 -0.0000
vn -0.8074 0.5900 -0.0000
vn 0.0450 0.9990 -0.0000
vn -0.8804 0.4742 -0.0000
vn 0.5805 0.8143 -0.0000
vn 0.1416 0.9899 -0.0000
vn -0.8091 0.5876 -0.0000
vn -0.0296 -0.9996 -0.0000
vn 0.6347 0.7728 -0.0000
vn 0.2463 0.9692 -0.0000
vn -0.0900 -0.9959 -0.0000
vn 0.9470 -0.3212 -0.0000
vn -0.8860 0.4637 -0.0000
vn -0.0320 -0.9995 -0.0000
vn 0.3582 0.9337 -0.0000
vn 0.5778 0.8162 -0.0000
vn 0.4746 0.8802 -0.0000
vn -0.7235 0.6903 -0.0000
vn 0.0440 -0.9990 -0.0000
vn 0.6829 0.7306 -0.0000
vn -0.9196 0.3928 -0.0000
vn 0.5915 0.8063 -0.0000
vn 0.1358 -0.9907 -0.0000
vn 0.5160 0.8566 -0.0000
vn -0.1173 -0.9931 -0.0000
vn 0.7030 0.7112 -0.0000
vn -0.6252 0.7805 -0.0000
vn 0.2321 -0.9727 -0.0000
vn -0.2278 -0.9737 -0.0000
vn 0.3327 -0.9430 -0.0000
vn 0.4484 0.8938 -0.0000
vn 0.9138 0.4063 -0.0000
vn 0.4372 -0.8994 -0.0000
vn 0.8950 -0.4460 -0.0000
vn 0.9243 -0.3817 -0.0000
vn -0.5166 0.8562 -0.0000
vn 0.5440 -0.8391 -0.0000
vn -0.9135 -0.4068 -0.0000
vn -0.9441 0.3296 -0.0000
vn 0.3753 0.9269 -0.0000
vn -0.4011 0.9160 -0.0000
vn 0.6505 -0.7595 -0.0000
vn 0.7525 -0.6586 -0.0000
vn 0.2974 0.9548 -0.0000
vn -0.2828 0.9592 -0.0000
vn 0.8443 -0.5359 -0.0000
vn -0.9810 0.1939 -0.0000
vn 0.9194 -0.3934 -0.0000
vn 0.2153 0.9765 -0.0000
vn -0.9110 -0.4124 -0.0000
vn -0.1656 0.9862 -0.0000
vn 0.9191 -0.3941 -0.0000
vn 0.9711 -0.2388 -0.0000
vn 0.1303 0.9915 -0.0000
vn -0.9980 0.0626 -0.0000
vn 0.8262 -0.5633 -0.0000
vn -0.0532 0.9986 -0.0000
vn 0.9969 -0.0787 -0.0000
vn 0.9820 0.1888 -0.0000
vn 0.0435 0.9991 -0.0000
vn -0.9912 -0.1327 -0.0000
vn 0.7422 -0.6702 -0.0000
vn 0.8497 0.5272 -0.0000
vn -0.5829 -0.8125 -0.0000
vn 0.6846 0.7289 -0.0000
vn -0.0481 0.9988 -0.0000
vn -0.5414 -0.8408 -0.0000
vn -0.9184 -0.3955 -0.0000
vn 0.0256 0.9997 -0.0000
vn 0.6451 -0.7641 -0.0000
vn 0.5665 0.8240 -0.0000
vn 0.0768 0.9970 -0.0000
vn -0.4960 -0.8683 -0.0000
vn -0.7988 -0.6016 -0.0000
vt 0.285714 0.000000
vt 0.142857 0.000000
vt 0.000000 0.000000
vt 1.000000 0.000000
vt 0.428571 0.000000
vt 0.571429 0.000000
vt 0.857143 0.000000
vt 0.714286 0.000000
vt 0.010753 0.000000
vt 0.720430 0.000000
vt 0.709677 0.000000
vt 0.698925 0.000000
vt 0.688172 0.000000
vt 0.677419 0.000000
vt 0.666667 0.000000
vt 0.655914 0.000000
vt 0.645161 0.000000
vt 0.634409 0.000000
vt 0.731183 0.000000
vt 0.623656 0.000000
vt 0.741935 0.000000
vt 0.752688 0.000000
vt 0.763441 0.000000
vt 0.612903 0.000000
vt 0.774194 0.000000
vt 0.784946 0.000000
vt 0.795699 0.000000
vt 0.602151 0.000000
vt 0.806452 0.000000
vt 0.817204 0.000000
vt 0.827957 0.000000
vt 0.591398 0.000000
vt 0.838710 0.000000
vt 0.849462 0.000000
vt 0.580645 0.000000
vt 0.860215 0.000000
vt 0.870968 0.000000
vt 0.569892 0.000000
vt 0.881720 0.000000
vt 0.559140 0.000000
vt 0.892473 0.000000
vt 0.903226 0.000000
vt 0.548387 0.000000
vt 0.913979 0.000000
vt 0.537634 0.000000
vt 0.924731 0.000000
vt 0.526882 0.000000
vt 0.935484 0.000000
vt 0.946237 0.000000
vt 0.516129 0.000000
vt 0.956989 0.000000
vt 0.967742 0.000000
vt 0.505376 0.000000
vt 0.978495 0.000000
vt 0.989247 0.000000
vt 0.032258 0.000000
vt 0.494624 0.000000
vt 0.483871 0.000000
vt 0.473118 0.000000
vt 0.462366 0.000000
vt 0.451613 0.000000
vt 0.440860 0.000000
vt 0.430108 0.000000
vt 0.043011 0.000000
vt 0.053763 0.000000
vt 0.419355 0.000000
vt 0.021505 0.000000
vt 0.064516 0.000000
vt 0.075269 0.000000
vt 0.086022 0.000000
vt 0.408602 0.000000
vt 0.096774 0.000000
vt 0.107527 0.000000
vt 0.397849 0.000000
vt 0.118280 0.000000
vt 0.387097 0.000000
vt 0.129032 0.000000
vt 0.376344 0.000000
vt 0.139785 0.000000
vt 0.365591 0.000000
vt 0.150538 0.000000
vt 0.354839 0.000000
vt 0.161290 0.000000
vt 0.344086 0.000000
vt 0.333333 0.000000
vt 0.172043 0.000000
vt 0.322581 0.000000
vt 0.182796 0.000000
vt 0.311828 0.000000
vt 0.301075 0.000000
vt 0.290323 0.000000
vt 0.279570 0.000000
vt 0.268817 0.000000
vt 0.258065 0.000000
vt 0.247312 0.000000
vt 0.236559 0.000000
vt 0.225806 0.000000
vt 0.215054 0.000000
vt 0.204301 0.000000
vt 0.193548 0.000000
vt 0.200000 0.000000
vt 0.100000 0.000000
vt 0.800000 0.000000
vt 0.700000 0.000000
vt 0.900000 0.000000
vt 0.400000 0.000000
vt 0.500000 0.000000
vt 0.300000 0.000000
vt 0.600000 0.000000
vt 0.107438 0.000000
vt 0.099174 0.000000
vt 0.090909 0.000000
vt 0.082645 0.000000
vt 0.074380 0.000000
vt 0.115702 0.000000
vt 0.066116 0.000000
vt 0.057851 0.000000
vt 0.123967 0.000000
vt 0.049587 0.000000
vt 0.041322 0.000000
vt 0.132231 0.000000
vt 0.033058 0.000000
vt 0.024793 0.000000
vt 0.140496 0.000000
vt 0.016529 0.000000
vt 0.008264 0.000000
vt 0.148760 0.000000
vt 0.933884 0.000000
vt 0.942149 0.000000
vt 0.950413 0.000000
vt 0.958678 0.000000
vt 0.966942 0.000000
vt 0.975207 0.000000
vt 0.983471 0.000000
vt 0.991736 0.000000
vt 0.157025 0.000000
vt 0.917355 0.000000
vt 0.925620 0.000000
vt 0.165289 0.000000
vt 0.900826 0.000000
vt 0.909091 0.000000
vt 0.173554 0.000000
vt 0.892562 0.000000
vt 0.884298 0.000000
vt 0.876033 0.000000
vt 0.867769 0.000000
vt 0.859504 0.000000
vt 0.851240 0.000000
vt 0.181818 0.000000
vt 0.842975 0.000000
vt 0.834711 0.000000
vt 0.826446 0.000000
vt 0.190083 0.000000
vt 0.818182 0.000000
vt 0.809917 0.000000
vt 0.198347 0.000000
vt 0.801653 0.000000
vt 0.793388 0.000000
vt 0.206612 0.000000
vt 0.785124 0.000000
vt 0.776860 0.000000
vt 0.214876 0.000000
vt 0.768595 0.000000
vt 0.223140 0.000000
vt 0.760331 0.000000
vt 0.752066 0.000000
vt 0.231405 0.000000
vt 0.743802 0.000000
vt 0.239669 0.000000
vt 0.735537 0.000000
vt 0.247934 0.000000
vt 0.727273 0.000000
vt 0.256198 0.000000
vt 0.719008 0.000000
vt 0.264463 0.000000
vt 0.272727 0.000000
vt 0.710744 0.000000
vt 0.280992 0.000000
vt 0.289256 0.000000
vt 0.702479 0.000000
vt 0.297521 0.000000
vt 0.504132 0.000000
vt 0.495868 0.000000
vt 0.487603 0.000000
vt 0.694215 0.000000
vt 0.305785 0.000000
vt 0.479339 0.000000
vt 0.314050 0.000000
vt 0.685950 0.000000
vt 0.471074 0.000000
vt 0.322314 0.000000
vt 0.462810 0.000000
vt 0.330579 0.000000
vt 0.338843 0.000000
vt 0.677686 0.000000
vt 0.454545 0.000000
vt 0.347107 0.000000
vt 0.446281 0.000000
vt 0.355372 0.000000
vt 0.438017 0.000000
vt 0.669421 0.000000
vt 0.363636 0.000000
vt 0.429752 0.000000
vt 0.371901 0.000000
vt 0.421488 0.000000
vt 0.380165 0.000000
vt 0.413223 0.000000
vt 0.388430 0.000000
vt 0.404959 0.000000
vt 0.661157 0.000000
vt 0.396694 0.000000
vt 0.652893 0.000000
vt 0.512397 0.000000
vt 0.520661 0.000000
vt 0.644628 0.000000
vt 0.528926 0.000000
vt 0.636364 0.000000
vt 0.537190 0.000000
vt 0.545455 0.000000
vt 0.628099 0.000000
vt 0.553719 0.000000
vt 0.561983 0.000000
vt 0.619835 0.000000
vt 0.570248 0.000000
vt 0.578512 0.000000
vt 0.611570 0.000000
vt 0.586777 0.000000
vt 0.595041 0.000000
vt 0.603306 0.000000
s 0
usemtl マテリアル
f 3/1/1 2/2/1 1/3/1
f 3/1/1 1/3/1 8/4/1
f 4/5/2 3/1/2 8/4/2
f 5/6/1 4/5/1 7/7/1
f 7/7/2 4/5/2 8/4/2
f 5/6/1 7/7/1 6/8/1
f 10/9/1 9/3/1 76/10/1
f 76/10/1 9/3/1 75/11/1
f 76/10/1 75/11/1 74/12/1
f 76/10/1 74/12/1 73/13/1
f 76/10/1 73/13/1 72/14/1
f 76/10/1 72/14/1 71/15/1
f 76/10/1 71/15/1 70/16/1
f 76/10/1 70/16/1 69/17/1
f 76/10/1 69/17/1 68/18/1
f 76/10/1 68/18/1 77/19/1
f 77/19/1 68/18/1 67/20/1
f 10/9/1 76/10/1 102/4/1
f 78/21/1 77/19/1 67/20/1
f 79/22/1 78/21/1 67/20/1
f 80/23/1 79/22/1 67/20/1
f 80/23/1 67/20/1 66/24/1
f 81/25/1 80/23/1 66/24/1
f 82/26/1 81/25/1 66/24/1
f 83/27/1 82/26/1 66/24/1
f 83/27/1 66/24/1 65/28/1
f 84/29/1 83/27/1 65/28/1
f 85/30/1 84/29/1 65/28/1
f 86/31/1 85/30/1 65/28/1
f 86/31/1 65/28/1 64/32/1
f 87/33/1 86/31/1 64/32/1
f 88/34/1 87/33/1 64/32/1
f 88/34/1 64/32/1 63/35/1
f 89/36/1 88/34/1 63/35/1
f 90/37/1 89/36/1 63/35/1
f 90/37/1 63/35/1 62/38/1
f 91/39/1 90/37/1 62/38/1
f 91/39/1 62/38/1 61/40/1
f 92/41/1 91/39/1 61/40/1
f 93/42/1 92/41/1 61/40/1
f 93/42/1 61/40/1 60/43/1
f 94/44/1 93/42/1 60/43/1
f 94/44/1 60/43/1 59/45/1
f 95/46/1 94/44/1 59/45/1
f 95/46/1 59/45/1 58/47/1
f 96/48/1 95/46/1 58/47/1
f 97/49/1 96/48/1 58/47/1
f 97/49/1 58/47/1 57/50/1
f 98/51/1 97/49/1 57/50/1
f 99/52/1 98/51/1 57/50/1
f 99/52/1 57/50/1 56/53/1
f 100/54/1 99/52/1 56/53/1
f 101/55/1 100/54/1 56/53/1
f 10/9/1 102/4/1 12/56/1
f 12/56/1 102/4/1 101/55/1
f 12/56/1 101/55/1 56/53/1
f 12/56/1 56/53/1 55/57/1
f 12/56/1 55/57/1 54/58/1
f 12/56/1 54/58/1 53/59/1
f 12/56/1 53/59/1 52/60/1
f 12/56/1 52/60/1 51/61/1
f 12/56/1 51/61/1 50/62/1
f 12/56/1 50/62/1 49/63/1
f 12/56/1 49/63/1 13/64/1
f 13/64/1 49/63/1 14/65/1
f 14/65/1 49/63/1 48/66/1
f 10/9/1 12/56/1 11/67/1
f 15/68/1 14/65/1 48/66/1
f 16/69/1 15/68/1 48/66/1
f 17/70/1 16/69/1 48/66/1
f 17/70/1 48/66/1 47/71/1
f 18/72/1 17/70/1 47/71/1
f 19/73/1 18/72/1 47/71/1
f 19/73/1 47/71/1 46/74/1
f 20/75/1 19/73/1 46/74/1
f 20/75/1 46/74/1 45/76/1
f 21/77/1 20/75/1 45/76/1
f 21/77/1 45/76/1 44/78/1
f 22/79/1 21/77/1 44/78/1
f 22/79/1 44/78/1 43/80/1
f 23/81/1 22/79/1 43/80/1
f 23/81/1 43/80/1 42/82/1
f 24/83/1 23/81/1 42/82/1
f 24/83/1 42/82/1 41/84/1
f 24/83/1 41/84/1 40/85/1
f 25/86/1 24/83/1 40/85/1
f 25/86/1 40/85/1 39/87/1
f 26/88/1 25/86/1 39/87/1
f 26/88/1 39/87/1 38/89/1
f 26/88/1 38/89/1 37/90/1
f 26/88/1 37/90/1 36/91/1
f 26/88/1 36/91/1 35/92/1
f 26/88/1 35/92/1 34/93/1
f 26/88/1 34/93/1 33/94/1
f 26/88/1 33/94/1 32/95/1
f 26/88/1 32/95/1 31/96/1
f 26/88/1 31/96/1 30/97/1
f 26/88/1 30/97/1 29/98/1
f 26/88/1 29/98/1 28/99/1
f 26/88/1 28/99/1 27/100/1
f 105/101/1 104/102/1 103/3/1
f 105/101/1 103/3/1 111/103/1
f 111/103/1 103/3/1 110/104/1
f 105/101/1 111/103/1 113/4/1
f 112/105/1 111/103/1 110/104/1
f 105/101/1 113/4/1 107/106/1
f 107/106/1 113/4/1 112/105/1
f 107/106/1 112/105/1 108/107/1
f 108/107/1 112/105/1 110/104/1
f 105/101/1 107/106/1 106/108/1
f 109/109/1 108/107/1 110/104/1
f 116/1/1 115/2/1 114/3/1
f 116/1/1 114/3/1 121/4/1
f 117/5/2 116/1/2 121/4/2
f 118/6/1 117/5/1 120/7/1
f 120/7/3 117/5/3 121/4/3
f 118/6/1 120/7/1 119/8/1
f 135/110/1 134/111/1 133/112/1
f 135/110/1 133/112/1 132/113/1
f 135/110/1 132/113/1 131/114/1
f 136/115/1 135/110/1 131/114/1
f 136/115/1 131/114/1 130/116/1
f 136/115/1 130/116/1 129/117/1
f 137/118/1 136/115/1 129/117/1
f 137/118/1 129/117/1 128/119/1
f 137/118/1 128/119/1 127/120/1
f 138/121/1 137/118/1 127/120/1
f 138/121/1 127/120/1 126/122/1
f 138/121/1 126/122/1 125/123/1
f 139/124/1 138/121/1 125/123/1
f 139/124/1 125/123/1 124/125/1
f 139/124/1 124/125/1 123/126/1
f 140/127/1 139/124/1 123/126/1
f 140/127/1 123/126/1 122/3/1
f 140/127/1 122/3/1 235/128/1
f 235/128/1 122/3/1 236/129/1
f 236/129/1 122/3/1 237/130/1
f 237/130/1 122/3/1 238/131/1
f 238/131/1 122/3/1 239/132/1
f 239/132/1 122/3/1 240/133/1
f 240/133/1 122/3/1 241/134/1
f 241/134/1 122/3/1 242/135/1
f 242/135/1 122/3/1 243/4/1
f 141/136/1 140/127/1 233/137/1
f 233/137/1 140/127/1 234/138/1
f 234/138/1 140/127/1 235/128/1
f 142/139/1 141/136/1 231/140/1
f 231/140/1 141/136/1 232/141/1
f 232/141/1 141/136/1 233/137/1
f 143/142/1 142/139/1 230/143/1
f 230/143/1 142/139/1 231/140/1
f 143/142/1 230/143/1 229/144/1
f 143/142/1 229/144/1 228/145/1
f 143/142/1 228/145/1 227/146/1
f 143/142/1 227/146/1 226/147/1
f 143/142/1 226/147/1 225/148/1
f 144/149/1 143/142/1 225/148/1
f 144/149/1 225/148/1 224/150/1
f 144/149/1 224/150/1 223/151/1
f 144/149/1 223/151/1 222/152/1
f 145/153/1 144/149/1 222/152/1
f 145/153/1 222/152/1 221/154/1
f 145/153/1 221/154/1 220/155/1
f 146/156/1 145/153/1 220/155/1
f 146/156/1 220/155/1 219/157/1
f 146/156/1 219/157/1 218/158/1
f 147/159/1 146/156/1 218/158/1
f 147/159/1 218/158/1 217/160/1
f 147/159/1 217/160/1 216/161/1
f 148/162/1 147/159/1 216/161/1
f 148/162/1 216/161/1 215/163/1
f 149/164/1 148/162/1 215/163/1
f 149/164/1 215/163/1 214/165/1
f 149/164/1 214/165/1 213/166/1
f 150/167/1 149/164/1 213/166/1
f 150/167/1 213/166/1 212/168/1
f 151/169/1 150/167/1 212/168/1
f 151/169/1 212/168/1 211/170/1
f 152/171/1 151/169/1 211/170/1
f 152/171/1 211/170/1 210/172/1
f 153/173/1 152/171/1 210/172/1
f 153/173/1 210/172/1 209/174/1
f 154/175/1 153/173/1 209/174/1
f 155/176/1 154/175/1 209/174/1
f 155/176/1 209/174/1 208/177/1
f 156/178/1 155/176/1 208/177/1
f 157/179/1 156/178/1 208/177/1
f 157/179/1 208/177/1 207/180/1
f 158/181/1 157/179/1 207/180/1
f 183/182/1 182/183/1 181/184/1
f 158/181/1 207/180/1 206/185/1
f 159/186/1 158/181/1 206/185/1
f 183/182/1 181/184/1 180/187/1
f 160/188/1 159/186/1 206/185/1
f 160/188/1 206/185/1 205/189/1
f 183/182/1 180/187/1 179/190/1
f 161/191/1 160/188/1 205/189/1
f 183/182/1 179/190/1 178/192/1
f 162/193/1 161/191/1 205/189/1
f 163/194/1 162/193/1 205/189/1
f 163/194/1 205/189/1 204/195/1
f 183/182/1 178/192/1 177/196/1
f 164/197/1 163/194/1 204/195/1
f 183/182/1 177/196/1 176/198/1
f 165/199/1 164/197/1 204/195/1
f 183/182/1 176/198/1 175/200/1
f 165/199/1 204/195/1 203/201/1
f 166/202/1 165/199/1 203/201/1
f 183/182/1 175/200/1 174/203/1
f 167/204/1 166/202/1 203/201/1
f 183/182/1 174/203/1 173/205/1
f 168/206/1 167/204/1 203/201/1
f 183/182/1 173/205/1 172/207/1
f 169/208/1 168/206/1 203/201/1
f 183/182/1 172/207/1 171/209/1
f 169/208/1 203/201/1 202/210/1
f 170/211/1 169/208/1 202/210/1
f 183/182/1 171/209/1 170/211/1
f 183/182/1 170/211/1 202/210/1
f 183/182/1 202/210/1 201/212/1
f 184/213/1 183/182/1 201/212/1
f 185/214/1 184/213/1 201/212/1
f 185/214/1 201/212/1 200/215/1
f 186/216/1 185/214/1 200/215/1
f 186/216/1 200/215/1 199/217/1
f 187/218/1 186/216/1 199/217/1
f 188/219/1 187/218/1 199/217/1
f 188/219/1 199/217/1 198/220/1
f 189/221/1 188/219/1 198/220/1
f 190/222/1 189/221/1 198/220/1
f 190/222/1 198/220/1 197/223/1
f 191/224/1 190/222/1 197/223/1
f 192/225/1 191/224/1 197/223/1
f 192/225/1 197/223/1 196/226/1
f 193/227/1 192/225/1 196/226/1
f 194/228/1 193/227/1 196/226/1
f 194/228/1 196/226/1 195/229/1
f 246/149/1 245/112/1 254/141/1
f 254/141/1 245/112/1 244/3/1
f 254/141/1 244/3/1 255/4/1
f 246/149/1 254/141/1 253/154/1
f 246/149/1 253/154/1 250/219/1
f 250/219/1 253/154/1 252/172/1
f 250/219/1 252/172/1 251/217/1
f 246/149/1 250/219/1 249/196/1
f 246/149/1 249/196/1 248/202/1
f 246/149/1 248/202/1 247/176/1
f 257/9/1 256/3/1 323/10/1
f 323/10/1 256/3/1 322/11/1
f 323/10/1 322/11/1 321/12/1
f 323/10/1 321/12/1 320/13/1
f 323/10/1 320/13/1 319/14/1
f 323/10/1 319/14/1 318/15/1
f 323/10/1 318/15/1 317/16/1
f 323/10/1 317/16/1 316/17/1
f 323/10/1 316/17/1 315/18/1
f 323/10/1 315/18/1 324/19/1
f 324/19/1 315/18/1 314/20/1
f 257/9/1 323/10/1 349/4/1
f 325/21/1 324/19/1 314/20/1
f 326/22/1 325/21/1 314/20/1
f 327/23/1 326/22/1 314/20/1
f 327/23/1 314/20/1 313/24/1
f 328/25/1 327/23/1 313/24/1
f 329/26/1 328/25/1 313/24/1
f 330/27/1 329/26/1 313/24/1
f 330/27/1 313/24/1 312/28/1
f 331/29/1 330/27/1 312/28/1
f 332/30/1 331/29/1 312/28/1
f 333/31/1 332/30/1 312/28/1
f 333/31/1 312/28/1 311/32/1
f 334/33/1 333/31/1 311/32/1
f 335/34/1 334/33/1 311/32/1
f 335/34/1 311/32/1 310/35/1
f 336/36/1 335/34/1 310/35/1
f 337/37/1 336/36/1 310/35/1
f 337/37/1 310/35/1 309/38/1
f 338/39/1 337/37/1 309/38/1
f 338/39/1 309/38/1 308/40/1
f 339/41/1 338/39/1 308/40/1
f 340/42/1 339/41/1 308/40/1
f 340/42/1 308/40/1 307/43/1
f 341/44/1 340/42/1 307/43/1
f 341/44/1 307/43/1 306/45/1
f 342/46/1 341/44/1 306/45/1
f 342/46/1 306/45/1 305/47/1
f 343/48/1 342/46/1 305/47/1
f 344/49/1 343/48/1 305/47/1
f 344/49/1 305/47/1 304/50/1
f 345/51/1 344/49/1 304/50/1
f 346/52/1 345/51/1 304/50/1
f 346/52/1 304/50/1 303/53/1
f 347/54/1 346/52/1 303/53/1
f 348/55/1 347/54/1 303/53/1
f 257/9/1 349/4/1 259/56/1
f 259/56/1 349/4/1 348/55/1
f 259/56/1 348/55/1 303/53/1
f 259/56/1 303/53/1 302/57/1
f 259/56/1 302/57/1 301/58/1
f 259/56/1 301/58/1 300/59/1
f 259/56/1 300/59/1 299/60/1
f 259/56/1 299/60/1 298/61/1
f 259/56/1 298/61/1 297/62/1
f 259/56/1 297/62/1 296/63/1
f 259/56/1 296/63/1 260/64/1
f 260/64/1 296/63/1 261/65/1
f 261/65/1 296/63/1 295/66/1
f 257/9/1 259/56/1 258/67/1
f 262/68/1 261/65/1 295/66/1
f 263/69/1 262/68/1 295/66/1
f 264/70/1 263/69/1 295/66/1
f 264/70/1 295/66/1 294/71/1
f 265/72/1 264/70/1 294/71/1
f 266/73/1 265/72/1 294/71/1
f 266/73/1 294/71/1 293/74/1
f 267/75/1 266/73/1 293/74/1
f 267/75/1 293/74/1 292/76/1
f 268/77/1 267/75/1 292/76/1
f 268/77/1 292/76/1 291/78/1
f 269/79/1 268/77/1 291/78/1
f 269/79/1 291/78/1 290/80/1
f 270/81/1 269/79/1 290/80/1
f 270/81/1 290/80/1 289/82/1
f 271/83/1 270/81/1 289/82/1
f 271/83/1 289/82/1 288/84/1
f 271/83/1 288/84/1 287/85/1
f 272/86/1 271/83/1 287/85/1
f 272/86/1 287/85/1 286/87/1
f 273/88/1 272/86/1 286/87/1
f 273/88/1 286/87/1 285/89/1
f 273/88/1 285/89/1 284/90/1
f 273/88/1 284/90/1 283/91/1
f 273/88/1 283/91/1 282/92/1
f 273/88/1 282/92/1 281/93/1
f 273/88/1 281/93/1 280/94/1
f 273/88/1 280/94/1 279/95/1
f 273/88/1 279/95/1 278/96/1
f 273/88/1 278/96/1 277/97/1
f 273/88/1 277/97/1 276/98/1
f 273/88/1 276/98/1 275/99/1
f 273/88/1 275/99/1 274/100/1
f 352/1/4 350/3/4 351/2/4
f 352/1/4 357/4/4 350/3/4
f 353/5/2 357/4/2 352/1/2
f 354/6/4 356/7/4 353/5/4
f 356/7/2 357/4/2 353/5/2
f 354/6/4 355/8/4 356/7/4
f 359/9/4 425/10/4 358/3/4
f 425/10/4 424/11/4 358/3/4
f 425/10/4 423/12/4 424/11/4
f 425/10/4 422/13/4 423/12/4
f 425/10/4 421/14/4 422/13/4
f 425/10/4 420/15/4 421/14/4
f 425/10/4 419/16/4 420/15/4
f 425/10/4 418/17/4 419/16/4
f 425/10/4 417/18/4 418/17/4
f 425/10/4 426/19/4 417/18/4
f 426/19/4 416/20/4 417/18/4
f 359/9/4 451/4/4 425/10/4
f 427/21/4 416/20/4 426/19/4
f 428/22/4 416/20/4 427/21/4
f 429/23/4 416/20/4 428/22/4
f 429/23/4 415/24/4 416/20/4
f 430/25/4 415/24/4 429/23/4
f 431/26/4 415/24/4 430/25/4
f 432/27/4 415/24/4 431/26/4
f 432/27/4 414/28/4 415/24/4
f 433/29/4 414/28/4 432/27/4
f 434/30/4 414/28/4 433/29/4
f 435/31/4 414/28/4 434/30/4
f 435/31/4 413/32/4 414/28/4
f 436/33/4 413/32/4 435/31/4
f 437/34/4 413/32/4 436/33/4
f 437/34/4 412/35/4 413/32/4
f 438/36/4 412/35/4 437/34/4
f 439/37/4 412/35/4 438/36/4
f 439/37/4 411/38/4 412/35/4
f 440/39/4 411/38/4 439/37/4
f 440/39/4 410/40/4 411/38/4
f 441/41/4 410/40/4 440/39/4
f 442/42/4 410/40/4 441/41/4
f 442/42/4 409/43/4 410/40/4
f 443/44/4 409/43/4 442/42/4
f 443/44/4 408/45/4 409/43/4
f 444/46/4 408/45/4 443/44/4
f 444/46/4 407/47/4 408/45/4
f 445/48/4 407/47/4 444/46/4
f 446/49/4 407/47/4 445/48/4
f 446/49/4 406/50/4 407/47/4
f 447/51/4 406/50/4 446/49/4
f 448/52/4 406/50/4 447/51/4
f 448/52/4 405/53/4 406/50/4
f 449/54/4 405/53/4 448/52/4
f 450/55/4 405/53/4 449/54/4
f 359/9/4 361/56/4 451/4/4
f 361/56/4 450/55/4 451/4/4
f 361/56/4 405/53/4 450/55/4
f 361/56/4 404/57/4 405/53/4
f 361/56/4 403/58/4 404/57/4
f 361/56/4 402/59/4 403/58/4
f 361/56/4 401/60/4 402/59/4
f 361/56/4 400/61/4 401/60/4
f 361/56/4 399/62/4 400/61/4
f 361/56/4 398/63/4 399/62/4
f 361/56/4 362/64/4 398/63/4
f 362/64/4 363/65/4 398/63/4
f 363/65/4 397/66/4 398/63/4
f 359/9/4 360/67/4 361/56/4
f 364/68/4 397/66/4 363/65/4
f 365/69/4 397/66/4 364/68/4
f 366/70/4 397/66/4 365/69/4
f 366/70/4 396/71/4 397/66/4
f 367/72/4 396/71/4 366/70/4
f 368/73/4 396/71/4 367/72/4
f 368/73/4 395/74/4 396/71/4
f 369/75/4 395/74/4 368/73/4
f 369/75/4 394/76/4 395/74/4
f 370/77/4 394/76/4 369/75/4
f 370/77/4 393/78/4 394/76/4
f 371/79/4 393/78/4 370/77/4
f 371/79/4 392/80/4 393/78/4
f 372/81/4 392/80/4 371/79/4
f 372/81/4 391/82/4 392/80/4
f 373/83/4 391/82/4 372/81/4
f 373/83/4 390/84/4 391/82/4
f 373/83/4 389/85/4 390/84/4
f 374/86/4 389/85/4 373/83/4
f 374/86/4 388/87/4 389/85/4
f 375/88/4 388/87/4 374/86/4
f 375/88/4 387/89/4 388/87/4
f 375/88/4 386/90/4 387/89/4
f 375/88/4 385/91/4 386/90/4
f 375/88/4 384/92/4 385/91/4
f 375/88/4 383/93/4 384/92/4
f 375/88/4 382/94/4 383/93/4
f 375/88/4 381/95/4 382/94/4
f 375/88/4 380/96/4 381/95/4
f 375/88/4 379/97/4 380/96/4
f 375/88/4 378/98/4 379/97/4
f 375/88/4 377/99/4 378/98/4
f 375/88/4 376/100/4 377/99/4
f 454/101/4 452/3/4 453/102/4
f 454/101/4 460/103/4 452/3/4
f 460/103/4 459/104/4 452/3/4
f 454/101/4 462/4/4 460/103/4
f 461/105/4 459/104/4 460/103/4
f 454/101/4 456/106/4 462/4/4
f 456/106/4 461/105/4 462/4/4
f 456/106/4 457/107/4 461/105/4
f 457/107/4 459/104/4 461/105/4
f 454/101/4 455/108/4 456/106/4
f 458/109/4 459/104/4 457/107/4
f 465/1/4 463/3/4 464/2/4
f 465/1/4 470/4/4 463/3/4
f 466/5/3 470/4/3 465/1/3
f 467/6/4 469/7/4 466/5/4
f 469/7/2 470/4/2 466/5/2
f 467/6/4 468/8/4 469/7/4
f 484/110/4 482/112/4 483/111/4
f 484/110/4 481/113/4 482/112/4
f 484/110/4 480/114/4 481/113/4
f 485/115/4 480/114/4 484/110/4
f 485/115/4 479/116/4 480/114/4
f 485/115/4 478/117/4 479/116/4
f 486/118/4 478/117/4 485/115/4
f 486/118/4 477/119/4 478/117/4
f 486/118/4 476/120/4 477/119/4
f 487/121/4 476/120/4 486/118/4
f 487/121/4 475/122/4 476/120/4
f 487/121/4 474/123/4 475/122/4
f 488/124/4 474/123/4 487/121/4
f 488/124/4 473/125/4 474/123/4
f 488/124/4 472/126/4 473/125/4
f 489/127/4 472/126/4 488/124/4
f 489/127/4 471/3/4 472/126/4
f 489/127/4 584/128/4 471/3/4
f 584/128/4 585/129/4 471/3/4
f 585/129/4 586/130/4 471/3/4
f 586/130/4 587/131/4 471/3/4
f 587/131/4 588/132/4 471/3/4
f 588/132/4 589/133/4 471/3/4
f 589/133/4 590/134/4 471/3/4
f 590/134/4 591/135/4 471/3/4
f 591/135/4 592/4/4 471/3/4
f 490/136/4 582/137/4 489/127/4
f 582/137/4 583/138/4 489/127/4
f 583/138/4 584/128/4 489/127/4
f 491/139/4 580/140/4 490/136/4
f 580/140/4 581/141/4 490/136/4
f 581/141/4 582/137/4 490/136/4
f 492/142/4 579/143/4 491/139/4
f 579/143/4 580/140/4 491/139/4
f 492/142/5 578/144/5 579/143/5
f 492/142/4 577/145/4 578/144/4
f 492/142/4 576/146/4 577/145/4
f 492/142/4 575/147/4 576/146/4
f 492/142/4 574/148/4 575/147/4
f 493/149/4 574/148/4 492/142/4
f 493/149/4 573/150/4 574/148/4
f 493/149/4 572/151/4 573/150/4
f 493/149/4 571/152/4 572/151/4
f 494/153/4 571/152/4 493/149/4
f 494/153/4 570/154/4 571/152/4
f 494/153/4 569/155/4 570/154/4
f 495/156/4 569/155/4 494/153/4
f 495/156/4 568/157/4 569/155/4
f 495/156/4 567/158/4 568/157/4
f 496/159/4 567/158/4 495/156/4
f 496/159/4 566/160/4 567/158/4
f 496/159/4 565/161/4 566/160/4
f 497/162/4 565/161/4 496/159/4
f 497/162/4 564/163/4 565/161/4
f 498/164/4 564/163/4 497/162/4
f 498/164/4 563/165/4 564/163/4
f 498/164/4 562/166/4 563/165/4
f 499/167/4 562/166/4 498/164/4
f 499/167/4 561/168/4 562/166/4
f 500/169/4 561/168/4 499/167/4
f 500/169/4 560/170/4 561/168/4
f 501/171/4 560/170/4 500/169/4
f 501/171/4 559/172/4 560/170/4
f 502/173/4 559/172/4 501/171/4
f 502/173/4 558/174/4 559/172/4
f 503/175/4 558/174/4 502/173/4
f 504/176/4 558/174/4 503/175/4
f 504/176/4 557/177/4 558/174/4
f 505/178/4 557/177/4 504/176/4
f 506/179/4 557/177/4 505/178/4
f 506/179/4 556/180/4 557/177/4
f 507/181/4 556/180/4 506/179/4
f 532/182/4 530/184/4 531/183/4
f 507/181/4 555/185/4 556/180/4
f 508/186/4 555/185/4 507/181/4
f 532/182/4 529/187/4 530/184/4
f 509/188/4 555/185/4 508/186/4
f 509/188/4 554/189/4 555/185/4
f 532/182/4 528/190/4 529/187/4
f 510/191/4 554/189/4 509/188/4
f 532/182/4 527/192/4 528/190/4
f 511/193/4 554/189/4 510/191/4
f 512/194/4 554/189/4 511/193/4
f 512/194/4 553/195/4 554/189/4
f 532/182/4 526/196/4 527/192/4
f 513/197/4 553/195/4 512/194/4
f 532/182/4 525/198/4 526/196/4
f 514/199/4 553/195/4 513/197/4
f 532/182/4 524/200/4 525/198/4
f 514/199/4 552/201/4 553/195/4
f 515/202/4 552/201/4 514/199/4
f 532/182/4 523/203/4 524/200/4
f 516/204/4 552/201/4 515/202/4
f 532/182/4 522/205/4 523/203/4
f 517/206/4 552/201/4 516/204/4
f 532/182/4 521/207/4 522/205/4
f 518/208/4 552/201/4 517/206/4
f 532/182/4 520/209/4 521/207/4
f 518/208/4 551/210/4 552/201/4
f 519/211/4 551/210/4 518/208/4
f 532/182/4 519/211/4 520/209/4
f 532/182/4 551/210/4 519/211/4
f 532/182/4 550/212/4 551/210/4
f 533/213/4 550/212/4 532/182/4
f 534/214/4 550/212/4 533/213/4
f 534/214/4 549/215/4 550/212/4
f 535/216/4 549/215/4 534/214/4
f 535/216/4 548/217/4 549/215/4
f 536/218/4 548/217/4 535/216/4
f 537/219/4 548/217/4 536/218/4
f 537/219/4 547/220/4 548/217/4
f 538/221/4 547/220/4 537/219/4
f 539/222/4 547/220/4 538/221/4
f 539/222/4 546/223/4 547/220/4
f 540/224/4 546/223/4 539/222/4
f 541/225/4 546/223/4 540/224/4
f 541/225/4 545/226/4 546/223/4
f 542/227/4 545/226/4 541/225/4
f 543/228/4 545/226/4 542/227/4
f 543/228/4 544/229/4 545/226/4
f 595/149/4 603/141/4 594/112/4
f 603/141/4 593/3/4 594/112/4
f 603/141/4 604/4/4 593/3/4
f 595/149/4 602/154/4 603/141/4
f 595/149/4 599/219/4 602/154/4
f 599/219/4 601/172/4 602/154/4
f 599/219/4 600/217/4 601/172/4
f 595/149/4 598/196/4 599/219/4
f 595/149/4 597/202/4 598/196/4
f 595/149/4 596/176/4 597/202/4
f 606/9/4 672/10/4 605/3/4
f 672/10/4 671/11/4 605/3/4
f 672/10/4 670/12/4 671/11/4
f 672/10/4 669/13/4 670/12/4
f 672/10/4 668/14/4 669/13/4
f 672/10/4 667/15/4 668/14/4
f 672/10/4 666/16/4 667/15/4
f 672/10/4 665/17/4 666/16/4
f 672/10/4 664/18/4 665/17/4
f 672/10/4 673/19/4 664/18/4
f 673/19/4 663/20/4 664/18/4
f 606/9/4 698/4/4 672/10/4
f 674/21/4 663/20/4 673/19/4
f 675/22/4 663/20/4 674/21/4
f 676/23/4 663/20/4 675/22/4
f 676/23/4 662/24/4 663/20/4
f 677/25/4 662/24/4 676/23/4
f 678/26/4 662/24/4 677/25/4
f 679/27/4 662/24/4 678/26/4
f 679/27/4 661/28/4 662/24/4
f 680/29/4 661/28/4 679/27/4
f 681/30/4 661/28/4 680/29/4
f 682/31/4 661/28/4 681/30/4
f 682/31/4 660/32/4 661/28/4
f 683/33/4 660/32/4 682/31/4
f 684/34/4 660/32/4 683/33/4
f 684/34/4 659/35/4 660/32/4
f 685/36/4 659/35/4 684/34/4
f 686/37/4 659/35/4 685/36/4
f 686/37/4 658/38/4 659/35/4
f 687/39/4 658/38/4 686/37/4
f 687/39/4 657/40/4 658/38/4
f 688/41/4 657/40/4 687/39/4
f 689/42/4 657/40/4 688/41/4
f 689/42/4 656/43/4 657/40/4
f 690/44/4 656/43/4 689/42/4
f 690/44/4 655/45/4 656/43/4
f 691/46/4 655/45/4 690/44/4
f 691/46/4 654/47/4 655/45/4
f 692/48/4 654/47/4 691/46/4
f 693/49/4 654/47/4 692/48/4
f 693/49/4 653/50/4 654/47/4
f 694/51/4 653/50/4 693/49/4
f 695/52/4 653/50/4 694/51/4
f 695/52/4 652/53/4 653/50/4
f 696/54/4 652/53/4 695/52/4
f 697/55/4 652/53/4 696/54/4
f 606/9/4 608/56/4 698/4/4
f 608/56/4 697/55/4 698/4/4
f 608/56/4 652/53/4 697/55/4
f 608/56/4 651/57/4 652/53/4
f 608/56/4 650/58/4 651/57/4
f 608/56/4 649/59/4 650/58/4
f 608/56/4 648/60/4 649/59/4
f 608/56/4 647/61/4 648/60/4
f 608/56/4 646/62/4 647/61/4
f 608/56/4 645/63/4 646/62/4
f 608/56/4 609/64/4 645/63/4
f 609/64/4 610/65/4 645/63/4
f 610/65/4 644/66/4 645/63/4
f 606/9/4 607/67/4 608/56/4
f 611/68/4 644/66/4 610/65/4
f 612/69/4 644/66/4 611/68/4
f 613/70/4 644/66/4 612/69/4
f 613/70/4 643/71/4 644/66/4
f 614/72/4 643/71/4 613/70/4
f 615/73/4 643/71/4 614/72/4
f 615/73/4 642/74/4 643/71/4
f 616/75/4 642/74/4 615/73/4
f 616/75/4 641/76/4 642/74/4
f 617/77/4 641/76/4 616/75/4
f 617/77/4 640/78/4 641/76/4
f 618/79/4 640/78/4 617/77/4
f 618/79/4 639/80/4 640/78/4
f 619/81/4 639/80/4 618/79/4
f 619/81/4 638/82/4 639/80/4
f 620/83/4 638/82/4 619/81/4
f 620/83/4 637/84/4 638/82/4
f 620/83/4 636/85/4 637/84/4
f 621/86/4 636/85/4 620/83/4
f 621/86/4 635/87/4 636/85/4
f 622/88/4 635/87/4 621/86/4
f 622/88/4 634/89/4 635/87/4
f 622/88/4 633/90/4 634/89/4
f 622/88/4 632/91/4 633/90/4
f 622/88/4 631/92/4 632/91/4
f 622/88/4 630/93/4 631/92/4
f 622/88/4 629/94/4 630/93/4
f 622/88/4 628/95/4 629/94/4
f 622/88/4 627/96/4 628/95/4
f 622/88/4 626/97/4 627/96/4
f 622/88/4 625/98/4 626/97/4
f 622/88/4 624/99/4 625/98/4
f 622/88/4 623/100/4 624/99/4
f 131/114/6 132/113/6 481/113/6 480/114/6
f 286/87/7 287/85/7 636/85/7 635/87/7
f 336/36/8 337/37/8 686/37/8 685/36/8
f 135/110/9 136/115/9 485/115/9 484/110/9
f 272/86/10 273/88/10 622/88/10 621/86/10
f 16/69/11 17/70/11 366/70/11 365/69/11
f 67/20/12 68/18/12 417/18/12 416/20/12
f 199/217/13 200/215/13 549/215/13 548/217/13
f 214/165/14 215/163/14 564/163/14 563/165/14
f 186/216/15 187/218/15 536/218/15 535/216/15
f 309/38/16 310/35/16 659/35/16 658/38/16
f 102/4/17 76/10/17 425/10/17 451/4/17
f 213/166/18 214/165/18 563/165/18 562/166/18
f 130/116/19 131/114/19 480/114/19 479/116/19
f 285/89/20 286/87/20 635/87/20 634/89/20
f 47/71/21 48/66/21 397/66/21 396/71/21
f 337/37/22 338/39/22 687/39/22 686/37/22
f 77/19/23 78/21/23 427/21/23 426/19/23
f 187/218/24 188/219/24 537/219/24 536/218/24
f 149/164/25 150/167/25 499/167/25 498/164/25
f 17/70/26 18/72/26 367/72/26 366/70/26
f 129/117/27 130/116/27 479/116/27 478/117/27
f 284/90/28 285/89/28 634/89/28 633/90/28
f 78/21/29 79/22/29 428/22/29 427/21/29
f 136/115/30 137/118/30 486/118/30 485/115/30
f 18/72/31 19/73/31 368/73/31 367/72/31
f 308/40/32 309/38/32 658/38/32 657/40/32
f 198/220/33 199/217/33 548/217/33 547/220/33
f 212/168/34 213/166/34 562/166/34 561/168/34
f 283/91/35 284/90/35 633/90/35 632/91/35
f 338/39/36 339/41/36 688/41/36 687/39/36
f 79/22/37 80/23/37 429/23/37 428/22/37
f 188/219/38 189/221/38 538/221/38 537/219/38
f 150/167/39 151/169/39 500/169/39 499/167/39
f 128/119/40 129/117/40 478/117/40 477/119/40
f 282/92/41 283/91/41 632/91/41 631/92/41
f 46/74/42 47/71/42 396/71/42 395/74/42
f 339/41/43 340/42/43 689/42/43 688/41/43
f 189/221/44 190/222/44 539/222/44 538/221/44
f 19/73/45 20/75/45 369/75/45 368/73/45
f 66/24/46 67/20/46 416/20/46 415/24/46
f 211/170/47 212/168/47 561/168/47 560/170/47
f 127/120/48 128/119/48 477/119/48 476/120/48
f 281/93/49 282/92/49 631/92/49 630/93/49
f 80/23/50 81/25/50 430/25/50 429/23/50
f 151/169/51 152/171/51 501/171/51 500/169/51
f 137/118/52 138/121/52 487/121/52 486/118/52
f 307/43/53 308/40/53 657/40/53 656/43/53
f 197/223/54 198/220/54 547/220/54 546/223/54
f 280/94/55 281/93/55 630/93/55 629/94/55
f 45/76/56 46/74/56 395/74/56 394/76/56
f 340/42/57 341/44/57 690/44/57 689/42/57
f 81/25/58 82/26/58 431/26/58 430/25/58
f 190/222/59 191/224/59 540/224/59 539/222/59
f 20/75/60 21/77/60 370/77/60 369/75/60
f 210/172/61 211/170/61 560/170/61 559/172/61
f 126/122/62 127/120/62 476/120/62 475/122/62
f 279/95/63 280/94/63 629/94/63 628/95/63
f 82/26/64 83/27/64 432/27/64 431/26/64
f 191/224/65 192/225/65 541/225/65 540/224/65
f 152/171/66 153/173/66 502/173/66 501/171/66
f 306/45/67 307/43/67 656/43/67 655/45/67
f 125/123/68 126/122/68 475/122/68 474/123/68
f 278/96/69 279/95/69 628/95/69 627/96/69
f 44/78/70 45/76/70 394/76/70 393/78/70
f 341/44/71 342/46/71 691/46/71 690/44/71
f 138/121/72 139/124/72 488/124/72 487/121/72
f 21/77/73 22/79/73 371/79/73 370/77/73
f 65/28/74 66/24/74 415/24/74 414/28/74
f 196/226/75 197/223/75 546/223/75 545/226/75
f 209/174/76 210/172/76 559/172/76 558/174/76
f 277/97/77 278/96/77 627/96/77 626/97/77
f 83/27/78 84/29/78 433/29/78 432/27/78
f 192/225/79 193/227/79 542/227/79 541/225/79
f 153/173/80 154/175/80 503/175/80 502/173/80
f 305/47/81 306/45/81 655/45/81 654/47/81
f 124/125/82 125/123/82 474/123/82 473/125/82
f 276/98/83 277/97/83 626/97/83 625/98/83
f 43/80/84 44/78/84 393/78/84 392/80/84
f 342/46/85 343/48/85 692/48/85 691/46/85
f 84/29/86 85/30/86 434/30/86 433/29/86
f 193/227/87 194/228/87 543/228/87 542/227/87
f 154/175/88 155/176/88 504/176/88 503/175/88
f 22/79/89 23/81/89 372/81/89 371/79/89
f 123/126/90 124/125/90 473/125/90 472/126/90
f 275/99/91 276/98/91 625/98/91 624/99/91
f 343/48/92 344/49/92 693/49/92 692/48/92
f 85/30/93 86/31/93 435/31/93 434/30/93
f 194/228/94 195/229/94 544/229/94 543/228/94
f 139/124/95 140/127/95 489/127/95 488/124/95
f 273/88/3 274/100/3 623/100/3 622/88/3
f 195/229/96 196/226/96 545/226/96 544/229/96
f 208/177/97 209/174/97 558/174/97 557/177/97
f 274/100/98 275/99/98 624/99/98 623/100/98
f 42/82/99 43/80/99 392/80/99 391/82/99
f 245/112/100 246/149/100 595/149/100 594/112/100
f 155/176/101 156/178/101 505/178/101 504/176/101
f 23/81/102 24/83/102 373/83/102 372/81/102
f 304/50/103 305/47/103 654/47/103 653/50/103
f 64/32/104 65/28/104 414/28/104 413/32/104
f 122/3/105 123/126/105 472/126/105 471/3/105
f 344/49/106 345/51/106 694/51/106 693/49/106
f 86/31/107 87/33/107 436/33/107 435/31/107
f 156/178/108 157/179/108 506/179/108 505/178/108
f 41/84/109 42/82/109 391/82/109 390/84/109
f 345/51/110 346/52/110 695/52/110 694/51/110
f 87/33/111 88/34/111 437/34/111 436/33/111
f 244/3/2 245/112/2 594/112/2 593/3/2
f 235/128/112 236/129/112 585/129/112 584/128/112
f 254/141/3 255/4/3 604/4/3 603/141/3
f 207/180/113 208/177/113 557/177/113 556/180/113
f 40/85/114 41/84/114 390/84/114 389/85/114
f 255/4/17 244/3/17 593/3/17 604/4/17
f 157/179/115 158/181/115 507/181/115 506/179/115
f 236/129/116 237/130/116 586/130/116 585/129/116
f 24/83/117 25/86/117 374/86/117 373/83/117
f 303/53/118 304/50/118 653/50/118 652/53/118
f 63/35/119 64/32/119 413/32/119 412/35/119
f 346/52/120 347/54/120 696/54/120 695/52/120
f 88/34/121 89/36/121 438/36/121 437/34/121
f 253/154/17 254/141/17 603/141/17 602/154/17
f 182/183/100 183/182/100 532/182/100 531/183/100
f 237/130/122 238/131/122 587/131/122 586/130/122
f 39/87/7 40/85/7 389/85/7 388/87/7
f 347/54/123 348/55/123 697/55/123 696/54/123
f 89/36/8 90/37/8 439/37/8 438/36/8
f 181/184/124 182/183/124 531/183/124 530/184/124
f 238/131/125 239/132/125 588/132/125 587/131/125
f 25/86/10 26/88/10 375/88/10 374/86/10
f 252/172/2 253/154/2 602/154/2 601/172/2
f 206/185/126 207/180/126 556/180/126 555/185/126
f 239/132/127 240/133/127 589/133/127 588/132/127
f 62/38/16 63/35/16 412/35/16 411/38/16
f 250/219/3 251/217/3 600/217/3 599/219/3
f 158/181/128 159/186/128 508/186/128 507/181/128
f 38/89/20 39/87/20 388/87/20 387/89/20
f 90/37/22 91/39/22 440/39/22 439/37/22
f 251/217/17 252/172/17 601/172/17 600/217/17
f 240/133/129 241/134/129 590/134/129 589/133/129
f 348/55/2 349/4/2 698/4/2 697/55/2
f 37/90/28 38/89/28 387/89/28 386/90/28
f 249/196/17 250/219/17 599/219/17 598/196/17
f 180/187/130 181/184/130 530/184/130 529/187/130
f 241/134/131 242/135/131 591/135/131 590/134/131
f 61/40/32 62/38/32 411/38/32 410/40/32
f 159/186/132 160/188/132 509/188/132 508/186/132
f 36/91/35 37/90/35 386/90/35 385/91/35
f 302/57/133 303/53/133 652/53/133 651/57/133
f 91/39/36 92/41/36 441/41/36 440/39/36
f 248/202/2 249/196/2 598/196/2 597/202/2
f 242/135/134 243/4/134 592/4/134 591/135/134
f 246/149/3 247/176/3 596/176/3 595/149/3
f 243/4/17 122/3/17 471/3/17 592/4/17
f 35/92/41 36/91/41 385/91/41 384/92/41
f 301/58/135 302/57/135 651/57/135 650/58/135
f 92/41/43 93/42/43 442/42/43 441/41/43
f 247/176/17 248/202/17 597/202/17 596/176/17
f 205/189/136 206/185/136 555/185/136 554/189/136
f 140/127/137 141/136/137 490/136/137 489/127/137
f 256/3/100 257/9/100 606/9/100 605/3/100
f 34/93/49 35/92/49 384/92/49 383/93/49
f 300/59/138 301/58/138 650/58/138 649/59/138
f 179/190/139 180/187/139 529/187/139 528/190/139
f 60/43/53 61/40/53 410/40/53 409/43/53
f 160/188/140 161/191/140 510/191/140 509/188/140
f 233/137/141 234/138/141 583/138/141 582/137/141
f 33/94/55 34/93/55 383/93/55 382/94/55
f 299/60/142 300/59/142 649/59/142 648/60/142
f 93/42/57 94/44/57 443/44/57 442/42/57
f 322/11/2 256/3/2 605/3/2 671/11/2
f 234/138/143 235/128/143 584/128/143 583/138/143
f 32/95/144 33/94/144 382/94/144 381/95/144
f 298/61/145 299/60/145 648/60/145 647/61/145
f 178/192/146 179/190/146 528/190/146 527/192/146
f 141/136/147 142/139/147 491/139/147 490/136/147
f 59/45/67 60/43/67 409/43/67 408/45/67
f 321/12/148 322/11/148 671/11/148 670/12/148
f 161/191/149 162/193/149 511/193/149 510/191/149
f 31/96/69 32/95/69 381/95/69 380/96/69
f 297/62/150 298/61/150 647/61/150 646/62/150
f 94/44/71 95/46/71 444/46/71 443/44/71
f 320/13/151 321/12/151 670/12/151 669/13/151
f 162/193/152 163/194/152 512/194/152 511/193/152
f 231/140/153 232/141/153 581/141/153 580/140/153
f 30/97/77 31/96/77 380/96/77 379/97/77
f 296/63/154 297/62/154 646/62/154 645/63/154
f 259/56/3 260/64/3 609/64/3 608/56/3
f 58/47/81 59/45/81 408/45/81 407/47/81
f 319/14/155 320/13/155 669/13/155 668/14/155
f 232/141/156 233/137/156 582/137/156 581/141/156
f 29/98/83 30/97/83 379/97/83 378/98/83
f 95/46/85 96/48/85 445/48/85 444/46/85
f 204/195/157 205/189/157 554/189/157 553/195/157
f 142/139/158 143/142/158 492/142/158 491/139/158
f 260/64/159 261/65/159 610/65/159 609/64/159
f 318/15/160 319/14/160 668/14/160 667/15/160
f 28/99/91 29/98/91 378/98/91 377/99/91
f 96/48/92 97/49/92 446/49/92 445/48/92
f 177/196/161 178/192/161 527/192/161 526/196/161
f 26/88/3 27/100/3 376/100/3 375/88/3
f 317/16/162 318/15/162 667/15/162 666/16/162
f 163/194/163 164/197/163 513/197/163 512/194/163
f 230/143/164 231/140/164 580/140/164 579/143/164
f 27/100/98 28/99/98 377/99/98 376/100/98
f 295/66/165 296/63/165 645/63/165 644/66/165
f 104/102/166 105/101/166 454/101/166 453/102/166
f 257/9/3 258/67/3 607/67/3 606/9/3
f 57/50/103 58/47/103 407/47/103 406/50/103
f 316/17/167 317/16/167 666/16/167 665/17/167
f 229/144/168 230/143/168 579/143/168 578/144/168
f 258/67/17 259/56/17 608/56/17 607/67/17
f 97/49/106 98/51/106 447/51/106 446/49/106
f 176/198/169 177/196/169 526/196/169 525/198/169
f 103/3/2 104/102/2 453/102/2 452/3/2
f 261/65/170 262/68/170 611/68/170 610/65/170
f 315/18/171 316/17/171 665/17/171 664/18/171
f 164/197/172 165/199/172 514/199/172 513/197/172
f 228/145/173 229/144/173 578/144/173 577/145/173
f 98/51/110 99/52/110 448/52/110 447/51/110
f 323/10/3 324/19/3 673/19/3 672/10/3
f 262/68/174 263/69/174 612/69/174 611/68/174
f 227/146/175 228/145/175 577/145/175 576/146/175
f 175/200/176 176/198/176 525/198/176 524/200/176
f 110/104/177 103/3/177 452/3/177 459/104/177
f 263/69/11 264/70/11 613/70/11 612/69/11
f 56/53/118 57/50/118 406/50/118 405/53/118
f 314/20/12 315/18/12 664/18/12 663/20/12
f 226/147/178 227/146/178 576/146/178 575/147/178
f 99/52/120 100/54/120 449/54/120 448/52/120
f 2/2/100 3/1/100 352/1/100 351/2/100
f 203/201/179 204/195/179 553/195/179 552/201/179
f 113/4/180 111/103/180 460/103/180 462/4/180
f 349/4/17 323/10/17 672/10/17 698/4/17
f 165/199/181 166/202/181 515/202/181 514/199/181
f 225/148/182 226/147/182 575/147/182 574/148/182
f 111/103/183 112/105/183 461/105/183 460/103/183
f 294/71/21 295/66/21 644/66/21 643/71/21
f 100/54/123 101/55/123 450/55/123 449/54/123
f 324/19/23 325/21/23 674/21/23 673/19/23
f 1/3/2 2/2/2 351/2/2 350/3/2
f 143/142/184 144/149/184 493/149/184 492/142/184
f 264/70/26 265/72/26 614/72/26 613/70/26
f 325/21/29 326/22/29 675/22/29 674/21/29
f 8/4/17 1/3/17 350/3/17 357/4/17
f 174/203/185 175/200/185 524/200/185 523/203/185
f 265/72/31 266/73/31 615/73/31 614/72/31
f 3/1/3 4/5/3 353/5/3 352/1/3
f 166/202/186 167/204/186 516/204/186 515/202/186
f 224/150/187 225/148/187 574/148/187 573/150/187
f 326/22/37 327/23/37 676/23/37 675/22/37
f 112/105/2 113/4/2 462/4/2 461/105/2
f 101/55/2 102/4/2 451/4/2 450/55/2
f 4/5/100 5/6/100 354/6/100 353/5/100
f 223/151/188 224/150/188 573/150/188 572/151/188
f 107/106/3 108/107/3 457/107/3 456/106/3
f 293/74/42 294/71/42 643/71/42 642/74/42
f 173/205/189 174/203/189 523/203/189 522/205/189
f 266/73/45 267/75/45 616/75/45 615/73/45
f 313/24/46 314/20/46 663/20/46 662/24/46
f 167/204/190 168/206/190 517/206/190 516/204/190
f 222/152/191 223/151/191 572/151/191 571/152/191
f 55/57/133 56/53/133 405/53/133 404/57/133
f 327/23/50 328/25/50 677/25/50 676/23/50
f 7/7/3 8/4/3 357/4/3 356/7/3
f 144/149/192 145/153/192 494/153/192 493/149/192
f 105/101/3 106/108/3 455/108/3 454/101/3
f 5/6/3 6/8/3 355/8/3 354/6/3
f 106/108/193 107/106/193 456/106/193 455/108/193
f 292/76/56 293/74/56 642/74/56 641/76/56
f 54/58/135 55/57/135 404/57/135 403/58/135
f 328/25/58 329/26/58 678/26/58 677/25/58
f 6/8/17 7/7/17 356/7/17 355/8/17
f 172/207/194 173/205/194 522/205/194 521/207/194
f 108/107/195 109/109/195 458/109/195 457/107/195
f 267/75/60 268/77/60 617/77/60 616/75/60
f 9/3/100 10/9/100 359/9/100 358/3/100
f 168/206/196 169/208/196 518/208/196 517/206/196
f 221/154/197 222/152/197 571/152/197 570/154/197
f 109/109/3 110/104/3 459/104/3 458/109/3
f 53/59/138 54/58/138 403/58/138 402/59/138
f 329/26/64 330/27/64 679/27/64 678/26/64
f 115/2/100 116/1/100 465/1/100 464/2/100
f 220/155/198 221/154/198 570/154/198 569/155/198
f 291/78/70 292/76/70 641/76/70 640/78/70
f 52/60/142 53/59/142 402/59/142 401/60/142
f 171/209/199 172/207/199 521/207/199 520/209/199
f 145/153/200 146/156/200 495/156/200 494/153/200
f 114/3/2 115/2/2 464/2/2 463/3/2
f 268/77/73 269/79/73 618/79/73 617/77/73
f 312/28/74 313/24/74 662/24/74 661/28/74
f 75/11/2 9/3/2 358/3/2 424/11/2
f 51/61/145 52/60/145 401/60/145 400/61/145
f 330/27/78 331/29/78 680/29/78 679/27/78
f 202/210/201 203/201/201 552/201/201 551/210/201
f 121/4/17 114/3/17 463/3/17 470/4/17
f 74/12/148 75/11/148 424/11/148 423/12/148
f 169/208/202 170/211/202 519/211/202 518/208/202
f 219/157/203 220/155/203 569/155/203 568/157/203
f 116/1/3 117/5/3 466/5/3 465/1/3
f 290/80/84 291/78/84 640/78/84 639/80/84
f 50/62/150 51/61/150 400/61/150 399/62/150
f 331/29/86 332/30/86 681/30/86 680/29/86
f 269/79/89 270/81/89 619/81/89 618/79/89
f 73/13/151 74/12/151 423/12/151 422/13/151
f 218/158/204 219/157/204 568/157/204 567/158/204
f 117/5/100 118/6/100 467/6/100 466/5/100
f 49/63/154 50/62/154 399/62/154 398/63/154
f 332/30/93 333/31/93 682/31/93 681/30/93
f 170/211/205 171/209/205 520/209/205 519/211/205
f 146/156/206 147/159/206 496/159/206 495/156/206
f 12/56/3 13/64/3 362/64/3 361/56/3
f 72/14/155 73/13/155 422/13/155 421/14/155
f 289/82/99 290/80/99 639/80/99 638/82/99
f 120/7/3 121/4/3 470/4/3 469/7/3
f 270/81/102 271/83/102 620/83/102 619/81/102
f 13/64/159 14/65/159 363/65/159 362/64/159
f 311/32/104 312/28/104 661/28/104 660/32/104
f 71/15/160 72/14/160 421/14/160 420/15/160
f 201/212/207 202/210/207 551/210/207 550/212/207
f 217/160/208 218/158/208 567/158/208 566/160/208
f 118/6/3 119/8/3 468/8/3 467/6/3
f 333/31/107 334/33/107 683/33/107 682/31/107
f 183/182/209 184/213/209 533/213/209 532/182/209
f 119/8/17 120/7/17 469/7/17 468/8/17
f 70/16/162 71/15/162 420/15/162 419/16/162
f 216/161/210 217/160/210 566/160/210 565/161/210
f 134/111/211 135/110/211 484/110/211 483/111/211
f 288/84/109 289/82/109 638/82/109 637/84/109
f 48/66/165 49/63/165 398/63/165 397/66/165
f 334/33/111 335/34/111 684/34/111 683/33/111
f 184/213/212 185/214/212 534/214/212 533/213/212
f 147/159/213 148/162/213 497/162/213 496/159/213
f 10/9/3 11/67/3 360/67/3 359/9/3
f 69/17/167 70/16/167 419/16/167 418/17/167
f 133/112/214 134/111/214 483/111/214 482/112/214
f 287/85/114 288/84/114 637/84/114 636/85/114
f 11/67/17 12/56/17 361/56/17 360/67/17
f 271/83/117 272/86/117 621/86/117 620/83/117
f 14/65/170 15/68/170 364/68/170 363/65/170
f 310/35/119 311/32/119 660/32/119 659/35/119
f 68/18/171 69/17/171 418/17/171 417/18/171
f 200/215/215 201/212/215 550/212/215 549/215/215
f 215/163/216 216/161/216 565/161/216 564/163/216
f 132/113/217 133/112/217 482/112/217 481/113/217
f 335/34/121 336/36/121 685/36/121 684/34/121
f 76/10/3 77/19/3 426/19/3 425/10/3
f 185/214/218 186/216/218 535/216/218 534/214/218
f 148/162/219 149/164/219 498/164/219 497/162/219
f 15/68/174 16/69/174 365/69/174 364/68/174
