# Blender 4.4.1
# www.blender.org
mtllib Se.mtl
o テキスト
v 2.419493 0.682000 0.000000
v 2.032493 0.682000 0.000000
v 2.032493 0.000000 0.000000
v 2.428494 0.000000 0.000000
v 2.428494 0.088000 0.000000
v 2.130493 0.088000 0.000000
v 2.130493 0.300000 0.000000
v 2.409494 0.300000 0.000000
v 2.409494 0.388000 0.000000
v 2.130493 0.388000 0.000000
v 2.130493 0.594000 0.000000
v 2.419493 0.594000 0.000000
v 1.885494 0.682000 0.000000
v 1.794493 0.682000 0.000000
v 1.567493 0.402000 0.000000
v 1.341493 0.682000 0.000000
v 1.249493 0.682000 0.000000
v 1.249493 0.000000 0.000000
v 1.347493 0.000000 0.000000
v 1.347493 0.531000 0.000000
v 1.349493 0.531000 0.000000
v 1.559493 0.267000 0.000000
v 1.575494 0.267000 0.000000
v 1.785494 0.531000 0.000000
v 1.787493 0.531000 0.000000
v 1.787493 0.000000 0.000000
v 1.885494 0.000000 0.000000
v 1.116493 0.682000 0.000000
v 1.018493 0.682000 0.000000
v 1.018493 0.285000 0.000000
v 1.018316 0.269292 0.000000
v 1.017739 0.254171 0.000000
v 1.016697 0.239641 0.000000
v 1.015123 0.225704 0.000000
v 1.012952 0.212364 0.000000
v 1.010118 0.199625 0.000000
v 1.006555 0.187490 0.000000
v 1.002197 0.175963 0.000000
v 0.996978 0.165047 0.000000
v 0.990831 0.154745 0.000000
v 0.983692 0.145062 0.000000
v 0.975493 0.136000 0.000000
v 0.967265 0.128406 0.000000
v 0.958086 0.121162 0.000000
v 0.947962 0.114328 0.000000
v 0.936901 0.107963 0.000000
v 0.924909 0.102126 0.000000
v 0.911993 0.096875 0.000000
v 0.898161 0.092270 0.000000
v 0.883419 0.088370 0.000000
v 0.867774 0.085234 0.000000
v 0.851234 0.082921 0.000000
v 0.833805 0.081490 0.000000
v 0.815493 0.081000 0.000000
v 0.800952 0.081396 0.000000
v 0.786827 0.082588 0.000000
v 0.773118 0.084578 0.000000
v 0.759827 0.087370 0.000000
v 0.746952 0.090968 0.000000
v 0.734493 0.095375 0.000000
v 0.722452 0.100594 0.000000
v 0.710827 0.106630 0.000000
v 0.699619 0.113484 0.000000
v 0.688827 0.121162 0.000000
v 0.678452 0.129666 0.000000
v 0.668494 0.139000 0.000000
v 0.661175 0.146796 0.000000
v 0.654692 0.154787 0.000000
v 0.649009 0.163125 0.000000
v 0.644086 0.171963 0.000000
v 0.639885 0.181454 0.000000
v 0.636368 0.191750 0.000000
v 0.633497 0.203005 0.000000
v 0.631234 0.215370 0.000000
v 0.629540 0.229000 0.000000
v 0.628377 0.244046 0.000000
v 0.627708 0.260662 0.000000
v 0.627493 0.279000 0.000000
v 0.627493 0.682000 0.000000
v 0.529494 0.682000 0.000000
v 0.529494 0.258000 0.000000
v 0.532331 0.213674 0.000000
v 0.540530 0.173639 0.000000
v 0.553618 0.137812 0.000000
v 0.571123 0.106111 0.000000
v 0.592572 0.078451 0.000000
v 0.617493 0.054750 0.000000
v 0.645415 0.034924 0.000000
v 0.675864 0.018889 0.000000
v 0.708368 0.006562 0.000000
v 0.742456 -0.002139 -0.000000
v 0.777655 -0.007299 -0.000000
v 0.813493 -0.009000 -0.000000
v 0.862099 -0.006739 -0.000000
v 0.906424 -0.000079 -0.000000
v 0.946478 0.010797 0.000000
v 0.982271 0.025704 0.000000
v 1.013815 0.044458 0.000000
v 1.041118 0.066875 0.000000
v 1.064193 0.092771 0.000000
v 1.083049 0.121963 0.000000
v 1.097696 0.154266 0.000000
v 1.108146 0.189495 0.000000
v 1.114408 0.227468 0.000000
v 1.116493 0.268000 0.000000
v 0.150493 0.682000 0.000000
v 0.052493 0.682000 0.000000
v 0.052493 0.000000 0.000000
v 0.458493 0.000000 0.000000
v 0.458493 0.088000 0.000000
v 0.150493 0.088000 0.000000
v -0.799507 0.341000 0.000000
v -0.796603 0.295251 0.000000
v -0.788030 0.250838 0.000000
v -0.773991 0.208266 0.000000
v -0.754692 0.168037 0.000000
v -0.730337 0.130656 0.000000
v -0.701132 0.096625 0.000000
v -0.667280 0.066448 0.000000
v -0.628988 0.040630 0.000000
v -0.586460 0.019672 0.000000
v -0.539900 0.004079 0.000000
v -0.489514 -0.005646 -0.000000
v -0.435507 -0.009000 -0.000000
v -0.379720 -0.005627 -0.000000
v -0.327965 0.004148 0.000000
v -0.280397 0.019813 0.000000
v -0.237173 0.040852 0.000000
v -0.198449 0.066752 0.000000
v -0.164381 0.097000 0.000000
v -0.135126 0.131081 0.000000
v -0.110840 0.168481 0.000000
v -0.091678 0.208688 0.000000
v -0.077798 0.251185 0.000000
v -0.069355 0.295461 0.000000
v -0.066506 0.341000 0.000000
v -0.069431 0.387800 0.000000
v -0.078067 0.432898 0.000000
v -0.092210 0.475844 0.000000
v -0.111655 0.516185 0.000000
v -0.136197 0.553471 0.000000
v -0.165632 0.587250 0.000000
v -0.199754 0.617071 0.000000
v -0.238358 0.642482 0.000000
v -0.281241 0.663031 0.000000
v -0.328196 0.678269 0.000000
v -0.379020 0.687742 0.000000
v -0.433506 0.691000 0.000000
v -0.487133 0.687723 0.000000
v -0.537354 0.678199 0.000000
v -0.583928 0.662891 0.000000
v -0.626618 0.642259 0.000000
v -0.665182 0.616767 0.000000
v -0.699382 0.586875 0.000000
v -0.728977 0.553046 0.000000
v -0.753729 0.515741 0.000000
v -0.773397 0.475422 0.000000
v -0.787743 0.432551 0.000000
v -0.796526 0.387590 0.000000
v -0.698506 0.341000 0.000000
v -0.696195 0.377626 0.000000
v -0.689432 0.412343 0.000000
v -0.678475 0.444906 0.000000
v -0.663580 0.475074 0.000000
v -0.645005 0.502603 0.000000
v -0.623006 0.527250 0.000000
v -0.597841 0.548772 0.000000
v -0.569766 0.566926 0.000000
v -0.539037 0.581469 0.000000
v -0.505914 0.592157 0.000000
v -0.470651 0.598749 0.000000
v -0.433506 0.601000 0.000000
v -0.396132 0.598749 0.000000
v -0.360678 0.592157 0.000000
v -0.327397 0.581469 0.000000
v -0.296544 0.566926 0.000000
v -0.268371 0.548772 0.000000
v -0.243132 0.527250 0.000000
v -0.221080 0.502603 0.000000
v -0.202470 0.475074 0.000000
v -0.187553 0.444906 0.000000
v -0.176585 0.412343 0.000000
v -0.169818 0.377626 0.000000
v -0.167506 0.341000 0.000000
v -0.169818 0.304584 0.000000
v -0.176585 0.270005 0.000000
v -0.187553 0.237516 0.000000
v -0.202470 0.207370 0.000000
v -0.221080 0.179822 0.000000
v -0.243132 0.155125 0.000000
v -0.268371 0.133532 0.000000
v -0.296544 0.115296 0.000000
v -0.327397 0.100672 0.000000
v -0.360678 0.089912 0.000000
v -0.396132 0.083270 0.000000
v -0.433506 0.081000 0.000000
v -0.470651 0.083270 0.000000
v -0.505914 0.089912 0.000000
v -0.539038 0.100672 0.000000
v -0.569766 0.115296 0.000000
v -0.597841 0.133532 0.000000
v -0.623007 0.155125 0.000000
v -0.645005 0.179822 0.000000
v -0.663581 0.207370 0.000000
v -0.678475 0.237516 0.000000
v -0.689433 0.270005 0.000000
v -0.696195 0.304584 0.000000
v -0.844507 0.682000 0.000000
v -0.941507 0.682000 0.000000
v -1.145507 0.203000 0.000000
v -1.350507 0.682000 0.000000
v -1.448507 0.682000 0.000000
v -1.153507 -0.006000 -0.000000
v -1.133507 -0.006000 -0.000000
v -1.764507 0.682000 0.000000
v -2.151507 0.682000 0.000000
v -2.151507 0.000000 0.000000
v -1.755507 0.000000 0.000000
v -1.755507 0.088000 0.000000
v -2.053507 0.088000 0.000000
v -2.053507 0.300000 0.000000
v -1.774507 0.300000 0.000000
v -1.774507 0.388000 0.000000
v -2.053507 0.388000 0.000000
v -2.053507 0.594000 0.000000
v -1.764507 0.594000 0.000000
v -2.285507 0.643000 0.000000
v -2.297588 0.650667 0.000000
v -2.309821 0.657667 0.000000
v -2.322194 0.664000 0.000000
v -2.334692 0.669667 0.000000
v -2.347301 0.674667 0.000000
v -2.360007 0.679000 0.000000
v -2.372796 0.682667 0.000000
v -2.385655 0.685667 0.000000
v -2.398569 0.688000 0.000000
v -2.411525 0.689667 0.000000
v -2.424509 0.690667 0.000000
v -2.437507 0.691000 0.000000
v -2.467838 0.689539 0.000000
v -2.496243 0.685227 0.000000
v -2.522585 0.678172 0.000000
v -2.546729 0.668482 0.000000
v -2.568540 0.656263 0.000000
v -2.587882 0.641625 0.000000
v -2.604620 0.624674 0.000000
v -2.618618 0.605519 0.000000
v -2.629741 0.584266 0.000000
v -2.637854 0.561023 0.000000
v -2.642821 0.535899 0.000000
v -2.644507 0.509000 0.000000
v -2.638702 0.465641 0.000000
v -2.622655 0.428380 0.000000
v -2.598413 0.396187 0.000000
v -2.568025 0.368037 0.000000
v -2.533540 0.342900 0.000000
v -2.497007 0.319750 0.000000
v -2.460473 0.297558 0.000000
v -2.425988 0.275296 0.000000
v -2.395600 0.251937 0.000000
v -2.371358 0.226454 0.000000
v -2.355311 0.197817 0.000000
v -2.349507 0.165000 0.000000
v -2.350239 0.155325 0.000000
v -2.352451 0.145435 0.000000
v -2.356163 0.135531 0.000000
v -2.361396 0.125815 0.000000
v -2.368170 0.116487 0.000000
v -2.376507 0.107750 0.000000
v -2.386427 0.099804 0.000000
v -2.397951 0.092852 0.000000
v -2.411100 0.087094 0.000000
v -2.425895 0.082731 0.000000
v -2.442357 0.079966 0.000000
v -2.460507 0.079000 0.000000
v -2.477168 0.079726 0.000000
v -2.493632 0.081889 0.000000
v -2.509866 0.085469 0.000000
v -2.525840 0.090444 0.000000
v -2.541522 0.096795 0.000000
v -2.556882 0.104500 0.000000
v -2.571887 0.113538 0.000000
v -2.586507 0.123889 0.000000
v -2.600710 0.135531 0.000000
v -2.614465 0.148444 0.000000
v -2.627741 0.162608 0.000000
v -2.640507 0.178000 0.000000
v -2.640507 0.054000 0.000000
v -2.626188 0.043727 0.000000
v -2.611706 0.034403 0.000000
v -2.597022 0.026016 0.000000
v -2.582099 0.018556 0.000000
v -2.566898 0.012012 0.000000
v -2.551382 0.006375 0.000000
v -2.535511 0.001634 0.000000
v -2.519247 -0.002222 -0.000000
v -2.502553 -0.005203 -0.000000
v -2.485391 -0.007319 -0.000000
v -2.467721 -0.008582 -0.000000
v -2.449507 -0.009000 -0.000000
v -2.422641 -0.007403 -0.000000
v -2.397164 -0.002727 -0.000000
v -2.373257 0.004859 0.000000
v -2.351099 0.015185 0.000000
v -2.330872 0.028080 0.000000
v -2.312757 0.043375 0.000000
v -2.296932 0.060899 0.000000
v -2.283581 0.080481 0.000000
v -2.272882 0.101953 0.000000
v -2.265016 0.125144 0.000000
v -2.260164 0.149883 0.000000
v -2.258507 0.176000 0.000000
v -2.264311 0.225891 0.000000
v -2.280359 0.267880 0.000000
v -2.304600 0.303187 0.000000
v -2.334988 0.333037 0.000000
v -2.369473 0.358650 0.000000
v -2.406007 0.381250 0.000000
v -2.442540 0.402058 0.000000
v -2.477025 0.422296 0.000000
v -2.507413 0.443187 0.000000
v -2.531655 0.465954 0.000000
v -2.547702 0.491817 0.000000
v -2.553507 0.522000 0.000000
v -2.552585 0.533677 0.000000
v -2.549882 0.544667 0.000000
v -2.545491 0.554906 0.000000
v -2.539507 0.564333 0.000000
v -2.532022 0.572885 0.000000
v -2.523132 0.580500 0.000000
v -2.512928 0.587115 0.000000
v -2.501507 0.592667 0.000000
v -2.488960 0.597094 0.000000
v -2.475382 0.600333 0.000000
v -2.460866 0.602323 0.000000
v -2.445507 0.603000 0.000000
v -2.433803 0.602653 0.000000
v -2.421710 0.601560 0.000000
v -2.409257 0.599641 0.000000
v -2.396470 0.596815 0.000000
v -2.383377 0.593003 0.000000
v -2.370007 0.588125 0.000000
v -2.356386 0.582101 0.000000
v -2.342544 0.574852 0.000000
v -2.328506 0.566297 0.000000
v -2.314303 0.556357 0.000000
v -2.299960 0.544951 0.000000
v -2.285507 0.532000 0.000000
v 2.419493 0.682000 0.218368
v 2.032493 0.682000 0.218368
v 2.032493 -0.000000 0.218368
v 2.428494 -0.000000 0.218368
v 2.428494 0.088000 0.218368
v 2.130493 0.088000 0.218368
v 2.130493 0.300000 0.218368
v 2.409494 0.300000 0.218368
v 2.409494 0.388000 0.218368
v 2.130493 0.388000 0.218368
v 2.130493 0.594000 0.218368
v 2.419493 0.594000 0.218368
v 1.885494 0.682000 0.218368
v 1.794493 0.682000 0.218368
v 1.567493 0.402000 0.218368
v 1.341493 0.682000 0.218368
v 1.249493 0.682000 0.218368
v 1.249493 -0.000000 0.218368
v 1.347493 -0.000000 0.218368
v 1.347493 0.531000 0.218368
v 1.349493 0.531000 0.218368
v 1.559493 0.267000 0.218368
v 1.575494 0.267000 0.218368
v 1.785494 0.531000 0.218368
v 1.787493 0.531000 0.218368
v 1.787493 -0.000000 0.218368
v 1.885494 -0.000000 0.218368
v 1.116493 0.682000 0.218368
v 1.018493 0.682000 0.218368
v 1.018493 0.285000 0.218368
v 1.018316 0.269292 0.218368
v 1.017739 0.254171 0.218368
v 1.016697 0.239641 0.218368
v 1.015123 0.225704 0.218368
v 1.012952 0.212364 0.218368
v 1.010118 0.199625 0.218368
v 1.006555 0.187490 0.218368
v 1.002197 0.175963 0.218368
v 0.996978 0.165047 0.218368
v 0.990831 0.154745 0.218368
v 0.983692 0.145062 0.218368
v 0.975493 0.136000 0.218368
v 0.967265 0.128406 0.218368
v 0.958086 0.121162 0.218368
v 0.947962 0.114328 0.218368
v 0.936901 0.107963 0.218368
v 0.924909 0.102126 0.218368
v 0.911993 0.096875 0.218368
v 0.898161 0.092270 0.218368
v 0.883419 0.088370 0.218368
v 0.867774 0.085234 0.218368
v 0.851234 0.082921 0.218368
v 0.833805 0.081490 0.218368
v 0.815493 0.081000 0.218368
v 0.800952 0.081396 0.218368
v 0.786827 0.082588 0.218368
v 0.773118 0.084578 0.218368
v 0.759827 0.087370 0.218368
v 0.746952 0.090968 0.218368
v 0.734493 0.095375 0.218368
v 0.722452 0.100594 0.218368
v 0.710827 0.106630 0.218368
v 0.699619 0.113484 0.218368
v 0.688827 0.121162 0.218368
v 0.678452 0.129666 0.218368
v 0.668494 0.139000 0.218368
v 0.661175 0.146796 0.218368
v 0.654692 0.154787 0.218368
v 0.649009 0.163125 0.218368
v 0.644086 0.171963 0.218368
v 0.639885 0.181454 0.218368
v 0.636368 0.191750 0.218368
v 0.633497 0.203005 0.218368
v 0.631234 0.215370 0.218368
v 0.629540 0.229000 0.218368
v 0.628377 0.244046 0.218368
v 0.627708 0.260662 0.218368
v 0.627493 0.279000 0.218368
v 0.627493 0.682000 0.218368
v 0.529494 0.682000 0.218368
v 0.529494 0.258000 0.218368
v 0.532331 0.213674 0.218368
v 0.540530 0.173639 0.218368
v 0.553618 0.137812 0.218368
v 0.571123 0.106111 0.218368
v 0.592572 0.078451 0.218368
v 0.617493 0.054750 0.218368
v 0.645415 0.034924 0.218368
v 0.675864 0.018889 0.218368
v 0.708368 0.006562 0.218368
v 0.742456 -0.002139 0.218368
v 0.777655 -0.007299 0.218368
v 0.813493 -0.009000 0.218368
v 0.862099 -0.006739 0.218368
v 0.906424 -0.000079 0.218368
v 0.946478 0.010797 0.218368
v 0.982271 0.025704 0.218368
v 1.013815 0.044458 0.218368
v 1.041118 0.066875 0.218368
v 1.064193 0.092771 0.218368
v 1.083049 0.121963 0.218368
v 1.097696 0.154266 0.218368
v 1.108146 0.189495 0.218368
v 1.114408 0.227468 0.218368
v 1.116493 0.268000 0.218368
v 0.150493 0.682000 0.218368
v 0.052493 0.682000 0.218368
v 0.052493 -0.000000 0.218368
v 0.458493 -0.000000 0.218368
v 0.458493 0.088000 0.218368
v 0.150493 0.088000 0.218368
v -0.799507 0.341000 0.218368
v -0.796603 0.295251 0.218368
v -0.788030 0.250838 0.218368
v -0.773991 0.208266 0.218368
v -0.754692 0.168037 0.218368
v -0.730337 0.130656 0.218368
v -0.701132 0.096625 0.218368
v -0.667280 0.066448 0.218368
v -0.628988 0.040630 0.218368
v -0.586460 0.019672 0.218368
v -0.539900 0.004079 0.218368
v -0.489514 -0.005646 0.218368
v -0.435507 -0.009000 0.218368
v -0.379720 -0.005627 0.218368
v -0.327965 0.004148 0.218368
v -0.280397 0.019812 0.218368
v -0.237173 0.040852 0.218368
v -0.198449 0.066752 0.218368
v -0.164381 0.097000 0.218368
v -0.135126 0.131081 0.218368
v -0.110840 0.168481 0.218368
v -0.091678 0.208687 0.218368
v -0.077798 0.251185 0.218368
v -0.069355 0.295461 0.218368
v -0.066506 0.341000 0.218368
v -0.069431 0.387800 0.218368
v -0.078067 0.432898 0.218368
v -0.092210 0.475844 0.218368
v -0.111655 0.516185 0.218368
v -0.136197 0.553471 0.218368
v -0.165632 0.587250 0.218368
v -0.199754 0.617071 0.218368
v -0.238358 0.642482 0.218368
v -0.281241 0.663031 0.218368
v -0.328196 0.678269 0.218368
v -0.379020 0.687742 0.218368
v -0.433506 0.691000 0.218368
v -0.487133 0.687723 0.218368
v -0.537354 0.678199 0.218368
v -0.583928 0.662891 0.218368
v -0.626618 0.642259 0.218368
v -0.665182 0.616767 0.218368
v -0.699382 0.586875 0.218368
v -0.728977 0.553046 0.218368
v -0.753729 0.515741 0.218368
v -0.773397 0.475422 0.218368
v -0.787743 0.432551 0.218368
v -0.796526 0.387590 0.218368
v -0.698506 0.341000 0.218368
v -0.696195 0.377626 0.218368
v -0.689432 0.412343 0.218368
v -0.678475 0.444906 0.218368
v -0.663580 0.475074 0.218368
v -0.645005 0.502603 0.218368
v -0.623006 0.527250 0.218368
v -0.597841 0.548772 0.218368
v -0.569766 0.566926 0.218368
v -0.539037 0.581469 0.218368
v -0.505914 0.592157 0.218368
v -0.470651 0.598749 0.218368
v -0.433506 0.601000 0.218368
v -0.396132 0.598749 0.218368
v -0.360678 0.592157 0.218368
v -0.327397 0.581469 0.218368
v -0.296544 0.566926 0.218368
v -0.268371 0.548772 0.218368
v -0.243132 0.527250 0.218368
v -0.221080 0.502603 0.218368
v -0.202470 0.475074 0.218368
v -0.187553 0.444906 0.218368
v -0.176585 0.412343 0.218368
v -0.169818 0.377626 0.218368
v -0.167506 0.341000 0.218368
v -0.169818 0.304584 0.218368
v -0.176585 0.270005 0.218368
v -0.187553 0.237516 0.218368
v -0.202470 0.207370 0.218368
v -0.221080 0.179822 0.218368
v -0.243132 0.155125 0.218368
v -0.268371 0.133532 0.218368
v -0.296544 0.115296 0.218368
v -0.327397 0.100672 0.218368
v -0.360678 0.089912 0.218368
v -0.396132 0.083270 0.218368
v -0.433506 0.081000 0.218368
v -0.470651 0.083270 0.218368
v -0.505914 0.089912 0.218368
v -0.539038 0.100672 0.218368
v -0.569766 0.115296 0.218368
v -0.597841 0.133532 0.218368
v -0.623007 0.155125 0.218368
v -0.645005 0.179822 0.218368
v -0.663581 0.207370 0.218368
v -0.678475 0.237516 0.218368
v -0.689433 0.270005 0.218368
v -0.696195 0.304584 0.218368
v -0.844507 0.682000 0.218368
v -0.941507 0.682000 0.218368
v -1.145507 0.203000 0.218368
v -1.350507 0.682000 0.218368
v -1.448507 0.682000 0.218368
v -1.153507 -0.006000 0.218368
v -1.133507 -0.006000 0.218368
v -1.764507 0.682000 0.218368
v -2.151507 0.682000 0.218368
v -2.151507 -0.000000 0.218368
v -1.755507 -0.000000 0.218368
v -1.755507 0.088000 0.218368
v -2.053507 0.088000 0.218368
v -2.053507 0.300000 0.218368
v -1.774507 0.300000 0.218368
v -1.774507 0.388000 0.218368
v -2.053507 0.388000 0.218368
v -2.053507 0.594000 0.218368
v -1.764507 0.594000 0.218368
v -2.285507 0.643000 0.218368
v -2.297588 0.650667 0.218368
v -2.309821 0.657667 0.218368
v -2.322194 0.664000 0.218368
v -2.334692 0.669667 0.218368
v -2.347301 0.674667 0.218368
v -2.360007 0.679000 0.218368
v -2.372796 0.682667 0.218368
v -2.385655 0.685667 0.218368
v -2.398569 0.688000 0.218368
v -2.411525 0.689667 0.218368
v -2.424509 0.690667 0.218368
v -2.437507 0.691000 0.218368
v -2.467838 0.689539 0.218368
v -2.496243 0.685227 0.218368
v -2.522585 0.678172 0.218368
v -2.546729 0.668482 0.218368
v -2.568540 0.656263 0.218368
v -2.587882 0.641625 0.218368
v -2.604620 0.624674 0.218368
v -2.618618 0.605519 0.218368
v -2.629741 0.584266 0.218368
v -2.637854 0.561023 0.218368
v -2.642821 0.535899 0.218368
v -2.644507 0.509000 0.218368
v -2.638702 0.465641 0.218368
v -2.622655 0.428380 0.218368
v -2.598413 0.396187 0.218368
v -2.568025 0.368037 0.218368
v -2.533540 0.342900 0.218368
v -2.497007 0.319750 0.218368
v -2.460473 0.297558 0.218368
v -2.425988 0.275296 0.218368
v -2.395600 0.251937 0.218368
v -2.371358 0.226454 0.218368
v -2.355311 0.197817 0.218368
v -2.349507 0.165000 0.218368
v -2.350239 0.155325 0.218368
v -2.352451 0.145435 0.218368
v -2.356163 0.135531 0.218368
v -2.361396 0.125815 0.218368
v -2.368170 0.116487 0.218368
v -2.376507 0.107750 0.218368
v -2.386427 0.099804 0.218368
v -2.397951 0.092852 0.218368
v -2.411100 0.087094 0.218368
v -2.425895 0.082731 0.218368
v -2.442357 0.079966 0.218368
v -2.460507 0.079000 0.218368
v -2.477168 0.079726 0.218368
v -2.493632 0.081889 0.218368
v -2.509866 0.085469 0.218368
v -2.525840 0.090444 0.218368
v -2.541522 0.096795 0.218368
v -2.556882 0.104500 0.218368
v -2.571887 0.113538 0.218368
v -2.586507 0.123889 0.218368
v -2.600710 0.135531 0.218368
v -2.614465 0.148444 0.218368
v -2.627741 0.162608 0.218368
v -2.640507 0.178000 0.218368
v -2.640507 0.054000 0.218368
v -2.626188 0.043727 0.218368
v -2.611706 0.034403 0.218368
v -2.597022 0.026016 0.218368
v -2.582099 0.018556 0.218368
v -2.566898 0.012012 0.218368
v -2.551382 0.006375 0.218368
v -2.535511 0.001634 0.218368
v -2.519247 -0.002222 0.218368
v -2.502553 -0.005203 0.218368
v -2.485391 -0.007319 0.218368
v -2.467721 -0.008582 0.218368
v -2.449507 -0.009000 0.218368
v -2.422641 -0.007403 0.218368
v -2.397164 -0.002727 0.218368
v -2.373257 0.004859 0.218368
v -2.351099 0.015185 0.218368
v -2.330872 0.028080 0.218368
v -2.312757 0.043375 0.218368
v -2.296932 0.060899 0.218368
v -2.283581 0.080481 0.218368
v -2.272882 0.101953 0.218368
v -2.265016 0.125144 0.218368
v -2.260164 0.149883 0.218368
v -2.258507 0.176000 0.218368
v -2.264311 0.225891 0.218368
v -2.280359 0.267880 0.218368
v -2.304600 0.303187 0.218368
v -2.334988 0.333037 0.218368
v -2.369473 0.358650 0.218368
v -2.406007 0.381250 0.218368
v -2.442540 0.402058 0.218368
v -2.477025 0.422296 0.218368
v -2.507413 0.443187 0.218368
v -2.531655 0.465954 0.218368
v -2.547702 0.491817 0.218368
v -2.553507 0.522000 0.218368
v -2.552585 0.533677 0.218368
v -2.549882 0.544667 0.218368
v -2.545491 0.554906 0.218368
v -2.539507 0.564333 0.218368
v -2.532022 0.572885 0.218368
v -2.523132 0.580500 0.218368
v -2.512928 0.587115 0.218368
v -2.501507 0.592667 0.218368
v -2.488960 0.597094 0.218368
v -2.475382 0.600333 0.218368
v -2.460866 0.602323 0.218368
v -2.445507 0.603000 0.218368
v -2.433803 0.602653 0.218368
v -2.421710 0.601560 0.218368
v -2.409257 0.599641 0.218368
v -2.396470 0.596815 0.218368
v -2.383377 0.593003 0.218368
v -2.370007 0.588125 0.218368
v -2.356386 0.582101 0.218368
v -2.342544 0.574852 0.218368
v -2.328506 0.566297 0.218368
v -2.314303 0.556357 0.218368
v -2.299960 0.544951 0.218368
v -2.285507 0.532000 0.218368
vn -0.0000 -0.0000 -1.0000
vn -0.0000 -0.0000 1.0000
vn -0.0000 -0.0001 1.0000
vn -0.0000 0.0001 1.0000
vn -0.1224 -0.9925 -0.0000
vn -0.5424 -0.8401 -0.0000
vn 0.7826 -0.6225 -0.0000
vn 0.3977 0.9175 -0.0000
vn -1.0000 -0.0000 -0.0000
vn 0.4557 0.8902 -0.0000
vn 0.5447 0.8386 -0.0000
vn 0.4278 -0.9039 -0.0000
vn -0.0712 -0.9975 -0.0000
vn -0.3159 0.9488 -0.0000
vn -0.6094 -0.7928 -0.0000
vn -0.0000 -1.0000 -0.0000
vn -0.5417 -0.8406 -0.0000
vn 0.4966 0.8680 -0.0000
vn 0.7588 -0.6513 -0.0000
vn -0.0230 -0.9997 -0.0000
vn -0.6035 0.7974 -0.0000
vn -0.7589 -0.6513 -0.0000
vn 0.0593 -0.9982 -0.0000
vn 0.3335 0.9428 -0.0000
vn 0.9341 0.3570 -0.0000
vn 0.5430 -0.8397 -0.0000
vn -0.7245 -0.6892 -0.0000
vn -0.0000 1.0000 -0.0000
vn -0.4283 0.9036 -0.0000
vn 0.7466 -0.6653 -0.0000
vn 0.5358 0.8443 -0.0000
vn 0.8353 0.5498 -0.0000
vn -0.2557 0.9667 -0.0000
vn -0.8724 -0.4889 -0.0000
vn 1.0000 -0.0000 -0.0000
vn -0.8333 0.5529 -0.0000
vn 0.4297 0.9030 -0.0000
vn -0.2795 -0.9601 -0.0000
vn -0.3076 0.9515 -0.0000
vn -0.6489 -0.7609 -0.0000
vn 0.2691 0.9631 -0.0000
vn 0.9933 0.1156 -0.0000
vn -0.1965 0.9805 -0.0000
vn -0.9847 -0.1742 -0.0000
vn -0.3427 -0.9394 -0.0000
vn 0.3089 0.9511 -0.0000
vn 0.6499 -0.7600 -0.0000
vn -0.9999 0.0113 -0.0000
vn -0.4045 -0.9146 -0.0000
vn -0.7453 -0.6668 -0.0000
vn 0.2056 0.9786 -0.0000
vn 0.6639 -0.7478 -0.0000
vn -0.1385 0.9904 -0.0000
vn 0.7697 0.6384 -0.0000
vn -0.4639 -0.8859 -0.0000
vn -0.6654 -0.7465 -0.0000
vn 0.9999 0.0117 -0.0000
vn 0.7460 -0.6659 -0.0000
vn 0.9980 -0.0633 -0.0000
vn -0.9993 0.0381 -0.0000
vn -0.5204 -0.8539 -0.0000
vn -0.1841 0.9829 -0.0000
vn 0.1437 0.9896 -0.0000
vn -0.9971 0.0755 -0.0000
vn 0.9008 0.4342 -0.0000
vn -0.0818 0.9966 -0.0000
vn -0.5734 -0.8193 -0.0000
vn -0.8988 0.4384 -0.0000
vn 0.9987 -0.0514 -0.0000
vn 0.1851 0.9827 -0.0000
vn 0.7296 0.6839 -0.0000
vn -0.6224 -0.7827 -0.0000
vn -0.0606 0.9982 -0.0000
vn -0.8285 -0.5601 -0.0000
vn 0.0841 0.9965 -0.0000
vn -0.9759 0.2182 -0.0000
vn 0.9992 0.0403 -0.0000
vn -0.0268 0.9996 -0.0000
vn -0.9980 -0.0639 -0.0000
vn -0.6673 -0.7448 -0.0000
vn 0.0610 0.9981 -0.0000
vn 0.8289 -0.5593 -0.0000
vn 0.9813 -0.1925 -0.0000
vn -0.9974 0.0715 -0.0000
vn -0.7116 0.7026 -0.0000
vn 0.0273 0.9996 -0.0000
vn 0.9498 0.3128 -0.0000
vn 0.6844 0.7291 -0.0000
vn 0.5560 -0.8312 -0.0000
vn -0.9483 0.3173 -0.0000
vn -0.6892 -0.7246 -0.0000
vn -0.9364 0.3510 -0.0000
vn 0.9970 0.0770 -0.0000
vn -0.1523 -0.9883 -0.0000
vn -0.5591 -0.8291 -0.0000
vn -0.9937 0.1122 -0.0000
vn -0.8964 -0.4432 -0.0000
vn -0.2158 -0.9764 -0.0000
vn 0.6346 -0.7729 -0.0000
vn 0.6339 0.7734 -0.0000
vn -0.8074 0.5900 -0.0000
vn 0.4377 -0.8991 -0.0000
vn -0.5790 -0.8154 -0.0000
vn -0.8804 0.4741 -0.0000
vn 0.9924 0.1233 -0.0000
vn -0.4420 -0.8970 -0.0000
vn 0.8967 -0.4427 -0.0000
vn -0.9477 -0.3192 -0.0000
vn -0.8091 0.5876 -0.0000
vn 0.9867 -0.1627 -0.0000
vn -0.0296 -0.9996 -0.0000
vn 0.5110 -0.8596 -0.0000
vn -0.9870 0.1606 -0.0000
vn 0.3128 -0.9498 -0.0000
vn -0.4659 -0.8848 -0.0000
vn -0.0900 -0.9959 -0.0000
vn -0.3176 -0.9482 -0.0000
vn 0.9478 -0.3189 -0.0000
vn 0.9470 -0.3212 -0.0000
vn -0.8860 0.4637 -0.0000
vn 0.9837 0.1800 -0.0000
vn 0.9822 0.1881 -0.0000
vn 0.3845 -0.9231 -0.0000
vn 0.5778 0.8162 -0.0000
vn -0.9797 -0.2006 -0.0000
vn 0.1856 -0.9826 -0.0000
vn -0.9814 0.1917 -0.0000
vn -0.3546 -0.9350 -0.0000
vn -0.7235 0.6903 -0.0000
vn 0.0440 -0.9990 -0.0000
vn -0.1895 -0.9819 -0.0000
vn -0.9761 0.2171 -0.0000
vn -0.9815 -0.1913 -0.0000
vn 0.1358 -0.9907 -0.0000
vn -0.0620 -0.9981 -0.0000
vn 0.2620 -0.9651 -0.0000
vn 0.5160 0.8566 -0.0000
vn 0.0603 -0.9982 -0.0000
vn -0.2473 -0.9689 -0.0000
vn -0.6251 0.7805 -0.0000
vn 0.9690 0.2472 -0.0000
vn 0.2321 -0.9727 -0.0000
vn -0.9191 -0.3941 -0.0000
vn 0.9815 -0.1912 -0.0000
vn -0.9595 0.2817 -0.0000
vn 0.3327 -0.9430 -0.0000
vn 0.9981 0.0624 -0.0000
vn 0.1486 -0.9889 -0.0000
vn 0.4484 0.8938 -0.0000
vn -0.9980 0.0638 -0.0000
vn -0.1450 -0.9894 -0.0000
vn 0.9463 0.3232 -0.0000
vn 0.4372 -0.8994 -0.0000
vn 0.9193 0.3935 -0.0000
vn 0.8950 -0.4460 -0.0000
vn -0.9200 0.3918 -0.0000
vn -0.9980 -0.0630 -0.0000
vn -0.0474 -0.9989 -0.0000
vn -0.5166 0.8562 -0.0000
vn 0.9587 -0.2844 -0.0000
vn 0.5440 -0.8391 -0.0000
vn 0.0465 -0.9989 -0.0000
vn -0.9354 0.3537 -0.0000
vn -0.9441 0.3296 -0.0000
vn 0.9980 -0.0630 -0.0000
vn 0.3754 0.9269 -0.0000
vn 0.9220 -0.3873 -0.0000
vn -0.9980 -0.0633 -0.0000
vn -0.4011 0.9160 -0.0000
vn 0.9144 0.4048 -0.0000
vn 0.6505 -0.7595 -0.0000
vn -0.9022 0.4314 -0.0000
vn 0.7525 -0.6586 -0.0000
vn 0.9980 0.0633 -0.0000
vn 0.2974 0.9548 -0.0000
vn -0.9393 -0.3431 -0.0000
vn -0.9980 0.0634 -0.0000
vn -0.2828 0.9592 -0.0000
vn 0.8443 -0.5359 -0.0000
vn -0.9810 0.1939 -0.0000
vn 0.8736 0.4866 -0.0000
vn 0.9980 -0.0624 -0.0000
vn -0.0610 0.9981 -0.0000
vn 0.2153 0.9765 -0.0000
vn -0.8588 0.5124 -0.0000
vn -0.1656 0.9862 -0.0000
vn 0.9191 -0.3941 -0.0000
vn 0.9814 0.1919 -0.0000
vn 0.0597 0.9982 -0.0000
vn -0.9814 0.1920 -0.0000
vn 0.8263 0.5632 -0.0000
vn 0.9711 -0.2388 -0.0000
vn 0.1832 0.9831 -0.0000
vn 0.1303 0.9915 -0.0000
vn -0.9980 0.0626 -0.0000
vn -0.1863 0.9825 -0.0000
vn 0.7766 0.6300 -0.0000
vn 0.9823 -0.1873 -0.0000
vn 0.8262 -0.5633 -0.0000
vn -0.8049 0.5934 -0.0000
vn -0.9819 -0.1895 -0.0000
vn -0.0532 0.9986 -0.0000
vn 0.9969 -0.0787 -0.0000
vn 0.3087 0.9512 -0.0000
vn -0.3123 0.9500 -0.0000
vn 0.9107 -0.4130 -0.0000
vn 0.9820 0.1888 -0.0000
vn 0.9476 0.3196 -0.0000
vn 0.0435 0.9991 -0.0000
vn -0.9912 -0.1327 -0.0000
vn -0.9475 0.3199 -0.0000
vn 0.7291 0.6844 -0.0000
vn 0.4322 0.9018 -0.0000
vn -0.7416 0.6709 -0.0000
vn -0.4351 0.9004 -0.0000
vn 0.7422 -0.6702 -0.0000
vn 0.8497 0.5272 -0.0000
vn 0.9506 -0.3105 -0.0000
vn -0.5829 -0.8125 -0.0000
vn -0.9497 -0.3132 -0.0000
vn 0.6839 0.7296 -0.0000
vn 0.6846 0.7289 -0.0000
vn -0.0481 0.9988 -0.0000
vn 0.5498 0.8353 -0.0000
vn -0.5414 -0.8408 -0.0000
vn -0.8754 -0.4834 -0.0000
vn -0.9184 -0.3955 -0.0000
vn -0.8963 0.4435 -0.0000
vn -0.5514 0.8342 -0.0000
vn 0.0256 0.9997 -0.0000
vn -0.6782 0.7348 -0.0000
vn 0.6451 -0.7641 -0.0000
vn 0.5665 0.8240 -0.0000
vn 0.0768 0.9970 -0.0000
vn 0.8965 0.4430 -0.0000
vn 0.6581 0.7530 -0.0000
vn -0.4960 -0.8683 -0.0000
vn -0.7988 -0.6016 -0.0000
vn -0.6581 0.7529 -0.0000
vn 0.1276 0.9918 -0.0000
vn 0.9027 -0.4302 -0.0000
vn -0.6195 0.7850 -0.0000
vn -0.1501 0.9887 -0.0000
vn -0.9016 -0.4325 -0.0000
vn 0.5376 -0.8432 -0.0000
vn 0.5062 0.8624 -0.0000
vn -0.4471 -0.8945 -0.0000
vn -0.8286 0.5598 -0.0000
vn 0.8400 -0.5426 -0.0000
vn 0.4949 0.8689 -0.0000
vn 0.1778 0.9841 -0.0000
vn 0.0605 -0.9982 -0.0000
vn -0.3954 -0.9185 -0.0000
vn -0.6796 -0.7336 -0.0000
vn -0.0601 -0.9982 -0.0000
vn 0.5797 0.8148 -0.0000
vn 0.7782 0.6281 -0.0000
vn 0.2272 0.9738 -0.0000
vn 0.8291 0.5591 -0.0000
vn -0.5595 0.8288 -0.0000
vn -0.7768 0.6298 -0.0000
vn -0.2587 0.9660 -0.0000
vn -0.7459 0.6660 -0.0000
vn -0.1828 -0.9832 -0.0000
vn 0.4224 -0.9064 -0.0000
vn 0.5261 0.8504 -0.0000
vn -0.3415 -0.9399 -0.0000
vn -0.4988 0.8667 -0.0000
vn -0.5890 -0.8081 -0.0000
vn 0.2756 0.9613 -0.0000
vn 0.7467 0.6651 -0.0000
vn 0.1837 -0.9830 -0.0000
vn -0.2862 -0.9582 -0.0000
vn -0.3058 -0.9521 -0.0000
vn 0.5217 0.8531 -0.0000
vn 0.5963 0.8028 -0.0000
vn 0.3228 0.9465 -0.0000
vn 0.8387 -0.5446 -0.0000
vn -0.4377 0.8991 -0.0000
vn -0.5353 -0.8447 -0.0000
vn -0.3725 0.9280 -0.0000
vn -0.8379 -0.5459 -0.0000
vn 0.3025 -0.9532 -0.0000
vn 0.3071 -0.9517 -0.0000
vn -0.2307 -0.9730 -0.0000
vn -0.6501 0.7599 -0.0000
vn 0.4608 0.8875 -0.0000
vn 0.7008 0.7134 -0.0000
vn 0.3686 0.9296 -0.0000
vn 0.7539 0.6570 -0.0000
vn -0.1758 -0.9844 -0.0000
vn -0.7902 -0.6128 -0.0000
vn -0.5192 -0.8547 -0.0000
vn -0.7526 0.6584 -0.0000
vn -0.7826 -0.6225 -0.0000
vn 0.4130 0.9108 -0.0000
vn 0.6512 0.7589 -0.0000
vn -0.3766 0.9264 -0.0000
vn -0.4887 0.8724 -0.0000
vn -0.5434 0.8395 -0.0000
vn -0.4264 -0.9046 -0.0000
vn 0.1805 -0.9836 -0.0000
vn 0.8244 0.5660 -0.0000
vt 0.181818 0.000000
vt 0.090909 0.000000
vt 0.909091 0.000000
vt 0.000000 0.000000
vt 1.000000 0.000000
vt 0.818182 0.000000
vt 0.545455 0.000000
vt 0.727273 0.000000
vt 0.636364 0.000000
vt 0.454545 0.000000
vt 0.363636 0.000000
vt 0.272727 0.000000
vt 0.357143 0.000000
vt 0.285714 0.000000
vt 0.214286 0.000000
vt 0.500000 0.000000
vt 0.571429 0.000000
vt 0.142857 0.000000
vt 0.071429 0.000000
vt 0.785714 0.000000
vt 0.857143 0.000000
vt 0.428571 0.000000
vt 0.642857 0.000000
vt 0.714286 0.000000
vt 0.928571 0.000000
vt 0.688312 0.000000
vt 0.675325 0.000000
vt 0.662338 0.000000
vt 0.649351 0.000000
vt 0.025974 0.000000
vt 0.012987 0.000000
vt 0.038961 0.000000
vt 0.051948 0.000000
vt 0.987013 0.000000
vt 0.623377 0.000000
vt 0.701299 0.000000
vt 0.064935 0.000000
vt 0.610390 0.000000
vt 0.077922 0.000000
vt 0.597403 0.000000
vt 0.974026 0.000000
vt 0.584416 0.000000
vt 0.103896 0.000000
vt 0.116883 0.000000
vt 0.558442 0.000000
vt 0.961039 0.000000
vt 0.129870 0.000000
vt 0.532468 0.000000
vt 0.155844 0.000000
vt 0.519481 0.000000
vt 0.506494 0.000000
vt 0.168831 0.000000
vt 0.948052 0.000000
vt 0.493506 0.000000
vt 0.480519 0.000000
vt 0.740260 0.000000
vt 0.194805 0.000000
vt 0.467532 0.000000
vt 0.207792 0.000000
vt 0.935065 0.000000
vt 0.220779 0.000000
vt 0.233766 0.000000
vt 0.441558 0.000000
vt 0.246753 0.000000
vt 0.753247 0.000000
vt 0.259740 0.000000
vt 0.415584 0.000000
vt 0.402597 0.000000
vt 0.922078 0.000000
vt 0.389610 0.000000
vt 0.298701 0.000000
vt 0.376623 0.000000
vt 0.311688 0.000000
vt 0.324675 0.000000
vt 0.350649 0.000000
vt 0.337662 0.000000
vt 0.766234 0.000000
vt 0.779221 0.000000
vt 0.896104 0.000000
vt 0.792208 0.000000
vt 0.883117 0.000000
vt 0.805195 0.000000
vt 0.870130 0.000000
vt 0.831169 0.000000
vt 0.844156 0.000000
vt 0.400000 0.000000
vt 0.200000 0.000000
vt 0.800000 0.000000
vt 0.600000 0.000000
vt 0.389474 0.000000
vt 0.378947 0.000000
vt 0.368421 0.000000
vt 0.357895 0.000000
vt 0.347368 0.000000
vt 0.410526 0.000000
vt 0.336842 0.000000
vt 0.421053 0.000000
vt 0.326316 0.000000
vt 0.431579 0.000000
vt 0.315789 0.000000
vt 0.442105 0.000000
vt 0.631579 0.000000
vt 0.621053 0.000000
vt 0.642105 0.000000
vt 0.652632 0.000000
vt 0.610526 0.000000
vt 0.663158 0.000000
vt 0.305263 0.000000
vt 0.452632 0.000000
vt 0.673684 0.000000
vt 0.589474 0.000000
vt 0.684211 0.000000
vt 0.578947 0.000000
vt 0.294737 0.000000
vt 0.463158 0.000000
vt 0.694737 0.000000
vt 0.568421 0.000000
vt 0.705263 0.000000
vt 0.557895 0.000000
vt 0.284211 0.000000
vt 0.473684 0.000000
vt 0.715789 0.000000
vt 0.547368 0.000000
vt 0.273684 0.000000
vt 0.484211 0.000000
vt 0.726316 0.000000
vt 0.536842 0.000000
vt 0.736842 0.000000
vt 0.526316 0.000000
vt 0.263158 0.000000
vt 0.494737 0.000000
vt 0.747368 0.000000
vt 0.515789 0.000000
vt 0.252632 0.000000
vt 0.757895 0.000000
vt 0.505263 0.000000
vt 0.010526 0.000000
vt 0.768421 0.000000
vt 0.242105 0.000000
vt 0.989474 0.000000
vt 0.778947 0.000000
vt 0.231579 0.000000
vt 0.021053 0.000000
vt 0.978947 0.000000
vt 0.789474 0.000000
vt 0.221053 0.000000
vt 0.031579 0.000000
vt 0.968421 0.000000
vt 0.210526 0.000000
vt 0.042105 0.000000
vt 0.810526 0.000000
vt 0.957895 0.000000
vt 0.821053 0.000000
vt 0.947368 0.000000
vt 0.052632 0.000000
vt 0.831579 0.000000
vt 0.936842 0.000000
vt 0.842105 0.000000
vt 0.926316 0.000000
vt 0.189474 0.000000
vt 0.063158 0.000000
vt 0.852632 0.000000
vt 0.915789 0.000000
vt 0.863158 0.000000
vt 0.905263 0.000000
vt 0.178947 0.000000
vt 0.073684 0.000000
vt 0.873684 0.000000
vt 0.894737 0.000000
vt 0.884211 0.000000
vt 0.168421 0.000000
vt 0.084211 0.000000
vt 0.157895 0.000000
vt 0.094737 0.000000
vt 0.147368 0.000000
vt 0.105263 0.000000
vt 0.136842 0.000000
vt 0.115789 0.000000
vt 0.126316 0.000000
vt 0.833333 0.000000
vt 0.666667 0.000000
vt 0.333333 0.000000
vt 0.166667 0.000000
vt 0.107438 0.000000
vt 0.099174 0.000000
vt 0.082645 0.000000
vt 0.074380 0.000000
vt 0.115702 0.000000
vt 0.066116 0.000000
vt 0.057851 0.000000
vt 0.123967 0.000000
vt 0.049587 0.000000
vt 0.041322 0.000000
vt 0.132231 0.000000
vt 0.033058 0.000000
vt 0.024793 0.000000
vt 0.140496 0.000000
vt 0.016529 0.000000
vt 0.008264 0.000000
vt 0.148760 0.000000
vt 0.933884 0.000000
vt 0.942149 0.000000
vt 0.950413 0.000000
vt 0.958678 0.000000
vt 0.966942 0.000000
vt 0.975207 0.000000
vt 0.983471 0.000000
vt 0.991736 0.000000
vt 0.157025 0.000000
vt 0.917355 0.000000
vt 0.925620 0.000000
vt 0.165289 0.000000
vt 0.900826 0.000000
vt 0.173554 0.000000
vt 0.892562 0.000000
vt 0.884298 0.000000
vt 0.876033 0.000000
vt 0.867769 0.000000
vt 0.859504 0.000000
vt 0.851240 0.000000
vt 0.842975 0.000000
vt 0.834711 0.000000
vt 0.826446 0.000000
vt 0.190083 0.000000
vt 0.809917 0.000000
vt 0.198347 0.000000
vt 0.801653 0.000000
vt 0.793388 0.000000
vt 0.206612 0.000000
vt 0.785124 0.000000
vt 0.776860 0.000000
vt 0.214876 0.000000
vt 0.768595 0.000000
vt 0.223140 0.000000
vt 0.760331 0.000000
vt 0.752066 0.000000
vt 0.231405 0.000000
vt 0.743802 0.000000
vt 0.239669 0.000000
vt 0.735537 0.000000
vt 0.247934 0.000000
vt 0.256198 0.000000
vt 0.719008 0.000000
vt 0.264463 0.000000
vt 0.710744 0.000000
vt 0.280992 0.000000
vt 0.289256 0.000000
vt 0.702479 0.000000
vt 0.297521 0.000000
vt 0.504132 0.000000
vt 0.495868 0.000000
vt 0.487603 0.000000
vt 0.694215 0.000000
vt 0.305785 0.000000
vt 0.479339 0.000000
vt 0.314050 0.000000
vt 0.685950 0.000000
vt 0.471074 0.000000
vt 0.322314 0.000000
vt 0.462810 0.000000
vt 0.330579 0.000000
vt 0.338843 0.000000
vt 0.677686 0.000000
vt 0.347107 0.000000
vt 0.446281 0.000000
vt 0.355372 0.000000
vt 0.438017 0.000000
vt 0.669421 0.000000
vt 0.429752 0.000000
vt 0.371901 0.000000
vt 0.421488 0.000000
vt 0.380165 0.000000
vt 0.413223 0.000000
vt 0.388430 0.000000
vt 0.404959 0.000000
vt 0.661157 0.000000
vt 0.396694 0.000000
vt 0.652893 0.000000
vt 0.512397 0.000000
vt 0.520661 0.000000
vt 0.644628 0.000000
vt 0.528926 0.000000
vt 0.537190 0.000000
vt 0.628099 0.000000
vt 0.553719 0.000000
vt 0.561983 0.000000
vt 0.619835 0.000000
vt 0.570248 0.000000
vt 0.578512 0.000000
vt 0.611570 0.000000
vt 0.586777 0.000000
vt 0.595041 0.000000
vt 0.603306 0.000000
vt 0.429018 0.942258
vt 0.758028 0.887977
vt 0.806770 0.942258
vt 0.806770 0.727904
vt 0.758028 0.727904
vt 0.643927 0.887977
vt 0.595185 0.887977
vt 0.643927 0.733442
vt 0.595185 0.733442
vt 0.477761 0.887977
vt 0.477761 0.722919
vt 0.429018 0.722918
vt 0.647465 0.420807
vt 0.698423 0.798559
vt 0.647465 0.798559
vt 0.701746 0.714922
vt 0.702854 0.714922
vt 0.823601 0.643470
vt 0.999738 0.798559
vt 0.949334 0.798559
vt 0.944349 0.714922
vt 0.945457 0.714922
vt 0.999738 0.420807
vt 0.701746 0.420807
vt 0.819170 0.568695
vt 0.828033 0.568695
vt 0.945457 0.420807
vt 0.319463 0.410771
vt 0.373744 0.645621
vt 0.319463 0.645621
vt 0.373744 0.422403
vt 0.590314 0.425725
vt 0.644595 0.645618
vt 0.590314 0.645618
vt 0.644595 0.416309
vt 0.590216 0.417025
vt 0.373863 0.412246
vt 0.589896 0.408650
vt 0.643440 0.393859
vt 0.374234 0.403043
vt 0.321035 0.386220
vt 0.589319 0.400601
vt 0.374878 0.394709
vt 0.588447 0.392882
vt 0.375816 0.387159
vt 0.639971 0.372827
vt 0.587245 0.385493
vt 0.377070 0.380310
vt 0.325576 0.364045
vt 0.585675 0.378438
vt 0.378660 0.374076
vt 0.583702 0.371716
vt 0.380608 0.368373
vt 0.634183 0.353314
vt 0.581288 0.365331
vt 0.382935 0.363116
vt 0.578397 0.359285
vt 0.332826 0.344201
vt 0.385662 0.358221
vt 0.574992 0.353579
vt 0.388810 0.353603
vt 0.392400 0.349177
vt 0.571038 0.348216
vt 0.626071 0.335422
vt 0.396454 0.344858
vt 0.566497 0.343196
vt 0.401970 0.339688
vt 0.342522 0.326642
vt 0.561940 0.338990
vt 0.407717 0.334978
vt 0.556855 0.334978
vt 0.615627 0.319253
vt 0.413694 0.330725
vt 0.551248 0.331193
vt 0.545121 0.327667
vt 0.419902 0.326929
vt 0.538479 0.324434
vt 0.426341 0.323586
vt 0.354402 0.311321
vt 0.531325 0.321526
vt 0.433011 0.320695
vt 0.523664 0.318975
vt 0.439911 0.318254
vt 0.602846 0.304909
vt 0.515499 0.316815
vt 0.447043 0.316261
vt 0.506833 0.315078
vt 0.454405 0.314715
vt 0.497671 0.313797
vt 0.461998 0.313612
vt 0.488018 0.313004
vt 0.469821 0.312952
vt 0.477875 0.312733
vt 0.368206 0.298193
vt 0.587723 0.292493
vt 0.383671 0.287212
vt 0.570251 0.282105
vt 0.400536 0.278330
vt 0.550426 0.273848
vt 0.418540 0.271503
vt 0.528240 0.267824
vt 0.437421 0.266683
vt 0.503690 0.264135
vt 0.456917 0.263825
vt 0.476767 0.262883
vt 0.002026 0.702075
vt 0.379777 0.647794
vt 0.379777 0.702075
vt 0.050768 0.647794
vt 0.050768 0.477196
vt 0.002026 0.477196
vt 0.330568 0.339825
vt 0.357804 0.297889
vt 0.345345 0.319847
vt 0.366929 0.275788
vt 0.314225 0.356908
vt 0.372843 0.253735
vt 0.296557 0.371120
vt 0.375672 0.231924
vt 0.277802 0.382484
vt 0.375537 0.210549
vt 0.258200 0.391024
vt 0.372562 0.189801
vt 0.237781 0.395969
vt 0.318987 0.275165
vt 0.316240 0.277895
vt 0.325837 0.261782
vt 0.330698 0.248007
vt 0.301854 0.294808
vt 0.333767 0.234031
vt 0.285863 0.309300
vt 0.375272 0.168857
vt 0.211953 0.401386
vt 0.336228 0.219533
vt 0.268794 0.321362
vt 0.336862 0.204882
vt 0.250626 0.330899
vt 0.375672 0.147094
vt 0.185588 0.403385
vt 0.336710 0.189618
vt 0.231796 0.337878
vt 0.334601 0.174193
vt 0.212330 0.342181
vt 0.373266 0.124116
vt 0.158769 0.401894
vt 0.331402 0.157977
vt 0.192574 0.343796
vt 0.366756 0.100171
vt 0.131715 0.396852
vt 0.326397 0.141338
vt 0.172650 0.342646
vt 0.318833 0.124932
vt 0.152724 0.338478
vt 0.355716 0.075872
vt 0.104492 0.387600
vt 0.308686 0.108833
vt 0.133151 0.331242
vt 0.339457 0.052042
vt 0.077666 0.373792
vt 0.295612 0.093594
vt 0.114321 0.320781
vt 0.055769 0.354217
vt 0.097596 0.307536
vt 0.280105 0.080577
vt 0.317802 0.034016
vt 0.083793 0.292513
vt 0.263253 0.070337
vt 0.294399 0.019973
vt 0.037882 0.332640
vt 0.072780 0.276147
vt 0.245478 0.062874
vt 0.269820 0.009752
vt 0.023648 0.309641
vt 0.227138 0.058148
vt 0.064477 0.258787
vt 0.244506 0.003229
vt 0.012896 0.285584
vt 0.208537 0.056102
vt 0.058813 0.240720
vt 0.189931 0.056709
vt 0.055771 0.222201
vt 0.218917 0.000354
vt 0.005528 0.260856
vt 0.171561 0.059868
vt 0.055248 0.203439
vt 0.153625 0.065562
vt 0.057269 0.184632
vt 0.193309 0.000970
vt 0.001393 0.235589
vt 0.136338 0.073731
vt 0.061780 0.165977
vt 0.119897 0.084363
vt 0.068812 0.147671
vt 0.167870 0.005077
vt 0.000512 0.209891
vt 0.104505 0.097424
vt 0.078341 0.129897
vt 0.090371 0.112897
vt 0.142737 0.012765
vt 0.002885 0.183944
vt 0.118123 0.024153
vt 0.008893 0.157880
vt 0.094310 0.039357
vt 0.018685 0.131968
vt 0.071576 0.058493
vt 0.032406 0.106476
vt 0.050204 0.081673
vt 0.375400 0.188667
vt 0.756475 0.297783
vt 0.756475 0.352064
vt 0.491163 0.184236
vt 0.756475 0.017515
vt 0.756475 0.071243
vt 0.375400 0.177589
vt 0.004078 0.923783
vt 0.333088 0.869502
vt 0.381830 0.923783
vt 0.381830 0.709428
vt 0.333088 0.709428
vt 0.218987 0.869502
vt 0.170245 0.869502
vt 0.218987 0.714967
vt 0.170245 0.714967
vt 0.052820 0.869502
vt 0.052820 0.704443
vt 0.004078 0.704443
vt 0.489421 0.330474
vt 0.465417 0.330054
vt 0.472615 0.329808
vt 0.458231 0.330669
vt 0.451063 0.331653
vt 0.505173 0.332728
vt 0.443921 0.333006
vt 0.436814 0.334729
vt 0.519796 0.336512
vt 0.429748 0.336820
vt 0.422731 0.339280
vt 0.533214 0.341765
vt 0.415771 0.342109
vt 0.408876 0.345306
vt 0.545352 0.348429
vt 0.402053 0.348872
vt 0.395310 0.352807
vt 0.556134 0.356445
vt 0.388655 0.357110
vt 0.450331 0.382167
vt 0.443097 0.384340
vt 0.435715 0.387104
vt 0.428200 0.390505
vt 0.420567 0.394585
vt 0.412833 0.399390
vt 0.405013 0.404962
vt 0.397123 0.411347
vt 0.389179 0.418588
vt 0.565487 0.365752
vt 0.464294 0.379444
vt 0.457406 0.380568
vt 0.573333 0.376293
vt 0.477467 0.378531
vt 0.470986 0.378780
vt 0.579597 0.388010
vt 0.485977 0.378831
vt 0.494026 0.379863
vt 0.501562 0.381591
vt 0.508533 0.383982
vt 0.514886 0.387001
vt 0.520569 0.390615
vt 0.584204 0.400844
vt 0.525531 0.394789
vt 0.529717 0.399489
vt 0.533078 0.404681
vt 0.587077 0.414735
vt 0.535559 0.410331
vt 0.537110 0.416405
vt 0.588142 0.429625
vt 0.537678 0.422868
vt 0.534610 0.439613
vt 0.585138 0.453667
vt 0.525848 0.454016
vt 0.512532 0.466743
vt 0.576431 0.474383
vt 0.495803 0.478461
vt 0.563162 0.492331
vt 0.476802 0.489838
vt 0.456669 0.501541
vt 0.546468 0.508070
vt 0.436545 0.514236
vt 0.527491 0.522160
vt 0.417570 0.528590
vt 0.507369 0.535160
vt 0.400885 0.545270
vt 0.487243 0.547629
vt 0.387630 0.564943
vt 0.468252 0.560127
vt 0.451535 0.573212
vt 0.378947 0.588277
vt 0.438233 0.587444
vt 0.429484 0.603383
vt 0.375975 0.615938
vt 0.426429 0.621587
vt 0.588142 0.681649
vt 0.580543 0.621558
vt 0.587538 0.612970
vt 0.377020 0.630395
vt 0.426882 0.626942
vt 0.573258 0.629467
vt 0.428155 0.632409
vt 0.379827 0.644073
vt 0.565703 0.636686
vt 0.430259 0.637876
vt 0.557893 0.643203
vt 0.433205 0.643232
vt 0.437002 0.648365
vt 0.384297 0.656879
vt 0.549846 0.649007
vt 0.441662 0.653164
vt 0.541580 0.654086
vt 0.447195 0.657516
vt 0.533110 0.658428
vt 0.390327 0.668719
vt 0.453612 0.661311
vt 0.524455 0.662022
vt 0.460923 0.664436
vt 0.515632 0.664855
vt 0.469138 0.666780
vt 0.506658 0.666917
vt 0.478269 0.668231
vt 0.497550 0.668195
vt 0.397817 0.679500
vt 0.488326 0.668678
vt 0.406667 0.689129
vt 0.580261 0.687408
vt 0.572286 0.692643
vt 0.416775 0.697512
vt 0.564194 0.697360
vt 0.428041 0.704555
vt 0.555965 0.701564
vt 0.547578 0.705262
vt 0.440363 0.710166
vt 0.539011 0.708460
vt 0.530244 0.711163
vt 0.453641 0.714252
vt 0.521255 0.713378
vt 0.512024 0.715110
vt 0.467774 0.716718
vt 0.502529 0.716366
vt 0.492748 0.717151
vt 0.482662 0.717471
s 0
usemtl マテリアル
f 3/1/1 2/2/1 11/3/1
f 11/3/1 2/2/1 1/4/1
f 11/3/1 1/4/1 12/5/1
f 3/1/1 11/3/1 10/6/1
f 3/1/1 10/6/1 7/7/1
f 7/7/1 10/6/1 9/8/1
f 7/7/1 9/8/1 8/9/1
f 3/1/1 7/7/1 6/10/1
f 3/1/1 6/10/1 5/11/1
f 3/1/1 5/11/1 4/12/1
f 18/13/1 17/14/1 16/15/1
f 18/13/1 16/15/1 20/16/1
f 20/16/1 16/15/1 21/17/1
f 21/17/1 16/15/1 15/18/1
f 15/18/1 14/19/1 13/4/1
f 15/18/1 13/4/1 24/20/1
f 24/20/1 13/4/1 25/21/1
f 25/21/1 13/4/1 27/5/1
f 18/13/1 20/16/1 19/22/1
f 22/23/1 21/17/1 15/18/1
f 15/18/1 24/20/1 23/24/1
f 26/25/1 25/21/1 27/5/1
f 22/23/1 15/18/1 23/24/1
f 81/26/1 80/27/1 79/28/1
f 81/26/1 79/28/1 78/29/1
f 30/30/1 29/31/1 28/4/1
f 30/30/1 28/4/1 105/5/1
f 31/32/1 30/30/1 105/5/1
f 81/26/1 78/29/1 77/9/1
f 32/33/1 31/32/1 105/5/1
f 32/33/1 105/5/1 104/34/1
f 81/26/1 77/9/1 76/35/1
f 82/36/1 81/26/1 76/35/1
f 33/37/1 32/33/1 104/34/1
f 82/36/1 76/35/1 75/38/1
f 34/39/1 33/37/1 104/34/1
f 82/36/1 75/38/1 74/40/1
f 34/39/1 104/34/1 103/41/1
f 35/2/1 34/39/1 103/41/1
f 82/36/1 74/40/1 73/42/1
f 83/24/1 82/36/1 73/42/1
f 36/43/1 35/2/1 103/41/1
f 83/24/1 73/42/1 72/17/1
f 37/44/1 36/43/1 103/41/1
f 83/24/1 72/17/1 71/45/1
f 37/44/1 103/41/1 102/46/1
f 38/47/1 37/44/1 102/46/1
f 83/24/1 71/45/1 70/7/1
f 39/18/1 38/47/1 102/46/1
f 84/8/1 83/24/1 70/7/1
f 84/8/1 70/7/1 69/48/1
f 40/49/1 39/18/1 102/46/1
f 84/8/1 69/48/1 68/50/1
f 84/8/1 68/50/1 67/51/1
f 41/52/1 40/49/1 102/46/1
f 41/52/1 102/46/1 101/53/1
f 84/8/1 67/51/1 66/54/1
f 42/1/1 41/52/1 101/53/1
f 84/8/1 66/54/1 65/55/1
f 85/56/1 84/8/1 65/55/1
f 43/57/1 42/1/1 101/53/1
f 85/56/1 65/55/1 64/58/1
f 44/59/1 43/57/1 101/53/1
f 44/59/1 101/53/1 100/60/1
f 85/56/1 64/58/1 63/10/1
f 45/61/1 44/59/1 100/60/1
f 46/62/1 45/61/1 100/60/1
f 85/56/1 63/10/1 62/63/1
f 47/64/1 46/62/1 100/60/1
f 85/56/1 62/63/1 61/22/1
f 86/65/1 85/56/1 61/22/1
f 48/66/1 47/64/1 100/60/1
f 86/65/1 61/22/1 60/67/1
f 49/12/1 48/66/1 100/60/1
f 86/65/1 60/67/1 59/68/1
f 49/12/1 100/60/1 99/69/1
f 50/14/1 49/12/1 99/69/1
f 86/65/1 59/68/1 58/70/1
f 51/71/1 50/14/1 99/69/1
f 86/65/1 58/70/1 57/72/1
f 52/73/1 51/71/1 99/69/1
f 86/65/1 57/72/1 56/11/1
f 53/74/1 52/73/1 99/69/1
f 86/65/1 56/11/1 55/75/1
f 54/76/1 53/74/1 99/69/1
f 86/65/1 55/75/1 54/76/1
f 86/65/1 54/76/1 99/69/1
f 87/77/1 86/65/1 99/69/1
f 87/77/1 99/69/1 98/3/1
f 88/78/1 87/77/1 98/3/1
f 88/78/1 98/3/1 97/79/1
f 89/80/1 88/78/1 97/79/1
f 89/80/1 97/79/1 96/81/1
f 90/82/1 89/80/1 96/81/1
f 90/82/1 96/81/1 95/83/1
f 91/6/1 90/82/1 95/83/1
f 91/6/1 95/83/1 94/21/1
f 92/84/1 91/6/1 94/21/1
f 92/84/1 94/21/1 93/85/1
f 108/86/1 107/87/1 106/4/1
f 108/86/1 106/4/1 111/5/1
f 108/86/1 111/5/1 110/88/1
f 108/86/1 110/88/1 109/89/1
f 149/90/1 148/91/1 147/92/1
f 149/90/1 147/92/1 146/93/1
f 150/86/1 149/90/1 146/93/1
f 150/86/1 146/93/1 145/94/1
f 151/95/1 150/86/1 145/94/1
f 151/95/1 145/94/1 144/96/1
f 152/97/1 151/95/1 144/96/1
f 152/97/1 144/96/1 143/98/1
f 153/99/1 152/97/1 143/98/1
f 153/99/1 143/98/1 142/100/1
f 154/101/1 153/99/1 172/102/1
f 172/102/1 153/99/1 142/100/1
f 154/101/1 172/102/1 171/103/1
f 173/104/1 172/102/1 142/100/1
f 174/105/1 173/104/1 142/100/1
f 154/101/1 171/103/1 170/106/1
f 175/107/1 174/105/1 142/100/1
f 154/101/1 170/106/1 169/89/1
f 175/107/1 142/100/1 141/108/1
f 155/109/1 154/101/1 169/89/1
f 176/110/1 175/107/1 141/108/1
f 155/109/1 169/89/1 168/111/1
f 177/112/1 176/110/1 141/108/1
f 155/109/1 168/111/1 167/113/1
f 177/112/1 141/108/1 140/114/1
f 156/115/1 155/109/1 167/113/1
f 178/116/1 177/112/1 140/114/1
f 156/115/1 167/113/1 166/117/1
f 179/118/1 178/116/1 140/114/1
f 156/115/1 166/117/1 165/119/1
f 179/118/1 140/114/1 139/120/1
f 157/121/1 156/115/1 165/119/1
f 180/122/1 179/118/1 139/120/1
f 157/121/1 165/119/1 164/123/1
f 180/122/1 139/120/1 138/124/1
f 158/125/1 157/121/1 164/123/1
f 181/126/1 180/122/1 138/124/1
f 158/125/1 164/123/1 163/127/1
f 182/128/1 181/126/1 138/124/1
f 158/125/1 163/127/1 162/129/1
f 182/128/1 138/124/1 137/130/1
f 159/131/1 158/125/1 162/129/1
f 183/132/1 182/128/1 137/130/1
f 159/131/1 162/129/1 161/133/1
f 183/132/1 137/130/1 136/134/1
f 112/4/1 159/131/1 161/133/1
f 184/135/1 183/132/1 136/134/1
f 112/4/1 161/133/1 160/136/1
f 113/137/1 112/4/1 160/136/1
f 113/137/1 160/136/1 207/5/1
f 185/138/1 184/135/1 136/134/1
f 185/138/1 136/134/1 135/139/1
f 113/137/1 207/5/1 206/140/1
f 186/141/1 185/138/1 135/139/1
f 186/141/1 135/139/1 134/142/1
f 114/143/1 113/137/1 206/140/1
f 114/143/1 206/140/1 205/144/1
f 187/145/1 186/141/1 134/142/1
f 187/145/1 134/142/1 133/146/1
f 115/147/1 114/143/1 205/144/1
f 188/88/1 187/145/1 133/146/1
f 115/147/1 205/144/1 204/148/1
f 188/88/1 133/146/1 132/149/1
f 116/150/1 115/147/1 204/148/1
f 189/151/1 188/88/1 132/149/1
f 116/150/1 204/148/1 203/152/1
f 190/153/1 189/151/1 132/149/1
f 116/150/1 203/152/1 202/154/1
f 190/153/1 132/149/1 131/87/1
f 117/155/1 116/150/1 202/154/1
f 191/156/1 190/153/1 131/87/1
f 117/155/1 202/154/1 201/157/1
f 192/158/1 191/156/1 131/87/1
f 117/155/1 201/157/1 200/159/1
f 192/158/1 131/87/1 130/160/1
f 118/161/1 117/155/1 200/159/1
f 193/162/1 192/158/1 130/160/1
f 118/161/1 200/159/1 199/163/1
f 194/164/1 193/162/1 130/160/1
f 118/161/1 199/163/1 198/165/1
f 194/164/1 130/160/1 129/166/1
f 119/167/1 118/161/1 198/165/1
f 195/168/1 194/164/1 129/166/1
f 119/167/1 198/165/1 197/169/1
f 196/170/1 195/168/1 129/166/1
f 119/167/1 197/169/1 196/170/1
f 119/167/1 196/170/1 129/166/1
f 119/167/1 129/166/1 128/171/1
f 120/172/1 119/167/1 128/171/1
f 120/172/1 128/171/1 127/173/1
f 121/174/1 120/172/1 127/173/1
f 121/174/1 127/173/1 126/175/1
f 122/176/1 121/174/1 126/175/1
f 122/176/1 126/175/1 125/177/1
f 123/178/1 122/176/1 125/177/1
f 123/178/1 125/177/1 124/179/1
f 213/180/1 212/181/1 211/16/1
f 213/180/1 211/16/1 210/182/1
f 210/182/1 209/183/1 208/4/1
f 210/182/1 208/4/1 214/5/1
f 213/180/1 210/182/1 214/5/1
f 217/1/1 216/2/1 225/3/1
f 225/3/1 216/2/1 215/4/1
f 225/3/1 215/4/1 226/5/1
f 217/1/1 225/3/1 224/6/1
f 217/1/1 224/6/1 221/7/1
f 221/7/1 224/6/1 223/8/1
f 221/7/1 223/8/1 222/9/1
f 217/1/1 221/7/1 220/10/1
f 217/1/1 220/10/1 219/11/1
f 217/1/1 219/11/1 218/12/1
f 240/184/1 239/185/1 238/2/1
f 240/184/1 238/2/1 237/186/1
f 240/184/1 237/186/1 236/187/1
f 241/188/1 240/184/1 236/187/1
f 241/188/1 236/187/1 235/189/1
f 241/188/1 235/189/1 234/190/1
f 242/191/1 241/188/1 234/190/1
f 242/191/1 234/190/1 233/192/1
f 242/191/1 233/192/1 232/193/1
f 243/194/1 242/191/1 232/193/1
f 243/194/1 232/193/1 231/195/1
f 243/194/1 231/195/1 230/196/1
f 244/197/1 243/194/1 230/196/1
f 244/197/1 230/196/1 229/198/1
f 244/197/1 229/198/1 228/199/1
f 245/200/1 244/197/1 228/199/1
f 245/200/1 228/199/1 227/4/1
f 245/200/1 227/4/1 340/201/1
f 340/201/1 227/4/1 341/202/1
f 341/202/1 227/4/1 342/203/1
f 342/203/1 227/4/1 343/204/1
f 343/204/1 227/4/1 344/205/1
f 344/205/1 227/4/1 345/206/1
f 345/206/1 227/4/1 346/207/1
f 346/207/1 227/4/1 347/208/1
f 347/208/1 227/4/1 348/5/1
f 246/209/1 245/200/1 338/210/1
f 338/210/1 245/200/1 339/211/1
f 339/211/1 245/200/1 340/201/1
f 247/212/1 246/209/1 336/213/1
f 336/213/1 246/209/1 337/3/1
f 337/3/1 246/209/1 338/210/1
f 248/214/1 247/212/1 335/215/1
f 335/215/1 247/212/1 336/213/1
f 248/214/1 335/215/1 334/216/1
f 248/214/1 334/216/1 333/217/1
f 248/214/1 333/217/1 332/218/1
f 248/214/1 332/218/1 331/219/1
f 248/214/1 331/219/1 330/220/1
f 249/1/1 248/214/1 330/220/1
f 249/1/1 330/220/1 329/221/1
f 249/1/1 329/221/1 328/222/1
f 249/1/1 328/222/1 327/223/1
f 250/224/1 249/1/1 327/223/1
f 250/224/1 327/223/1 326/6/1
f 250/224/1 326/6/1 325/225/1
f 251/226/1 250/224/1 325/225/1
f 251/226/1 325/225/1 324/227/1
f 251/226/1 324/227/1 323/228/1
f 252/229/1 251/226/1 323/228/1
f 252/229/1 323/228/1 322/230/1
f 252/229/1 322/230/1 321/231/1
f 253/232/1 252/229/1 321/231/1
f 253/232/1 321/231/1 320/233/1
f 254/234/1 253/232/1 320/233/1
f 254/234/1 320/233/1 319/235/1
f 254/234/1 319/235/1 318/236/1
f 255/237/1 254/234/1 318/236/1
f 255/237/1 318/236/1 317/238/1
f 256/239/1 255/237/1 317/238/1
f 256/239/1 317/238/1 316/240/1
f 257/241/1 256/239/1 316/240/1
f 257/241/1 316/240/1 315/8/1
f 258/242/1 257/241/1 315/8/1
f 258/242/1 315/8/1 314/243/1
f 259/244/1 258/242/1 314/243/1
f 260/12/1 259/244/1 314/243/1
f 260/12/1 314/243/1 313/245/1
f 261/246/1 260/12/1 313/245/1
f 262/247/1 261/246/1 313/245/1
f 262/247/1 313/245/1 312/248/1
f 263/249/1 262/247/1 312/248/1
f 288/250/1 287/251/1 286/252/1
f 263/249/1 312/248/1 311/253/1
f 264/254/1 263/249/1 311/253/1
f 288/250/1 286/252/1 285/255/1
f 265/256/1 264/254/1 311/253/1
f 265/256/1 311/253/1 310/257/1
f 288/250/1 285/255/1 284/258/1
f 266/259/1 265/256/1 310/257/1
f 288/250/1 284/258/1 283/260/1
f 267/261/1 266/259/1 310/257/1
f 268/262/1 267/261/1 310/257/1
f 268/262/1 310/257/1 309/263/1
f 288/250/1 283/260/1 282/10/1
f 269/264/1 268/262/1 309/263/1
f 288/250/1 282/10/1 281/265/1
f 270/266/1 269/264/1 309/263/1
f 288/250/1 281/265/1 280/267/1
f 270/266/1 309/263/1 308/268/1
f 271/11/1 270/266/1 308/268/1
f 288/250/1 280/267/1 279/269/1
f 272/270/1 271/11/1 308/268/1
f 288/250/1 279/269/1 278/271/1
f 273/272/1 272/270/1 308/268/1
f 288/250/1 278/271/1 277/273/1
f 274/274/1 273/272/1 308/268/1
f 288/250/1 277/273/1 276/275/1
f 274/274/1 308/268/1 307/276/1
f 275/277/1 274/274/1 307/276/1
f 288/250/1 276/275/1 275/277/1
f 288/250/1 275/277/1 307/276/1
f 288/250/1 307/276/1 306/278/1
f 289/279/1 288/250/1 306/278/1
f 290/280/1 289/279/1 306/278/1
f 290/280/1 306/278/1 305/281/1
f 291/282/1 290/280/1 305/281/1
f 291/282/1 305/281/1 304/9/1
f 292/283/1 291/282/1 304/9/1
f 293/7/1 292/283/1 304/9/1
f 293/7/1 304/9/1 303/284/1
f 294/285/1 293/7/1 303/284/1
f 295/286/1 294/285/1 303/284/1
f 295/286/1 303/284/1 302/287/1
f 296/288/1 295/286/1 302/287/1
f 297/289/1 296/288/1 302/287/1
f 297/289/1 302/287/1 301/290/1
f 298/291/1 297/289/1 301/290/1
f 299/292/1 298/291/1 301/290/1
f 299/292/1 301/290/1 300/293/1
f 351/294/2 359/295/2 350/296/2
f 359/295/2 349/297/2 350/296/2
f 359/295/2 360/298/2 349/297/2
f 351/294/2 358/299/2 359/295/2
f 351/294/2 355/300/2 358/299/2
f 355/300/2 357/301/2 358/299/2
f 355/300/2 356/302/2 357/301/2
f 351/294/2 354/303/2 355/300/2
f 351/294/2 353/304/2 354/303/2
f 351/294/2 352/305/2 353/304/2
f 366/306/2 364/307/2 365/308/2
f 366/306/2 368/309/2 364/307/2
f 368/309/2 369/310/2 364/307/2
f 369/310/2 363/311/2 364/307/2
f 363/311/2 361/312/2 362/313/2
f 363/311/2 372/314/2 361/312/2
f 372/314/2 373/315/2 361/312/2
f 373/315/2 375/316/2 361/312/2
f 366/306/2 367/317/2 368/309/2
f 370/318/2 363/311/2 369/310/2
f 363/311/2 371/319/2 372/314/2
f 374/320/2 375/316/2 373/315/2
f 370/318/2 371/319/2 363/311/2
f 429/321/2 427/322/2 428/323/2
f 429/321/2 426/324/2 427/322/2
f 378/325/2 376/326/2 377/327/2
f 378/325/2 453/328/2 376/326/2
f 379/329/2 453/328/2 378/325/2
f 429/321/2 425/330/2 426/324/2
f 380/331/2 453/328/2 379/329/2
f 380/331/2 452/332/2 453/328/2
f 429/321/2 424/333/2 425/330/2
f 430/334/2 424/333/2 429/321/2
f 381/335/2 452/332/2 380/331/2
f 430/334/2 423/336/2 424/333/2
f 382/337/2 452/332/2 381/335/2
f 430/334/2 422/338/2 423/336/2
f 382/337/2 451/339/2 452/332/2
f 383/340/2 451/339/2 382/337/2
f 430/334/2 421/341/2 422/338/2
f 431/342/2 421/341/2 430/334/2
f 384/343/2 451/339/2 383/340/2
f 431/342/2 420/344/2 421/341/2
f 385/345/2 451/339/2 384/343/2
f 431/342/2 419/346/2 420/344/2
f 385/345/2 450/347/2 451/339/2
f 386/348/2 450/347/2 385/345/2
f 431/342/2 418/349/2 419/346/2
f 387/350/2 450/347/2 386/348/2
f 432/351/2 418/349/2 431/342/2
f 432/351/2 417/352/2 418/349/2
f 388/353/2 450/347/2 387/350/2
f 432/351/2 416/354/2 417/352/2
f 432/351/2 415/355/2 416/354/2
f 389/356/2 450/347/2 388/353/2
f 389/356/2 449/357/2 450/347/2
f 432/351/2 414/358/2 415/355/2
f 390/359/2 449/357/2 389/356/2
f 432/351/2 413/360/2 414/358/2
f 433/361/2 413/360/2 432/351/2
f 391/362/2 449/357/2 390/359/2
f 433/361/2 412/363/2 413/360/2
f 392/364/2 449/357/2 391/362/2
f 392/364/2 448/365/2 449/357/2
f 433/361/2 411/366/2 412/363/2
f 393/367/2 448/365/2 392/364/2
f 394/368/2 448/365/2 393/367/2
f 433/361/2 410/369/2 411/366/2
f 395/370/2 448/365/2 394/368/2
f 433/361/2 409/371/2 410/369/2
f 434/372/2 409/371/2 433/361/2
f 396/373/2 448/365/2 395/370/2
f 434/372/2 408/374/2 409/371/2
f 397/375/2 448/365/2 396/373/2
f 434/372/2 407/376/2 408/374/2
f 397/375/2 447/377/2 448/365/2
f 398/378/2 447/377/2 397/375/2
f 434/372/2 406/379/2 407/376/2
f 399/380/2 447/377/2 398/378/2
f 434/372/2 405/381/2 406/379/2
f 400/382/2 447/377/2 399/380/2
f 434/372/2 404/383/2 405/381/2
f 401/384/2 447/377/2 400/382/2
f 434/372/2 403/385/2 404/383/2
f 402/386/2 447/377/2 401/384/2
f 434/372/2 402/386/2 403/385/2
f 434/372/2 447/377/2 402/386/2
f 435/387/2 447/377/2 434/372/2
f 435/387/2 446/388/2 447/377/2
f 436/389/2 446/388/2 435/387/2
f 436/389/2 445/390/2 446/388/2
f 437/391/2 445/390/2 436/389/2
f 437/391/2 444/392/2 445/390/2
f 438/393/2 444/392/2 437/391/2
f 438/393/2 443/394/2 444/392/2
f 439/395/2 443/394/2 438/393/2
f 439/395/2 442/396/2 443/394/2
f 440/397/2 442/396/2 439/395/2
f 440/397/2 441/398/2 442/396/2
f 456/399/2 454/400/2 455/401/2
f 456/399/2 459/402/2 454/400/2
f 456/399/2 458/403/2 459/402/2
f 456/399/2 457/404/2 458/403/2
f 497/405/2 495/406/2 496/407/2
f 497/405/2 494/408/2 495/406/2
f 498/409/2 494/408/2 497/405/2
f 498/409/2 493/410/2 494/408/2
f 499/411/2 493/410/2 498/409/2
f 499/411/2 492/412/2 493/410/2
f 500/413/2 492/412/2 499/411/2
f 500/413/2 491/414/2 492/412/2
f 501/415/2 491/414/2 500/413/2
f 501/415/2 490/416/2 491/414/2
f 502/417/2 520/418/2 501/415/2
f 520/418/2 490/416/2 501/415/2
f 502/417/2 519/419/2 520/418/2
f 521/420/2 490/416/2 520/418/2
f 522/421/2 490/416/2 521/420/2
f 502/417/2 518/422/2 519/419/2
f 523/423/2 490/416/2 522/421/2
f 502/417/2 517/424/2 518/422/2
f 523/423/2 489/425/2 490/416/2
f 503/426/2 517/424/2 502/417/2
f 524/427/2 489/425/2 523/423/2
f 503/426/2 516/428/2 517/424/2
f 525/429/2 489/425/2 524/427/2
f 503/426/2 515/430/2 516/428/2
f 525/429/2 488/431/2 489/425/2
f 504/432/2 515/430/2 503/426/2
f 526/433/2 488/431/2 525/429/2
f 504/432/2 514/434/2 515/430/2
f 527/435/2 488/431/2 526/433/2
f 504/432/2 513/436/2 514/434/2
f 527/435/2 487/437/2 488/431/2
f 505/438/2 513/436/2 504/432/2
f 528/439/2 487/437/2 527/435/2
f 505/438/2 512/440/2 513/436/2
f 528/439/2 486/441/2 487/437/2
f 506/442/2 512/440/2 505/438/2
f 529/443/2 486/441/2 528/439/2
f 506/442/2 511/444/2 512/440/2
f 530/445/2 486/441/2 529/443/2
f 506/442/2 510/446/2 511/444/2
f 530/445/2 485/447/2 486/441/2
f 507/448/2 510/446/2 506/442/2
f 531/449/2 485/447/2 530/445/2
f 507/448/2 509/450/2 510/446/2
f 531/449/2 484/451/2 485/447/2
f 460/452/2 509/450/2 507/448/2
f 532/453/2 484/451/2 531/449/2
f 460/452/2 508/454/2 509/450/2
f 461/455/2 508/454/2 460/452/2
f 461/455/2 555/456/2 508/454/2
f 533/457/2 484/451/2 532/453/2
f 533/457/2 483/458/2 484/451/2
f 461/455/2 554/459/2 555/456/2
f 534/460/2 483/458/2 533/457/2
f 534/460/2 482/461/2 483/458/2
f 462/462/2 554/459/2 461/455/2
f 462/462/2 553/463/2 554/459/2
f 535/464/2 482/461/2 534/460/2
f 535/464/2 481/465/2 482/461/2
f 463/466/2 553/463/2 462/462/2
f 536/467/2 481/465/2 535/464/2
f 463/466/2 552/468/2 553/463/2
f 536/467/2 480/469/2 481/465/2
f 464/470/2 552/468/2 463/466/2
f 537/471/2 480/469/2 536/467/2
f 464/470/2 551/472/2 552/468/2
f 538/473/2 480/469/2 537/471/2
f 464/470/2 550/474/2 551/472/2
f 538/473/2 479/475/2 480/469/2
f 465/476/2 550/474/2 464/470/2
f 539/477/2 479/475/2 538/473/2
f 465/476/2 549/478/2 550/474/2
f 540/479/2 479/475/2 539/477/2
f 465/476/2 548/480/2 549/478/2
f 540/479/2 478/481/2 479/475/2
f 466/482/2 548/480/2 465/476/2
f 541/483/2 478/481/2 540/479/2
f 466/482/2 547/484/2 548/480/2
f 542/485/2 478/481/2 541/483/2
f 466/482/2 546/486/2 547/484/2
f 542/485/2 477/487/2 478/481/2
f 467/488/2 546/486/2 466/482/2
f 543/489/2 477/487/2 542/485/2
f 467/488/2 545/490/2 546/486/2
f 544/491/2 477/487/2 543/489/2
f 467/488/2 544/491/2 545/490/2
f 467/488/2 477/487/2 544/491/2
f 467/488/2 476/492/2 477/487/2
f 468/493/2 476/492/2 467/488/2
f 468/493/2 475/494/2 476/492/2
f 469/495/2 475/494/2 468/493/2
f 469/495/2 474/496/2 475/494/2
f 470/497/2 474/496/2 469/495/2
f 470/497/2 473/498/2 474/496/2
f 471/499/2 473/498/2 470/497/2
f 471/499/2 472/500/2 473/498/2
f 561/501/2 559/502/2 560/503/2
f 561/501/2 558/504/2 559/502/2
f 558/504/2 556/505/2 557/506/2
f 558/504/2 562/507/2 556/505/2
f 561/501/2 562/507/2 558/504/2
f 565/508/2 573/509/2 564/510/2
f 573/509/2 563/511/2 564/510/2
f 573/509/2 574/512/2 563/511/2
f 565/508/2 572/513/2 573/509/2
f 565/508/2 569/514/2 572/513/2
f 569/514/2 571/515/2 572/513/2
f 569/514/2 570/516/2 571/515/2
f 565/508/2 568/517/2 569/514/2
f 565/508/2 567/518/2 568/517/2
f 565/508/2 566/519/2 567/518/2
f 588/520/2 586/521/2 587/522/2
f 588/520/2 585/523/2 586/521/2
f 588/520/2 584/524/2 585/523/2
f 589/525/2 584/524/2 588/520/2
f 589/525/2 583/526/2 584/524/2
f 589/525/2 582/527/2 583/526/2
f 590/528/2 582/527/2 589/525/2
f 590/528/2 581/529/2 582/527/2
f 590/528/2 580/530/2 581/529/2
f 591/531/2 580/530/2 590/528/2
f 591/531/2 579/532/2 580/530/2
f 591/531/2 578/533/2 579/532/2
f 592/534/2 578/533/2 591/531/2
f 592/534/2 577/535/2 578/533/2
f 592/534/2 576/536/2 577/535/2
f 593/537/2 576/536/2 592/534/2
f 593/537/2 575/538/2 576/536/2
f 593/537/2 688/539/2 575/538/2
f 688/539/2 689/540/2 575/538/2
f 689/540/2 690/541/2 575/538/2
f 690/541/2 691/542/2 575/538/2
f 691/542/2 692/543/2 575/538/2
f 692/543/2 693/544/2 575/538/2
f 693/544/2 694/545/2 575/538/2
f 694/545/2 695/546/2 575/538/2
f 695/546/2 696/547/2 575/538/2
f 594/548/2 686/549/2 593/537/2
f 686/549/2 687/550/2 593/537/2
f 687/550/2 688/539/2 593/537/2
f 595/551/2 684/552/2 594/548/2
f 684/552/2 685/553/2 594/548/2
f 685/553/3 686/549/3 594/548/3
f 596/554/2 683/555/2 595/551/2
f 683/555/2 684/552/2 595/551/2
f 596/554/4 682/556/4 683/555/4
f 596/554/2 681/557/2 682/556/2
f 596/554/2 680/558/2 681/557/2
f 596/554/2 679/559/2 680/558/2
f 596/554/2 678/560/2 679/559/2
f 597/561/2 678/560/2 596/554/2
f 597/561/2 677/562/2 678/560/2
f 597/561/2 676/563/2 677/562/2
f 597/561/2 675/564/2 676/563/2
f 598/565/2 675/564/2 597/561/2
f 598/565/2 674/566/2 675/564/2
f 598/565/2 673/567/2 674/566/2
f 599/568/2 673/567/2 598/565/2
f 599/568/2 672/569/2 673/567/2
f 599/568/2 671/570/2 672/569/2
f 600/571/2 671/570/2 599/568/2
f 600/571/2 670/572/2 671/570/2
f 600/571/2 669/573/2 670/572/2
f 601/574/2 669/573/2 600/571/2
f 601/574/2 668/575/2 669/573/2
f 602/576/2 668/575/2 601/574/2
f 602/576/2 667/577/2 668/575/2
f 602/576/2 666/578/2 667/577/2
f 603/579/2 666/578/2 602/576/2
f 603/579/2 665/580/2 666/578/2
f 604/581/2 665/580/2 603/579/2
f 604/581/2 664/582/2 665/580/2
f 605/583/2 664/582/2 604/581/2
f 605/583/2 663/584/2 664/582/2
f 606/585/2 663/584/2 605/583/2
f 606/585/2 662/586/2 663/584/2
f 607/587/2 662/586/2 606/585/2
f 608/588/2 662/586/2 607/587/2
f 608/588/2 661/589/2 662/586/2
f 609/590/2 661/589/2 608/588/2
f 610/591/2 661/589/2 609/590/2
f 610/591/2 660/592/2 661/589/2
f 611/593/2 660/592/2 610/591/2
f 636/594/2 634/595/2 635/596/2
f 611/593/2 659/597/2 660/592/2
f 612/598/2 659/597/2 611/593/2
f 636/594/2 633/599/2 634/595/2
f 613/600/2 659/597/2 612/598/2
f 613/600/2 658/601/2 659/597/2
f 636/594/2 632/602/2 633/599/2
f 614/603/2 658/601/2 613/600/2
f 636/594/2 631/604/2 632/602/2
f 615/605/2 658/601/2 614/603/2
f 616/606/2 658/601/2 615/605/2
f 616/606/2 657/607/2 658/601/2
f 636/594/2 630/608/2 631/604/2
f 617/609/2 657/607/2 616/606/2
f 636/594/2 629/610/2 630/608/2
f 618/611/2 657/607/2 617/609/2
f 636/594/2 628/612/2 629/610/2
f 618/611/2 656/613/2 657/607/2
f 619/614/2 656/613/2 618/611/2
f 636/594/2 627/615/2 628/612/2
f 620/616/2 656/613/2 619/614/2
f 636/594/2 626/617/2 627/615/2
f 621/618/2 656/613/2 620/616/2
f 636/594/2 625/619/2 626/617/2
f 622/620/2 656/613/2 621/618/2
f 636/594/2 624/621/2 625/619/2
f 622/620/2 655/622/2 656/613/2
f 623/623/2 655/622/2 622/620/2
f 636/594/2 623/623/2 624/621/2
f 636/594/2 655/622/2 623/623/2
f 636/594/2 654/624/2 655/622/2
f 637/625/2 654/624/2 636/594/2
f 638/626/2 654/624/2 637/625/2
f 638/626/2 653/627/2 654/624/2
f 639/628/2 653/627/2 638/626/2
f 639/628/2 652/629/2 653/627/2
f 640/630/2 652/629/2 639/628/2
f 641/631/2 652/629/2 640/630/2
f 641/631/2 651/632/2 652/629/2
f 642/633/2 651/632/2 641/631/2
f 643/634/2 651/632/2 642/633/2
f 643/634/2 650/635/2 651/632/2
f 644/636/2 650/635/2 643/634/2
f 645/637/2 650/635/2 644/636/2
f 645/637/2 649/638/2 650/635/2
f 646/639/2 649/638/2 645/637/2
f 647/640/2 649/638/2 646/639/2
f 647/640/2 648/641/2 649/638/2
f 297/289/5 298/291/5 646/291/5 645/289/5
f 258/242/6 259/244/6 607/244/6 606/242/6
f 23/24/7 24/20/7 372/20/7 371/24/7
f 60/67/8 61/22/8 409/22/8 408/67/8
f 25/21/9 26/25/9 374/25/9 373/21/9
f 229/198/10 230/196/10 578/196/10 577/198/10
f 200/159/11 201/157/11 549/157/11 548/159/11
f 168/111/12 169/89/12 517/89/12 516/111/12
f 298/291/13 299/292/13 647/292/13 646/291/13
f 48/66/14 49/12/14 397/12/14 396/66/14
f 259/244/15 260/12/15 608/12/15 607/244/15
f 26/25/16 27/5/16 375/5/16 374/25/16
f 176/110/17 177/112/17 525/112/17 524/110/17
f 22/23/16 23/24/16 371/24/16 370/23/16
f 228/199/18 229/198/18 577/198/18 576/199/18
f 130/160/19 131/87/19 479/87/19 478/160/19
f 299/292/20 300/293/20 648/293/20 647/292/20
f 80/27/9 81/26/9 429/26/9 428/27/9
f 244/197/21 245/200/21 593/200/21 592/197/21
f 117/155/22 118/161/22 466/161/22 465/155/22
f 300/293/23 301/290/23 649/290/23 648/293/23
f 59/68/24 60/67/24 408/67/24 407/68/24
f 313/245/25 314/243/25 662/243/25 661/245/25
f 167/113/26 168/111/26 516/111/26 515/113/26
f 260/12/27 261/246/27 609/246/27 608/12/27
f 79/28/28 80/27/28 428/27/28 427/28/28
f 192/158/29 193/162/29 541/162/29 540/158/29
f 99/69/30 100/60/30 448/60/30 447/69/30
f 227/4/31 228/199/31 576/199/31 575/4/31
f 140/114/32 141/108/32 489/108/32 488/114/32
f 49/12/33 50/14/33 398/14/33 397/12/33
f 261/246/34 262/247/34 610/247/34 609/246/34
f 78/29/35 79/28/35 427/28/35 426/29/35
f 155/109/36 156/115/36 504/115/36 503/109/36
f 29/31/9 30/30/9 378/30/9 377/31/9
f 199/163/37 200/159/37 548/159/37 547/163/37
f 340/201/38 341/202/38 689/202/38 688/201/38
f 193/162/39 194/164/39 542/164/39 541/162/39
f 177/112/40 178/116/40 526/116/40 525/112/40
f 58/70/41 59/68/41 407/68/41 406/70/41
f 312/248/42 313/245/42 661/245/42 660/248/42
f 28/4/28 29/31/28 377/31/28 376/4/28
f 50/14/43 51/71/43 399/71/43 398/14/43
f 262/247/44 263/249/44 611/249/44 610/247/44
f 341/202/45 342/203/45 690/203/45 689/202/45
f 105/5/35 28/4/35 376/4/35 453/5/35
f 198/165/46 199/163/46 547/163/46 546/165/46
f 166/117/47 167/113/47 515/113/47 514/117/47
f 287/251/9 288/250/9 636/250/9 635/251/9
f 30/30/48 31/32/48 379/32/48 378/30/48
f 342/203/49 343/204/49 691/204/49 690/203/49
f 178/116/50 179/118/50 527/118/50 526/116/50
f 57/72/51 58/70/51 406/70/51 405/72/51
f 129/166/52 130/160/52 478/160/52 477/166/52
f 51/71/53 52/73/53 400/73/53 399/71/53
f 286/252/54 287/251/54 635/251/54 634/252/54
f 343/204/55 344/205/55 692/205/55 691/204/55
f 118/161/56 119/167/56 467/167/56 466/161/56
f 77/9/57 78/29/57 426/29/57 425/9/57
f 165/119/58 166/117/58 514/117/58 513/119/58
f 311/253/59 312/248/59 660/248/59 659/253/59
f 31/32/60 32/33/60 380/33/60 379/32/60
f 344/205/61 345/206/61 693/206/61 692/205/61
f 194/164/62 195/168/62 543/168/62 542/164/62
f 56/11/63 57/72/63 405/72/63 404/11/63
f 263/249/64 264/254/64 612/254/64 611/249/64
f 139/120/65 140/114/65 488/114/65 487/120/65
f 52/73/66 53/74/66 401/74/66 400/73/66
f 345/206/67 346/207/67 694/207/67 693/206/67
f 156/115/68 157/121/68 505/121/68 504/115/68
f 104/34/69 105/5/69 453/5/69 452/34/69
f 197/169/70 198/165/70 546/165/70 545/169/70
f 285/255/71 286/252/71 634/252/71 633/255/71
f 346/207/72 347/208/72 695/208/72 694/207/72
f 195/168/73 196/170/73 544/170/73 543/168/73
f 179/118/74 180/122/74 528/122/74 527/118/74
f 55/75/75 56/11/75 404/11/75 403/75/75
f 264/254/76 265/256/76 613/256/76 612/254/76
f 76/35/77 77/9/77 425/9/77 424/35/77
f 53/74/78 54/76/78 402/76/78 401/74/78
f 81/26/79 82/36/79 430/36/79 429/26/79
f 347/208/80 348/5/80 696/5/80 695/208/80
f 348/5/35 227/4/35 575/4/35 696/5/35
f 196/170/81 197/169/81 545/169/81 544/170/81
f 164/123/82 165/119/82 513/119/82 512/123/82
f 310/257/83 311/253/83 659/253/83 658/257/83
f 32/33/84 33/37/84 381/37/84 380/33/84
f 245/200/85 246/209/85 594/209/85 593/200/85
f 54/76/86 55/75/86 403/75/86 402/76/86
f 138/124/87 139/120/87 487/120/87 486/124/87
f 284/258/88 285/255/88 633/255/88 632/258/88
f 128/171/89 129/166/89 477/166/89 476/171/89
f 157/121/90 158/125/90 506/125/90 505/121/90
f 86/65/91 87/77/91 435/77/91 434/65/91
f 265/256/92 266/259/92 614/259/92 613/256/92
f 75/38/93 76/35/93 424/35/93 423/38/93
f 338/210/94 339/211/94 687/211/94 686/210/94
f 119/167/95 120/172/95 468/172/95 467/167/95
f 33/37/96 34/39/96 382/39/96 381/37/96
f 180/122/97 181/126/97 529/126/97 528/122/97
f 339/211/98 340/201/98 688/201/98 687/211/98
f 98/3/99 99/69/99 447/69/99 446/3/99
f 283/260/100 284/258/100 632/258/100 631/260/100
f 246/209/101 247/212/101 595/212/101 594/209/101
f 127/173/102 128/171/102 476/171/102 475/173/102
f 87/77/103 88/78/103 436/78/103 435/77/103
f 266/259/104 267/261/104 615/261/104 614/259/104
f 74/40/105 75/38/105 423/38/105 422/40/105
f 120/172/106 121/174/106 469/174/106 468/172/106
f 163/127/107 164/123/107 512/123/107 511/127/107
f 181/126/108 182/128/108 530/128/108 529/126/108
f 267/261/109 268/262/109 616/262/109 615/261/109
f 103/41/110 104/34/110 452/34/110 451/41/110
f 336/213/111 337/3/111 685/3/111 684/213/111
f 97/79/112 98/3/112 446/3/112 445/79/112
f 34/39/113 35/2/113 383/2/113 382/39/113
f 126/175/114 127/173/114 475/173/114 474/175/114
f 88/78/115 89/80/115 437/80/115 436/78/115
f 337/3/116 338/210/116 686/210/116 685/3/116
f 121/174/117 122/176/117 470/176/117 469/174/117
f 162/129/118 163/127/118 511/127/118 510/129/118
f 309/263/119 310/257/119 658/257/119 657/263/119
f 247/212/120 248/214/120 596/214/120 595/212/120
f 73/42/121 74/40/121 422/40/121 421/42/121
f 137/130/122 138/124/122 486/124/122 485/130/122
f 96/81/123 97/79/123 445/79/123 444/81/123
f 282/10/124 283/260/124 631/260/124 630/10/124
f 82/36/125 83/24/125 431/24/125 430/36/125
f 125/177/126 126/175/126 474/175/126 473/177/126
f 158/125/127 159/131/127 507/131/127 506/125/127
f 89/80/128 90/82/128 438/82/128 437/80/128
f 268/262/129 269/264/129 617/264/129 616/262/129
f 335/215/130 336/213/130 684/213/130 683/215/130
f 122/176/131 123/178/131 471/178/131 470/176/131
f 35/2/132 36/43/132 384/43/132 383/2/132
f 182/128/133 183/132/133 531/132/133 530/128/133
f 334/216/134 335/215/134 683/215/134 682/216/134
f 123/178/135 124/179/135 472/179/135 471/178/135
f 95/83/136 96/81/136 444/81/136 443/83/136
f 281/265/137 282/10/137 630/10/137 629/265/137
f 124/179/138 125/177/138 473/177/138 472/179/138
f 90/82/139 91/6/139 439/6/139 438/82/139
f 269/264/140 270/266/140 618/266/140 617/264/140
f 72/17/141 73/42/141 421/42/141 420/17/141
f 333/217/142 334/216/142 682/216/142 681/217/142
f 212/181/143 213/180/143 561/180/143 560/181/143
f 161/133/144 162/129/144 510/129/144 509/133/144
f 36/43/145 37/44/145 385/44/145 384/43/145
f 332/218/146 333/217/146 681/217/146 680/218/146
f 211/16/28 212/181/28 560/181/28 559/16/28
f 136/134/147 137/130/147 485/130/147 484/134/147
f 94/21/148 95/83/148 443/83/148 442/21/148
f 280/267/149 281/265/149 629/265/149 628/267/149
f 159/131/150 112/4/150 460/4/150 507/131/150
f 91/6/151 92/84/151 440/84/151 439/6/151
f 71/45/152 72/17/152 420/17/152 419/45/152
f 331/219/153 332/218/153 680/218/153 679/219/153
f 210/182/154 211/16/154 559/16/154 558/182/154
f 308/268/155 309/263/155 657/263/155 656/268/155
f 209/183/156 210/182/156 558/182/156 557/183/156
f 183/132/157 184/135/157 532/135/157 531/132/157
f 92/84/158 93/85/158 441/85/158 440/84/158
f 270/266/159 271/11/159 619/11/159 618/266/159
f 102/46/160 103/41/160 451/41/160 450/46/160
f 330/220/161 331/219/161 679/219/161 678/220/161
f 93/85/162 94/21/162 442/21/162 441/85/162
f 37/44/163 38/47/163 386/47/163 385/44/163
f 248/214/164 249/1/164 597/1/164 596/214/164
f 208/4/28 209/183/28 557/183/28 556/4/28
f 107/87/9 108/86/9 456/86/9 455/87/9
f 160/136/165 161/133/165 509/133/165 508/136/165
f 279/269/166 280/267/166 628/267/166 627/269/166
f 214/5/167 208/4/167 556/4/167 562/5/167
f 112/4/168 113/137/168 461/137/168 460/4/168
f 106/4/28 107/87/28 455/87/28 454/4/28
f 271/11/169 272/270/169 620/270/169 619/11/169
f 70/7/170 71/45/170 419/45/170 418/7/170
f 329/221/171 330/220/171 678/220/171 677/221/171
f 213/180/16 214/5/16 562/5/16 561/180/16
f 38/47/172 39/18/172 387/18/172 386/47/172
f 216/2/9 217/1/9 565/1/9 564/2/9
f 111/5/35 106/4/35 454/4/35 459/5/35
f 328/222/173 329/221/173 677/221/173 676/222/173
f 207/5/174 160/136/174 508/136/174 555/5/174
f 278/271/175 279/269/175 627/269/175 626/271/175
f 83/24/176 84/8/176 432/8/176 431/24/176
f 184/135/177 185/138/177 533/138/177 532/135/177
f 110/88/28 111/5/28 459/5/28 458/88/28
f 272/270/178 273/272/178 621/272/178 620/270/178
f 327/223/179 328/222/179 676/222/179 675/223/179
f 108/86/16 109/89/16 457/89/16 456/86/16
f 249/1/180 250/224/180 598/224/180 597/1/180
f 2/2/9 3/1/9 351/1/9 350/2/9
f 215/4/28 216/2/28 564/2/28 563/4/28
f 109/89/35 110/88/35 458/88/35 457/89/35
f 69/48/181 70/7/181 418/7/181 417/48/181
f 225/3/16 226/5/16 574/5/16 573/3/16
f 135/139/182 136/134/182 484/134/182 483/139/182
f 148/91/183 149/90/183 497/90/183 496/91/183
f 277/273/184 278/271/184 626/271/184 625/273/184
f 39/18/185 40/49/185 388/49/185 387/18/185
f 226/5/35 215/4/35 563/4/35 574/5/35
f 273/272/186 274/274/186 622/274/186 621/272/186
f 326/6/187 327/223/187 675/223/187 674/6/187
f 206/140/188 207/5/188 555/5/188 554/140/188
f 147/92/189 148/91/189 496/91/189 495/92/189
f 1/4/28 2/2/28 350/2/28 349/4/28
f 224/6/35 225/3/35 573/3/35 572/6/35
f 185/138/190 186/141/190 534/141/190 533/138/190
f 68/50/191 69/48/191 417/48/191 416/50/191
f 325/225/192 326/6/192 674/6/192 673/225/192
f 11/3/16 12/5/16 360/5/16 359/3/16
f 146/93/193 147/92/193 495/92/193 494/93/193
f 276/275/194 277/273/194 625/273/194 624/275/194
f 250/224/195 251/226/195 599/226/195 598/224/195
f 12/5/35 1/4/35 349/4/35 360/5/35
f 149/90/196 150/86/196 498/86/196 497/90/196
f 67/51/197 68/50/197 416/50/197 415/51/197
f 134/142/198 135/139/198 483/139/198 482/142/198
f 307/276/199 308/268/199 656/268/199 655/276/199
f 40/49/200 41/52/200 389/52/200 388/49/200
f 10/6/35 11/3/35 359/3/35 358/6/35
f 223/8/28 224/6/28 572/6/28 571/8/28
f 113/137/201 114/143/201 462/143/201 461/137/201
f 274/274/202 275/277/202 623/277/202 622/274/202
f 324/227/203 325/225/203 673/225/203 672/227/203
f 221/7/16 222/9/16 570/9/16 569/7/16
f 145/94/204 146/93/204 494/93/204 493/94/204
f 222/9/35 223/8/35 571/8/35 570/9/35
f 150/86/205 151/95/205 499/95/205 498/86/205
f 101/53/206 102/46/206 450/46/206 449/53/206
f 323/228/207 324/227/207 672/227/207 671/228/207
f 205/144/208 206/140/208 554/140/208 553/144/208
f 275/277/209 276/275/209 624/275/209 623/277/209
f 251/226/210 252/229/210 600/229/210 599/226/210
f 9/8/28 10/6/28 358/6/28 357/8/28
f 220/10/35 221/7/35 569/7/35 568/10/35
f 186/141/211 187/145/211 535/145/211 534/141/211
f 66/54/212 67/51/212 415/51/212 414/54/212
f 7/7/16 8/9/16 356/9/16 355/7/16
f 144/96/213 145/94/213 493/94/213 492/96/213
f 41/52/214 42/1/214 390/1/214 389/52/214
f 8/9/35 9/8/35 357/8/35 356/9/35
f 219/11/28 220/10/28 568/10/28 567/11/28
f 151/95/215 152/97/215 500/97/215 499/95/215
f 306/278/216 307/276/216 655/276/216 654/278/216
f 322/230/217 323/228/217 671/228/217 670/230/217
f 217/1/16 218/12/16 566/12/16 565/1/16
f 133/146/218 134/142/218 482/142/218 481/146/218
f 288/250/219 289/279/219 637/279/219 636/250/219
f 6/10/35 7/7/35 355/7/35 354/10/35
f 218/12/35 219/11/35 567/11/35 566/12/35
f 114/143/220 115/147/220 463/147/220 462/143/220
f 65/55/221 66/54/221 414/54/221 413/55/221
f 321/231/222 322/230/222 670/230/222 669/231/222
f 239/185/223 240/184/223 588/184/223 587/185/223
f 143/98/224 144/96/224 492/96/224 491/98/224
f 289/279/225 290/280/225 638/280/225 637/279/225
f 84/8/226 85/56/226 433/56/226 432/8/226
f 252/229/227 253/232/227 601/232/227 600/229/227
f 5/11/28 6/10/28 354/10/28 353/11/28
f 187/145/228 188/88/228 536/88/228 535/145/228
f 152/97/229 153/99/229 501/99/229 500/97/229
f 3/1/16 4/12/16 352/12/16 351/1/16
f 238/2/230 239/185/230 587/185/230 586/2/230
f 42/1/231 43/57/231 391/57/231 390/1/231
f 4/12/35 5/11/35 353/11/35 352/12/35
f 305/281/232 306/278/232 654/278/232 653/281/232
f 320/233/233 321/231/233 669/231/233 668/233/233
f 17/14/9 18/13/9 366/13/9 365/14/9
f 237/186/234 238/2/234 586/2/234 585/186/234
f 204/148/235 205/144/235 553/144/235 552/148/235
f 142/100/236 143/98/236 491/98/236 490/100/236
f 290/280/237 291/282/237 639/282/237 638/280/237
f 253/232/238 254/234/238 602/234/238 601/232/238
f 153/99/239 154/101/239 502/101/239 501/99/239
f 64/58/100 65/55/100 413/55/100 412/58/100
f 16/15/28 17/14/28 365/14/28 364/15/28
f 236/187/240 237/186/240 585/186/240 584/187/240
f 132/149/241 133/146/241 481/146/241 480/149/241
f 43/57/242 44/59/242 392/59/242 391/57/242
f 240/184/243 241/188/243 589/188/243 588/184/243
f 115/147/244 116/150/244 464/150/244 463/147/244
f 304/9/245 305/281/245 653/281/245 652/9/245
f 319/235/246 320/233/246 668/233/246 667/235/246
f 291/282/247 292/283/247 640/283/247 639/282/247
f 20/16/16 21/17/16 369/17/16 368/16/16
f 188/88/248 189/151/248 537/151/248 536/88/248
f 100/60/249 101/53/249 449/53/249 448/60/249
f 318/236/250 319/235/250 667/235/250 666/236/250
f 235/189/251 236/187/251 584/187/251 583/189/251
f 171/103/252 172/102/252 520/102/252 519/103/252
f 292/283/253 293/7/253 641/7/253 640/283/253
f 254/234/254 255/237/254 603/237/254 602/234/254
f 172/102/255 173/104/255 521/104/255 520/102/255
f 63/10/256 64/58/256 412/58/256 411/10/256
f 15/18/257 16/15/257 364/15/257 363/18/257
f 234/190/258 235/189/258 583/189/258 582/190/258
f 203/152/259 204/148/259 552/148/259 551/152/259
f 44/59/260 45/61/260 393/61/260 392/59/260
f 14/19/261 15/18/261 363/18/261 362/19/261
f 241/188/262 242/191/262 590/191/262 589/188/262
f 189/151/263 190/153/263 538/153/263 537/151/263
f 173/104/264 174/105/264 522/105/264 521/104/264
f 303/284/265 304/9/265 652/9/265 651/284/265
f 317/238/266 318/236/266 666/236/266 665/238/266
f 293/7/267 294/285/267 642/285/267 641/7/267
f 45/61/268 46/62/268 394/62/268 393/61/268
f 255/237/269 256/239/269 604/239/269 603/237/269
f 13/4/28 14/19/28 362/19/28 361/4/28
f 233/192/270 234/190/270 582/190/270 581/192/270
f 202/154/271 203/152/271 551/152/271 550/154/271
f 170/106/272 171/103/272 519/103/272 518/106/272
f 294/285/273 295/286/273 643/286/273 642/285/273
f 174/105/274 175/107/274 523/107/274 522/105/274
f 62/63/275 63/10/275 411/10/275 410/63/275
f 316/240/276 317/238/276 665/238/276 664/240/276
f 24/20/16 25/21/16 373/21/16 372/20/16
f 232/193/277 233/192/277 581/192/277 580/193/277
f 131/87/278 132/149/278 480/149/278 479/87/278
f 46/62/279 47/64/279 395/64/279 394/62/279
f 256/239/280 257/241/280 605/241/280 604/239/280
f 242/191/281 243/194/281 591/194/281 590/191/281
f 116/150/282 117/155/282 465/155/282 464/150/282
f 302/287/283 303/284/283 651/284/283 650/287/283
f 169/89/284 170/106/284 518/106/284 517/89/284
f 295/286/285 296/288/285 644/288/285 643/286/285
f 27/5/35 13/4/35 361/4/35 375/5/35
f 190/153/286 191/156/286 539/156/286 538/153/286
f 61/22/287 62/63/287 410/63/287 409/22/287
f 315/8/288 316/240/288 664/240/288 663/8/288
f 18/13/16 19/22/16 367/22/16 366/13/16
f 231/195/289 232/193/289 580/193/289 579/195/289
f 141/108/290 142/100/290 490/100/290 489/108/290
f 296/288/291 297/289/291 645/289/291 644/288/291
f 85/56/292 86/65/292 434/65/292 433/56/292
f 257/241/293 258/242/293 606/242/293 605/241/293
f 19/22/35 20/16/35 368/16/35 367/22/35
f 154/101/294 155/109/294 503/109/294 502/101/294
f 21/17/295 22/23/295 370/23/295 369/17/295
f 230/196/296 231/195/296 579/195/296 578/196/296
f 201/157/297 202/154/297 550/154/297 549/157/297
f 47/64/298 48/66/298 396/66/298 395/64/298
f 243/194/299 244/197/299 592/197/299 591/194/299
f 191/156/300 192/158/300 540/158/300 539/156/300
f 175/107/301 176/110/301 524/110/301 523/107/301
f 301/290/302 302/287/302 650/287/302 649/290/302
f 314/243/303 315/8/303 663/8/303 662/243/303
