# Blender 4.4.1
# www.blender.org
mtllib Volume.mtl
o テキスト
v -1.291419 0.283767 0.000000
v -1.130395 0.283767 0.000000
v -1.130395 0.000000 0.000000
v -1.295163 0.000000 0.000000
v -1.295163 0.036615 0.000000
v -1.171171 0.036615 0.000000
v -1.171171 0.124824 0.000000
v -1.287258 0.124824 0.000000
v -1.287258 0.161439 0.000000
v -1.171171 0.161439 0.000000
v -1.171171 0.247152 0.000000
v -1.291419 0.247152 0.000000
v -1.069232 0.283767 0.000000
v -1.031368 0.283767 0.000000
v -0.936918 0.167264 0.000000
v -0.842884 0.283767 0.000000
v -0.804604 0.283767 0.000000
v -0.804604 0.000000 0.000000
v -0.845380 0.000000 0.000000
v -0.845380 0.220939 0.000000
v -0.846212 0.220939 0.000000
v -0.933589 0.111094 0.000000
v -0.940247 0.111094 0.000000
v -1.027623 0.220939 0.000000
v -1.028456 0.220939 0.000000
v -1.028456 0.000000 0.000000
v -1.069232 0.000000 0.000000
v -0.749265 0.283767 0.000000
v -0.708490 0.283767 0.000000
v -0.708490 0.118583 0.000000
v -0.708416 0.112047 0.000000
v -0.708175 0.105756 0.000000
v -0.707742 0.099710 0.000000
v -0.707087 0.093911 0.000000
v -0.706184 0.088361 0.000000
v -0.705005 0.083060 0.000000
v -0.703522 0.078011 0.000000
v -0.701709 0.073215 0.000000
v -0.699537 0.068673 0.000000
v -0.696980 0.064387 0.000000
v -0.694009 0.060357 0.000000
v -0.690598 0.056587 0.000000
v -0.687175 0.053427 0.000000
v -0.683355 0.050413 0.000000
v -0.679143 0.047570 0.000000
v -0.674541 0.044921 0.000000
v -0.669551 0.042492 0.000000
v -0.664177 0.040308 0.000000
v -0.658422 0.038392 0.000000
v -0.652288 0.036769 0.000000
v -0.645778 0.035464 0.000000
v -0.638896 0.034502 0.000000
v -0.631644 0.033906 0.000000
v -0.624025 0.033703 0.000000
v -0.617975 0.033867 0.000000
v -0.612098 0.034363 0.000000
v -0.606394 0.035191 0.000000
v -0.600863 0.036353 0.000000
v -0.595506 0.037850 0.000000
v -0.590322 0.039684 0.000000
v -0.585312 0.041855 0.000000
v -0.580475 0.044367 0.000000
v -0.575812 0.047219 0.000000
v -0.571321 0.050413 0.000000
v -0.567005 0.053952 0.000000
v -0.562861 0.057835 0.000000
v -0.559816 0.061079 0.000000
v -0.557119 0.064404 0.000000
v -0.554754 0.067873 0.000000
v -0.552706 0.071550 0.000000
v -0.550958 0.075499 0.000000
v -0.549495 0.079783 0.000000
v -0.548300 0.084466 0.000000
v -0.547358 0.089611 0.000000
v -0.546654 0.095282 0.000000
v -0.546170 0.101543 0.000000
v -0.545891 0.108456 0.000000
v -0.545802 0.116087 0.000000
v -0.545802 0.283767 0.000000
v -0.505026 0.283767 0.000000
v -0.505026 0.107349 0.000000
v -0.506207 0.088905 0.000000
v -0.509618 0.072248 0.000000
v -0.515064 0.057341 0.000000
v -0.522348 0.044151 0.000000
v -0.531272 0.032642 0.000000
v -0.541641 0.022780 0.000000
v -0.553259 0.014531 0.000000
v -0.565928 0.007859 0.000000
v -0.579453 0.002731 0.000000
v -0.593636 -0.000890 0.000000
v -0.608282 -0.003037 0.000000
v -0.623193 -0.003745 0.000000
v -0.643417 -0.002804 0.000000
v -0.661860 -0.000033 0.000000
v -0.678525 0.004492 0.000000
v -0.693418 0.010695 0.000000
v -0.706543 0.018498 0.000000
v -0.717903 0.027825 0.000000
v -0.727504 0.038600 0.000000
v -0.735350 0.050746 0.000000
v -0.741444 0.064187 0.000000
v -0.745792 0.078845 0.000000
v -0.748398 0.094645 0.000000
v -0.749265 0.111510 0.000000
v -0.347332 0.283767 0.000000
v -0.306556 0.283767 0.000000
v -0.306556 0.000000 0.000000
v -0.475484 0.000000 0.000000
v -0.475484 0.036615 0.000000
v -0.347332 0.036615 0.000000
v 0.047945 0.141884 0.000000
v 0.046737 0.122848 0.000000
v 0.043170 0.104369 0.000000
v 0.037328 0.086655 0.000000
v 0.029298 0.069917 0.000000
v 0.019165 0.054363 0.000000
v 0.007013 0.040204 0.000000
v -0.007072 0.027648 0.000000
v -0.023004 0.016905 0.000000
v -0.040700 0.008185 0.000000
v -0.060072 0.001697 0.000000
v -0.081037 -0.002349 0.000000
v -0.103508 -0.003745 0.000000
v -0.126720 -0.002341 0.000000
v -0.148254 0.001726 0.000000
v -0.168046 0.008244 0.000000
v -0.186031 0.016998 0.000000
v -0.202143 0.027774 0.000000
v -0.216318 0.040360 0.000000
v -0.228491 0.054540 0.000000
v -0.238596 0.070102 0.000000
v -0.246569 0.086831 0.000000
v -0.252344 0.104513 0.000000
v -0.255857 0.122935 0.000000
v -0.257042 0.141884 0.000000
v -0.255825 0.161356 0.000000
v -0.252232 0.180121 0.000000
v -0.246347 0.197989 0.000000
v -0.238257 0.214775 0.000000
v -0.228045 0.230289 0.000000
v -0.215798 0.244343 0.000000
v -0.201600 0.256751 0.000000
v -0.185538 0.267324 0.000000
v -0.167695 0.275874 0.000000
v -0.148158 0.282214 0.000000
v -0.127011 0.286156 0.000000
v -0.104340 0.287512 0.000000
v -0.082027 0.286148 0.000000
v -0.061132 0.282186 0.000000
v -0.041753 0.275816 0.000000
v -0.023991 0.267232 0.000000
v -0.007945 0.256625 0.000000
v 0.006285 0.244187 0.000000
v 0.018599 0.230112 0.000000
v 0.028898 0.214590 0.000000
v 0.037081 0.197814 0.000000
v 0.043050 0.179976 0.000000
v 0.046705 0.161269 0.000000
v 0.005921 0.141884 0.000000
v 0.004959 0.157123 0.000000
v 0.002146 0.171568 0.000000
v -0.002414 0.185117 0.000000
v -0.008611 0.197669 0.000000
v -0.016340 0.209123 0.000000
v -0.025493 0.219379 0.000000
v -0.035964 0.228333 0.000000
v -0.047646 0.235887 0.000000
v -0.060431 0.241938 0.000000
v -0.074213 0.246385 0.000000
v -0.088885 0.249128 0.000000
v -0.104340 0.250064 0.000000
v -0.119891 0.249128 0.000000
v -0.134643 0.246385 0.000000
v -0.148490 0.241938 0.000000
v -0.161328 0.235887 0.000000
v -0.173050 0.228333 0.000000
v -0.183552 0.219379 0.000000
v -0.192727 0.209123 0.000000
v -0.200470 0.197669 0.000000
v -0.206677 0.185117 0.000000
v -0.211240 0.171568 0.000000
v -0.214056 0.157123 0.000000
v -0.215018 0.141884 0.000000
v -0.214056 0.126731 0.000000
v -0.211240 0.112344 0.000000
v -0.206677 0.098826 0.000000
v -0.200470 0.086283 0.000000
v -0.192727 0.074821 0.000000
v -0.183552 0.064545 0.000000
v -0.173050 0.055560 0.000000
v -0.161328 0.047973 0.000000
v -0.148490 0.041888 0.000000
v -0.134643 0.037411 0.000000
v -0.119891 0.034647 0.000000
v -0.104340 0.033703 0.000000
v -0.088885 0.034647 0.000000
v -0.074213 0.037411 0.000000
v -0.060431 0.041888 0.000000
v -0.047646 0.047973 0.000000
v -0.035964 0.055560 0.000000
v -0.025493 0.064545 0.000000
v -0.016340 0.074821 0.000000
v -0.008611 0.086283 0.000000
v -0.002414 0.098826 0.000000
v 0.002146 0.112344 0.000000
v 0.004959 0.126731 0.000000
v 0.066669 0.283767 0.000000
v 0.107029 0.283767 0.000000
v 0.191909 0.084464 0.000000
v 0.277206 0.283767 0.000000
v 0.317981 0.283767 0.000000
v 0.195238 -0.002496 0.000000
v 0.186916 -0.002496 0.000000
v 0.463610 0.283767 0.000000
v 0.501473 0.283767 0.000000
v 0.595923 0.167264 0.000000
v 0.689958 0.283767 0.000000
v 0.728237 0.283767 0.000000
v 0.728237 0.000000 0.000000
v 0.687461 0.000000 0.000000
v 0.687461 0.220939 0.000000
v 0.686629 0.220939 0.000000
v 0.599252 0.111094 0.000000
v 0.592595 0.111094 0.000000
v 0.505218 0.220939 0.000000
v 0.504386 0.220939 0.000000
v 0.504386 0.000000 0.000000
v 0.463610 0.000000 0.000000
v 0.786488 0.139803 0.000000
v 0.881771 0.139803 0.000000
v 0.881771 0.103188 0.000000
v 0.827264 0.103188 0.000000
v 0.827264 0.044937 0.000000
v 0.832163 0.043405 0.000000
v 0.837085 0.041937 0.000000
v 0.842035 0.040548 0.000000
v 0.847020 0.039250 0.000000
v 0.852046 0.038056 0.000000
v 0.857118 0.036979 0.000000
v 0.862242 0.036032 0.000000
v 0.867424 0.035228 0.000000
v 0.872669 0.034580 0.000000
v 0.877984 0.034101 0.000000
v 0.883374 0.033804 0.000000
v 0.888844 0.033703 0.000000
v 0.905264 0.034615 0.000000
v 0.920755 0.037293 0.000000
v 0.935224 0.041647 0.000000
v 0.948575 0.047587 0.000000
v 0.960712 0.055024 0.000000
v 0.971540 0.063868 0.000000
v 0.980964 0.074030 0.000000
v 0.988889 0.085420 0.000000
v 0.995218 0.097948 0.000000
v 0.999857 0.111525 0.000000
v 1.002710 0.126061 0.000000
v 1.003682 0.141467 0.000000
v 1.002705 0.156540 0.000000
v 0.999853 0.170894 0.000000
v 0.995244 0.184415 0.000000
v 0.988996 0.196991 0.000000
v 0.981229 0.208510 0.000000
v 0.972060 0.218858 0.000000
v 0.961609 0.227924 0.000000
v 0.949993 0.235594 0.000000
v 0.937331 0.241756 0.000000
v 0.923741 0.246297 0.000000
v 0.909342 0.249104 0.000000
v 0.894253 0.250064 0.000000
v 0.885716 0.249866 0.000000
v 0.877167 0.249271 0.000000
v 0.868612 0.248283 0.000000
v 0.860058 0.246905 0.000000
v 0.851509 0.245140 0.000000
v 0.842971 0.242991 0.000000
v 0.834451 0.240460 0.000000
v 0.825954 0.237551 0.000000
v 0.817486 0.234266 0.000000
v 0.809053 0.230609 0.000000
v 0.800660 0.226581 0.000000
v 0.792313 0.222187 0.000000
v 0.792313 0.263379 0.000000
v 0.803020 0.267787 0.000000
v 0.812950 0.271668 0.000000
v 0.822213 0.275049 0.000000
v 0.830917 0.277957 0.000000
v 0.839170 0.280421 0.000000
v 0.847080 0.282467 0.000000
v 0.854757 0.284123 0.000000
v 0.862308 0.285416 0.000000
v 0.869841 0.286374 0.000000
v 0.877466 0.287024 0.000000
v 0.885289 0.287394 0.000000
v 0.893421 0.287512 0.000000
v 0.914598 0.286211 0.000000
v 0.934752 0.282409 0.000000
v 0.953727 0.276258 0.000000
v 0.971367 0.267910 0.000000
v 0.987516 0.257516 0.000000
v 1.002018 0.245228 0.000000
v 1.014717 0.231197 0.000000
v 1.025457 0.215576 0.000000
v 1.034082 0.198516 0.000000
v 1.040436 0.180169 0.000000
v 1.044363 0.160686 0.000000
v 1.045707 0.140219 0.000000
v 1.044396 0.119905 0.000000
v 1.040558 0.100661 0.000000
v 1.034336 0.082618 0.000000
v 1.025873 0.065910 0.000000
v 1.015313 0.050670 0.000000
v 1.002798 0.037031 0.000000
v 0.988472 0.025126 0.000000
v 0.972476 0.015087 0.000000
v 0.954956 0.007047 0.000000
v 0.936052 0.001140 0.000000
v 0.915909 -0.002501 0.000000
v 0.894669 -0.003745 0.000000
v 0.884960 -0.003604 0.000000
v 0.875560 -0.003175 0.000000
v 0.866415 -0.002444 0.000000
v 0.857469 -0.001402 0.000000
v 0.848667 -0.000037 0.000000
v 0.839955 0.001664 0.000000
v 0.831277 0.003712 0.000000
v 0.822580 0.006118 0.000000
v 0.813807 0.008894 0.000000
v 0.804904 0.012051 0.000000
v 0.795816 0.015601 0.000000
v 0.786488 0.019556 0.000000
v 1.269558 0.000000 0.000000
v 1.172195 0.000000 0.000000
v 1.155333 0.000823 0.000000
v 1.140278 0.003182 0.000000
v 1.126966 0.006917 0.000000
v 1.115331 0.011866 0.000000
v 1.105308 0.017866 0.000000
v 1.096833 0.024757 0.000000
v 1.089839 0.032375 0.000000
v 1.084263 0.040560 0.000000
v 1.080040 0.049150 0.000000
v 1.077103 0.057982 0.000000
v 1.075389 0.066895 0.000000
v 1.074832 0.075727 0.000000
v 1.075364 0.085074 0.000000
v 1.076940 0.093955 0.000000
v 1.079526 0.102336 0.000000
v 1.083092 0.110184 0.000000
v 1.087606 0.117466 0.000000
v 1.093036 0.124148 0.000000
v 1.099350 0.130197 0.000000
v 1.106516 0.135581 0.000000
v 1.114503 0.140265 0.000000
v 1.123279 0.144216 0.000000
v 1.132812 0.147402 0.000000
v 1.143070 0.149789 0.000000
v 1.143070 0.150621 0.000000
v 1.136012 0.153787 0.000000
v 1.129607 0.157259 0.000000
v 1.123845 0.161049 0.000000
v 1.118721 0.165169 0.000000
v 1.114227 0.169629 0.000000
v 1.110355 0.174442 0.000000
v 1.107099 0.179619 0.000000
v 1.104451 0.185171 0.000000
v 1.102404 0.191111 0.000000
v 1.100951 0.197450 0.000000
v 1.100084 0.204198 0.000000
v 1.099797 0.211369 0.000000
v 1.100348 0.220310 0.000000
v 1.102022 0.229156 0.000000
v 1.104849 0.237777 0.000000
v 1.108858 0.246042 0.000000
v 1.114082 0.253822 0.000000
v 1.120549 0.260987 0.000000
v 1.128291 0.267405 0.000000
v 1.137337 0.272949 0.000000
v 1.147718 0.277487 0.000000
v 1.159464 0.280889 0.000000
v 1.172606 0.283026 -0.000000
v 1.187174 0.283767 -0.000000
v 1.269558 0.283767 -0.000000
v 1.228782 0.247152 -0.000000
v 1.191335 0.247152 -0.000000
v 1.182494 0.246779 -0.000000
v 1.174665 0.245698 0.000000
v 1.167800 0.243960 0.000000
v 1.161855 0.241620 0.000000
v 1.156782 0.238730 0.000000
v 1.152535 0.235346 0.000000
v 1.149069 0.231519 0.000000
v 1.146337 0.227303 0.000000
v 1.144292 0.222753 0.000000
v 1.142888 0.217920 0.000000
v 1.142080 0.212860 0.000000
v 1.141821 0.207624 0.000000
v 1.142229 0.200351 0.000000
v 1.143457 0.193718 0.000000
v 1.145507 0.187724 0.000000
v 1.148386 0.182367 0.000000
v 1.152097 0.177645 0.000000
v 1.156644 0.173558 0.000000
v 1.162032 0.170103 0.000000
v 1.168265 0.167280 0.000000
v 1.175348 0.165086 0.000000
v 1.183285 0.163522 0.000000
v 1.192080 0.162584 0.000000
v 1.201737 0.162271 0.000000
v 1.228782 0.162271 -0.000000
v 1.228782 0.125656 0.000000
v 1.179685 0.125656 0.000000
v 1.169446 0.125281 0.000000
v 1.160150 0.124181 0.000000
v 1.151788 0.122393 0.000000
v 1.144349 0.119955 0.000000
v 1.137823 0.116904 0.000000
v 1.132199 0.113278 0.000000
v 1.127469 0.109115 0.000000
v 1.123622 0.104452 0.000000
v 1.120647 0.099326 0.000000
v 1.118534 0.093776 0.000000
v 1.117274 0.087839 0.000000
v 1.116856 0.081552 0.000000
v 1.117138 0.076210 0.000000
v 1.118033 0.070855 0.000000
v 1.119619 0.065578 0.000000
v 1.121973 0.060470 0.000000
v 1.125170 0.055623 0.000000
v 1.129287 0.051126 0.000000
v 1.134401 0.047071 0.000000
v 1.140588 0.043550 0.000000
v 1.147926 0.040652 0.000000
v 1.156490 0.038470 0.000000
v 1.166357 0.037094 0.000000
v 1.177604 0.036615 0.000000
v 1.228782 0.036615 0.000000
v -1.291419 0.283767 -0.267269
v -1.130395 0.283767 -0.267269
v -1.130395 -0.000000 -0.267269
v -1.295163 -0.000000 -0.267269
v -1.295163 0.036615 -0.267269
v -1.171171 0.036615 -0.267269
v -1.171171 0.124824 -0.267269
v -1.287258 0.124824 -0.267269
v -1.287258 0.161439 -0.267269
v -1.171171 0.161439 -0.267269
v -1.171171 0.247152 -0.267269
v -1.291419 0.247152 -0.267269
v -1.069232 0.283767 -0.267269
v -1.031368 0.283767 -0.267269
v -0.936918 0.167264 -0.267269
v -0.842884 0.283767 -0.267269
v -0.804604 0.283767 -0.267269
v -0.804604 -0.000000 -0.267269
v -0.845380 -0.000000 -0.267269
v -0.845380 0.220939 -0.267269
v -0.846212 0.220939 -0.267269
v -0.933589 0.111094 -0.267269
v -0.940247 0.111094 -0.267269
v -1.027623 0.220939 -0.267269
v -1.028456 0.220939 -0.267269
v -1.028456 -0.000000 -0.267269
v -1.069232 -0.000000 -0.267269
v -0.749265 0.283767 -0.267269
v -0.708490 0.283767 -0.267269
v -0.708490 0.118583 -0.267269
v -0.708416 0.112047 -0.267269
v -0.708175 0.105756 -0.267269
v -0.707742 0.099710 -0.267269
v -0.707087 0.093911 -0.267269
v -0.706184 0.088361 -0.267269
v -0.705005 0.083060 -0.267269
v -0.703522 0.078011 -0.267269
v -0.701709 0.073215 -0.267269
v -0.699537 0.068673 -0.267269
v -0.696980 0.064387 -0.267269
v -0.694009 0.060357 -0.267269
v -0.690598 0.056587 -0.267269
v -0.687175 0.053427 -0.267269
v -0.683355 0.050413 -0.267269
v -0.679143 0.047570 -0.267269
v -0.674541 0.044921 -0.267269
v -0.669551 0.042492 -0.267269
v -0.664177 0.040308 -0.267269
v -0.658422 0.038392 -0.267269
v -0.652288 0.036769 -0.267269
v -0.645778 0.035464 -0.267269
v -0.638896 0.034502 -0.267269
v -0.631644 0.033906 -0.267269
v -0.624025 0.033703 -0.267269
v -0.617975 0.033867 -0.267269
v -0.612098 0.034363 -0.267269
v -0.606394 0.035191 -0.267269
v -0.600863 0.036353 -0.267269
v -0.595506 0.037850 -0.267269
v -0.590322 0.039684 -0.267269
v -0.585312 0.041855 -0.267269
v -0.580475 0.044367 -0.267269
v -0.575812 0.047219 -0.267269
v -0.571321 0.050413 -0.267269
v -0.567005 0.053952 -0.267269
v -0.562861 0.057835 -0.267269
v -0.559816 0.061079 -0.267269
v -0.557119 0.064404 -0.267269
v -0.554754 0.067873 -0.267269
v -0.552706 0.071550 -0.267269
v -0.550958 0.075499 -0.267269
v -0.549495 0.079783 -0.267269
v -0.548300 0.084466 -0.267269
v -0.547358 0.089611 -0.267269
v -0.546654 0.095282 -0.267269
v -0.546170 0.101543 -0.267269
v -0.545891 0.108456 -0.267269
v -0.545802 0.116086 -0.267269
v -0.545802 0.283767 -0.267269
v -0.505026 0.283767 -0.267269
v -0.505026 0.107349 -0.267269
v -0.506207 0.088905 -0.267269
v -0.509618 0.072248 -0.267269
v -0.515064 0.057341 -0.267269
v -0.522348 0.044151 -0.267269
v -0.531272 0.032642 -0.267269
v -0.541641 0.022780 -0.267269
v -0.553259 0.014531 -0.267269
v -0.565928 0.007859 -0.267269
v -0.579453 0.002731 -0.267269
v -0.593636 -0.000890 -0.267269
v -0.608282 -0.003037 -0.267269
v -0.623193 -0.003745 -0.267269
v -0.643417 -0.002804 -0.267269
v -0.661860 -0.000033 -0.267269
v -0.678525 0.004492 -0.267269
v -0.693418 0.010695 -0.267269
v -0.706543 0.018498 -0.267269
v -0.717903 0.027825 -0.267269
v -0.727504 0.038600 -0.267269
v -0.735350 0.050746 -0.267269
v -0.741444 0.064187 -0.267269
v -0.745792 0.078845 -0.267269
v -0.748398 0.094645 -0.267269
v -0.749265 0.111510 -0.267269
v -0.347332 0.283767 -0.267269
v -0.306556 0.283767 -0.267269
v -0.306556 -0.000000 -0.267269
v -0.475484 -0.000000 -0.267269
v -0.475484 0.036615 -0.267269
v -0.347332 0.036615 -0.267269
v 0.047945 0.141883 -0.267269
v 0.046737 0.122848 -0.267269
v 0.043170 0.104369 -0.267269
v 0.037328 0.086655 -0.267269
v 0.029298 0.069917 -0.267269
v 0.019165 0.054363 -0.267269
v 0.007013 0.040204 -0.267269
v -0.007072 0.027648 -0.267269
v -0.023004 0.016905 -0.267269
v -0.040700 0.008185 -0.267269
v -0.060072 0.001697 -0.267269
v -0.081037 -0.002349 -0.267269
v -0.103508 -0.003745 -0.267269
v -0.126720 -0.002341 -0.267269
v -0.148254 0.001726 -0.267269
v -0.168046 0.008244 -0.267269
v -0.186031 0.016998 -0.267269
v -0.202143 0.027774 -0.267269
v -0.216318 0.040360 -0.267269
v -0.228491 0.054540 -0.267269
v -0.238596 0.070102 -0.267269
v -0.246569 0.086831 -0.267269
v -0.252344 0.104513 -0.267269
v -0.255857 0.122935 -0.267269
v -0.257042 0.141883 -0.267269
v -0.255825 0.161356 -0.267269
v -0.252232 0.180121 -0.267269
v -0.246347 0.197989 -0.267269
v -0.238257 0.214775 -0.267269
v -0.228045 0.230289 -0.267269
v -0.215798 0.244343 -0.267269
v -0.201600 0.256751 -0.267269
v -0.185538 0.267324 -0.267269
v -0.167695 0.275874 -0.267269
v -0.148158 0.282214 -0.267269
v -0.127011 0.286156 -0.267269
v -0.104340 0.287512 -0.267269
v -0.082027 0.286148 -0.267269
v -0.061132 0.282186 -0.267269
v -0.041753 0.275816 -0.267269
v -0.023991 0.267232 -0.267269
v -0.007945 0.256625 -0.267269
v 0.006285 0.244187 -0.267269
v 0.018599 0.230112 -0.267269
v 0.028898 0.214590 -0.267269
v 0.037081 0.197814 -0.267269
v 0.043050 0.179976 -0.267269
v 0.046705 0.161269 -0.267269
v 0.005921 0.141883 -0.267269
v 0.004959 0.157123 -0.267269
v 0.002146 0.171568 -0.267269
v -0.002414 0.185117 -0.267269
v -0.008611 0.197669 -0.267269
v -0.016340 0.209123 -0.267269
v -0.025493 0.219379 -0.267269
v -0.035964 0.228333 -0.267269
v -0.047646 0.235887 -0.267269
v -0.060431 0.241938 -0.267269
v -0.074213 0.246385 -0.267269
v -0.088885 0.249128 -0.267269
v -0.104340 0.250064 -0.267269
v -0.119891 0.249128 -0.267269
v -0.134643 0.246385 -0.267269
v -0.148490 0.241938 -0.267269
v -0.161328 0.235887 -0.267269
v -0.173050 0.228333 -0.267269
v -0.183552 0.219379 -0.267269
v -0.192727 0.209123 -0.267269
v -0.200470 0.197669 -0.267269
v -0.206677 0.185117 -0.267269
v -0.211240 0.171568 -0.267269
v -0.214056 0.157123 -0.267269
v -0.215018 0.141883 -0.267269
v -0.214056 0.126731 -0.267269
v -0.211240 0.112344 -0.267269
v -0.206677 0.098826 -0.267269
v -0.200470 0.086283 -0.267269
v -0.192727 0.074821 -0.267269
v -0.183552 0.064545 -0.267269
v -0.173050 0.055560 -0.267269
v -0.161328 0.047973 -0.267269
v -0.148490 0.041888 -0.267269
v -0.134643 0.037411 -0.267269
v -0.119891 0.034647 -0.267269
v -0.104340 0.033703 -0.267269
v -0.088885 0.034647 -0.267269
v -0.074213 0.037411 -0.267269
v -0.060431 0.041888 -0.267269
v -0.047646 0.047973 -0.267269
v -0.035964 0.055560 -0.267269
v -0.025493 0.064544 -0.267269
v -0.016340 0.074821 -0.267269
v -0.008611 0.086283 -0.267269
v -0.002414 0.098826 -0.267269
v 0.002146 0.112344 -0.267269
v 0.004959 0.126731 -0.267269
v 0.066669 0.283767 -0.267269
v 0.107029 0.283767 -0.267269
v 0.191909 0.084464 -0.267269
v 0.277206 0.283767 -0.267269
v 0.317981 0.283767 -0.267269
v 0.195238 -0.002496 -0.267269
v 0.186916 -0.002496 -0.267269
v 0.463610 0.283767 -0.267269
v 0.501473 0.283767 -0.267269
v 0.595923 0.167264 -0.267269
v 0.689958 0.283767 -0.267269
v 0.728237 0.283767 -0.267269
v 0.728237 -0.000000 -0.267269
v 0.687461 -0.000000 -0.267269
v 0.687461 0.220939 -0.267269
v 0.686629 0.220939 -0.267269
v 0.599252 0.111094 -0.267269
v 0.592595 0.111094 -0.267269
v 0.505218 0.220939 -0.267269
v 0.504386 0.220939 -0.267269
v 0.504386 -0.000000 -0.267269
v 0.463610 -0.000000 -0.267269
v 0.786488 0.139803 -0.267269
v 0.881771 0.139803 -0.267269
v 0.881771 0.103188 -0.267269
v 0.827264 0.103188 -0.267269
v 0.827264 0.044937 -0.267269
v 0.832163 0.043405 -0.267269
v 0.837085 0.041937 -0.267269
v 0.842035 0.040548 -0.267269
v 0.847020 0.039250 -0.267269
v 0.852046 0.038056 -0.267269
v 0.857118 0.036979 -0.267269
v 0.862242 0.036032 -0.267269
v 0.867424 0.035228 -0.267269
v 0.872669 0.034580 -0.267269
v 0.877984 0.034101 -0.267269
v 0.883374 0.033804 -0.267269
v 0.888844 0.033703 -0.267269
v 0.905263 0.034615 -0.267269
v 0.920755 0.037293 -0.267269
v 0.935224 0.041647 -0.267269
v 0.948575 0.047587 -0.267269
v 0.960712 0.055024 -0.267269
v 0.971540 0.063868 -0.267269
v 0.980964 0.074030 -0.267269
v 0.988888 0.085420 -0.267269
v 0.995218 0.097948 -0.267269
v 0.999857 0.111525 -0.267269
v 1.002710 0.126061 -0.267269
v 1.003682 0.141467 -0.267269
v 1.002705 0.156540 -0.267269
v 0.999853 0.170894 -0.267269
v 0.995244 0.184415 -0.267269
v 0.988996 0.196991 -0.267269
v 0.981229 0.208510 -0.267269
v 0.972060 0.218858 -0.267269
v 0.961609 0.227924 -0.267269
v 0.949993 0.235594 -0.267269
v 0.937331 0.241756 -0.267269
v 0.923741 0.246297 -0.267269
v 0.909342 0.249104 -0.267269
v 0.894253 0.250064 -0.267269
v 0.885716 0.249866 -0.267269
v 0.877167 0.249271 -0.267269
v 0.868612 0.248283 -0.267269
v 0.860058 0.246905 -0.267269
v 0.851509 0.245140 -0.267269
v 0.842971 0.242991 -0.267269
v 0.834451 0.240460 -0.267269
v 0.825954 0.237551 -0.267269
v 0.817486 0.234266 -0.267269
v 0.809053 0.230609 -0.267269
v 0.800660 0.226581 -0.267269
v 0.792313 0.222187 -0.267269
v 0.792313 0.263379 -0.267269
v 0.803020 0.267787 -0.267269
v 0.812950 0.271668 -0.267269
v 0.822213 0.275049 -0.267269
v 0.830917 0.277957 -0.267269
v 0.839170 0.280421 -0.267269
v 0.847080 0.282467 -0.267269
v 0.854757 0.284123 -0.267269
v 0.862308 0.285416 -0.267269
v 0.869841 0.286374 -0.267269
v 0.877466 0.287024 -0.267269
v 0.885289 0.287394 -0.267269
v 0.893421 0.287512 -0.267269
v 0.914598 0.286211 -0.267269
v 0.934752 0.282409 -0.267269
v 0.953727 0.276258 -0.267269
v 0.971367 0.267910 -0.267269
v 0.987516 0.257516 -0.267269
v 1.002018 0.245228 -0.267269
v 1.014717 0.231197 -0.267269
v 1.025457 0.215576 -0.267269
v 1.034082 0.198516 -0.267269
v 1.040436 0.180169 -0.267269
v 1.044363 0.160686 -0.267269
v 1.045707 0.140219 -0.267269
v 1.044395 0.119905 -0.267269
v 1.040558 0.100661 -0.267269
v 1.034336 0.082618 -0.267269
v 1.025873 0.065910 -0.267269
v 1.015313 0.050670 -0.267269
v 1.002798 0.037031 -0.267269
v 0.988472 0.025126 -0.267269
v 0.972476 0.015087 -0.267269
v 0.954956 0.007047 -0.267269
v 0.936052 0.001140 -0.267269
v 0.915909 -0.002501 -0.267269
v 0.894669 -0.003745 -0.267269
v 0.884960 -0.003604 -0.267269
v 0.875560 -0.003175 -0.267269
v 0.866415 -0.002444 -0.267269
v 0.857469 -0.001402 -0.267269
v 0.848667 -0.000037 -0.267269
v 0.839955 0.001664 -0.267269
v 0.831277 0.003712 -0.267269
v 0.822580 0.006118 -0.267269
v 0.813807 0.008894 -0.267269
v 0.804904 0.012051 -0.267269
v 0.795816 0.015601 -0.267269
v 0.786488 0.019556 -0.267269
v 1.269558 -0.000000 -0.267269
v 1.172195 -0.000000 -0.267269
v 1.155333 0.000823 -0.267269
v 1.140278 0.003182 -0.267269
v 1.126966 0.006917 -0.267269
v 1.115331 0.011866 -0.267269
v 1.105308 0.017866 -0.267269
v 1.096833 0.024757 -0.267269
v 1.089839 0.032375 -0.267269
v 1.084263 0.040560 -0.267269
v 1.080040 0.049150 -0.267269
v 1.077103 0.057982 -0.267269
v 1.075389 0.066895 -0.267269
v 1.074832 0.075727 -0.267269
v 1.075364 0.085074 -0.267269
v 1.076940 0.093955 -0.267269
v 1.079526 0.102336 -0.267269
v 1.083092 0.110184 -0.267269
v 1.087606 0.117466 -0.267269
v 1.093036 0.124148 -0.267269
v 1.099350 0.130197 -0.267269
v 1.106516 0.135581 -0.267269
v 1.114503 0.140265 -0.267269
v 1.123279 0.144216 -0.267269
v 1.132812 0.147402 -0.267269
v 1.143070 0.149789 -0.267269
v 1.143070 0.150621 -0.267269
v 1.136012 0.153787 -0.267269
v 1.129607 0.157259 -0.267269
v 1.123845 0.161049 -0.267269
v 1.118721 0.165169 -0.267269
v 1.114227 0.169629 -0.267269
v 1.110355 0.174442 -0.267269
v 1.107099 0.179619 -0.267269
v 1.104451 0.185171 -0.267269
v 1.102404 0.191111 -0.267269
v 1.100951 0.197450 -0.267269
v 1.100084 0.204198 -0.267269
v 1.099797 0.211369 -0.267269
v 1.100348 0.220310 -0.267269
v 1.102022 0.229156 -0.267269
v 1.104849 0.237777 -0.267269
v 1.108858 0.246042 -0.267269
v 1.114082 0.253822 -0.267269
v 1.120549 0.260987 -0.267269
v 1.128291 0.267405 -0.267269
v 1.137337 0.272949 -0.267269
v 1.147718 0.277487 -0.267269
v 1.159464 0.280889 -0.267269
v 1.172606 0.283026 -0.267269
v 1.187174 0.283767 -0.267269
v 1.269558 0.283767 -0.267269
v 1.228782 0.247152 -0.267269
v 1.191335 0.247152 -0.267269
v 1.182494 0.246779 -0.267269
v 1.174665 0.245698 -0.267269
v 1.167800 0.243960 -0.267269
v 1.161855 0.241620 -0.267269
v 1.156782 0.238730 -0.267269
v 1.152535 0.235346 -0.267269
v 1.149069 0.231519 -0.267269
v 1.146336 0.227303 -0.267269
v 1.144292 0.222753 -0.267269
v 1.142888 0.217920 -0.267269
v 1.142080 0.212860 -0.267269
v 1.141821 0.207624 -0.267269
v 1.142229 0.200351 -0.267269
v 1.143457 0.193718 -0.267269
v 1.145507 0.187724 -0.267269
v 1.148386 0.182367 -0.267269
v 1.152097 0.177645 -0.267269
v 1.156644 0.173558 -0.267269
v 1.162032 0.170103 -0.267269
v 1.168265 0.167280 -0.267269
v 1.175348 0.165086 -0.267269
v 1.183285 0.163522 -0.267269
v 1.192080 0.162584 -0.267269
v 1.201737 0.162271 -0.267269
v 1.228782 0.162271 -0.267269
v 1.228782 0.125656 -0.267269
v 1.179685 0.125656 -0.267269
v 1.169446 0.125281 -0.267269
v 1.160150 0.124181 -0.267269
v 1.151788 0.122393 -0.267269
v 1.144349 0.119955 -0.267269
v 1.137823 0.116904 -0.267269
v 1.132199 0.113278 -0.267269
v 1.127469 0.109115 -0.267269
v 1.123622 0.104452 -0.267269
v 1.120647 0.099326 -0.267269
v 1.118534 0.093776 -0.267269
v 1.117274 0.087839 -0.267269
v 1.116856 0.081552 -0.267269
v 1.117138 0.076210 -0.267269
v 1.118033 0.070855 -0.267269
v 1.119619 0.065578 -0.267269
v 1.121973 0.060470 -0.267269
v 1.125170 0.055623 -0.267269
v 1.129287 0.051126 -0.267269
v 1.134401 0.047071 -0.267269
v 1.140588 0.043550 -0.267269
v 1.147926 0.040652 -0.267269
v 1.156490 0.038470 -0.267269
v 1.166357 0.037094 -0.267269
v 1.177604 0.036615 -0.267269
v 1.228782 0.036615 -0.267269
vn -0.0000 -0.0000 1.0000
vn -0.0000 -0.0000 -1.0000
vn 0.0001 -0.0000 -1.0000
vn 0.8049 0.5934 -0.0000
vn -0.8956 -0.4449 -0.0000
vn -0.9823 -0.1873 -0.0000
vn -0.6266 -0.7794 -0.0000
vn 0.9819 -0.1895 -0.0000
vn -0.9107 -0.4130 -0.0000
vn 0.1934 0.9811 -0.0000
vn -0.9465 -0.3227 -0.0000
vn 0.9803 0.1976 -0.0000
vn -0.7291 0.6844 -0.0000
vn 0.1060 0.9944 -0.0000
vn -0.9476 0.3196 -0.0000
vn 0.7416 0.6709 -0.0000
vn 0.9475 0.3199 -0.0000
vn 0.0323 0.9995 -0.0000
vn -0.9808 -0.1949 -0.0000
vn 0.9979 0.0655 -0.0000
vn -0.6839 0.7296 -0.0000
vn -0.9506 -0.3105 -0.0000
vn 0.8754 -0.4834 -0.0000
vn 0.9497 -0.3132 -0.0000
vn -0.9979 -0.0647 -0.0000
vn 0.6782 0.7348 -0.0000
vn -0.0000 1.0000 -0.0000
vn 0.8963 0.4435 -0.0000
vn -0.9980 0.0630 -0.0000
vn 0.9979 -0.0644 -0.0000
vn -0.6339 0.7734 -0.0000
vn -0.5496 -0.8354 -0.0000
vn -0.8965 0.4430 -0.0000
vn 0.6195 0.7850 -0.0000
vn 1.0000 -0.0000 -0.0000
vn -0.4765 -0.8792 -0.0000
vn -0.9027 -0.4302 -0.0000
vn 0.9016 -0.4325 -0.0000
vn -0.8400 -0.5426 -0.0000
vn -0.4093 -0.9124 -0.0000
vn -0.0000 -1.0000 -0.0000
vn 0.8286 0.5598 -0.0000
vn -0.5797 0.8148 -0.0000
vn -1.0000 -0.0000 -0.0000
vn 0.5595 0.8288 -0.0000
vn -0.2266 0.9740 -0.0000
vn -0.8291 0.5591 -0.0000
vn 0.4988 0.8667 -0.0000
vn -0.9813 0.1926 -0.0000
vn 0.7459 0.6660 -0.0000
vn -0.3170 0.9484 -0.0000
vn 0.9807 -0.1956 -0.0000
vn -0.5217 0.8531 -0.0000
vn -0.4106 0.9118 -0.0000
vn -0.7467 0.6651 -0.0000
vn 0.4377 0.8991 -0.0000
vn -0.9463 0.3233 -0.0000
vn -0.5059 0.8626 -0.0000
vn -0.8387 -0.5446 -0.0000
vn 0.8379 -0.5459 -0.0000
vn -0.4608 0.8875 -0.0000
vn -0.6006 0.7995 -0.0000
vn 0.9454 -0.3260 -0.0000
vn 0.7902 -0.6128 -0.0000
vn 0.6501 0.7599 -0.0000
vn 0.3766 0.9264 -0.0000
vn -0.8926 0.4509 -0.0000
vn -0.6918 0.7221 -0.0000
vn -0.6512 0.7589 -0.0000
vn -0.8209 0.5711 -0.0000
vn 0.5434 0.8395 -0.0000
vn -0.3977 0.9175 -0.0000
vn 0.8921 -0.4518 -0.0000
vn 0.3159 0.9488 -0.0000
vn 0.0366 -0.9993 -0.0000
vn -0.5447 0.8386 -0.0000
vn 0.1176 -0.9931 -0.0000
vn -0.7332 0.6800 -0.0000
vn -0.3335 0.9428 -0.0000
vn 0.8220 -0.5696 -0.0000
vn -0.7588 -0.6513 -0.0000
vn 0.2091 -0.9779 -0.0000
vn 0.7589 -0.6513 -0.0000
vn -0.7466 -0.6653 -0.0000
vn 0.2558 0.9667 -0.0000
vn -0.6326 0.7745 -0.0000
vn 0.4283 0.9036 -0.0000
vn -0.7761 0.6306 -0.0000
vn 0.3115 -0.9503 -0.0000
vn -0.5225 0.8527 -0.0000
vn -0.2691 0.9631 -0.0000
vn 0.7368 -0.6761 -0.0000
vn -0.4297 0.9030 -0.0000
vn 0.1965 0.9805 -0.0000
vn 0.4235 -0.9059 -0.0000
vn 0.3076 0.9515 -0.0000
vn -0.4065 0.9136 -0.0000
vn -0.2056 0.9786 -0.0000
vn -0.8499 0.5269 -0.0000
vn 0.2985 0.9544 -0.0000
vn -0.3089 0.9511 -0.0000
vn 0.1385 0.9904 -0.0000
vn 0.5419 -0.8404 -0.0000
vn 0.2857 0.9583 -0.0000
vn -0.6639 -0.7478 -0.0000
vn 0.6607 -0.7507 -0.0000
vn 0.6654 -0.7465 -0.0000
vn -0.1437 0.9896 -0.0000
vn 0.2702 0.9628 -0.0000
vn 0.0818 0.9966 -0.0000
vn 0.1841 0.9829 -0.0000
vn -0.9104 0.4137 -0.0000
vn 0.7713 -0.6364 -0.0000
vn -0.2882 0.9576 -0.0000
vn -0.0841 0.9965 -0.0000
vn 0.2520 0.9677 -0.0000
vn -0.1851 0.9827 -0.0000
vn 0.0268 0.9996 -0.0000
vn 0.8649 -0.5020 -0.0000
vn 0.0606 0.9982 -0.0000
vn 0.2312 0.9729 -0.0000
vn -0.0273 0.9996 -0.0000
vn -0.9555 0.2949 -0.0000
vn 0.2077 0.9782 -0.0000
vn -0.0610 0.9981 -0.0000
vn 0.9346 -0.3557 -0.0000
vn 0.6891 -0.7246 -0.0000
vn -0.1703 0.9854 -0.0000
vn -0.5560 -0.8312 -0.0000
vn -0.9846 0.1746 -0.0000
vn 0.6391 -0.7691 -0.0000
vn 0.5591 -0.8291 -0.0000
vn -0.6346 -0.7729 -0.0000
vn 0.9782 -0.2076 -0.0000
vn 0.5790 -0.8154 -0.0000
vn 0.1817 0.9833 -0.0000
vn 0.9978 -0.0663 -0.0000
vn -0.4377 -0.8991 -0.0000
vn 0.1533 0.9882 -0.0000
vn 0.4420 -0.8970 -0.0000
vn -0.5110 -0.8596 -0.0000
vn 0.4659 -0.8848 -0.0000
vn -0.9984 0.0568 -0.0000
vn 0.1226 0.9925 -0.0000
vn 0.9986 0.0526 -0.0000
vn -0.3128 -0.9498 -0.0000
vn 0.3176 -0.9482 -0.0000
vn -0.3845 -0.9231 -0.0000
vn 0.9863 0.1649 -0.0000
vn -0.0555 0.9985 -0.0000
vn 0.3546 -0.9350 -0.0000
vn 0.0898 0.9960 -0.0000
vn -0.1856 -0.9826 -0.0000
vn -0.9980 -0.0629 -0.0000
vn 0.0550 0.9985 -0.0000
vn 0.1895 -0.9819 -0.0000
vn -0.2620 -0.9651 -0.0000
vn 0.9577 0.2878 -0.0000
vn 0.2473 -0.9689 -0.0000
vn 0.0186 0.9998 -0.0000
vn 0.0620 -0.9981 -0.0000
vn -0.0603 -0.9982 -0.0000
vn -0.9820 -0.1889 -0.0000
vn 0.9191 -0.3941 -0.0000
vn -0.1486 -0.9889 -0.0000
vn 0.9082 0.4184 -0.0000
vn 0.5316 -0.8470 -0.0000
vn 0.1450 -0.9894 -0.0000
vn 0.8348 0.5505 -0.0000
vn 0.0474 -0.9989 -0.0000
vn -0.3903 -0.9207 -0.0000
vn -0.9193 0.3935 -0.0000
vn -0.0465 -0.9989 -0.0000
vn 0.9200 0.3918 -0.0000
vn -0.9489 -0.3155 -0.0000
vn -0.3639 -0.9314 -0.0000
vn 0.7375 0.6753 -0.0000
vn 0.4170 -0.9089 -0.0000
vn 0.6213 0.7836 -0.0000
vn -0.9220 -0.3873 -0.0000
vn -0.3342 -0.9425 -0.0000
vn -0.8974 -0.4413 -0.0000
vn -0.3017 -0.9534 -0.0000
vn 0.4946 0.8691 -0.0000
vn 0.2983 -0.9545 -0.0000
vn 0.0610 0.9981 -0.0000
vn 0.3673 0.9301 -0.0000
vn -0.2666 -0.9638 -0.0000
vn -0.0597 0.9982 -0.0000
vn 0.2469 0.9690 -0.0000
vn -0.2297 -0.9733 -0.0000
vn -0.1832 0.9831 -0.0000
vn -0.7782 0.6281 -0.0000
vn 0.1863 0.9825 -0.0000
vn -0.8264 -0.5630 -0.0000
vn -0.1916 -0.9815 -0.0000
vn 0.7768 0.6298 -0.0000
vn 0.1381 0.9904 -0.0000
vn 0.1779 -0.9840 -0.0000
vn -0.3087 0.9512 -0.0000
vn 0.0425 0.9991 -0.0000
vn 0.3123 0.9500 -0.0000
vn -0.1533 -0.9882 -0.0000
vn -0.1157 -0.9933 -0.0000
vn -0.4322 0.9018 -0.0000
vn 0.4351 0.9004 -0.0000
vn -0.0796 -0.9968 -0.0000
vn -0.7367 -0.6762 -0.0000
vn 0.0584 -0.9983 -0.0000
vn -0.5498 0.8353 -0.0000
vn -0.6308 -0.7759 -0.0000
vn -0.0145 -0.9999 -0.0000
vn 0.7826 -0.6225 -0.0000
vn 0.5514 0.8342 -0.0000
vn -0.0457 -0.9990 -0.0000
vn -0.5137 -0.8580 -0.0000
vn -0.7826 -0.6225 -0.0000
vn -0.6581 0.7530 -0.0000
vn -0.3914 -0.9202 -0.0000
vn 0.6581 0.7529 -0.0000
vn -0.2701 -0.9628 -0.0000
vn 0.0613 0.9981 -0.0000
vn -0.1549 -0.9879 -0.0000
vn -0.0508 0.9987 -0.0000
vn -0.0144 0.9999 -0.0000
vn -0.0605 -0.9982 -0.0000
vn -0.0487 -0.9988 -0.0000
vn -0.1605 0.9870 -0.0000
vn 0.0601 -0.9982 -0.0000
vn -0.0473 0.9989 -0.0000
vn -0.2782 0.9605 -0.0000
vn 0.1828 -0.9832 -0.0000
vn -0.0850 0.9964 -0.0000
vn -0.4005 0.9163 -0.0000
vn -0.1262 0.9920 -0.0000
vn -0.1837 -0.9830 -0.0000
vn -0.5225 0.8526 -0.0000
vn 0.1854 0.9827 -0.0000
vn 0.3058 -0.9521 -0.0000
vn -0.6383 0.7698 -0.0000
vn -0.1688 0.9856 -0.0000
vn -0.3071 -0.9517 -0.0000
vn -0.7423 0.6701 -0.0000
vn -0.2109 0.9775 -0.0000
vn -0.7539 0.6570 -0.0000
vn 0.7526 0.6584 -0.0000
vn -0.2504 0.9681 -0.0000
vn -0.8302 0.5574 -0.0000
vn 0.3084 0.9513 -0.0000
vn 0.4264 -0.9046 -0.0000
vn 0.0421 -0.9991 -0.0000
vn -0.2860 0.9582 -0.0000
vn -0.4278 -0.9039 -0.0000
vn 0.5417 -0.8406 -0.0000
vn 0.1369 -0.9906 -0.0000
vn -0.3169 0.9484 -0.0000
vn 0.4278 0.9039 -0.0000
vn -0.5430 -0.8397 -0.0000
vn -0.8997 0.4365 -0.0000
vn 0.2454 -0.9694 -0.0000
vn -0.3429 0.9394 -0.0000
vn -0.8353 0.5498 -0.0000
vn 0.8333 0.5529 -0.0000
vn 0.3663 -0.9305 -0.0000
vn -0.3640 0.9314 -0.0000
vn 0.5412 0.8409 -0.0000
vn 0.6489 -0.7609 -0.0000
vn 0.4949 -0.8689 -0.0000
vn 0.9999 0.0113 -0.0000
vn 0.6233 -0.7820 -0.0000
vn -0.3807 0.9247 -0.0000
vn -0.6499 -0.7600 -0.0000
vn 0.7453 -0.6668 -0.0000
vn -0.9999 0.0117 -0.0000
vn 0.9993 0.0381 -0.0000
vn -0.9502 0.3116 -0.0000
vn 0.1147 -0.9934 -0.0000
vn 0.7412 -0.6713 -0.0000
vn -0.7460 -0.6659 -0.0000
vn 0.1590 -0.9873 -0.0000
vn -0.9987 -0.0514 -0.0000
vn 0.8391 -0.5439 -0.0000
vn -0.9008 0.4342 -0.0000
vn 0.2022 -0.9793 -0.0000
vn 0.8988 0.4384 -0.0000
vn -0.9992 0.0402 -0.0000
vn 0.9980 -0.0639 -0.0000
vn -0.9826 0.1859 -0.0000
vn 0.2441 -0.9697 -0.0000
vn 0.8284 -0.5601 -0.0000
vn 0.9121 -0.4099 -0.0000
vn 0.9974 0.0716 -0.0000
vn 0.2847 -0.9586 -0.0000
vn 0.9603 -0.2789 -0.0000
vn -0.8289 -0.5593 -0.0000
vn 0.3239 -0.9461 -0.0000
vn -0.9970 0.0770 -0.0000
vn -0.9498 0.3128 -0.0000
vn 0.9937 0.1122 -0.0000
vn -0.9981 0.0615 -0.0000
vn 0.3617 -0.9323 -0.0000
vn 0.9483 0.3173 -0.0000
vn 0.9875 -0.1577 -0.0000
vn 0.3979 -0.9174 -0.0000
vn 0.8964 -0.4432 -0.0000
vn -0.9924 0.1233 -0.0000
vn 0.9988 -0.0494 -0.0000
vn 0.4326 -0.9016 -0.0000
vn -0.9867 -0.1627 -0.0000
vn -0.8967 -0.4427 -0.0000
vn 0.9870 0.1606 -0.0000
vn -0.9992 -0.0400 -0.0000
vn 0.4659 -0.8849 -0.0000
vn 0.9477 -0.3192 -0.0000
vn 0.9984 0.0560 -0.0000
vn 0.6465 0.7629 -0.0000
vn -0.9837 0.1800 -0.0000
vn -0.9478 -0.3189 -0.0000
vn 0.9797 -0.2006 -0.0000
vn -0.9919 -0.1274 -0.0000
vn 0.9833 0.1819 -0.0000
vn 0.0233 -0.9997 -0.0000
vn -0.9822 0.1881 -0.0000
vn 0.9761 0.2171 -0.0000
vn 0.9814 0.1917 -0.0000
vn 0.0694 -0.9976 -0.0000
vn -0.9747 -0.2235 -0.0000
vn 0.9815 -0.1913 -0.0000
vn -0.9690 0.2472 -0.0000
vn 0.9462 0.3237 -0.0000
vn -0.0635 -0.9980 -0.0000
vn 0.9595 0.2817 -0.0000
vn -0.1914 -0.9815 -0.0000
vn -0.9815 -0.1912 -0.0000
vn -0.9454 -0.3258 -0.0000
vn -0.9463 0.3232 -0.0000
vn 0.8809 0.4733 -0.0000
vn -0.3169 -0.9485 -0.0000
vn -0.9981 0.0624 -0.0000
vn 0.7414 0.6711 -0.0000
vn 0.9980 0.0639 -0.0000
vn -0.9587 -0.2844 -0.0000
vn 0.9354 0.3537 -0.0000
vn -0.9026 -0.4304 -0.0000
vn 0.9980 -0.0630 -0.0000
vn 0.7862 0.6179 -0.0000
vn -0.4376 -0.8992 -0.0000
vn -0.9144 0.4048 -0.0000
vn -0.5510 -0.8345 -0.0000
vn -0.9980 -0.0630 -0.0000
vn 0.9022 0.4314 -0.0000
vn -0.8465 -0.5324 -0.0000
vn 0.8240 0.5665 -0.0000
vn 0.9980 -0.0633 -0.0000
vn 0.6685 0.7437 -0.0000
vn 0.9393 -0.3431 -0.0000
vn -0.6552 -0.7554 -0.0000
vn -0.9980 0.0633 -0.0000
vn -0.7792 -0.6268 -0.0000
vn 0.9980 0.0634 -0.0000
vn -0.8736 0.4866 -0.0000
vn 0.5397 0.8418 -0.0000
vn -0.7485 -0.6632 -0.0000
vn 0.8588 0.5124 -0.0000
vn 0.8924 0.4512 -0.0000
vn 0.4126 0.9109 -0.0000
vn -0.9980 -0.0624 -0.0000
vn -0.8263 0.5632 -0.0000
vn -0.8291 -0.5591 -0.0000
vn -0.9814 0.1919 -0.0000
vn -0.7044 -0.7098 -0.0000
vn 0.9449 0.3272 -0.0000
vn 0.9814 0.1920 -0.0000
vn -0.7766 0.6300 -0.0000
vn 0.2958 0.9552 -0.0000
vt 0.181818 0.000000
vt 0.090909 0.000000
vt 0.909091 0.000000
vt 0.000000 0.000000
vt 1.000000 0.000000
vt 0.818182 0.000000
vt 0.545455 0.000000
vt 0.727273 0.000000
vt 0.636364 0.000000
vt 0.454545 0.000000
vt 0.363636 0.000000
vt 0.272727 0.000000
vt 0.357143 0.000000
vt 0.285714 0.000000
vt 0.214286 0.000000
vt 0.500000 0.000000
vt 0.571429 0.000000
vt 0.142857 0.000000
vt 0.071429 0.000000
vt 0.785714 0.000000
vt 0.857143 0.000000
vt 0.428571 0.000000
vt 0.642857 0.000000
vt 0.714286 0.000000
vt 0.928571 0.000000
vt 0.688312 0.000000
vt 0.675325 0.000000
vt 0.662338 0.000000
vt 0.649351 0.000000
vt 0.025974 0.000000
vt 0.012987 0.000000
vt 0.038961 0.000000
vt 0.051948 0.000000
vt 0.987013 0.000000
vt 0.623377 0.000000
vt 0.701299 0.000000
vt 0.064935 0.000000
vt 0.610390 0.000000
vt 0.077922 0.000000
vt 0.597403 0.000000
vt 0.974026 0.000000
vt 0.584416 0.000000
vt 0.103896 0.000000
vt 0.116883 0.000000
vt 0.558442 0.000000
vt 0.961039 0.000000
vt 0.129870 0.000000
vt 0.532468 0.000000
vt 0.155844 0.000000
vt 0.519481 0.000000
vt 0.506494 0.000000
vt 0.168831 0.000000
vt 0.948052 0.000000
vt 0.493506 0.000000
vt 0.480519 0.000000
vt 0.740260 0.000000
vt 0.194805 0.000000
vt 0.467532 0.000000
vt 0.207792 0.000000
vt 0.935065 0.000000
vt 0.220779 0.000000
vt 0.233766 0.000000
vt 0.441558 0.000000
vt 0.246753 0.000000
vt 0.753247 0.000000
vt 0.259740 0.000000
vt 0.415584 0.000000
vt 0.402597 0.000000
vt 0.922078 0.000000
vt 0.389610 0.000000
vt 0.298701 0.000000
vt 0.376623 0.000000
vt 0.311688 0.000000
vt 0.324675 0.000000
vt 0.350649 0.000000
vt 0.337662 0.000000
vt 0.766234 0.000000
vt 0.779221 0.000000
vt 0.896104 0.000000
vt 0.792208 0.000000
vt 0.883117 0.000000
vt 0.805195 0.000000
vt 0.870130 0.000000
vt 0.831169 0.000000
vt 0.844156 0.000000
vt 0.400000 0.000000
vt 0.200000 0.000000
vt 0.800000 0.000000
vt 0.600000 0.000000
vt 0.389474 0.000000
vt 0.378947 0.000000
vt 0.368421 0.000000
vt 0.357895 0.000000
vt 0.347368 0.000000
vt 0.410526 0.000000
vt 0.336842 0.000000
vt 0.421053 0.000000
vt 0.326316 0.000000
vt 0.431579 0.000000
vt 0.315789 0.000000
vt 0.442105 0.000000
vt 0.631579 0.000000
vt 0.621053 0.000000
vt 0.642105 0.000000
vt 0.652632 0.000000
vt 0.610526 0.000000
vt 0.663158 0.000000
vt 0.305263 0.000000
vt 0.452632 0.000000
vt 0.673684 0.000000
vt 0.589474 0.000000
vt 0.684211 0.000000
vt 0.578947 0.000000
vt 0.294737 0.000000
vt 0.463158 0.000000
vt 0.694737 0.000000
vt 0.568421 0.000000
vt 0.705263 0.000000
vt 0.557895 0.000000
vt 0.284211 0.000000
vt 0.473684 0.000000
vt 0.715789 0.000000
vt 0.547368 0.000000
vt 0.273684 0.000000
vt 0.484211 0.000000
vt 0.726316 0.000000
vt 0.536842 0.000000
vt 0.736842 0.000000
vt 0.526316 0.000000
vt 0.263158 0.000000
vt 0.494737 0.000000
vt 0.747368 0.000000
vt 0.515789 0.000000
vt 0.252632 0.000000
vt 0.757895 0.000000
vt 0.505263 0.000000
vt 0.010526 0.000000
vt 0.768421 0.000000
vt 0.242105 0.000000
vt 0.989474 0.000000
vt 0.778947 0.000000
vt 0.231579 0.000000
vt 0.021053 0.000000
vt 0.978947 0.000000
vt 0.789474 0.000000
vt 0.221053 0.000000
vt 0.031579 0.000000
vt 0.968421 0.000000
vt 0.210526 0.000000
vt 0.042105 0.000000
vt 0.810526 0.000000
vt 0.957895 0.000000
vt 0.821053 0.000000
vt 0.947368 0.000000
vt 0.052632 0.000000
vt 0.831579 0.000000
vt 0.936842 0.000000
vt 0.842105 0.000000
vt 0.926316 0.000000
vt 0.189474 0.000000
vt 0.063158 0.000000
vt 0.852632 0.000000
vt 0.915789 0.000000
vt 0.863158 0.000000
vt 0.905263 0.000000
vt 0.178947 0.000000
vt 0.073684 0.000000
vt 0.873684 0.000000
vt 0.894737 0.000000
vt 0.884211 0.000000
vt 0.168421 0.000000
vt 0.084211 0.000000
vt 0.157895 0.000000
vt 0.094737 0.000000
vt 0.147368 0.000000
vt 0.105263 0.000000
vt 0.136842 0.000000
vt 0.115789 0.000000
vt 0.126316 0.000000
vt 0.833333 0.000000
vt 0.666667 0.000000
vt 0.333333 0.000000
vt 0.166667 0.000000
vt 0.653465 0.000000
vt 0.643564 0.000000
vt 0.633663 0.000000
vt 0.623762 0.000000
vt 0.613861 0.000000
vt 0.603960 0.000000
vt 0.663366 0.000000
vt 0.594059 0.000000
vt 0.584158 0.000000
vt 0.574257 0.000000
vt 0.673267 0.000000
vt 0.564356 0.000000
vt 0.554455 0.000000
vt 0.683168 0.000000
vt 0.544554 0.000000
vt 0.534653 0.000000
vt 0.693069 0.000000
vt 0.524752 0.000000
vt 0.415842 0.000000
vt 0.425743 0.000000
vt 0.435644 0.000000
vt 0.445545 0.000000
vt 0.455446 0.000000
vt 0.465347 0.000000
vt 0.475248 0.000000
vt 0.485149 0.000000
vt 0.495050 0.000000
vt 0.504951 0.000000
vt 0.514852 0.000000
vt 0.702970 0.000000
vt 0.396040 0.000000
vt 0.405941 0.000000
vt 0.386139 0.000000
vt 0.376238 0.000000
vt 0.366337 0.000000
vt 0.712871 0.000000
vt 0.356436 0.000000
vt 0.346535 0.000000
vt 0.722772 0.000000
vt 0.336634 0.000000
vt 0.326733 0.000000
vt 0.732673 0.000000
vt 0.316832 0.000000
vt 0.742574 0.000000
vt 0.306931 0.000000
vt 0.297030 0.000000
vt 0.752475 0.000000
vt 0.287129 0.000000
vt 0.762376 0.000000
vt 0.277228 0.000000
vt 0.267327 0.000000
vt 0.772277 0.000000
vt 0.019802 0.000000
vt 0.009901 0.000000
vt 0.029703 0.000000
vt 0.257426 0.000000
vt 0.782178 0.000000
vt 0.247525 0.000000
vt 0.039604 0.000000
vt 0.792079 0.000000
vt 0.237624 0.000000
vt 0.227723 0.000000
vt 0.801980 0.000000
vt 0.217822 0.000000
vt 0.811881 0.000000
vt 0.207921 0.000000
vt 0.198020 0.000000
vt 0.821782 0.000000
vt 0.188119 0.000000
vt 0.049505 0.000000
vt 0.059406 0.000000
vt 0.069307 0.000000
vt 0.178218 0.000000
vt 0.079208 0.000000
vt 0.089109 0.000000
vt 0.099010 0.000000
vt 0.168317 0.000000
vt 0.831683 0.000000
vt 0.108911 0.000000
vt 0.118812 0.000000
vt 0.128713 0.000000
vt 0.158416 0.000000
vt 0.138614 0.000000
vt 0.148515 0.000000
vt 0.841584 0.000000
vt 0.990099 0.000000
vt 0.980198 0.000000
vt 0.851485 0.000000
vt 0.970297 0.000000
vt 0.960396 0.000000
vt 0.861386 0.000000
vt 0.950495 0.000000
vt 0.940594 0.000000
vt 0.930693 0.000000
vt 0.871287 0.000000
vt 0.920792 0.000000
vt 0.910891 0.000000
vt 0.900990 0.000000
vt 0.881188 0.000000
vt 0.891089 0.000000
vt 0.485714 0.000000
vt 0.495238 0.000000
vt 0.476190 0.000000
vt 0.466667 0.000000
vt 0.457143 0.000000
vt 0.447619 0.000000
vt 0.438095 0.000000
vt 0.419048 0.000000
vt 0.409524 0.000000
vt 0.504762 0.000000
vt 0.742857 0.000000
vt 0.514286 0.000000
vt 0.523810 0.000000
vt 0.390476 0.000000
vt 0.533333 0.000000
vt 0.542857 0.000000
vt 0.552381 0.000000
vt 0.561905 0.000000
vt 0.380952 0.000000
vt 0.580952 0.000000
vt 0.371429 0.000000
vt 0.590476 0.000000
vt 0.361905 0.000000
vt 0.609524 0.000000
vt 0.619048 0.000000
vt 0.352381 0.000000
vt 0.628571 0.000000
vt 0.342857 0.000000
vt 0.638095 0.000000
vt 0.647619 0.000000
vt 0.323810 0.000000
vt 0.657143 0.000000
vt 0.314286 0.000000
vt 0.304762 0.000000
vt 0.676190 0.000000
vt 0.295238 0.000000
vt 0.685714 0.000000
vt 0.695238 0.000000
vt 0.704762 0.000000
vt 0.276190 0.000000
vt 0.723810 0.000000
vt 0.733333 0.000000
vt 0.752381 0.000000
vt 0.266667 0.000000
vt 0.257143 0.000000
vt 0.247619 0.000000
vt 0.238095 0.000000
vt 0.228571 0.000000
vt 0.219048 0.000000
vt 0.209524 0.000000
vt 0.190476 0.000000
vt 0.761905 0.000000
vt 0.180952 0.000000
vt 0.771429 0.000000
vt 0.780952 0.000000
vt 0.790476 0.000000
vt 0.171429 0.000000
vt 0.809524 0.000000
vt 0.161905 0.000000
vt 0.819048 0.000000
vt 0.828571 0.000000
vt 0.152381 0.000000
vt 0.838095 0.000000
vt 0.847619 0.000000
vt 0.133333 0.000000
vt 0.866667 0.000000
vt 0.876190 0.000000
vt 0.123810 0.000000
vt 0.885714 0.000000
vt 0.895238 0.000000
vt 0.114286 0.000000
vt 0.904762 0.000000
vt 0.104762 0.000000
vt 0.914286 0.000000
vt 0.923810 0.000000
vt 0.095238 0.000000
vt 0.933333 0.000000
vt 0.942857 0.000000
vt 0.085714 0.000000
vt 0.952381 0.000000
vt 0.961905 0.000000
vt 0.971429 0.000000
vt 0.076190 0.000000
vt 0.980952 0.000000
vt 0.990476 0.000000
vt 0.066667 0.000000
vt 0.057143 0.000000
vt 0.047619 0.000000
vt 0.038095 0.000000
vt 0.028571 0.000000
vt 0.019048 0.000000
vt 0.009524 0.000000
s 0
usemtl マテリアル
f 3/1/1 2/2/1 11/3/1
f 11/3/1 2/2/1 1/4/1
f 11/3/1 1/4/1 12/5/1
f 3/1/1 11/3/1 10/6/1
f 3/1/1 10/6/1 7/7/1
f 7/7/1 10/6/1 9/8/1
f 7/7/1 9/8/1 8/9/1
f 3/1/1 7/7/1 6/10/1
f 3/1/1 6/10/1 5/11/1
f 3/1/1 5/11/1 4/12/1
f 18/13/1 17/14/1 16/15/1
f 18/13/1 16/15/1 20/16/1
f 20/16/1 16/15/1 21/17/1
f 21/17/1 16/15/1 15/18/1
f 15/18/1 14/19/1 13/4/1
f 15/18/1 13/4/1 24/20/1
f 24/20/1 13/4/1 25/21/1
f 25/21/1 13/4/1 27/5/1
f 18/13/1 20/16/1 19/22/1
f 22/23/1 21/17/1 15/18/1
f 15/18/1 24/20/1 23/24/1
f 26/25/1 25/21/1 27/5/1
f 22/23/1 15/18/1 23/24/1
f 81/26/1 80/27/1 79/28/1
f 81/26/1 79/28/1 78/29/1
f 30/30/1 29/31/1 28/4/1
f 30/30/1 28/4/1 105/5/1
f 31/32/1 30/30/1 105/5/1
f 81/26/1 78/29/1 77/9/1
f 32/33/1 31/32/1 105/5/1
f 32/33/1 105/5/1 104/34/1
f 81/26/1 77/9/1 76/35/1
f 82/36/1 81/26/1 76/35/1
f 33/37/1 32/33/1 104/34/1
f 82/36/1 76/35/1 75/38/1
f 34/39/1 33/37/1 104/34/1
f 82/36/1 75/38/1 74/40/1
f 34/39/1 104/34/1 103/41/1
f 35/2/1 34/39/1 103/41/1
f 82/36/1 74/40/1 73/42/1
f 83/24/1 82/36/1 73/42/1
f 36/43/1 35/2/1 103/41/1
f 83/24/1 73/42/1 72/17/1
f 37/44/1 36/43/1 103/41/1
f 83/24/1 72/17/1 71/45/1
f 37/44/1 103/41/1 102/46/1
f 38/47/1 37/44/1 102/46/1
f 83/24/1 71/45/1 70/7/1
f 39/18/1 38/47/1 102/46/1
f 84/8/1 83/24/1 70/7/1
f 84/8/1 70/7/1 69/48/1
f 40/49/1 39/18/1 102/46/1
f 84/8/1 69/48/1 68/50/1
f 84/8/1 68/50/1 67/51/1
f 41/52/1 40/49/1 102/46/1
f 41/52/1 102/46/1 101/53/1
f 84/8/1 67/51/1 66/54/1
f 42/1/1 41/52/1 101/53/1
f 84/8/1 66/54/1 65/55/1
f 85/56/1 84/8/1 65/55/1
f 43/57/1 42/1/1 101/53/1
f 85/56/1 65/55/1 64/58/1
f 44/59/1 43/57/1 101/53/1
f 44/59/1 101/53/1 100/60/1
f 85/56/1 64/58/1 63/10/1
f 45/61/1 44/59/1 100/60/1
f 46/62/1 45/61/1 100/60/1
f 85/56/1 63/10/1 62/63/1
f 47/64/1 46/62/1 100/60/1
f 85/56/1 62/63/1 61/22/1
f 86/65/1 85/56/1 61/22/1
f 48/66/1 47/64/1 100/60/1
f 86/65/1 61/22/1 60/67/1
f 49/12/1 48/66/1 100/60/1
f 86/65/1 60/67/1 59/68/1
f 49/12/1 100/60/1 99/69/1
f 50/14/1 49/12/1 99/69/1
f 86/65/1 59/68/1 58/70/1
f 51/71/1 50/14/1 99/69/1
f 86/65/1 58/70/1 57/72/1
f 52/73/1 51/71/1 99/69/1
f 86/65/1 57/72/1 56/11/1
f 53/74/1 52/73/1 99/69/1
f 86/65/1 56/11/1 55/75/1
f 54/76/1 53/74/1 99/69/1
f 86/65/1 55/75/1 54/76/1
f 86/65/1 54/76/1 99/69/1
f 87/77/1 86/65/1 99/69/1
f 87/77/1 99/69/1 98/3/1
f 88/78/1 87/77/1 98/3/1
f 88/78/1 98/3/1 97/79/1
f 89/80/1 88/78/1 97/79/1
f 89/80/1 97/79/1 96/81/1
f 90/82/1 89/80/1 96/81/1
f 90/82/1 96/81/1 95/83/1
f 91/6/1 90/82/1 95/83/1
f 91/6/1 95/83/1 94/21/1
f 92/84/1 91/6/1 94/21/1
f 92/84/1 94/21/1 93/85/1
f 108/86/1 107/87/1 106/4/1
f 108/86/1 106/4/1 111/5/1
f 108/86/1 111/5/1 110/88/1
f 108/86/1 110/88/1 109/89/1
f 149/90/1 148/91/1 147/92/1
f 149/90/1 147/92/1 146/93/1
f 150/86/1 149/90/1 146/93/1
f 150/86/1 146/93/1 145/94/1
f 151/95/1 150/86/1 145/94/1
f 151/95/1 145/94/1 144/96/1
f 152/97/1 151/95/1 144/96/1
f 152/97/1 144/96/1 143/98/1
f 153/99/1 152/97/1 143/98/1
f 153/99/1 143/98/1 142/100/1
f 154/101/1 153/99/1 172/102/1
f 172/102/1 153/99/1 142/100/1
f 154/101/1 172/102/1 171/103/1
f 173/104/1 172/102/1 142/100/1
f 174/105/1 173/104/1 142/100/1
f 154/101/1 171/103/1 170/106/1
f 175/107/1 174/105/1 142/100/1
f 154/101/1 170/106/1 169/89/1
f 175/107/1 142/100/1 141/108/1
f 155/109/1 154/101/1 169/89/1
f 176/110/1 175/107/1 141/108/1
f 155/109/1 169/89/1 168/111/1
f 177/112/1 176/110/1 141/108/1
f 155/109/1 168/111/1 167/113/1
f 177/112/1 141/108/1 140/114/1
f 156/115/1 155/109/1 167/113/1
f 178/116/1 177/112/1 140/114/1
f 156/115/1 167/113/1 166/117/1
f 179/118/1 178/116/1 140/114/1
f 156/115/1 166/117/1 165/119/1
f 179/118/1 140/114/1 139/120/1
f 157/121/1 156/115/1 165/119/1
f 180/122/1 179/118/1 139/120/1
f 157/121/1 165/119/1 164/123/1
f 180/122/1 139/120/1 138/124/1
f 158/125/1 157/121/1 164/123/1
f 181/126/1 180/122/1 138/124/1
f 158/125/1 164/123/1 163/127/1
f 182/128/1 181/126/1 138/124/1
f 158/125/1 163/127/1 162/129/1
f 182/128/1 138/124/1 137/130/1
f 159/131/1 158/125/1 162/129/1
f 183/132/1 182/128/1 137/130/1
f 159/131/1 162/129/1 161/133/1
f 183/132/1 137/130/1 136/134/1
f 112/4/1 159/131/1 161/133/1
f 184/135/1 183/132/1 136/134/1
f 112/4/1 161/133/1 160/136/1
f 113/137/1 112/4/1 160/136/1
f 113/137/1 160/136/1 207/5/1
f 185/138/1 184/135/1 136/134/1
f 185/138/1 136/134/1 135/139/1
f 113/137/1 207/5/1 206/140/1
f 186/141/1 185/138/1 135/139/1
f 186/141/1 135/139/1 134/142/1
f 114/143/1 113/137/1 206/140/1
f 114/143/1 206/140/1 205/144/1
f 187/145/1 186/141/1 134/142/1
f 187/145/1 134/142/1 133/146/1
f 115/147/1 114/143/1 205/144/1
f 188/88/1 187/145/1 133/146/1
f 115/147/1 205/144/1 204/148/1
f 188/88/1 133/146/1 132/149/1
f 116/150/1 115/147/1 204/148/1
f 189/151/1 188/88/1 132/149/1
f 116/150/1 204/148/1 203/152/1
f 190/153/1 189/151/1 132/149/1
f 116/150/1 203/152/1 202/154/1
f 190/153/1 132/149/1 131/87/1
f 117/155/1 116/150/1 202/154/1
f 191/156/1 190/153/1 131/87/1
f 117/155/1 202/154/1 201/157/1
f 192/158/1 191/156/1 131/87/1
f 117/155/1 201/157/1 200/159/1
f 192/158/1 131/87/1 130/160/1
f 118/161/1 117/155/1 200/159/1
f 193/162/1 192/158/1 130/160/1
f 118/161/1 200/159/1 199/163/1
f 194/164/1 193/162/1 130/160/1
f 118/161/1 199/163/1 198/165/1
f 194/164/1 130/160/1 129/166/1
f 119/167/1 118/161/1 198/165/1
f 195/168/1 194/164/1 129/166/1
f 119/167/1 198/165/1 197/169/1
f 196/170/1 195/168/1 129/166/1
f 119/167/1 197/169/1 196/170/1
f 119/167/1 196/170/1 129/166/1
f 119/167/1 129/166/1 128/171/1
f 120/172/1 119/167/1 128/171/1
f 120/172/1 128/171/1 127/173/1
f 121/174/1 120/172/1 127/173/1
f 121/174/1 127/173/1 126/175/1
f 122/176/1 121/174/1 126/175/1
f 122/176/1 126/175/1 125/177/1
f 123/178/1 122/176/1 125/177/1
f 123/178/1 125/177/1 124/179/1
f 213/180/1 212/181/1 211/16/1
f 213/180/1 211/16/1 210/182/1
f 210/182/1 209/183/1 208/4/1
f 210/182/1 208/4/1 214/5/1
f 213/180/1 210/182/1 214/5/1
f 220/13/1 219/14/1 218/15/1
f 220/13/1 218/15/1 222/16/1
f 222/16/1 218/15/1 223/17/1
f 223/17/1 218/15/1 217/18/1
f 217/18/1 216/19/1 215/4/1
f 217/18/1 215/4/1 226/20/1
f 226/20/1 215/4/1 227/21/1
f 227/21/1 215/4/1 229/5/1
f 220/13/1 222/16/1 221/22/1
f 224/23/1 223/17/1 217/18/1
f 217/18/1 226/20/1 225/24/1
f 228/25/1 227/21/1 229/5/1
f 224/23/1 217/18/1 225/24/1
f 296/184/1 295/185/1 294/186/1
f 296/184/1 294/186/1 293/187/1
f 296/184/1 293/187/1 292/188/1
f 296/184/1 292/188/1 291/189/1
f 297/190/1 296/184/1 291/189/1
f 297/190/1 291/189/1 290/191/1
f 297/190/1 290/191/1 289/192/1
f 297/190/1 289/192/1 288/193/1
f 298/194/1 297/190/1 288/193/1
f 298/194/1 288/193/1 287/195/1
f 298/194/1 287/195/1 286/196/1
f 299/197/1 298/194/1 286/196/1
f 299/197/1 286/196/1 285/198/1
f 299/197/1 285/198/1 284/199/1
f 300/200/1 299/197/1 284/199/1
f 300/200/1 284/199/1 283/201/1
f 300/200/1 283/201/1 272/202/1
f 272/202/1 283/201/1 273/203/1
f 273/203/1 283/201/1 274/204/1
f 274/204/1 283/201/1 275/205/1
f 275/205/1 283/201/1 276/206/1
f 276/206/1 283/201/1 277/207/1
f 277/207/1 283/201/1 278/208/1
f 278/208/1 283/201/1 279/209/1
f 279/209/1 283/201/1 280/210/1
f 280/210/1 283/201/1 281/211/1
f 281/211/1 283/201/1 282/212/1
f 301/213/1 300/200/1 270/214/1
f 270/214/1 300/200/1 271/215/1
f 271/215/1 300/200/1 272/202/1
f 301/213/1 270/214/1 269/216/1
f 301/213/1 269/216/1 268/217/1
f 301/213/1 268/217/1 267/218/1
f 302/219/1 301/213/1 267/218/1
f 302/219/1 267/218/1 266/220/1
f 302/219/1 266/220/1 265/221/1
f 303/222/1 302/219/1 265/221/1
f 303/222/1 265/221/1 264/223/1
f 303/222/1 264/223/1 263/224/1
f 304/225/1 303/222/1 263/224/1
f 304/225/1 263/224/1 262/226/1
f 305/227/1 304/225/1 262/226/1
f 305/227/1 262/226/1 261/228/1
f 305/227/1 261/228/1 260/229/1
f 306/230/1 305/227/1 260/229/1
f 306/230/1 260/229/1 259/231/1
f 307/232/1 306/230/1 259/231/1
f 307/232/1 259/231/1 258/233/1
f 307/232/1 258/233/1 257/234/1
f 308/235/1 307/232/1 257/234/1
f 232/236/1 231/237/1 230/4/1
f 232/236/1 230/4/1 233/238/1
f 233/238/1 230/4/1 331/5/1
f 308/235/1 257/234/1 256/239/1
f 309/240/1 308/235/1 256/239/1
f 309/240/1 256/239/1 255/241/1
f 234/242/1 233/238/1 331/5/1
f 310/243/1 309/240/1 255/241/1
f 310/243/1 255/241/1 254/244/1
f 310/243/1 254/244/1 253/245/1
f 311/246/1 310/243/1 253/245/1
f 311/246/1 253/245/1 252/247/1
f 312/248/1 311/246/1 252/247/1
f 312/248/1 252/247/1 251/249/1
f 312/248/1 251/249/1 250/250/1
f 313/251/1 312/248/1 250/250/1
f 313/251/1 250/250/1 249/252/1
f 235/253/1 234/242/1 331/5/1
f 236/254/1 235/253/1 331/5/1
f 237/255/1 236/254/1 331/5/1
f 313/251/1 249/252/1 248/256/1
f 238/257/1 237/255/1 331/5/1
f 239/258/1 238/257/1 331/5/1
f 240/259/1 239/258/1 331/5/1
f 313/251/1 248/256/1 247/260/1
f 314/261/1 313/251/1 247/260/1
f 241/262/1 240/259/1 331/5/1
f 242/263/1 241/262/1 331/5/1
f 243/264/1 242/263/1 331/5/1
f 314/261/1 247/260/1 246/265/1
f 244/266/1 243/264/1 331/5/1
f 245/267/1 244/266/1 331/5/1
f 246/265/1 245/267/1 331/5/1
f 314/261/1 246/265/1 331/5/1
f 315/268/1 314/261/1 331/5/1
f 315/268/1 331/5/1 330/269/1
f 315/268/1 330/269/1 329/270/1
f 316/271/1 315/268/1 329/270/1
f 316/271/1 329/270/1 328/272/1
f 316/271/1 328/272/1 327/273/1
f 317/274/1 316/271/1 327/273/1
f 317/274/1 327/273/1 326/275/1
f 317/274/1 326/275/1 325/276/1
f 317/274/1 325/276/1 324/277/1
f 318/278/1 317/274/1 324/277/1
f 318/278/1 324/277/1 323/279/1
f 318/278/1 323/279/1 322/280/1
f 318/278/1 322/280/1 321/281/1
f 319/282/1 318/278/1 321/281/1
f 319/282/1 321/281/1 320/283/1
f 332/4/1 383/284/1 384/285/1
f 384/285/1 383/284/1 382/286/1
f 384/285/1 382/286/1 381/287/1
f 384/285/1 381/287/1 380/288/1
f 384/285/1 380/288/1 379/289/1
f 384/285/1 379/289/1 378/290/1
f 384/285/1 378/290/1 377/22/1
f 384/285/1 377/22/1 376/291/1
f 384/285/1 376/291/1 375/292/1
f 384/285/1 375/292/1 385/293/1
f 385/293/1 375/292/1 374/86/1
f 332/4/1 384/285/1 410/294/1
f 386/295/1 385/293/1 374/86/1
f 387/296/1 386/295/1 374/86/1
f 387/296/1 374/86/1 373/297/1
f 388/298/1 387/296/1 373/297/1
f 389/299/1 388/298/1 373/297/1
f 390/300/1 389/299/1 373/297/1
f 391/301/1 390/300/1 373/297/1
f 391/301/1 373/297/1 372/302/1
f 392/17/1 391/301/1 372/302/1
f 393/303/1 392/17/1 372/302/1
f 393/303/1 372/302/1 371/304/1
f 394/305/1 393/303/1 371/304/1
f 395/89/1 394/305/1 371/304/1
f 395/89/1 371/304/1 370/306/1
f 396/307/1 395/89/1 370/306/1
f 397/308/1 396/307/1 370/306/1
f 397/308/1 370/306/1 369/309/1
f 398/310/1 397/308/1 369/309/1
f 398/310/1 369/309/1 368/311/1
f 399/312/1 398/310/1 368/311/1
f 399/312/1 368/311/1 367/182/1
f 400/313/1 399/312/1 367/182/1
f 400/313/1 367/182/1 366/314/1
f 401/315/1 400/313/1 366/314/1
f 401/315/1 366/314/1 365/316/1
f 402/181/1 401/315/1 365/316/1
f 402/181/1 365/316/1 364/317/1
f 403/318/1 402/181/1 364/317/1
f 403/318/1 364/317/1 363/319/1
f 404/320/1 403/318/1 363/319/1
f 405/321/1 404/320/1 363/319/1
f 405/321/1 363/319/1 362/14/1
f 406/322/1 405/321/1 362/14/1
f 406/322/1 362/14/1 361/323/1
f 407/24/1 406/322/1 361/323/1
f 408/324/1 407/24/1 361/323/1
f 409/325/1 408/324/1 361/323/1
f 332/4/1 410/294/1 411/326/1
f 411/326/1 410/294/1 409/325/1
f 411/326/1 409/325/1 361/323/1
f 411/326/1 361/323/1 360/327/1
f 411/326/1 360/327/1 359/328/1
f 411/326/1 359/328/1 358/329/1
f 411/326/1 358/329/1 357/330/1
f 411/326/1 357/330/1 356/331/1
f 411/326/1 356/331/1 355/332/1
f 411/326/1 355/332/1 354/333/1
f 411/326/1 354/333/1 353/87/1
f 411/326/1 353/87/1 352/334/1
f 411/326/1 352/334/1 412/335/1
f 412/335/1 352/334/1 351/336/1
f 332/4/1 411/326/1 437/5/1
f 413/337/1 412/335/1 351/336/1
f 414/338/1 413/337/1 351/336/1
f 415/339/1 414/338/1 351/336/1
f 415/339/1 351/336/1 350/340/1
f 416/88/1 415/339/1 350/340/1
f 417/341/1 416/88/1 350/340/1
f 417/341/1 350/340/1 349/342/1
f 418/343/1 417/341/1 349/342/1
f 419/344/1 418/343/1 349/342/1
f 419/344/1 349/342/1 348/345/1
f 420/346/1 419/344/1 348/345/1
f 421/347/1 420/346/1 348/345/1
f 421/347/1 348/345/1 347/18/1
f 422/21/1 421/347/1 347/18/1
f 422/21/1 347/18/1 346/348/1
f 423/349/1 422/21/1 346/348/1
f 424/350/1 423/349/1 346/348/1
f 424/350/1 346/348/1 345/351/1
f 425/352/1 424/350/1 345/351/1
f 426/353/1 425/352/1 345/351/1
f 426/353/1 345/351/1 344/354/1
f 427/355/1 426/353/1 344/354/1
f 427/355/1 344/354/1 343/356/1
f 428/357/1 427/355/1 343/356/1
f 429/358/1 428/357/1 343/356/1
f 429/358/1 343/356/1 342/359/1
f 430/360/1 429/358/1 342/359/1
f 431/361/1 430/360/1 342/359/1
f 431/361/1 342/359/1 341/362/1
f 432/363/1 431/361/1 341/362/1
f 433/364/1 432/363/1 341/362/1
f 434/365/1 433/364/1 341/362/1
f 434/365/1 341/362/1 340/366/1
f 435/367/1 434/365/1 340/366/1
f 436/368/1 435/367/1 340/366/1
f 332/4/1 437/5/1 436/368/1
f 332/4/1 436/368/1 340/366/1
f 332/4/1 340/366/1 339/369/1
f 332/4/1 339/369/1 338/370/1
f 332/4/1 338/370/1 337/371/1
f 332/4/1 337/371/1 336/372/1
f 332/4/1 336/372/1 335/373/1
f 332/4/1 335/373/1 334/374/1
f 332/4/1 334/374/1 333/375/1
f 440/1/2 448/3/2 439/2/2
f 448/3/2 438/4/2 439/2/2
f 448/3/2 449/5/2 438/4/2
f 440/1/2 447/6/2 448/3/2
f 440/1/2 444/7/2 447/6/2
f 444/7/2 446/8/2 447/6/2
f 444/7/2 445/9/2 446/8/2
f 440/1/2 443/10/2 444/7/2
f 440/1/2 442/11/2 443/10/2
f 440/1/2 441/12/2 442/11/2
f 455/13/2 453/15/2 454/14/2
f 455/13/2 457/16/2 453/15/2
f 457/16/2 458/17/2 453/15/2
f 458/17/2 452/18/2 453/15/2
f 452/18/2 450/4/2 451/19/2
f 452/18/2 461/20/2 450/4/2
f 461/20/2 462/21/2 450/4/2
f 462/21/2 464/5/2 450/4/2
f 455/13/2 456/22/2 457/16/2
f 459/23/2 452/18/2 458/17/2
f 452/18/2 460/24/2 461/20/2
f 463/25/2 464/5/2 462/21/2
f 459/23/2 460/24/2 452/18/2
f 518/26/2 516/28/2 517/27/2
f 518/26/2 515/29/2 516/28/2
f 467/30/2 465/4/2 466/31/2
f 467/30/2 542/5/2 465/4/2
f 468/32/2 542/5/2 467/30/2
f 518/26/2 514/9/2 515/29/2
f 469/33/2 542/5/2 468/32/2
f 469/33/2 541/34/2 542/5/2
f 518/26/2 513/35/2 514/9/2
f 519/36/2 513/35/2 518/26/2
f 470/37/2 541/34/2 469/33/2
f 519/36/2 512/38/2 513/35/2
f 471/39/2 541/34/2 470/37/2
f 519/36/2 511/40/2 512/38/2
f 471/39/2 540/41/2 541/34/2
f 472/2/2 540/41/2 471/39/2
f 519/36/2 510/42/2 511/40/2
f 520/24/2 510/42/2 519/36/2
f 473/43/2 540/41/2 472/2/2
f 520/24/2 509/17/2 510/42/2
f 474/44/2 540/41/2 473/43/2
f 520/24/2 508/45/2 509/17/2
f 474/44/2 539/46/2 540/41/2
f 475/47/2 539/46/2 474/44/2
f 520/24/2 507/7/2 508/45/2
f 476/18/2 539/46/2 475/47/2
f 521/8/2 507/7/2 520/24/2
f 521/8/2 506/48/2 507/7/2
f 477/49/2 539/46/2 476/18/2
f 521/8/2 505/50/2 506/48/2
f 521/8/2 504/51/2 505/50/2
f 478/52/2 539/46/2 477/49/2
f 478/52/2 538/53/2 539/46/2
f 521/8/2 503/54/2 504/51/2
f 479/1/2 538/53/2 478/52/2
f 521/8/2 502/55/2 503/54/2
f 522/56/2 502/55/2 521/8/2
f 480/57/2 538/53/2 479/1/2
f 522/56/2 501/58/2 502/55/2
f 481/59/2 538/53/2 480/57/2
f 481/59/2 537/60/2 538/53/2
f 522/56/2 500/10/2 501/58/2
f 482/61/2 537/60/2 481/59/2
f 483/62/2 537/60/2 482/61/2
f 522/56/2 499/63/2 500/10/2
f 484/64/2 537/60/2 483/62/2
f 522/56/2 498/22/2 499/63/2
f 523/65/2 498/22/2 522/56/2
f 485/66/2 537/60/2 484/64/2
f 523/65/2 497/67/2 498/22/2
f 486/12/2 537/60/2 485/66/2
f 523/65/2 496/68/2 497/67/2
f 486/12/2 536/69/2 537/60/2
f 487/14/2 536/69/2 486/12/2
f 523/65/2 495/70/2 496/68/2
f 488/71/2 536/69/2 487/14/2
f 523/65/2 494/72/2 495/70/2
f 489/73/2 536/69/2 488/71/2
f 523/65/2 493/11/2 494/72/2
f 490/74/2 536/69/2 489/73/2
f 523/65/2 492/75/2 493/11/2
f 491/76/2 536/69/2 490/74/2
f 523/65/2 491/76/2 492/75/2
f 523/65/2 536/69/2 491/76/2
f 524/77/2 536/69/2 523/65/2
f 524/77/2 535/3/2 536/69/2
f 525/78/2 535/3/2 524/77/2
f 525/78/2 534/79/2 535/3/2
f 526/80/2 534/79/2 525/78/2
f 526/80/2 533/81/2 534/79/2
f 527/82/2 533/81/2 526/80/2
f 527/82/2 532/83/2 533/81/2
f 528/6/2 532/83/2 527/82/2
f 528/6/2 531/21/2 532/83/2
f 529/84/2 531/21/2 528/6/2
f 529/84/2 530/85/2 531/21/2
f 545/86/2 543/4/2 544/87/2
f 545/86/2 548/5/2 543/4/2
f 545/86/2 547/88/2 548/5/2
f 545/86/2 546/89/2 547/88/2
f 586/90/2 584/92/2 585/91/2
f 586/90/2 583/93/2 584/92/2
f 587/86/2 583/93/2 586/90/2
f 587/86/2 582/94/2 583/93/2
f 588/95/2 582/94/2 587/86/2
f 588/95/2 581/96/2 582/94/2
f 589/97/2 581/96/2 588/95/2
f 589/97/2 580/98/2 581/96/2
f 590/99/2 580/98/2 589/97/2
f 590/99/2 579/100/2 580/98/2
f 591/101/2 609/102/2 590/99/2
f 609/102/2 579/100/2 590/99/2
f 591/101/2 608/103/2 609/102/2
f 610/104/2 579/100/2 609/102/2
f 611/105/2 579/100/2 610/104/2
f 591/101/2 607/106/2 608/103/2
f 612/107/2 579/100/2 611/105/2
f 591/101/2 606/89/2 607/106/2
f 612/107/2 578/108/2 579/100/2
f 592/109/2 606/89/2 591/101/2
f 613/110/2 578/108/2 612/107/2
f 592/109/2 605/111/2 606/89/2
f 614/112/2 578/108/2 613/110/2
f 592/109/2 604/113/2 605/111/2
f 614/112/2 577/114/2 578/108/2
f 593/115/2 604/113/2 592/109/2
f 615/116/2 577/114/2 614/112/2
f 593/115/2 603/117/2 604/113/2
f 616/118/2 577/114/2 615/116/2
f 593/115/2 602/119/2 603/117/2
f 616/118/2 576/120/2 577/114/2
f 594/121/2 602/119/2 593/115/2
f 617/122/2 576/120/2 616/118/2
f 594/121/2 601/123/2 602/119/2
f 617/122/2 575/124/2 576/120/2
f 595/125/2 601/123/2 594/121/2
f 618/126/2 575/124/2 617/122/2
f 595/125/2 600/127/2 601/123/2
f 619/128/2 575/124/2 618/126/2
f 595/125/2 599/129/2 600/127/2
f 619/128/2 574/130/2 575/124/2
f 596/131/2 599/129/2 595/125/2
f 620/132/2 574/130/2 619/128/2
f 596/131/2 598/133/2 599/129/2
f 620/132/2 573/134/2 574/130/2
f 549/4/2 598/133/2 596/131/2
f 621/135/2 573/134/2 620/132/2
f 549/4/2 597/136/2 598/133/2
f 550/137/2 597/136/2 549/4/2
f 550/137/2 644/5/2 597/136/2
f 622/138/2 573/134/2 621/135/2
f 622/138/2 572/139/2 573/134/2
f 550/137/2 643/140/2 644/5/2
f 623/141/2 572/139/2 622/138/2
f 623/141/2 571/142/2 572/139/2
f 551/143/2 643/140/2 550/137/2
f 551/143/2 642/144/2 643/140/2
f 624/145/2 571/142/2 623/141/2
f 624/145/2 570/146/2 571/142/2
f 552/147/2 642/144/2 551/143/2
f 625/88/2 570/146/2 624/145/2
f 552/147/2 641/148/2 642/144/2
f 625/88/2 569/149/2 570/146/2
f 553/150/2 641/148/2 552/147/2
f 626/151/2 569/149/2 625/88/2
f 553/150/2 640/152/2 641/148/2
f 627/153/2 569/149/2 626/151/2
f 553/150/2 639/154/2 640/152/2
f 627/153/2 568/87/2 569/149/2
f 554/155/2 639/154/2 553/150/2
f 628/156/2 568/87/2 627/153/2
f 554/155/2 638/157/2 639/154/2
f 629/158/2 568/87/2 628/156/2
f 554/155/2 637/159/2 638/157/2
f 629/158/2 567/160/2 568/87/2
f 555/161/2 637/159/2 554/155/2
f 630/162/2 567/160/2 629/158/2
f 555/161/2 636/163/2 637/159/2
f 631/164/2 567/160/2 630/162/2
f 555/161/2 635/165/2 636/163/2
f 631/164/2 566/166/2 567/160/2
f 556/167/2 635/165/2 555/161/2
f 632/168/2 566/166/2 631/164/2
f 556/167/2 634/169/2 635/165/2
f 633/170/2 566/166/2 632/168/2
f 556/167/2 633/170/2 634/169/2
f 556/167/2 566/166/2 633/170/2
f 556/167/2 565/171/2 566/166/2
f 557/172/2 565/171/2 556/167/2
f 557/172/2 564/173/2 565/171/2
f 558/174/2 564/173/2 557/172/2
f 558/174/2 563/175/2 564/173/2
f 559/176/2 563/175/2 558/174/2
f 559/176/2 562/177/2 563/175/2
f 560/178/2 562/177/2 559/176/2
f 560/178/2 561/179/2 562/177/2
f 650/180/2 648/16/2 649/181/2
f 650/180/2 647/182/2 648/16/2
f 647/182/2 645/4/2 646/183/2
f 647/182/2 651/5/2 645/4/2
f 650/180/2 651/5/2 647/182/2
f 657/13/2 655/15/2 656/14/2
f 657/13/2 659/16/2 655/15/2
f 659/16/2 660/17/2 655/15/2
f 660/17/2 654/18/2 655/15/2
f 654/18/2 652/4/2 653/19/2
f 654/18/2 663/20/2 652/4/2
f 663/20/2 664/21/2 652/4/2
f 664/21/2 666/5/2 652/4/2
f 657/13/2 658/22/2 659/16/2
f 661/23/2 654/18/2 660/17/2
f 654/18/2 662/24/2 663/20/2
f 665/25/2 666/5/2 664/21/2
f 661/23/2 662/24/2 654/18/2
f 733/184/2 731/186/2 732/185/2
f 733/184/2 730/187/2 731/186/2
f 733/184/2 729/188/2 730/187/2
f 733/184/2 728/189/2 729/188/2
f 734/190/2 728/189/2 733/184/2
f 734/190/2 727/191/2 728/189/2
f 734/190/2 726/192/2 727/191/2
f 734/190/2 725/193/2 726/192/2
f 735/194/2 725/193/2 734/190/2
f 735/194/2 724/195/2 725/193/2
f 735/194/2 723/196/2 724/195/2
f 736/197/2 723/196/2 735/194/2
f 736/197/2 722/198/2 723/196/2
f 736/197/2 721/199/2 722/198/2
f 737/200/2 721/199/2 736/197/2
f 737/200/2 720/201/2 721/199/2
f 737/200/2 709/202/2 720/201/2
f 709/202/2 710/203/2 720/201/2
f 710/203/2 711/204/2 720/201/2
f 711/204/2 712/205/2 720/201/2
f 712/205/2 713/206/2 720/201/2
f 713/206/2 714/207/2 720/201/2
f 714/207/2 715/208/2 720/201/2
f 715/208/2 716/209/2 720/201/2
f 716/209/2 717/210/2 720/201/2
f 717/210/2 718/211/2 720/201/2
f 718/211/2 719/212/2 720/201/2
f 738/213/2 707/214/2 737/200/2
f 707/214/2 708/215/2 737/200/2
f 708/215/3 709/202/3 737/200/3
f 738/213/2 706/216/2 707/214/2
f 738/213/2 705/217/2 706/216/2
f 738/213/2 704/218/2 705/217/2
f 739/219/2 704/218/2 738/213/2
f 739/219/2 703/220/2 704/218/2
f 739/219/2 702/221/2 703/220/2
f 740/222/2 702/221/2 739/219/2
f 740/222/2 701/223/2 702/221/2
f 740/222/2 700/224/2 701/223/2
f 741/225/2 700/224/2 740/222/2
f 741/225/2 699/226/2 700/224/2
f 742/227/2 699/226/2 741/225/2
f 742/227/2 698/228/2 699/226/2
f 742/227/2 697/229/2 698/228/2
f 743/230/2 697/229/2 742/227/2
f 743/230/2 696/231/2 697/229/2
f 744/232/2 696/231/2 743/230/2
f 744/232/2 695/233/2 696/231/2
f 744/232/2 694/234/2 695/233/2
f 745/235/2 694/234/2 744/232/2
f 669/236/2 667/4/2 668/237/2
f 669/236/2 670/238/2 667/4/2
f 670/238/2 768/5/2 667/4/2
f 745/235/2 693/239/2 694/234/2
f 746/240/2 693/239/2 745/235/2
f 746/240/2 692/241/2 693/239/2
f 671/242/2 768/5/2 670/238/2
f 747/243/2 692/241/2 746/240/2
f 747/243/2 691/244/2 692/241/2
f 747/243/2 690/245/2 691/244/2
f 748/246/2 690/245/2 747/243/2
f 748/246/2 689/247/2 690/245/2
f 749/248/2 689/247/2 748/246/2
f 749/248/2 688/249/2 689/247/2
f 749/248/2 687/250/2 688/249/2
f 750/251/2 687/250/2 749/248/2
f 750/251/2 686/252/2 687/250/2
f 672/253/2 768/5/2 671/242/2
f 673/254/2 768/5/2 672/253/2
f 674/255/2 768/5/2 673/254/2
f 750/251/2 685/256/2 686/252/2
f 675/257/2 768/5/2 674/255/2
f 676/258/2 768/5/2 675/257/2
f 677/259/2 768/5/2 676/258/2
f 750/251/2 684/260/2 685/256/2
f 751/261/2 684/260/2 750/251/2
f 678/262/2 768/5/2 677/259/2
f 679/263/2 768/5/2 678/262/2
f 680/264/2 768/5/2 679/263/2
f 751/261/2 683/265/2 684/260/2
f 681/266/2 768/5/2 680/264/2
f 682/267/2 768/5/2 681/266/2
f 683/265/2 768/5/2 682/267/2
f 751/261/2 768/5/2 683/265/2
f 752/268/2 768/5/2 751/261/2
f 752/268/2 767/269/2 768/5/2
f 752/268/2 766/270/2 767/269/2
f 753/271/2 766/270/2 752/268/2
f 753/271/2 765/272/2 766/270/2
f 753/271/2 764/273/2 765/272/2
f 754/274/2 764/273/2 753/271/2
f 754/274/2 763/275/2 764/273/2
f 754/274/2 762/276/2 763/275/2
f 754/274/2 761/277/2 762/276/2
f 755/278/2 761/277/2 754/274/2
f 755/278/2 760/279/2 761/277/2
f 755/278/2 759/280/2 760/279/2
f 755/278/2 758/281/2 759/280/2
f 756/282/2 758/281/2 755/278/2
f 756/282/2 757/283/2 758/281/2
f 769/4/2 821/285/2 820/284/2
f 821/285/2 819/286/2 820/284/2
f 821/285/2 818/287/2 819/286/2
f 821/285/2 817/288/2 818/287/2
f 821/285/2 816/289/2 817/288/2
f 821/285/2 815/290/2 816/289/2
f 821/285/2 814/22/2 815/290/2
f 821/285/2 813/291/2 814/22/2
f 821/285/2 812/292/2 813/291/2
f 821/285/2 822/293/2 812/292/2
f 822/293/2 811/86/2 812/292/2
f 769/4/2 847/294/2 821/285/2
f 823/295/2 811/86/2 822/293/2
f 824/296/2 811/86/2 823/295/2
f 824/296/2 810/297/2 811/86/2
f 825/298/2 810/297/2 824/296/2
f 826/299/2 810/297/2 825/298/2
f 827/300/2 810/297/2 826/299/2
f 828/301/2 810/297/2 827/300/2
f 828/301/2 809/302/2 810/297/2
f 829/17/2 809/302/2 828/301/2
f 830/303/2 809/302/2 829/17/2
f 830/303/2 808/304/2 809/302/2
f 831/305/2 808/304/2 830/303/2
f 832/89/2 808/304/2 831/305/2
f 832/89/2 807/306/2 808/304/2
f 833/307/2 807/306/2 832/89/2
f 834/308/2 807/306/2 833/307/2
f 834/308/2 806/309/2 807/306/2
f 835/310/2 806/309/2 834/308/2
f 835/310/2 805/311/2 806/309/2
f 836/312/2 805/311/2 835/310/2
f 836/312/2 804/182/2 805/311/2
f 837/313/2 804/182/2 836/312/2
f 837/313/2 803/314/2 804/182/2
f 838/315/2 803/314/2 837/313/2
f 838/315/2 802/316/2 803/314/2
f 839/181/2 802/316/2 838/315/2
f 839/181/2 801/317/2 802/316/2
f 840/318/2 801/317/2 839/181/2
f 840/318/2 800/319/2 801/317/2
f 841/320/2 800/319/2 840/318/2
f 842/321/2 800/319/2 841/320/2
f 842/321/2 799/14/2 800/319/2
f 843/322/2 799/14/2 842/321/2
f 843/322/2 798/323/2 799/14/2
f 844/24/2 798/323/2 843/322/2
f 845/324/2 798/323/2 844/24/2
f 846/325/2 798/323/2 845/324/2
f 769/4/2 848/326/2 847/294/2
f 848/326/2 846/325/2 847/294/2
f 848/326/2 798/323/2 846/325/2
f 848/326/2 797/327/2 798/323/2
f 848/326/2 796/328/2 797/327/2
f 848/326/2 795/329/2 796/328/2
f 848/326/2 794/330/2 795/329/2
f 848/326/2 793/331/2 794/330/2
f 848/326/2 792/332/2 793/331/2
f 848/326/2 791/333/2 792/332/2
f 848/326/2 790/87/2 791/333/2
f 848/326/2 789/334/2 790/87/2
f 848/326/2 849/335/2 789/334/2
f 849/335/2 788/336/2 789/334/2
f 769/4/2 874/5/2 848/326/2
f 850/337/2 788/336/2 849/335/2
f 851/338/2 788/336/2 850/337/2
f 852/339/2 788/336/2 851/338/2
f 852/339/2 787/340/2 788/336/2
f 853/88/2 787/340/2 852/339/2
f 854/341/2 787/340/2 853/88/2
f 854/341/2 786/342/2 787/340/2
f 855/343/2 786/342/2 854/341/2
f 856/344/2 786/342/2 855/343/2
f 856/344/2 785/345/2 786/342/2
f 857/346/2 785/345/2 856/344/2
f 858/347/2 785/345/2 857/346/2
f 858/347/2 784/18/2 785/345/2
f 859/21/2 784/18/2 858/347/2
f 859/21/2 783/348/2 784/18/2
f 860/349/2 783/348/2 859/21/2
f 861/350/2 783/348/2 860/349/2
f 861/350/2 782/351/2 783/348/2
f 862/352/2 782/351/2 861/350/2
f 863/353/2 782/351/2 862/352/2
f 863/353/2 781/354/2 782/351/2
f 864/355/2 781/354/2 863/353/2
f 864/355/2 780/356/2 781/354/2
f 865/357/2 780/356/2 864/355/2
f 866/358/2 780/356/2 865/357/2
f 866/358/2 779/359/2 780/356/2
f 867/360/2 779/359/2 866/358/2
f 868/361/2 779/359/2 867/360/2
f 868/361/2 778/362/2 779/359/2
f 869/363/2 778/362/2 868/361/2
f 870/364/2 778/362/2 869/363/2
f 871/365/2 778/362/2 870/364/2
f 871/365/2 777/366/2 778/362/2
f 872/367/2 777/366/2 871/365/2
f 873/368/2 777/366/2 872/367/2
f 769/4/2 873/368/2 874/5/2
f 769/4/2 777/366/2 873/368/2
f 769/4/2 776/369/2 777/366/2
f 769/4/2 775/370/2 776/369/2
f 769/4/2 774/371/2 775/370/2
f 769/4/2 773/372/2 774/371/2
f 769/4/2 772/373/2 773/372/2
f 769/4/2 771/374/2 772/373/2
f 769/4/2 770/375/2 771/374/2
f 40/49/4 41/52/4 478/52/4 477/49/4
f 261/228/5 262/226/5 699/226/5 698/228/5
f 134/142/6 135/139/6 572/139/6 571/142/6
f 361/323/7 362/14/7 799/14/7 798/323/7
f 113/137/8 114/143/8 551/143/8 550/137/8
f 101/53/9 102/46/9 539/46/9 538/53/9
f 406/322/10 407/24/10 844/24/10 843/322/10
f 260/229/11 261/228/11 698/228/11 697/229/11
f 305/227/12 306/230/12 743/230/12 742/227/12
f 66/54/13 67/51/13 504/51/13 503/54/13
f 407/24/14 408/324/14 845/324/14 844/24/14
f 205/144/15 206/140/15 643/140/15 642/144/15
f 41/52/16 42/1/16 479/1/16 478/52/16
f 186/141/17 187/145/17 624/145/17 623/141/17
f 408/324/18 409/325/18 846/325/18 845/324/18
f 259/231/19 260/229/19 697/229/19 696/231/19
f 306/230/20 307/232/20 744/232/20 743/230/20
f 65/55/21 66/54/21 503/54/21 502/55/21
f 133/146/22 134/142/22 571/142/22 570/146/22
f 84/8/23 85/56/23 522/56/23 521/8/23
f 114/143/24 115/147/24 552/147/24 551/143/24
f 258/233/25 259/231/25 696/231/25 695/233/25
f 42/1/26 43/57/26 480/57/26 479/1/26
f 409/325/27 410/294/27 847/294/27 846/325/27
f 187/145/28 188/88/28 625/88/28 624/145/28
f 257/234/29 258/233/29 695/233/29 694/234/29
f 307/232/30 308/235/30 745/235/30 744/232/30
f 64/58/31 65/55/31 502/55/31 501/58/31
f 360/327/32 361/323/32 798/323/32 797/327/32
f 204/148/33 205/144/33 642/144/33 641/148/33
f 43/57/34 44/59/34 481/59/34 480/57/34
f 231/237/35 232/236/35 669/236/35 668/237/35
f 359/328/36 360/327/36 797/327/36 796/328/36
f 132/149/37 133/146/37 570/146/37 569/149/37
f 230/4/27 231/237/27 668/237/27 667/4/27
f 115/147/38 116/150/38 553/150/38 552/147/38
f 100/60/39 101/53/39 538/53/39 537/60/39
f 358/329/40 359/328/40 796/328/40 795/329/40
f 232/236/41 233/238/41 670/238/41 669/236/41
f 188/88/42 189/151/42 626/151/42 625/88/42
f 63/10/43 64/58/43 501/58/43 500/10/43
f 357/330/44 358/329/44 795/329/44 794/330/44
f 44/59/45 45/61/45 482/61/45 481/59/45
f 331/5/44 230/4/44 667/4/44 768/5/44
f 356/331/46 357/330/46 794/330/46 793/331/46
f 203/152/47 204/148/47 641/148/47 640/152/47
f 45/61/48 46/62/48 483/62/48 482/61/48
f 256/239/49 257/234/49 694/234/49 693/239/49
f 189/151/50 190/153/50 627/153/50 626/151/50
f 355/332/51 356/331/51 793/331/51 792/332/51
f 308/235/52 309/240/52 746/240/52 745/235/52
f 62/63/53 63/10/53 500/10/53 499/63/53
f 354/333/54 355/332/54 792/332/54 791/333/54
f 202/154/55 203/152/55 640/152/55 639/154/55
f 46/62/56 47/64/56 484/64/56 483/62/56
f 255/241/57 256/239/57 693/239/57 692/241/57
f 353/87/58 354/333/58 791/333/58 790/87/58
f 233/238/35 234/242/35 671/242/35 670/238/35
f 131/87/59 132/149/59 569/149/59 568/87/59
f 116/150/60 117/155/60 554/155/60 553/150/60
f 61/22/61 62/63/61 499/63/61 498/22/61
f 352/334/62 353/87/62 790/87/62 789/334/62
f 309/240/63 310/243/63 747/243/63 746/240/63
f 85/56/64 86/65/64 523/65/64 522/56/64
f 411/326/41 412/335/41 849/335/41 848/326/41
f 190/153/65 191/156/65 628/156/65 627/153/65
f 47/64/66 48/66/66 485/66/66 484/64/66
f 254/244/67 255/241/67 692/241/67 691/244/67
f 351/336/68 352/334/68 789/334/68 788/336/68
f 201/157/69 202/154/69 639/154/69 638/157/69
f 253/245/70 254/244/70 691/244/70 690/245/70
f 191/156/71 192/158/71 629/158/71 628/156/71
f 60/67/72 61/22/72 498/22/72 497/67/72
f 437/5/44 411/326/44 848/326/44 874/5/44
f 310/243/73 311/246/73 748/246/73 747/243/73
f 48/66/74 49/12/74 486/12/74 485/66/74
f 412/335/75 413/337/75 850/337/75 849/335/75
f 200/159/76 201/157/76 638/157/76 637/159/76
f 413/337/77 414/338/77 851/338/77 850/337/77
f 252/247/78 253/245/78 690/245/78 689/247/78
f 59/68/79 60/67/79 497/67/79 496/68/79
f 311/246/80 312/248/80 749/248/80 748/246/80
f 130/160/81 131/87/81 568/87/81 567/160/81
f 414/338/82 415/339/82 852/339/82 851/338/82
f 117/155/83 118/161/83 555/161/83 554/155/83
f 99/69/84 100/60/84 537/60/84 536/69/84
f 49/12/85 50/14/85 487/14/85 486/12/85
f 251/249/86 252/247/86 689/247/86 688/249/86
f 192/158/87 193/162/87 630/162/87 629/158/87
f 350/340/88 351/336/88 788/336/88 787/340/88
f 415/339/89 416/88/89 853/88/89 852/339/89
f 250/250/90 251/249/90 688/249/90 687/250/90
f 58/70/91 59/68/91 496/68/91 495/70/91
f 312/248/92 313/251/92 750/251/92 749/248/92
f 199/163/93 200/159/93 637/159/93 636/163/93
f 50/14/94 51/71/94 488/71/94 487/14/94
f 416/88/95 417/341/95 854/341/95 853/88/95
f 193/162/96 194/164/96 631/164/96 630/162/96
f 249/252/97 250/250/97 687/250/97 686/252/97
f 57/72/98 58/70/98 495/70/98 494/72/98
f 349/342/99 350/340/99 787/340/99 786/342/99
f 234/242/100 235/253/100 672/253/100 671/242/100
f 198/165/101 199/163/101 636/163/101 635/165/101
f 51/71/102 52/73/102 489/73/102 488/71/102
f 417/341/103 418/343/103 855/343/103 854/341/103
f 235/253/104 236/254/104 673/254/104 672/253/104
f 129/166/105 130/160/105 567/160/105 566/166/105
f 418/343/106 419/344/106 856/344/106 855/343/106
f 118/161/107 119/167/107 556/167/107 555/161/107
f 56/11/108 57/72/108 494/72/108 493/11/108
f 236/254/109 237/255/109 674/255/109 673/254/109
f 52/73/110 53/74/110 490/74/110 489/73/110
f 194/164/111 195/168/111 632/168/111 631/164/111
f 348/345/112 349/342/112 786/342/112 785/345/112
f 419/344/113 420/346/113 857/346/113 856/344/113
f 248/256/114 249/252/114 686/252/114 685/256/114
f 55/75/115 56/11/115 493/11/115 492/75/115
f 237/255/116 238/257/116 675/257/116 674/255/116
f 197/169/117 198/165/117 635/165/117 634/169/117
f 53/74/118 54/76/118 491/76/118 490/74/118
f 420/346/119 421/347/119 858/347/119 857/346/119
f 195/168/120 196/170/120 633/170/120 632/168/120
f 238/257/121 239/258/121 676/258/121 675/257/121
f 54/76/122 55/75/122 492/75/122 491/76/122
f 347/18/123 348/345/123 785/345/123 784/18/123
f 239/258/124 240/259/124 677/259/124 676/258/124
f 196/170/125 197/169/125 634/169/125 633/170/125
f 421/347/126 422/21/126 859/21/126 858/347/126
f 86/65/127 87/77/127 524/77/127 523/65/127
f 247/260/128 248/256/128 685/256/128 684/260/128
f 128/171/129 129/166/129 566/166/129 565/171/129
f 346/348/130 347/18/130 784/18/130 783/348/130
f 313/251/131 314/261/131 751/261/131 750/251/131
f 119/167/132 120/172/132 557/172/132 556/167/132
f 98/3/133 99/69/133 536/69/133 535/3/133
f 422/21/134 423/349/134 860/349/134 859/21/134
f 87/77/135 88/78/135 525/78/135 524/77/135
f 240/259/136 241/262/136 678/262/136 677/259/136
f 423/349/137 424/350/137 861/350/137 860/349/137
f 127/173/138 128/171/138 565/171/138 564/173/138
f 241/262/139 242/263/139 679/263/139 678/262/139
f 120/172/140 121/174/140 558/174/140 557/172/140
f 97/79/141 98/3/141 535/3/141 534/79/141
f 88/78/142 89/80/142 526/80/142 525/78/142
f 345/351/143 346/348/143 783/348/143 782/351/143
f 242/263/144 243/264/144 680/264/144 679/263/144
f 424/350/145 425/352/145 862/352/145 861/350/145
f 126/175/146 127/173/146 564/173/146 563/175/146
f 121/174/147 122/176/147 559/176/147 558/174/147
f 96/81/148 97/79/148 534/79/148 533/81/148
f 425/352/149 426/353/149 863/353/149 862/352/149
f 246/265/150 247/260/150 684/260/150 683/265/150
f 89/80/151 90/82/151 527/82/151 526/80/151
f 243/264/152 244/266/152 681/266/152 680/264/152
f 125/177/153 126/175/153 563/175/153 562/177/153
f 344/354/154 345/351/154 782/351/154 781/354/154
f 244/266/155 245/267/155 682/267/155 681/266/155
f 122/176/156 123/178/156 560/178/156 559/176/156
f 95/83/157 96/81/157 533/81/157 532/83/157
f 426/353/158 427/355/158 864/355/158 863/353/158
f 90/82/159 91/6/159 528/6/159 527/82/159
f 245/267/160 246/265/160 683/265/160 682/267/160
f 123/178/161 124/179/161 561/179/161 560/178/161
f 124/179/162 125/177/162 562/177/162 561/179/162
f 343/356/163 344/354/163 781/354/163 780/356/163
f 212/181/164 213/180/164 650/180/164 649/181/164
f 94/21/165 95/83/165 532/83/165 531/21/165
f 427/355/166 428/357/166 865/357/166 864/355/166
f 314/261/167 315/268/167 752/268/167 751/261/167
f 91/6/168 92/84/168 529/84/168 528/6/168
f 211/16/27 212/181/27 649/181/27 648/16/27
f 428/357/169 429/358/169 866/358/169 865/357/169
f 92/84/170 93/85/170 530/85/170 529/84/170
f 330/269/171 331/5/171 768/5/171 767/269/171
f 210/182/172 211/16/172 648/16/172 647/182/172
f 93/85/173 94/21/173 531/21/173 530/85/173
f 209/183/174 210/182/174 647/182/174 646/183/174
f 107/87/35 108/86/35 545/86/35 544/87/35
f 342/359/175 343/356/175 780/356/175 779/359/175
f 329/270/176 330/269/176 767/269/176 766/270/176
f 429/358/177 430/360/177 867/360/177 866/358/177
f 315/268/178 316/271/178 753/271/178 752/268/178
f 208/4/27 209/183/27 646/183/27 645/4/27
f 106/4/27 107/87/27 544/87/27 543/4/27
f 430/360/179 431/361/179 868/361/179 867/360/179
f 214/5/180 208/4/180 645/4/180 651/5/180
f 111/5/44 106/4/44 543/4/44 548/5/44
f 328/272/181 329/270/181 766/270/181 765/272/181
f 213/180/41 214/5/41 651/5/41 650/180/41
f 2/2/35 3/1/35 440/1/35 439/2/35
f 219/14/35 220/13/35 657/13/35 656/14/35
f 110/88/27 111/5/27 548/5/27 547/88/27
f 341/362/182 342/359/182 779/359/182 778/362/182
f 327/273/183 328/272/183 765/272/183 764/273/183
f 108/86/41 109/89/41 546/89/41 545/86/41
f 431/361/184 432/363/184 869/363/184 868/361/184
f 316/271/185 317/274/185 754/274/185 753/271/185
f 218/15/27 219/14/27 656/14/27 655/15/27
f 109/89/44 110/88/44 547/88/44 546/89/44
f 148/91/186 149/90/186 586/90/186 585/91/186
f 1/4/27 2/2/27 439/2/27 438/4/27
f 432/363/187 433/364/187 870/364/187 869/363/187
f 11/3/41 12/5/41 449/5/41 448/3/41
f 326/275/188 327/273/188 764/273/188 763/275/188
f 222/16/41 223/17/41 660/17/41 659/16/41
f 147/92/189 148/91/189 585/91/189 584/92/189
f 12/5/44 1/4/44 438/4/44 449/5/44
f 433/364/190 434/365/190 871/365/190 870/364/190
f 325/276/191 326/275/191 763/275/191 762/276/191
f 146/93/192 147/92/192 584/92/192 583/93/192
f 10/6/44 11/3/44 448/3/44 447/6/44
f 217/18/193 218/15/193 655/15/193 654/18/193
f 149/90/194 150/86/194 587/86/194 586/90/194
f 340/366/195 341/362/195 778/362/195 777/366/195
f 324/277/196 325/276/196 762/276/196 761/277/196
f 216/19/197 217/18/197 654/18/197 653/19/197
f 434/365/198 435/367/198 872/367/198 871/365/198
f 317/274/199 318/278/199 755/278/199 754/274/199
f 215/4/27 216/19/27 653/19/27 652/4/27
f 145/94/200 146/93/200 583/93/200 582/94/200
f 9/8/27 10/6/27 447/6/27 446/8/27
f 435/367/201 436/368/201 873/368/201 872/367/201
f 150/86/202 151/95/202 588/95/202 587/86/202
f 7/7/41 8/9/41 445/9/41 444/7/41
f 323/279/203 324/277/203 761/277/203 760/279/203
f 8/9/44 9/8/44 446/8/44 445/9/44
f 226/20/41 227/21/41 664/21/41 663/20/41
f 436/368/27 437/5/27 874/5/27 873/368/27
f 322/280/204 323/279/204 760/279/204 759/280/204
f 144/96/205 145/94/205 582/94/205 581/96/205
f 6/10/44 7/7/44 444/7/44 443/10/44
f 151/95/206 152/97/206 589/97/206 588/95/206
f 321/281/207 322/280/207 759/280/207 758/281/207
f 229/5/44 215/4/44 652/4/44 666/5/44
f 5/11/27 6/10/27 443/10/27 442/11/27
f 339/369/208 340/366/208 777/366/208 776/369/208
f 318/278/209 319/282/209 756/282/209 755/278/209
f 220/13/41 221/22/41 658/22/41 657/13/41
f 3/1/41 4/12/41 441/12/41 440/1/41
f 221/22/44 222/16/44 659/16/44 658/22/44
f 143/98/210 144/96/210 581/96/210 580/98/210
f 4/12/44 5/11/44 442/11/44 441/12/44
f 338/370/211 339/369/211 776/369/211 775/370/211
f 319/282/212 320/283/212 757/283/212 756/282/212
f 223/17/213 224/23/213 661/23/213 660/17/213
f 152/97/214 153/99/214 590/99/214 589/97/214
f 17/14/35 18/13/35 455/13/35 454/14/35
f 320/283/215 321/281/215 758/281/215 757/283/215
f 337/371/216 338/370/216 775/370/216 774/371/216
f 383/284/35 332/4/35 769/4/35 820/284/35
f 16/15/27 17/14/27 454/14/27 453/15/27
f 225/24/217 226/20/217 663/20/217 662/24/217
f 142/100/218 143/98/218 580/98/218 579/100/218
f 336/372/219 337/371/219 774/371/219 773/372/219
f 227/21/35 228/25/35 665/25/35 664/21/35
f 153/99/220 154/101/220 591/101/220 590/99/220
f 228/25/41 229/5/41 666/5/41 665/25/41
f 20/16/41 21/17/41 458/17/41 457/16/41
f 335/373/221 336/372/221 773/372/221 772/373/221
f 382/286/27 383/284/27 820/284/27 819/286/27
f 224/23/41 225/24/41 662/24/41 661/23/41
f 295/185/222 296/184/222 733/184/222 732/185/222
f 334/374/223 335/373/223 772/373/223 771/374/223
f 381/287/224 382/286/224 819/286/224 818/287/224
f 15/18/193 16/15/193 453/15/193 452/18/193
f 332/4/41 333/375/41 770/375/41 769/4/41
f 294/186/225 295/185/225 732/185/225 731/186/225
f 171/103/226 172/102/226 609/102/226 608/103/226
f 14/19/197 15/18/197 452/18/197 451/19/197
f 333/375/227 334/374/227 771/374/227 770/375/227
f 380/288/228 381/287/228 818/287/228 817/288/228
f 172/102/229 173/104/229 610/104/229 609/102/229
f 293/187/230 294/186/230 731/186/230 730/187/230
f 13/4/27 14/19/27 451/19/27 450/4/27
f 379/289/231 380/288/231 817/288/231 816/289/231
f 173/104/232 174/105/232 611/105/232 610/104/232
f 292/188/233 293/187/233 730/187/233 729/188/233
f 378/290/234 379/289/234 816/289/234 815/290/234
f 24/20/41 25/21/41 462/21/41 461/20/41
f 291/189/235 292/188/235 729/188/235 728/189/235
f 170/106/236 171/103/236 608/103/236 607/106/236
f 377/22/237 378/290/237 815/290/237 814/22/237
f 296/184/238 297/190/238 734/190/238 733/184/238
f 174/105/239 175/107/239 612/107/239 611/105/239
f 27/5/44 13/4/44 450/4/44 464/5/44
f 376/291/240 377/22/240 814/22/240 813/291/240
f 18/13/41 19/22/41 456/22/41 455/13/41
f 290/191/241 291/189/241 728/189/241 727/191/241
f 169/89/242 170/106/242 607/106/242 606/89/242
f 19/22/44 20/16/44 457/16/44 456/22/44
f 375/292/243 376/291/243 813/291/243 812/292/243
f 21/17/213 22/23/213 459/23/213 458/17/213
f 384/285/41 385/293/41 822/293/41 821/285/41
f 289/192/244 290/191/244 727/191/244 726/192/244
f 141/108/245 142/100/245 579/100/245 578/108/245
f 154/101/246 155/109/246 592/109/246 591/101/246
f 288/193/247 289/192/247 726/192/247 725/193/247
f 23/24/217 24/20/217 461/20/217 460/24/217
f 374/86/248 375/292/248 812/292/248 811/86/248
f 297/190/249 298/194/249 735/194/249 734/190/249
f 175/107/250 176/110/250 613/110/250 612/107/250
f 25/21/35 26/25/35 463/25/35 462/21/35
f 26/25/41 27/5/41 464/5/41 463/25/41
f 410/294/44 384/285/44 821/285/44 847/294/44
f 22/23/41 23/24/41 460/24/41 459/23/41
f 385/293/251 386/295/251 823/295/251 822/293/251
f 287/195/252 288/193/252 725/193/252 724/195/252
f 168/111/253 169/89/253 606/89/253 605/111/253
f 80/27/35 81/26/35 518/26/35 517/27/35
f 176/110/254 177/112/254 614/112/254 613/110/254
f 386/295/255 387/296/255 824/296/255 823/295/255
f 286/196/256 287/195/256 724/195/256 723/196/256
f 79/28/27 80/27/27 517/27/27 516/28/27
f 298/194/257 299/197/257 736/197/257 735/194/257
f 167/113/258 168/111/258 605/111/258 604/113/258
f 78/29/44 79/28/44 516/28/44 515/29/44
f 373/297/259 374/86/259 811/86/259 810/297/259
f 29/31/35 30/30/35 467/30/35 466/31/35
f 387/296/260 388/298/260 825/298/260 824/296/260
f 285/198/261 286/196/261 723/196/261 722/198/261
f 140/114/262 141/108/262 578/108/262 577/114/262
f 155/109/263 156/115/263 593/115/263 592/109/263
f 28/4/27 29/31/27 466/31/27 465/4/27
f 388/298/264 389/299/264 826/299/264 825/298/264
f 284/199/265 285/198/265 722/198/265 721/199/265
f 299/197/266 300/200/266 737/200/266 736/197/266
f 177/112/267 178/116/267 615/116/267 614/112/267
f 105/5/44 28/4/44 465/4/44 542/5/44
f 389/299/268 390/300/268 827/300/268 826/299/268
f 30/30/269 31/32/269 468/32/269 467/30/269
f 390/300/270 391/301/270 828/301/270 827/300/270
f 283/201/271 284/199/271 721/199/271 720/201/271
f 166/117/272 167/113/272 604/113/272 603/117/272
f 178/116/273 179/118/273 616/118/273 615/116/273
f 77/9/274 78/29/274 515/29/274 514/9/274
f 31/32/275 32/33/275 469/33/275 468/32/275
f 372/302/276 373/297/276 810/297/276 809/302/276
f 272/202/277 273/203/277 710/203/277 709/202/277
f 391/301/278 392/17/278 829/17/278 828/301/278
f 165/119/279 166/117/279 603/117/279 602/119/279
f 273/203/280 274/204/280 711/204/280 710/203/280
f 104/34/281 105/5/281 542/5/281 541/34/281
f 392/17/282 393/303/282 830/303/282 829/17/282
f 139/120/283 140/114/283 577/114/283 576/120/283
f 274/204/284 275/205/284 712/205/284 711/204/284
f 156/115/285 157/121/285 594/121/285 593/115/285
f 76/35/286 77/9/286 514/9/286 513/35/286
f 81/26/287 82/36/287 519/36/287 518/26/287
f 371/304/288 372/302/288 809/302/288 808/304/288
f 275/205/289 276/206/289 713/206/289 712/205/289
f 179/118/290 180/122/290 617/122/290 616/118/290
f 393/303/291 394/305/291 831/305/291 830/303/291
f 32/33/292 33/37/292 470/37/292 469/33/292
f 276/206/293 277/207/293 714/207/293 713/206/293
f 394/305/294 395/89/294 832/89/294 831/305/294
f 164/123/295 165/119/295 602/119/295 601/123/295
f 277/207/296 278/208/296 715/208/296 714/207/296
f 75/38/297 76/35/297 513/35/297 512/38/297
f 138/124/298 139/120/298 576/120/298 575/124/298
f 33/37/299 34/39/299 471/39/299 470/37/299
f 370/306/300 371/304/300 808/304/300 807/306/300
f 278/208/301 279/209/301 716/209/301 715/208/301
f 157/121/302 158/125/302 595/125/302 594/121/302
f 395/89/303 396/307/303 833/307/303 832/89/303
f 279/209/304 280/210/304 717/210/304 716/209/304
f 180/122/305 181/126/305 618/126/305 617/122/305
f 74/40/306 75/38/306 512/38/306 511/40/306
f 396/307/307 397/308/307 834/308/307 833/307/307
f 280/210/308 281/211/308 718/211/308 717/210/308
f 103/41/309 104/34/309 541/34/309 540/41/309
f 163/127/310 164/123/310 601/123/310 600/127/310
f 34/39/311 35/2/311 472/2/311 471/39/311
f 369/309/312 370/306/312 807/306/312 806/309/312
f 281/211/313 282/212/313 719/212/313 718/211/313
f 181/126/314 182/128/314 619/128/314 618/126/314
f 397/308/315 398/310/315 835/310/315 834/308/315
f 282/212/44 283/201/44 720/201/44 719/212/44
f 300/200/316 301/213/316 738/213/316 737/200/316
f 73/42/317 74/40/317 511/40/317 510/42/317
f 162/129/318 163/127/318 600/127/318 599/129/318
f 82/36/319 83/24/319 520/24/319 519/36/319
f 368/311/320 369/309/320 806/309/320 805/311/320
f 398/310/321 399/312/321 836/312/321 835/310/321
f 270/214/322 271/215/322 708/215/322 707/214/322
f 137/130/323 138/124/323 575/124/323 574/130/323
f 35/2/324 36/43/324 473/43/324 472/2/324
f 158/125/325 159/131/325 596/131/325 595/125/325
f 271/215/326 272/202/326 709/202/326 708/215/326
f 367/182/327 368/311/327 805/311/327 804/182/327
f 182/128/328 183/132/328 620/132/328 619/128/328
f 72/17/329 73/42/329 510/42/329 509/17/329
f 399/312/330 400/313/330 837/313/330 836/312/330
f 269/216/331 270/214/331 707/214/331 706/216/331
f 36/43/332 37/44/332 474/44/332 473/43/332
f 268/217/333 269/216/333 706/216/333 705/217/333
f 161/133/334 162/129/334 599/129/334 598/133/334
f 366/314/335 367/182/335 804/182/335 803/314/335
f 71/45/336 72/17/336 509/17/336 508/45/336
f 400/313/337 401/315/337 838/315/337 837/313/337
f 267/218/338 268/217/338 705/217/338 704/218/338
f 136/134/339 137/130/339 574/130/339 573/134/339
f 301/213/340 302/219/340 739/219/340 738/213/340
f 159/131/341 112/4/341 549/4/341 596/131/341
f 102/46/342 103/41/342 540/41/342 539/46/342
f 37/44/343 38/47/343 475/47/343 474/44/343
f 365/316/344 366/314/344 803/314/344 802/316/344
f 183/132/345 184/135/345 621/135/345 620/132/345
f 401/315/346 402/181/346 839/181/346 838/315/346
f 266/220/347 267/218/347 704/218/347 703/220/347
f 70/7/348 71/45/348 508/45/348 507/7/348
f 265/221/349 266/220/349 703/220/349 702/221/349
f 160/136/350 161/133/350 598/133/350 597/136/350
f 38/47/351 39/18/351 476/18/351 475/47/351
f 364/317/352 365/316/352 802/316/352 801/317/352
f 302/219/353 303/222/353 740/222/353 739/219/353
f 112/4/354 113/137/354 550/137/354 549/4/354
f 402/181/355 403/318/355 840/318/355 839/181/355
f 83/24/356 84/8/356 521/8/356 520/24/356
f 264/223/357 265/221/357 702/221/357 701/223/357
f 207/5/358 160/136/358 597/136/358 644/5/358
f 363/319/359 364/317/359 801/317/359 800/319/359
f 184/135/360 185/138/360 622/138/360 621/135/360
f 69/48/361 70/7/361 507/7/361 506/48/361
f 403/318/362 404/320/362 841/320/362 840/318/362
f 263/224/363 264/223/363 701/223/363 700/224/363
f 39/18/364 40/49/364 477/49/364 476/18/364
f 303/222/365 304/225/365 741/225/365 740/222/365
f 404/320/366 405/321/366 842/321/366 841/320/366
f 135/139/367 136/134/367 573/134/367 572/139/367
f 68/50/368 69/48/368 506/48/368 505/50/368
f 262/226/369 263/224/369 700/224/369 699/226/369
f 206/140/370 207/5/370 644/5/370 643/140/370
f 362/14/371 363/319/371 800/319/371 799/14/371
f 304/225/372 305/227/372 742/227/372 741/225/372
f 185/138/373 186/141/373 623/141/373 622/138/373
f 67/51/374 68/50/374 505/50/374 504/51/374
f 405/321/375 406/322/375 843/322/375 842/321/375
