# Generated by tools/generate_farm_crop_meshes.py
o crop_pumpkin_vines
vt 0.5 0.5
s off
v 0.0000000 0.0000000 0.0000000
v 0.5200000 0.1550000 0.0000000
v 0.5500000 0.1200000 -0.2400000
vn -0.2813583 0.9439118 -0.1728236
f 1/1/1 2/1/1 3/1/1
v 0.5500000 0.1200000 -0.2400000
v 0.5200000 0.1550000 0.0000000
v 1.0000000 0.2500000 0.0000000
vn -0.1914885 0.9675207 -0.1650328
f 4/1/2 5/1/2 6/1/2
v 1.0000000 0.2500000 0.0000000
v 0.5200000 0.1550000 0.0000000
v 0.5500000 0.1200000 0.2400000
vn -0.1914885 0.9675207 0.1650328
f 7/1/3 8/1/3 9/1/3
v 0.5500000 0.1200000 0.2400000
v 0.5200000 0.1550000 0.0000000
v 0.0000000 0.0000000 0.0000000
vn -0.2813583 0.9439118 0.1728236
f 10/1/4 11/1/4 12/1/4
v 0.5500000 0.1200000 -0.2400000
v 0.5200000 0.0950000 0.0000000
v 0.0000000 0.0000000 0.0000000
vn 0.1791453 -0.9805849 -0.0797511
f 13/1/5 14/1/5 15/1/5
v 1.0000000 0.2500000 0.0000000
v 0.5200000 0.0950000 0.0000000
v 0.5500000 0.1200000 -0.2400000
vn 0.3067276 -0.9498660 -0.0606034
f 16/1/6 17/1/6 18/1/6
v 0.5500000 0.1200000 0.2400000
v 0.5200000 0.0950000 0.0000000
v 1.0000000 0.2500000 0.0000000
vn 0.3067276 -0.9498660 0.0606034
f 19/1/7 20/1/7 21/1/7
v 0.0000000 0.0000000 0.0000000
v 0.5200000 0.0950000 0.0000000
v 0.5500000 0.1200000 0.2400000
vn 0.1791453 -0.9805849 0.0797511
f 22/1/8 23/1/8 24/1/8
v 0.0000000 0.0000000 0.0000000
v 0.1606888 0.1550000 0.4945494
v 0.3982129 0.1200000 0.4489170
vn 0.0774205 0.9439118 -0.3209931
f 25/1/9 26/1/9 27/1/9
v 0.3982129 0.1200000 0.4489170
v 0.1606888 0.1550000 0.4945494
v 0.3090170 0.2500000 0.9510565
vn 0.0977824 0.9675207 -0.2331143
f 28/1/10 29/1/10 30/1/10
v 0.3090170 0.2500000 0.9510565
v 0.1606888 0.1550000 0.4945494
v -0.0582942 0.1200000 0.5972452
vn -0.2161287 0.9675207 -0.1311184
f 31/1/11 32/1/11 33/1/11
v -0.0582942 0.1200000 0.5972452
v 0.1606888 0.1550000 0.4945494
v 0.0000000 0.0000000 0.0000000
vn -0.2513095 0.9439118 -0.2141822
f 34/1/12 35/1/12 36/1/12
v 0.3982129 0.1200000 0.4489170
v 0.1606888 0.0950000 0.4945494
v 0.0000000 0.0000000 0.0000000
vn 0.1312067 -0.9805849 0.1457329
f 37/1/13 38/1/13 39/1/13
v 0.3090170 0.2500000 0.9510565
v 0.1606888 0.0950000 0.4945494
v 0.3982129 0.1200000 0.4489170
vn 0.1524213 -0.9498660 0.2729878
f 40/1/14 41/1/14 42/1/14
v -0.0582942 0.1200000 0.5972452
v 0.1606888 0.0950000 0.4945494
v 0.3090170 0.2500000 0.9510565
vn 0.0371467 -0.9498660 0.3104427
f 43/1/15 44/1/15 45/1/15
v 0.0000000 0.0000000 0.0000000
v 0.1606888 0.0950000 0.4945494
v -0.0582942 0.1200000 0.5972452
vn -0.0204889 -0.9805849 0.1950218
f 46/1/16 47/1/16 48/1/16
v 0.0000000 0.0000000 0.0000000
v -0.4206888 0.1550000 0.3056483
v -0.3038909 0.1200000 0.5174460
vn 0.3292068 0.9439118 -0.0255610
f 49/1/17 50/1/17 51/1/17
v -0.3038909 0.1200000 0.5174460
v -0.4206888 0.1550000 0.3056483
v -0.8090170 0.2500000 0.5877853
vn 0.2519213 0.9675207 0.0209603
f 52/1/18 53/1/18 54/1/18
v -0.8090170 0.2500000 0.5877853
v -0.4206888 0.1550000 0.3056483
v -0.5860278 0.1200000 0.1291178
vn 0.0579136 0.9675207 -0.2460685
f 55/1/19 56/1/19 57/1/19
v -0.5860278 0.1200000 0.1291178
v -0.4206888 0.1550000 0.3056483
v 0.0000000 0.0000000 0.0000000
vn 0.1260405 0.9439118 -0.3051955
f 58/1/20 59/1/20 60/1/20
v -0.3038909 0.1200000 0.5174460
v -0.4206888 0.0950000 0.3056483
v 0.0000000 0.0000000 0.0000000
vn -0.0980551 -0.9805849 0.1698190
f 61/1/21 62/1/21 63/1/21
v -0.8090170 0.2500000 0.5877853
v -0.4206888 0.0950000 0.3056483
v -0.3038909 0.1200000 0.5174460
vn -0.2125260 -0.9498660 0.2293191
f 64/1/22 65/1/22 66/1/22
v -0.5860278 0.1200000 0.1291178
v -0.4206888 0.0950000 0.3056483
v -0.8090170 0.2500000 0.5877853
vn -0.2837696 -0.9498660 0.1312607
f 67/1/23 68/1/23 69/1/23
v 0.0000000 0.0000000 0.0000000
v -0.4206888 0.0950000 0.3056483
v -0.5860278 0.1200000 0.1291178
vn -0.1918081 -0.9805849 0.0407790
f 70/1/24 71/1/24 72/1/24
v 0.0000000 0.0000000 0.0000000
v -0.4206888 0.1550000 -0.3056483
v -0.5860278 0.1200000 -0.1291178
vn 0.1260405 0.9439118 0.3051955
f 73/1/25 74/1/25 75/1/25
v -0.5860278 0.1200000 -0.1291178
v -0.4206888 0.1550000 -0.3056483
v -0.8090170 0.2500000 -0.5877853
vn 0.0579136 0.9675207 0.2460685
f 76/1/26 77/1/26 78/1/26
v -0.8090170 0.2500000 -0.5877853
v -0.4206888 0.1550000 -0.3056483
v -0.3038909 0.1200000 -0.5174460
vn 0.2519213 0.9675207 -0.0209603
f 79/1/27 80/1/27 81/1/27
v -0.3038909 0.1200000 -0.5174460
v -0.4206888 0.1550000 -0.3056483
v 0.0000000 0.0000000 0.0000000
vn 0.3292068 0.9439118 0.0255610
f 82/1/28 83/1/28 84/1/28
v -0.5860278 0.1200000 -0.1291178
v -0.4206888 0.0950000 -0.3056483
v 0.0000000 0.0000000 0.0000000
vn -0.1918081 -0.9805849 -0.0407790
f 85/1/29 86/1/29 87/1/29
v -0.8090170 0.2500000 -0.5877853
v -0.4206888 0.0950000 -0.3056483
v -0.5860278 0.1200000 -0.1291178
vn -0.2837696 -0.9498660 -0.1312607
f 88/1/30 89/1/30 90/1/30
v -0.3038909 0.1200000 -0.5174460
v -0.4206888 0.0950000 -0.3056483
v -0.8090170 0.2500000 -0.5877853
vn -0.2125260 -0.9498660 -0.2293191
f 91/1/31 92/1/31 93/1/31
v 0.0000000 0.0000000 0.0000000
v -0.4206888 0.0950000 -0.3056483
v -0.3038909 0.1200000 -0.5174460
vn -0.0980551 -0.9805849 -0.1698190
f 94/1/32 95/1/32 96/1/32
v 0.0000000 0.0000000 0.0000000
v 0.1606888 0.1550000 -0.4945494
v -0.0582942 0.1200000 -0.5972452
vn -0.2513095 0.9439118 0.2141822
f 97/1/33 98/1/33 99/1/33
v -0.0582942 0.1200000 -0.5972452
v 0.1606888 0.1550000 -0.4945494
v 0.3090170 0.2500000 -0.9510565
vn -0.2161287 0.9675207 0.1311184
f 100/1/34 101/1/34 102/1/34
v 0.3090170 0.2500000 -0.9510565
v 0.1606888 0.1550000 -0.4945494
v 0.3982129 0.1200000 -0.4489170
vn 0.0977824 0.9675207 0.2331143
f 103/1/35 104/1/35 105/1/35
v 0.3982129 0.1200000 -0.4489170
v 0.1606888 0.1550000 -0.4945494
v 0.0000000 0.0000000 0.0000000
vn 0.0774205 0.9439118 0.3209931
f 106/1/36 107/1/36 108/1/36
v -0.0582942 0.1200000 -0.5972452
v 0.1606888 0.0950000 -0.4945494
v 0.0000000 0.0000000 0.0000000
vn -0.0204889 -0.9805849 -0.1950218
f 109/1/37 110/1/37 111/1/37
v 0.3090170 0.2500000 -0.9510565
v 0.1606888 0.0950000 -0.4945494
v -0.0582942 0.1200000 -0.5972452
vn 0.0371467 -0.9498660 -0.3104427
f 112/1/38 113/1/38 114/1/38
v 0.3982129 0.1200000 -0.4489170
v 0.1606888 0.0950000 -0.4945494
v 0.3090170 0.2500000 -0.9510565
vn 0.1524213 -0.9498660 -0.2729878
f 115/1/39 116/1/39 117/1/39
v 0.0000000 0.0000000 0.0000000
v 0.1606888 0.0950000 -0.4945494
v 0.3982129 0.1200000 -0.4489170
vn 0.1312067 -0.9805849 -0.1457329
f 118/1/40 119/1/40 120/1/40
v 0.0600000 0.0000000 0.0000000
v 0.0420000 1.0000000 0.0000000
v 0.0210000 1.0000000 0.0363731
vn 0.8659202 0.0155866 0.4999393
f 121/1/41 122/1/41 123/1/41
v 0.0600000 0.0000000 0.0000000
v 0.0210000 1.0000000 0.0363731
v 0.0300000 0.0000000 0.0519615
vn 0.8659202 0.0155866 0.4999393
f 124/1/42 125/1/42 126/1/42
v 0.0300000 0.0000000 0.0519615
v 0.0210000 1.0000000 0.0363731
v -0.0210000 1.0000000 0.0363731
vn 0.0000000 0.0155866 0.9998785
f 127/1/43 128/1/43 129/1/43
v 0.0300000 0.0000000 0.0519615
v -0.0210000 1.0000000 0.0363731
v -0.0300000 0.0000000 0.0519615
vn 0.0000000 0.0155866 0.9998785
f 130/1/44 131/1/44 132/1/44
v -0.0300000 0.0000000 0.0519615
v -0.0210000 1.0000000 0.0363731
v -0.0420000 1.0000000 0.0000000
vn -0.8659202 0.0155866 0.4999393
f 133/1/45 134/1/45 135/1/45
v -0.0300000 0.0000000 0.0519615
v -0.0420000 1.0000000 0.0000000
v -0.0600000 0.0000000 0.0000000
vn -0.8659202 0.0155866 0.4999393
f 136/1/46 137/1/46 138/1/46
v -0.0600000 0.0000000 0.0000000
v -0.0420000 1.0000000 0.0000000
v -0.0210000 1.0000000 -0.0363731
vn -0.8659202 0.0155866 -0.4999393
f 139/1/47 140/1/47 141/1/47
v -0.0600000 0.0000000 0.0000000
v -0.0210000 1.0000000 -0.0363731
v -0.0300000 0.0000000 -0.0519615
vn -0.8659202 0.0155866 -0.4999393
f 142/1/48 143/1/48 144/1/48
v -0.0300000 0.0000000 -0.0519615
v -0.0210000 1.0000000 -0.0363731
v 0.0210000 1.0000000 -0.0363731
vn -0.0000000 0.0155866 -0.9998785
f 145/1/49 146/1/49 147/1/49
v -0.0300000 0.0000000 -0.0519615
v 0.0210000 1.0000000 -0.0363731
v 0.0300000 0.0000000 -0.0519615
vn -0.0000000 0.0155866 -0.9998785
f 148/1/50 149/1/50 150/1/50
v 0.0300000 0.0000000 -0.0519615
v 0.0210000 1.0000000 -0.0363731
v 0.0420000 1.0000000 0.0000000
vn 0.8659202 0.0155866 -0.4999393
f 151/1/51 152/1/51 153/1/51
v 0.0300000 0.0000000 -0.0519615
v 0.0420000 1.0000000 0.0000000
v 0.0600000 0.0000000 0.0000000
vn 0.8659202 0.0155866 -0.4999393
f 154/1/52 155/1/52 156/1/52
v 0.0000000 0.0000000 0.0000000
v 0.0600000 0.0000000 0.0000000
v 0.0300000 0.0000000 0.0519615
vn 0.0000000 -1.0000000 0.0000000
f 157/1/53 158/1/53 159/1/53
v 0.0000000 1.0000000 0.0000000
v 0.0210000 1.0000000 0.0363731
v 0.0420000 1.0000000 0.0000000
vn 0.0000000 1.0000000 0.0000000
f 160/1/54 161/1/54 162/1/54
v 0.0000000 0.0000000 0.0000000
v 0.0300000 0.0000000 0.0519615
v -0.0300000 0.0000000 0.0519615
vn 0.0000000 -1.0000000 0.0000000
f 163/1/55 164/1/55 165/1/55
v 0.0000000 1.0000000 0.0000000
v -0.0210000 1.0000000 0.0363731
v 0.0210000 1.0000000 0.0363731
vn 0.0000000 1.0000000 -0.0000000
f 166/1/56 167/1/56 168/1/56
v 0.0000000 0.0000000 0.0000000
v -0.0300000 0.0000000 0.0519615
v -0.0600000 0.0000000 0.0000000
vn 0.0000000 -1.0000000 0.0000000
f 169/1/57 170/1/57 171/1/57
v 0.0000000 1.0000000 0.0000000
v -0.0420000 1.0000000 0.0000000
v -0.0210000 1.0000000 0.0363731
vn 0.0000000 1.0000000 0.0000000
f 172/1/58 173/1/58 174/1/58
v 0.0000000 0.0000000 0.0000000
v -0.0600000 0.0000000 0.0000000
v -0.0300000 0.0000000 -0.0519615
vn -0.0000000 -1.0000000 0.0000000
f 175/1/59 176/1/59 177/1/59
v 0.0000000 1.0000000 0.0000000
v -0.0210000 1.0000000 -0.0363731
v -0.0420000 1.0000000 0.0000000
vn 0.0000000 1.0000000 0.0000000
f 178/1/60 179/1/60 180/1/60
v 0.0000000 0.0000000 0.0000000
v -0.0300000 0.0000000 -0.0519615
v 0.0300000 0.0000000 -0.0519615
vn 0.0000000 -1.0000000 -0.0000000
f 181/1/61 182/1/61 183/1/61
v 0.0000000 1.0000000 0.0000000
v 0.0210000 1.0000000 -0.0363731
v -0.0210000 1.0000000 -0.0363731
vn 0.0000000 1.0000000 0.0000000
f 184/1/62 185/1/62 186/1/62
v 0.0000000 0.0000000 0.0000000
v 0.0300000 0.0000000 -0.0519615
v 0.0600000 0.0000000 0.0000000
vn 0.0000000 -1.0000000 0.0000000
f 187/1/63 188/1/63 189/1/63
v 0.0000000 1.0000000 0.0000000
v 0.0420000 1.0000000 0.0000000
v 0.0210000 1.0000000 -0.0363731
vn -0.0000000 1.0000000 0.0000000
f 190/1/64 191/1/64 192/1/64
