# Generated by tools/generate_farm_crop_meshes.py
o crop_carrot_leaves
vt 0.5 0.5
s off
v 0.0000000 0.0000000 -0.0250000
v 0.0896000 0.1359223 0.0350000
v 0.0000000 0.0000000 0.0250000
vn 0.8349164 -0.5503769 0.0000000
f 1/1/1 2/1/1 3/1/1
v 0.0000000 0.0000000 -0.0250000
v 0.0896000 0.1359223 -0.0350000
v 0.0896000 0.1359223 0.0350000
vn 0.8349164 -0.5503769 0.0000000
f 4/1/2 5/1/2 6/1/2
v 0.0000000 0.0000000 0.0250000
v 0.0896000 0.1650485 0.0350000
v 0.0000000 0.0291262 0.0250000
vn -0.1109185 0.0000000 0.9938295
f 7/1/3 8/1/3 9/1/3
v 0.0000000 0.0000000 0.0250000
v 0.0896000 0.1359223 0.0350000
v 0.0896000 0.1650485 0.0350000
vn -0.1109185 0.0000000 0.9938295
f 10/1/4 11/1/4 12/1/4
v 0.0000000 0.0291262 0.0250000
v 0.0896000 0.1650485 -0.0350000
v 0.0000000 0.0291262 -0.0250000
vn -0.8349164 0.5503769 0.0000000
f 13/1/5 14/1/5 15/1/5
v 0.0000000 0.0291262 0.0250000
v 0.0896000 0.1650485 0.0350000
v 0.0896000 0.1650485 -0.0350000
vn -0.8349164 0.5503769 0.0000000
f 16/1/6 17/1/6 18/1/6
v 0.0000000 0.0291262 -0.0250000
v 0.0896000 0.1359223 -0.0350000
v 0.0000000 0.0000000 -0.0250000
vn -0.1109185 -0.0000000 -0.9938295
f 19/1/7 20/1/7 21/1/7
v 0.0000000 0.0291262 -0.0250000
v 0.0896000 0.1650485 -0.0350000
v 0.0896000 0.1359223 -0.0350000
vn -0.1109185 0.0000000 -0.9938295
f 22/1/8 23/1/8 24/1/8
v 0.0896000 0.1359223 -0.0350000
v 0.1536000 0.2330097 0.2300000
v 0.0896000 0.1359223 0.0350000
vn 0.8349164 -0.5503769 0.0000000
f 25/1/9 26/1/9 27/1/9
v 0.0896000 0.1359223 -0.0350000
v 0.1536000 0.2330097 -0.2300000
v 0.1536000 0.2330097 0.2300000
vn 0.8349164 -0.5503769 0.0000000
f 28/1/10 29/1/10 30/1/10
v 0.0896000 0.1359223 0.0350000
v 0.1536000 0.2621359 0.2300000
v 0.0896000 0.1650485 0.0350000
vn -0.9501349 0.0000000 0.3118391
f 31/1/11 32/1/11 33/1/11
v 0.0896000 0.1359223 0.0350000
v 0.1536000 0.2330097 0.2300000
v 0.1536000 0.2621359 0.2300000
vn -0.9501349 0.0000000 0.3118391
f 34/1/12 35/1/12 36/1/12
v 0.0896000 0.1650485 0.0350000
v 0.1536000 0.2621359 -0.2300000
v 0.0896000 0.1650485 -0.0350000
vn -0.8349164 0.5503769 0.0000000
f 37/1/13 38/1/13 39/1/13
v 0.0896000 0.1650485 0.0350000
v 0.1536000 0.2621359 0.2300000
v 0.1536000 0.2621359 -0.2300000
vn -0.8349164 0.5503769 0.0000000
f 40/1/14 41/1/14 42/1/14
v 0.0896000 0.1650485 -0.0350000
v 0.1536000 0.2330097 -0.2300000
v 0.0896000 0.1359223 -0.0350000
vn -0.9501349 -0.0000000 -0.3118391
f 43/1/15 44/1/15 45/1/15
v 0.0896000 0.1650485 -0.0350000
v 0.1536000 0.2621359 -0.2300000
v 0.1536000 0.2330097 -0.2300000
vn -0.9501349 0.0000000 -0.3118391
f 46/1/16 47/1/16 48/1/16
v 0.1536000 0.2330097 -0.2300000
v 0.1920000 0.2912621 0.0650000
v 0.1536000 0.2330097 0.2300000
vn 0.8349164 -0.5503769 0.0000000
f 49/1/17 50/1/17 51/1/17
v 0.1536000 0.2330097 -0.2300000
v 0.1920000 0.2912621 -0.0650000
v 0.1920000 0.2912621 0.0650000
vn 0.8349164 -0.5503769 0.0000000
f 52/1/18 53/1/18 54/1/18
v 0.1536000 0.2330097 0.2300000
v 0.1920000 0.3203883 0.0650000
v 0.1536000 0.2621359 0.2300000
vn 0.9739717 -0.0000000 0.2266698
f 55/1/19 56/1/19 57/1/19
v 0.1536000 0.2330097 0.2300000
v 0.1920000 0.2912621 0.0650000
v 0.1920000 0.3203883 0.0650000
vn 0.9739717 0.0000000 0.2266698
f 58/1/20 59/1/20 60/1/20
v 0.1536000 0.2621359 0.2300000
v 0.1920000 0.3203883 -0.0650000
v 0.1536000 0.2621359 -0.2300000
vn -0.8349164 0.5503769 0.0000000
f 61/1/21 62/1/21 63/1/21
v 0.1536000 0.2621359 0.2300000
v 0.1920000 0.3203883 0.0650000
v 0.1920000 0.3203883 -0.0650000
vn -0.8349164 0.5503769 0.0000000
f 64/1/22 65/1/22 66/1/22
v 0.1536000 0.2621359 -0.2300000
v 0.1920000 0.2912621 -0.0650000
v 0.1536000 0.2330097 -0.2300000
vn 0.9739717 0.0000000 -0.2266698
f 67/1/23 68/1/23 69/1/23
v 0.1536000 0.2621359 -0.2300000
v 0.1920000 0.3203883 -0.0650000
v 0.1920000 0.2912621 -0.0650000
vn 0.9739717 0.0000000 -0.2266698
f 70/1/24 71/1/24 72/1/24
v 0.1920000 0.2912621 -0.0650000
v 0.2688000 0.4077670 0.2600000
v 0.1920000 0.2912621 0.0650000
vn 0.8349164 -0.5503769 0.0000000
f 73/1/25 74/1/25 75/1/25
v 0.1920000 0.2912621 -0.0650000
v 0.2688000 0.4077670 -0.2600000
v 0.2688000 0.4077670 0.2600000
vn 0.8349164 -0.5503769 0.0000000
f 76/1/26 77/1/26 78/1/26
v 0.1920000 0.2912621 0.0650000
v 0.2688000 0.4368932 0.2600000
v 0.1920000 0.3203883 0.0650000
vn -0.9304380 0.0000000 0.3664494
f 79/1/27 80/1/27 81/1/27
v 0.1920000 0.2912621 0.0650000
v 0.2688000 0.4077670 0.2600000
v 0.2688000 0.4368932 0.2600000
vn -0.9304380 0.0000000 0.3664494
f 82/1/28 83/1/28 84/1/28
v 0.1920000 0.3203883 0.0650000
v 0.2688000 0.4368932 -0.2600000
v 0.1920000 0.3203883 -0.0650000
vn -0.8349164 0.5503769 0.0000000
f 85/1/29 86/1/29 87/1/29
v 0.1920000 0.3203883 0.0650000
v 0.2688000 0.4368932 0.2600000
v 0.2688000 0.4368932 -0.2600000
vn -0.8349164 0.5503769 0.0000000
f 88/1/30 89/1/30 90/1/30
v 0.1920000 0.3203883 -0.0650000
v 0.2688000 0.4077670 -0.2600000
v 0.1920000 0.2912621 -0.0650000
vn -0.9304380 -0.0000000 -0.3664494
f 91/1/31 92/1/31 93/1/31
v 0.1920000 0.3203883 -0.0650000
v 0.2688000 0.4368932 -0.2600000
v 0.2688000 0.4077670 -0.2600000
vn -0.9304380 0.0000000 -0.3664494
f 94/1/32 95/1/32 96/1/32
v 0.2688000 0.4077670 -0.2600000
v 0.3072000 0.4660194 0.0650000
v 0.2688000 0.4077670 0.2600000
vn 0.8349164 -0.5503769 0.0000000
f 97/1/33 98/1/33 99/1/33
v 0.2688000 0.4077670 -0.2600000
v 0.3072000 0.4660194 -0.0650000
v 0.3072000 0.4660194 0.0650000
vn 0.8349164 -0.5503769 0.0000000
f 100/1/34 101/1/34 102/1/34
v 0.2688000 0.4077670 0.2600000
v 0.3072000 0.4951456 0.0650000
v 0.2688000 0.4368932 0.2600000
vn 0.9811569 -0.0000000 0.1932124
f 103/1/35 104/1/35 105/1/35
v 0.2688000 0.4077670 0.2600000
v 0.3072000 0.4660194 0.0650000
v 0.3072000 0.4951456 0.0650000
vn 0.9811569 0.0000000 0.1932124
f 106/1/36 107/1/36 108/1/36
v 0.2688000 0.4368932 0.2600000
v 0.3072000 0.4951456 -0.0650000
v 0.2688000 0.4368932 -0.2600000
vn -0.8349164 0.5503769 0.0000000
f 109/1/37 110/1/37 111/1/37
v 0.2688000 0.4368932 0.2600000
v 0.3072000 0.4951456 0.0650000
v 0.3072000 0.4951456 -0.0650000
vn -0.8349164 0.5503769 0.0000000
f 112/1/38 113/1/38 114/1/38
v 0.2688000 0.4368932 -0.2600000
v 0.3072000 0.4660194 -0.0650000
v 0.2688000 0.4077670 -0.2600000
vn 0.9811569 0.0000000 -0.1932124
f 115/1/39 116/1/39 117/1/39
v 0.2688000 0.4368932 -0.2600000
v 0.3072000 0.4951456 -0.0650000
v 0.3072000 0.4660194 -0.0650000
vn 0.9811569 0.0000000 -0.1932124
f 118/1/40 119/1/40 120/1/40
v 0.3072000 0.4660194 -0.0650000
v 0.3904000 0.5922330 0.2200000
v 0.3072000 0.4660194 0.0650000
vn 0.8349164 -0.5503769 0.0000000
f 121/1/41 122/1/41 123/1/41
v 0.3072000 0.4660194 -0.0650000
v 0.3904000 0.5922330 -0.2200000
v 0.3904000 0.5922330 0.2200000
vn 0.8349164 -0.5503769 0.0000000
f 124/1/42 125/1/42 126/1/42
v 0.3072000 0.4660194 0.0650000
v 0.3904000 0.6213592 0.2200000
v 0.3072000 0.4951456 0.0650000
vn -0.8810909 0.0000000 0.4729469
f 127/1/43 128/1/43 129/1/43
v 0.3072000 0.4660194 0.0650000
v 0.3904000 0.5922330 0.2200000
v 0.3904000 0.6213592 0.2200000
vn -0.8810909 0.0000000 0.4729469
f 130/1/44 131/1/44 132/1/44
v 0.3072000 0.4951456 0.0650000
v 0.3904000 0.6213592 -0.2200000
v 0.3072000 0.4951456 -0.0650000
vn -0.8349164 0.5503769 0.0000000
f 133/1/45 134/1/45 135/1/45
v 0.3072000 0.4951456 0.0650000
v 0.3904000 0.6213592 0.2200000
v 0.3904000 0.6213592 -0.2200000
vn -0.8349164 0.5503769 0.0000000
f 136/1/46 137/1/46 138/1/46
v 0.3072000 0.4951456 -0.0650000
v 0.3904000 0.5922330 -0.2200000
v 0.3072000 0.4660194 -0.0650000
vn -0.8810909 -0.0000000 -0.4729469
f 139/1/47 140/1/47 141/1/47
v 0.3072000 0.4951456 -0.0650000
v 0.3904000 0.6213592 -0.2200000
v 0.3904000 0.5922330 -0.2200000
vn -0.8810909 0.0000000 -0.4729469
f 142/1/48 143/1/48 144/1/48
v 0.3904000 0.5922330 -0.2200000
v 0.4288000 0.6504854 0.0550000
v 0.3904000 0.5922330 0.2200000
vn 0.8349164 -0.5503769 0.0000000
f 145/1/49 146/1/49 147/1/49
v 0.3904000 0.5922330 -0.2200000
v 0.4288000 0.6504854 -0.0550000
v 0.4288000 0.6504854 0.0550000
vn 0.8349164 -0.5503769 0.0000000
f 148/1/50 149/1/50 150/1/50
v 0.3904000 0.5922330 0.2200000
v 0.4288000 0.6796117 0.0550000
v 0.3904000 0.6213592 0.2200000
vn 0.9739717 -0.0000000 0.2266698
f 151/1/51 152/1/51 153/1/51
v 0.3904000 0.5922330 0.2200000
v 0.4288000 0.6504854 0.0550000
v 0.4288000 0.6796117 0.0550000
vn 0.9739717 0.0000000 0.2266698
f 154/1/52 155/1/52 156/1/52
v 0.3904000 0.6213592 0.2200000
v 0.4288000 0.6796117 -0.0550000
v 0.3904000 0.6213592 -0.2200000
vn -0.8349164 0.5503769 0.0000000
f 157/1/53 158/1/53 159/1/53
v 0.3904000 0.6213592 0.2200000
v 0.4288000 0.6796117 0.0550000
v 0.4288000 0.6796117 -0.0550000
vn -0.8349164 0.5503769 0.0000000
f 160/1/54 161/1/54 162/1/54
v 0.3904000 0.6213592 -0.2200000
v 0.4288000 0.6504854 -0.0550000
v 0.3904000 0.5922330 -0.2200000
vn 0.9739717 0.0000000 -0.2266698
f 163/1/55 164/1/55 165/1/55
v 0.3904000 0.6213592 -0.2200000
v 0.4288000 0.6796117 -0.0550000
v 0.4288000 0.6504854 -0.0550000
vn 0.9739717 0.0000000 -0.2266698
f 166/1/56 167/1/56 168/1/56
v 0.4288000 0.6504854 -0.0550000
v 0.5056000 0.7669903 0.1600000
v 0.4288000 0.6504854 0.0550000
vn 0.8349164 -0.5503769 0.0000000
f 169/1/57 170/1/57 171/1/57
v 0.4288000 0.6504854 -0.0550000
v 0.5056000 0.7669903 -0.1600000
v 0.5056000 0.7669903 0.1600000
vn 0.8349164 -0.5503769 0.0000000
f 172/1/58 173/1/58 174/1/58
v 0.4288000 0.6504854 0.0550000
v 0.5056000 0.7961165 0.1600000
v 0.4288000 0.6796117 0.0550000
vn -0.8071375 0.0000000 0.5903635
f 175/1/59 176/1/59 177/1/59
v 0.4288000 0.6504854 0.0550000
v 0.5056000 0.7669903 0.1600000
v 0.5056000 0.7961165 0.1600000
vn -0.8071375 0.0000000 0.5903635
f 178/1/60 179/1/60 180/1/60
v 0.4288000 0.6796117 0.0550000
v 0.5056000 0.7961165 -0.1600000
v 0.4288000 0.6796117 -0.0550000
vn -0.8349164 0.5503769 0.0000000
f 181/1/61 182/1/61 183/1/61
v 0.4288000 0.6796117 0.0550000
v 0.5056000 0.7961165 0.1600000
v 0.5056000 0.7961165 -0.1600000
vn -0.8349164 0.5503769 0.0000000
f 184/1/62 185/1/62 186/1/62
v 0.4288000 0.6796117 -0.0550000
v 0.5056000 0.7669903 -0.1600000
v 0.4288000 0.6504854 -0.0550000
vn -0.8071375 -0.0000000 -0.5903635
f 187/1/63 188/1/63 189/1/63
v 0.4288000 0.6796117 -0.0550000
v 0.5056000 0.7961165 -0.1600000
v 0.5056000 0.7669903 -0.1600000
vn -0.8071375 0.0000000 -0.5903635
f 190/1/64 191/1/64 192/1/64
v 0.5056000 0.7669903 -0.1600000
v 0.5440000 0.8252427 0.0400000
v 0.5056000 0.7669903 0.1600000
vn 0.8349164 -0.5503769 0.0000000
f 193/1/65 194/1/65 195/1/65
v 0.5056000 0.7669903 -0.1600000
v 0.5440000 0.8252427 -0.0400000
v 0.5440000 0.8252427 0.0400000
vn 0.8349164 -0.5503769 0.0000000
f 196/1/66 197/1/66 198/1/66
v 0.5056000 0.7669903 0.1600000
v 0.5440000 0.8543689 0.0400000
v 0.5056000 0.7961165 0.1600000
vn 0.9524241 -0.0000000 0.3047757
f 199/1/67 200/1/67 201/1/67
v 0.5056000 0.7669903 0.1600000
v 0.5440000 0.8252427 0.0400000
v 0.5440000 0.8543689 0.0400000
vn 0.9524241 0.0000000 0.3047757
f 202/1/68 203/1/68 204/1/68
v 0.5056000 0.7961165 0.1600000
v 0.5440000 0.8543689 -0.0400000
v 0.5056000 0.7961165 -0.1600000
vn -0.8349164 0.5503769 0.0000000
f 205/1/69 206/1/69 207/1/69
v 0.5056000 0.7961165 0.1600000
v 0.5440000 0.8543689 0.0400000
v 0.5440000 0.8543689 -0.0400000
vn -0.8349164 0.5503769 0.0000000
f 208/1/70 209/1/70 210/1/70
v 0.5056000 0.7961165 -0.1600000
v 0.5440000 0.8252427 -0.0400000
v 0.5056000 0.7669903 -0.1600000
vn 0.9524241 0.0000000 -0.3047757
f 211/1/71 212/1/71 213/1/71
v 0.5056000 0.7961165 -0.1600000
v 0.5440000 0.8543689 -0.0400000
v 0.5440000 0.8252427 -0.0400000
vn 0.9524241 0.0000000 -0.3047757
f 214/1/72 215/1/72 216/1/72
v 0.5440000 0.8252427 -0.0400000
v 0.6016000 0.9126214 0.0750000
v 0.5440000 0.8252427 0.0400000
vn 0.8349164 -0.5503769 0.0000000
f 217/1/73 218/1/73 219/1/73
v 0.5440000 0.8252427 -0.0400000
v 0.6016000 0.9126214 -0.0750000
v 0.6016000 0.9126214 0.0750000
vn 0.8349164 -0.5503769 0.0000000
f 220/1/74 221/1/74 222/1/74
v 0.5440000 0.8252427 0.0400000
v 0.6016000 0.9417476 0.0750000
v 0.5440000 0.8543689 0.0400000
vn -0.5192878 0.0000000 0.8545994
f 223/1/75 224/1/75 225/1/75
v 0.5440000 0.8252427 0.0400000
v 0.6016000 0.9126214 0.0750000
v 0.6016000 0.9417476 0.0750000
vn -0.5192878 0.0000000 0.8545994
f 226/1/76 227/1/76 228/1/76
v 0.5440000 0.8543689 0.0400000
v 0.6016000 0.9417476 -0.0750000
v 0.5440000 0.8543689 -0.0400000
vn -0.8349164 0.5503769 0.0000000
f 229/1/77 230/1/77 231/1/77
v 0.5440000 0.8543689 0.0400000
v 0.6016000 0.9417476 0.0750000
v 0.6016000 0.9417476 -0.0750000
vn -0.8349164 0.5503769 0.0000000
f 232/1/78 233/1/78 234/1/78
v 0.5440000 0.8543689 -0.0400000
v 0.6016000 0.9126214 -0.0750000
v 0.5440000 0.8252427 -0.0400000
vn -0.5192878 -0.0000000 -0.8545994
f 235/1/79 236/1/79 237/1/79
v 0.5440000 0.8543689 -0.0400000
v 0.6016000 0.9417476 -0.0750000
v 0.6016000 0.9126214 -0.0750000
vn -0.5192878 0.0000000 -0.8545994
f 238/1/80 239/1/80 240/1/80
v 0.6016000 0.9126214 -0.0750000
v 0.6400000 0.9708738 0.0100000
v 0.6016000 0.9126214 0.0750000
vn 0.8349164 -0.5503769 0.0000000
f 241/1/81 242/1/81 243/1/81
v 0.6016000 0.9126214 -0.0750000
v 0.6400000 0.9708738 -0.0100000
v 0.6400000 0.9708738 0.0100000
vn 0.8349164 -0.5503769 0.0000000
f 244/1/82 245/1/82 246/1/82
v 0.6016000 0.9126214 0.0750000
v 0.6400000 1.0000000 0.0100000
v 0.6016000 0.9417476 0.0750000
vn 0.8609793 -0.0000000 0.5086401
f 247/1/83 248/1/83 249/1/83
v 0.6016000 0.9126214 0.0750000
v 0.6400000 0.9708738 0.0100000
v 0.6400000 1.0000000 0.0100000
vn 0.8609793 0.0000000 0.5086401
f 250/1/84 251/1/84 252/1/84
v 0.6016000 0.9417476 0.0750000
v 0.6400000 1.0000000 -0.0100000
v 0.6016000 0.9417476 -0.0750000
vn -0.8349164 0.5503769 0.0000000
f 253/1/85 254/1/85 255/1/85
v 0.6016000 0.9417476 0.0750000
v 0.6400000 1.0000000 0.0100000
v 0.6400000 1.0000000 -0.0100000
vn -0.8349164 0.5503769 0.0000000
f 256/1/86 257/1/86 258/1/86
v 0.6016000 0.9417476 -0.0750000
v 0.6400000 0.9708738 -0.0100000
v 0.6016000 0.9126214 -0.0750000
vn 0.8609793 0.0000000 -0.5086401
f 259/1/87 260/1/87 261/1/87
v 0.6016000 0.9417476 -0.0750000
v 0.6400000 1.0000000 -0.0100000
v 0.6400000 0.9708738 -0.0100000
vn 0.8609793 0.0000000 -0.5086401
f 262/1/88 263/1/88 264/1/88
v 0.0000000 0.0291262 -0.0250000
v 0.0000000 0.0000000 0.0250000
v 0.0000000 0.0291262 0.0250000
vn -1.0000000 0.0000000 0.0000000
f 265/1/89 266/1/89 267/1/89
v 0.0000000 0.0291262 -0.0250000
v 0.0000000 0.0000000 -0.0250000
v 0.0000000 0.0000000 0.0250000
vn -1.0000000 0.0000000 0.0000000
f 268/1/90 269/1/90 270/1/90
v 0.6400000 0.9708738 -0.0100000
v 0.6400000 1.0000000 0.0100000
v 0.6400000 0.9708738 0.0100000
vn 1.0000000 0.0000000 0.0000000
f 271/1/91 272/1/91 273/1/91
v 0.6400000 0.9708738 -0.0100000
v 0.6400000 1.0000000 -0.0100000
v 0.6400000 1.0000000 0.0100000
vn 1.0000000 0.0000000 0.0000000
f 274/1/92 275/1/92 276/1/92
v 0.0237764 0.0000000 -0.0077254
v -0.0055991 0.1359223 0.0960303
v -0.0237764 0.0000000 0.0077254
vn 0.2580033 -0.5503769 0.7940526
f 277/1/93 278/1/93 279/1/93
v 0.0237764 0.0000000 -0.0077254
v 0.0609749 0.1359223 0.0743991
v -0.0055991 0.1359223 0.0960303
vn 0.2580033 -0.5503769 0.7940526
f 280/1/94 281/1/94 282/1/94
v -0.0237764 0.0000000 0.0077254
v -0.0055991 0.1650485 0.0960303
v -0.0237764 0.0291262 0.0077254
vn -0.9794637 0.0000000 0.2016205
f 283/1/95 284/1/95 285/1/95
v -0.0237764 0.0000000 0.0077254
v -0.0055991 0.1359223 0.0960303
v -0.0055991 0.1650485 0.0960303
vn -0.9794637 0.0000000 0.2016205
f 286/1/96 287/1/96 288/1/96
v -0.0237764 0.0291262 0.0077254
v 0.0609749 0.1650485 0.0743991
v 0.0237764 0.0291262 -0.0077254
vn -0.2580033 0.5503769 -0.7940526
f 289/1/97 290/1/97 291/1/97
v -0.0237764 0.0291262 0.0077254
v -0.0055991 0.1650485 0.0960303
v 0.0609749 0.1650485 0.0743991
vn -0.2580033 0.5503769 -0.7940526
f 292/1/98 293/1/98 294/1/98
v 0.0237764 0.0291262 -0.0077254
v 0.0609749 0.1359223 0.0743991
v 0.0237764 0.0000000 -0.0077254
vn 0.9109123 0.0000000 -0.4125999
f 295/1/99 296/1/99 297/1/99
v 0.0237764 0.0291262 -0.0077254
v 0.0609749 0.1650485 0.0743991
v 0.0609749 0.1359223 0.0743991
vn 0.9109123 0.0000000 -0.4125999
f 298/1/100 299/1/100 300/1/100
v 0.0609749 0.1359223 0.0743991
v -0.1712780 0.2330097 0.2171562
v -0.0055991 0.1359223 0.0960303
vn 0.2580033 -0.5503769 0.7940526
f 301/1/101 302/1/101 303/1/101
v 0.0609749 0.1359223 0.0743991
v 0.2662080 0.2330097 0.0750084
v -0.1712780 0.2330097 0.2171562
vn 0.2580033 -0.5503769 0.7940526
f 304/1/102 305/1/102 306/1/102
v -0.0055991 0.1359223 0.0960303
v -0.1712780 0.2621359 0.2171562
v -0.0055991 0.1650485 0.0960303
vn -0.5901845 0.0000000 -0.8072684
f 307/1/103 308/1/103 309/1/103
v -0.0055991 0.1359223 0.0960303
v -0.1712780 0.2330097 0.2171562
v -0.1712780 0.2621359 0.2171562
vn -0.5901845 0.0000000 -0.8072684
f 310/1/104 311/1/104 312/1/104
v -0.0055991 0.1650485 0.0960303
v 0.2662080 0.2621359 0.0750084
v 0.0609749 0.1650485 0.0743991
vn -0.2580033 0.5503769 -0.7940526
f 313/1/105 314/1/105 315/1/105
v -0.0055991 0.1650485 0.0960303
v -0.1712780 0.2621359 0.2171562
v 0.2662080 0.2621359 0.0750084
vn -0.2580033 0.5503769 -0.7940526
f 316/1/106 317/1/106 318/1/106
v 0.0609749 0.1650485 0.0743991
v 0.2662080 0.2330097 0.0750084
v 0.0609749 0.1359223 0.0743991
vn 0.0029688 0.0000000 -0.9999956
f 319/1/107 320/1/107 321/1/107
v 0.0609749 0.1650485 0.0743991
v 0.2662080 0.2621359 0.0750084
v 0.2662080 0.2330097 0.0750084
vn 0.0029688 0.0000000 -0.9999956
f 322/1/108 323/1/108 324/1/108
v 0.2662080 0.2330097 0.0750084
v -0.0024874 0.2912621 0.2026890
v -0.1712780 0.2330097 0.2171562
vn 0.2580033 -0.5503769 0.7940526
f 325/1/109 326/1/109 327/1/109
v 0.2662080 0.2330097 0.0750084
v 0.1211499 0.2912621 0.1625167
v -0.0024874 0.2912621 0.2026890
vn 0.2580033 -0.5503769 0.7940526
f 328/1/110 329/1/110 330/1/110
v -0.1712780 0.2330097 0.2171562
v -0.0024874 0.3203883 0.2026890
v -0.1712780 0.2621359 0.2171562
vn 0.0853980 -0.0000000 0.9963469
f 331/1/111 332/1/111 333/1/111
v -0.1712780 0.2330097 0.2171562
v -0.0024874 0.2912621 0.2026890
v -0.0024874 0.3203883 0.2026890
vn 0.0853980 0.0000000 0.9963469
f 334/1/112 335/1/112 336/1/112
v -0.1712780 0.2621359 0.2171562
v 0.1211499 0.3203883 0.1625167
v 0.2662080 0.2621359 0.0750084
vn -0.2580033 0.5503769 -0.7940526
f 337/1/113 338/1/113 339/1/113
v -0.1712780 0.2621359 0.2171562
v -0.0024874 0.3203883 0.2026890
v 0.1211499 0.3203883 0.1625167
vn -0.2580033 0.5503769 -0.7940526
f 340/1/114 341/1/114 342/1/114
v 0.2662080 0.2621359 0.0750084
v 0.1211499 0.2912621 0.1625167
v 0.2662080 0.2330097 0.0750084
vn 0.5165496 0.0000000 0.8562573
f 343/1/115 344/1/115 345/1/115
v 0.2662080 0.2621359 0.0750084
v 0.1211499 0.3203883 0.1625167
v 0.1211499 0.2912621 0.1625167
vn 0.5165496 0.0000000 0.8562573
f 346/1/116 347/1/116 348/1/116
v 0.1211499 0.2912621 0.1625167
v -0.1642109 0.4077670 0.3359884
v -0.0024874 0.2912621 0.2026890
vn 0.2580033 -0.5503769 0.7940526
f 349/1/117 350/1/117 351/1/117
v 0.1211499 0.2912621 0.1625167
v 0.3303385 0.4077670 0.1752996
v -0.1642109 0.4077670 0.3359884
vn 0.2580033 -0.5503769 0.7940526
f 352/1/118 353/1/118 354/1/118
v -0.0024874 0.2912621 0.2026890
v -0.1642109 0.4368932 0.3359884
v -0.0024874 0.3203883 0.2026890
vn -0.6360353 0.0000000 -0.7716600
f 355/1/119 356/1/119 357/1/119
v -0.0024874 0.2912621 0.2026890
v -0.1642109 0.4077670 0.3359884
v -0.1642109 0.4368932 0.3359884
vn -0.6360353 0.0000000 -0.7716600
f 358/1/120 359/1/120 360/1/120
v -0.0024874 0.3203883 0.2026890
v 0.3303385 0.4368932 0.1752996
v 0.1211499 0.3203883 0.1625167
vn -0.2580033 0.5503769 -0.7940526
f 361/1/121 362/1/121 363/1/121
v -0.0024874 0.3203883 0.2026890
v -0.1642109 0.4368932 0.3359884
v 0.3303385 0.4368932 0.1752996
vn -0.2580033 0.5503769 -0.7940526
f 364/1/122 365/1/122 366/1/122
v 0.1211499 0.3203883 0.1625167
v 0.3303385 0.4077670 0.1752996
v 0.1211499 0.2912621 0.1625167
vn 0.0609930 0.0000000 -0.9981382
f 367/1/123 368/1/123 369/1/123
v 0.1211499 0.3203883 0.1625167
v 0.3303385 0.4368932 0.1752996
v 0.3303385 0.4077670 0.1752996
vn 0.0609930 0.0000000 -0.9981382
f 370/1/124 371/1/124 372/1/124
v 0.3303385 0.4077670 0.1752996
v 0.0331113 0.4660194 0.3122507
v -0.1642109 0.4077670 0.3359884
vn 0.2580033 -0.5503769 0.7940526
f 373/1/125 374/1/125 375/1/125
v 0.3303385 0.4077670 0.1752996
v 0.1567487 0.4660194 0.2720785
v 0.0331113 0.4660194 0.3122507
vn 0.2580033 -0.5503769 0.7940526
f 376/1/126 377/1/126 378/1/126
v -0.1642109 0.4077670 0.3359884
v 0.0331113 0.4951456 0.3122507
v -0.1642109 0.4368932 0.3359884
vn 0.1194382 -0.0000000 0.9928416
f 379/1/127 380/1/127 381/1/127
v -0.1642109 0.4077670 0.3359884
v 0.0331113 0.4660194 0.3122507
v 0.0331113 0.4951456 0.3122507
vn 0.1194382 0.0000000 0.9928416
f 382/1/128 383/1/128 384/1/128
v -0.1642109 0.4368932 0.3359884
v 0.1567487 0.4951456 0.2720785
v 0.3303385 0.4368932 0.1752996
vn -0.2580033 0.5503769 -0.7940526
f 385/1/129 386/1/129 387/1/129
v -0.1642109 0.4368932 0.3359884
v 0.0331113 0.4951456 0.3122507
v 0.1567487 0.4951456 0.2720785
vn -0.2580033 0.5503769 -0.7940526
f 388/1/130 389/1/130 390/1/130
v 0.3303385 0.4368932 0.1752996
v 0.1567487 0.4660194 0.2720785
v 0.3303385 0.4077670 0.1752996
vn 0.4869501 0.0000000 0.8734298
f 391/1/131 392/1/131 393/1/131
v 0.3303385 0.4368932 0.1752996
v 0.1567487 0.4951456 0.2720785
v 0.1567487 0.4660194 0.2720785
vn 0.4869501 0.0000000 0.8734298
f 394/1/132 395/1/132 396/1/132
v 0.1567487 0.4660194 0.2720785
v -0.0885922 0.5922330 0.4392762
v 0.0331113 0.4660194 0.3122507
vn 0.2580033 -0.5503769 0.7940526
f 397/1/133 398/1/133 399/1/133
v 0.1567487 0.4660194 0.2720785
v 0.3298727 0.5922330 0.3033087
v -0.0885922 0.5922330 0.4392762
vn 0.2580033 -0.5503769 0.7940526
f 400/1/134 401/1/134 402/1/134
v 0.0331113 0.4660194 0.3122507
v -0.0885922 0.6213592 0.4392762
v 0.0331113 0.4951456 0.3122507
vn -0.7220713 0.0000000 -0.6918187
f 403/1/135 404/1/135 405/1/135
v 0.0331113 0.4660194 0.3122507
v -0.0885922 0.5922330 0.4392762
v -0.0885922 0.6213592 0.4392762
vn -0.7220713 0.0000000 -0.6918187
f 406/1/136 407/1/136 408/1/136
v 0.0331113 0.4951456 0.3122507
v 0.3298727 0.6213592 0.3033087
v 0.1567487 0.4951456 0.2720785
vn -0.2580033 0.5503769 -0.7940526
f 409/1/137 410/1/137 411/1/137
v 0.0331113 0.4951456 0.3122507
v -0.0885922 0.6213592 0.4392762
v 0.3298727 0.6213592 0.3033087
vn -0.2580033 0.5503769 -0.7940526
f 412/1/138 413/1/138 414/1/138
v 0.1567487 0.4951456 0.2720785
v 0.3298727 0.5922330 0.3033087
v 0.1567487 0.4660194 0.2720785
vn 0.1775271 0.0000000 -0.9841159
f 415/1/139 416/1/139 417/1/139
v 0.1567487 0.4951456 0.2720785
v 0.3298727 0.6213592 0.3033087
v 0.3298727 0.5922330 0.3033087
vn 0.1775271 0.0000000 -0.9841159
f 418/1/140 419/1/140 420/1/140
v 0.3298727 0.5922330 0.3033087
v 0.0801984 0.6504854 0.4248090
v -0.0885922 0.5922330 0.4392762
vn 0.2580033 -0.5503769 0.7940526
f 421/1/141 422/1/141 423/1/141
v 0.3298727 0.5922330 0.3033087
v 0.1848146 0.6504854 0.3908171
v 0.0801984 0.6504854 0.4248090
vn 0.2580033 -0.5503769 0.7940526
f 424/1/142 425/1/142 426/1/142
v -0.0885922 0.5922330 0.4392762
v 0.0801984 0.6796117 0.4248090
v -0.0885922 0.6213592 0.4392762
vn 0.0853980 -0.0000000 0.9963469
f 427/1/143 428/1/143 429/1/143
v -0.0885922 0.5922330 0.4392762
v 0.0801984 0.6504854 0.4248090
v 0.0801984 0.6796117 0.4248090
vn 0.0853980 0.0000000 0.9963469
f 430/1/144 431/1/144 432/1/144
v -0.0885922 0.6213592 0.4392762
v 0.1848146 0.6796117 0.3908171
v 0.3298727 0.6213592 0.3033087
vn -0.2580033 0.5503769 -0.7940526
f 433/1/145 434/1/145 435/1/145
v -0.0885922 0.6213592 0.4392762
v 0.0801984 0.6796117 0.4248090
v 0.1848146 0.6796117 0.3908171
vn -0.2580033 0.5503769 -0.7940526
f 436/1/146 437/1/146 438/1/146
v 0.3298727 0.6213592 0.3033087
v 0.1848146 0.6504854 0.3908171
v 0.3298727 0.5922330 0.3033087
vn 0.5165496 0.0000000 0.8562573
f 439/1/147 440/1/147 441/1/147
v 0.3298727 0.6213592 0.3033087
v 0.1848146 0.6796117 0.3908171
v 0.1848146 0.6504854 0.3908171
vn 0.5165496 0.0000000 0.8562573
f 442/1/148 443/1/148 444/1/148
v 0.1848146 0.6504854 0.3908171
v 0.0040699 0.7669903 0.5302969
v 0.0801984 0.6504854 0.4248090
vn 0.2580033 -0.5503769 0.7940526
f 445/1/149 446/1/149 447/1/149
v 0.1848146 0.6504854 0.3908171
v 0.3084080 0.7669903 0.4314115
v 0.0040699 0.7669903 0.5302969
vn 0.2580033 -0.5503769 0.7940526
f 448/1/150 449/1/150 450/1/150
v 0.0801984 0.6504854 0.4248090
v 0.0040699 0.7961165 0.5302969
v 0.0801984 0.6796117 0.4248090
vn -0.8108882 0.0000000 -0.5852011
f 451/1/151 452/1/151 453/1/151
v 0.0801984 0.6504854 0.4248090
v 0.0040699 0.7669903 0.5302969
v 0.0040699 0.7961165 0.5302969
vn -0.8108882 0.0000000 -0.5852011
f 454/1/152 455/1/152 456/1/152
v 0.0801984 0.6796117 0.4248090
v 0.3084080 0.7961165 0.4314115
v 0.1848146 0.6796117 0.3908171
vn -0.2580033 0.5503769 -0.7940526
f 457/1/153 458/1/153 459/1/153
v 0.0801984 0.6796117 0.4248090
v 0.0040699 0.7961165 0.5302969
v 0.3084080 0.7961165 0.4314115
vn -0.2580033 0.5503769 -0.7940526
f 460/1/154 461/1/154 462/1/154
v 0.1848146 0.6796117 0.3908171
v 0.3084080 0.7669903 0.4314115
v 0.1848146 0.6504854 0.3908171
vn 0.3120498 0.0000000 -0.9500657
f 463/1/155 464/1/155 465/1/155
v 0.1848146 0.6796117 0.3908171
v 0.3084080 0.7961165 0.4314115
v 0.3084080 0.7669903 0.4314115
vn 0.3120498 0.0000000 -0.9500657
f 466/1/156 467/1/156 468/1/156
v 0.3084080 0.7669903 0.4314115
v 0.1300630 0.8252427 0.5297354
v 0.0040699 0.7669903 0.5302969
vn 0.2580033 -0.5503769 0.7940526
f 469/1/157 470/1/157 471/1/157
v 0.3084080 0.7669903 0.4314115
v 0.2061475 0.8252427 0.5050141
v 0.1300630 0.8252427 0.5297354
vn 0.2580033 -0.5503769 0.7940526
f 472/1/158 473/1/158 474/1/158
v 0.0040699 0.7669903 0.5302969
v 0.1300630 0.8543689 0.5297354
v 0.0040699 0.7961165 0.5302969
vn 0.0044563 -0.0000000 0.9999901
f 475/1/159 476/1/159 477/1/159
v 0.0040699 0.7669903 0.5302969
v 0.1300630 0.8252427 0.5297354
v 0.1300630 0.8543689 0.5297354
vn 0.0044563 0.0000000 0.9999901
f 478/1/160 479/1/160 480/1/160
v 0.0040699 0.7961165 0.5302969
v 0.2061475 0.8543689 0.5050141
v 0.3084080 0.7961165 0.4314115
vn -0.2580033 0.5503769 -0.7940526
f 481/1/161 482/1/161 483/1/161
v 0.0040699 0.7961165 0.5302969
v 0.1300630 0.8543689 0.5297354
v 0.2061475 0.8543689 0.5050141
vn -0.2580033 0.5503769 -0.7940526
f 484/1/162 485/1/162 486/1/162
v 0.3084080 0.7961165 0.4314115
v 0.2061475 0.8252427 0.5050141
v 0.3084080 0.7669903 0.4314115
vn 0.5841742 0.0000000 0.8116283
f 487/1/163 488/1/163 489/1/163
v 0.3084080 0.7961165 0.4314115
v 0.2061475 0.8543689 0.5050141
v 0.2061475 0.8252427 0.5050141
vn 0.5841742 0.0000000 0.8116283
f 490/1/164 491/1/164 492/1/164
v 0.2061475 0.8252427 0.5050141
v 0.1145754 0.9126214 0.5953319
v 0.1300630 0.8252427 0.5297354
vn 0.2580033 -0.5503769 0.7940526
f 493/1/165 494/1/165 495/1/165
v 0.2061475 0.8252427 0.5050141
v 0.2572339 0.9126214 0.5489793
v 0.1145754 0.9126214 0.5953319
vn 0.2580033 -0.5503769 0.7940526
f 496/1/166 497/1/166 498/1/166
v 0.1300630 0.8252427 0.5297354
v 0.1145754 0.9417476 0.5953319
v 0.1300630 0.8543689 0.5297354
vn -0.9732411 0.0000000 -0.2297863
f 499/1/167 500/1/167 501/1/167
v 0.1300630 0.8252427 0.5297354
v 0.1145754 0.9126214 0.5953319
v 0.1145754 0.9417476 0.5953319
vn -0.9732411 0.0000000 -0.2297863
f 502/1/168 503/1/168 504/1/168
v 0.1300630 0.8543689 0.5297354
v 0.2572339 0.9417476 0.5489793
v 0.2061475 0.8543689 0.5050141
vn -0.2580033 0.5503769 -0.7940526
f 505/1/169 506/1/169 507/1/169
v 0.1300630 0.8543689 0.5297354
v 0.1145754 0.9417476 0.5953319
v 0.2572339 0.9417476 0.5489793
vn -0.2580033 0.5503769 -0.7940526
f 508/1/170 509/1/170 510/1/170
v 0.2061475 0.8543689 0.5050141
v 0.2572339 0.9126214 0.5489793
v 0.2061475 0.8252427 0.5050141
vn 0.6523036 0.0000000 -0.7579578
f 511/1/171 512/1/171 513/1/171
v 0.2061475 0.8543689 0.5050141
v 0.2572339 0.9417476 0.5489793
v 0.2572339 0.9126214 0.5489793
vn 0.6523036 0.0000000 -0.7579578
f 514/1/172 515/1/172 516/1/172
v 0.2572339 0.9126214 0.5489793
v 0.1882603 0.9708738 0.6117663
v 0.1145754 0.9126214 0.5953319
vn 0.2580033 -0.5503769 0.7940526
f 517/1/173 518/1/173 519/1/173
v 0.2572339 0.9126214 0.5489793
v 0.2072814 0.9708738 0.6055860
v 0.1882603 0.9708738 0.6117663
vn 0.2580033 -0.5503769 0.7940526
f 520/1/174 521/1/174 522/1/174
v 0.1145754 0.9126214 0.5953319
v 0.1882603 1.0000000 0.6117663
v 0.1145754 0.9417476 0.5953319
vn -0.2176882 0.0000000 0.9760184
f 523/1/175 524/1/175 525/1/175
v 0.1145754 0.9126214 0.5953319
v 0.1882603 0.9708738 0.6117663
v 0.1882603 1.0000000 0.6117663
vn -0.2176882 0.0000000 0.9760184
f 526/1/176 527/1/176 528/1/176
v 0.1145754 0.9417476 0.5953319
v 0.2072814 1.0000000 0.6055860
v 0.2572339 0.9417476 0.5489793
vn -0.2580033 0.5503769 -0.7940526
f 529/1/177 530/1/177 531/1/177
v 0.1145754 0.9417476 0.5953319
v 0.1882603 1.0000000 0.6117663
v 0.2072814 1.0000000 0.6055860
vn -0.2580033 0.5503769 -0.7940526
f 532/1/178 533/1/178 534/1/178
v 0.2572339 0.9417476 0.5489793
v 0.2072814 0.9708738 0.6055860
v 0.2572339 0.9126214 0.5489793
vn 0.7498027 0.0000000 0.6616615
f 535/1/179 536/1/179 537/1/179
v 0.2572339 0.9417476 0.5489793
v 0.2072814 1.0000000 0.6055860
v 0.2072814 0.9708738 0.6055860
vn 0.7498027 0.0000000 0.6616615
f 538/1/180 539/1/180 540/1/180
v 0.0237764 0.0291262 -0.0077254
v -0.0237764 0.0000000 0.0077254
v -0.0237764 0.0291262 0.0077254
vn -0.3090170 0.0000000 -0.9510565
f 541/1/181 542/1/181 543/1/181
v 0.0237764 0.0291262 -0.0077254
v 0.0237764 0.0000000 -0.0077254
v -0.0237764 0.0000000 0.0077254
vn -0.3090170 -0.0000000 -0.9510565
f 544/1/182 545/1/182 546/1/182
v 0.2072814 0.9708738 0.6055860
v 0.1882603 1.0000000 0.6117663
v 0.1882603 0.9708738 0.6117663
vn 0.3090170 0.0000000 0.9510565
f 547/1/183 548/1/183 549/1/183
v 0.2072814 0.9708738 0.6055860
v 0.2072814 1.0000000 0.6055860
v 0.1882603 1.0000000 0.6117663
vn 0.3090170 -0.0000000 0.9510565
f 550/1/184 551/1/184 552/1/184
v 0.0146946 0.0000000 0.0202254
v -0.0930604 0.1359223 0.0243500
v -0.0146946 0.0000000 -0.0202254
vn -0.6754615 -0.5503769 0.4907515
f 553/1/185 554/1/185 555/1/185
v 0.0146946 0.0000000 0.0202254
v -0.0519154 0.1359223 0.0809812
v -0.0930604 0.1359223 0.0243500
vn -0.6754615 -0.5503769 0.4907515
f 556/1/186 557/1/186 558/1/186
v -0.0146946 0.0000000 -0.0202254
v -0.0930604 0.1650485 0.0243500
v -0.0146946 0.0291262 -0.0202254
vn -0.4944234 0.0000000 -0.8692212
f 559/1/187 560/1/187 561/1/187
v -0.0146946 0.0000000 -0.0202254
v -0.0930604 0.1359223 0.0243500
v -0.0930604 0.1650485 0.0243500
vn -0.4944234 0.0000000 -0.8692212
f 562/1/188 563/1/188 564/1/188
v -0.0146946 0.0291262 -0.0202254
v -0.0519154 0.1650485 0.0809812
v 0.0146946 0.0291262 0.0202254
vn 0.6754615 0.5503769 -0.4907515
f 565/1/189 566/1/189 567/1/189
v -0.0146946 0.0291262 -0.0202254
v -0.0930604 0.1650485 0.0243500
v -0.0519154 0.1650485 0.0809812
vn 0.6754615 0.5503769 -0.4907515
f 568/1/190 569/1/190 570/1/190
v 0.0146946 0.0291262 0.0202254
v -0.0519154 0.1359223 0.0809812
v 0.0146946 0.0000000 0.0202254
vn 0.6738933 0.0000000 0.7388287
f 571/1/191 572/1/191 573/1/191
v 0.0146946 0.0291262 0.0202254
v -0.0519154 0.1650485 0.0809812
v -0.0519154 0.1359223 0.0809812
vn 0.6738933 0.0000000 0.7388287
f 574/1/192 575/1/192 576/1/192
v -0.0519154 0.1359223 0.0809812
v -0.2594556 0.2330097 -0.0957901
v -0.0930604 0.1359223 0.0243500
vn -0.6754615 -0.5503769 0.4907515
f 577/1/193 578/1/193 579/1/193
v -0.0519154 0.1359223 0.0809812
v 0.0109256 0.2330097 0.2763577
v -0.2594556 0.2330097 -0.0957901
vn -0.6754615 -0.5503769 0.4907515
f 580/1/194 581/1/194 582/1/194
v -0.0930604 0.1359223 0.0243500
v -0.2594556 0.2621359 -0.0957901
v -0.0930604 0.1650485 0.0243500
vn 0.5853808 0.0000000 -0.8107585
f 583/1/195 584/1/195 585/1/195
v -0.0930604 0.1359223 0.0243500
v -0.2594556 0.2330097 -0.0957901
v -0.2594556 0.2621359 -0.0957901
vn 0.5853808 0.0000000 -0.8107585
f 586/1/196 587/1/196 588/1/196
v -0.0930604 0.1650485 0.0243500
v 0.0109256 0.2621359 0.2763577
v -0.0519154 0.1650485 0.0809812
vn 0.6754615 0.5503769 -0.4907515
f 589/1/197 590/1/197 591/1/197
v -0.0930604 0.1650485 0.0243500
v -0.2594556 0.2621359 -0.0957901
v 0.0109256 0.2621359 0.2763577
vn 0.6754615 0.5503769 -0.4907515
f 592/1/198 593/1/198 594/1/198
v -0.0519154 0.1650485 0.0809812
v 0.0109256 0.2330097 0.2763577
v -0.0519154 0.1359223 0.0809812
vn 0.9519697 0.0000000 -0.3061921
f 595/1/199 596/1/199 597/1/199
v -0.0519154 0.1650485 0.0809812
v 0.0109256 0.2621359 0.2763577
v 0.0109256 0.2330097 0.2763577
vn 0.9519697 0.0000000 -0.3061921
f 598/1/200 599/1/200 600/1/200
v 0.0109256 0.2330097 0.2763577
v -0.1935373 0.2912621 0.0602687
v -0.2594556 0.2330097 -0.0957901
vn -0.6754615 -0.5503769 0.4907515
f 601/1/201 602/1/201 603/1/201
v 0.0109256 0.2330097 0.2763577
v -0.1171252 0.2912621 0.1654409
v -0.1935373 0.2912621 0.0602687
vn -0.6754615 -0.5503769 0.4907515
f 604/1/202 605/1/202 606/1/202
v -0.2594556 0.2330097 -0.0957901
v -0.1935373 0.3203883 0.0602687
v -0.2594556 0.2621359 -0.0957901
vn -0.9211928 0.0000000 0.3891065
f 607/1/203 608/1/203 609/1/203
v -0.2594556 0.2330097 -0.0957901
v -0.1935373 0.2912621 0.0602687
v -0.1935373 0.3203883 0.0602687
vn -0.9211928 0.0000000 0.3891065
f 610/1/204 611/1/204 612/1/204
v -0.2594556 0.2621359 -0.0957901
v -0.1171252 0.3203883 0.1654409
v 0.0109256 0.2621359 0.2763577
vn 0.6754615 0.5503769 -0.4907515
f 613/1/205 614/1/205 615/1/205
v -0.2594556 0.2621359 -0.0957901
v -0.1935373 0.3203883 0.0602687
v -0.1171252 0.3203883 0.1654409
vn 0.6754615 0.5503769 -0.4907515
f 616/1/206 617/1/206 618/1/206
v 0.0109256 0.2621359 0.2763577
v -0.1171252 0.2912621 0.1654409
v 0.0109256 0.2330097 0.2763577
vn -0.6547265 0.0000000 0.7558659
f 619/1/207 620/1/207 621/1/207
v 0.0109256 0.2621359 0.2763577
v -0.1171252 0.3203883 0.1654409
v -0.1171252 0.2912621 0.1654409
vn -0.6547265 0.0000000 0.7558659
f 622/1/208 623/1/208 624/1/208
v -0.1171252 0.2912621 0.1654409
v -0.3702879 0.4077670 -0.0523477
v -0.1935373 0.2912621 0.0602687
vn -0.6754615 -0.5503769 0.4907515
f 625/1/209 626/1/209 627/1/209
v -0.1171252 0.2912621 0.1654409
v -0.0646396 0.4077670 0.3683411
v -0.3702879 0.4077670 -0.0523477
vn -0.6754615 -0.5503769 0.4907515
f 628/1/210 629/1/210 630/1/210
v -0.1935373 0.2912621 0.0602687
v -0.3702879 0.4368932 -0.0523477
v -0.1935373 0.3203883 0.0602687
vn 0.5373466 0.0000000 -0.8433615
f 631/1/211 632/1/211 633/1/211
v -0.1935373 0.2912621 0.0602687
v -0.3702879 0.4077670 -0.0523477
v -0.3702879 0.4368932 -0.0523477
vn 0.5373466 0.0000000 -0.8433615
f 634/1/212 635/1/212 636/1/212
v -0.1935373 0.3203883 0.0602687
v -0.0646396 0.4368932 0.3683411
v -0.1171252 0.3203883 0.1654409
vn 0.6754615 0.5503769 -0.4907515
f 637/1/213 638/1/213 639/1/213
v -0.1935373 0.3203883 0.0602687
v -0.3702879 0.4368932 -0.0523477
v -0.0646396 0.4368932 0.3683411
vn 0.6754615 0.5503769 -0.4907515
f 640/1/214 641/1/214 642/1/214
v -0.1171252 0.3203883 0.1654409
v -0.0646396 0.4077670 0.3683411
v -0.1171252 0.2912621 0.1654409
vn 0.9681337 0.0000000 -0.2504339
f 643/1/215 644/1/215 645/1/215
v -0.1171252 0.3203883 0.1654409
v -0.0646396 0.4368932 0.3683411
v -0.0646396 0.4077670 0.3683411
vn 0.9681337 0.0000000 -0.2504339
f 646/1/216 647/1/216 648/1/216
v -0.0646396 0.4077670 0.3683411
v -0.2867361 0.4660194 0.1279815
v -0.3702879 0.4077670 -0.0523477
vn -0.6754615 -0.5503769 0.4907515
f 649/1/217 650/1/217 651/1/217
v -0.0646396 0.4077670 0.3683411
v -0.2103240 0.4660194 0.2331537
v -0.2867361 0.4660194 0.1279815
vn -0.6754615 -0.5503769 0.4907515
f 652/1/218 653/1/218 654/1/218
v -0.3702879 0.4077670 -0.0523477
v -0.2867361 0.4951456 0.1279815
v -0.3702879 0.4368932 -0.0523477
vn -0.9073401 0.0000000 0.4203974
f 655/1/219 656/1/219 657/1/219
v -0.3702879 0.4077670 -0.0523477
v -0.2867361 0.4660194 0.1279815
v -0.2867361 0.4951456 0.1279815
vn -0.9073401 0.0000000 0.4203974
f 658/1/220 659/1/220 660/1/220
v -0.3702879 0.4368932 -0.0523477
v -0.2103240 0.4951456 0.2331537
v -0.0646396 0.4368932 0.3683411
vn 0.6754615 0.5503769 -0.4907515
f 661/1/221 662/1/221 663/1/221
v -0.3702879 0.4368932 -0.0523477
v -0.2867361 0.4951456 0.1279815
v -0.2103240 0.4951456 0.2331537
vn 0.6754615 0.5503769 -0.4907515
f 664/1/222 665/1/222 666/1/222
v -0.0646396 0.4368932 0.3683411
v -0.2103240 0.4660194 0.2331537
v -0.0646396 0.4077670 0.3683411
vn -0.6802052 0.0000000 0.7330217
f 667/1/223 668/1/223 669/1/223
v -0.0646396 0.4368932 0.3683411
v -0.2103240 0.4951456 0.2331537
v -0.2103240 0.4660194 0.2331537
vn -0.6802052 0.0000000 0.7330217
f 670/1/224 671/1/224 672/1/224
v -0.2103240 0.4660194 0.2331537
v -0.4451530 0.5922330 0.0514876
v -0.2867361 0.4660194 0.1279815
vn -0.6754615 -0.5503769 0.4907515
f 673/1/225 674/1/225 675/1/225
v -0.2103240 0.4660194 0.2331537
v -0.1865275 0.5922330 0.4074551
v -0.4451530 0.5922330 0.0514876
vn -0.6754615 -0.5503769 0.4907515
f 676/1/226 677/1/226 678/1/226
v -0.2867361 0.4660194 0.1279815
v -0.4451530 0.6213592 0.0514876
v -0.2867361 0.4951456 0.1279815
vn 0.4348263 0.0000000 -0.9005143
f 679/1/227 680/1/227 681/1/227
v -0.2867361 0.4660194 0.1279815
v -0.4451530 0.5922330 0.0514876
v -0.4451530 0.6213592 0.0514876
vn 0.4348263 0.0000000 -0.9005143
f 682/1/228 683/1/228 684/1/228
v -0.2867361 0.4951456 0.1279815
v -0.1865275 0.6213592 0.4074551
v -0.2103240 0.4951456 0.2331537
vn 0.6754615 0.5503769 -0.4907515
f 685/1/229 686/1/229 687/1/229
v -0.2867361 0.4951456 0.1279815
v -0.4451530 0.6213592 0.0514876
v -0.1865275 0.6213592 0.4074551
vn 0.6754615 0.5503769 -0.4907515
f 688/1/230 689/1/230 690/1/230
v -0.2103240 0.4951456 0.2331537
v -0.1865275 0.5922330 0.4074551
v -0.2103240 0.4660194 0.2331537
vn 0.9908087 0.0000000 -0.1352702
f 691/1/231 692/1/231 693/1/231
v -0.2103240 0.4951456 0.2331537
v -0.1865275 0.6213592 0.4074551
v -0.1865275 0.5922330 0.4074551
vn 0.9908087 0.0000000 -0.1352702
f 694/1/232 695/1/232 696/1/232
v -0.1865275 0.5922330 0.4074551
v -0.3792347 0.6504854 0.2075464
v -0.4451530 0.5922330 0.0514876
vn -0.6754615 -0.5503769 0.4907515
f 697/1/233 698/1/233 699/1/233
v -0.1865275 0.5922330 0.4074551
v -0.3145783 0.6504854 0.2965383
v -0.3792347 0.6504854 0.2075464
vn -0.6754615 -0.5503769 0.4907515
f 700/1/234 701/1/234 702/1/234
v -0.4451530 0.5922330 0.0514876
v -0.3792347 0.6796117 0.2075464
v -0.4451530 0.6213592 0.0514876
vn -0.9211928 0.0000000 0.3891065
f 703/1/235 704/1/235 705/1/235
v -0.4451530 0.5922330 0.0514876
v -0.3792347 0.6504854 0.2075464
v -0.3792347 0.6796117 0.2075464
vn -0.9211928 0.0000000 0.3891065
f 706/1/236 707/1/236 708/1/236
v -0.4451530 0.6213592 0.0514876
v -0.3145783 0.6796117 0.2965383
v -0.1865275 0.6213592 0.4074551
vn 0.6754615 0.5503769 -0.4907515
f 709/1/237 710/1/237 711/1/237
v -0.4451530 0.6213592 0.0514876
v -0.3792347 0.6796117 0.2075464
v -0.3145783 0.6796117 0.2965383
vn 0.6754615 0.5503769 -0.4907515
f 712/1/238 713/1/238 714/1/238
v -0.1865275 0.6213592 0.4074551
v -0.3145783 0.6504854 0.2965383
v -0.1865275 0.5922330 0.4074551
vn -0.6547265 0.0000000 0.7558659
f 715/1/239 716/1/239 717/1/239
v -0.1865275 0.6213592 0.4074551
v -0.3145783 0.6796117 0.2965383
v -0.3145783 0.6504854 0.2965383
vn -0.6547265 0.0000000 0.7558659
f 718/1/240 719/1/240 720/1/240
v -0.3145783 0.6504854 0.2965383
v -0.5030846 0.7669903 0.1677415
v -0.3792347 0.6504854 0.2075464
vn -0.6754615 -0.5503769 0.4907515
f 721/1/241 722/1/241 723/1/241
v -0.3145783 0.6504854 0.2965383
v -0.3149934 0.7669903 0.4266269
v -0.5030846 0.7669903 0.1677415
vn -0.6754615 -0.5503769 0.4907515
f 724/1/242 725/1/242 726/1/242
v -0.3792347 0.6504854 0.2075464
v -0.5030846 0.7961165 0.1677415
v -0.3792347 0.6796117 0.2075464
vn 0.3059810 0.0000000 -0.9520376
f 727/1/243 728/1/243 729/1/243
v -0.3792347 0.6504854 0.2075464
v -0.5030846 0.7669903 0.1677415
v -0.5030846 0.7961165 0.1677415
vn 0.3059810 0.0000000 -0.9520376
f 730/1/244 731/1/244 732/1/244
v -0.3792347 0.6796117 0.2075464
v -0.3149934 0.7961165 0.4266269
v -0.3145783 0.6796117 0.2965383
vn 0.6754615 0.5503769 -0.4907515
f 733/1/245 734/1/245 735/1/245
v -0.3792347 0.6796117 0.2075464
v -0.5030846 0.7961165 0.1677415
v -0.3149934 0.7961165 0.4266269
vn 0.6754615 0.5503769 -0.4907515
f 736/1/246 737/1/246 738/1/246
v -0.3145783 0.6796117 0.2965383
v -0.3149934 0.7669903 0.4266269
v -0.3145783 0.6504854 0.2965383
vn 0.9999949 0.0000000 0.0031905
f 739/1/247 740/1/247 741/1/247
v -0.3145783 0.6796117 0.2965383
v -0.3149934 0.7961165 0.4266269
v -0.3149934 0.7669903 0.4266269
vn 0.9999949 0.0000000 0.0031905
f 742/1/248 743/1/248 744/1/248
v -0.3149934 0.7669903 0.4266269
v -0.4636167 0.8252427 0.2873945
v -0.5030846 0.7669903 0.1677415
vn -0.6754615 -0.5503769 0.4907515
f 745/1/249 746/1/249 747/1/249
v -0.3149934 0.7669903 0.4266269
v -0.4165938 0.8252427 0.3521159
v -0.4636167 0.8252427 0.2873945
vn -0.6754615 -0.5503769 0.4907515
f 748/1/250 749/1/250 750/1/250
v -0.5030846 0.7669903 0.1677415
v -0.4636167 0.8543689 0.2873945
v -0.5030846 0.7961165 0.1677415
vn -0.9496700 0.0000000 0.3132521
f 751/1/251 752/1/251 753/1/251
v -0.5030846 0.7669903 0.1677415
v -0.4636167 0.8252427 0.2873945
v -0.4636167 0.8543689 0.2873945
vn -0.9496700 0.0000000 0.3132521
f 754/1/252 755/1/252 756/1/252
v -0.5030846 0.7961165 0.1677415
v -0.4165938 0.8543689 0.3521159
v -0.3149934 0.7961165 0.4266269
vn 0.6754615 0.5503769 -0.4907515
f 757/1/253 758/1/253 759/1/253
v -0.5030846 0.7961165 0.1677415
v -0.4636167 0.8543689 0.2873945
v -0.4165938 0.8543689 0.3521159
vn 0.6754615 0.5503769 -0.4907515
f 760/1/254 761/1/254 762/1/254
v -0.3149934 0.7961165 0.4266269
v -0.4165938 0.8252427 0.3521159
v -0.3149934 0.7669903 0.4266269
vn -0.5913846 0.0000000 0.8063896
f 763/1/255 764/1/255 765/1/255
v -0.3149934 0.7961165 0.4266269
v -0.4165938 0.8543689 0.3521159
v -0.4165938 0.8252427 0.3521159
vn -0.5913846 0.0000000 0.8063896
f 766/1/256 767/1/256 768/1/256
v -0.4165938 0.8252427 0.3521159
v -0.5307885 0.9126214 0.2929353
v -0.4636167 0.8252427 0.2873945
vn -0.6754615 -0.5503769 0.4907515
f 769/1/257 770/1/257 771/1/257
v -0.4165938 0.8252427 0.3521159
v -0.4426207 0.9126214 0.4142879
v -0.5307885 0.9126214 0.2929353
vn -0.6754615 -0.5503769 0.4907515
f 772/1/258 773/1/258 774/1/258
v -0.4636167 0.8252427 0.2873945
v -0.5307885 0.9417476 0.2929353
v -0.4636167 0.8543689 0.2873945
vn -0.0822082 0.0000000 -0.9966152
f 775/1/259 776/1/259 777/1/259
v -0.4636167 0.8252427 0.2873945
v -0.5307885 0.9126214 0.2929353
v -0.5307885 0.9417476 0.2929353
vn -0.0822082 0.0000000 -0.9966152
f 778/1/260 779/1/260 780/1/260
v -0.4636167 0.8543689 0.2873945
v -0.4426207 0.9417476 0.4142879
v -0.4165938 0.8543689 0.3521159
vn 0.6754615 0.5503769 -0.4907515
f 781/1/261 782/1/261 783/1/261
v -0.4636167 0.8543689 0.2873945
v -0.5307885 0.9417476 0.2929353
v -0.4426207 0.9417476 0.4142879
vn 0.6754615 0.5503769 -0.4907515
f 784/1/262 785/1/262 786/1/262
v -0.4165938 0.8543689 0.3521159
v -0.4426207 0.9126214 0.4142879
v -0.4165938 0.8252427 0.3521159
vn 0.9224336 0.0000000 0.3861557
f 787/1/263 788/1/263 789/1/263
v -0.4165938 0.8543689 0.3521159
v -0.4426207 0.9417476 0.4142879
v -0.4426207 0.9126214 0.4142879
vn 0.9224336 0.0000000 0.3861557
f 790/1/264 791/1/264 792/1/264
v -0.4426207 0.9126214 0.4142879
v -0.5236487 0.9708738 0.3680924
v -0.5307885 0.9126214 0.2929353
vn -0.6754615 -0.5503769 0.4907515
f 793/1/265 794/1/265 795/1/265
v -0.4426207 0.9126214 0.4142879
v -0.5118930 0.9708738 0.3842727
v -0.5236487 0.9708738 0.3680924
vn -0.6754615 -0.5503769 0.4907515
f 796/1/266 797/1/266 798/1/266
v -0.5307885 0.9126214 0.2929353
v -0.5236487 1.0000000 0.3680924
v -0.5307885 0.9417476 0.2929353
vn -0.9955180 0.0000000 0.0945725
f 799/1/267 800/1/267 801/1/267
v -0.5307885 0.9126214 0.2929353
v -0.5236487 0.9708738 0.3680924
v -0.5236487 1.0000000 0.3680924
vn -0.9955180 0.0000000 0.0945725
f 802/1/268 803/1/268 804/1/268
v -0.5307885 0.9417476 0.2929353
v -0.5118930 1.0000000 0.3842727
v -0.4426207 0.9417476 0.4142879
vn 0.6754615 0.5503769 -0.4907515
f 805/1/269 806/1/269 807/1/269
v -0.5307885 0.9417476 0.2929353
v -0.5236487 1.0000000 0.3680924
v -0.5118930 1.0000000 0.3842727
vn 0.6754615 0.5503769 -0.4907515
f 808/1/270 809/1/270 810/1/270
v -0.4426207 0.9417476 0.4142879
v -0.5118930 0.9708738 0.3842727
v -0.4426207 0.9126214 0.4142879
vn -0.3975757 0.0000000 0.9175694
f 811/1/271 812/1/271 813/1/271
v -0.4426207 0.9417476 0.4142879
v -0.5118930 1.0000000 0.3842727
v -0.5118930 0.9708738 0.3842727
vn -0.3975757 0.0000000 0.9175694
f 814/1/272 815/1/272 816/1/272
v 0.0146946 0.0291262 0.0202254
v -0.0146946 0.0000000 -0.0202254
v -0.0146946 0.0291262 -0.0202254
vn 0.8090170 0.0000000 -0.5877853
f 817/1/273 818/1/273 819/1/273
v 0.0146946 0.0291262 0.0202254
v 0.0146946 0.0000000 0.0202254
v -0.0146946 0.0000000 -0.0202254
vn 0.8090170 0.0000000 -0.5877853
f 820/1/274 821/1/274 822/1/274
v -0.5118930 0.9708738 0.3842727
v -0.5236487 1.0000000 0.3680924
v -0.5236487 0.9708738 0.3680924
vn -0.8090170 0.0000000 0.5877853
f 823/1/275 824/1/275 825/1/275
v -0.5118930 0.9708738 0.3842727
v -0.5118930 1.0000000 0.3842727
v -0.5236487 1.0000000 0.3680924
vn -0.8090170 0.0000000 0.5877853
f 826/1/276 827/1/276 828/1/276
v -0.0146946 0.0000000 0.0202254
v -0.0519154 0.1359223 -0.0809812
v 0.0146946 0.0000000 -0.0202254
vn -0.6754615 -0.5503769 -0.4907515
f 829/1/277 830/1/277 831/1/277
v -0.0146946 0.0000000 0.0202254
v -0.0930604 0.1359223 -0.0243500
v -0.0519154 0.1359223 -0.0809812
vn -0.6754615 -0.5503769 -0.4907515
f 832/1/278 833/1/278 834/1/278
v 0.0146946 0.0000000 -0.0202254
v -0.0519154 0.1650485 -0.0809812
v 0.0146946 0.0291262 -0.0202254
vn 0.6738933 0.0000000 -0.7388287
f 835/1/279 836/1/279 837/1/279
v 0.0146946 0.0000000 -0.0202254
v -0.0519154 0.1359223 -0.0809812
v -0.0519154 0.1650485 -0.0809812
vn 0.6738933 0.0000000 -0.7388287
f 838/1/280 839/1/280 840/1/280
v 0.0146946 0.0291262 -0.0202254
v -0.0930604 0.1650485 -0.0243500
v -0.0146946 0.0291262 0.0202254
vn 0.6754615 0.5503769 0.4907515
f 841/1/281 842/1/281 843/1/281
v 0.0146946 0.0291262 -0.0202254
v -0.0519154 0.1650485 -0.0809812
v -0.0930604 0.1650485 -0.0243500
vn 0.6754615 0.5503769 0.4907515
f 844/1/282 845/1/282 846/1/282
v -0.0146946 0.0291262 0.0202254
v -0.0930604 0.1359223 -0.0243500
v -0.0146946 0.0000000 0.0202254
vn -0.4944234 0.0000000 0.8692212
f 847/1/283 848/1/283 849/1/283
v -0.0146946 0.0291262 0.0202254
v -0.0930604 0.1650485 -0.0243500
v -0.0930604 0.1359223 -0.0243500
vn -0.4944234 0.0000000 0.8692212
f 850/1/284 851/1/284 852/1/284
v -0.0930604 0.1359223 -0.0243500
v 0.0109256 0.2330097 -0.2763577
v -0.0519154 0.1359223 -0.0809812
vn -0.6754615 -0.5503769 -0.4907515
f 853/1/285 854/1/285 855/1/285
v -0.0930604 0.1359223 -0.0243500
v -0.2594556 0.2330097 0.0957901
v 0.0109256 0.2330097 -0.2763577
vn -0.6754615 -0.5503769 -0.4907515
f 856/1/286 857/1/286 858/1/286
v -0.0519154 0.1359223 -0.0809812
v 0.0109256 0.2621359 -0.2763577
v -0.0519154 0.1650485 -0.0809812
vn 0.9519697 -0.0000000 0.3061921
f 859/1/287 860/1/287 861/1/287
v -0.0519154 0.1359223 -0.0809812
v 0.0109256 0.2330097 -0.2763577
v 0.0109256 0.2621359 -0.2763577
vn 0.9519697 0.0000000 0.3061921
f 862/1/288 863/1/288 864/1/288
v -0.0519154 0.1650485 -0.0809812
v -0.2594556 0.2621359 0.0957901
v -0.0930604 0.1650485 -0.0243500
vn 0.6754615 0.5503769 0.4907515
f 865/1/289 866/1/289 867/1/289
v -0.0519154 0.1650485 -0.0809812
v 0.0109256 0.2621359 -0.2763577
v -0.2594556 0.2621359 0.0957901
vn 0.6754615 0.5503769 0.4907515
f 868/1/290 869/1/290 870/1/290
v -0.0930604 0.1650485 -0.0243500
v -0.2594556 0.2330097 0.0957901
v -0.0930604 0.1359223 -0.0243500
vn 0.5853808 0.0000000 0.8107585
f 871/1/291 872/1/291 873/1/291
v -0.0930604 0.1650485 -0.0243500
v -0.2594556 0.2621359 0.0957901
v -0.2594556 0.2330097 0.0957901
vn 0.5853808 0.0000000 0.8107585
f 874/1/292 875/1/292 876/1/292
v -0.2594556 0.2330097 0.0957901
v -0.1171252 0.2912621 -0.1654409
v 0.0109256 0.2330097 -0.2763577
vn -0.6754615 -0.5503769 -0.4907515
f 877/1/293 878/1/293 879/1/293
v -0.2594556 0.2330097 0.0957901
v -0.1935373 0.2912621 -0.0602687
v -0.1171252 0.2912621 -0.1654409
vn -0.6754615 -0.5503769 -0.4907515
f 880/1/294 881/1/294 882/1/294
v 0.0109256 0.2330097 -0.2763577
v -0.1171252 0.3203883 -0.1654409
v 0.0109256 0.2621359 -0.2763577
vn -0.6547265 0.0000000 -0.7558659
f 883/1/295 884/1/295 885/1/295
v 0.0109256 0.2330097 -0.2763577
v -0.1171252 0.2912621 -0.1654409
v -0.1171252 0.3203883 -0.1654409
vn -0.6547265 0.0000000 -0.7558659
f 886/1/296 887/1/296 888/1/296
v 0.0109256 0.2621359 -0.2763577
v -0.1935373 0.3203883 -0.0602687
v -0.2594556 0.2621359 0.0957901
vn 0.6754615 0.5503769 0.4907515
f 889/1/297 890/1/297 891/1/297
v 0.0109256 0.2621359 -0.2763577
v -0.1171252 0.3203883 -0.1654409
v -0.1935373 0.3203883 -0.0602687
vn 0.6754615 0.5503769 0.4907515
f 892/1/298 893/1/298 894/1/298
v -0.2594556 0.2621359 0.0957901
v -0.1935373 0.2912621 -0.0602687
v -0.2594556 0.2330097 0.0957901
vn -0.9211928 -0.0000000 -0.3891065
f 895/1/299 896/1/299 897/1/299
v -0.2594556 0.2621359 0.0957901
v -0.1935373 0.3203883 -0.0602687
v -0.1935373 0.2912621 -0.0602687
vn -0.9211928 0.0000000 -0.3891065
f 898/1/300 899/1/300 900/1/300
v -0.1935373 0.2912621 -0.0602687
v -0.0646396 0.4077670 -0.3683411
v -0.1171252 0.2912621 -0.1654409
vn -0.6754615 -0.5503769 -0.4907515
f 901/1/301 902/1/301 903/1/301
v -0.1935373 0.2912621 -0.0602687
v -0.3702879 0.4077670 0.0523477
v -0.0646396 0.4077670 -0.3683411
vn -0.6754615 -0.5503769 -0.4907515
f 904/1/302 905/1/302 906/1/302
v -0.1171252 0.2912621 -0.1654409
v -0.0646396 0.4368932 -0.3683411
v -0.1171252 0.3203883 -0.1654409
vn 0.9681337 -0.0000000 0.2504339
f 907/1/303 908/1/303 909/1/303
v -0.1171252 0.2912621 -0.1654409
v -0.0646396 0.4077670 -0.3683411
v -0.0646396 0.4368932 -0.3683411
vn 0.9681337 0.0000000 0.2504339
f 910/1/304 911/1/304 912/1/304
v -0.1171252 0.3203883 -0.1654409
v -0.3702879 0.4368932 0.0523477
v -0.1935373 0.3203883 -0.0602687
vn 0.6754615 0.5503769 0.4907515
f 913/1/305 914/1/305 915/1/305
v -0.1171252 0.3203883 -0.1654409
v -0.0646396 0.4368932 -0.3683411
v -0.3702879 0.4368932 0.0523477
vn 0.6754615 0.5503769 0.4907515
f 916/1/306 917/1/306 918/1/306
v -0.1935373 0.3203883 -0.0602687
v -0.3702879 0.4077670 0.0523477
v -0.1935373 0.2912621 -0.0602687
vn 0.5373466 0.0000000 0.8433615
f 919/1/307 920/1/307 921/1/307
v -0.1935373 0.3203883 -0.0602687
v -0.3702879 0.4368932 0.0523477
v -0.3702879 0.4077670 0.0523477
vn 0.5373466 0.0000000 0.8433615
f 922/1/308 923/1/308 924/1/308
v -0.3702879 0.4077670 0.0523477
v -0.2103240 0.4660194 -0.2331537
v -0.0646396 0.4077670 -0.3683411
vn -0.6754615 -0.5503769 -0.4907515
f 925/1/309 926/1/309 927/1/309
v -0.3702879 0.4077670 0.0523477
v -0.2867361 0.4660194 -0.1279815
v -0.2103240 0.4660194 -0.2331537
vn -0.6754615 -0.5503769 -0.4907515
f 928/1/310 929/1/310 930/1/310
v -0.0646396 0.4077670 -0.3683411
v -0.2103240 0.4951456 -0.2331537
v -0.0646396 0.4368932 -0.3683411
vn -0.6802052 0.0000000 -0.7330217
f 931/1/311 932/1/311 933/1/311
v -0.0646396 0.4077670 -0.3683411
v -0.2103240 0.4660194 -0.2331537
v -0.2103240 0.4951456 -0.2331537
vn -0.6802052 0.0000000 -0.7330217
f 934/1/312 935/1/312 936/1/312
v -0.0646396 0.4368932 -0.3683411
v -0.2867361 0.4951456 -0.1279815
v -0.3702879 0.4368932 0.0523477
vn 0.6754615 0.5503769 0.4907515
f 937/1/313 938/1/313 939/1/313
v -0.0646396 0.4368932 -0.3683411
v -0.2103240 0.4951456 -0.2331537
v -0.2867361 0.4951456 -0.1279815
vn 0.6754615 0.5503769 0.4907515
f 940/1/314 941/1/314 942/1/314
v -0.3702879 0.4368932 0.0523477
v -0.2867361 0.4660194 -0.1279815
v -0.3702879 0.4077670 0.0523477
vn -0.9073401 -0.0000000 -0.4203974
f 943/1/315 944/1/315 945/1/315
v -0.3702879 0.4368932 0.0523477
v -0.2867361 0.4951456 -0.1279815
v -0.2867361 0.4660194 -0.1279815
vn -0.9073401 0.0000000 -0.4203974
f 946/1/316 947/1/316 948/1/316
v -0.2867361 0.4660194 -0.1279815
v -0.1865275 0.5922330 -0.4074551
v -0.2103240 0.4660194 -0.2331537
vn -0.6754615 -0.5503769 -0.4907515
f 949/1/317 950/1/317 951/1/317
v -0.2867361 0.4660194 -0.1279815
v -0.4451530 0.5922330 -0.0514876
v -0.1865275 0.5922330 -0.4074551
vn -0.6754615 -0.5503769 -0.4907515
f 952/1/318 953/1/318 954/1/318
v -0.2103240 0.4660194 -0.2331537
v -0.1865275 0.6213592 -0.4074551
v -0.2103240 0.4951456 -0.2331537
vn 0.9908087 -0.0000000 0.1352702
f 955/1/319 956/1/319 957/1/319
v -0.2103240 0.4660194 -0.2331537
v -0.1865275 0.5922330 -0.4074551
v -0.1865275 0.6213592 -0.4074551
vn 0.9908087 0.0000000 0.1352702
f 958/1/320 959/1/320 960/1/320
v -0.2103240 0.4951456 -0.2331537
v -0.4451530 0.6213592 -0.0514876
v -0.2867361 0.4951456 -0.1279815
vn 0.6754615 0.5503769 0.4907515
f 961/1/321 962/1/321 963/1/321
v -0.2103240 0.4951456 -0.2331537
v -0.1865275 0.6213592 -0.4074551
v -0.4451530 0.6213592 -0.0514876
vn 0.6754615 0.5503769 0.4907515
f 964/1/322 965/1/322 966/1/322
v -0.2867361 0.4951456 -0.1279815
v -0.4451530 0.5922330 -0.0514876
v -0.2867361 0.4660194 -0.1279815
vn 0.4348263 0.0000000 0.9005143
f 967/1/323 968/1/323 969/1/323
v -0.2867361 0.4951456 -0.1279815
v -0.4451530 0.6213592 -0.0514876
v -0.4451530 0.5922330 -0.0514876
vn 0.4348263 0.0000000 0.9005143
f 970/1/324 971/1/324 972/1/324
v -0.4451530 0.5922330 -0.0514876
v -0.3145783 0.6504854 -0.2965383
v -0.1865275 0.5922330 -0.4074551
vn -0.6754615 -0.5503769 -0.4907515
f 973/1/325 974/1/325 975/1/325
v -0.4451530 0.5922330 -0.0514876
v -0.3792347 0.6504854 -0.2075464
v -0.3145783 0.6504854 -0.2965383
vn -0.6754615 -0.5503769 -0.4907515
f 976/1/326 977/1/326 978/1/326
v -0.1865275 0.5922330 -0.4074551
v -0.3145783 0.6796117 -0.2965383
v -0.1865275 0.6213592 -0.4074551
vn -0.6547265 0.0000000 -0.7558659
f 979/1/327 980/1/327 981/1/327
v -0.1865275 0.5922330 -0.4074551
v -0.3145783 0.6504854 -0.2965383
v -0.3145783 0.6796117 -0.2965383
vn -0.6547265 0.0000000 -0.7558659
f 982/1/328 983/1/328 984/1/328
v -0.1865275 0.6213592 -0.4074551
v -0.3792347 0.6796117 -0.2075464
v -0.4451530 0.6213592 -0.0514876
vn 0.6754615 0.5503769 0.4907515
f 985/1/329 986/1/329 987/1/329
v -0.1865275 0.6213592 -0.4074551
v -0.3145783 0.6796117 -0.2965383
v -0.3792347 0.6796117 -0.2075464
vn 0.6754615 0.5503769 0.4907515
f 988/1/330 989/1/330 990/1/330
v -0.4451530 0.6213592 -0.0514876
v -0.3792347 0.6504854 -0.2075464
v -0.4451530 0.5922330 -0.0514876
vn -0.9211928 -0.0000000 -0.3891065
f 991/1/331 992/1/331 993/1/331
v -0.4451530 0.6213592 -0.0514876
v -0.3792347 0.6796117 -0.2075464
v -0.3792347 0.6504854 -0.2075464
vn -0.9211928 0.0000000 -0.3891065
f 994/1/332 995/1/332 996/1/332
v -0.3792347 0.6504854 -0.2075464
v -0.3149934 0.7669903 -0.4266269
v -0.3145783 0.6504854 -0.2965383
vn -0.6754615 -0.5503769 -0.4907515
f 997/1/333 998/1/333 999/1/333
v -0.3792347 0.6504854 -0.2075464
v -0.5030846 0.7669903 -0.1677415
v -0.3149934 0.7669903 -0.4266269
vn -0.6754615 -0.5503769 -0.4907515
f 1000/1/334 1001/1/334 1002/1/334
v -0.3145783 0.6504854 -0.2965383
v -0.3149934 0.7961165 -0.4266269
v -0.3145783 0.6796117 -0.2965383
vn 0.9999949 0.0000000 -0.0031905
f 1003/1/335 1004/1/335 1005/1/335
v -0.3145783 0.6504854 -0.2965383
v -0.3149934 0.7669903 -0.4266269
v -0.3149934 0.7961165 -0.4266269
vn 0.9999949 0.0000000 -0.0031905
f 1006/1/336 1007/1/336 1008/1/336
v -0.3145783 0.6796117 -0.2965383
v -0.5030846 0.7961165 -0.1677415
v -0.3792347 0.6796117 -0.2075464
vn 0.6754615 0.5503769 0.4907515
f 1009/1/337 1010/1/337 1011/1/337
v -0.3145783 0.6796117 -0.2965383
v -0.3149934 0.7961165 -0.4266269
v -0.5030846 0.7961165 -0.1677415
vn 0.6754615 0.5503769 0.4907515
f 1012/1/338 1013/1/338 1014/1/338
v -0.3792347 0.6796117 -0.2075464
v -0.5030846 0.7669903 -0.1677415
v -0.3792347 0.6504854 -0.2075464
vn 0.3059810 0.0000000 0.9520376
f 1015/1/339 1016/1/339 1017/1/339
v -0.3792347 0.6796117 -0.2075464
v -0.5030846 0.7961165 -0.1677415
v -0.5030846 0.7669903 -0.1677415
vn 0.3059810 0.0000000 0.9520376
f 1018/1/340 1019/1/340 1020/1/340
v -0.5030846 0.7669903 -0.1677415
v -0.4165938 0.8252427 -0.3521159
v -0.3149934 0.7669903 -0.4266269
vn -0.6754615 -0.5503769 -0.4907515
f 1021/1/341 1022/1/341 1023/1/341
v -0.5030846 0.7669903 -0.1677415
v -0.4636167 0.8252427 -0.2873945
v -0.4165938 0.8252427 -0.3521159
vn -0.6754615 -0.5503769 -0.4907515
f 1024/1/342 1025/1/342 1026/1/342
v -0.3149934 0.7669903 -0.4266269
v -0.4165938 0.8543689 -0.3521159
v -0.3149934 0.7961165 -0.4266269
vn -0.5913846 0.0000000 -0.8063896
f 1027/1/343 1028/1/343 1029/1/343
v -0.3149934 0.7669903 -0.4266269
v -0.4165938 0.8252427 -0.3521159
v -0.4165938 0.8543689 -0.3521159
vn -0.5913846 0.0000000 -0.8063896
f 1030/1/344 1031/1/344 1032/1/344
v -0.3149934 0.7961165 -0.4266269
v -0.4636167 0.8543689 -0.2873945
v -0.5030846 0.7961165 -0.1677415
vn 0.6754615 0.5503769 0.4907515
f 1033/1/345 1034/1/345 1035/1/345
v -0.3149934 0.7961165 -0.4266269
v -0.4165938 0.8543689 -0.3521159
v -0.4636167 0.8543689 -0.2873945
vn 0.6754615 0.5503769 0.4907515
f 1036/1/346 1037/1/346 1038/1/346
v -0.5030846 0.7961165 -0.1677415
v -0.4636167 0.8252427 -0.2873945
v -0.5030846 0.7669903 -0.1677415
vn -0.9496700 -0.0000000 -0.3132521
f 1039/1/347 1040/1/347 1041/1/347
v -0.5030846 0.7961165 -0.1677415
v -0.4636167 0.8543689 -0.2873945
v -0.4636167 0.8252427 -0.2873945
vn -0.9496700 0.0000000 -0.3132521
f 1042/1/348 1043/1/348 1044/1/348
v -0.4636167 0.8252427 -0.2873945
v -0.4426207 0.9126214 -0.4142879
v -0.4165938 0.8252427 -0.3521159
vn -0.6754615 -0.5503769 -0.4907515
f 1045/1/349 1046/1/349 1047/1/349
v -0.4636167 0.8252427 -0.2873945
v -0.5307885 0.9126214 -0.2929353
v -0.4426207 0.9126214 -0.4142879
vn -0.6754615 -0.5503769 -0.4907515
f 1048/1/350 1049/1/350 1050/1/350
v -0.4165938 0.8252427 -0.3521159
v -0.4426207 0.9417476 -0.4142879
v -0.4165938 0.8543689 -0.3521159
vn 0.9224336 0.0000000 -0.3861557
f 1051/1/351 1052/1/351 1053/1/351
v -0.4165938 0.8252427 -0.3521159
v -0.4426207 0.9126214 -0.4142879
v -0.4426207 0.9417476 -0.4142879
vn 0.9224336 0.0000000 -0.3861557
f 1054/1/352 1055/1/352 1056/1/352
v -0.4165938 0.8543689 -0.3521159
v -0.5307885 0.9417476 -0.2929353
v -0.4636167 0.8543689 -0.2873945
vn 0.6754615 0.5503769 0.4907515
f 1057/1/353 1058/1/353 1059/1/353
v -0.4165938 0.8543689 -0.3521159
v -0.4426207 0.9417476 -0.4142879
v -0.5307885 0.9417476 -0.2929353
vn 0.6754615 0.5503769 0.4907515
f 1060/1/354 1061/1/354 1062/1/354
v -0.4636167 0.8543689 -0.2873945
v -0.5307885 0.9126214 -0.2929353
v -0.4636167 0.8252427 -0.2873945
vn -0.0822082 0.0000000 0.9966152
f 1063/1/355 1064/1/355 1065/1/355
v -0.4636167 0.8543689 -0.2873945
v -0.5307885 0.9417476 -0.2929353
v -0.5307885 0.9126214 -0.2929353
vn -0.0822082 0.0000000 0.9966152
f 1066/1/356 1067/1/356 1068/1/356
v -0.5307885 0.9126214 -0.2929353
v -0.5118930 0.9708738 -0.3842727
v -0.4426207 0.9126214 -0.4142879
vn -0.6754615 -0.5503769 -0.4907515
f 1069/1/357 1070/1/357 1071/1/357
v -0.5307885 0.9126214 -0.2929353
v -0.5236487 0.9708738 -0.3680924
v -0.5118930 0.9708738 -0.3842727
vn -0.6754615 -0.5503769 -0.4907515
f 1072/1/358 1073/1/358 1074/1/358
v -0.4426207 0.9126214 -0.4142879
v -0.5118930 1.0000000 -0.3842727
v -0.4426207 0.9417476 -0.4142879
vn -0.3975757 0.0000000 -0.9175694
f 1075/1/359 1076/1/359 1077/1/359
v -0.4426207 0.9126214 -0.4142879
v -0.5118930 0.9708738 -0.3842727
v -0.5118930 1.0000000 -0.3842727
vn -0.3975757 0.0000000 -0.9175694
f 1078/1/360 1079/1/360 1080/1/360
v -0.4426207 0.9417476 -0.4142879
v -0.5236487 1.0000000 -0.3680924
v -0.5307885 0.9417476 -0.2929353
vn 0.6754615 0.5503769 0.4907515
f 1081/1/361 1082/1/361 1083/1/361
v -0.4426207 0.9417476 -0.4142879
v -0.5118930 1.0000000 -0.3842727
v -0.5236487 1.0000000 -0.3680924
vn 0.6754615 0.5503769 0.4907515
f 1084/1/362 1085/1/362 1086/1/362
v -0.5307885 0.9417476 -0.2929353
v -0.5236487 0.9708738 -0.3680924
v -0.5307885 0.9126214 -0.2929353
vn -0.9955180 -0.0000000 -0.0945725
f 1087/1/363 1088/1/363 1089/1/363
v -0.5307885 0.9417476 -0.2929353
v -0.5236487 1.0000000 -0.3680924
v -0.5236487 0.9708738 -0.3680924
vn -0.9955180 0.0000000 -0.0945725
f 1090/1/364 1091/1/364 1092/1/364
v -0.0146946 0.0291262 0.0202254
v 0.0146946 0.0000000 -0.0202254
v 0.0146946 0.0291262 -0.0202254
vn 0.8090170 0.0000000 0.5877853
f 1093/1/365 1094/1/365 1095/1/365
v -0.0146946 0.0291262 0.0202254
v -0.0146946 0.0000000 0.0202254
v 0.0146946 0.0000000 -0.0202254
vn 0.8090170 0.0000000 0.5877853
f 1096/1/366 1097/1/366 1098/1/366
v -0.5236487 0.9708738 -0.3680924
v -0.5118930 1.0000000 -0.3842727
v -0.5118930 0.9708738 -0.3842727
vn -0.8090170 0.0000000 -0.5877853
f 1099/1/367 1100/1/367 1101/1/367
v -0.5236487 0.9708738 -0.3680924
v -0.5236487 1.0000000 -0.3680924
v -0.5118930 1.0000000 -0.3842727
vn -0.8090170 0.0000000 -0.5877853
f 1102/1/368 1103/1/368 1104/1/368
v -0.0237764 0.0000000 -0.0077254
v 0.0609749 0.1359223 -0.0743991
v 0.0237764 0.0000000 0.0077254
vn 0.2580033 -0.5503769 -0.7940526
f 1105/1/369 1106/1/369 1107/1/369
v -0.0237764 0.0000000 -0.0077254
v -0.0055991 0.1359223 -0.0960303
v 0.0609749 0.1359223 -0.0743991
vn 0.2580033 -0.5503769 -0.7940526
f 1108/1/370 1109/1/370 1110/1/370
v 0.0237764 0.0000000 0.0077254
v 0.0609749 0.1650485 -0.0743991
v 0.0237764 0.0291262 0.0077254
vn 0.9109123 -0.0000000 0.4125999
f 1111/1/371 1112/1/371 1113/1/371
v 0.0237764 0.0000000 0.0077254
v 0.0609749 0.1359223 -0.0743991
v 0.0609749 0.1650485 -0.0743991
vn 0.9109123 0.0000000 0.4125999
f 1114/1/372 1115/1/372 1116/1/372
v 0.0237764 0.0291262 0.0077254
v -0.0055991 0.1650485 -0.0960303
v -0.0237764 0.0291262 -0.0077254
vn -0.2580033 0.5503769 0.7940526
f 1117/1/373 1118/1/373 1119/1/373
v 0.0237764 0.0291262 0.0077254
v 0.0609749 0.1650485 -0.0743991
v -0.0055991 0.1650485 -0.0960303
vn -0.2580033 0.5503769 0.7940526
f 1120/1/374 1121/1/374 1122/1/374
v -0.0237764 0.0291262 -0.0077254
v -0.0055991 0.1359223 -0.0960303
v -0.0237764 0.0000000 -0.0077254
vn -0.9794637 -0.0000000 -0.2016205
f 1123/1/375 1124/1/375 1125/1/375
v -0.0237764 0.0291262 -0.0077254
v -0.0055991 0.1650485 -0.0960303
v -0.0055991 0.1359223 -0.0960303
vn -0.9794637 0.0000000 -0.2016205
f 1126/1/376 1127/1/376 1128/1/376
v -0.0055991 0.1359223 -0.0960303
v 0.2662080 0.2330097 -0.0750084
v 0.0609749 0.1359223 -0.0743991
vn 0.2580033 -0.5503769 -0.7940526
f 1129/1/377 1130/1/377 1131/1/377
v -0.0055991 0.1359223 -0.0960303
v -0.1712780 0.2330097 -0.2171562
v 0.2662080 0.2330097 -0.0750084
vn 0.2580033 -0.5503769 -0.7940526
f 1132/1/378 1133/1/378 1134/1/378
v 0.0609749 0.1359223 -0.0743991
v 0.2662080 0.2621359 -0.0750084
v 0.0609749 0.1650485 -0.0743991
vn 0.0029688 -0.0000000 0.9999956
f 1135/1/379 1136/1/379 1137/1/379
v 0.0609749 0.1359223 -0.0743991
v 0.2662080 0.2330097 -0.0750084
v 0.2662080 0.2621359 -0.0750084
vn 0.0029688 0.0000000 0.9999956
f 1138/1/380 1139/1/380 1140/1/380
v 0.0609749 0.1650485 -0.0743991
v -0.1712780 0.2621359 -0.2171562
v -0.0055991 0.1650485 -0.0960303
vn -0.2580033 0.5503769 0.7940526
f 1141/1/381 1142/1/381 1143/1/381
v 0.0609749 0.1650485 -0.0743991
v 0.2662080 0.2621359 -0.0750084
v -0.1712780 0.2621359 -0.2171562
vn -0.2580033 0.5503769 0.7940526
f 1144/1/382 1145/1/382 1146/1/382
v -0.0055991 0.1650485 -0.0960303
v -0.1712780 0.2330097 -0.2171562
v -0.0055991 0.1359223 -0.0960303
vn -0.5901845 0.0000000 0.8072684
f 1147/1/383 1148/1/383 1149/1/383
v -0.0055991 0.1650485 -0.0960303
v -0.1712780 0.2621359 -0.2171562
v -0.1712780 0.2330097 -0.2171562
vn -0.5901845 0.0000000 0.8072684
f 1150/1/384 1151/1/384 1152/1/384
v -0.1712780 0.2330097 -0.2171562
v 0.1211499 0.2912621 -0.1625167
v 0.2662080 0.2330097 -0.0750084
vn 0.2580033 -0.5503769 -0.7940526
f 1153/1/385 1154/1/385 1155/1/385
v -0.1712780 0.2330097 -0.2171562
v -0.0024874 0.2912621 -0.2026890
v 0.1211499 0.2912621 -0.1625167
vn 0.2580033 -0.5503769 -0.7940526
f 1156/1/386 1157/1/386 1158/1/386
v 0.2662080 0.2330097 -0.0750084
v 0.1211499 0.3203883 -0.1625167
v 0.2662080 0.2621359 -0.0750084
vn 0.5165496 0.0000000 -0.8562573
f 1159/1/387 1160/1/387 1161/1/387
v 0.2662080 0.2330097 -0.0750084
v 0.1211499 0.2912621 -0.1625167
v 0.1211499 0.3203883 -0.1625167
vn 0.5165496 0.0000000 -0.8562573
f 1162/1/388 1163/1/388 1164/1/388
v 0.2662080 0.2621359 -0.0750084
v -0.0024874 0.3203883 -0.2026890
v -0.1712780 0.2621359 -0.2171562
vn -0.2580033 0.5503769 0.7940526
f 1165/1/389 1166/1/389 1167/1/389
v 0.2662080 0.2621359 -0.0750084
v 0.1211499 0.3203883 -0.1625167
v -0.0024874 0.3203883 -0.2026890
vn -0.2580033 0.5503769 0.7940526
f 1168/1/390 1169/1/390 1170/1/390
v -0.1712780 0.2621359 -0.2171562
v -0.0024874 0.2912621 -0.2026890
v -0.1712780 0.2330097 -0.2171562
vn 0.0853980 0.0000000 -0.9963469
f 1171/1/391 1172/1/391 1173/1/391
v -0.1712780 0.2621359 -0.2171562
v -0.0024874 0.3203883 -0.2026890
v -0.0024874 0.2912621 -0.2026890
vn 0.0853980 0.0000000 -0.9963469
f 1174/1/392 1175/1/392 1176/1/392
v -0.0024874 0.2912621 -0.2026890
v 0.3303385 0.4077670 -0.1752996
v 0.1211499 0.2912621 -0.1625167
vn 0.2580033 -0.5503769 -0.7940526
f 1177/1/393 1178/1/393 1179/1/393
v -0.0024874 0.2912621 -0.2026890
v -0.1642109 0.4077670 -0.3359884
v 0.3303385 0.4077670 -0.1752996
vn 0.2580033 -0.5503769 -0.7940526
f 1180/1/394 1181/1/394 1182/1/394
v 0.1211499 0.2912621 -0.1625167
v 0.3303385 0.4368932 -0.1752996
v 0.1211499 0.3203883 -0.1625167
vn 0.0609930 -0.0000000 0.9981382
f 1183/1/395 1184/1/395 1185/1/395
v 0.1211499 0.2912621 -0.1625167
v 0.3303385 0.4077670 -0.1752996
v 0.3303385 0.4368932 -0.1752996
vn 0.0609930 0.0000000 0.9981382
f 1186/1/396 1187/1/396 1188/1/396
v 0.1211499 0.3203883 -0.1625167
v -0.1642109 0.4368932 -0.3359884
v -0.0024874 0.3203883 -0.2026890
vn -0.2580033 0.5503769 0.7940526
f 1189/1/397 1190/1/397 1191/1/397
v 0.1211499 0.3203883 -0.1625167
v 0.3303385 0.4368932 -0.1752996
v -0.1642109 0.4368932 -0.3359884
vn -0.2580033 0.5503769 0.7940526
f 1192/1/398 1193/1/398 1194/1/398
v -0.0024874 0.3203883 -0.2026890
v -0.1642109 0.4077670 -0.3359884
v -0.0024874 0.2912621 -0.2026890
vn -0.6360353 0.0000000 0.7716600
f 1195/1/399 1196/1/399 1197/1/399
v -0.0024874 0.3203883 -0.2026890
v -0.1642109 0.4368932 -0.3359884
v -0.1642109 0.4077670 -0.3359884
vn -0.6360353 0.0000000 0.7716600
f 1198/1/400 1199/1/400 1200/1/400
v -0.1642109 0.4077670 -0.3359884
v 0.1567487 0.4660194 -0.2720785
v 0.3303385 0.4077670 -0.1752996
vn 0.2580033 -0.5503769 -0.7940526
f 1201/1/401 1202/1/401 1203/1/401
v -0.1642109 0.4077670 -0.3359884
v 0.0331113 0.4660194 -0.3122507
v 0.1567487 0.4660194 -0.2720785
vn 0.2580033 -0.5503769 -0.7940526
f 1204/1/402 1205/1/402 1206/1/402
v 0.3303385 0.4077670 -0.1752996
v 0.1567487 0.4951456 -0.2720785
v 0.3303385 0.4368932 -0.1752996
vn 0.4869501 0.0000000 -0.8734298
f 1207/1/403 1208/1/403 1209/1/403
v 0.3303385 0.4077670 -0.1752996
v 0.1567487 0.4660194 -0.2720785
v 0.1567487 0.4951456 -0.2720785
vn 0.4869501 0.0000000 -0.8734298
f 1210/1/404 1211/1/404 1212/1/404
v 0.3303385 0.4368932 -0.1752996
v 0.0331113 0.4951456 -0.3122507
v -0.1642109 0.4368932 -0.3359884
vn -0.2580033 0.5503769 0.7940526
f 1213/1/405 1214/1/405 1215/1/405
v 0.3303385 0.4368932 -0.1752996
v 0.1567487 0.4951456 -0.2720785
v 0.0331113 0.4951456 -0.3122507
vn -0.2580033 0.5503769 0.7940526
f 1216/1/406 1217/1/406 1218/1/406
v -0.1642109 0.4368932 -0.3359884
v 0.0331113 0.4660194 -0.3122507
v -0.1642109 0.4077670 -0.3359884
vn 0.1194382 0.0000000 -0.9928416
f 1219/1/407 1220/1/407 1221/1/407
v -0.1642109 0.4368932 -0.3359884
v 0.0331113 0.4951456 -0.3122507
v 0.0331113 0.4660194 -0.3122507
vn 0.1194382 0.0000000 -0.9928416
f 1222/1/408 1223/1/408 1224/1/408
v 0.0331113 0.4660194 -0.3122507
v 0.3298727 0.5922330 -0.3033087
v 0.1567487 0.4660194 -0.2720785
vn 0.2580033 -0.5503769 -0.7940526
f 1225/1/409 1226/1/409 1227/1/409
v 0.0331113 0.4660194 -0.3122507
v -0.0885922 0.5922330 -0.4392762
v 0.3298727 0.5922330 -0.3033087
vn 0.2580033 -0.5503769 -0.7940526
f 1228/1/410 1229/1/410 1230/1/410
v 0.1567487 0.4660194 -0.2720785
v 0.3298727 0.6213592 -0.3033087
v 0.1567487 0.4951456 -0.2720785
vn 0.1775271 -0.0000000 0.9841159
f 1231/1/411 1232/1/411 1233/1/411
v 0.1567487 0.4660194 -0.2720785
v 0.3298727 0.5922330 -0.3033087
v 0.3298727 0.6213592 -0.3033087
vn 0.1775271 0.0000000 0.9841159
f 1234/1/412 1235/1/412 1236/1/412
v 0.1567487 0.4951456 -0.2720785
v -0.0885922 0.6213592 -0.4392762
v 0.0331113 0.4951456 -0.3122507
vn -0.2580033 0.5503769 0.7940526
f 1237/1/413 1238/1/413 1239/1/413
v 0.1567487 0.4951456 -0.2720785
v 0.3298727 0.6213592 -0.3033087
v -0.0885922 0.6213592 -0.4392762
vn -0.2580033 0.5503769 0.7940526
f 1240/1/414 1241/1/414 1242/1/414
v 0.0331113 0.4951456 -0.3122507
v -0.0885922 0.5922330 -0.4392762
v 0.0331113 0.4660194 -0.3122507
vn -0.7220713 0.0000000 0.6918187
f 1243/1/415 1244/1/415 1245/1/415
v 0.0331113 0.4951456 -0.3122507
v -0.0885922 0.6213592 -0.4392762
v -0.0885922 0.5922330 -0.4392762
vn -0.7220713 0.0000000 0.6918187
f 1246/1/416 1247/1/416 1248/1/416
v -0.0885922 0.5922330 -0.4392762
v 0.1848146 0.6504854 -0.3908171
v 0.3298727 0.5922330 -0.3033087
vn 0.2580033 -0.5503769 -0.7940526
f 1249/1/417 1250/1/417 1251/1/417
v -0.0885922 0.5922330 -0.4392762
v 0.0801984 0.6504854 -0.4248090
v 0.1848146 0.6504854 -0.3908171
vn 0.2580033 -0.5503769 -0.7940526
f 1252/1/418 1253/1/418 1254/1/418
v 0.3298727 0.5922330 -0.3033087
v 0.1848146 0.6796117 -0.3908171
v 0.3298727 0.6213592 -0.3033087
vn 0.5165496 0.0000000 -0.8562573
f 1255/1/419 1256/1/419 1257/1/419
v 0.3298727 0.5922330 -0.3033087
v 0.1848146 0.6504854 -0.3908171
v 0.1848146 0.6796117 -0.3908171
vn 0.5165496 0.0000000 -0.8562573
f 1258/1/420 1259/1/420 1260/1/420
v 0.3298727 0.6213592 -0.3033087
v 0.0801984 0.6796117 -0.4248090
v -0.0885922 0.6213592 -0.4392762
vn -0.2580033 0.5503769 0.7940526
f 1261/1/421 1262/1/421 1263/1/421
v 0.3298727 0.6213592 -0.3033087
v 0.1848146 0.6796117 -0.3908171
v 0.0801984 0.6796117 -0.4248090
vn -0.2580033 0.5503769 0.7940526
f 1264/1/422 1265/1/422 1266/1/422
v -0.0885922 0.6213592 -0.4392762
v 0.0801984 0.6504854 -0.4248090
v -0.0885922 0.5922330 -0.4392762
vn 0.0853980 0.0000000 -0.9963469
f 1267/1/423 1268/1/423 1269/1/423
v -0.0885922 0.6213592 -0.4392762
v 0.0801984 0.6796117 -0.4248090
v 0.0801984 0.6504854 -0.4248090
vn 0.0853980 0.0000000 -0.9963469
f 1270/1/424 1271/1/424 1272/1/424
v 0.0801984 0.6504854 -0.4248090
v 0.3084080 0.7669903 -0.4314115
v 0.1848146 0.6504854 -0.3908171
vn 0.2580033 -0.5503769 -0.7940526
f 1273/1/425 1274/1/425 1275/1/425
v 0.0801984 0.6504854 -0.4248090
v 0.0040699 0.7669903 -0.5302969
v 0.3084080 0.7669903 -0.4314115
vn 0.2580033 -0.5503769 -0.7940526
f 1276/1/426 1277/1/426 1278/1/426
v 0.1848146 0.6504854 -0.3908171
v 0.3084080 0.7961165 -0.4314115
v 0.1848146 0.6796117 -0.3908171
vn 0.3120498 -0.0000000 0.9500657
f 1279/1/427 1280/1/427 1281/1/427
v 0.1848146 0.6504854 -0.3908171
v 0.3084080 0.7669903 -0.4314115
v 0.3084080 0.7961165 -0.4314115
vn 0.3120498 0.0000000 0.9500657
f 1282/1/428 1283/1/428 1284/1/428
v 0.1848146 0.6796117 -0.3908171
v 0.0040699 0.7961165 -0.5302969
v 0.0801984 0.6796117 -0.4248090
vn -0.2580033 0.5503769 0.7940526
f 1285/1/429 1286/1/429 1287/1/429
v 0.1848146 0.6796117 -0.3908171
v 0.3084080 0.7961165 -0.4314115
v 0.0040699 0.7961165 -0.5302969
vn -0.2580033 0.5503769 0.7940526
f 1288/1/430 1289/1/430 1290/1/430
v 0.0801984 0.6796117 -0.4248090
v 0.0040699 0.7669903 -0.5302969
v 0.0801984 0.6504854 -0.4248090
vn -0.8108882 0.0000000 0.5852011
f 1291/1/431 1292/1/431 1293/1/431
v 0.0801984 0.6796117 -0.4248090
v 0.0040699 0.7961165 -0.5302969
v 0.0040699 0.7669903 -0.5302969
vn -0.8108882 0.0000000 0.5852011
f 1294/1/432 1295/1/432 1296/1/432
v 0.0040699 0.7669903 -0.5302969
v 0.2061475 0.8252427 -0.5050141
v 0.3084080 0.7669903 -0.4314115
vn 0.2580033 -0.5503769 -0.7940526
f 1297/1/433 1298/1/433 1299/1/433
v 0.0040699 0.7669903 -0.5302969
v 0.1300630 0.8252427 -0.5297354
v 0.2061475 0.8252427 -0.5050141
vn 0.2580033 -0.5503769 -0.7940526
f 1300/1/434 1301/1/434 1302/1/434
v 0.3084080 0.7669903 -0.4314115
v 0.2061475 0.8543689 -0.5050141
v 0.3084080 0.7961165 -0.4314115
vn 0.5841742 0.0000000 -0.8116283
f 1303/1/435 1304/1/435 1305/1/435
v 0.3084080 0.7669903 -0.4314115
v 0.2061475 0.8252427 -0.5050141
v 0.2061475 0.8543689 -0.5050141
vn 0.5841742 0.0000000 -0.8116283
f 1306/1/436 1307/1/436 1308/1/436
v 0.3084080 0.7961165 -0.4314115
v 0.1300630 0.8543689 -0.5297354
v 0.0040699 0.7961165 -0.5302969
vn -0.2580033 0.5503769 0.7940526
f 1309/1/437 1310/1/437 1311/1/437
v 0.3084080 0.7961165 -0.4314115
v 0.2061475 0.8543689 -0.5050141
v 0.1300630 0.8543689 -0.5297354
vn -0.2580033 0.5503769 0.7940526
f 1312/1/438 1313/1/438 1314/1/438
v 0.0040699 0.7961165 -0.5302969
v 0.1300630 0.8252427 -0.5297354
v 0.0040699 0.7669903 -0.5302969
vn 0.0044563 0.0000000 -0.9999901
f 1315/1/439 1316/1/439 1317/1/439
v 0.0040699 0.7961165 -0.5302969
v 0.1300630 0.8543689 -0.5297354
v 0.1300630 0.8252427 -0.5297354
vn 0.0044563 0.0000000 -0.9999901
f 1318/1/440 1319/1/440 1320/1/440
v 0.1300630 0.8252427 -0.5297354
v 0.2572339 0.9126214 -0.5489793
v 0.2061475 0.8252427 -0.5050141
vn 0.2580033 -0.5503769 -0.7940526
f 1321/1/441 1322/1/441 1323/1/441
v 0.1300630 0.8252427 -0.5297354
v 0.1145754 0.9126214 -0.5953319
v 0.2572339 0.9126214 -0.5489793
vn 0.2580033 -0.5503769 -0.7940526
f 1324/1/442 1325/1/442 1326/1/442
v 0.2061475 0.8252427 -0.5050141
v 0.2572339 0.9417476 -0.5489793
v 0.2061475 0.8543689 -0.5050141
vn 0.6523036 -0.0000000 0.7579578
f 1327/1/443 1328/1/443 1329/1/443
v 0.2061475 0.8252427 -0.5050141
v 0.2572339 0.9126214 -0.5489793
v 0.2572339 0.9417476 -0.5489793
vn 0.6523036 0.0000000 0.7579578
f 1330/1/444 1331/1/444 1332/1/444
v 0.2061475 0.8543689 -0.5050141
v 0.1145754 0.9417476 -0.5953319
v 0.1300630 0.8543689 -0.5297354
vn -0.2580033 0.5503769 0.7940526
f 1333/1/445 1334/1/445 1335/1/445
v 0.2061475 0.8543689 -0.5050141
v 0.2572339 0.9417476 -0.5489793
v 0.1145754 0.9417476 -0.5953319
vn -0.2580033 0.5503769 0.7940526
f 1336/1/446 1337/1/446 1338/1/446
v 0.1300630 0.8543689 -0.5297354
v 0.1145754 0.9126214 -0.5953319
v 0.1300630 0.8252427 -0.5297354
vn -0.9732411 0.0000000 0.2297863
f 1339/1/447 1340/1/447 1341/1/447
v 0.1300630 0.8543689 -0.5297354
v 0.1145754 0.9417476 -0.5953319
v 0.1145754 0.9126214 -0.5953319
vn -0.9732411 0.0000000 0.2297863
f 1342/1/448 1343/1/448 1344/1/448
v 0.1145754 0.9126214 -0.5953319
v 0.2072814 0.9708738 -0.6055860
v 0.2572339 0.9126214 -0.5489793
vn 0.2580033 -0.5503769 -0.7940526
f 1345/1/449 1346/1/449 1347/1/449
v 0.1145754 0.9126214 -0.5953319
v 0.1882603 0.9708738 -0.6117663
v 0.2072814 0.9708738 -0.6055860
vn 0.2580033 -0.5503769 -0.7940526
f 1348/1/450 1349/1/450 1350/1/450
v 0.2572339 0.9126214 -0.5489793
v 0.2072814 1.0000000 -0.6055860
v 0.2572339 0.9417476 -0.5489793
vn 0.7498027 0.0000000 -0.6616615
f 1351/1/451 1352/1/451 1353/1/451
v 0.2572339 0.9126214 -0.5489793
v 0.2072814 0.9708738 -0.6055860
v 0.2072814 1.0000000 -0.6055860
vn 0.7498027 0.0000000 -0.6616615
f 1354/1/452 1355/1/452 1356/1/452
v 0.2572339 0.9417476 -0.5489793
v 0.1882603 1.0000000 -0.6117663
v 0.1145754 0.9417476 -0.5953319
vn -0.2580033 0.5503769 0.7940526
f 1357/1/453 1358/1/453 1359/1/453
v 0.2572339 0.9417476 -0.5489793
v 0.2072814 1.0000000 -0.6055860
v 0.1882603 1.0000000 -0.6117663
vn -0.2580033 0.5503769 0.7940526
f 1360/1/454 1361/1/454 1362/1/454
v 0.1145754 0.9417476 -0.5953319
v 0.1882603 0.9708738 -0.6117663
v 0.1145754 0.9126214 -0.5953319
vn -0.2176882 -0.0000000 -0.9760184
f 1363/1/455 1364/1/455 1365/1/455
v 0.1145754 0.9417476 -0.5953319
v 0.1882603 1.0000000 -0.6117663
v 0.1882603 0.9708738 -0.6117663
vn -0.2176882 0.0000000 -0.9760184
f 1366/1/456 1367/1/456 1368/1/456
v -0.0237764 0.0291262 -0.0077254
v 0.0237764 0.0000000 0.0077254
v 0.0237764 0.0291262 0.0077254
vn -0.3090170 0.0000000 0.9510565
f 1369/1/457 1370/1/457 1371/1/457
v -0.0237764 0.0291262 -0.0077254
v -0.0237764 0.0000000 -0.0077254
v 0.0237764 0.0000000 0.0077254
vn -0.3090170 0.0000000 0.9510565
f 1372/1/458 1373/1/458 1374/1/458
v 0.1882603 0.9708738 -0.6117663
v 0.2072814 1.0000000 -0.6055860
v 0.2072814 0.9708738 -0.6055860
vn 0.3090170 0.0000000 -0.9510565
f 1375/1/459 1376/1/459 1377/1/459
v 0.1882603 0.9708738 -0.6117663
v 0.1882603 1.0000000 -0.6117663
v 0.2072814 1.0000000 -0.6055860
vn 0.3090170 0.0000000 -0.9510565
f 1378/1/460 1379/1/460 1380/1/460
