# Blender 4.4.1
# www.blender.org
mtllib Time.mtl
o テキスト
v 1.068861 0.130000 0.000000
v 1.055880 0.121795 0.000000
v 1.042926 0.114194 0.000000
v 1.029986 0.107219 0.000000
v 1.017047 0.100889 0.000000
v 1.004093 0.095226 0.000000
v 0.991111 0.090250 0.000000
v 0.978088 0.085983 0.000000
v 0.965010 0.082444 0.000000
v 0.951861 0.079656 0.000000
v 0.938630 0.077639 0.000000
v 0.925301 0.076413 0.000000
v 0.911861 0.076000 0.000000
v 0.891092 0.076957 0.000000
v 0.871787 0.079819 0.000000
v 0.853955 0.084578 0.000000
v 0.837602 0.091222 0.000000
v 0.822735 0.099741 0.000000
v 0.809361 0.110125 0.000000
v 0.797487 0.122363 0.000000
v 0.787121 0.136444 0.000000
v 0.778268 0.152359 0.000000
v 0.770935 0.170097 0.000000
v 0.765131 0.189648 0.000000
v 0.760861 0.211000 0.000000
v 1.076862 0.211000 0.000000
v 1.075297 0.250731 0.000000
v 1.070681 0.286935 0.000000
v 1.063127 0.319625 0.000000
v 1.052750 0.348815 0.000000
v 1.039665 0.374519 0.000000
v 1.023986 0.396750 0.000000
v 1.005828 0.415523 0.000000
v 0.985306 0.430852 0.000000
v 0.962533 0.442750 0.000000
v 0.937625 0.451232 0.000000
v 0.910697 0.456310 0.000000
v 0.881861 0.458000 0.000000
v 0.851681 0.456111 0.000000
v 0.823250 0.450556 0.000000
v 0.796736 0.441500 0.000000
v 0.772306 0.429111 0.000000
v 0.750125 0.413556 0.000000
v 0.730361 0.395000 0.000000
v 0.713181 0.373611 0.000000
v 0.698750 0.349556 0.000000
v 0.687236 0.323000 0.000000
v 0.678806 0.294111 0.000000
v 0.673625 0.263056 0.000000
v 0.671861 0.230000 0.000000
v 0.673477 0.199249 0.000000
v 0.678287 0.169241 0.000000
v 0.686237 0.140344 0.000000
v 0.697269 0.112926 0.000000
v 0.711329 0.087355 0.000000
v 0.728361 0.064000 0.000000
v 0.748311 0.043228 0.000000
v 0.771121 0.025407 0.000000
v 0.796737 0.010906 0.000000
v 0.825102 0.000093 0.000000
v 0.856163 -0.006665 -0.000000
v 0.889861 -0.009000 -0.000000
v 0.908317 -0.008645 -0.000000
v 0.925760 -0.007574 -0.000000
v 0.942299 -0.005781 -0.000000
v 0.958047 -0.003259 -0.000000
v 0.973114 -0.000001 -0.000000
v 0.987611 0.004000 0.000000
v 1.001651 0.008751 0.000000
v 1.015343 0.014259 0.000000
v 1.028799 0.020531 0.000000
v 1.042130 0.027574 0.000000
v 1.055447 0.035395 0.000000
v 1.068861 0.044000 0.000000
v 0.762861 0.270000 0.000000
v 0.766464 0.287099 0.000000
v 0.771269 0.302875 0.000000
v 0.777268 0.317297 0.000000
v 0.784454 0.330333 0.000000
v 0.792821 0.341953 0.000000
v 0.802361 0.352125 0.000000
v 0.813069 0.360818 0.000000
v 0.824935 0.368000 0.000000
v 0.837955 0.373641 0.000000
v 0.852121 0.377708 0.000000
v 0.867425 0.380172 0.000000
v 0.883861 0.381000 0.000000
v 0.899104 0.380115 0.000000
v 0.913306 0.377500 0.000000
v 0.926424 0.373219 0.000000
v 0.938417 0.367333 0.000000
v 0.949243 0.359906 0.000000
v 0.958861 0.351000 0.000000
v 0.967229 0.340677 0.000000
v 0.974306 0.329000 0.000000
v 0.980049 0.316031 0.000000
v 0.984417 0.301833 0.000000
v 0.987368 0.286469 0.000000
v 0.988861 0.270000 0.000000
v -0.081139 0.449000 0.000000
v -0.081139 0.000000 0.000000
v 0.007861 0.000000 0.000000
v 0.007861 0.326000 0.000000
v 0.016978 0.336155 0.000000
v 0.025880 0.345153 0.000000
v 0.034643 0.353047 0.000000
v 0.043343 0.359889 0.000000
v 0.052057 0.365731 0.000000
v 0.060861 0.370625 0.000000
v 0.069832 0.374623 0.000000
v 0.079047 0.377778 0.000000
v 0.088580 0.380141 0.000000
v 0.098510 0.381764 0.000000
v 0.108911 0.382700 0.000000
v 0.119861 0.383000 0.000000
v 0.130698 0.382348 0.000000
v 0.141139 0.380366 0.000000
v 0.151080 0.377016 0.000000
v 0.160417 0.372259 0.000000
v 0.169045 0.366058 0.000000
v 0.176861 0.358375 0.000000
v 0.183761 0.349171 0.000000
v 0.189639 0.338407 0.000000
v 0.194393 0.326047 0.000000
v 0.197917 0.312051 0.000000
v 0.200108 0.296381 0.000000
v 0.200861 0.279000 0.000000
v 0.200861 0.000000 0.000000
v 0.289861 0.000000 0.000000
v 0.289861 0.326000 0.000000
v 0.297997 0.334073 0.000000
v 0.306366 0.341750 0.000000
v 0.314908 0.348969 0.000000
v 0.323565 0.355667 0.000000
v 0.332278 0.361781 0.000000
v 0.340986 0.367250 0.000000
v 0.349633 0.372010 0.000000
v 0.358158 0.376000 0.000000
v 0.366502 0.379156 0.000000
v 0.374607 0.381417 0.000000
v 0.382413 0.382719 0.000000
v 0.389861 0.383000 0.000000
v 0.402405 0.382233 0.000000
v 0.414459 0.379944 0.000000
v 0.425908 0.376156 0.000000
v 0.436639 0.370889 0.000000
v 0.446537 0.364163 0.000000
v 0.455486 0.356000 0.000000
v 0.463374 0.346420 0.000000
v 0.470084 0.335444 0.000000
v 0.475502 0.323094 0.000000
v 0.479514 0.309389 0.000000
v 0.482005 0.294351 0.000000
v 0.482861 0.278000 0.000000
v 0.482861 0.000000 0.000000
v 0.571861 0.000000 0.000000
v 0.571861 0.282000 0.000000
v 0.570668 0.307730 0.000000
v 0.567144 0.331843 0.000000
v 0.561377 0.354219 0.000000
v 0.553454 0.374741 0.000000
v 0.543462 0.393291 0.000000
v 0.531487 0.409750 0.000000
v 0.517616 0.424001 0.000000
v 0.501936 0.435926 0.000000
v 0.484533 0.445406 0.000000
v 0.465496 0.452324 0.000000
v 0.444910 0.456561 0.000000
v 0.422861 0.458000 0.000000
v 0.407210 0.457247 0.000000
v 0.392236 0.455056 0.000000
v 0.377908 0.451531 0.000000
v 0.364195 0.446778 0.000000
v 0.351064 0.440899 0.000000
v 0.338486 0.434000 0.000000
v 0.326429 0.426184 0.000000
v 0.314861 0.417556 0.000000
v 0.303752 0.408219 0.000000
v 0.293070 0.398278 0.000000
v 0.282783 0.387837 0.000000
v 0.272861 0.377000 0.000000
v 0.265011 0.389727 0.000000
v 0.256477 0.401403 0.000000
v 0.247283 0.412016 0.000000
v 0.237454 0.421556 0.000000
v 0.227014 0.430012 0.000000
v 0.215986 0.437375 0.000000
v 0.204397 0.443634 0.000000
v 0.192269 0.448778 0.000000
v 0.179627 0.452797 0.000000
v 0.166496 0.455681 0.000000
v 0.152899 0.457418 0.000000
v 0.138861 0.458000 0.000000
v 0.128339 0.457541 0.000000
v 0.117769 0.456157 0.000000
v 0.107143 0.453844 0.000000
v 0.096454 0.450593 0.000000
v 0.085696 0.446397 0.000000
v 0.074861 0.441250 0.000000
v 0.063944 0.435145 0.000000
v 0.052935 0.428074 0.000000
v 0.041830 0.420031 0.000000
v 0.030621 0.411009 0.000000
v 0.019300 0.401001 0.000000
v 0.007861 0.390000 0.000000
v 0.007861 0.449000 0.000000
v -0.196139 0.585000 0.000000
v -0.196628 0.592135 0.000000
v -0.198051 0.598995 0.000000
v -0.200342 0.605516 0.000000
v -0.203435 0.611630 0.000000
v -0.207264 0.617271 0.000000
v -0.211764 0.622375 0.000000
v -0.216867 0.626875 0.000000
v -0.222509 0.630704 0.000000
v -0.228623 0.633797 0.000000
v -0.235143 0.636088 0.000000
v -0.242004 0.637511 0.000000
v -0.249139 0.638000 0.000000
v -0.256274 0.637511 0.000000
v -0.263134 0.636088 0.000000
v -0.269654 0.633797 0.000000
v -0.275768 0.630704 0.000000
v -0.281410 0.626874 0.000000
v -0.286514 0.622375 0.000000
v -0.291013 0.617271 0.000000
v -0.294842 0.611630 0.000000
v -0.297936 0.605516 0.000000
v -0.300227 0.598995 0.000000
v -0.301650 0.592135 0.000000
v -0.302139 0.585000 0.000000
v -0.301650 0.577865 0.000000
v -0.300227 0.571005 0.000000
v -0.297936 0.564484 0.000000
v -0.294842 0.558370 0.000000
v -0.291013 0.552729 0.000000
v -0.286514 0.547625 0.000000
v -0.281410 0.543126 0.000000
v -0.275768 0.539296 0.000000
v -0.269654 0.536203 0.000000
v -0.263134 0.533912 0.000000
v -0.256273 0.532489 0.000000
v -0.249139 0.532000 0.000000
v -0.242004 0.532489 0.000000
v -0.235143 0.533912 0.000000
v -0.228623 0.536203 0.000000
v -0.222509 0.539296 0.000000
v -0.216867 0.543126 0.000000
v -0.211764 0.547625 0.000000
v -0.207264 0.552729 0.000000
v -0.203435 0.558370 0.000000
v -0.200342 0.564484 0.000000
v -0.198051 0.571005 0.000000
v -0.196628 0.577865 0.000000
v -0.205139 0.449000 0.000000
v -0.294139 0.449000 0.000000
v -0.294139 0.000000 0.000000
v -0.205139 0.000000 0.000000
v -0.376139 0.682000 0.000000
v -0.946139 0.682000 0.000000
v -0.946139 0.594000 0.000000
v -0.710139 0.594000 0.000000
v -0.710139 0.000000 0.000000
v -0.612139 0.000000 0.000000
v -0.612139 0.594000 0.000000
v -0.376139 0.594000 0.000000
v 1.068861 0.130000 0.218456
v 1.055880 0.121795 0.218456
v 1.042926 0.114194 0.218456
v 1.029986 0.107219 0.218456
v 1.017047 0.100889 0.218456
v 1.004093 0.095226 0.218456
v 0.991111 0.090250 0.218456
v 0.978088 0.085983 0.218456
v 0.965010 0.082444 0.218456
v 0.951861 0.079656 0.218456
v 0.938630 0.077639 0.218456
v 0.925301 0.076413 0.218456
v 0.911861 0.076000 0.218456
v 0.891092 0.076957 0.218456
v 0.871787 0.079819 0.218456
v 0.853955 0.084578 0.218456
v 0.837602 0.091222 0.218456
v 0.822735 0.099741 0.218456
v 0.809361 0.110125 0.218456
v 0.797487 0.122363 0.218456
v 0.787121 0.136444 0.218456
v 0.778268 0.152359 0.218456
v 0.770935 0.170097 0.218456
v 0.765131 0.189648 0.218456
v 0.760861 0.211000 0.218456
v 1.076862 0.211000 0.218456
v 1.075297 0.250731 0.218456
v 1.070681 0.286935 0.218456
v 1.063127 0.319625 0.218456
v 1.052750 0.348815 0.218456
v 1.039665 0.374519 0.218456
v 1.023986 0.396750 0.218456
v 1.005828 0.415523 0.218456
v 0.985306 0.430852 0.218456
v 0.962533 0.442750 0.218456
v 0.937625 0.451232 0.218456
v 0.910697 0.456310 0.218456
v 0.881861 0.458000 0.218456
v 0.851681 0.456111 0.218456
v 0.823250 0.450556 0.218456
v 0.796736 0.441500 0.218456
v 0.772306 0.429111 0.218456
v 0.750125 0.413556 0.218456
v 0.730361 0.395000 0.218456
v 0.713181 0.373611 0.218456
v 0.698750 0.349556 0.218456
v 0.687236 0.323000 0.218456
v 0.678806 0.294111 0.218456
v 0.673625 0.263056 0.218456
v 0.671861 0.230000 0.218456
v 0.673477 0.199249 0.218456
v 0.678287 0.169241 0.218456
v 0.686237 0.140344 0.218456
v 0.697269 0.112926 0.218456
v 0.711329 0.087355 0.218456
v 0.728361 0.064000 0.218456
v 0.748311 0.043228 0.218456
v 0.771121 0.025407 0.218456
v 0.796737 0.010906 0.218456
v 0.825102 0.000093 0.218456
v 0.856163 -0.006665 0.218456
v 0.889861 -0.009000 0.218456
v 0.908317 -0.008645 0.218456
v 0.925760 -0.007574 0.218456
v 0.942299 -0.005781 0.218456
v 0.958047 -0.003259 0.218456
v 0.973114 -0.000001 0.218456
v 0.987611 0.004000 0.218456
v 1.001651 0.008751 0.218456
v 1.015343 0.014259 0.218456
v 1.028799 0.020531 0.218456
v 1.042130 0.027574 0.218456
v 1.055447 0.035395 0.218456
v 1.068861 0.044000 0.218456
v 0.762861 0.270000 0.218456
v 0.766464 0.287099 0.218456
v 0.771269 0.302875 0.218456
v 0.777268 0.317297 0.218456
v 0.784454 0.330333 0.218456
v 0.792821 0.341953 0.218456
v 0.802361 0.352125 0.218456
v 0.813069 0.360818 0.218456
v 0.824935 0.368000 0.218456
v 0.837955 0.373641 0.218456
v 0.852121 0.377708 0.218456
v 0.867425 0.380172 0.218456
v 0.883861 0.381000 0.218456
v 0.899104 0.380115 0.218456
v 0.913306 0.377500 0.218456
v 0.926424 0.373219 0.218456
v 0.938417 0.367333 0.218456
v 0.949243 0.359906 0.218456
v 0.958861 0.351000 0.218456
v 0.967229 0.340677 0.218456
v 0.974306 0.329000 0.218456
v 0.980049 0.316031 0.218456
v 0.984417 0.301833 0.218456
v 0.987368 0.286469 0.218456
v 0.988861 0.270000 0.218456
v -0.081139 0.449000 0.218456
v -0.081139 -0.000000 0.218456
v 0.007861 -0.000000 0.218456
v 0.007861 0.326000 0.218456
v 0.016978 0.336155 0.218456
v 0.025880 0.345153 0.218456
v 0.034643 0.353047 0.218456
v 0.043343 0.359889 0.218456
v 0.052057 0.365731 0.218456
v 0.060861 0.370625 0.218456
v 0.069832 0.374623 0.218456
v 0.079047 0.377778 0.218456
v 0.088580 0.380141 0.218456
v 0.098510 0.381764 0.218456
v 0.108911 0.382700 0.218456
v 0.119861 0.383000 0.218456
v 0.130698 0.382348 0.218456
v 0.141139 0.380366 0.218456
v 0.151080 0.377016 0.218456
v 0.160417 0.372259 0.218456
v 0.169045 0.366058 0.218456
v 0.176861 0.358375 0.218456
v 0.183761 0.349171 0.218456
v 0.189639 0.338407 0.218456
v 0.194393 0.326047 0.218456
v 0.197917 0.312051 0.218456
v 0.200108 0.296381 0.218456
v 0.200861 0.279000 0.218456
v 0.200861 -0.000000 0.218456
v 0.289861 -0.000000 0.218456
v 0.289861 0.326000 0.218456
v 0.297997 0.334073 0.218456
v 0.306366 0.341750 0.218456
v 0.314908 0.348969 0.218456
v 0.323565 0.355667 0.218456
v 0.332278 0.361781 0.218456
v 0.340986 0.367250 0.218456
v 0.349633 0.372010 0.218456
v 0.358158 0.376000 0.218456
v 0.366502 0.379156 0.218456
v 0.374607 0.381417 0.218456
v 0.382413 0.382719 0.218456
v 0.389861 0.383000 0.218456
v 0.402405 0.382233 0.218456
v 0.414459 0.379944 0.218456
v 0.425908 0.376156 0.218456
v 0.436639 0.370889 0.218456
v 0.446537 0.364163 0.218456
v 0.455486 0.356000 0.218456
v 0.463374 0.346420 0.218456
v 0.470084 0.335444 0.218456
v 0.475502 0.323094 0.218456
v 0.479514 0.309389 0.218456
v 0.482005 0.294351 0.218456
v 0.482861 0.278000 0.218456
v 0.482861 -0.000000 0.218456
v 0.571861 -0.000000 0.218456
v 0.571861 0.282000 0.218456
v 0.570668 0.307730 0.218456
v 0.567144 0.331843 0.218456
v 0.561377 0.354219 0.218456
v 0.553454 0.374741 0.218456
v 0.543462 0.393291 0.218456
v 0.531487 0.409750 0.218456
v 0.517616 0.424001 0.218456
v 0.501936 0.435926 0.218456
v 0.484533 0.445406 0.218456
v 0.465496 0.452324 0.218456
v 0.444910 0.456561 0.218456
v 0.422861 0.458000 0.218456
v 0.407210 0.457247 0.218456
v 0.392236 0.455056 0.218456
v 0.377908 0.451531 0.218456
v 0.364195 0.446778 0.218456
v 0.351064 0.440899 0.218456
v 0.338486 0.434000 0.218456
v 0.326429 0.426184 0.218456
v 0.314861 0.417556 0.218456
v 0.303752 0.408219 0.218456
v 0.293070 0.398278 0.218456
v 0.282783 0.387837 0.218456
v 0.272861 0.377000 0.218456
v 0.265011 0.389727 0.218456
v 0.256477 0.401403 0.218456
v 0.247283 0.412016 0.218456
v 0.237454 0.421556 0.218456
v 0.227014 0.430012 0.218456
v 0.215986 0.437375 0.218456
v 0.204397 0.443634 0.218456
v 0.192269 0.448778 0.218456
v 0.179627 0.452797 0.218456
v 0.166496 0.455681 0.218456
v 0.152899 0.457418 0.218456
v 0.138861 0.458000 0.218456
v 0.128339 0.457541 0.218456
v 0.117769 0.456157 0.218456
v 0.107143 0.453844 0.218456
v 0.096454 0.450593 0.218456
v 0.085696 0.446397 0.218456
v 0.074861 0.441250 0.218456
v 0.063944 0.435145 0.218456
v 0.052935 0.428074 0.218456
v 0.041830 0.420031 0.218456
v 0.030621 0.411009 0.218456
v 0.019300 0.401001 0.218456
v 0.007861 0.390000 0.218456
v 0.007861 0.449000 0.218456
v -0.196139 0.585000 0.218456
v -0.196628 0.592135 0.218456
v -0.198051 0.598995 0.218456
v -0.200342 0.605516 0.218456
v -0.203435 0.611630 0.218456
v -0.207264 0.617271 0.218456
v -0.211764 0.622375 0.218456
v -0.216867 0.626875 0.218456
v -0.222509 0.630704 0.218456
v -0.228623 0.633797 0.218456
v -0.235143 0.636088 0.218456
v -0.242004 0.637511 0.218456
v -0.249139 0.638000 0.218456
v -0.256274 0.637511 0.218456
v -0.263134 0.636088 0.218456
v -0.269654 0.633797 0.218456
v -0.275768 0.630704 0.218456
v -0.281410 0.626874 0.218456
v -0.286514 0.622375 0.218456
v -0.291013 0.617271 0.218456
v -0.294842 0.611630 0.218456
v -0.297936 0.605516 0.218456
v -0.300227 0.598995 0.218456
v -0.301650 0.592135 0.218456
v -0.302139 0.585000 0.218456
v -0.301650 0.577865 0.218456
v -0.300227 0.571005 0.218456
v -0.297936 0.564484 0.218456
v -0.294842 0.558370 0.218456
v -0.291013 0.552729 0.218456
v -0.286514 0.547625 0.218456
v -0.281410 0.543126 0.218456
v -0.275768 0.539296 0.218456
v -0.269654 0.536203 0.218456
v -0.263134 0.533912 0.218456
v -0.256273 0.532489 0.218456
v -0.249139 0.532000 0.218456
v -0.242004 0.532489 0.218456
v -0.235143 0.533912 0.218456
v -0.228623 0.536203 0.218456
v -0.222509 0.539296 0.218456
v -0.216867 0.543126 0.218456
v -0.211764 0.547625 0.218456
v -0.207264 0.552729 0.218456
v -0.203435 0.558370 0.218456
v -0.200342 0.564484 0.218456
v -0.198051 0.571005 0.218456
v -0.196628 0.577865 0.218456
v -0.205139 0.449000 0.218456
v -0.294139 0.449000 0.218456
v -0.294139 -0.000000 0.218456
v -0.205139 -0.000000 0.218456
v -0.376139 0.682000 0.218456
v -0.946139 0.682000 0.218456
v -0.946139 0.594000 0.218456
v -0.710139 0.594000 0.218456
v -0.710139 -0.000000 0.218456
v -0.612139 -0.000000 0.218456
v -0.612139 0.594000 0.218456
v -0.376139 0.594000 0.218456
vn -0.0000 -0.0000 -1.0000
vn -0.0000 1.0000 -0.0000
vn -0.0000 -1.0000 -0.0000
vn -0.0000 -0.0000 1.0000
vn -0.0000 0.0001 1.0000
vn -0.0000 0.0002 1.0000
vn -0.0000 -0.0003 1.0000
vn 0.6693 -0.7430 -0.0000
vn 0.2114 -0.9774 -0.0000
vn -0.9864 0.1645 -0.0000
vn 0.2031 -0.9792 -0.0000
vn 0.9989 0.0463 -0.0000
vn -0.2031 -0.9792 -0.0000
vn -0.9991 -0.0433 -0.0000
vn 0.6182 -0.7860 -0.0000
vn 0.1581 -0.9874 -0.0000
vn 0.9785 -0.2062 -0.0000
vn -0.0684 -0.9977 -0.0000
vn -0.9986 -0.0523 -0.0000
vn 0.5569 -0.8306 -0.0000
vn 0.1078 -0.9942 -0.0000
vn 0.0684 -0.9977 -0.0000
vn -0.0691 -0.9976 -0.0000
vn 0.9920 0.1265 -0.0000
vn -1.0000 -0.0000 -0.0000
vn 0.4859 -0.8740 -0.0000
vn -0.9959 -0.0903 -0.0000
vn 1.0000 -0.0000 -0.0000
vn 0.0192 -0.9998 -0.0000
vn 0.4071 -0.9134 -0.0000
vn 0.0613 -0.9981 -0.0000
vn -0.0436 0.9990 -0.0000
vn 0.3239 -0.9461 -0.0000
vn 0.0414 0.9991 -0.0000
vn -0.9986 0.0533 -0.0000
vn 0.2406 -0.9706 -0.0000
vn -0.0481 0.9988 -0.0000
vn 0.1613 -0.9869 -0.0000
vn 0.0651 0.9979 -0.0000
vn 0.9992 0.0393 -0.0000
vn -0.1297 0.9915 -0.0000
vn -0.9986 -0.0525 -0.0000
vn 0.0896 -0.9960 -0.0000
vn -0.0684 0.9977 -0.0000
vn 0.1268 0.9919 -0.0000
vn 0.0684 0.9977 -0.0000
vn 0.0274 -0.9996 -0.0000
vn -0.1448 0.9895 -0.0000
vn -0.0625 0.9980 -0.0000
vn 0.9806 0.1961 -0.0000
vn 0.2031 0.9792 -0.0000
vn -0.9874 -0.1583 -0.0000
vn 0.0585 0.9983 -0.0000
vn -0.2031 0.9792 -0.0000
vn 0.8511 0.5250 -0.0000
vn 0.2016 0.9795 -0.0000
vn -0.7376 0.6753 -0.0000
vn -0.2128 0.9771 -0.0000
vn 0.1853 0.9827 -0.0000
vn 0.9586 0.2846 -0.0000
vn -0.1918 0.9814 -0.0000
vn 0.3315 0.9435 -0.0000
vn -0.3315 0.9435 -0.0000
vn 0.0377 -0.9993 -0.0000
vn 0.2145 0.9767 -0.0000
vn 0.9242 0.3820 -0.0000
vn -0.0601 -0.9982 -0.0000
vn -0.2389 0.9711 -0.0000
vn -0.9642 -0.2652 -0.0000
vn 0.3223 0.9466 -0.0000
vn -0.3232 0.9463 -0.0000
vn 0.4514 0.8923 -0.0000
vn -0.0611 -0.9981 -0.0000
vn -0.2910 0.9567 -0.0000
vn -0.4514 0.8923 -0.0000
vn 0.8739 0.4861 -0.0000
vn -0.9277 -0.3733 -0.0000
vn 0.4631 0.8863 -0.0000
vn 0.1645 -0.9864 -0.0000
vn 0.3030 0.9530 -0.0000
vn -0.4523 0.8919 -0.0000
vn 0.5616 0.8274 -0.0000
vn -0.1865 -0.9825 -0.0000
vn -0.5616 0.8274 -0.0000
vn 0.3415 0.9399 -0.0000
vn 0.8053 0.5929 -0.0000
vn -0.3275 0.9448 -0.0000
vn -0.5343 0.8453 -0.0000
vn 0.5984 0.8012 -0.0000
vn -0.5742 0.8187 -0.0000
vn 0.6613 0.7501 -0.0000
vn -0.3633 0.9317 -0.0000
vn -0.6613 0.7501 -0.0000
vn 0.2686 -0.9632 -0.0000
vn -0.3194 -0.9476 -0.0000
vn 0.7177 0.6964 -0.0000
vn 0.7188 0.6952 -0.0000
vn -0.5061 0.8625 -0.0000
vn -0.6845 0.7290 -0.0000
vn 0.7501 0.6613 -0.0000
vn -0.3141 -0.9494 -0.0000
vn -0.7501 0.6613 -0.0000
vn -0.4745 0.8802 -0.0000
vn 0.8172 0.5763 -0.0000
vn 0.3538 -0.9353 -0.0000
vn -0.8763 -0.4818 -0.0000
vn -0.7796 0.6262 -0.0000
vn 0.8274 0.5616 -0.0000
vn -0.4539 -0.8910 -0.0000
vn 0.3905 0.9206 -0.0000
vn -0.8274 0.5616 -0.0000
vn -0.4086 0.9127 -0.0000
vn 0.6133 0.7899 -0.0000
vn -0.4406 -0.8977 -0.0000
vn -0.4291 0.9033 -0.0000
vn -0.4394 0.8983 -0.0000
vn 0.8923 0.4514 -0.0000
vn 0.0503 -0.9987 -0.0000
vn -0.8923 0.4514 -0.0000
vn -0.4006 0.9163 -0.0000
vn -0.0580 -0.9983 -0.0000
vn 0.4239 -0.9057 -0.0000
vn 0.4784 0.8781 -0.0000
vn 0.9435 0.3315 -0.0000
vn 0.9329 0.3602 -0.0000
vn 0.4752 0.8799 -0.0000
vn 0.4972 0.8676 -0.0000
vn 0.1589 -0.9873 -0.0000
vn -0.9435 0.3315 -0.0000
vn -0.5836 -0.8121 -0.0000
vn -0.4881 0.8728 -0.0000
vn -0.3579 0.9338 -0.0000
vn -0.1811 -0.9835 -0.0000
vn -0.4809 0.8768 -0.0000
vn 0.9792 0.2031 -0.0000
vn 0.4823 -0.8760 -0.0000
vn 0.3764 0.9265 -0.0000
vn 0.2760 -0.9612 -0.0000
vn -0.9792 0.2031 -0.0000
vn -0.5620 -0.8271 -0.0000
vn -0.3114 0.9503 -0.0000
vn -0.3103 -0.9507 -0.0000
vn 0.5553 0.8317 -0.0000
vn -0.8080 -0.5892 -0.0000
vn 0.9977 0.0684 -0.0000
vn 0.5318 -0.8469 -0.0000
vn 0.6053 0.7960 -0.0000
vn 0.8912 0.4537 -0.0000
vn -0.9977 0.0684 -0.0000
vn -0.7010 -0.7131 -0.0000
vn -0.5404 0.8414 -0.0000
vn -0.2611 0.9653 -0.0000
vn 0.3975 -0.9176 -0.0000
vn -0.9977 -0.0684 -0.0000
vn -0.6739 -0.7388 -0.0000
vn -0.5439 0.8391 -0.0000
vn -0.8575 0.5144 -0.0000
vn 0.2578 0.9662 -0.0000
vn -0.2074 0.9782 -0.0000
vn -0.4405 -0.8977 -0.0000
vn 0.9977 -0.0684 -0.0000
vn 0.5745 -0.8185 -0.0000
vn 0.6294 0.7771 -0.0000
vn -0.8002 -0.5998 -0.0000
vn -0.5866 0.8099 -0.0000
vn 0.9792 -0.2031 -0.0000
vn 0.1467 0.9892 -0.0000
vn 0.5178 -0.8555 -0.0000
vn -0.9792 -0.2031 -0.0000
vn -0.7720 -0.6356 -0.0000
vn -0.5979 0.8016 -0.0000
vn -0.1507 0.9886 -0.0000
vn -0.5657 -0.8246 -0.0000
vn -0.0916 0.9958 -0.0000
vn 0.9435 -0.3315 -0.0000
vn 0.6119 -0.7909 -0.0000
vn 0.7166 0.6975 -0.0000
vn 0.6303 -0.7764 -0.0000
vn -0.9435 -0.3315 -0.0000
vn -0.6794 -0.7337 -0.0000
vn 0.9684 0.2496 -0.0000
vn 0.6965 0.7176 -0.0000
vn 0.0460 0.9989 -0.0000
vn -0.8776 -0.4793 -0.0000
vn -0.6270 0.7790 -0.0000
vn -0.0307 0.9995 -0.0000
vn 0.8923 -0.4514 -0.0000
vn 0.7294 -0.6841 -0.0000
vn -0.8923 -0.4514 -0.0000
vn -0.6434 0.7655 -0.0000
vn -0.7768 -0.6297 -0.0000
vn 0.6455 -0.7638 -0.0000
vn -0.7212 -0.6927 -0.0000
vn -0.8532 -0.5216 -0.0000
vn -0.9175 0.3978 -0.0000
vn 0.8274 -0.5616 -0.0000
vn 0.7558 0.6548 -0.0000
vn -0.8274 -0.5616 -0.0000
vn -0.6623 0.7492 -0.0000
vn 0.5399 -0.8417 -0.0000
vn 0.6760 -0.7369 -0.0000
vn -0.6156 -0.7880 -0.0000
vn 0.9422 0.3350 -0.0000
vn -0.9334 -0.3589 -0.0000
vn 0.7501 -0.6613 -0.0000
vn 0.8086 0.5883 -0.0000
vn 0.8115 -0.5843 -0.0000
vn -0.7501 -0.6613 -0.0000
vn -0.9157 -0.4018 -0.0000
vn -0.6812 0.7321 -0.0000
vn 0.5064 -0.8623 -0.0000
vn -0.8552 -0.5183 -0.0000
vn 0.4671 -0.8842 -0.0000
vn 0.6613 -0.7501 -0.0000
vn 0.7043 -0.7099 -0.0000
vn 0.8073 0.5901 -0.0000
vn -0.4926 -0.8702 -0.0000
vn 0.8758 -0.4828 -0.0000
vn -0.6613 -0.7501 -0.0000
vn -0.6932 0.7208 -0.0000
vn -0.9144 -0.4049 -0.0000
vn 0.9895 0.1446 -0.0000
vn -0.9697 -0.2442 -0.0000
vn -0.7124 0.7018 -0.0000
vn 0.4225 -0.9064 -0.0000
vn -0.9600 0.2801 -0.0000
vn 0.5616 -0.8274 -0.0000
vn -0.5616 -0.8274 -0.0000
vn 0.3732 -0.9277 -0.0000
vn -0.3562 -0.9344 -0.0000
vn 0.9743 0.2251 -0.0000
vn 0.4514 -0.8923 -0.0000
vn 0.8804 0.4743 -0.0000
vn 0.9233 -0.3841 -0.0000
vn -0.4514 -0.8923 -0.0000
vn -0.9597 -0.2810 -0.0000
vn 0.3206 -0.9472 -0.0000
vn -0.9558 -0.2941 -0.0000
vn -0.9904 -0.1385 -0.0000
vn 0.7441 -0.6681 -0.0000
vn 0.2660 -0.9640 -0.0000
vn 0.3315 -0.9435 -0.0000
vn -0.2126 -0.9771 -0.0000
vn 0.9566 -0.2913 -0.0000
vn -0.3315 -0.9435 -0.0000
vn -0.9866 -0.1634 -0.0000
vn 0.7109 -0.7033 -0.0000
vn -0.9820 -0.1886 -0.0000
vt 0.387755 0.000000
vt 0.377551 0.000000
vt 0.367347 0.000000
vt 0.357143 0.000000
vt 0.397959 0.000000
vt 0.346939 0.000000
vt 0.408163 0.000000
vt 0.336735 0.000000
vt 0.418367 0.000000
vt 0.326531 0.000000
vt 0.428571 0.000000
vt 0.316327 0.000000
vt 0.438776 0.000000
vt 0.306122 0.000000
vt 0.448980 0.000000
vt 0.877551 0.000000
vt 0.867347 0.000000
vt 0.887755 0.000000
vt 0.857143 0.000000
vt 0.897959 0.000000
vt 0.846939 0.000000
vt 0.908163 0.000000
vt 0.295918 0.000000
vt 0.836735 0.000000
vt 0.459184 0.000000
vt 0.918367 0.000000
vt 0.826531 0.000000
vt 0.928571 0.000000
vt 0.816327 0.000000
vt 0.938776 0.000000
vt 0.806122 0.000000
vt 0.948980 0.000000
vt 0.469388 0.000000
vt 0.285714 0.000000
vt 0.795918 0.000000
vt 0.959184 0.000000
vt 0.785714 0.000000
vt 0.969388 0.000000
vt 0.479592 0.000000
vt 0.275510 0.000000
vt 0.775510 0.000000
vt 0.979592 0.000000
vt 0.765306 0.000000
vt 0.989796 0.000000
vt 0.489796 0.000000
vt 0.755102 0.000000
vt 0.265306 0.000000
vt 1.000000 0.000000
vt 0.500000 0.000000
vt 0.255102 0.000000
vt 0.510204 0.000000
vt 0.244898 0.000000
vt 0.234694 0.000000
vt 0.520408 0.000000
vt 0.224490 0.000000
vt 0.214286 0.000000
vt 0.530612 0.000000
vt 0.204082 0.000000
vt 0.540816 0.000000
vt 0.193878 0.000000
vt 0.010204 0.000000
vt 0.000000 0.000000
vt 0.744898 0.000000
vt 0.183673 0.000000
vt 0.020408 0.000000
vt 0.030612 0.000000
vt 0.551020 0.000000
vt 0.173469 0.000000
vt 0.040816 0.000000
vt 0.051020 0.000000
vt 0.163265 0.000000
vt 0.061224 0.000000
vt 0.153061 0.000000
vt 0.071429 0.000000
vt 0.561224 0.000000
vt 0.081633 0.000000
vt 0.142857 0.000000
vt 0.091837 0.000000
vt 0.132653 0.000000
vt 0.102041 0.000000
vt 0.112245 0.000000
vt 0.122449 0.000000
vt 0.571429 0.000000
vt 0.734694 0.000000
vt 0.581633 0.000000
vt 0.724490 0.000000
vt 0.714286 0.000000
vt 0.591837 0.000000
vt 0.704082 0.000000
vt 0.693878 0.000000
vt 0.602041 0.000000
vt 0.683673 0.000000
vt 0.673469 0.000000
vt 0.612245 0.000000
vt 0.663265 0.000000
vt 0.653061 0.000000
vt 0.642857 0.000000
vt 0.622449 0.000000
vt 0.632653 0.000000
vt 0.886792 0.000000
vt 0.877358 0.000000
vt 0.867925 0.000000
vt 0.660377 0.000000
vt 0.650943 0.000000
vt 0.641509 0.000000
vt 0.896226 0.000000
vt 0.858491 0.000000
vt 0.669811 0.000000
vt 0.632075 0.000000
vt 0.905660 0.000000
vt 0.849057 0.000000
vt 0.679245 0.000000
vt 0.915094 0.000000
vt 0.839623 0.000000
vt 0.622642 0.000000
vt 0.688679 0.000000
vt 0.924528 0.000000
vt 0.009434 0.000000
vt 0.990566 0.000000
vt 0.830189 0.000000
vt 0.698113 0.000000
vt 0.933962 0.000000
vt 0.613208 0.000000
vt 0.820755 0.000000
vt 0.943396 0.000000
vt 0.707547 0.000000
vt 0.811321 0.000000
vt 0.603774 0.000000
vt 0.952830 0.000000
vt 0.716981 0.000000
vt 0.801887 0.000000
vt 0.962264 0.000000
vt 0.726415 0.000000
vt 0.594340 0.000000
vt 0.792453 0.000000
vt 0.971698 0.000000
vt 0.735849 0.000000
vt 0.783019 0.000000
vt 0.981132 0.000000
vt 0.584906 0.000000
vt 0.745283 0.000000
vt 0.773585 0.000000
vt 0.754717 0.000000
vt 0.396226 0.000000
vt 0.575472 0.000000
vt 0.028302 0.000000
vt 0.037736 0.000000
vt 0.047170 0.000000
vt 0.056604 0.000000
vt 0.066038 0.000000
vt 0.075472 0.000000
vt 0.084906 0.000000
vt 0.094340 0.000000
vt 0.103774 0.000000
vt 0.113208 0.000000
vt 0.122642 0.000000
vt 0.132075 0.000000
vt 0.141509 0.000000
vt 0.764151 0.000000
vt 0.386792 0.000000
vt 0.150943 0.000000
vt 0.405660 0.000000
vt 0.377358 0.000000
vt 0.160377 0.000000
vt 0.415094 0.000000
vt 0.367925 0.000000
vt 0.169811 0.000000
vt 0.424528 0.000000
vt 0.358491 0.000000
vt 0.179245 0.000000
vt 0.433962 0.000000
vt 0.349057 0.000000
vt 0.566038 0.000000
vt 0.188679 0.000000
vt 0.339623 0.000000
vt 0.443396 0.000000
vt 0.330189 0.000000
vt 0.198113 0.000000
vt 0.452830 0.000000
vt 0.320755 0.000000
vt 0.207547 0.000000
vt 0.462264 0.000000
vt 0.311321 0.000000
vt 0.556604 0.000000
vt 0.216981 0.000000
vt 0.301887 0.000000
vt 0.471698 0.000000
vt 0.292453 0.000000
vt 0.226415 0.000000
vt 0.481132 0.000000
vt 0.283019 0.000000
vt 0.547170 0.000000
vt 0.235849 0.000000
vt 0.018868 0.000000
vt 0.273585 0.000000
vt 0.490566 0.000000
vt 0.245283 0.000000
vt 0.537736 0.000000
vt 0.254717 0.000000
vt 0.509434 0.000000
vt 0.528302 0.000000
vt 0.264151 0.000000
vt 0.518868 0.000000
vt 0.980392 0.000000
vt 0.960784 0.000000
vt 0.941176 0.000000
vt 0.254902 0.000000
vt 0.235294 0.000000
vt 0.215686 0.000000
vt 0.196078 0.000000
vt 0.274510 0.000000
vt 0.176471 0.000000
vt 0.294118 0.000000
vt 0.156863 0.000000
vt 0.313726 0.000000
vt 0.137255 0.000000
vt 0.333333 0.000000
vt 0.117647 0.000000
vt 0.352941 0.000000
vt 0.098039 0.000000
vt 0.372549 0.000000
vt 0.078431 0.000000
vt 0.392157 0.000000
vt 0.058824 0.000000
vt 0.411765 0.000000
vt 0.039216 0.000000
vt 0.431373 0.000000
vt 0.019608 0.000000
vt 0.450980 0.000000
vt 0.470588 0.000000
vt 0.490196 0.000000
vt 0.921569 0.000000
vt 0.901961 0.000000
vt 0.509804 0.000000
vt 0.882353 0.000000
vt 0.529412 0.000000
vt 0.862745 0.000000
vt 0.549020 0.000000
vt 0.843137 0.000000
vt 0.568627 0.000000
vt 0.823529 0.000000
vt 0.588235 0.000000
vt 0.803922 0.000000
vt 0.607843 0.000000
vt 0.784314 0.000000
vt 0.627451 0.000000
vt 0.764706 0.000000
vt 0.647059 0.000000
vt 0.745098 0.000000
vt 0.666667 0.000000
vt 0.725490 0.000000
vt 0.686275 0.000000
vt 0.705882 0.000000
vt 0.958101 0.729152
vt 0.940157 0.697444
vt 0.951533 0.711525
vt 0.928050 0.685346
vt 0.962744 0.746499
vt 0.914973 0.675398
vt 0.965023 0.763708
vt 0.900872 0.667701
vt 0.964921 0.780679
vt 0.885761 0.662322
vt 0.962471 0.797282
vt 0.869675 0.659319
vt 0.957715 0.813382
vt 0.852655 0.658745
vt 0.950695 0.826508
vt 0.900397 0.736897
vt 0.898105 0.734091
vt 0.895082 0.729384
vt 0.902409 0.744026
vt 0.889231 0.722996
vt 0.905343 0.753914
vt 0.882846 0.717671
vt 0.834394 0.656793
vt 0.906944 0.763732
vt 0.942326 0.844391
vt 0.876002 0.713039
vt 0.907325 0.773507
vt 0.868659 0.709467
vt 0.906409 0.783153
vt 0.860844 0.706937
vt 0.904222 0.792638
vt 0.852593 0.705450
vt 0.931056 0.861277
vt 0.814232 0.657359
vt 0.900840 0.801991
vt 0.843950 0.704742
vt 0.896225 0.811110
vt 0.834943 0.705152
vt 0.916914 0.876859
vt 0.792064 0.661283
vt 0.890432 0.820027
vt 0.825577 0.706467
vt 0.883464 0.828628
vt 0.815976 0.708960
vt 0.900025 0.890673
vt 0.875378 0.836968
vt 0.768374 0.669154
vt 0.806087 0.712489
vt 0.881750 0.903388
vt 0.744024 0.680145
vt 0.867118 0.917612
vt 0.836536 0.858068
vt 0.814855 0.863491
vt 0.848957 0.932974
vt 0.792700 0.869011
vt 0.769977 0.874571
vt 0.826676 0.949115
vt 0.746799 0.878905
vt 0.801024 0.964429
vt 0.723186 0.881576
vt 0.431591 0.675664
vt 0.357620 0.749761
vt 0.423879 0.656793
vt 0.699296 0.882808
vt 0.439738 0.693861
vt 0.448352 0.711371
vt 0.771338 0.978363
vt 0.675026 0.881565
vt 0.457464 0.728184
vt 0.467104 0.744286
vt 0.650613 0.878144
vt 0.477304 0.759667
vt 0.626144 0.872189
vt 0.488094 0.774314
vt 0.737341 0.989913
vt 0.499507 0.788215
vt 0.601493 0.863094
vt 0.511572 0.801359
vt 0.576776 0.851124
vt 0.524321 0.813734
vt 0.537786 0.825329
vt 0.551996 0.836130
vt 0.699258 0.997571
vt 0.364408 0.769426
vt 0.660262 0.999815
vt 0.371749 0.788230
vt 0.379713 0.806260
vt 0.620654 0.996320
vt 0.388473 0.823603
vt 0.398086 0.840353
vt 0.580731 0.986731
vt 0.408744 0.856586
vt 0.420482 0.872408
vt 0.540747 0.970710
vt 0.433533 0.887876
vt 0.447882 0.903118
vt 0.463635 0.918234
vt 0.500304 0.948246
vt 0.481152 0.933214
vt 0.287366 0.727452
vt 0.310585 0.727337
vt 0.297314 0.727887
vt 0.551008 0.727175
vt 0.586649 0.726527
vt 0.565804 0.727887
vt 0.277373 0.726144
vt 0.323439 0.725694
vt 0.536852 0.725104
vt 0.606111 0.722521
vt 0.267327 0.723957
vt 0.335853 0.722968
vt 0.523306 0.721772
vt 0.257222 0.720884
vt 0.347804 0.719168
vt 0.624109 0.715981
vt 0.510341 0.717278
vt 0.247052 0.716917
vt 0.089329 0.294901
vt 0.173468 0.719378
vt 0.089329 0.719378
vt 0.173468 0.663600
vt 0.359270 0.714305
vt 0.497928 0.711720
vt 0.236809 0.712051
vt 0.640561 0.707018
vt 0.370226 0.708388
vt 0.226487 0.706280
vt 0.486037 0.705198
vt 0.380651 0.701427
vt 0.655384 0.695745
vt 0.216080 0.699595
vt 0.474638 0.697809
vt 0.390522 0.693432
vt 0.205582 0.691991
vt 0.463702 0.689651
vt 0.668498 0.682272
vt 0.399814 0.684414
vt 0.194984 0.683462
vt 0.453199 0.680824
vt 0.408506 0.674380
vt 0.184282 0.674001
vt 0.679819 0.666711
vt 0.443100 0.671426
vt 0.416574 0.663343
vt 0.433375 0.661555
vt 0.534606 0.656983
vt 0.689266 0.649174
vt 0.173468 0.603096
vt 0.182087 0.612696
vt 0.190503 0.621202
vt 0.198787 0.628665
vt 0.207012 0.635134
vt 0.215250 0.640657
vt 0.223573 0.645284
vt 0.232054 0.649063
vt 0.240766 0.652046
vt 0.249778 0.654279
vt 0.259166 0.655814
vt 0.268999 0.656699
vt 0.279350 0.656983
vt 0.423995 0.651310
vt 0.527564 0.656717
vt 0.289595 0.656366
vt 0.546461 0.656192
vt 0.520185 0.655486
vt 0.299465 0.654492
vt 0.557858 0.654034
vt 0.512523 0.653349
vt 0.308863 0.651325
vt 0.568684 0.650458
vt 0.504634 0.650365
vt 0.317690 0.646828
vt 0.578831 0.645483
vt 0.496574 0.646593
vt 0.696765 0.629776
vt 0.325848 0.640966
vt 0.488400 0.642093
vt 0.588191 0.639128
vt 0.480167 0.636922
vt 0.333237 0.633702
vt 0.596656 0.631415
vt 0.471930 0.631142
vt 0.339759 0.625000
vt 0.604116 0.622362
vt 0.463746 0.624810
vt 0.702227 0.608624
vt 0.345317 0.614825
vt 0.455670 0.617985
vt 0.610465 0.611988
vt 0.447759 0.610727
vt 0.349811 0.603139
vt 0.615592 0.600314
vt 0.440067 0.603095
vt 0.705568 0.585830
vt 0.353143 0.589907
vt 0.173468 0.294901
vt 0.440067 0.294895
vt 0.619391 0.587359
vt 0.355214 0.575094
vt 0.621753 0.573143
vt 0.706708 0.561505
vt 0.355926 0.558661
vt 0.622569 0.557686
vt 0.706829 0.294904
vt 0.355926 0.294895
vt 0.622688 0.294865
vt 0.086065 0.510894
vt 0.001923 0.086405
vt 0.086065 0.086405
vt 0.001923 0.510894
vt 0.097038 0.166509
vt 0.105960 0.176628
vt 0.101152 0.171874
vt 0.111258 0.180603
vt 0.093758 0.160754
vt 0.116959 0.183795
vt 0.091306 0.154697
vt 0.122976 0.186197
vt 0.089677 0.148428
vt 0.129218 0.187804
vt 0.088865 0.142032
vt 0.135600 0.188610
vt 0.088865 0.135600
vt 0.142032 0.188610
vt 0.089671 0.129218
vt 0.148427 0.187798
vt 0.091278 0.122976
vt 0.154697 0.186169
vt 0.093680 0.116959
vt 0.160754 0.183717
vt 0.096872 0.111258
vt 0.166508 0.180437
vt 0.100847 0.105960
vt 0.171874 0.176323
vt 0.105601 0.101152
vt 0.110967 0.097038
vt 0.176628 0.171516
vt 0.180603 0.166217
vt 0.116722 0.093758
vt 0.183795 0.160516
vt 0.122778 0.091306
vt 0.186197 0.154500
vt 0.129048 0.089677
vt 0.187804 0.148257
vt 0.135443 0.088865
vt 0.188610 0.141875
vt 0.141875 0.088865
vt 0.188610 0.135443
vt 0.148257 0.089672
vt 0.187798 0.129048
vt 0.154500 0.091278
vt 0.186169 0.122778
vt 0.160516 0.093680
vt 0.183717 0.116722
vt 0.166217 0.096872
vt 0.180437 0.110967
vt 0.171515 0.100847
vt 0.176323 0.105601
vt 0.537446 0.083446
vt 0.000783 0.000593
vt 0.537446 0.000593
vt 0.000783 0.083446
vt 0.315252 0.085719
vt 0.318108 0.645014
vt 0.222978 0.086190
vt 0.225833 0.645485
s 0
usemtl マテリアル
f 39/1/1 38/2/1 37/3/1
f 39/1/1 37/3/1 36/4/1
f 40/5/1 39/1/1 36/4/1
f 40/5/1 36/4/1 35/6/1
f 41/7/1 40/5/1 35/6/1
f 41/7/1 35/6/1 34/8/1
f 42/9/1 41/7/1 34/8/1
f 42/9/1 34/8/1 33/10/1
f 43/11/1 42/9/1 33/10/1
f 43/11/1 33/10/1 32/12/1
f 44/13/1 43/11/1 32/12/1
f 44/13/1 32/12/1 31/14/1
f 45/15/1 44/13/1 87/16/1
f 87/16/1 44/13/1 31/14/1
f 45/15/1 87/16/1 86/17/1
f 88/18/1 87/16/1 31/14/1
f 45/15/1 86/17/1 85/19/1
f 89/20/1 88/18/1 31/14/1
f 45/15/1 85/19/1 84/21/1
f 90/22/1 89/20/1 31/14/1
f 90/22/1 31/14/1 30/23/1
f 45/15/1 84/21/1 83/24/1
f 46/25/1 45/15/1 83/24/1
f 91/26/1 90/22/1 30/23/1
f 46/25/1 83/24/1 82/27/1
f 92/28/1 91/26/1 30/23/1
f 46/25/1 82/27/1 81/29/1
f 93/30/1 92/28/1 30/23/1
f 46/25/1 81/29/1 80/31/1
f 94/32/1 93/30/1 30/23/1
f 47/33/1 46/25/1 80/31/1
f 94/32/1 30/23/1 29/34/1
f 47/33/1 80/31/1 79/35/1
f 95/36/1 94/32/1 29/34/1
f 47/33/1 79/35/1 78/37/1
f 96/38/1 95/36/1 29/34/1
f 48/39/1 47/33/1 78/37/1
f 96/38/1 29/34/1 28/40/1
f 48/39/1 78/37/1 77/41/1
f 97/42/1 96/38/1 28/40/1
f 48/39/1 77/41/1 76/43/1
f 98/44/1 97/42/1 28/40/1
f 49/45/1 48/39/1 76/43/1
f 49/45/1 76/43/1 75/46/1
f 98/44/1 28/40/1 27/47/1
f 99/48/1 98/44/1 27/47/1
f 49/45/1 75/46/1 99/48/1
f 49/45/1 99/48/1 27/47/1
f 50/49/1 49/45/1 27/47/1
f 50/49/1 27/47/1 26/50/1
f 51/51/1 50/49/1 25/52/1
f 25/52/1 50/49/1 26/50/1
f 51/51/1 25/52/1 24/53/1
f 52/54/1 51/51/1 24/53/1
f 52/54/1 24/53/1 23/55/1
f 52/54/1 23/55/1 22/56/1
f 53/57/1 52/54/1 22/56/1
f 53/57/1 22/56/1 21/58/1
f 54/59/1 53/57/1 21/58/1
f 54/59/1 21/58/1 20/60/1
f 2/61/1 1/62/1 74/63/1
f 54/59/1 20/60/1 19/64/1
f 3/65/1 2/61/1 74/63/1
f 4/66/1 3/65/1 74/63/1
f 55/67/1 54/59/1 19/64/1
f 55/67/1 19/64/1 18/68/1
f 5/69/1 4/66/1 74/63/1
f 6/70/1 5/69/1 74/63/1
f 55/67/1 18/68/1 17/71/1
f 7/72/1 6/70/1 74/63/1
f 55/67/1 17/71/1 16/73/1
f 8/74/1 7/72/1 74/63/1
f 56/75/1 55/67/1 16/73/1
f 9/76/1 8/74/1 74/63/1
f 56/75/1 16/73/1 15/77/1
f 10/78/1 9/76/1 74/63/1
f 56/75/1 15/77/1 14/79/1
f 11/80/1 10/78/1 74/63/1
f 12/81/1 11/80/1 74/63/1
f 56/75/1 14/79/1 13/82/1
f 13/82/1 12/81/1 74/63/1
f 56/75/1 13/82/1 74/63/1
f 57/83/1 56/75/1 74/63/1
f 57/83/1 74/63/1 73/84/1
f 58/85/1 57/83/1 73/84/1
f 58/85/1 73/84/1 72/86/1
f 58/85/1 72/86/1 71/87/1
f 59/88/1 58/85/1 71/87/1
f 59/88/1 71/87/1 70/89/1
f 59/88/1 70/89/1 69/90/1
f 60/91/1 59/88/1 69/90/1
f 60/91/1 69/90/1 68/92/1
f 60/91/1 68/92/1 67/93/1
f 61/94/1 60/91/1 67/93/1
f 61/94/1 67/93/1 66/95/1
f 61/94/1 66/95/1 65/96/1
f 61/94/1 65/96/1 64/97/1
f 62/98/1 61/94/1 64/97/1
f 62/98/1 64/97/1 63/99/1
f 194/100/1 193/101/1 192/102/1
f 170/103/1 169/104/1 168/105/1
f 195/106/1 194/100/1 192/102/1
f 195/106/1 192/102/1 191/107/1
f 171/108/1 170/103/1 168/105/1
f 171/108/1 168/105/1 167/109/1
f 196/110/1 195/106/1 191/107/1
f 196/110/1 191/107/1 190/111/1
f 172/112/1 171/108/1 167/109/1
f 197/113/1 196/110/1 190/111/1
f 197/113/1 190/111/1 189/114/1
f 172/112/1 167/109/1 166/115/1
f 173/116/1 172/112/1 166/115/1
f 198/117/1 197/113/1 189/114/1
f 101/118/1 100/62/1 206/48/1
f 101/118/1 206/48/1 205/119/1
f 198/117/1 189/114/1 188/120/1
f 174/121/1 173/116/1 166/115/1
f 199/122/1 198/117/1 188/120/1
f 174/121/1 166/115/1 165/123/1
f 199/122/1 188/120/1 187/124/1
f 200/125/1 199/122/1 187/124/1
f 175/126/1 174/121/1 165/123/1
f 200/125/1 187/124/1 186/127/1
f 175/126/1 165/123/1 164/128/1
f 201/129/1 200/125/1 186/127/1
f 176/130/1 175/126/1 164/128/1
f 201/129/1 186/127/1 185/131/1
f 202/132/1 201/129/1 185/131/1
f 177/133/1 176/130/1 164/128/1
f 177/133/1 164/128/1 163/134/1
f 202/132/1 185/131/1 184/135/1
f 203/136/1 202/132/1 184/135/1
f 178/137/1 177/133/1 163/134/1
f 203/136/1 184/135/1 183/138/1
f 204/139/1 203/136/1 183/138/1
f 178/137/1 163/134/1 162/140/1
f 179/141/1 178/137/1 162/140/1
f 204/139/1 183/138/1 182/142/1
f 205/119/1 204/139/1 182/142/1
f 180/143/1 179/141/1 162/140/1
f 180/143/1 162/140/1 142/144/1
f 142/144/1 162/140/1 161/145/1
f 101/118/1 205/119/1 103/146/1
f 103/146/1 205/119/1 104/147/1
f 104/147/1 205/119/1 105/148/1
f 105/148/1 205/119/1 106/149/1
f 106/149/1 205/119/1 107/150/1
f 107/150/1 205/119/1 108/151/1
f 108/151/1 205/119/1 109/152/1
f 109/152/1 205/119/1 110/153/1
f 110/153/1 205/119/1 111/154/1
f 111/154/1 205/119/1 112/155/1
f 112/155/1 205/119/1 113/156/1
f 113/156/1 205/119/1 114/157/1
f 114/157/1 205/119/1 182/142/1
f 114/157/1 182/142/1 115/158/1
f 115/158/1 182/142/1 181/159/1
f 181/159/1 180/143/1 141/160/1
f 141/160/1 180/143/1 142/144/1
f 116/161/1 115/158/1 181/159/1
f 143/162/1 142/144/1 161/145/1
f 181/159/1 141/160/1 140/163/1
f 117/164/1 116/161/1 181/159/1
f 144/165/1 143/162/1 161/145/1
f 181/159/1 140/163/1 139/166/1
f 118/167/1 117/164/1 181/159/1
f 145/168/1 144/165/1 161/145/1
f 181/159/1 139/166/1 138/169/1
f 119/170/1 118/167/1 181/159/1
f 119/170/1 181/159/1 138/169/1
f 146/171/1 145/168/1 161/145/1
f 119/170/1 138/169/1 137/172/1
f 146/171/1 161/145/1 160/173/1
f 120/174/1 119/170/1 137/172/1
f 120/174/1 137/172/1 136/175/1
f 147/176/1 146/171/1 160/173/1
f 120/174/1 136/175/1 135/177/1
f 121/178/1 120/174/1 135/177/1
f 148/179/1 147/176/1 160/173/1
f 121/178/1 135/177/1 134/180/1
f 122/181/1 121/178/1 134/180/1
f 149/182/1 148/179/1 160/173/1
f 122/181/1 134/180/1 133/183/1
f 149/182/1 160/173/1 159/184/1
f 123/185/1 122/181/1 133/183/1
f 123/185/1 133/183/1 132/186/1
f 150/187/1 149/182/1 159/184/1
f 123/185/1 132/186/1 131/188/1
f 124/189/1 123/185/1 131/188/1
f 151/190/1 150/187/1 159/184/1
f 124/189/1 131/188/1 130/191/1
f 151/190/1 159/184/1 158/192/1
f 125/193/1 124/189/1 130/191/1
f 101/118/1 103/146/1 102/194/1
f 125/193/1 130/191/1 129/195/1
f 152/196/1 151/190/1 158/192/1
f 126/197/1 125/193/1 129/195/1
f 153/49/1 152/196/1 158/192/1
f 153/49/1 158/192/1 157/198/1
f 127/199/1 126/197/1 129/195/1
f 154/200/1 153/49/1 157/198/1
f 154/200/1 157/198/1 156/201/1
f 128/202/1 127/199/1 129/195/1
f 155/203/1 154/200/1 156/201/1
f 257/204/1 256/205/1 255/206/1
f 257/204/1 255/206/1 258/48/1
f 220/207/1 219/208/1 218/209/1
f 220/207/1 218/209/1 217/210/1
f 221/211/1 220/207/1 217/210/1
f 221/211/1 217/210/1 216/212/1
f 222/213/1 221/211/1 216/212/1
f 222/213/1 216/212/1 215/214/1
f 223/215/1 222/213/1 215/214/1
f 223/215/1 215/214/1 214/216/1
f 224/217/1 223/215/1 214/216/1
f 224/217/1 214/216/1 213/218/1
f 225/219/1 224/217/1 213/218/1
f 225/219/1 213/218/1 212/220/1
f 226/221/1 225/219/1 212/220/1
f 226/221/1 212/220/1 211/222/1
f 227/223/1 226/221/1 211/222/1
f 227/223/1 211/222/1 210/224/1
f 228/225/1 227/223/1 210/224/1
f 228/225/1 210/224/1 209/226/1
f 229/227/1 228/225/1 209/226/1
f 229/227/1 209/226/1 208/228/1
f 230/229/1 229/227/1 208/228/1
f 230/229/1 208/228/1 207/62/1
f 231/230/1 230/229/1 207/62/1
f 232/231/1 231/230/1 207/62/1
f 232/231/1 207/62/1 254/232/1
f 232/231/1 254/232/1 253/233/1
f 233/234/1 232/231/1 253/233/1
f 233/234/1 253/233/1 252/235/1
f 234/236/1 233/234/1 252/235/1
f 234/236/1 252/235/1 251/237/1
f 235/238/1 234/236/1 251/237/1
f 235/238/1 251/237/1 250/239/1
f 236/240/1 235/238/1 250/239/1
f 236/240/1 250/239/1 249/241/1
f 237/242/1 236/240/1 249/241/1
f 237/242/1 249/241/1 248/243/1
f 238/244/1 237/242/1 248/243/1
f 238/244/1 248/243/1 247/245/1
f 239/246/1 238/244/1 247/245/1
f 239/246/1 247/245/1 246/247/1
f 240/248/1 239/246/1 246/247/1
f 240/248/1 246/247/1 245/249/1
f 241/250/1 240/248/1 245/249/1
f 241/250/1 245/249/1 244/251/1
f 242/252/1 241/250/1 244/251/1
f 242/252/1 244/251/1 243/253/1
f 261/34/1 260/77/1 259/62/1
f 261/34/1 259/62/1 266/48/1
f 262/11/2 261/34/2 266/48/2
f 263/83/1 262/11/1 265/19/1
f 265/19/3 262/11/3 266/48/3
f 263/83/1 265/19/1 264/87/1
f 305/254/4 303/255/4 304/256/4
f 305/254/4 302/257/4 303/255/4
f 306/258/4 302/257/4 305/254/4
f 306/258/4 301/259/4 302/257/4
f 307/260/4 301/259/4 306/258/4
f 307/260/4 300/261/4 301/259/4
f 308/262/4 300/261/4 307/260/4
f 308/262/4 299/263/4 300/261/4
f 309/264/4 299/263/4 308/262/4
f 309/264/4 298/265/4 299/263/4
f 310/266/4 298/265/4 309/264/4
f 310/266/4 297/267/4 298/265/4
f 311/268/4 353/269/4 310/266/4
f 353/269/4 297/267/4 310/266/4
f 311/268/5 352/270/5 353/269/5
f 354/271/4 297/267/4 353/269/4
f 311/268/4 351/272/4 352/270/4
f 355/273/4 297/267/4 354/271/4
f 311/268/4 350/274/4 351/272/4
f 356/275/4 297/267/4 355/273/4
f 356/275/4 296/276/4 297/267/4
f 311/268/4 349/277/4 350/274/4
f 312/278/4 349/277/4 311/268/4
f 357/279/4 296/276/4 356/275/4
f 312/278/4 348/280/4 349/277/4
f 358/281/4 296/276/4 357/279/4
f 312/278/4 347/282/4 348/280/4
f 359/283/4 296/276/4 358/281/4
f 312/278/4 346/284/4 347/282/4
f 360/285/4 296/276/4 359/283/4
f 313/286/4 346/284/4 312/278/4
f 360/285/4 295/287/4 296/276/4
f 313/286/4 345/288/4 346/284/4
f 361/289/4 295/287/4 360/285/4
f 313/286/4 344/290/4 345/288/4
f 362/291/4 295/287/4 361/289/4
f 314/292/4 344/290/4 313/286/4
f 362/291/4 294/293/4 295/287/4
f 314/292/4 343/294/4 344/290/4
f 363/295/4 294/293/4 362/291/4
f 314/292/4 342/296/4 343/294/4
f 364/297/4 294/293/4 363/295/4
f 315/298/4 342/296/4 314/292/4
f 315/298/4 341/299/4 342/296/4
f 364/297/4 293/300/4 294/293/4
f 365/301/4 293/300/4 364/297/4
f 315/298/4 365/301/4 341/299/4
f 315/298/4 293/300/4 365/301/4
f 316/302/4 293/300/4 315/298/4
f 316/302/4 292/303/4 293/300/4
f 317/304/4 291/305/4 316/302/4
f 291/305/4 292/303/4 316/302/4
f 317/304/4 290/306/4 291/305/4
f 318/307/4 290/306/4 317/304/4
f 318/307/4 289/308/4 290/306/4
f 318/307/4 288/309/4 289/308/4
f 319/310/4 288/309/4 318/307/4
f 319/310/4 287/311/4 288/309/4
f 320/312/4 287/311/4 319/310/4
f 320/312/4 286/313/4 287/311/4
f 268/314/4 340/315/4 267/316/4
f 320/312/4 285/317/4 286/313/4
f 269/318/4 340/315/4 268/314/4
f 270/319/4 340/315/4 269/318/4
f 321/320/4 285/317/4 320/312/4
f 321/320/4 284/321/4 285/317/4
f 271/322/4 340/315/4 270/319/4
f 272/323/4 340/315/4 271/322/4
f 321/320/4 283/324/4 284/321/4
f 273/325/4 340/315/4 272/323/4
f 321/320/4 282/326/4 283/324/4
f 274/327/4 340/315/4 273/325/4
f 322/328/4 282/326/4 321/320/4
f 275/329/4 340/315/4 274/327/4
f 322/328/4 281/330/4 282/326/4
f 276/331/4 340/315/4 275/329/4
f 322/328/4 280/332/4 281/330/4
f 277/333/4 340/315/4 276/331/4
f 278/334/4 340/315/4 277/333/4
f 322/328/4 279/335/4 280/332/4
f 279/335/4 340/315/4 278/334/4
f 322/328/4 340/315/4 279/335/4
f 323/336/4 340/315/4 322/328/4
f 323/336/4 339/337/4 340/315/4
f 324/338/4 339/337/4 323/336/4
f 324/338/4 338/339/4 339/337/4
f 324/338/4 337/340/4 338/339/4
f 325/341/4 337/340/4 324/338/4
f 325/341/4 336/342/4 337/340/4
f 325/341/4 335/343/4 336/342/4
f 326/344/4 335/343/4 325/341/4
f 326/344/4 334/345/4 335/343/4
f 326/344/4 333/346/4 334/345/4
f 327/347/4 333/346/4 326/344/4
f 327/347/4 332/348/4 333/346/4
f 327/347/4 331/349/4 332/348/4
f 327/347/4 330/350/4 331/349/4
f 328/351/4 330/350/4 327/347/4
f 328/351/4 329/352/4 330/350/4
f 460/353/4 458/354/4 459/355/4
f 436/356/4 434/357/4 435/358/4
f 461/359/4 458/354/4 460/353/4
f 461/359/4 457/360/4 458/354/4
f 437/361/4 434/357/4 436/356/4
f 437/361/4 433/362/4 434/357/4
f 462/363/4 457/360/4 461/359/4
f 462/363/4 456/364/4 457/360/4
f 438/365/4 433/362/4 437/361/4
f 463/366/4 456/364/4 462/363/4
f 463/366/4 455/367/4 456/364/4
f 438/365/4 432/368/4 433/362/4
f 439/369/4 432/368/4 438/365/4
f 464/370/4 455/367/4 463/366/4
f 367/371/4 472/372/4 366/373/4
f 367/371/4 471/374/4 472/372/4
f 464/370/4 454/375/4 455/367/4
f 440/376/4 432/368/4 439/369/4
f 465/377/4 454/375/4 464/370/4
f 440/376/4 431/378/4 432/368/4
f 465/377/4 453/379/4 454/375/4
f 466/380/4 453/379/4 465/377/4
f 441/381/4 431/378/4 440/376/4
f 466/380/4 452/382/4 453/379/4
f 441/381/4 430/383/4 431/378/4
f 467/384/4 452/382/4 466/380/4
f 442/385/4 430/383/4 441/381/4
f 467/384/4 451/386/4 452/382/4
f 468/387/4 451/386/4 467/384/4
f 443/388/4 430/383/4 442/385/4
f 443/388/4 429/389/4 430/383/4
f 468/387/4 450/390/4 451/386/4
f 469/391/4 450/390/4 468/387/4
f 444/392/4 429/389/4 443/388/4
f 469/391/4 449/393/4 450/390/4
f 470/394/4 449/393/4 469/391/4
f 444/392/4 428/395/4 429/389/4
f 445/396/4 428/395/4 444/392/4
f 470/394/4 448/397/4 449/393/4
f 471/374/4 448/397/4 470/394/4
f 446/398/4 428/395/4 445/396/4
f 446/398/4 408/399/4 428/395/4
f 408/399/4 427/400/4 428/395/4
f 367/371/4 369/401/4 471/374/4
f 369/401/4 370/402/4 471/374/4
f 370/402/4 371/403/4 471/374/4
f 371/403/4 372/404/4 471/374/4
f 372/404/4 373/405/4 471/374/4
f 373/405/4 374/406/4 471/374/4
f 374/406/4 375/407/4 471/374/4
f 375/407/4 376/408/4 471/374/4
f 376/408/4 377/409/4 471/374/4
f 377/409/4 378/410/4 471/374/4
f 378/410/4 379/411/4 471/374/4
f 379/411/4 380/412/4 471/374/4
f 380/412/4 448/397/4 471/374/4
f 380/412/4 381/413/4 448/397/4
f 381/413/4 447/414/4 448/397/4
f 447/414/4 407/415/4 446/398/4
f 407/415/4 408/399/4 446/398/4
f 382/416/6 447/414/6 381/413/6
f 409/417/7 427/400/7 408/399/7
f 447/414/4 406/418/4 407/415/4
f 383/419/4 447/414/4 382/416/4
f 410/420/4 427/400/4 409/417/4
f 447/414/4 405/421/4 406/418/4
f 384/422/4 447/414/4 383/419/4
f 411/423/4 427/400/4 410/420/4
f 447/414/4 404/424/4 405/421/4
f 385/425/4 447/414/4 384/422/4
f 385/425/4 404/424/4 447/414/4
f 412/426/4 427/400/4 411/423/4
f 385/425/4 403/427/4 404/424/4
f 412/426/4 426/428/4 427/400/4
f 386/429/4 403/427/4 385/425/4
f 386/429/4 402/430/4 403/427/4
f 413/431/4 426/428/4 412/426/4
f 386/429/4 401/432/4 402/430/4
f 387/433/4 401/432/4 386/429/4
f 414/434/4 426/428/4 413/431/4
f 387/433/4 400/435/4 401/432/4
f 388/436/4 400/435/4 387/433/4
f 415/437/4 426/428/4 414/434/4
f 388/436/4 399/438/4 400/435/4
f 415/437/4 425/439/4 426/428/4
f 389/440/4 399/438/4 388/436/4
f 389/440/4 398/441/4 399/438/4
f 416/442/4 425/439/4 415/437/4
f 389/440/4 397/443/4 398/441/4
f 390/444/4 397/443/4 389/440/4
f 417/445/4 425/439/4 416/442/4
f 390/444/4 396/446/4 397/443/4
f 417/445/4 424/447/4 425/439/4
f 391/448/4 396/446/4 390/444/4
f 367/371/4 368/449/4 369/401/4
f 391/448/4 395/450/4 396/446/4
f 418/451/4 424/447/4 417/445/4
f 392/452/4 395/450/4 391/448/4
f 419/453/4 424/447/4 418/451/4
f 419/453/4 423/454/4 424/447/4
f 393/455/4 395/450/4 392/452/4
f 420/456/4 423/454/4 419/453/4
f 420/456/4 422/457/4 423/454/4
f 394/458/4 395/450/4 393/455/4
f 421/459/4 422/457/4 420/456/4
f 523/460/4 521/461/4 522/462/4
f 523/460/4 524/463/4 521/461/4
f 486/464/4 484/465/4 485/466/4
f 486/464/4 483/467/4 484/465/4
f 487/468/4 483/467/4 486/464/4
f 487/468/4 482/469/4 483/467/4
f 488/470/4 482/469/4 487/468/4
f 488/470/4 481/471/4 482/469/4
f 489/472/4 481/471/4 488/470/4
f 489/472/4 480/473/4 481/471/4
f 490/474/4 480/473/4 489/472/4
f 490/474/4 479/475/4 480/473/4
f 491/476/4 479/475/4 490/474/4
f 491/476/4 478/477/4 479/475/4
f 492/478/4 478/477/4 491/476/4
f 492/478/4 477/479/4 478/477/4
f 493/480/4 477/479/4 492/478/4
f 493/480/4 476/481/4 477/479/4
f 494/482/4 476/481/4 493/480/4
f 494/482/4 475/483/4 476/481/4
f 495/484/4 475/483/4 494/482/4
f 495/484/4 474/485/4 475/483/4
f 496/486/4 474/485/4 495/484/4
f 496/486/4 473/487/4 474/485/4
f 497/488/4 473/487/4 496/486/4
f 498/489/4 473/487/4 497/488/4
f 498/489/4 520/490/4 473/487/4
f 498/489/4 519/491/4 520/490/4
f 499/492/4 519/491/4 498/489/4
f 499/492/4 518/493/4 519/491/4
f 500/494/4 518/493/4 499/492/4
f 500/494/4 517/495/4 518/493/4
f 501/496/4 517/495/4 500/494/4
f 501/496/4 516/497/4 517/495/4
f 502/498/4 516/497/4 501/496/4
f 502/498/4 515/499/4 516/497/4
f 503/500/4 515/499/4 502/498/4
f 503/500/4 514/501/4 515/499/4
f 504/502/4 514/501/4 503/500/4
f 504/502/4 513/503/4 514/501/4
f 505/504/4 513/503/4 504/502/4
f 505/504/4 512/505/4 513/503/4
f 506/506/4 512/505/4 505/504/4
f 506/506/4 511/507/4 512/505/4
f 507/508/4 511/507/4 506/506/4
f 507/508/4 510/509/4 511/507/4
f 508/510/4 510/509/4 507/508/4
f 508/510/4 509/511/4 510/509/4
f 527/512/4 525/513/4 526/514/4
f 527/512/4 532/515/4 525/513/4
f 528/516/2 532/515/2 527/512/2
f 529/517/4 531/518/4 528/516/4
f 531/518/2 532/515/2 528/516/2
f 529/517/4 530/519/4 531/518/4
f 105/148/8 106/149/8 372/149/8 371/148/8
f 66/95/9 67/93/9 333/93/9 332/95/9
f 48/39/10 49/45/10 315/45/10 314/39/10
f 244/251/11 245/249/11 511/249/11 510/251/11
f 157/198/12 158/192/12 424/192/12 423/198/12
f 241/250/13 242/252/13 508/252/13 507/250/13
f 126/197/14 127/199/14 393/199/14 392/197/14
f 106/149/15 107/150/15 373/150/15 372/149/15
f 65/96/16 66/95/16 332/95/16 331/96/16
f 75/46/17 76/43/17 342/43/17 341/46/17
f 242/252/18 243/253/18 509/253/18 508/252/18
f 153/49/19 154/200/19 420/200/19 419/49/19
f 107/150/20 108/151/20 374/151/20 373/150/20
f 64/97/21 65/96/21 331/96/21 330/97/21
f 243/253/22 244/251/22 510/251/22 509/253/22
f 61/94/23 62/98/23 328/98/23 327/94/23
f 27/47/24 28/40/24 294/40/24 293/47/24
f 260/77/25 261/34/25 527/34/25 526/77/25
f 108/151/26 109/152/26 375/152/26 374/151/26
f 98/44/27 99/48/27 365/48/27 364/44/27
f 156/201/28 157/198/28 423/198/28 422/201/28
f 62/98/29 63/99/29 329/99/29 328/98/29
f 259/62/2 260/77/2 526/77/2 525/62/2
f 127/199/25 128/202/25 394/202/25 393/199/25
f 109/152/30 110/153/30 376/153/30 375/152/30
f 63/99/31 64/97/31 330/97/31 329/99/31
f 128/202/3 129/195/3 395/195/3 394/202/3
f 193/101/32 194/100/32 460/100/32 459/101/32
f 99/48/2 75/46/2 341/46/2 365/48/2
f 266/48/28 259/62/28 525/62/28 532/48/28
f 154/200/25 155/203/25 421/203/25 420/200/25
f 110/153/33 111/154/33 377/154/33 376/153/33
f 261/34/3 262/11/3 528/11/3 527/34/3
f 155/203/3 156/201/3 422/201/3 421/203/3
f 192/102/34 193/101/34 459/101/34 458/102/34
f 49/45/35 50/49/35 316/49/35 315/45/35
f 256/205/25 257/204/25 523/204/25 522/205/25
f 111/154/36 112/155/36 378/155/36 377/154/36
f 169/104/37 170/103/37 436/103/37 435/104/37
f 262/11/25 263/83/25 529/83/25 528/11/25
f 255/206/2 256/205/2 522/205/2 521/206/2
f 112/155/38 113/156/38 379/156/38 378/155/38
f 168/105/39 169/104/39 435/104/39 434/105/39
f 26/50/40 27/47/40 293/47/40 292/50/40
f 257/204/3 258/48/3 524/48/3 523/204/3
f 194/100/41 195/106/41 461/106/41 460/100/41
f 50/49/42 51/51/42 317/51/42 316/49/42
f 265/19/3 266/48/3 532/48/3 531/19/3
f 258/48/28 255/206/28 521/206/28 524/48/28
f 113/156/43 114/157/43 380/157/43 379/156/43
f 263/83/3 264/87/3 530/87/3 529/83/3
f 219/208/44 220/207/44 486/207/44 485/208/44
f 264/87/28 265/19/28 531/19/28 530/87/28
f 191/107/45 192/102/45 458/102/45 457/107/45
f 25/52/3 26/50/3 292/50/3 291/52/3
f 218/209/46 219/208/46 485/208/46 484/209/46
f 114/157/47 115/158/47 381/158/47 380/157/47
f 170/103/48 171/108/48 437/108/48 436/103/48
f 38/2/49 39/1/49 305/1/49 304/2/49
f 24/53/50 25/52/50 291/52/50 290/53/50
f 217/210/51 218/209/51 484/209/51 483/210/51
f 51/51/52 52/54/52 318/54/52 317/51/52
f 37/3/53 38/2/53 304/2/53 303/3/53
f 220/207/54 221/211/54 487/211/54 486/207/54
f 181/159/55 182/142/55 448/142/55 447/159/55
f 167/109/56 168/105/56 434/105/56 433/109/56
f 180/143/57 181/159/57 447/159/57 446/143/57
f 195/106/58 196/110/58 462/110/58 461/106/58
f 36/4/59 37/3/59 303/3/59 302/4/59
f 23/55/60 24/53/60 290/53/60 289/55/60
f 39/1/61 40/5/61 306/5/61 305/1/61
f 216/212/62 217/210/62 483/210/62 482/212/62
f 221/211/63 222/213/63 488/213/63 487/211/63
f 141/160/64 142/144/64 408/144/64 407/160/64
f 190/111/65 191/107/65 457/107/65 456/111/65
f 22/56/66 23/55/66 289/55/66 288/56/66
f 115/158/67 116/161/67 382/161/67 381/158/67
f 171/108/68 172/112/68 438/112/68 437/108/68
f 52/54/69 53/57/69 319/57/69 318/54/69
f 35/6/70 36/4/70 302/4/70 301/6/70
f 40/5/71 41/7/71 307/7/71 306/5/71
f 215/214/72 216/212/72 482/212/72 481/214/72
f 142/144/73 143/162/73 409/162/73 408/144/73
f 196/110/74 197/113/74 463/113/74 462/110/74
f 222/213/75 223/215/75 489/215/75 488/213/75
f 21/58/76 22/56/76 288/56/76 287/58/76
f 53/57/77 54/59/77 320/59/77 319/57/77
f 34/8/78 35/6/78 301/6/78 300/8/78
f 140/163/79 141/160/79 407/160/79 406/163/79
f 189/114/80 190/111/80 456/111/80 455/114/80
f 41/7/81 42/9/81 308/9/81 307/7/81
f 214/216/82 215/214/82 481/214/82 480/216/82
f 116/161/83 117/164/83 383/164/83 382/161/83
f 223/215/84 224/217/84 490/217/84 489/215/84
f 166/115/85 167/109/85 433/109/85 432/115/85
f 20/60/86 21/58/86 287/58/86 286/60/86
f 143/162/83 144/165/83 410/165/83 409/162/83
f 172/112/87 173/116/87 439/116/87 438/112/87
f 1/62/88 2/61/88 268/61/88 267/62/88
f 33/10/89 34/8/89 300/8/89 299/10/89
f 42/9/90 43/11/90 309/11/90 308/9/90
f 213/218/91 214/216/91 480/216/91 479/218/91
f 197/113/92 198/117/92 464/117/92 463/113/92
f 74/63/28 1/62/28 267/62/28 340/63/28
f 224/217/93 225/219/93 491/219/93 490/217/93
f 139/166/94 140/163/94 406/163/94 405/166/94
f 117/164/95 118/167/95 384/167/95 383/164/95
f 100/62/25 101/118/25 367/118/25 366/62/25
f 19/64/96 20/60/96 286/60/96 285/64/96
f 32/12/97 33/10/97 299/10/97 298/12/97
f 2/61/98 3/65/98 269/65/98 268/61/98
f 43/11/99 44/13/99 310/13/99 309/11/99
f 212/220/100 213/218/100 479/218/100 478/220/100
f 144/165/101 145/168/101 411/168/101 410/165/101
f 206/48/2 100/62/2 366/62/2 472/48/2
f 225/219/102 226/221/102 492/221/102 491/219/102
f 3/65/103 4/66/103 270/66/103 269/65/103
f 205/119/28 206/48/28 472/48/28 471/119/28
f 31/14/104 32/12/104 298/12/104 297/14/104
f 138/169/105 139/166/105 405/166/105 404/169/105
f 54/59/106 55/67/106 321/67/106 320/59/106
f 44/13/107 45/15/107 311/15/107 310/13/107
f 211/222/108 212/220/108 478/220/108 477/222/108
f 118/167/109 119/170/109 385/170/109 384/167/109
f 188/120/110 189/114/110 455/114/110 454/120/110
f 226/221/111 227/223/111 493/223/111 492/221/111
f 173/116/112 174/121/112 440/121/112 439/116/112
f 18/68/113 19/64/113 285/64/113 284/68/113
f 145/168/114 146/171/114 412/171/114 411/168/114
f 198/117/115 199/122/115 465/122/115 464/117/115
f 4/66/116 5/69/116 271/69/116 270/66/116
f 210/224/117 211/222/117 477/222/117 476/224/117
f 86/17/118 87/16/118 353/16/118 352/17/118
f 227/223/119 228/225/119 494/225/119 493/223/119
f 5/69/120 6/70/120 272/70/120 271/69/120
f 87/16/121 88/18/121 354/18/121 353/16/121
f 137/172/122 138/169/122 404/169/122 403/172/122
f 165/123/123 166/115/123 432/115/123 431/123/123
f 209/226/124 210/224/124 476/224/124 475/226/124
f 160/173/125 161/145/125 427/145/125 426/173/125
f 187/124/126 188/120/126 454/120/126 453/124/126
f 17/71/127 18/68/127 284/68/127 283/71/127
f 85/19/128 86/17/128 352/17/128 351/19/128
f 228/225/129 229/227/129 495/227/129 494/225/129
f 119/170/130 120/174/130 386/174/130 385/170/130
f 199/122/131 200/125/131 466/125/131 465/122/131
f 6/70/132 7/72/132 273/72/132 272/70/132
f 88/18/133 89/20/133 355/20/133 354/18/133
f 174/121/134 175/126/134 441/126/134 440/121/134
f 208/228/135 209/226/135 475/226/135 474/228/135
f 136/175/136 137/172/136 403/172/136 402/175/136
f 16/73/137 17/71/137 283/71/137 282/73/137
f 84/21/138 85/19/138 351/19/138 350/21/138
f 229/227/139 230/229/139 496/229/139 495/227/139
f 146/171/140 147/176/140 413/176/140 412/171/140
f 7/72/141 8/74/141 274/74/141 273/72/141
f 89/20/142 90/22/142 356/22/142 355/20/142
f 186/127/143 187/124/143 453/124/143 452/127/143
f 55/67/144 56/75/144 322/75/144 321/67/144
f 207/62/145 208/228/145 474/228/145 473/62/145
f 135/177/146 136/175/146 402/175/146 401/177/146
f 164/128/147 165/123/147 431/123/147 430/128/147
f 30/23/148 31/14/148 297/14/148 296/23/148
f 230/229/149 231/230/149 497/230/149 496/229/149
f 120/174/150 121/178/150 387/178/150 386/174/150
f 200/125/151 201/129/151 467/129/151 466/125/151
f 8/74/152 9/76/152 275/76/152 274/74/152
f 83/24/153 84/21/153 350/21/153 349/24/153
f 231/230/154 232/231/154 498/231/154 497/230/154
f 147/176/155 148/179/155 414/179/155 413/176/155
f 175/126/156 176/130/156 442/130/156 441/126/156
f 45/15/157 46/25/157 312/25/157 311/15/157
f 15/77/158 16/73/158 282/73/158 281/77/158
f 9/76/159 10/78/159 276/78/159 275/76/159
f 90/22/160 91/26/160 357/26/160 356/22/160
f 254/232/161 207/62/161 473/62/161 520/232/161
f 134/180/162 135/177/162 401/177/162 400/180/162
f 185/131/163 186/127/163 452/127/163 451/131/163
f 121/178/164 122/181/164 388/181/164 387/178/164
f 201/129/165 202/132/165 468/132/165 467/129/165
f 253/233/166 254/232/166 520/232/166 519/233/166
f 14/79/167 15/77/167 281/77/167 280/79/167
f 82/27/168 83/24/168 349/24/168 348/27/168
f 232/231/169 233/234/169 499/234/169 498/231/169
f 148/179/170 149/182/170 415/182/170 414/179/170
f 176/130/171 177/133/171 443/133/171 442/130/171
f 10/78/172 11/80/172 277/80/172 276/78/172
f 91/26/173 92/28/173 358/28/173 357/26/173
f 11/80/174 12/81/174 278/81/174 277/80/174
f 252/235/175 253/233/175 519/233/175 518/235/175
f 133/183/176 134/180/176 400/180/176 399/183/176
f 163/134/177 164/128/177 430/128/177 429/134/177
f 81/29/178 82/27/178 348/27/178 347/29/178
f 233/234/179 234/236/179 500/236/179 499/234/179
f 92/28/180 93/30/180 359/30/180 358/28/180
f 159/184/181 160/173/181 426/173/181 425/184/181
f 184/135/182 185/131/182 451/131/182 450/135/182
f 13/82/183 14/79/183 280/79/183 279/82/183
f 122/181/184 123/185/184 389/185/184 388/181/184
f 202/132/185 203/136/185 469/136/185 468/132/185
f 12/81/186 13/82/186 279/82/186 278/81/186
f 251/237/187 252/235/187 518/235/187 517/237/187
f 80/31/188 81/29/188 347/29/188 346/31/188
f 234/236/189 235/238/189 501/238/189 500/236/189
f 177/133/190 178/137/190 444/137/190 443/133/190
f 93/30/191 94/32/191 360/32/191 359/30/191
f 132/186/192 133/183/192 399/183/192 398/186/192
f 56/75/193 57/83/193 323/83/193 322/75/193
f 149/182/194 150/187/194 416/187/194 415/182/194
f 46/25/195 47/33/195 313/33/195 312/25/195
f 250/239/196 251/237/196 517/237/196 516/239/196
f 183/138/197 184/135/197 450/135/197 449/138/197
f 235/238/198 236/240/198 502/240/198 501/238/198
f 203/136/199 204/139/199 470/139/199 469/136/199
f 73/84/200 74/63/200 340/63/200 339/84/200
f 131/188/201 132/186/201 398/186/201 397/188/201
f 57/83/202 58/85/202 324/85/202 323/83/202
f 29/34/203 30/23/203 296/23/203 295/34/203
f 123/185/204 124/189/204 390/189/204 389/185/204
f 249/241/205 250/239/205 516/239/205 515/241/205
f 162/140/206 163/134/206 429/134/206 428/140/206
f 79/35/207 80/31/207 346/31/207 345/35/207
f 236/240/208 237/242/208 503/242/208 502/240/208
f 150/187/209 151/190/209 417/190/209 416/187/209
f 178/137/210 179/141/210 445/141/210 444/137/210
f 72/86/211 73/84/211 339/84/211 338/86/211
f 94/32/212 95/36/212 361/36/212 360/32/212
f 71/87/213 72/86/213 338/86/213 337/87/213
f 248/243/214 249/241/214 515/241/214 514/243/214
f 130/191/215 131/188/215 397/188/215 396/191/215
f 182/142/216 183/138/216 449/138/216 448/142/216
f 58/85/217 59/88/217 325/88/217 324/85/217
f 78/37/218 79/35/218 345/35/218 344/37/218
f 237/242/219 238/244/219 504/244/219 503/242/219
f 204/139/220 205/119/220 471/119/220 470/139/220
f 95/36/221 96/38/221 362/38/221 361/36/221
f 158/192/222 159/184/222 425/184/222 424/192/222
f 124/189/223 125/193/223 391/193/223 390/189/223
f 179/141/224 180/143/224 446/143/224 445/141/224
f 70/89/225 71/87/225 337/87/225 336/89/225
f 47/33/226 48/39/226 314/39/226 313/33/226
f 247/245/227 248/243/227 514/243/227 513/245/227
f 238/244/228 239/246/228 505/246/228 504/244/228
f 101/118/3 102/194/3 368/194/3 367/118/3
f 69/90/229 70/89/229 336/89/229 335/90/229
f 102/194/28 103/146/28 369/146/28 368/194/28
f 59/88/230 60/91/230 326/91/230 325/88/230
f 28/40/231 29/34/231 295/34/231 294/40/231
f 246/247/232 247/245/232 513/245/232 512/247/232
f 129/195/28 130/191/28 396/191/28 395/195/28
f 161/145/233 162/140/233 428/140/233 427/145/233
f 77/41/234 78/37/234 344/37/234 343/41/234
f 239/246/235 240/248/235 506/248/235 505/246/235
f 151/190/236 152/196/236 418/196/236 417/190/236
f 68/92/237 69/90/237 335/90/237 334/92/237
f 96/38/238 97/42/238 363/42/238 362/38/238
f 125/193/239 126/197/239 392/197/239 391/193/239
f 103/146/240 104/147/240 370/147/240 369/146/240
f 67/93/241 68/92/241 334/92/241 333/93/241
f 245/249/242 246/247/242 512/247/242 511/249/242
f 60/91/243 61/94/243 327/94/243 326/91/243
f 76/43/244 77/41/244 343/41/244 342/43/244
f 240/248/245 241/250/245 507/250/245 506/248/245
f 152/196/246 153/49/246 419/49/246 418/196/246
f 104/147/247 105/148/247 371/148/247 370/147/247
f 97/42/248 98/44/248 364/44/248 363/42/248
