# Blender 4.4.1
# www.blender.org
mtllib Ranking.mtl
o テキスト
v 2.364458 0.336000 0.000000
v 2.135458 0.336000 0.000000
v 2.135458 0.248000 0.000000
v 2.266458 0.248000 0.000000
v 2.266458 0.108000 0.000000
v 2.254685 0.104318 0.000000
v 2.242856 0.100792 0.000000
v 2.230958 0.097453 0.000000
v 2.218976 0.094333 0.000000
v 2.206897 0.091464 0.000000
v 2.194708 0.088875 0.000000
v 2.182393 0.086599 0.000000
v 2.169939 0.084667 0.000000
v 2.157333 0.083109 0.000000
v 2.144560 0.081958 0.000000
v 2.131606 0.081245 0.000000
v 2.118458 0.081000 0.000000
v 2.078996 0.083193 0.000000
v 2.041764 0.089630 0.000000
v 2.006989 0.100094 0.000000
v 1.974902 0.114370 0.000000
v 1.945732 0.132244 0.000000
v 1.919708 0.153500 0.000000
v 1.897059 0.177922 0.000000
v 1.878014 0.205296 0.000000
v 1.862802 0.235406 0.000000
v 1.851652 0.268037 0.000000
v 1.844795 0.302973 0.000000
v 1.842458 0.340000 0.000000
v 1.844806 0.376226 0.000000
v 1.851662 0.410722 0.000000
v 1.862739 0.443219 0.000000
v 1.877754 0.473444 0.000000
v 1.896422 0.501129 0.000000
v 1.918458 0.526000 0.000000
v 1.943577 0.547788 0.000000
v 1.971495 0.566222 0.000000
v 2.001927 0.581031 0.000000
v 2.034588 0.591945 0.000000
v 2.069193 0.598691 0.000000
v 2.105458 0.601000 0.000000
v 2.125976 0.600522 0.000000
v 2.146523 0.599093 0.000000
v 2.167083 0.596719 0.000000
v 2.187643 0.593407 0.000000
v 2.208190 0.589166 0.000000
v 2.228708 0.584000 0.000000
v 2.249185 0.577918 0.000000
v 2.269606 0.570926 0.000000
v 2.289958 0.563031 0.000000
v 2.310227 0.554241 0.000000
v 2.330398 0.544561 0.000000
v 2.350458 0.534000 0.000000
v 2.350458 0.633000 0.000000
v 2.324727 0.643594 0.000000
v 2.300861 0.652921 0.000000
v 2.278599 0.661047 0.000000
v 2.257680 0.668037 0.000000
v 2.237845 0.673958 0.000000
v 2.218833 0.678875 0.000000
v 2.200383 0.682855 0.000000
v 2.182236 0.685963 0.000000
v 2.164130 0.688266 0.000000
v 2.145805 0.689829 0.000000
v 2.127002 0.690718 0.000000
v 2.107458 0.691000 0.000000
v 2.056562 0.687873 0.000000
v 2.008125 0.678736 0.000000
v 1.962520 0.663953 0.000000
v 1.920125 0.643889 0.000000
v 1.881312 0.618908 0.000000
v 1.846458 0.589375 0.000000
v 1.815937 0.555655 0.000000
v 1.790125 0.518111 0.000000
v 1.769396 0.477109 0.000000
v 1.754125 0.433014 0.000000
v 1.744687 0.386189 0.000000
v 1.741458 0.337000 0.000000
v 1.744609 0.288178 0.000000
v 1.753833 0.241926 0.000000
v 1.768786 0.198563 0.000000
v 1.789124 0.158407 0.000000
v 1.814505 0.121780 0.000000
v 1.844583 0.089000 0.000000
v 1.879015 0.060387 0.000000
v 1.917458 0.036259 0.000000
v 1.959567 0.016938 0.000000
v 2.004999 0.002741 0.000000
v 2.053411 -0.006011 -0.000000
v 2.104458 -0.009000 -0.000000
v 2.127793 -0.008662 -0.000000
v 2.150384 -0.007630 -0.000000
v 2.172364 -0.005875 -0.000000
v 2.193866 -0.003370 -0.000000
v 2.215019 -0.000088 -0.000000
v 2.235958 0.004000 0.000000
v 2.256813 0.008921 0.000000
v 2.277717 0.014704 0.000000
v 2.298802 0.021375 0.000000
v 2.320199 0.028963 0.000000
v 2.342040 0.037495 0.000000
v 2.364458 0.047000 0.000000
v 1.616458 0.682000 0.000000
v 1.524458 0.682000 0.000000
v 1.524458 0.154000 0.000000
v 1.062458 0.682000 0.000000
v 0.984458 0.682000 0.000000
v 0.984458 0.000000 0.000000
v 1.076458 0.000000 0.000000
v 1.076458 0.525000 0.000000
v 1.532458 0.000000 0.000000
v 1.616458 0.000000 0.000000
v 0.834458 0.682000 0.000000
v 0.736458 0.682000 0.000000
v 0.736458 0.000000 0.000000
v 0.834458 0.000000 0.000000
v 0.289458 0.359000 0.000000
v 0.586458 0.682000 0.000000
v 0.464458 0.682000 0.000000
v 0.177458 0.370000 0.000000
v 0.177458 0.682000 0.000000
v 0.079458 0.682000 0.000000
v 0.079458 0.000000 0.000000
v 0.177458 0.000000 0.000000
v 0.177458 0.337000 0.000000
v 0.524458 0.000000 0.000000
v 0.659458 0.000000 0.000000
v -0.070542 0.682000 0.000000
v -0.162542 0.682000 0.000000
v -0.162542 0.154000 0.000000
v -0.624542 0.682000 0.000000
v -0.702542 0.682000 0.000000
v -0.702542 0.000000 0.000000
v -0.610542 0.000000 0.000000
v -0.610542 0.525000 0.000000
v -0.154542 0.000000 0.000000
v -0.070542 0.000000 0.000000
v -1.081542 0.686000 0.000000
v -1.150542 0.686000 0.000000
v -1.443542 0.000000 0.000000
v -1.343542 0.000000 0.000000
v -1.257542 0.201000 0.000000
v -0.967542 0.201000 0.000000
v -0.876542 0.000000 0.000000
v -0.776542 0.000000 0.000000
v -1.117542 0.536000 0.000000
v -1.007542 0.289000 0.000000
v -1.219542 0.289000 0.000000
v -1.970542 0.682000 0.000000
v -1.970542 0.000000 0.000000
v -1.872542 0.000000 0.000000
v -1.872542 0.296000 0.000000
v -1.831542 0.296000 0.000000
v -1.819196 0.295604 0.000000
v -1.807024 0.294167 0.000000
v -1.794824 0.291313 0.000000
v -1.782394 0.286667 0.000000
v -1.769534 0.279854 0.000000
v -1.756042 0.270500 0.000000
v -1.741717 0.258229 0.000000
v -1.726357 0.242667 0.000000
v -1.709761 0.223437 0.000000
v -1.691727 0.200167 0.000000
v -1.672055 0.172479 0.000000
v -1.650542 0.140000 0.000000
v -1.560542 0.000000 0.000000
v -1.443542 0.000000 0.000000
v -1.454692 0.015413 0.000000
v -1.464737 0.029306 0.000000
v -1.473824 0.041906 0.000000
v -1.482098 0.053444 0.000000
v -1.489705 0.064149 0.000000
v -1.496792 0.074250 0.000000
v -1.503504 0.083976 0.000000
v -1.509987 0.093556 0.000000
v -1.516386 0.103219 0.000000
v -1.522848 0.113194 0.000000
v -1.529518 0.123712 0.000000
v -1.536542 0.135000 0.000000
v -1.549273 0.155792 0.000000
v -1.561552 0.175667 0.000000
v -1.573511 0.194625 0.000000
v -1.585283 0.212667 0.000000
v -1.596999 0.229792 0.000000
v -1.608792 0.246000 0.000000
v -1.620793 0.261292 0.000000
v -1.633135 0.275667 0.000000
v -1.645949 0.289125 0.000000
v -1.659366 0.301667 0.000000
v -1.673520 0.313292 0.000000
v -1.688542 0.324000 0.000000
v -1.670964 0.331869 0.000000
v -1.654751 0.340954 0.000000
v -1.639933 0.351219 0.000000
v -1.626542 0.362630 0.000000
v -1.614610 0.375152 0.000000
v -1.604167 0.388750 0.000000
v -1.595245 0.403390 0.000000
v -1.587876 0.419037 0.000000
v -1.582089 0.435656 0.000000
v -1.577917 0.453213 0.000000
v -1.575391 0.471673 0.000000
v -1.574542 0.491000 0.000000
v -1.576314 0.519546 0.000000
v -1.581552 0.546120 0.000000
v -1.590136 0.570625 0.000000
v -1.601950 0.592963 0.000000
v -1.616874 0.613037 0.000000
v -1.634792 0.630750 0.000000
v -1.655585 0.646005 0.000000
v -1.679135 0.658704 0.000000
v -1.705324 0.668750 0.000000
v -1.734033 0.676046 0.000000
v -1.765145 0.680495 0.000000
v -1.798542 0.682000 0.000000
v -1.872542 0.598000 0.000000
v -1.809542 0.598000 0.000000
v -1.786968 0.597196 0.000000
v -1.766700 0.594815 0.000000
v -1.748667 0.590906 0.000000
v -1.732802 0.585519 0.000000
v -1.719033 0.578700 0.000000
v -1.707292 0.570500 0.000000
v -1.697510 0.560966 0.000000
v -1.689616 0.550148 0.000000
v -1.683542 0.538094 0.000000
v -1.679218 0.524852 0.000000
v -1.676575 0.510471 0.000000
v -1.675542 0.495000 0.000000
v -1.675964 0.480842 0.000000
v -1.677829 0.466986 0.000000
v -1.681292 0.453609 0.000000
v -1.686505 0.440889 0.000000
v -1.693621 0.429002 0.000000
v -1.702792 0.418125 0.000000
v -1.714172 0.408436 0.000000
v -1.727913 0.400111 0.000000
v -1.744167 0.393328 0.000000
v -1.763089 0.388264 0.000000
v -1.784829 0.385095 0.000000
v -1.809542 0.384000 0.000000
v -1.872542 0.384000 0.000000
v 2.364458 0.336000 0.157057
v 2.135458 0.336000 0.157057
v 2.135458 0.248000 0.157057
v 2.266458 0.248000 0.157057
v 2.266458 0.108000 0.157057
v 2.254685 0.104318 0.157057
v 2.242856 0.100792 0.157057
v 2.230958 0.097453 0.157057
v 2.218976 0.094333 0.157057
v 2.206897 0.091464 0.157057
v 2.194708 0.088875 0.157057
v 2.182393 0.086599 0.157057
v 2.169939 0.084667 0.157057
v 2.157333 0.083109 0.157057
v 2.144560 0.081958 0.157057
v 2.131606 0.081245 0.157057
v 2.118458 0.081000 0.157057
v 2.078996 0.083193 0.157057
v 2.041764 0.089630 0.157057
v 2.006989 0.100094 0.157057
v 1.974902 0.114370 0.157057
v 1.945732 0.132244 0.157057
v 1.919708 0.153500 0.157057
v 1.897059 0.177922 0.157057
v 1.878014 0.205296 0.157057
v 1.862802 0.235406 0.157057
v 1.851652 0.268037 0.157057
v 1.844795 0.302973 0.157057
v 1.842458 0.340000 0.157057
v 1.844806 0.376226 0.157057
v 1.851662 0.410722 0.157057
v 1.862739 0.443219 0.157057
v 1.877754 0.473444 0.157057
v 1.896422 0.501129 0.157057
v 1.918458 0.526000 0.157057
v 1.943577 0.547788 0.157057
v 1.971495 0.566222 0.157057
v 2.001927 0.581031 0.157057
v 2.034588 0.591945 0.157057
v 2.069193 0.598691 0.157057
v 2.105458 0.601000 0.157057
v 2.125976 0.600522 0.157057
v 2.146523 0.599093 0.157057
v 2.167083 0.596719 0.157057
v 2.187643 0.593407 0.157057
v 2.208190 0.589166 0.157057
v 2.228708 0.584000 0.157057
v 2.249185 0.577918 0.157057
v 2.269606 0.570926 0.157057
v 2.289958 0.563031 0.157057
v 2.310227 0.554241 0.157057
v 2.330398 0.544561 0.157057
v 2.350458 0.534000 0.157057
v 2.350458 0.633000 0.157057
v 2.324727 0.643594 0.157057
v 2.300861 0.652921 0.157057
v 2.278599 0.661047 0.157057
v 2.257680 0.668037 0.157057
v 2.237845 0.673958 0.157057
v 2.218833 0.678875 0.157057
v 2.200383 0.682855 0.157057
v 2.182236 0.685963 0.157057
v 2.164130 0.688266 0.157057
v 2.145805 0.689829 0.157057
v 2.127002 0.690718 0.157057
v 2.107458 0.691000 0.157057
v 2.056562 0.687873 0.157057
v 2.008125 0.678736 0.157057
v 1.962520 0.663953 0.157057
v 1.920125 0.643889 0.157057
v 1.881312 0.618908 0.157057
v 1.846458 0.589375 0.157057
v 1.815937 0.555655 0.157057
v 1.790125 0.518111 0.157057
v 1.769396 0.477109 0.157057
v 1.754125 0.433014 0.157057
v 1.744687 0.386189 0.157057
v 1.741458 0.337000 0.157057
v 1.744609 0.288178 0.157057
v 1.753833 0.241926 0.157057
v 1.768786 0.198563 0.157057
v 1.789124 0.158407 0.157057
v 1.814505 0.121780 0.157057
v 1.844583 0.089000 0.157057
v 1.879015 0.060387 0.157057
v 1.917458 0.036259 0.157057
v 1.959567 0.016938 0.157057
v 2.004999 0.002741 0.157057
v 2.053411 -0.006011 0.157057
v 2.104458 -0.009000 0.157057
v 2.127793 -0.008662 0.157057
v 2.150384 -0.007630 0.157057
v 2.172364 -0.005875 0.157057
v 2.193866 -0.003370 0.157057
v 2.215019 -0.000088 0.157057
v 2.235958 0.004000 0.157057
v 2.256813 0.008921 0.157057
v 2.277717 0.014704 0.157057
v 2.298802 0.021375 0.157057
v 2.320199 0.028963 0.157057
v 2.342040 0.037495 0.157057
v 2.364458 0.047000 0.157057
v 1.616458 0.682000 0.157057
v 1.524458 0.682000 0.157057
v 1.524458 0.154000 0.157057
v 1.062458 0.682000 0.157057
v 0.984458 0.682000 0.157057
v 0.984458 -0.000000 0.157057
v 1.076458 -0.000000 0.157057
v 1.076458 0.525000 0.157057
v 1.532458 -0.000000 0.157057
v 1.616458 -0.000000 0.157057
v 0.834458 0.682000 0.157057
v 0.736458 0.682000 0.157057
v 0.736458 -0.000000 0.157057
v 0.834458 -0.000000 0.157057
v 0.289458 0.359000 0.157057
v 0.586458 0.682000 0.157057
v 0.464458 0.682000 0.157057
v 0.177458 0.370000 0.157057
v 0.177458 0.682000 0.157057
v 0.079458 0.682000 0.157057
v 0.079458 -0.000000 0.157057
v 0.177458 -0.000000 0.157057
v 0.177458 0.337000 0.157057
v 0.524458 -0.000000 0.157057
v 0.659458 -0.000000 0.157057
v -0.070542 0.682000 0.157057
v -0.162542 0.682000 0.157057
v -0.162542 0.154000 0.157057
v -0.624542 0.682000 0.157057
v -0.702542 0.682000 0.157057
v -0.702542 -0.000000 0.157057
v -0.610542 -0.000000 0.157057
v -0.610542 0.525000 0.157057
v -0.154542 -0.000000 0.157057
v -0.070542 -0.000000 0.157057
v -1.081542 0.686000 0.157057
v -1.150542 0.686000 0.157057
v -1.443542 -0.000000 0.157057
v -1.343542 -0.000000 0.157057
v -1.257542 0.201000 0.157057
v -0.967542 0.201000 0.157057
v -0.876542 -0.000000 0.157057
v -0.776542 -0.000000 0.157057
v -1.117542 0.536000 0.157057
v -1.007542 0.289000 0.157057
v -1.219542 0.289000 0.157057
v -1.970542 0.682000 0.157057
v -1.970542 -0.000000 0.157057
v -1.872542 -0.000000 0.157057
v -1.872542 0.296000 0.157057
v -1.831542 0.296000 0.157057
v -1.819196 0.295604 0.157057
v -1.807024 0.294167 0.157057
v -1.794824 0.291313 0.157057
v -1.782394 0.286667 0.157057
v -1.769534 0.279854 0.157057
v -1.756042 0.270500 0.157057
v -1.741717 0.258229 0.157057
v -1.726357 0.242667 0.157057
v -1.709761 0.223437 0.157057
v -1.691727 0.200167 0.157057
v -1.672055 0.172479 0.157057
v -1.650542 0.140000 0.157057
v -1.560542 -0.000000 0.157057
v -1.443542 -0.000000 0.157057
v -1.454692 0.015413 0.157057
v -1.464737 0.029306 0.157057
v -1.473824 0.041906 0.157057
v -1.482098 0.053444 0.157057
v -1.489705 0.064149 0.157057
v -1.496792 0.074250 0.157057
v -1.503504 0.083976 0.157057
v -1.509987 0.093556 0.157057
v -1.516386 0.103219 0.157057
v -1.522848 0.113194 0.157057
v -1.529518 0.123712 0.157057
v -1.536542 0.135000 0.157057
v -1.549273 0.155792 0.157057
v -1.561552 0.175667 0.157057
v -1.573511 0.194625 0.157057
v -1.585283 0.212667 0.157057
v -1.596999 0.229792 0.157057
v -1.608792 0.246000 0.157057
v -1.620793 0.261292 0.157057
v -1.633135 0.275667 0.157057
v -1.645949 0.289125 0.157057
v -1.659366 0.301667 0.157057
v -1.673520 0.313292 0.157057
v -1.688542 0.324000 0.157057
v -1.670964 0.331869 0.157057
v -1.654751 0.340954 0.157057
v -1.639933 0.351219 0.157057
v -1.626542 0.362630 0.157057
v -1.614610 0.375152 0.157057
v -1.604167 0.388750 0.157057
v -1.595245 0.403390 0.157057
v -1.587876 0.419037 0.157057
v -1.582089 0.435656 0.157057
v -1.577917 0.453213 0.157057
v -1.575391 0.471673 0.157057
v -1.574542 0.491000 0.157057
v -1.576314 0.519546 0.157057
v -1.581552 0.546120 0.157057
v -1.590136 0.570625 0.157057
v -1.601950 0.592963 0.157057
v -1.616874 0.613037 0.157057
v -1.634792 0.630750 0.157057
v -1.655585 0.646005 0.157057
v -1.679135 0.658704 0.157057
v -1.705324 0.668750 0.157057
v -1.734033 0.676046 0.157057
v -1.765145 0.680495 0.157057
v -1.798542 0.682000 0.157057
v -1.872542 0.598000 0.157057
v -1.809542 0.598000 0.157057
v -1.786968 0.597196 0.157057
v -1.766700 0.594815 0.157057
v -1.748667 0.590906 0.157057
v -1.732802 0.585519 0.157057
v -1.719033 0.578700 0.157057
v -1.707292 0.570500 0.157057
v -1.697510 0.560966 0.157057
v -1.689616 0.550148 0.157057
v -1.683542 0.538094 0.157057
v -1.679218 0.524852 0.157057
v -1.676575 0.510471 0.157057
v -1.675542 0.495000 0.157057
v -1.675964 0.480842 0.157057
v -1.677829 0.466986 0.157057
v -1.681292 0.453609 0.157057
v -1.686505 0.440889 0.157057
v -1.693621 0.429002 0.157057
v -1.702792 0.418125 0.157057
v -1.714172 0.408436 0.157057
v -1.727913 0.400111 0.157057
v -1.744167 0.393328 0.157057
v -1.763089 0.388264 0.157057
v -1.784829 0.385095 0.157057
v -1.809542 0.384000 0.157057
v -1.872542 0.384000 0.157057
vn -0.0000 -0.0000 -1.0000
vn -0.0000 -0.0000 1.0000
vn -0.0000 -0.0003 1.0000
vn 0.7361 -0.6769 -0.0000
vn 0.6326 0.7745 -0.0000
vn 0.8528 0.5222 -0.0000
vn -0.9996 0.0297 -0.0000
vn 0.3429 0.9394 -0.0000
vn -0.8412 -0.5408 -0.0000
vn 0.5225 0.8527 -0.0000
vn -0.7368 -0.6761 -0.0000
vn 0.3640 0.9314 -0.0000
vn 0.9990 -0.0439 -0.0000
vn 0.6964 0.7177 -0.0000
vn -0.5412 0.8409 -0.0000
vn 0.8490 0.5283 -0.0000
vn -0.9911 0.1334 -0.0000
vn -0.0000 -1.0000 -0.0000
vn 1.0000 -0.0000 -0.0000
vn 0.4065 0.9136 -0.0000
vn 0.8445 0.5356 -0.0000
vn -0.6967 -0.7174 -0.0000
vn -0.2985 0.9544 -0.0000
vn 0.3807 0.9247 -0.0000
vn 0.9908 -0.1356 -0.0000
vn 0.8393 0.5437 -0.0000
vn -0.9681 0.2506 -0.0000
vn -1.0000 -0.0000 -0.0000
vn -0.2857 0.9583 -0.0000
vn -0.1147 -0.9934 -0.0000
vn 0.8337 0.5521 -0.0000
vn -0.9253 0.3792 -0.0000
vn -0.0000 1.0000 -0.0000
vn -0.2702 0.9628 -0.0000
vn -0.1590 -0.9873 -0.0000
vn 0.8282 0.5604 -0.0000
vn 0.9729 -0.2312 -0.0000
vn 0.2882 0.9576 -0.0000
vn -0.2022 -0.9793 -0.0000
vn 0.8230 0.5680 -0.0000
vn -0.8580 0.5136 -0.0000
vn 0.7526 0.6585 -0.0000
vn -0.2520 0.9677 -0.0000
vn -0.2441 -0.9697 -0.0000
vn 0.8186 0.5744 -0.0000
vn -0.2312 0.9729 -0.0000
vn 0.9444 -0.3288 -0.0000
vn -0.2847 -0.9586 -0.0000
vn 0.8151 0.5793 -0.0000
vn -0.7645 0.6446 -0.0000
vn -0.2077 0.9782 -0.0000
vn -0.3239 -0.9461 -0.0000
vn 0.8126 0.5828 -0.0000
vn 0.9047 -0.4261 -0.0000
vn 0.1703 0.9854 -0.0000
vn -0.3617 -0.9323 -0.0000
vn 0.8111 0.5849 -0.0000
vn -0.6483 0.7614 -0.0000
vn -0.7550 -0.6558 -0.0000
vn -0.6391 -0.7691 -0.0000
vn -0.3979 -0.9174 -0.0000
vn 0.8104 0.5859 -0.0000
vn -0.5182 0.8553 -0.0000
vn -0.1817 0.9833 -0.0000
vn -0.9196 0.3928 -0.0000
vn -0.4326 -0.9016 -0.0000
vn 0.8102 0.5861 -0.0000
vn -0.1533 0.9882 -0.0000
vn 0.8539 -0.5204 -0.0000
vn -0.4659 -0.8849 -0.0000
vn -0.3851 0.9229 -0.0000
vn -0.1226 0.9925 -0.0000
vn -0.6465 0.7629 -0.0000
vn -0.2585 0.9660 -0.0000
vn 0.9138 0.4063 -0.0000
vn 0.0555 0.9985 -0.0000
vn -0.0898 0.9960 -0.0000
vn -0.0233 -0.9997 -0.0000
vn 0.7931 -0.6091 -0.0000
vn 0.9243 -0.3817 -0.0000
vn -0.1442 0.9895 -0.0000
vn -0.9135 -0.4068 -0.0000
vn -0.0550 0.9985 -0.0000
vn -0.0694 -0.9976 -0.0000
vn -0.0443 0.9990 -0.0000
vn -0.0186 0.9998 -0.0000
vn 0.0635 -0.9980 -0.0000
vn 0.1914 -0.9815 -0.0000
vn -0.5316 -0.8470 -0.0000
vn 0.3169 -0.9485 -0.0000
vn -0.7414 0.6711 -0.0000
vn 0.3903 -0.9207 -0.0000
vn 0.7239 -0.6899 -0.0000
vn 0.9194 -0.3934 -0.0000
vn 0.3639 -0.9314 -0.0000
vn 0.4376 -0.8992 -0.0000
vn -0.9110 -0.4124 -0.0000
vn -0.4170 -0.9089 -0.0000
vn 0.6486 -0.7611 -0.0000
vn 0.5510 -0.8345 -0.0000
vn -0.8240 0.5665 -0.0000
vn 0.5695 -0.8220 -0.0000
vn 0.3342 -0.9425 -0.0000
vn 0.4888 -0.8724 -0.0000
vn 0.3017 -0.9534 -0.0000
vn 0.6552 -0.7554 -0.0000
vn -0.2983 -0.9545 -0.0000
vn 0.4086 -0.9127 -0.0000
vn 0.7485 -0.6632 -0.0000
vn 0.0450 0.9990 -0.0000
vn -0.8924 0.4512 -0.0000
vn 0.5805 0.8143 -0.0000
vn 0.2666 -0.9638 -0.0000
vn 0.1416 0.9899 -0.0000
vn 0.6347 0.7728 -0.0000
vn 0.2297 -0.9733 -0.0000
vn 0.8291 -0.5591 -0.0000
vn 0.2463 0.9692 -0.0000
vn -0.9449 0.3272 -0.0000
vn 0.1916 -0.9815 -0.0000
vn -0.0320 -0.9995 -0.0000
vn 0.3582 0.9337 -0.0000
vn -0.1779 -0.9840 -0.0000
vn 0.8956 -0.4449 -0.0000
vn 0.4746 0.8802 -0.0000
vn 0.6829 0.7306 -0.0000
vn 0.1533 -0.9882 -0.0000
vn 0.9465 -0.3227 -0.0000
vn 0.5915 0.8063 -0.0000
vn -0.9803 0.1976 -0.0000
vn 0.1157 -0.9933 -0.0000
vn -0.1173 -0.9931 -0.0000
vn 0.7030 0.7112 -0.0000
vn 0.0796 -0.9968 -0.0000
vn 0.9808 -0.1949 -0.0000
vn -0.2278 -0.9737 -0.0000
vn -0.0584 -0.9983 -0.0000
vn -0.9979 0.0655 -0.0000
vn -0.3501 -0.9367 -0.0000
vn 0.8025 0.5966 -0.0000
vn 0.0145 -0.9999 -0.0000
vn 0.0457 -0.9990 -0.0000
vn 0.9979 -0.0647 -0.0000
vn 0.7242 0.6895 -0.0000
vn -0.0356 -0.9994 -0.0000
vn 0.9980 0.0630 -0.0000
vn -0.4681 -0.8837 -0.0000
vn -0.9979 -0.0644 -0.0000
vn -0.1167 -0.9932 -0.0000
vn -0.5698 -0.8218 -0.0000
vn -0.2118 -0.9773 -0.0000
vn 0.7587 0.6514 -0.0000
vn -0.0613 0.9981 -0.0000
vn -0.6506 -0.7595 -0.0000
vn 0.8840 0.4675 -0.0000
vn -0.3215 -0.9469 -0.0000
vn 0.0144 0.9999 -0.0000
vn 0.7867 0.6174 -0.0000
vn -0.4438 -0.8961 -0.0000
vn 0.0473 0.9989 -0.0000
vn -0.7117 -0.7025 -0.0000
vn 0.9813 0.1926 -0.0000
vn -0.5726 -0.8198 -0.0000
vn -0.9807 -0.1956 -0.0000
vn 0.0850 0.9964 -0.0000
vn 0.8086 0.5883 -0.0000
vn 0.1262 0.9920 -0.0000
vn -0.7570 -0.6534 -0.0000
vn 0.9438 0.3306 -0.0000
vn 0.9463 0.3233 -0.0000
vn -0.1854 0.9827 -0.0000
vn -0.6979 -0.7162 -0.0000
vn 0.8253 0.5647 -0.0000
vn -0.8078 -0.5894 -0.0000
vn -0.9454 -0.3260 -0.0000
vn 0.1688 0.9856 -0.0000
vn -0.7904 -0.6125 -0.0000
vn -0.8930 -0.4500 -0.0000
vn 0.2109 0.9775 -0.0000
vn 0.8926 0.4509 -0.0000
vn 0.8375 0.5465 -0.0000
vn 0.2504 0.9681 -0.0000
vn -0.8152 -0.5792 -0.0000
vn 0.9811 0.1934 -0.0000
vn 0.8209 0.5711 -0.0000
vn -0.3084 0.9513 -0.0000
vn -0.9506 -0.3104 -0.0000
vn -0.8921 -0.4518 -0.0000
vn 0.8458 0.5335 -0.0000
vn -0.9835 -0.1808 -0.0000
vn -0.7360 0.6770 -0.0000
vn 0.2860 0.9582 -0.0000
vn 0.7332 0.6800 -0.0000
vn 0.8507 0.5256 -0.0000
vn -0.8220 -0.5696 -0.0000
vn 0.3169 0.9484 -0.0000
vn -0.8337 -0.5522 -0.0000
vn 0.9981 0.0620 -0.0000
vn -0.4278 0.9039 -0.0000
vn -0.9978 -0.0666 -0.0000
vt 0.653465 0.000000
vt 0.643564 0.000000
vt 0.633663 0.000000
vt 0.623762 0.000000
vt 0.613861 0.000000
vt 0.603960 0.000000
vt 0.663366 0.000000
vt 0.594059 0.000000
vt 0.584158 0.000000
vt 0.574257 0.000000
vt 0.673267 0.000000
vt 0.564356 0.000000
vt 0.554455 0.000000
vt 0.683168 0.000000
vt 0.544554 0.000000
vt 0.534653 0.000000
vt 0.693069 0.000000
vt 0.524752 0.000000
vt 0.415842 0.000000
vt 0.425743 0.000000
vt 0.435644 0.000000
vt 0.445545 0.000000
vt 0.455446 0.000000
vt 0.465347 0.000000
vt 0.475248 0.000000
vt 0.485149 0.000000
vt 0.495050 0.000000
vt 0.504951 0.000000
vt 0.514852 0.000000
vt 0.702970 0.000000
vt 0.396040 0.000000
vt 0.405941 0.000000
vt 0.386139 0.000000
vt 0.376238 0.000000
vt 0.366337 0.000000
vt 0.712871 0.000000
vt 0.356436 0.000000
vt 0.346535 0.000000
vt 0.722772 0.000000
vt 0.336634 0.000000
vt 0.326733 0.000000
vt 0.732673 0.000000
vt 0.316832 0.000000
vt 0.742574 0.000000
vt 0.306931 0.000000
vt 0.297030 0.000000
vt 0.752475 0.000000
vt 0.287129 0.000000
vt 0.762376 0.000000
vt 0.277228 0.000000
vt 0.267327 0.000000
vt 0.772277 0.000000
vt 0.019802 0.000000
vt 0.009901 0.000000
vt 0.000000 0.000000
vt 0.029703 0.000000
vt 1.000000 0.000000
vt 0.257426 0.000000
vt 0.782178 0.000000
vt 0.247525 0.000000
vt 0.039604 0.000000
vt 0.792079 0.000000
vt 0.237624 0.000000
vt 0.227723 0.000000
vt 0.801980 0.000000
vt 0.217822 0.000000
vt 0.811881 0.000000
vt 0.207921 0.000000
vt 0.198020 0.000000
vt 0.821782 0.000000
vt 0.188119 0.000000
vt 0.049505 0.000000
vt 0.059406 0.000000
vt 0.069307 0.000000
vt 0.178218 0.000000
vt 0.079208 0.000000
vt 0.089109 0.000000
vt 0.099010 0.000000
vt 0.168317 0.000000
vt 0.831683 0.000000
vt 0.108911 0.000000
vt 0.118812 0.000000
vt 0.128713 0.000000
vt 0.158416 0.000000
vt 0.138614 0.000000
vt 0.148515 0.000000
vt 0.841584 0.000000
vt 0.990099 0.000000
vt 0.980198 0.000000
vt 0.851485 0.000000
vt 0.970297 0.000000
vt 0.960396 0.000000
vt 0.861386 0.000000
vt 0.950495 0.000000
vt 0.940594 0.000000
vt 0.930693 0.000000
vt 0.871287 0.000000
vt 0.920792 0.000000
vt 0.910891 0.000000
vt 0.900990 0.000000
vt 0.881188 0.000000
vt 0.891089 0.000000
vt 0.555556 0.000000
vt 0.444444 0.000000
vt 0.333333 0.000000
vt 0.777778 0.000000
vt 0.222222 0.000000
vt 0.111111 0.000000
vt 0.666667 0.000000
vt 0.888889 0.000000
vt 0.600000 0.000000
vt 0.500000 0.000000
vt 0.400000 0.000000
vt 0.300000 0.000000
vt 0.200000 0.000000
vt 0.100000 0.000000
vt 0.800000 0.000000
vt 0.700000 0.000000
vt 0.900000 0.000000
vt 0.010753 0.000000
vt 0.720430 0.000000
vt 0.709677 0.000000
vt 0.698925 0.000000
vt 0.688172 0.000000
vt 0.677419 0.000000
vt 0.655914 0.000000
vt 0.645161 0.000000
vt 0.634409 0.000000
vt 0.731183 0.000000
vt 0.623656 0.000000
vt 0.741935 0.000000
vt 0.752688 0.000000
vt 0.763441 0.000000
vt 0.612903 0.000000
vt 0.774194 0.000000
vt 0.784946 0.000000
vt 0.795699 0.000000
vt 0.602151 0.000000
vt 0.806452 0.000000
vt 0.817204 0.000000
vt 0.827957 0.000000
vt 0.591398 0.000000
vt 0.838710 0.000000
vt 0.849462 0.000000
vt 0.580645 0.000000
vt 0.860215 0.000000
vt 0.870968 0.000000
vt 0.569892 0.000000
vt 0.881720 0.000000
vt 0.559140 0.000000
vt 0.892473 0.000000
vt 0.903226 0.000000
vt 0.548387 0.000000
vt 0.913979 0.000000
vt 0.537634 0.000000
vt 0.924731 0.000000
vt 0.526882 0.000000
vt 0.935484 0.000000
vt 0.946237 0.000000
vt 0.516129 0.000000
vt 0.956989 0.000000
vt 0.967742 0.000000
vt 0.505376 0.000000
vt 0.978495 0.000000
vt 0.989247 0.000000
vt 0.032258 0.000000
vt 0.494624 0.000000
vt 0.483871 0.000000
vt 0.473118 0.000000
vt 0.462366 0.000000
vt 0.451613 0.000000
vt 0.440860 0.000000
vt 0.430108 0.000000
vt 0.043011 0.000000
vt 0.053763 0.000000
vt 0.419355 0.000000
vt 0.021505 0.000000
vt 0.064516 0.000000
vt 0.075269 0.000000
vt 0.086022 0.000000
vt 0.408602 0.000000
vt 0.096774 0.000000
vt 0.107527 0.000000
vt 0.397849 0.000000
vt 0.118280 0.000000
vt 0.387097 0.000000
vt 0.129032 0.000000
vt 0.376344 0.000000
vt 0.139785 0.000000
vt 0.365591 0.000000
vt 0.150538 0.000000
vt 0.354839 0.000000
vt 0.161290 0.000000
vt 0.344086 0.000000
vt 0.172043 0.000000
vt 0.322581 0.000000
vt 0.182796 0.000000
vt 0.311828 0.000000
vt 0.301075 0.000000
vt 0.290323 0.000000
vt 0.279570 0.000000
vt 0.268817 0.000000
vt 0.258065 0.000000
vt 0.247312 0.000000
vt 0.236559 0.000000
vt 0.225806 0.000000
vt 0.215054 0.000000
vt 0.204301 0.000000
vt 0.193548 0.000000
vt 0.184065 0.388476
vt 0.223111 0.388250
vt 0.212305 0.388905
vt 0.233492 0.387277
vt 0.243591 0.385944
vt 0.253550 0.384207
vt 0.157031 0.384659
vt 0.263512 0.382023
vt 0.273618 0.379350
vt 0.284011 0.376143
vt 0.131421 0.377645
vt 0.294834 0.372360
vt 0.306230 0.367958
vt 0.107451 0.367627
vt 0.318339 0.362893
vt 0.331306 0.357123
vt 0.085338 0.354797
vt 0.345272 0.350603
vt 0.231570 0.337055
vt 0.242885 0.335216
vt 0.254176 0.332859
vt 0.265436 0.329986
vt 0.276656 0.326604
vt 0.287830 0.322715
vt 0.298951 0.318325
vt 0.310010 0.313437
vt 0.320999 0.308055
vt 0.331912 0.302184
vt 0.342741 0.295827
vt 0.065284 0.339366
vt 0.208884 0.339046
vt 0.220224 0.338247
vt 0.188759 0.338714
vt 0.169437 0.335883
vt 0.151083 0.330697
vt 0.047519 0.321506
vt 0.133860 0.323297
vt 0.117933 0.313826
vt 0.032258 0.301407
vt 0.103467 0.302426
vt 0.090627 0.289240
vt 0.019721 0.279262
vt 0.079577 0.274410
vt 0.010122 0.255264
vt 0.070482 0.258078
vt 0.063506 0.240388
vt 0.003680 0.229603
vt 0.058814 0.221480
vt 0.000611 0.202472
vt 0.056570 0.201499
vt 0.056897 0.180952
vt 0.001082 0.175379
vt 0.216280 0.142960
vt 0.345272 0.185677
vt 0.218573 0.191647
vt 0.288757 0.139545
vt 0.337738 0.025783
vt 0.059781 0.161444
vt 0.004979 0.149548
vt 0.065099 0.143100
vt 0.285108 0.062087
vt 0.012122 0.125167
vt 0.072730 0.126045
vt 0.082554 0.110403
vt 0.022328 0.102420
vt 0.094448 0.096300
vt 0.035415 0.081493
vt 0.108292 0.083862
vt 0.123965 0.073212
vt 0.051202 0.062573
vt 0.141346 0.064477
vt 0.278498 0.060357
vt 0.271861 0.058714
vt 0.265192 0.057177
vt 0.160312 0.057781
vt 0.258481 0.055763
vt 0.251723 0.054490
vt 0.244912 0.053376
vt 0.180744 0.053249
vt 0.069506 0.045844
vt 0.238039 0.052438
vt 0.231098 0.051693
vt 0.224083 0.051161
vt 0.202520 0.051007
vt 0.216986 0.050857
vt 0.209800 0.050800
vt 0.090146 0.031493
vt 0.325087 0.021108
vt 0.312780 0.016957
vt 0.112941 0.019705
vt 0.300744 0.013317
vt 0.288905 0.010175
vt 0.137707 0.010666
vt 0.277188 0.007521
vt 0.265522 0.005342
vt 0.253830 0.003626
vt 0.164263 0.004562
vt 0.242041 0.002362
vt 0.230080 0.001536
vt 0.217873 0.001139
vt 0.192428 0.001578
vt 0.205347 0.001156
vt 0.430641 0.874562
vt 0.387435 0.496781
vt 0.430641 0.496781
vt 0.379680 0.583748
vt 0.131518 0.789257
vt 0.080557 0.496781
vt 0.131518 0.496781
vt 0.080557 0.874562
vt 0.379680 0.874562
vt 0.127087 0.874562
vt 0.000731 0.331734
vt 0.055016 0.709515
vt 0.000730 0.709515
vt 0.055016 0.331734
vt 0.621990 0.997874
vt 0.999771 0.943588
vt 0.999771 0.997874
vt 0.826944 0.943588
vt 0.999771 0.717031
vt 0.999771 0.784610
vt 0.820851 0.881548
vt 0.808664 0.943588
vt 0.621990 0.676594
vt 0.621990 0.943588
vt 0.621990 0.751375
vt 0.861282 0.379419
vt 0.818076 0.001638
vt 0.861282 0.001639
vt 0.810321 0.088606
vt 0.562160 0.294114
vt 0.511198 0.001639
vt 0.562160 0.001638
vt 0.511198 0.379420
vt 0.810321 0.379419
vt 0.557728 0.379420
vt 0.604226 0.604226
vt 0.403703 0.224229
vt 0.441924 0.224229
vt 0.423645 0.307319
vt 0.234754 0.604226
vt 0.480145 0.444140
vt 0.362712 0.444140
vt 0.501195 0.492886
vt 0.340555 0.492886
vt 0.548833 0.604226
vt 0.290147 0.604226
vt 0.789193 0.766421
vt 0.734825 0.433713
vt 0.789193 0.387052
vt 0.693812 0.387394
vt 0.675456 0.388448
vt 0.658412 0.391090
vt 0.642723 0.395270
vt 0.628442 0.400937
vt 0.615629 0.408037
vt 0.604344 0.416518
vt 0.594649 0.426326
vt 0.698779 0.433811
vt 0.586390 0.437232
vt 0.734785 0.552825
vt 0.686491 0.434433
vt 0.675506 0.435869
vt 0.665719 0.438122
vt 0.579817 0.449345
vt 0.657114 0.441157
vt 0.649654 0.444960
vt 0.643299 0.449508
vt 0.574958 0.462637
vt 0.637990 0.454766
vt 0.633702 0.460725
vt 0.630394 0.467360
vt 0.571872 0.477097
vt 0.628024 0.474641
vt 0.626562 0.482555
vt 0.570653 0.492711
vt 0.625970 0.491074
vt 0.626170 0.498887
vt 0.570920 0.503344
vt 0.627159 0.506546
vt 0.572125 0.513544
vt 0.629027 0.513953
vt 0.631862 0.521011
vt 0.574256 0.523289
vt 0.635751 0.527618
vt 0.577303 0.532548
vt 0.640784 0.533673
vt 0.581249 0.541294
vt 0.647046 0.539075
vt 0.654623 0.543729
vt 0.586080 0.549501
vt 0.663602 0.547529
vt 0.674068 0.550383
vt 0.591778 0.557137
vt 0.686114 0.552181
vt 0.699815 0.552829
vt 0.734680 0.601755
vt 0.598365 0.564118
vt 0.605764 0.570485
vt 0.613958 0.576221
vt 0.622930 0.581306
vt 0.632662 0.585720
vt 0.624298 0.591621
vt 0.616413 0.598032
vt 0.711931 0.601644
vt 0.705079 0.601830
vt 0.608934 0.604955
vt 0.734674 0.766428
vt 0.698322 0.602594
vt 0.691545 0.604145
vt 0.684635 0.606689
vt 0.601787 0.612388
vt 0.677481 0.610434
vt 0.669970 0.615588
vt 0.594901 0.620330
vt 0.661988 0.622358
vt 0.588200 0.628783
vt 0.653423 0.630951
vt 0.581613 0.637744
vt 0.644163 0.641575
vt 0.575065 0.647214
vt 0.634094 0.654439
vt 0.568485 0.657193
vt 0.623103 0.669748
vt 0.561797 0.667680
vt 0.554930 0.678674
vt 0.611078 0.687711
vt 0.547811 0.690176
vt 0.560761 0.765148
vt 0.543882 0.696421
vt 0.540153 0.702238
vt 0.536540 0.707756
vt 0.532963 0.713100
vt 0.529341 0.718398
vt 0.525590 0.723776
vt 0.521630 0.729362
vt 0.517380 0.735281
vt 0.512758 0.741661
vt 0.507682 0.748627
vt 0.502071 0.756309
vt 0.495842 0.764831
s 0
usemtl マテリアル
f 67/1/1 66/2/1 65/3/1
f 67/1/1 65/3/1 64/4/1
f 67/1/1 64/4/1 63/5/1
f 67/1/1 63/5/1 62/6/1
f 68/7/1 67/1/1 62/6/1
f 68/7/1 62/6/1 61/8/1
f 68/7/1 61/8/1 60/9/1
f 68/7/1 60/9/1 59/10/1
f 69/11/1 68/7/1 59/10/1
f 69/11/1 59/10/1 58/12/1
f 69/11/1 58/12/1 57/13/1
f 70/14/1 69/11/1 57/13/1
f 70/14/1 57/13/1 56/15/1
f 70/14/1 56/15/1 55/16/1
f 71/17/1 70/14/1 55/16/1
f 71/17/1 55/16/1 54/18/1
f 71/17/1 54/18/1 43/19/1
f 43/19/1 54/18/1 44/20/1
f 44/20/1 54/18/1 45/21/1
f 45/21/1 54/18/1 46/22/1
f 46/22/1 54/18/1 47/23/1
f 47/23/1 54/18/1 48/24/1
f 48/24/1 54/18/1 49/25/1
f 49/25/1 54/18/1 50/26/1
f 50/26/1 54/18/1 51/27/1
f 51/27/1 54/18/1 52/28/1
f 52/28/1 54/18/1 53/29/1
f 72/30/1 71/17/1 41/31/1
f 41/31/1 71/17/1 42/32/1
f 42/32/1 71/17/1 43/19/1
f 72/30/1 41/31/1 40/33/1
f 72/30/1 40/33/1 39/34/1
f 72/30/1 39/34/1 38/35/1
f 73/36/1 72/30/1 38/35/1
f 73/36/1 38/35/1 37/37/1
f 73/36/1 37/37/1 36/38/1
f 74/39/1 73/36/1 36/38/1
f 74/39/1 36/38/1 35/40/1
f 74/39/1 35/40/1 34/41/1
f 75/42/1 74/39/1 34/41/1
f 75/42/1 34/41/1 33/43/1
f 76/44/1 75/42/1 33/43/1
f 76/44/1 33/43/1 32/45/1
f 76/44/1 32/45/1 31/46/1
f 77/47/1 76/44/1 31/46/1
f 77/47/1 31/46/1 30/48/1
f 78/49/1 77/47/1 30/48/1
f 78/49/1 30/48/1 29/50/1
f 78/49/1 29/50/1 28/51/1
f 79/52/1 78/49/1 28/51/1
f 3/53/1 2/54/1 1/55/1
f 3/53/1 1/55/1 4/56/1
f 4/56/1 1/55/1 102/57/1
f 79/52/1 28/51/1 27/58/1
f 80/59/1 79/52/1 27/58/1
f 80/59/1 27/58/1 26/60/1
f 5/61/1 4/56/1 102/57/1
f 81/62/1 80/59/1 26/60/1
f 81/62/1 26/60/1 25/63/1
f 81/62/1 25/63/1 24/64/1
f 82/65/1 81/62/1 24/64/1
f 82/65/1 24/64/1 23/66/1
f 83/67/1 82/65/1 23/66/1
f 83/67/1 23/66/1 22/68/1
f 83/67/1 22/68/1 21/69/1
f 84/70/1 83/67/1 21/69/1
f 84/70/1 21/69/1 20/71/1
f 6/72/1 5/61/1 102/57/1
f 7/73/1 6/72/1 102/57/1
f 8/74/1 7/73/1 102/57/1
f 84/70/1 20/71/1 19/75/1
f 9/76/1 8/74/1 102/57/1
f 10/77/1 9/76/1 102/57/1
f 11/78/1 10/77/1 102/57/1
f 84/70/1 19/75/1 18/79/1
f 85/80/1 84/70/1 18/79/1
f 12/81/1 11/78/1 102/57/1
f 13/82/1 12/81/1 102/57/1
f 14/83/1 13/82/1 102/57/1
f 85/80/1 18/79/1 17/84/1
f 15/85/1 14/83/1 102/57/1
f 16/86/1 15/85/1 102/57/1
f 17/84/1 16/86/1 102/57/1
f 85/80/1 17/84/1 102/57/1
f 86/87/1 85/80/1 102/57/1
f 86/87/1 102/57/1 101/88/1
f 86/87/1 101/88/1 100/89/1
f 87/90/1 86/87/1 100/89/1
f 87/90/1 100/89/1 99/91/1
f 87/90/1 99/91/1 98/92/1
f 88/93/1 87/90/1 98/92/1
f 88/93/1 98/92/1 97/94/1
f 88/93/1 97/94/1 96/95/1
f 88/93/1 96/95/1 95/96/1
f 89/97/1 88/93/1 95/96/1
f 89/97/1 95/96/1 94/98/1
f 89/97/1 94/98/1 93/99/1
f 89/97/1 93/99/1 92/100/1
f 90/101/1 89/97/1 92/100/1
f 90/101/1 92/100/1 91/102/1
f 108/103/1 107/104/1 106/105/1
f 108/103/1 106/105/1 110/106/1
f 110/106/1 106/105/1 105/107/1
f 105/107/1 104/108/1 103/55/1
f 105/107/1 103/55/1 112/57/1
f 108/103/1 110/106/1 109/109/1
f 111/110/1 110/106/1 105/107/1
f 111/110/1 105/107/1 112/57/1
f 115/109/1 114/105/1 113/55/1
f 115/109/1 113/55/1 116/57/1
f 123/111/1 122/112/1 121/113/1
f 123/111/1 121/113/1 120/114/1
f 120/114/1 119/115/1 118/116/1
f 120/114/1 118/116/1 117/55/1
f 123/111/1 120/114/1 125/117/1
f 125/117/1 120/114/1 117/55/1
f 125/117/1 117/55/1 127/57/1
f 123/111/1 125/117/1 124/118/1
f 126/119/1 125/117/1 127/57/1
f 133/103/1 132/104/1 131/105/1
f 133/103/1 131/105/1 135/106/1
f 135/106/1 131/105/1 130/107/1
f 130/107/1 129/108/1 128/55/1
f 130/107/1 128/55/1 137/57/1
f 133/103/1 135/106/1 134/109/1
f 136/110/1 135/106/1 130/107/1
f 136/110/1 130/107/1 137/57/1
f 140/115/1 139/116/1 138/55/1
f 140/115/1 138/55/1 146/117/1
f 146/117/1 138/55/1 145/118/1
f 140/115/1 146/117/1 148/57/1
f 147/119/1 146/117/1 145/118/1
f 140/115/1 148/57/1 142/113/1
f 142/113/1 148/57/1 147/119/1
f 142/113/1 147/119/1 143/112/1
f 143/112/1 147/119/1 145/118/1
f 140/115/1 142/113/1 141/114/1
f 144/111/1 143/112/1 145/118/1
f 150/120/1 149/55/1 216/121/1
f 216/121/1 149/55/1 215/122/1
f 216/121/1 215/122/1 214/123/1
f 216/121/1 214/123/1 213/124/1
f 216/121/1 213/124/1 212/125/1
f 216/121/1 212/125/1 211/109/1
f 216/121/1 211/109/1 210/126/1
f 216/121/1 210/126/1 209/127/1
f 216/121/1 209/127/1 208/128/1
f 216/121/1 208/128/1 217/129/1
f 217/129/1 208/128/1 207/130/1
f 150/120/1 216/121/1 242/57/1
f 218/131/1 217/129/1 207/130/1
f 219/132/1 218/131/1 207/130/1
f 220/133/1 219/132/1 207/130/1
f 220/133/1 207/130/1 206/134/1
f 221/135/1 220/133/1 206/134/1
f 222/136/1 221/135/1 206/134/1
f 223/137/1 222/136/1 206/134/1
f 223/137/1 206/134/1 205/138/1
f 224/139/1 223/137/1 205/138/1
f 225/140/1 224/139/1 205/138/1
f 226/141/1 225/140/1 205/138/1
f 226/141/1 205/138/1 204/142/1
f 227/143/1 226/141/1 204/142/1
f 228/144/1 227/143/1 204/142/1
f 228/144/1 204/142/1 203/145/1
f 229/146/1 228/144/1 203/145/1
f 230/147/1 229/146/1 203/145/1
f 230/147/1 203/145/1 202/148/1
f 231/149/1 230/147/1 202/148/1
f 231/149/1 202/148/1 201/150/1
f 232/151/1 231/149/1 201/150/1
f 233/152/1 232/151/1 201/150/1
f 233/152/1 201/150/1 200/153/1
f 234/154/1 233/152/1 200/153/1
f 234/154/1 200/153/1 199/155/1
f 235/156/1 234/154/1 199/155/1
f 235/156/1 199/155/1 198/157/1
f 236/158/1 235/156/1 198/157/1
f 237/159/1 236/158/1 198/157/1
f 237/159/1 198/157/1 197/160/1
f 238/161/1 237/159/1 197/160/1
f 239/162/1 238/161/1 197/160/1
f 239/162/1 197/160/1 196/163/1
f 240/164/1 239/162/1 196/163/1
f 241/165/1 240/164/1 196/163/1
f 150/120/1 242/57/1 152/166/1
f 152/166/1 242/57/1 241/165/1
f 152/166/1 241/165/1 196/163/1
f 152/166/1 196/163/1 195/167/1
f 152/166/1 195/167/1 194/168/1
f 152/166/1 194/168/1 193/169/1
f 152/166/1 193/169/1 192/170/1
f 152/166/1 192/170/1 191/171/1
f 152/166/1 191/171/1 190/172/1
f 152/166/1 190/172/1 189/173/1
f 152/166/1 189/173/1 153/174/1
f 153/174/1 189/173/1 154/175/1
f 154/175/1 189/173/1 188/176/1
f 150/120/1 152/166/1 151/177/1
f 155/178/1 154/175/1 188/176/1
f 156/179/1 155/178/1 188/176/1
f 157/180/1 156/179/1 188/176/1
f 157/180/1 188/176/1 187/181/1
f 158/182/1 157/180/1 187/181/1
f 159/183/1 158/182/1 187/181/1
f 159/183/1 187/181/1 186/184/1
f 160/185/1 159/183/1 186/184/1
f 160/185/1 186/184/1 185/186/1
f 161/187/1 160/185/1 185/186/1
f 161/187/1 185/186/1 184/188/1
f 162/189/1 161/187/1 184/188/1
f 162/189/1 184/188/1 183/190/1
f 163/191/1 162/189/1 183/190/1
f 163/191/1 183/190/1 182/192/1
f 164/193/1 163/191/1 182/192/1
f 164/193/1 182/192/1 181/194/1
f 164/193/1 181/194/1 180/105/1
f 165/195/1 164/193/1 180/105/1
f 165/195/1 180/105/1 179/196/1
f 166/197/1 165/195/1 179/196/1
f 166/197/1 179/196/1 178/198/1
f 166/197/1 178/198/1 177/199/1
f 166/197/1 177/199/1 176/200/1
f 166/197/1 176/200/1 175/201/1
f 166/197/1 175/201/1 174/202/1
f 166/197/1 174/202/1 173/203/1
f 166/197/1 173/203/1 172/204/1
f 166/197/1 172/204/1 171/205/1
f 166/197/1 171/205/1 170/206/1
f 166/197/1 170/206/1 169/207/1
f 166/197/1 169/207/1 168/208/1
f 166/197/1 168/208/1 167/209/1
f 309/210/2 307/211/2 308/212/2
f 309/210/2 306/213/2 307/211/2
f 309/210/2 305/214/2 306/213/2
f 309/210/2 304/215/2 305/214/2
f 310/216/2 304/215/2 309/210/2
f 310/216/2 303/217/2 304/215/2
f 310/216/2 302/218/2 303/217/2
f 310/216/2 301/219/2 302/218/2
f 311/220/2 301/219/2 310/216/2
f 311/220/2 300/221/2 301/219/2
f 311/220/2 299/222/2 300/221/2
f 312/223/2 299/222/2 311/220/2
f 312/223/2 298/224/2 299/222/2
f 312/223/2 297/225/2 298/224/2
f 313/226/2 297/225/2 312/223/2
f 313/226/2 296/227/2 297/225/2
f 313/226/2 285/228/2 296/227/2
f 285/228/2 286/229/2 296/227/2
f 286/229/2 287/230/2 296/227/2
f 287/230/2 288/231/2 296/227/2
f 288/231/2 289/232/2 296/227/2
f 289/232/2 290/233/2 296/227/2
f 290/233/2 291/234/2 296/227/2
f 291/234/2 292/235/2 296/227/2
f 292/235/2 293/236/2 296/227/2
f 293/236/2 294/237/2 296/227/2
f 294/237/2 295/238/2 296/227/2
f 314/239/2 283/240/2 313/226/2
f 283/240/2 284/241/2 313/226/2
f 284/241/3 285/228/3 313/226/3
f 314/239/2 282/242/2 283/240/2
f 314/239/2 281/243/2 282/242/2
f 314/239/2 280/244/2 281/243/2
f 315/245/2 280/244/2 314/239/2
f 315/245/2 279/246/2 280/244/2
f 315/245/2 278/247/2 279/246/2
f 316/248/2 278/247/2 315/245/2
f 316/248/2 277/249/2 278/247/2
f 316/248/2 276/250/2 277/249/2
f 317/251/2 276/250/2 316/248/2
f 317/251/2 275/252/2 276/250/2
f 318/253/2 275/252/2 317/251/2
f 318/253/2 274/254/2 275/252/2
f 318/253/2 273/255/2 274/254/2
f 319/256/2 273/255/2 318/253/2
f 319/256/2 272/257/2 273/255/2
f 320/258/2 272/257/2 319/256/2
f 320/258/2 271/259/2 272/257/2
f 320/258/2 270/260/2 271/259/2
f 321/261/2 270/260/2 320/258/2
f 245/262/2 243/263/2 244/264/2
f 245/262/2 246/265/2 243/263/2
f 246/265/2 344/266/2 243/263/2
f 321/261/2 269/267/2 270/260/2
f 322/268/2 269/267/2 321/261/2
f 322/268/2 268/269/2 269/267/2
f 247/270/2 344/266/2 246/265/2
f 323/271/2 268/269/2 322/268/2
f 323/271/2 267/272/2 268/269/2
f 323/271/2 266/273/2 267/272/2
f 324/274/2 266/273/2 323/271/2
f 324/274/2 265/275/2 266/273/2
f 325/276/2 265/275/2 324/274/2
f 325/276/2 264/277/2 265/275/2
f 325/276/2 263/278/2 264/277/2
f 326/279/2 263/278/2 325/276/2
f 326/279/2 262/280/2 263/278/2
f 248/281/2 344/266/2 247/270/2
f 249/282/2 344/266/2 248/281/2
f 250/283/2 344/266/2 249/282/2
f 326/279/2 261/284/2 262/280/2
f 251/285/2 344/266/2 250/283/2
f 252/286/2 344/266/2 251/285/2
f 253/287/2 344/266/2 252/286/2
f 326/279/2 260/288/2 261/284/2
f 327/289/2 260/288/2 326/279/2
f 254/290/2 344/266/2 253/287/2
f 255/291/2 344/266/2 254/290/2
f 256/292/2 344/266/2 255/291/2
f 327/289/2 259/293/2 260/288/2
f 257/294/2 344/266/2 256/292/2
f 258/295/2 344/266/2 257/294/2
f 259/293/2 344/266/2 258/295/2
f 327/289/2 344/266/2 259/293/2
f 328/296/2 344/266/2 327/289/2
f 328/296/2 343/297/2 344/266/2
f 328/296/2 342/298/2 343/297/2
f 329/299/2 342/298/2 328/296/2
f 329/299/2 341/300/2 342/298/2
f 329/299/2 340/301/2 341/300/2
f 330/302/2 340/301/2 329/299/2
f 330/302/2 339/303/2 340/301/2
f 330/302/2 338/304/2 339/303/2
f 330/302/2 337/305/2 338/304/2
f 331/306/2 337/305/2 330/302/2
f 331/306/2 336/307/2 337/305/2
f 331/306/2 335/308/2 336/307/2
f 331/306/2 334/309/2 335/308/2
f 332/310/2 334/309/2 331/306/2
f 332/310/2 333/311/2 334/309/2
f 350/312/2 348/313/2 349/314/2
f 350/312/2 352/315/2 348/313/2
f 352/315/2 347/316/2 348/313/2
f 347/316/2 345/317/2 346/318/2
f 347/316/2 354/319/2 345/317/2
f 350/312/2 351/320/2 352/315/2
f 353/321/2 347/316/2 352/315/2
f 353/321/2 354/319/2 347/316/2
f 357/322/2 355/323/2 356/324/2
f 357/322/2 358/325/2 355/323/2
f 365/326/2 363/327/2 364/328/2
f 365/326/2 362/329/2 363/327/2
f 362/329/2 360/330/2 361/331/2
f 362/329/2 359/332/2 360/330/2
f 365/326/2 367/333/2 362/329/2
f 367/333/2 359/332/2 362/329/2
f 367/333/2 369/334/2 359/332/2
f 365/326/2 366/335/2 367/333/2
f 368/336/2 369/334/2 367/333/2
f 375/337/2 373/338/2 374/339/2
f 375/337/2 377/340/2 373/338/2
f 377/340/2 372/341/2 373/338/2
f 372/341/2 370/342/2 371/343/2
f 372/341/2 379/344/2 370/342/2
f 375/337/2 376/345/2 377/340/2
f 378/346/2 372/341/2 377/340/2
f 378/346/2 379/344/2 372/341/2
f 382/347/2 380/348/2 381/349/2
f 382/347/2 388/350/2 380/348/2
f 388/350/2 387/351/2 380/348/2
f 382/347/2 390/352/2 388/350/2
f 389/353/2 387/351/2 388/350/2
f 382/347/2 384/354/2 390/352/2
f 384/354/2 389/353/2 390/352/2
f 384/354/2 385/355/2 389/353/2
f 385/355/2 387/351/2 389/353/2
f 382/347/2 383/356/2 384/354/2
f 386/357/2 387/351/2 385/355/2
f 392/358/2 458/359/2 391/360/2
f 458/359/2 457/361/2 391/360/2
f 458/359/2 456/362/2 457/361/2
f 458/359/2 455/363/2 456/362/2
f 458/359/2 454/364/2 455/363/2
f 458/359/2 453/365/2 454/364/2
f 458/359/2 452/366/2 453/365/2
f 458/359/2 451/367/2 452/366/2
f 458/359/2 450/368/2 451/367/2
f 458/359/2 459/369/2 450/368/2
f 459/369/2 449/370/2 450/368/2
f 392/358/2 484/371/2 458/359/2
f 460/372/2 449/370/2 459/369/2
f 461/373/2 449/370/2 460/372/2
f 462/374/2 449/370/2 461/373/2
f 462/374/2 448/375/2 449/370/2
f 463/376/2 448/375/2 462/374/2
f 464/377/2 448/375/2 463/376/2
f 465/378/2 448/375/2 464/377/2
f 465/378/2 447/379/2 448/375/2
f 466/380/2 447/379/2 465/378/2
f 467/381/2 447/379/2 466/380/2
f 468/382/2 447/379/2 467/381/2
f 468/382/2 446/383/2 447/379/2
f 469/384/2 446/383/2 468/382/2
f 470/385/2 446/383/2 469/384/2
f 470/385/2 445/386/2 446/383/2
f 471/387/2 445/386/2 470/385/2
f 472/388/2 445/386/2 471/387/2
f 472/388/2 444/389/2 445/386/2
f 473/390/2 444/389/2 472/388/2
f 473/390/2 443/391/2 444/389/2
f 474/392/2 443/391/2 473/390/2
f 475/393/2 443/391/2 474/392/2
f 475/393/2 442/394/2 443/391/2
f 476/395/2 442/394/2 475/393/2
f 476/395/2 441/396/2 442/394/2
f 477/397/2 441/396/2 476/395/2
f 477/397/2 440/398/2 441/396/2
f 478/399/2 440/398/2 477/397/2
f 479/400/2 440/398/2 478/399/2
f 479/400/2 439/401/2 440/398/2
f 480/402/2 439/401/2 479/400/2
f 481/403/2 439/401/2 480/402/2
f 481/403/2 438/404/2 439/401/2
f 482/405/2 438/404/2 481/403/2
f 483/406/2 438/404/2 482/405/2
f 392/358/2 394/407/2 484/371/2
f 394/407/2 483/406/2 484/371/2
f 394/407/2 438/404/2 483/406/2
f 394/407/2 437/408/2 438/404/2
f 394/407/2 436/409/2 437/408/2
f 394/407/2 435/410/2 436/409/2
f 394/407/2 434/411/2 435/410/2
f 394/407/2 433/412/2 434/411/2
f 394/407/2 432/413/2 433/412/2
f 394/407/2 431/414/2 432/413/2
f 394/407/2 395/415/2 431/414/2
f 395/415/2 396/416/2 431/414/2
f 396/416/2 430/417/2 431/414/2
f 392/358/2 393/418/2 394/407/2
f 397/419/2 430/417/2 396/416/2
f 398/420/2 430/417/2 397/419/2
f 399/421/2 430/417/2 398/420/2
f 399/421/2 429/422/2 430/417/2
f 400/423/2 429/422/2 399/421/2
f 401/424/2 429/422/2 400/423/2
f 401/424/2 428/425/2 429/422/2
f 402/426/2 428/425/2 401/424/2
f 402/426/2 427/427/2 428/425/2
f 403/428/2 427/427/2 402/426/2
f 403/428/2 426/429/2 427/427/2
f 404/430/2 426/429/2 403/428/2
f 404/430/2 425/431/2 426/429/2
f 405/432/2 425/431/2 404/430/2
f 405/432/2 424/433/2 425/431/2
f 406/434/2 424/433/2 405/432/2
f 406/434/2 423/435/2 424/433/2
f 406/434/2 422/436/2 423/435/2
f 407/437/2 422/436/2 406/434/2
f 407/437/2 421/438/2 422/436/2
f 408/439/2 421/438/2 407/437/2
f 408/439/2 420/440/2 421/438/2
f 408/439/2 419/441/2 420/440/2
f 408/439/2 418/442/2 419/441/2
f 408/439/2 417/443/2 418/442/2
f 408/439/2 416/444/2 417/443/2
f 408/439/2 415/445/2 416/444/2
f 408/439/2 414/446/2 415/445/2
f 408/439/2 413/447/2 414/446/2
f 408/439/2 412/448/2 413/447/2
f 408/439/2 411/449/2 412/448/2
f 408/439/2 410/450/2 411/449/2
f 408/439/2 409/451/2 410/450/2
f 117/55/4 118/116/4 360/116/4 359/55/4
f 22/68/5 23/66/5 265/66/5 264/68/5
f 179/196/6 180/105/6 422/105/6 421/196/6
f 229/146/7 230/147/7 472/147/7 471/146/7
f 56/15/8 57/13/8 299/13/8 298/15/8
f 165/195/9 166/197/9 408/197/9 407/195/9
f 21/69/10 22/68/10 264/68/10 263/69/10
f 83/67/11 84/70/11 326/70/11 325/67/11
f 55/16/12 56/15/12 298/15/12 297/16/12
f 202/148/13 203/145/13 445/145/13 444/148/13
f 127/57/14 117/55/14 359/55/14 369/57/14
f 70/14/15 71/17/15 313/17/15 312/14/15
f 178/198/16 179/196/16 421/196/16 420/198/16
f 230/147/17 231/149/17 473/149/17 472/147/17
f 123/111/18 124/118/18 366/118/18 365/111/18
f 124/118/19 125/117/19 367/117/19 366/118/19
f 20/71/20 21/69/20 263/69/20 262/71/20
f 177/199/21 178/198/21 420/198/21 419/199/21
f 125/117/22 126/119/22 368/119/22 367/117/22
f 5/61/23 6/72/23 248/72/23 247/61/23
f 54/18/24 55/16/24 297/16/24 296/18/24
f 201/150/25 202/148/25 444/148/25 443/150/25
f 126/119/18 127/57/18 369/57/18 368/119/18
f 176/200/26 177/199/26 419/199/26 418/200/26
f 231/149/27 232/151/27 474/151/27 473/149/27
f 132/104/28 133/103/28 375/103/28 374/104/28
f 6/72/29 7/73/29 249/73/29 248/72/29
f 43/19/30 44/20/30 286/20/30 285/19/30
f 175/201/31 176/200/31 418/200/31 417/201/31
f 232/151/32 233/152/32 475/152/32 474/151/32
f 131/105/33 132/104/33 374/104/33 373/105/33
f 7/73/34 8/74/34 250/74/34 249/73/34
f 44/20/35 45/21/35 287/21/35 286/20/35
f 174/202/36 175/201/36 417/201/36 416/202/36
f 200/153/37 201/150/37 443/150/37 442/153/37
f 19/75/38 20/71/38 262/71/38 261/75/38
f 45/21/39 46/22/39 288/22/39 287/21/39
f 173/203/40 174/202/40 416/202/40 415/203/40
f 233/152/41 234/154/41 476/154/41 475/152/41
f 130/107/42 131/105/42 373/105/42 372/107/42
f 8/74/43 9/76/43 251/76/43 250/74/43
f 129/108/28 130/107/28 372/107/28 371/108/28
f 46/22/44 47/23/44 289/23/44 288/22/44
f 172/204/45 173/203/45 415/203/45 414/204/45
f 9/76/46 10/77/46 252/77/46 251/76/46
f 199/155/47 200/153/47 442/153/47 441/155/47
f 128/55/33 129/108/33 371/108/33 370/55/33
f 47/23/48 48/24/48 290/24/48 289/23/48
f 171/205/49 172/204/49 414/204/49 413/205/49
f 234/154/50 235/156/50 477/156/50 476/154/50
f 10/77/51 11/78/51 253/78/51 252/77/51
f 137/57/19 128/55/19 370/55/19 379/57/19
f 48/24/52 49/25/52 291/25/52 290/24/52
f 170/206/53 171/205/53 413/205/53 412/206/53
f 133/103/18 134/109/18 376/109/18 375/103/18
f 198/157/54 199/155/54 441/155/54 440/157/54
f 134/109/19 135/106/19 377/106/19 376/109/19
f 18/79/55 19/75/55 261/75/55 260/79/55
f 49/25/56 50/26/56 292/26/56 291/25/56
f 169/207/57 170/206/57 412/206/57 411/207/57
f 235/156/58 236/158/58 478/158/58 477/156/58
f 135/106/59 136/110/59 378/110/59 377/106/59
f 84/70/60 85/80/60 327/80/60 326/70/60
f 50/26/61 51/27/61 293/27/61 292/26/61
f 168/208/62 169/207/62 411/207/62 410/208/62
f 236/158/63 237/159/63 479/159/63 478/158/63
f 136/110/18 137/57/18 379/57/18 378/110/18
f 11/78/64 12/81/64 254/81/64 253/78/64
f 166/197/18 167/209/18 409/209/18 408/197/18
f 139/116/65 140/115/65 382/115/65 381/116/65
f 51/27/66 52/28/66 294/28/66 293/27/66
f 167/209/67 168/208/67 410/208/67 409/209/67
f 12/81/68 13/82/68 255/82/68 254/81/68
f 197/160/69 198/157/69 440/157/69 439/160/69
f 138/55/33 139/116/33 381/116/33 380/55/33
f 52/28/70 53/29/70 295/29/70 294/28/70
f 237/159/71 238/161/71 480/161/71 479/159/71
f 13/82/72 14/83/72 256/83/72 255/82/72
f 53/29/19 54/18/19 296/18/19 295/29/19
f 71/17/73 72/30/73 314/30/73 313/17/73
f 238/161/74 239/162/74 481/162/74 480/161/74
f 145/118/75 138/55/75 380/55/75 387/118/75
f 17/84/76 18/79/76 260/79/76 259/84/76
f 14/83/77 15/85/77 257/85/77 256/83/77
f 41/31/78 42/32/78 284/32/78 283/31/78
f 196/163/79 197/160/79 439/160/79 438/163/79
f 148/57/80 146/117/80 388/117/80 390/57/80
f 239/162/81 240/164/81 482/164/81 481/162/81
f 146/117/82 147/119/82 389/119/82 388/117/82
f 15/85/83 16/86/83 258/86/83 257/85/83
f 42/32/84 43/19/84 285/19/84 284/32/84
f 240/164/85 241/165/85 483/165/85 482/164/85
f 16/86/86 17/84/86 259/84/86 258/86/86
f 40/33/87 41/31/87 283/31/87 282/33/87
f 39/34/88 40/33/88 282/33/88 281/34/88
f 147/119/33 148/57/33 390/57/33 389/119/33
f 85/80/89 86/87/89 328/87/89 327/80/89
f 142/113/18 143/112/18 385/112/18 384/113/18
f 38/35/90 39/34/90 281/34/90 280/35/90
f 241/165/33 242/57/33 484/57/33 483/165/33
f 72/30/91 73/36/91 315/36/91 314/30/91
f 101/88/92 102/57/92 344/57/92 343/88/92
f 140/115/18 141/114/18 383/114/18 382/115/18
f 195/167/93 196/163/93 438/163/93 437/167/93
f 141/114/94 142/113/94 384/113/94 383/114/94
f 100/89/95 101/88/95 343/88/95 342/89/95
f 37/37/96 38/35/96 280/35/96 279/37/96
f 143/112/97 144/111/97 386/111/97 385/112/97
f 86/87/98 87/90/98 329/90/98 328/87/98
f 194/168/99 195/167/99 437/167/99 436/168/99
f 144/111/18 145/118/18 387/118/18 386/111/18
f 36/38/100 37/37/100 279/37/100 278/38/100
f 149/55/28 150/120/28 392/120/28 391/55/28
f 73/36/101 74/39/101 316/39/101 315/36/101
f 193/169/102 194/168/102 436/168/102 435/169/102
f 99/91/103 100/89/103 342/89/103 341/91/103
f 192/170/104 193/169/104 435/169/104 434/170/104
f 98/92/105 99/91/105 341/91/105 340/92/105
f 35/40/106 36/38/106 278/38/106 277/40/106
f 215/122/33 149/55/33 391/55/33 457/122/33
f 87/90/107 88/93/107 330/93/107 329/90/107
f 191/171/108 192/170/108 434/170/108 433/171/108
f 34/41/109 35/40/109 277/40/109 276/41/109
f 214/123/110 215/122/110 457/122/110 456/123/110
f 74/39/111 75/42/111 317/42/111 316/39/111
f 190/172/112 191/171/112 433/171/112 432/172/112
f 97/94/113 98/92/113 340/92/113 339/94/113
f 213/124/114 214/123/114 456/123/114 455/124/114
f 189/173/115 190/172/115 432/172/115 431/173/115
f 96/95/116 97/94/116 339/94/116 338/95/116
f 33/43/117 34/41/117 276/41/117 275/43/117
f 152/166/18 153/174/18 395/174/18 394/166/18
f 212/125/118 213/124/118 455/124/118 454/125/118
f 75/42/119 76/44/119 318/44/119 317/42/119
f 95/96/120 96/95/120 338/95/120 337/96/120
f 153/174/121 154/175/121 396/175/121 395/174/121
f 211/109/122 212/125/122 454/125/122 453/109/122
f 88/93/123 89/97/123 331/97/123 330/93/123
f 32/45/124 33/43/124 275/43/124 274/45/124
f 210/126/125 211/109/125 453/109/125 452/126/125
f 188/176/126 189/173/126 431/173/126 430/176/126
f 94/98/127 95/96/127 337/96/127 336/98/127
f 31/46/128 32/45/128 274/45/128 273/46/128
f 150/120/18 151/177/18 393/177/18 392/120/18
f 209/127/129 210/126/129 452/126/129 451/127/129
f 76/44/130 77/47/130 319/47/130 318/44/130
f 151/177/19 152/166/19 394/166/19 393/177/19
f 93/99/131 94/98/131 336/98/131 335/99/131
f 154/175/132 155/178/132 397/178/132 396/175/132
f 208/128/133 209/127/133 451/127/133 450/128/133
f 216/121/18 217/129/18 459/129/18 458/121/18
f 92/100/134 93/99/134 335/99/134 334/100/134
f 30/48/135 31/46/135 273/46/135 272/48/135
f 155/178/136 156/179/136 398/179/136 397/178/136
f 89/97/137 90/101/137 332/101/137 331/97/137
f 77/47/138 78/49/138 320/49/138 319/47/138
f 156/179/139 157/180/139 399/180/139 398/179/139
f 207/130/140 208/128/140 450/128/140 449/130/140
f 90/101/141 91/102/141 333/102/141 332/101/141
f 91/102/142 92/100/142 334/100/142 333/102/142
f 29/50/143 30/48/143 272/48/143 271/50/143
f 242/57/19 216/121/19 458/121/19 484/57/19
f 107/104/28 108/103/28 350/103/28 349/104/28
f 187/181/144 188/176/144 430/176/144 429/181/144
f 217/129/145 218/131/145 460/131/145 459/129/145
f 28/51/146 29/50/146 271/50/146 270/51/146
f 157/180/147 158/182/147 400/182/147 399/180/147
f 106/105/33 107/104/33 349/104/33 348/105/33
f 78/49/148 79/52/148 321/52/148 320/49/148
f 218/131/149 219/132/149 461/132/149 460/131/149
f 158/182/150 159/183/150 401/183/150 400/182/150
f 2/54/28 3/53/28 245/53/28 244/54/28
f 219/132/151 220/133/151 462/133/151 461/132/151
f 105/107/42 106/105/42 348/105/42 347/107/42
f 1/55/33 2/54/33 244/54/33 243/55/33
f 186/184/152 187/181/152 429/181/152 428/184/152
f 104/108/28 105/107/28 347/107/28 346/108/28
f 3/53/18 4/56/18 246/56/18 245/53/18
f 66/2/153 67/1/153 309/1/153 308/2/153
f 159/183/154 160/185/154 402/185/154 401/183/154
f 206/134/155 207/130/155 449/130/155 448/134/155
f 220/133/156 221/135/156 463/135/156 462/133/156
f 103/55/33 104/108/33 346/108/33 345/55/33
f 65/3/157 66/2/157 308/2/157 307/3/157
f 102/57/19 1/55/19 243/55/19 344/57/19
f 185/186/158 186/184/158 428/184/158 427/186/158
f 221/135/159 222/136/159 464/136/159 463/135/159
f 112/57/19 103/55/19 345/55/19 354/57/19
f 64/4/160 65/3/160 307/3/160 306/4/160
f 160/185/161 161/187/161 403/187/161 402/185/161
f 108/103/18 109/109/18 351/109/18 350/103/18
f 27/58/162 28/51/162 270/51/162 269/58/162
f 222/136/163 223/137/163 465/137/163 464/136/163
f 109/109/19 110/106/19 352/106/19 351/109/19
f 79/52/164 80/59/164 322/59/164 321/52/164
f 63/5/165 64/4/165 306/4/165 305/5/165
f 110/106/59 111/110/59 353/110/59 352/106/59
f 184/188/166 185/186/166 427/186/166 426/188/166
f 62/6/167 63/5/167 305/5/167 304/6/167
f 161/187/168 162/189/168 404/189/168 403/187/168
f 205/138/169 206/134/169 448/134/169 447/138/169
f 111/110/18 112/57/18 354/57/18 353/110/18
f 26/60/170 27/58/170 269/58/170 268/60/170
f 67/1/171 68/7/171 310/7/171 309/1/171
f 223/137/172 224/139/172 466/139/172 465/137/172
f 114/105/28 115/109/28 357/109/28 356/105/28
f 4/56/28 5/61/28 247/61/28 246/56/28
f 183/190/173 184/188/173 426/188/173 425/190/173
f 224/139/174 225/140/174 467/140/174 466/139/174
f 113/55/33 114/105/33 356/105/33 355/55/33
f 80/59/175 81/62/175 323/62/175 322/59/175
f 61/8/176 62/6/176 304/6/176 303/8/176
f 162/189/177 163/191/177 405/191/177 404/189/177
f 115/109/18 116/57/18 358/57/18 357/109/18
f 225/140/178 226/141/178 468/141/178 467/140/178
f 116/57/19 113/55/19 355/55/19 358/57/19
f 60/9/179 61/8/179 303/8/179 302/9/179
f 122/112/28 123/111/28 365/111/28 364/112/28
f 25/63/180 26/60/180 268/60/180 267/63/180
f 182/192/181 183/190/181 425/190/181 424/192/181
f 59/10/182 60/9/182 302/9/182 301/10/182
f 163/191/183 164/193/183 406/193/183 405/191/183
f 204/142/184 205/138/184 447/138/184 446/142/184
f 121/113/33 122/112/33 364/112/33 363/113/33
f 24/64/185 25/63/185 267/63/185 266/64/185
f 68/7/186 69/11/186 311/11/186 310/7/186
f 226/141/187 227/143/187 469/143/187 468/141/187
f 81/62/188 82/65/188 324/65/188 323/62/188
f 120/114/19 121/113/19 363/113/19 362/114/19
f 181/194/189 182/192/189 424/192/189 423/194/189
f 227/143/190 228/144/190 470/144/190 469/143/190
f 119/115/191 120/114/191 362/114/191 361/115/191
f 58/12/192 59/10/192 301/10/192 300/12/192
f 23/66/193 24/64/193 266/64/193 265/66/193
f 180/105/194 181/194/194 423/194/194 422/105/194
f 118/116/33 119/115/33 361/115/33 360/116/33
f 82/65/195 83/67/195 325/67/195 324/65/195
f 57/13/196 58/12/196 300/12/196 299/13/196
f 164/193/197 165/195/197 407/195/197 406/193/197
f 203/145/198 204/142/198 446/142/198 445/145/198
f 69/11/199 70/14/199 312/14/199 311/11/199
f 228/144/200 229/146/200 471/146/200 470/144/200
