# Blender 4.4.1
# www.blender.org
mtllib ArenaGlassWall.mtl
o ArenaGlassWall
v 20.000000 0.000000 0.000000
v 20.000000 1.400000 0.000000
v 19.975908 0.000000 -0.981353
v 19.975908 1.400000 -0.981353
v 19.903694 0.000000 -1.960343
v 19.903694 1.400000 -1.960343
v 19.783529 0.000000 -2.934609
v 19.783529 1.400000 -2.934609
v 19.615705 0.000000 -3.901806
v 19.615705 1.400000 -3.901806
v 19.400625 0.000000 -4.859603
v 19.400625 1.400000 -4.859603
v 19.138807 0.000000 -5.805694
v 19.138807 1.400000 -5.805694
v 18.830881 0.000000 -6.737797
v 18.830881 1.400000 -6.737797
v 18.477591 0.000000 -7.653669
v 18.477591 1.400000 -7.653669
v 18.079786 0.000000 -8.551102
v 18.079786 1.400000 -8.551102
v 17.638426 0.000000 -9.427935
v 17.638426 1.400000 -9.427935
v 17.154572 0.000000 -10.282055
v 17.154572 1.400000 -10.282055
v 16.629393 0.000000 -11.111404
v 16.629393 1.400000 -11.111404
v 16.064150 0.000000 -11.913986
v 16.064150 1.400000 -11.913986
v 15.460209 0.000000 -12.687865
v 15.460209 1.400000 -12.687865
v 14.819022 0.000000 -13.431179
v 14.819022 1.400000 -13.431179
v 14.142136 0.000000 -14.142136
v 14.142136 1.400000 -14.142136
v 13.431179 0.000000 -14.819022
v 13.431179 1.400000 -14.819022
v 12.687865 0.000000 -15.460209
v 12.687865 1.400000 -15.460209
v 11.913986 0.000000 -16.064150
v 11.913986 1.400000 -16.064150
v 11.111404 0.000000 -16.629393
v 11.111404 1.400000 -16.629393
v 10.282055 0.000000 -17.154572
v 10.282055 1.400000 -17.154572
v 9.427935 0.000000 -17.638426
v 9.427935 1.400000 -17.638426
v 8.551102 0.000000 -18.079786
v 8.551102 1.400000 -18.079786
v 7.653669 0.000000 -18.477591
v 7.653669 1.400000 -18.477591
v 6.737797 0.000000 -18.830881
v 6.737797 1.400000 -18.830881
v 5.805694 0.000000 -19.138807
v 5.805694 1.400000 -19.138807
v 4.859603 0.000000 -19.400625
v 4.859603 1.400000 -19.400625
v 3.901806 0.000000 -19.615705
v 3.901806 1.400000 -19.615705
v 2.934609 0.000000 -19.783529
v 2.934609 1.400000 -19.783529
v 1.960343 0.000000 -19.903694
v 1.960343 1.400000 -19.903694
v 0.981353 0.000000 -19.975908
v 0.981353 1.400000 -19.975908
v 0.000000 0.000000 -20.000000
v 0.000000 1.400000 -20.000000
v -0.981353 0.000000 -19.975908
v -0.981353 1.400000 -19.975908
v -1.960343 0.000000 -19.903694
v -1.960343 1.400000 -19.903694
v -2.934609 0.000000 -19.783529
v -2.934609 1.400000 -19.783529
v -3.901806 0.000000 -19.615705
v -3.901806 1.400000 -19.615705
v -4.859603 0.000000 -19.400625
v -4.859603 1.400000 -19.400625
v -5.805694 0.000000 -19.138807
v -5.805694 1.400000 -19.138807
v -6.737797 0.000000 -18.830881
v -6.737797 1.400000 -18.830881
v -7.653669 0.000000 -18.477591
v -7.653669 1.400000 -18.477591
v -8.551102 0.000000 -18.079786
v -8.551102 1.400000 -18.079786
v -9.427935 0.000000 -17.638426
v -9.427935 1.400000 -17.638426
v -10.282055 0.000000 -17.154572
v -10.282055 1.400000 -17.154572
v -11.111404 0.000000 -16.629393
v -11.111404 1.400000 -16.629393
v -11.913986 0.000000 -16.064150
v -11.913986 1.400000 -16.064150
v -12.687865 0.000000 -15.460209
v -12.687865 1.400000 -15.460209
v -13.431179 0.000000 -14.819022
v -13.431179 1.400000 -14.819022
v -14.142136 0.000000 -14.142136
v -14.142136 1.400000 -14.142136
v -14.819022 0.000000 -13.431179
v -14.819022 1.400000 -13.431179
v -15.460209 0.000000 -12.687865
v -15.460209 1.400000 -12.687865
v -16.064150 0.000000 -11.913986
v -16.064150 1.400000 -11.913986
v -16.629393 0.000000 -11.111404
v -16.629393 1.400000 -11.111404
v -17.154572 0.000000 -10.282055
v -17.154572 1.400000 -10.282055
v -17.638426 0.000000 -9.427935
v -17.638426 1.400000 -9.427935
v -18.079786 0.000000 -8.551102
v -18.079786 1.400000 -8.551102
v -18.477591 0.000000 -7.653669
v -18.477591 1.400000 -7.653669
v -18.830881 0.000000 -6.737797
v -18.830881 1.400000 -6.737797
v -19.138807 0.000000 -5.805694
v -19.138807 1.400000 -5.805694
v -19.400625 0.000000 -4.859603
v -19.400625 1.400000 -4.859603
v -19.615705 0.000000 -3.901806
v -19.615705 1.400000 -3.901806
v -19.783529 0.000000 -2.934609
v -19.783529 1.400000 -2.934609
v -19.903694 0.000000 -1.960343
v -19.903694 1.400000 -1.960343
v -19.975908 0.000000 -0.981353
v -19.975908 1.400000 -0.981353
v -20.000000 0.000000 -0.000000
v -20.000000 1.400000 -0.000000
v -19.975908 0.000000 0.981353
v -19.975908 1.400000 0.981353
v -19.903694 0.000000 1.960343
v -19.903694 1.400000 1.960343
v -19.783529 0.000000 2.934609
v -19.783529 1.400000 2.934609
v -19.615705 0.000000 3.901806
v -19.615705 1.400000 3.901806
v -19.400625 0.000000 4.859603
v -19.400625 1.400000 4.859603
v -19.138807 0.000000 5.805694
v -19.138807 1.400000 5.805694
v -18.830881 0.000000 6.737797
v -18.830881 1.400000 6.737797
v -18.477591 0.000000 7.653669
v -18.477591 1.400000 7.653669
v -18.079786 0.000000 8.551102
v -18.079786 1.400000 8.551102
v -17.638426 0.000000 9.427935
v -17.638426 1.400000 9.427935
v -17.154572 0.000000 10.282055
v -17.154572 1.400000 10.282055
v -16.629393 0.000000 11.111404
v -16.629393 1.400000 11.111404
v -16.064150 0.000000 11.913986
v -16.064150 1.400000 11.913986
v -15.460209 0.000000 12.687865
v -15.460209 1.400000 12.687865
v -14.819022 0.000000 13.431179
v -14.819022 1.400000 13.431179
v -14.142136 0.000000 14.142136
v -14.142136 1.400000 14.142136
v -13.431179 0.000000 14.819022
v -13.431179 1.400000 14.819022
v -12.687865 0.000000 15.460209
v -12.687865 1.400000 15.460209
v -11.913986 0.000000 16.064150
v -11.913986 1.400000 16.064150
v -11.111404 0.000000 16.629393
v -11.111404 1.400000 16.629393
v -10.282055 0.000000 17.154572
v -10.282055 1.400000 17.154572
v -9.427935 0.000000 17.638426
v -9.427935 1.400000 17.638426
v -8.551102 0.000000 18.079786
v -8.551102 1.400000 18.079786
v -7.653669 0.000000 18.477591
v -7.653669 1.400000 18.477591
v -6.737797 0.000000 18.830881
v -6.737797 1.400000 18.830881
v -5.805694 0.000000 19.138807
v -5.805694 1.400000 19.138807
v -4.859603 0.000000 19.400625
v -4.859603 1.400000 19.400625
v -3.901806 0.000000 19.615705
v -3.901806 1.400000 19.615705
v -2.934609 0.000000 19.783529
v -2.934609 1.400000 19.783529
v -1.960343 0.000000 19.903694
v -1.960343 1.400000 19.903694
v -0.981353 0.000000 19.975908
v -0.981353 1.400000 19.975908
v -0.000000 0.000000 20.000000
v -0.000000 1.400000 20.000000
v 0.981353 0.000000 19.975908
v 0.981353 1.400000 19.975908
v 1.960343 0.000000 19.903694
v 1.960343 1.400000 19.903694
v 2.934609 0.000000 19.783529
v 2.934609 1.400000 19.783529
v 3.901806 0.000000 19.615705
v 3.901806 1.400000 19.615705
v 4.859603 0.000000 19.400625
v 4.859603 1.400000 19.400625
v 5.805694 0.000000 19.138807
v 5.805694 1.400000 19.138807
v 6.737797 0.000000 18.830881
v 6.737797 1.400000 18.830881
v 7.653669 0.000000 18.477591
v 7.653669 1.400000 18.477591
v 8.551102 0.000000 18.079786
v 8.551102 1.400000 18.079786
v 9.427935 0.000000 17.638426
v 9.427935 1.400000 17.638426
v 10.282055 0.000000 17.154572
v 10.282055 1.400000 17.154572
v 11.111404 0.000000 16.629393
v 11.111404 1.400000 16.629393
v 11.913986 0.000000 16.064150
v 11.913986 1.400000 16.064150
v 12.687865 0.000000 15.460209
v 12.687865 1.400000 15.460209
v 13.431179 0.000000 14.819022
v 13.431179 1.400000 14.819022
v 14.142136 0.000000 14.142136
v 14.142136 1.400000 14.142136
v 14.819022 0.000000 13.431179
v 14.819022 1.400000 13.431179
v 15.460209 0.000000 12.687865
v 15.460209 1.400000 12.687865
v 16.064150 0.000000 11.913986
v 16.064150 1.400000 11.913986
v 16.629393 0.000000 11.111404
v 16.629393 1.400000 11.111404
v 17.154572 0.000000 10.282055
v 17.154572 1.400000 10.282055
v 17.638426 0.000000 9.427935
v 17.638426 1.400000 9.427935
v 18.079786 0.000000 8.551102
v 18.079786 1.400000 8.551102
v 18.477591 0.000000 7.653669
v 18.477591 1.400000 7.653669
v 18.830881 0.000000 6.737797
v 18.830881 1.400000 6.737797
v 19.138807 0.000000 5.805694
v 19.138807 1.400000 5.805694
v 19.400625 0.000000 4.859603
v 19.400625 1.400000 4.859603
v 19.615705 0.000000 3.901806
v 19.615705 1.400000 3.901806
v 19.783529 0.000000 2.934609
v 19.783529 1.400000 2.934609
v 19.903694 0.000000 1.960343
v 19.903694 1.400000 1.960343
v 19.975908 0.000000 0.981353
v 19.975908 1.400000 0.981353
vn 1.0000 -0.0000 -0.0000
vn 0.9988 -0.0000 -0.0491
vn 0.9952 -0.0000 -0.0980
vn 0.9892 -0.0000 -0.1467
vn 0.9808 -0.0000 -0.1951
vn 0.9700 -0.0000 -0.2430
vn 0.9569 -0.0000 -0.2903
vn 0.9415 -0.0000 -0.3369
vn 0.9239 -0.0000 -0.3827
vn 0.9040 -0.0000 -0.4276
vn 0.8819 -0.0000 -0.4714
vn 0.8577 -0.0000 -0.5141
vn 0.8315 -0.0000 -0.5556
vn 0.8032 -0.0000 -0.5957
vn 0.7730 -0.0000 -0.6344
vn 0.7410 -0.0000 -0.6716
vn 0.7071 -0.0000 -0.7071
vn 0.6716 -0.0000 -0.7410
vn 0.6344 -0.0000 -0.7730
vn 0.5957 -0.0000 -0.8032
vn 0.5556 -0.0000 -0.8315
vn 0.5141 -0.0000 -0.8577
vn 0.4714 -0.0000 -0.8819
vn 0.4276 -0.0000 -0.9040
vn 0.3827 -0.0000 -0.9239
vn 0.3369 -0.0000 -0.9415
vn 0.2903 -0.0000 -0.9569
vn 0.2430 -0.0000 -0.9700
vn 0.1951 -0.0000 -0.9808
vn 0.1467 -0.0000 -0.9892
vn 0.0980 -0.0000 -0.9952
vn 0.0491 -0.0000 -0.9988
vn -0.0000 -0.0000 -1.0000
vn -0.0491 -0.0000 -0.9988
vn -0.0980 -0.0000 -0.9952
vn -0.1467 -0.0000 -0.9892
vn -0.1951 -0.0000 -0.9808
vn -0.2430 -0.0000 -0.9700
vn -0.2903 -0.0000 -0.9569
vn -0.3369 -0.0000 -0.9415
vn -0.3827 -0.0000 -0.9239
vn -0.4276 -0.0000 -0.9040
vn -0.4714 -0.0000 -0.8819
vn -0.5141 -0.0000 -0.8577
vn -0.5556 -0.0000 -0.8315
vn -0.5957 -0.0000 -0.8032
vn -0.6344 -0.0000 -0.7730
vn -0.6716 -0.0000 -0.7410
vn -0.7071 -0.0000 -0.7071
vn -0.7410 -0.0000 -0.6716
vn -0.7730 -0.0000 -0.6344
vn -0.8032 -0.0000 -0.5957
vn -0.8315 -0.0000 -0.5556
vn -0.8577 -0.0000 -0.5141
vn -0.8819 -0.0000 -0.4714
vn -0.9040 -0.0000 -0.4276
vn -0.9239 -0.0000 -0.3827
vn -0.9415 -0.0000 -0.3369
vn -0.9569 -0.0000 -0.2903
vn -0.9700 -0.0000 -0.2430
vn -0.9808 -0.0000 -0.1951
vn -0.9892 -0.0000 -0.1467
vn -0.9952 -0.0000 -0.0980
vn -0.9988 -0.0000 -0.0491
vn -1.0000 -0.0000 -0.0000
vn -0.9988 -0.0000 0.0491
vn -0.9952 -0.0000 0.0980
vn -0.9892 -0.0000 0.1467
vn -0.9808 -0.0000 0.1951
vn -0.9700 -0.0000 0.2430
vn -0.9569 -0.0000 0.2903
vn -0.9415 -0.0000 0.3369
vn -0.9239 -0.0000 0.3827
vn -0.9040 -0.0000 0.4276
vn -0.8819 -0.0000 0.4714
vn -0.8577 -0.0000 0.5141
vn -0.8315 -0.0000 0.5556
vn -0.8032 -0.0000 0.5957
vn -0.7730 -0.0000 0.6344
vn -0.7410 -0.0000 0.6716
vn -0.7071 -0.0000 0.7071
vn -0.6716 -0.0000 0.7410
vn -0.6344 -0.0000 0.7730
vn -0.5957 -0.0000 0.8032
vn -0.5556 -0.0000 0.8315
vn -0.5141 -0.0000 0.8577
vn -0.4714 -0.0000 0.8819
vn -0.4276 -0.0000 0.9040
vn -0.3827 -0.0000 0.9239
vn -0.3369 -0.0000 0.9415
vn -0.2903 -0.0000 0.9569
vn -0.2430 -0.0000 0.9700
vn -0.1951 -0.0000 0.9808
vn -0.1467 -0.0000 0.9892
vn -0.0980 -0.0000 0.9952
vn -0.0491 -0.0000 0.9988
vn -0.0000 -0.0000 1.0000
vn 0.0491 -0.0000 0.9988
vn 0.0980 -0.0000 0.9952
vn 0.1467 -0.0000 0.9892
vn 0.1951 -0.0000 0.9808
vn 0.2430 -0.0000 0.9700
vn 0.2903 -0.0000 0.9569
vn 0.3369 -0.0000 0.9415
vn 0.3827 -0.0000 0.9239
vn 0.4276 -0.0000 0.9040
vn 0.4714 -0.0000 0.8819
vn 0.5141 -0.0000 0.8577
vn 0.5556 -0.0000 0.8315
vn 0.5957 -0.0000 0.8032
vn 0.6344 -0.0000 0.7730
vn 0.6716 -0.0000 0.7410
vn 0.7071 -0.0000 0.7071
vn 0.7410 -0.0000 0.6716
vn 0.7730 -0.0000 0.6344
vn 0.8032 -0.0000 0.5957
vn 0.8315 -0.0000 0.5556
vn 0.8577 -0.0000 0.5141
vn 0.8819 -0.0000 0.4714
vn 0.9040 -0.0000 0.4276
vn 0.9239 -0.0000 0.3827
vn 0.9415 -0.0000 0.3369
vn 0.9569 -0.0000 0.2903
vn 0.9700 -0.0000 0.2430
vn 0.9808 -0.0000 0.1951
vn 0.9892 -0.0000 0.1467
vn 0.9952 -0.0000 0.0980
vn 0.9988 -0.0000 0.0491
vt 0.000000 0.000000
vt 0.007812 0.000000
vt 0.007812 1.000000
vt 0.000000 1.000000
vt 0.015625 0.000000
vt 0.015625 1.000000
vt 0.023438 0.000000
vt 0.023438 1.000000
vt 0.031250 0.000000
vt 0.031250 1.000000
vt 0.039062 0.000000
vt 0.039062 1.000000
vt 0.046875 0.000000
vt 0.046875 1.000000
vt 0.054688 0.000000
vt 0.054688 1.000000
vt 0.062500 0.000000
vt 0.062500 1.000000
vt 0.070312 0.000000
vt 0.070312 1.000000
vt 0.078125 0.000000
vt 0.078125 1.000000
vt 0.085938 0.000000
vt 0.085938 1.000000
vt 0.093750 0.000000
vt 0.093750 1.000000
vt 0.101562 0.000000
vt 0.101562 1.000000
vt 0.109375 0.000000
vt 0.109375 1.000000
vt 0.117188 0.000000
vt 0.117188 1.000000
vt 0.125000 0.000000
vt 0.125000 1.000000
vt 0.132812 0.000000
vt 0.132812 1.000000
vt 0.140625 0.000000
vt 0.140625 1.000000
vt 0.148438 0.000000
vt 0.148438 1.000000
vt 0.156250 0.000000
vt 0.156250 1.000000
vt 0.164062 0.000000
vt 0.164062 1.000000
vt 0.171875 0.000000
vt 0.171875 1.000000
vt 0.179688 0.000000
vt 0.179688 1.000000
vt 0.187500 0.000000
vt 0.187500 1.000000
vt 0.195312 0.000000
vt 0.195312 1.000000
vt 0.203125 0.000000
vt 0.203125 1.000000
vt 0.210938 0.000000
vt 0.210938 1.000000
vt 0.218750 0.000000
vt 0.218750 1.000000
vt 0.226562 0.000000
vt 0.226562 1.000000
vt 0.234375 0.000000
vt 0.234375 1.000000
vt 0.242188 0.000000
vt 0.242188 1.000000
vt 0.250000 0.000000
vt 0.250000 1.000000
vt 0.257812 0.000000
vt 0.257812 1.000000
vt 0.265625 0.000000
vt 0.265625 1.000000
vt 0.273438 0.000000
vt 0.273438 1.000000
vt 0.281250 0.000000
vt 0.281250 1.000000
vt 0.289062 0.000000
vt 0.289062 1.000000
vt 0.296875 0.000000
vt 0.296875 1.000000
vt 0.304688 0.000000
vt 0.304688 1.000000
vt 0.312500 0.000000
vt 0.312500 1.000000
vt 0.320312 0.000000
vt 0.320312 1.000000
vt 0.328125 0.000000
vt 0.328125 1.000000
vt 0.335938 0.000000
vt 0.335938 1.000000
vt 0.343750 0.000000
vt 0.343750 1.000000
vt 0.351562 0.000000
vt 0.351562 1.000000
vt 0.359375 0.000000
vt 0.359375 1.000000
vt 0.367188 0.000000
vt 0.367188 1.000000
vt 0.375000 0.000000
vt 0.375000 1.000000
vt 0.382812 0.000000
vt 0.382812 1.000000
vt 0.390625 0.000000
vt 0.390625 1.000000
vt 0.398438 0.000000
vt 0.398438 1.000000
vt 0.406250 0.000000
vt 0.406250 1.000000
vt 0.414062 0.000000
vt 0.414062 1.000000
vt 0.421875 0.000000
vt 0.421875 1.000000
vt 0.429688 0.000000
vt 0.429688 1.000000
vt 0.437500 0.000000
vt 0.437500 1.000000
vt 0.445312 0.000000
vt 0.445312 1.000000
vt 0.453125 0.000000
vt 0.453125 1.000000
vt 0.460938 0.000000
vt 0.460938 1.000000
vt 0.468750 0.000000
vt 0.468750 1.000000
vt 0.476562 0.000000
vt 0.476562 1.000000
vt 0.484375 0.000000
vt 0.484375 1.000000
vt 0.492188 0.000000
vt 0.492188 1.000000
vt 0.500000 0.000000
vt 0.500000 1.000000
vt 0.507812 0.000000
vt 0.507812 1.000000
vt 0.515625 0.000000
vt 0.515625 1.000000
vt 0.523438 0.000000
vt 0.523438 1.000000
vt 0.531250 0.000000
vt 0.531250 1.000000
vt 0.539062 0.000000
vt 0.539062 1.000000
vt 0.546875 0.000000
vt 0.546875 1.000000
vt 0.554688 0.000000
vt 0.554688 1.000000
vt 0.562500 0.000000
vt 0.562500 1.000000
vt 0.570312 0.000000
vt 0.570312 1.000000
vt 0.578125 0.000000
vt 0.578125 1.000000
vt 0.585938 0.000000
vt 0.585938 1.000000
vt 0.593750 0.000000
vt 0.593750 1.000000
vt 0.601562 0.000000
vt 0.601562 1.000000
vt 0.609375 0.000000
vt 0.609375 1.000000
vt 0.617188 0.000000
vt 0.617188 1.000000
vt 0.625000 0.000000
vt 0.625000 1.000000
vt 0.632812 0.000000
vt 0.632812 1.000000
vt 0.640625 0.000000
vt 0.640625 1.000000
vt 0.648438 0.000000
vt 0.648438 1.000000
vt 0.656250 0.000000
vt 0.656250 1.000000
vt 0.664062 0.000000
vt 0.664062 1.000000
vt 0.671875 0.000000
vt 0.671875 1.000000
vt 0.679688 0.000000
vt 0.679688 1.000000
vt 0.687500 0.000000
vt 0.687500 1.000000
vt 0.695312 0.000000
vt 0.695312 1.000000
vt 0.703125 0.000000
vt 0.703125 1.000000
vt 0.710938 0.000000
vt 0.710938 1.000000
vt 0.718750 0.000000
vt 0.718750 1.000000
vt 0.726562 0.000000
vt 0.726562 1.000000
vt 0.734375 0.000000
vt 0.734375 1.000000
vt 0.742188 0.000000
vt 0.742188 1.000000
vt 0.750000 0.000000
vt 0.750000 1.000000
vt 0.757812 0.000000
vt 0.757812 1.000000
vt 0.765625 0.000000
vt 0.765625 1.000000
vt 0.773438 0.000000
vt 0.773438 1.000000
vt 0.781250 0.000000
vt 0.781250 1.000000
vt 0.789062 0.000000
vt 0.789062 1.000000
vt 0.796875 0.000000
vt 0.796875 1.000000
vt 0.804688 0.000000
vt 0.804688 1.000000
vt 0.812500 0.000000
vt 0.812500 1.000000
vt 0.820312 0.000000
vt 0.820312 1.000000
vt 0.828125 0.000000
vt 0.828125 1.000000
vt 0.835938 0.000000
vt 0.835938 1.000000
vt 0.843750 0.000000
vt 0.843750 1.000000
vt 0.851562 0.000000
vt 0.851562 1.000000
vt 0.859375 0.000000
vt 0.859375 1.000000
vt 0.867188 0.000000
vt 0.867188 1.000000
vt 0.875000 0.000000
vt 0.875000 1.000000
vt 0.882812 0.000000
vt 0.882812 1.000000
vt 0.890625 0.000000
vt 0.890625 1.000000
vt 0.898438 0.000000
vt 0.898438 1.000000
vt 0.906250 0.000000
vt 0.906250 1.000000
vt 0.914062 0.000000
vt 0.914062 1.000000
vt 0.921875 0.000000
vt 0.921875 1.000000
vt 0.929688 0.000000
vt 0.929688 1.000000
vt 0.937500 0.000000
vt 0.937500 1.000000
vt 0.945312 0.000000
vt 0.945312 1.000000
vt 0.953125 0.000000
vt 0.953125 1.000000
vt 0.960938 0.000000
vt 0.960938 1.000000
vt 0.968750 0.000000
vt 0.968750 1.000000
vt 0.976562 0.000000
vt 0.976562 1.000000
vt 0.984375 0.000000
vt 0.984375 1.000000
vt 0.992188 0.000000
vt 0.992188 1.000000
s 1
usemtl ArenaGlassMaterial
f 1/1/1 3/2/2 4/3/2 2/4/1
f 3/2/2 5/5/3 6/6/3 4/3/2
f 5/5/3 7/7/4 8/8/4 6/6/3
f 7/7/4 9/9/5 10/10/5 8/8/4
f 9/9/5 11/11/6 12/12/6 10/10/5
f 11/11/6 13/13/7 14/14/7 12/12/6
f 13/13/7 15/15/8 16/16/8 14/14/7
f 15/15/8 17/17/9 18/18/9 16/16/8
f 17/17/9 19/19/10 20/20/10 18/18/9
f 19/19/10 21/21/11 22/22/11 20/20/10
f 21/21/11 23/23/12 24/24/12 22/22/11
f 23/23/12 25/25/13 26/26/13 24/24/12
f 25/25/13 27/27/14 28/28/14 26/26/13
f 27/27/14 29/29/15 30/30/15 28/28/14
f 29/29/15 31/31/16 32/32/16 30/30/15
f 31/31/16 33/33/17 34/34/17 32/32/16
f 33/33/17 35/35/18 36/36/18 34/34/17
f 35/35/18 37/37/19 38/38/19 36/36/18
f 37/37/19 39/39/20 40/40/20 38/38/19
f 39/39/20 41/41/21 42/42/21 40/40/20
f 41/41/21 43/43/22 44/44/22 42/42/21
f 43/43/22 45/45/23 46/46/23 44/44/22
f 45/45/23 47/47/24 48/48/24 46/46/23
f 47/47/24 49/49/25 50/50/25 48/48/24
f 49/49/25 51/51/26 52/52/26 50/50/25
f 51/51/26 53/53/27 54/54/27 52/52/26
f 53/53/27 55/55/28 56/56/28 54/54/27
f 55/55/28 57/57/29 58/58/29 56/56/28
f 57/57/29 59/59/30 60/60/30 58/58/29
f 59/59/30 61/61/31 62/62/31 60/60/30
f 61/61/31 63/63/32 64/64/32 62/62/31
f 63/63/32 65/65/33 66/66/33 64/64/32
f 65/65/33 67/67/34 68/68/34 66/66/33
f 67/67/34 69/69/35 70/70/35 68/68/34
f 69/69/35 71/71/36 72/72/36 70/70/35
f 71/71/36 73/73/37 74/74/37 72/72/36
f 73/73/37 75/75/38 76/76/38 74/74/37
f 75/75/38 77/77/39 78/78/39 76/76/38
f 77/77/39 79/79/40 80/80/40 78/78/39
f 79/79/40 81/81/41 82/82/41 80/80/40
f 81/81/41 83/83/42 84/84/42 82/82/41
f 83/83/42 85/85/43 86/86/43 84/84/42
f 85/85/43 87/87/44 88/88/44 86/86/43
f 87/87/44 89/89/45 90/90/45 88/88/44
f 89/89/45 91/91/46 92/92/46 90/90/45
f 91/91/46 93/93/47 94/94/47 92/92/46
f 93/93/47 95/95/48 96/96/48 94/94/47
f 95/95/48 97/97/49 98/98/49 96/96/48
f 97/97/49 99/99/50 100/100/50 98/98/49
f 99/99/50 101/101/51 102/102/51 100/100/50
f 101/101/51 103/103/52 104/104/52 102/102/51
f 103/103/52 105/105/53 106/106/53 104/104/52
f 105/105/53 107/107/54 108/108/54 106/106/53
f 107/107/54 109/109/55 110/110/55 108/108/54
f 109/109/55 111/111/56 112/112/56 110/110/55
f 111/111/56 113/113/57 114/114/57 112/112/56
f 113/113/57 115/115/58 116/116/58 114/114/57
f 115/115/58 117/117/59 118/118/59 116/116/58
f 117/117/59 119/119/60 120/120/60 118/118/59
f 119/119/60 121/121/61 122/122/61 120/120/60
f 121/121/61 123/123/62 124/124/62 122/122/61
f 123/123/62 125/125/63 126/126/63 124/124/62
f 125/125/63 127/127/64 128/128/64 126/126/63
f 127/127/64 129/129/65 130/130/65 128/128/64
f 129/129/65 131/131/66 132/132/66 130/130/65
f 131/131/66 133/133/67 134/134/67 132/132/66
f 133/133/67 135/135/68 136/136/68 134/134/67
f 135/135/68 137/137/69 138/138/69 136/136/68
f 137/137/69 139/139/70 140/140/70 138/138/69
f 139/139/70 141/141/71 142/142/71 140/140/70
f 141/141/71 143/143/72 144/144/72 142/142/71
f 143/143/72 145/145/73 146/146/73 144/144/72
f 145/145/73 147/147/74 148/148/74 146/146/73
f 147/147/74 149/149/75 150/150/75 148/148/74
f 149/149/75 151/151/76 152/152/76 150/150/75
f 151/151/76 153/153/77 154/154/77 152/152/76
f 153/153/77 155/155/78 156/156/78 154/154/77
f 155/155/78 157/157/79 158/158/79 156/156/78
f 157/157/79 159/159/80 160/160/80 158/158/79
f 159/159/80 161/161/81 162/162/81 160/160/80
f 161/161/81 163/163/82 164/164/82 162/162/81
f 163/163/82 165/165/83 166/166/83 164/164/82
f 165/165/83 167/167/84 168/168/84 166/166/83
f 167/167/84 169/169/85 170/170/85 168/168/84
f 169/169/85 171/171/86 172/172/86 170/170/85
f 171/171/86 173/173/87 174/174/87 172/172/86
f 173/173/87 175/175/88 176/176/88 174/174/87
f 175/175/88 177/177/89 178/178/89 176/176/88
f 177/177/89 179/179/90 180/180/90 178/178/89
f 179/179/90 181/181/91 182/182/91 180/180/90
f 181/181/91 183/183/92 184/184/92 182/182/91
f 183/183/92 185/185/93 186/186/93 184/184/92
f 185/185/93 187/187/94 188/188/94 186/186/93
f 187/187/94 189/189/95 190/190/95 188/188/94
f 189/189/95 191/191/96 192/192/96 190/190/95
f 191/191/96 193/193/97 194/194/97 192/192/96
f 193/193/97 195/195/98 196/196/98 194/194/97
f 195/195/98 197/197/99 198/198/99 196/196/98
f 197/197/99 199/199/100 200/200/100 198/198/99
f 199/199/100 201/201/101 202/202/101 200/200/100
f 201/201/101 203/203/102 204/204/102 202/202/101
f 203/203/102 205/205/103 206/206/103 204/204/102
f 205/205/103 207/207/104 208/208/104 206/206/103
f 207/207/104 209/209/105 210/210/105 208/208/104
f 209/209/105 211/211/106 212/212/106 210/210/105
f 211/211/106 213/213/107 214/214/107 212/212/106
f 213/213/107 215/215/108 216/216/108 214/214/107
f 215/215/108 217/217/109 218/218/109 216/216/108
f 217/217/109 219/219/110 220/220/110 218/218/109
f 219/219/110 221/221/111 222/222/111 220/220/110
f 221/221/111 223/223/112 224/224/112 222/222/111
f 223/223/112 225/225/113 226/226/113 224/224/112
f 225/225/113 227/227/114 228/228/114 226/226/113
f 227/227/114 229/229/115 230/230/115 228/228/114
f 229/229/115 231/231/116 232/232/116 230/230/115
f 231/231/116 233/233/117 234/234/117 232/232/116
f 233/233/117 235/235/118 236/236/118 234/234/117
f 235/235/118 237/237/119 238/238/119 236/236/118
f 237/237/119 239/239/120 240/240/120 238/238/119
f 239/239/120 241/241/121 242/242/121 240/240/120
f 241/241/121 243/243/122 244/244/122 242/242/121
f 243/243/122 245/245/123 246/246/123 244/244/122
f 245/245/123 247/247/124 248/248/124 246/246/123
f 247/247/124 249/249/125 250/250/125 248/248/124
f 249/249/125 251/251/126 252/252/126 250/250/125
f 251/251/126 253/253/127 254/254/127 252/252/126
f 253/253/127 255/255/128 256/256/128 254/254/127
f 255/255/128 1/1/1 2/4/1 256/256/128
