# Blender 4.4.1
# www.blender.org
mtllib MagnetGround.mtl
o MagnetGround
v 0.000000 0.000000 0.000000
v 20.000000 0.000000 0.000000
v 19.975908 0.000000 -0.981353
v 19.903694 0.000000 -1.960343
v 19.783529 0.000000 -2.934609
v 19.615705 0.000000 -3.901806
v 19.400625 0.000000 -4.859603
v 19.138807 0.000000 -5.805694
v 18.830881 0.000000 -6.737797
v 18.477591 0.000000 -7.653669
v 18.079786 0.000000 -8.551102
v 17.638426 0.000000 -9.427935
v 17.154572 0.000000 -10.282055
v 16.629393 0.000000 -11.111404
v 16.064150 0.000000 -11.913986
v 15.460209 0.000000 -12.687865
v 14.819022 0.000000 -13.431179
v 14.142136 0.000000 -14.142136
v 13.431179 0.000000 -14.819022
v 12.687865 0.000000 -15.460209
v 11.913986 0.000000 -16.064150
v 11.111404 0.000000 -16.629393
v 10.282055 0.000000 -17.154572
v 9.427935 0.000000 -17.638426
v 8.551102 0.000000 -18.079786
v 7.653669 0.000000 -18.477591
v 6.737797 0.000000 -18.830881
v 5.805694 0.000000 -19.138807
v 4.859603 0.000000 -19.400625
v 3.901806 0.000000 -19.615705
v 2.934609 0.000000 -19.783529
v 1.960343 0.000000 -19.903694
v 0.981353 0.000000 -19.975908
v 0.000000 0.000000 -20.000000
v -0.981353 0.000000 -19.975908
v -1.960343 0.000000 -19.903694
v -2.934609 0.000000 -19.783529
v -3.901806 0.000000 -19.615705
v -4.859603 0.000000 -19.400625
v -5.805694 0.000000 -19.138807
v -6.737797 0.000000 -18.830881
v -7.653669 0.000000 -18.477591
v -8.551102 0.000000 -18.079786
v -9.427935 0.000000 -17.638426
v -10.282055 0.000000 -17.154572
v -11.111404 0.000000 -16.629393
v -11.913986 0.000000 -16.064150
v -12.687865 0.000000 -15.460209
v -13.431179 0.000000 -14.819022
v -14.142136 0.000000 -14.142136
v -14.819022 0.000000 -13.431179
v -15.460209 0.000000 -12.687865
v -16.064150 0.000000 -11.913986
v -16.629393 0.000000 -11.111404
v -17.154572 0.000000 -10.282055
v -17.638426 0.000000 -9.427935
v -18.079786 0.000000 -8.551102
v -18.477591 0.000000 -7.653669
v -18.830881 0.000000 -6.737797
v -19.138807 0.000000 -5.805694
v -19.400625 0.000000 -4.859603
v -19.615705 0.000000 -3.901806
v -19.783529 0.000000 -2.934609
v -19.903694 0.000000 -1.960343
v -19.975908 0.000000 -0.981353
v -20.000000 0.000000 -0.000000
v -19.975908 0.000000 0.981353
v -19.903694 0.000000 1.960343
v -19.783529 0.000000 2.934609
v -19.615705 0.000000 3.901806
v -19.400625 0.000000 4.859603
v -19.138807 0.000000 5.805694
v -18.830881 0.000000 6.737797
v -18.477591 0.000000 7.653669
v -18.079786 0.000000 8.551102
v -17.638426 0.000000 9.427935
v -17.154572 0.000000 10.282055
v -16.629393 0.000000 11.111404
v -16.064150 0.000000 11.913986
v -15.460209 0.000000 12.687865
v -14.819022 0.000000 13.431179
v -14.142136 0.000000 14.142136
v -13.431179 0.000000 14.819022
v -12.687865 0.000000 15.460209
v -11.913986 0.000000 16.064150
v -11.111404 0.000000 16.629393
v -10.282055 0.000000 17.154572
v -9.427935 0.000000 17.638426
v -8.551102 0.000000 18.079786
v -7.653669 0.000000 18.477591
v -6.737797 0.000000 18.830881
v -5.805694 0.000000 19.138807
v -4.859603 0.000000 19.400625
v -3.901806 0.000000 19.615705
v -2.934609 0.000000 19.783529
v -1.960343 0.000000 19.903694
v -0.981353 0.000000 19.975908
v -0.000000 0.000000 20.000000
v 0.981353 0.000000 19.975908
v 1.960343 0.000000 19.903694
v 2.934609 0.000000 19.783529
v 3.901806 0.000000 19.615705
v 4.859603 0.000000 19.400625
v 5.805694 0.000000 19.138807
v 6.737797 0.000000 18.830881
v 7.653669 0.000000 18.477591
v 8.551102 0.000000 18.079786
v 9.427935 0.000000 17.638426
v 10.282055 0.000000 17.154572
v 11.111404 0.000000 16.629393
v 11.913986 0.000000 16.064150
v 12.687865 0.000000 15.460209
v 13.431179 0.000000 14.819022
v 14.142136 0.000000 14.142136
v 14.819022 0.000000 13.431179
v 15.460209 0.000000 12.687865
v 16.064150 0.000000 11.913986
v 16.629393 0.000000 11.111404
v 17.154572 0.000000 10.282055
v 17.638426 0.000000 9.427935
v 18.079786 0.000000 8.551102
v 18.477591 0.000000 7.653669
v 18.830881 0.000000 6.737797
v 19.138807 0.000000 5.805694
v 19.400625 0.000000 4.859603
v 19.615705 0.000000 3.901806
v 19.783529 0.000000 2.934609
v 19.903694 0.000000 1.960343
v 19.975908 0.000000 0.981353
vn -0.0000 1.0000 -0.0000
vt 0.500000 0.500000
vt 1.000000 0.500000
vt 0.999398 0.524534
vt 0.997592 0.549009
vt 0.994588 0.573365
vt 0.990393 0.597545
vt 0.985016 0.621490
vt 0.978470 0.645142
vt 0.970772 0.668445
vt 0.961940 0.691342
vt 0.951995 0.713778
vt 0.940961 0.735698
vt 0.928864 0.757051
vt 0.915735 0.777785
vt 0.901604 0.797850
vt 0.886505 0.817197
vt 0.870476 0.835779
vt 0.853553 0.853553
vt 0.835779 0.870476
vt 0.817197 0.886505
vt 0.797850 0.901604
vt 0.777785 0.915735
vt 0.757051 0.928864
vt 0.735698 0.940961
vt 0.713778 0.951995
vt 0.691342 0.961940
vt 0.668445 0.970772
vt 0.645142 0.978470
vt 0.621490 0.985016
vt 0.597545 0.990393
vt 0.573365 0.994588
vt 0.549009 0.997592
vt 0.524534 0.999398
vt 0.500000 1.000000
vt 0.475466 0.999398
vt 0.450991 0.997592
vt 0.426635 0.994588
vt 0.402455 0.990393
vt 0.378510 0.985016
vt 0.354858 0.978470
vt 0.331555 0.970772
vt 0.308658 0.961940
vt 0.286222 0.951995
vt 0.264302 0.940961
vt 0.242949 0.928864
vt 0.222215 0.915735
vt 0.202150 0.901604
vt 0.182803 0.886505
vt 0.164221 0.870476
vt 0.146447 0.853553
vt 0.129524 0.835779
vt 0.113495 0.817197
vt 0.098396 0.797850
vt 0.084265 0.777785
vt 0.071136 0.757051
vt 0.059039 0.735698
vt 0.048005 0.713778
vt 0.038060 0.691342
vt 0.029228 0.668445
vt 0.021530 0.645142
vt 0.014984 0.621490
vt 0.009607 0.597545
vt 0.005412 0.573365
vt 0.002408 0.549009
vt 0.000602 0.524534
vt 0.000000 0.500000
vt 0.000602 0.475466
vt 0.002408 0.450991
vt 0.005412 0.426635
vt 0.009607 0.402455
vt 0.014984 0.378510
vt 0.021530 0.354858
vt 0.029228 0.331555
vt 0.038060 0.308658
vt 0.048005 0.286222
vt 0.059039 0.264302
vt 0.071136 0.242949
vt 0.084265 0.222215
vt 0.098396 0.202150
vt 0.113495 0.182803
vt 0.129524 0.164221
vt 0.146447 0.146447
vt 0.164221 0.129524
vt 0.182803 0.113495
vt 0.202150 0.098396
vt 0.222215 0.084265
vt 0.242949 0.071136
vt 0.264302 0.059039
vt 0.286222 0.048005
vt 0.308658 0.038060
vt 0.331555 0.029228
vt 0.354858 0.021530
vt 0.378510 0.014984
vt 0.402455 0.009607
vt 0.426635 0.005412
vt 0.450991 0.002408
vt 0.475466 0.000602
vt 0.500000 0.000000
vt 0.524534 0.000602
vt 0.549009 0.002408
vt 0.573365 0.005412
vt 0.597545 0.009607
vt 0.621490 0.014984
vt 0.645142 0.021530
vt 0.668445 0.029228
vt 0.691342 0.038060
vt 0.713778 0.048005
vt 0.735698 0.059039
vt 0.757051 0.071136
vt 0.777785 0.084265
vt 0.797850 0.098396
vt 0.817197 0.113495
vt 0.835779 0.129524
vt 0.853553 0.146447
vt 0.870476 0.164221
vt 0.886505 0.182803
vt 0.901604 0.202150
vt 0.915735 0.222215
vt 0.928864 0.242949
vt 0.940961 0.264302
vt 0.951995 0.286222
vt 0.961940 0.308658
vt 0.970772 0.331555
vt 0.978470 0.354858
vt 0.985016 0.378510
vt 0.990393 0.402455
vt 0.994588 0.426635
vt 0.997592 0.450991
vt 0.999398 0.475466
s 1
usemtl MagnetGroundMaterial
f 1/1/1 2/2/1 3/3/1
f 1/1/1 3/3/1 4/4/1
f 1/1/1 4/4/1 5/5/1
f 1/1/1 5/5/1 6/6/1
f 1/1/1 6/6/1 7/7/1
f 1/1/1 7/7/1 8/8/1
f 1/1/1 8/8/1 9/9/1
f 1/1/1 9/9/1 10/10/1
f 1/1/1 10/10/1 11/11/1
f 1/1/1 11/11/1 12/12/1
f 1/1/1 12/12/1 13/13/1
f 1/1/1 13/13/1 14/14/1
f 1/1/1 14/14/1 15/15/1
f 1/1/1 15/15/1 16/16/1
f 1/1/1 16/16/1 17/17/1
f 1/1/1 17/17/1 18/18/1
f 1/1/1 18/18/1 19/19/1
f 1/1/1 19/19/1 20/20/1
f 1/1/1 20/20/1 21/21/1
f 1/1/1 21/21/1 22/22/1
f 1/1/1 22/22/1 23/23/1
f 1/1/1 23/23/1 24/24/1
f 1/1/1 24/24/1 25/25/1
f 1/1/1 25/25/1 26/26/1
f 1/1/1 26/26/1 27/27/1
f 1/1/1 27/27/1 28/28/1
f 1/1/1 28/28/1 29/29/1
f 1/1/1 29/29/1 30/30/1
f 1/1/1 30/30/1 31/31/1
f 1/1/1 31/31/1 32/32/1
f 1/1/1 32/32/1 33/33/1
f 1/1/1 33/33/1 34/34/1
f 1/1/1 34/34/1 35/35/1
f 1/1/1 35/35/1 36/36/1
f 1/1/1 36/36/1 37/37/1
f 1/1/1 37/37/1 38/38/1
f 1/1/1 38/38/1 39/39/1
f 1/1/1 39/39/1 40/40/1
f 1/1/1 40/40/1 41/41/1
f 1/1/1 41/41/1 42/42/1
f 1/1/1 42/42/1 43/43/1
f 1/1/1 43/43/1 44/44/1
f 1/1/1 44/44/1 45/45/1
f 1/1/1 45/45/1 46/46/1
f 1/1/1 46/46/1 47/47/1
f 1/1/1 47/47/1 48/48/1
f 1/1/1 48/48/1 49/49/1
f 1/1/1 49/49/1 50/50/1
f 1/1/1 50/50/1 51/51/1
f 1/1/1 51/51/1 52/52/1
f 1/1/1 52/52/1 53/53/1
f 1/1/1 53/53/1 54/54/1
f 1/1/1 54/54/1 55/55/1
f 1/1/1 55/55/1 56/56/1
f 1/1/1 56/56/1 57/57/1
f 1/1/1 57/57/1 58/58/1
f 1/1/1 58/58/1 59/59/1
f 1/1/1 59/59/1 60/60/1
f 1/1/1 60/60/1 61/61/1
f 1/1/1 61/61/1 62/62/1
f 1/1/1 62/62/1 63/63/1
f 1/1/1 63/63/1 64/64/1
f 1/1/1 64/64/1 65/65/1
f 1/1/1 65/65/1 66/66/1
f 1/1/1 66/66/1 67/67/1
f 1/1/1 67/67/1 68/68/1
f 1/1/1 68/68/1 69/69/1
f 1/1/1 69/69/1 70/70/1
f 1/1/1 70/70/1 71/71/1
f 1/1/1 71/71/1 72/72/1
f 1/1/1 72/72/1 73/73/1
f 1/1/1 73/73/1 74/74/1
f 1/1/1 74/74/1 75/75/1
f 1/1/1 75/75/1 76/76/1
f 1/1/1 76/76/1 77/77/1
f 1/1/1 77/77/1 78/78/1
f 1/1/1 78/78/1 79/79/1
f 1/1/1 79/79/1 80/80/1
f 1/1/1 80/80/1 81/81/1
f 1/1/1 81/81/1 82/82/1
f 1/1/1 82/82/1 83/83/1
f 1/1/1 83/83/1 84/84/1
f 1/1/1 84/84/1 85/85/1
f 1/1/1 85/85/1 86/86/1
f 1/1/1 86/86/1 87/87/1
f 1/1/1 87/87/1 88/88/1
f 1/1/1 88/88/1 89/89/1
f 1/1/1 89/89/1 90/90/1
f 1/1/1 90/90/1 91/91/1
f 1/1/1 91/91/1 92/92/1
f 1/1/1 92/92/1 93/93/1
f 1/1/1 93/93/1 94/94/1
f 1/1/1 94/94/1 95/95/1
f 1/1/1 95/95/1 96/96/1
f 1/1/1 96/96/1 97/97/1
f 1/1/1 97/97/1 98/98/1
f 1/1/1 98/98/1 99/99/1
f 1/1/1 99/99/1 100/100/1
f 1/1/1 100/100/1 101/101/1
f 1/1/1 101/101/1 102/102/1
f 1/1/1 102/102/1 103/103/1
f 1/1/1 103/103/1 104/104/1
f 1/1/1 104/104/1 105/105/1
f 1/1/1 105/105/1 106/106/1
f 1/1/1 106/106/1 107/107/1
f 1/1/1 107/107/1 108/108/1
f 1/1/1 108/108/1 109/109/1
f 1/1/1 109/109/1 110/110/1
f 1/1/1 110/110/1 111/111/1
f 1/1/1 111/111/1 112/112/1
f 1/1/1 112/112/1 113/113/1
f 1/1/1 113/113/1 114/114/1
f 1/1/1 114/114/1 115/115/1
f 1/1/1 115/115/1 116/116/1
f 1/1/1 116/116/1 117/117/1
f 1/1/1 117/117/1 118/118/1
f 1/1/1 118/118/1 119/119/1
f 1/1/1 119/119/1 120/120/1
f 1/1/1 120/120/1 121/121/1
f 1/1/1 121/121/1 122/122/1
f 1/1/1 122/122/1 123/123/1
f 1/1/1 123/123/1 124/124/1
f 1/1/1 124/124/1 125/125/1
f 1/1/1 125/125/1 126/126/1
f 1/1/1 126/126/1 127/127/1
f 1/1/1 127/127/1 128/128/1
f 1/1/1 128/128/1 129/129/1
f 1/1/1 129/129/1 2/2/1
o MagnetGroundRim
v 19.350000 0.055000 0.000000
v 20.000000 0.055000 0.000000
v 19.326693 0.055000 -0.949459
v 19.975908 0.055000 -0.981353
v 19.256824 0.055000 -1.896632
v 19.903694 0.055000 -1.960343
v 19.140566 0.055000 -2.839235
v 19.783529 0.055000 -2.934609
v 18.978195 0.055000 -3.774998
v 19.615705 0.055000 -3.901806
v 18.770105 0.055000 -4.701666
v 19.400625 0.055000 -4.859603
v 18.516796 0.055000 -5.617009
v 19.138807 0.055000 -5.805694
v 18.218878 0.055000 -6.518819
v 18.830881 0.055000 -6.737797
v 17.877069 0.055000 -7.404924
v 18.477591 0.055000 -7.653669
v 17.492193 0.055000 -8.273191
v 18.079786 0.055000 -8.551102
v 17.065176 0.055000 -9.121527
v 17.638426 0.055000 -9.427935
v 16.597048 0.055000 -9.947888
v 17.154572 0.055000 -10.282055
v 16.088938 0.055000 -10.750284
v 16.629393 0.055000 -11.111404
v 15.542066 0.055000 -11.526781
v 16.064150 0.055000 -11.913986
v 14.957752 0.055000 -12.275510
v 15.460209 0.055000 -12.687865
v 14.337404 0.055000 -12.994666
v 14.819022 0.055000 -13.431179
v 13.682516 0.055000 -13.682516
v 14.142136 0.055000 -14.142136
v 12.994666 0.055000 -14.337404
v 13.431179 0.055000 -14.819022
v 12.275510 0.055000 -14.957752
v 12.687865 0.055000 -15.460209
v 11.526781 0.055000 -15.542066
v 11.913986 0.055000 -16.064150
v 10.750284 0.055000 -16.088938
v 11.111404 0.055000 -16.629393
v 9.947888 0.055000 -16.597048
v 10.282055 0.055000 -17.154572
v 9.121527 0.055000 -17.065176
v 9.427935 0.055000 -17.638426
v 8.273191 0.055000 -17.492193
v 8.551102 0.055000 -18.079786
v 7.404924 0.055000 -17.877069
v 7.653669 0.055000 -18.477591
v 6.518819 0.055000 -18.218878
v 6.737797 0.055000 -18.830881
v 5.617009 0.055000 -18.516796
v 5.805694 0.055000 -19.138807
v 4.701666 0.055000 -18.770105
v 4.859603 0.055000 -19.400625
v 3.774998 0.055000 -18.978195
v 3.901806 0.055000 -19.615705
v 2.839235 0.055000 -19.140566
v 2.934609 0.055000 -19.783529
v 1.896632 0.055000 -19.256824
v 1.960343 0.055000 -19.903694
v 0.949459 0.055000 -19.326693
v 0.981353 0.055000 -19.975908
v 0.000000 0.055000 -19.350000
v 0.000000 0.055000 -20.000000
v -0.949459 0.055000 -19.326693
v -0.981353 0.055000 -19.975908
v -1.896632 0.055000 -19.256824
v -1.960343 0.055000 -19.903694
v -2.839235 0.055000 -19.140566
v -2.934609 0.055000 -19.783529
v -3.774998 0.055000 -18.978195
v -3.901806 0.055000 -19.615705
v -4.701666 0.055000 -18.770105
v -4.859603 0.055000 -19.400625
v -5.617009 0.055000 -18.516796
v -5.805694 0.055000 -19.138807
v -6.518819 0.055000 -18.218878
v -6.737797 0.055000 -18.830881
v -7.404924 0.055000 -17.877069
v -7.653669 0.055000 -18.477591
v -8.273191 0.055000 -17.492193
v -8.551102 0.055000 -18.079786
v -9.121527 0.055000 -17.065176
v -9.427935 0.055000 -17.638426
v -9.947888 0.055000 -16.597048
v -10.282055 0.055000 -17.154572
v -10.750284 0.055000 -16.088938
v -11.111404 0.055000 -16.629393
v -11.526781 0.055000 -15.542066
v -11.913986 0.055000 -16.064150
v -12.275510 0.055000 -14.957752
v -12.687865 0.055000 -15.460209
v -12.994666 0.055000 -14.337404
v -13.431179 0.055000 -14.819022
v -13.682516 0.055000 -13.682516
v -14.142136 0.055000 -14.142136
v -14.337404 0.055000 -12.994666
v -14.819022 0.055000 -13.431179
v -14.957752 0.055000 -12.275510
v -15.460209 0.055000 -12.687865
v -15.542066 0.055000 -11.526781
v -16.064150 0.055000 -11.913986
v -16.088938 0.055000 -10.750284
v -16.629393 0.055000 -11.111404
v -16.597048 0.055000 -9.947888
v -17.154572 0.055000 -10.282055
v -17.065176 0.055000 -9.121527
v -17.638426 0.055000 -9.427935
v -17.492193 0.055000 -8.273191
v -18.079786 0.055000 -8.551102
v -17.877069 0.055000 -7.404924
v -18.477591 0.055000 -7.653669
v -18.218878 0.055000 -6.518819
v -18.830881 0.055000 -6.737797
v -18.516796 0.055000 -5.617009
v -19.138807 0.055000 -5.805694
v -18.770105 0.055000 -4.701666
v -19.400625 0.055000 -4.859603
v -18.978195 0.055000 -3.774998
v -19.615705 0.055000 -3.901806
v -19.140566 0.055000 -2.839235
v -19.783529 0.055000 -2.934609
v -19.256824 0.055000 -1.896632
v -19.903694 0.055000 -1.960343
v -19.326693 0.055000 -0.949459
v -19.975908 0.055000 -0.981353
v -19.350000 0.055000 -0.000000
v -20.000000 0.055000 -0.000000
v -19.326693 0.055000 0.949459
v -19.975908 0.055000 0.981353
v -19.256824 0.055000 1.896632
v -19.903694 0.055000 1.960343
v -19.140566 0.055000 2.839235
v -19.783529 0.055000 2.934609
v -18.978195 0.055000 3.774998
v -19.615705 0.055000 3.901806
v -18.770105 0.055000 4.701666
v -19.400625 0.055000 4.859603
v -18.516796 0.055000 5.617009
v -19.138807 0.055000 5.805694
v -18.218878 0.055000 6.518819
v -18.830881 0.055000 6.737797
v -17.877069 0.055000 7.404924
v -18.477591 0.055000 7.653669
v -17.492193 0.055000 8.273191
v -18.079786 0.055000 8.551102
v -17.065176 0.055000 9.121527
v -17.638426 0.055000 9.427935
v -16.597048 0.055000 9.947888
v -17.154572 0.055000 10.282055
v -16.088938 0.055000 10.750284
v -16.629393 0.055000 11.111404
v -15.542066 0.055000 11.526781
v -16.064150 0.055000 11.913986
v -14.957752 0.055000 12.275510
v -15.460209 0.055000 12.687865
v -14.337404 0.055000 12.994666
v -14.819022 0.055000 13.431179
v -13.682516 0.055000 13.682516
v -14.142136 0.055000 14.142136
v -12.994666 0.055000 14.337404
v -13.431179 0.055000 14.819022
v -12.275510 0.055000 14.957752
v -12.687865 0.055000 15.460209
v -11.526781 0.055000 15.542066
v -11.913986 0.055000 16.064150
v -10.750284 0.055000 16.088938
v -11.111404 0.055000 16.629393
v -9.947888 0.055000 16.597048
v -10.282055 0.055000 17.154572
v -9.121527 0.055000 17.065176
v -9.427935 0.055000 17.638426
v -8.273191 0.055000 17.492193
v -8.551102 0.055000 18.079786
v -7.404924 0.055000 17.877069
v -7.653669 0.055000 18.477591
v -6.518819 0.055000 18.218878
v -6.737797 0.055000 18.830881
v -5.617009 0.055000 18.516796
v -5.805694 0.055000 19.138807
v -4.701666 0.055000 18.770105
v -4.859603 0.055000 19.400625
v -3.774998 0.055000 18.978195
v -3.901806 0.055000 19.615705
v -2.839235 0.055000 19.140566
v -2.934609 0.055000 19.783529
v -1.896632 0.055000 19.256824
v -1.960343 0.055000 19.903694
v -0.949459 0.055000 19.326693
v -0.981353 0.055000 19.975908
v -0.000000 0.055000 19.350000
v -0.000000 0.055000 20.000000
v 0.949459 0.055000 19.326693
v 0.981353 0.055000 19.975908
v 1.896632 0.055000 19.256824
v 1.960343 0.055000 19.903694
v 2.839235 0.055000 19.140566
v 2.934609 0.055000 19.783529
v 3.774998 0.055000 18.978195
v 3.901806 0.055000 19.615705
v 4.701666 0.055000 18.770105
v 4.859603 0.055000 19.400625
v 5.617009 0.055000 18.516796
v 5.805694 0.055000 19.138807
v 6.518819 0.055000 18.218878
v 6.737797 0.055000 18.830881
v 7.404924 0.055000 17.877069
v 7.653669 0.055000 18.477591
v 8.273191 0.055000 17.492193
v 8.551102 0.055000 18.079786
v 9.121527 0.055000 17.065176
v 9.427935 0.055000 17.638426
v 9.947888 0.055000 16.597048
v 10.282055 0.055000 17.154572
v 10.750284 0.055000 16.088938
v 11.111404 0.055000 16.629393
v 11.526781 0.055000 15.542066
v 11.913986 0.055000 16.064150
v 12.275510 0.055000 14.957752
v 12.687865 0.055000 15.460209
v 12.994666 0.055000 14.337404
v 13.431179 0.055000 14.819022
v 13.682516 0.055000 13.682516
v 14.142136 0.055000 14.142136
v 14.337404 0.055000 12.994666
v 14.819022 0.055000 13.431179
v 14.957752 0.055000 12.275510
v 15.460209 0.055000 12.687865
v 15.542066 0.055000 11.526781
v 16.064150 0.055000 11.913986
v 16.088938 0.055000 10.750284
v 16.629393 0.055000 11.111404
v 16.597048 0.055000 9.947888
v 17.154572 0.055000 10.282055
v 17.065176 0.055000 9.121527
v 17.638426 0.055000 9.427935
v 17.492193 0.055000 8.273191
v 18.079786 0.055000 8.551102
v 17.877069 0.055000 7.404924
v 18.477591 0.055000 7.653669
v 18.218878 0.055000 6.518819
v 18.830881 0.055000 6.737797
v 18.516796 0.055000 5.617009
v 19.138807 0.055000 5.805694
v 18.770105 0.055000 4.701666
v 19.400625 0.055000 4.859603
v 18.978195 0.055000 3.774998
v 19.615705 0.055000 3.901806
v 19.140566 0.055000 2.839235
v 19.783529 0.055000 2.934609
v 19.256824 0.055000 1.896632
v 19.903694 0.055000 1.960343
v 19.326693 0.055000 0.949459
v 19.975908 0.055000 0.981353
vn -0.0000 -1.0000 -0.0000
vt 0.983750 0.500000
vt 0.983167 0.523736
vt 0.999398 0.524534
vt 1.000000 0.500000
vt 0.981421 0.547416
vt 0.997592 0.549009
vt 0.978514 0.570981
vt 0.994588 0.573365
vt 0.974455 0.594375
vt 0.990393 0.597545
vt 0.969253 0.617542
vt 0.985016 0.621490
vt 0.962920 0.640425
vt 0.978470 0.645142
vt 0.955472 0.662970
vt 0.970772 0.668445
vt 0.946927 0.685123
vt 0.961940 0.691342
vt 0.937305 0.706830
vt 0.951995 0.713778
vt 0.926629 0.728038
vt 0.940961 0.735698
vt 0.914926 0.748697
vt 0.928864 0.757051
vt 0.902223 0.768757
vt 0.915735 0.777785
vt 0.888552 0.788170
vt 0.901604 0.797850
vt 0.873944 0.806888
vt 0.886505 0.817197
vt 0.858435 0.824867
vt 0.870476 0.835779
vt 0.842063 0.842063
vt 0.853553 0.853553
vt 0.824867 0.858435
vt 0.835779 0.870476
vt 0.806888 0.873944
vt 0.817197 0.886505
vt 0.788170 0.888552
vt 0.797850 0.901604
vt 0.768757 0.902223
vt 0.777785 0.915735
vt 0.748697 0.914926
vt 0.757051 0.928864
vt 0.728038 0.926629
vt 0.735698 0.940961
vt 0.706830 0.937305
vt 0.713778 0.951995
vt 0.685123 0.946927
vt 0.691342 0.961940
vt 0.662970 0.955472
vt 0.668445 0.970772
vt 0.640425 0.962920
vt 0.645142 0.978470
vt 0.617542 0.969253
vt 0.621490 0.985016
vt 0.594375 0.974455
vt 0.597545 0.990393
vt 0.570981 0.978514
vt 0.573365 0.994588
vt 0.547416 0.981421
vt 0.549009 0.997592
vt 0.523736 0.983167
vt 0.524534 0.999398
vt 0.500000 0.983750
vt 0.500000 1.000000
vt 0.476264 0.983167
vt 0.475466 0.999398
vt 0.452584 0.981421
vt 0.450991 0.997592
vt 0.429019 0.978514
vt 0.426635 0.994588
vt 0.405625 0.974455
vt 0.402455 0.990393
vt 0.382458 0.969253
vt 0.378510 0.985016
vt 0.359575 0.962920
vt 0.354858 0.978470
vt 0.337030 0.955472
vt 0.331555 0.970772
vt 0.314877 0.946927
vt 0.308658 0.961940
vt 0.293170 0.937305
vt 0.286222 0.951995
vt 0.271962 0.926629
vt 0.264302 0.940961
vt 0.251303 0.914926
vt 0.242949 0.928864
vt 0.231243 0.902223
vt 0.222215 0.915735
vt 0.211830 0.888552
vt 0.202150 0.901604
vt 0.193112 0.873944
vt 0.182803 0.886505
vt 0.175133 0.858435
vt 0.164221 0.870476
vt 0.157937 0.842063
vt 0.146447 0.853553
vt 0.141565 0.824867
vt 0.129524 0.835779
vt 0.126056 0.806888
vt 0.113495 0.817197
vt 0.111448 0.788170
vt 0.098396 0.797850
vt 0.097777 0.768757
vt 0.084265 0.777785
vt 0.085074 0.748697
vt 0.071136 0.757051
vt 0.073371 0.728038
vt 0.059039 0.735698
vt 0.062695 0.706830
vt 0.048005 0.713778
vt 0.053073 0.685123
vt 0.038060 0.691342
vt 0.044528 0.662970
vt 0.029228 0.668445
vt 0.037080 0.640425
vt 0.021530 0.645142
vt 0.030747 0.617542
vt 0.014984 0.621490
vt 0.025545 0.594375
vt 0.009607 0.597545
vt 0.021486 0.570981
vt 0.005412 0.573365
vt 0.018579 0.547416
vt 0.002408 0.549009
vt 0.016833 0.523736
vt 0.000602 0.524534
vt 0.016250 0.500000
vt 0.000000 0.500000
vt 0.016833 0.476264
vt 0.000602 0.475466
vt 0.018579 0.452584
vt 0.002408 0.450991
vt 0.021486 0.429019
vt 0.005412 0.426635
vt 0.025545 0.405625
vt 0.009607 0.402455
vt 0.030747 0.382458
vt 0.014984 0.378510
vt 0.037080 0.359575
vt 0.021530 0.354858
vt 0.044528 0.337030
vt 0.029228 0.331555
vt 0.053073 0.314877
vt 0.038060 0.308658
vt 0.062695 0.293170
vt 0.048005 0.286222
vt 0.073371 0.271962
vt 0.059039 0.264302
vt 0.085074 0.251303
vt 0.071136 0.242949
vt 0.097777 0.231243
vt 0.084265 0.222215
vt 0.111448 0.211830
vt 0.098396 0.202150
vt 0.126056 0.193112
vt 0.113495 0.182803
vt 0.141565 0.175133
vt 0.129524 0.164221
vt 0.157937 0.157937
vt 0.146447 0.146447
vt 0.175133 0.141565
vt 0.164221 0.129524
vt 0.193112 0.126056
vt 0.182803 0.113495
vt 0.211830 0.111448
vt 0.202150 0.098396
vt 0.231243 0.097777
vt 0.222215 0.084265
vt 0.251303 0.085074
vt 0.242949 0.071136
vt 0.271962 0.073371
vt 0.264302 0.059039
vt 0.293170 0.062695
vt 0.286222 0.048005
vt 0.314877 0.053073
vt 0.308658 0.038060
vt 0.337030 0.044528
vt 0.331555 0.029228
vt 0.359575 0.037080
vt 0.354858 0.021530
vt 0.382458 0.030747
vt 0.378510 0.014984
vt 0.405625 0.025545
vt 0.402455 0.009607
vt 0.429019 0.021486
vt 0.426635 0.005412
vt 0.452584 0.018579
vt 0.450991 0.002408
vt 0.476264 0.016833
vt 0.475466 0.000602
vt 0.500000 0.016250
vt 0.500000 0.000000
vt 0.523736 0.016833
vt 0.524534 0.000602
vt 0.547416 0.018579
vt 0.549009 0.002408
vt 0.570981 0.021486
vt 0.573365 0.005412
vt 0.594375 0.025545
vt 0.597545 0.009607
vt 0.617542 0.030747
vt 0.621490 0.014984
vt 0.640425 0.037080
vt 0.645142 0.021530
vt 0.662970 0.044528
vt 0.668445 0.029228
vt 0.685123 0.053073
vt 0.691342 0.038060
vt 0.706830 0.062695
vt 0.713778 0.048005
vt 0.728038 0.073371
vt 0.735698 0.059039
vt 0.748697 0.085074
vt 0.757051 0.071136
vt 0.768757 0.097777
vt 0.777785 0.084265
vt 0.788170 0.111448
vt 0.797850 0.098396
vt 0.806888 0.126056
vt 0.817197 0.113495
vt 0.824867 0.141565
vt 0.835779 0.129524
vt 0.842063 0.157937
vt 0.853553 0.146447
vt 0.858435 0.175133
vt 0.870476 0.164221
vt 0.873944 0.193112
vt 0.886505 0.182803
vt 0.888552 0.211830
vt 0.901604 0.202150
vt 0.902223 0.231243
vt 0.915735 0.222215
vt 0.914926 0.251303
vt 0.928864 0.242949
vt 0.926629 0.271962
vt 0.940961 0.264302
vt 0.937305 0.293170
vt 0.951995 0.286222
vt 0.946927 0.314877
vt 0.961940 0.308658
vt 0.955472 0.337030
vt 0.970772 0.331555
vt 0.962920 0.359575
vt 0.978470 0.354858
vt 0.969253 0.382458
vt 0.985016 0.378510
vt 0.974455 0.405625
vt 0.990393 0.402455
vt 0.978514 0.429019
vt 0.994588 0.426635
vt 0.981421 0.452584
vt 0.997592 0.450991
vt 0.983167 0.476264
vt 0.999398 0.475466
s 1
usemtl MagnetGroundMaterial
f 130/130/2 132/131/2 133/132/2 131/133/2
f 132/131/2 134/134/2 135/135/2 133/132/2
f 134/134/2 136/136/2 137/137/2 135/135/2
f 136/136/2 138/138/2 139/139/2 137/137/2
f 138/138/2 140/140/2 141/141/2 139/139/2
f 140/140/2 142/142/2 143/143/2 141/141/2
f 142/142/2 144/144/2 145/145/2 143/143/2
f 144/144/2 146/146/2 147/147/2 145/145/2
f 146/146/2 148/148/2 149/149/2 147/147/2
f 148/148/2 150/150/2 151/151/2 149/149/2
f 150/150/2 152/152/2 153/153/2 151/151/2
f 152/152/2 154/154/2 155/155/2 153/153/2
f 154/154/2 156/156/2 157/157/2 155/155/2
f 156/156/2 158/158/2 159/159/2 157/157/2
f 158/158/2 160/160/2 161/161/2 159/159/2
f 160/160/2 162/162/2 163/163/2 161/161/2
f 162/162/2 164/164/2 165/165/2 163/163/2
f 164/164/2 166/166/2 167/167/2 165/165/2
f 166/166/2 168/168/2 169/169/2 167/167/2
f 168/168/2 170/170/2 171/171/2 169/169/2
f 170/170/2 172/172/2 173/173/2 171/171/2
f 172/172/2 174/174/2 175/175/2 173/173/2
f 174/174/2 176/176/2 177/177/2 175/175/2
f 176/176/2 178/178/2 179/179/2 177/177/2
f 178/178/2 180/180/2 181/181/2 179/179/2
f 180/180/2 182/182/2 183/183/2 181/181/2
f 182/182/2 184/184/2 185/185/2 183/183/2
f 184/184/2 186/186/2 187/187/2 185/185/2
f 186/186/2 188/188/2 189/189/2 187/187/2
f 188/188/2 190/190/2 191/191/2 189/189/2
f 190/190/2 192/192/2 193/193/2 191/191/2
f 192/192/2 194/194/2 195/195/2 193/193/2
f 194/194/2 196/196/2 197/197/2 195/195/2
f 196/196/2 198/198/2 199/199/2 197/197/2
f 198/198/2 200/200/2 201/201/2 199/199/2
f 200/200/2 202/202/2 203/203/2 201/201/2
f 202/202/2 204/204/2 205/205/2 203/203/2
f 204/204/2 206/206/2 207/207/2 205/205/2
f 206/206/2 208/208/2 209/209/2 207/207/2
f 208/208/2 210/210/2 211/211/2 209/209/2
f 210/210/2 212/212/2 213/213/2 211/211/2
f 212/212/2 214/214/2 215/215/2 213/213/2
f 214/214/2 216/216/2 217/217/2 215/215/2
f 216/216/2 218/218/2 219/219/2 217/217/2
f 218/218/2 220/220/2 221/221/2 219/219/2
f 220/220/2 222/222/2 223/223/2 221/221/2
f 222/222/2 224/224/2 225/225/2 223/223/2
f 224/224/2 226/226/2 227/227/2 225/225/2
f 226/226/2 228/228/2 229/229/2 227/227/2
f 228/228/2 230/230/2 231/231/2 229/229/2
f 230/230/2 232/232/2 233/233/2 231/231/2
f 232/232/2 234/234/2 235/235/2 233/233/2
f 234/234/2 236/236/2 237/237/2 235/235/2
f 236/236/2 238/238/2 239/239/2 237/237/2
f 238/238/2 240/240/2 241/241/2 239/239/2
f 240/240/2 242/242/2 243/243/2 241/241/2
f 242/242/2 244/244/2 245/245/2 243/243/2
f 244/244/2 246/246/2 247/247/2 245/245/2
f 246/246/2 248/248/2 249/249/2 247/247/2
f 248/248/2 250/250/2 251/251/2 249/249/2
f 250/250/2 252/252/2 253/253/2 251/251/2
f 252/252/2 254/254/2 255/255/2 253/253/2
f 254/254/2 256/256/2 257/257/2 255/255/2
f 256/256/2 258/258/2 259/259/2 257/257/2
f 258/258/2 260/260/2 261/261/2 259/259/2
f 260/260/2 262/262/2 263/263/2 261/261/2
f 262/262/2 264/264/2 265/265/2 263/263/2
f 264/264/2 266/266/2 267/267/2 265/265/2
f 266/266/2 268/268/2 269/269/2 267/267/2
f 268/268/2 270/270/2 271/271/2 269/269/2
f 270/270/2 272/272/2 273/273/2 271/271/2
f 272/272/2 274/274/2 275/275/2 273/273/2
f 274/274/2 276/276/2 277/277/2 275/275/2
f 276/276/2 278/278/2 279/279/2 277/277/2
f 278/278/2 280/280/2 281/281/2 279/279/2
f 280/280/2 282/282/2 283/283/2 281/281/2
f 282/282/2 284/284/2 285/285/2 283/283/2
f 284/284/2 286/286/2 287/287/2 285/285/2
f 286/286/2 288/288/2 289/289/2 287/287/2
f 288/288/2 290/290/2 291/291/2 289/289/2
f 290/290/2 292/292/2 293/293/2 291/291/2
f 292/292/2 294/294/2 295/295/2 293/293/2
f 294/294/2 296/296/2 297/297/2 295/295/2
f 296/296/2 298/298/2 299/299/2 297/297/2
f 298/298/2 300/300/2 301/301/2 299/299/2
f 300/300/2 302/302/2 303/303/2 301/301/2
f 302/302/2 304/304/2 305/305/2 303/303/2
f 304/304/2 306/306/2 307/307/2 305/305/2
f 306/306/2 308/308/2 309/309/2 307/307/2
f 308/308/2 310/310/2 311/311/2 309/309/2
f 310/310/2 312/312/2 313/313/2 311/311/2
f 312/312/2 314/314/2 315/315/2 313/313/2
f 314/314/2 316/316/2 317/317/2 315/315/2
f 316/316/2 318/318/2 319/319/2 317/317/2
f 318/318/2 320/320/2 321/321/2 319/319/2
f 320/320/2 322/322/2 323/323/2 321/321/2
f 322/322/2 324/324/2 325/325/2 323/323/2
f 324/324/2 326/326/2 327/327/2 325/325/2
f 326/326/2 328/328/2 329/329/2 327/327/2
f 328/328/2 330/330/2 331/331/2 329/329/2
f 330/330/2 332/332/2 333/333/2 331/331/2
f 332/332/2 334/334/2 335/335/2 333/333/2
f 334/334/2 336/336/2 337/337/2 335/335/2
f 336/336/2 338/338/2 339/339/2 337/337/2
f 338/338/2 340/340/2 341/341/2 339/339/2
f 340/340/2 342/342/2 343/343/2 341/341/2
f 342/342/2 344/344/2 345/345/2 343/343/2
f 344/344/2 346/346/2 347/347/2 345/345/2
f 346/346/2 348/348/2 349/349/2 347/347/2
f 348/348/2 350/350/2 351/351/2 349/349/2
f 350/350/2 352/352/2 353/353/2 351/351/2
f 352/352/2 354/354/2 355/355/2 353/353/2
f 354/354/2 356/356/2 357/357/2 355/355/2
f 356/356/2 358/358/2 359/359/2 357/357/2
f 358/358/2 360/360/2 361/361/2 359/359/2
f 360/360/2 362/362/2 363/363/2 361/361/2
f 362/362/2 364/364/2 365/365/2 363/363/2
f 364/364/2 366/366/2 367/367/2 365/365/2
f 366/366/2 368/368/2 369/369/2 367/367/2
f 368/368/2 370/370/2 371/371/2 369/369/2
f 370/370/2 372/372/2 373/373/2 371/371/2
f 372/372/2 374/374/2 375/375/2 373/373/2
f 374/374/2 376/376/2 377/377/2 375/375/2
f 376/376/2 378/378/2 379/379/2 377/377/2
f 378/378/2 380/380/2 381/381/2 379/379/2
f 380/380/2 382/382/2 383/383/2 381/381/2
f 382/382/2 384/384/2 385/385/2 383/383/2
f 384/384/2 130/130/2 131/133/2 385/385/2
