# Generated by tools/generate_farm_crop_meshes.py
o crop_tomato_stems
vt 0.5 0.5
s off
v 0.0550000 0.0000000 0.0000000
v 0.0550000 1.0000000 0.0000000
v 0.0275000 1.0000000 0.0476314
vn 0.8660254 -0.0000000 0.5000000
f 1/1/1 2/1/1 3/1/1
v 0.0550000 0.0000000 0.0000000
v 0.0275000 1.0000000 0.0476314
v 0.0275000 0.0000000 0.0476314
vn 0.8660254 0.0000000 0.5000000
f 4/1/2 5/1/2 6/1/2
v 0.0275000 0.0000000 0.0476314
v 0.0275000 1.0000000 0.0476314
v -0.0275000 1.0000000 0.0476314
vn 0.0000000 -0.0000000 1.0000000
f 7/1/3 8/1/3 9/1/3
v 0.0275000 0.0000000 0.0476314
v -0.0275000 1.0000000 0.0476314
v -0.0275000 0.0000000 0.0476314
vn 0.0000000 0.0000000 1.0000000
f 10/1/4 11/1/4 12/1/4
v -0.0275000 0.0000000 0.0476314
v -0.0275000 1.0000000 0.0476314
v -0.0550000 1.0000000 0.0000000
vn -0.8660254 0.0000000 0.5000000
f 13/1/5 14/1/5 15/1/5
v -0.0275000 0.0000000 0.0476314
v -0.0550000 1.0000000 0.0000000
v -0.0550000 0.0000000 0.0000000
vn -0.8660254 0.0000000 0.5000000
f 16/1/6 17/1/6 18/1/6
v -0.0550000 0.0000000 0.0000000
v -0.0550000 1.0000000 0.0000000
v -0.0275000 1.0000000 -0.0476314
vn -0.8660254 0.0000000 -0.5000000
f 19/1/7 20/1/7 21/1/7
v -0.0550000 0.0000000 0.0000000
v -0.0275000 1.0000000 -0.0476314
v -0.0275000 0.0000000 -0.0476314
vn -0.8660254 0.0000000 -0.5000000
f 22/1/8 23/1/8 24/1/8
v -0.0275000 0.0000000 -0.0476314
v -0.0275000 1.0000000 -0.0476314
v 0.0275000 1.0000000 -0.0476314
vn -0.0000000 0.0000000 -1.0000000
f 25/1/9 26/1/9 27/1/9
v -0.0275000 0.0000000 -0.0476314
v 0.0275000 1.0000000 -0.0476314
v 0.0275000 0.0000000 -0.0476314
vn -0.0000000 0.0000000 -1.0000000
f 28/1/10 29/1/10 30/1/10
v 0.0275000 0.0000000 -0.0476314
v 0.0275000 1.0000000 -0.0476314
v 0.0550000 1.0000000 0.0000000
vn 0.8660254 0.0000000 -0.5000000
f 31/1/11 32/1/11 33/1/11
v 0.0275000 0.0000000 -0.0476314
v 0.0550000 1.0000000 0.0000000
v 0.0550000 0.0000000 0.0000000
vn 0.8660254 0.0000000 -0.5000000
f 34/1/12 35/1/12 36/1/12
v 0.0000000 0.0000000 0.0000000
v 0.0550000 0.0000000 0.0000000
v 0.0275000 0.0000000 0.0476314
vn 0.0000000 -1.0000000 0.0000000
f 37/1/13 38/1/13 39/1/13
v 0.0000000 1.0000000 0.0000000
v 0.0275000 1.0000000 0.0476314
v 0.0550000 1.0000000 0.0000000
vn 0.0000000 1.0000000 0.0000000
f 40/1/14 41/1/14 42/1/14
v 0.0000000 0.0000000 0.0000000
v 0.0275000 0.0000000 0.0476314
v -0.0275000 0.0000000 0.0476314
vn 0.0000000 -1.0000000 0.0000000
f 43/1/15 44/1/15 45/1/15
v 0.0000000 1.0000000 0.0000000
v -0.0275000 1.0000000 0.0476314
v 0.0275000 1.0000000 0.0476314
vn 0.0000000 1.0000000 -0.0000000
f 46/1/16 47/1/16 48/1/16
v 0.0000000 0.0000000 0.0000000
v -0.0275000 0.0000000 0.0476314
v -0.0550000 0.0000000 0.0000000
vn 0.0000000 -1.0000000 0.0000000
f 49/1/17 50/1/17 51/1/17
v 0.0000000 1.0000000 0.0000000
v -0.0550000 1.0000000 0.0000000
v -0.0275000 1.0000000 0.0476314
vn 0.0000000 1.0000000 0.0000000
f 52/1/18 53/1/18 54/1/18
v 0.0000000 0.0000000 0.0000000
v -0.0550000 0.0000000 0.0000000
v -0.0275000 0.0000000 -0.0476314
vn -0.0000000 -1.0000000 0.0000000
f 55/1/19 56/1/19 57/1/19
v 0.0000000 1.0000000 0.0000000
v -0.0275000 1.0000000 -0.0476314
v -0.0550000 1.0000000 0.0000000
vn 0.0000000 1.0000000 0.0000000
f 58/1/20 59/1/20 60/1/20
v 0.0000000 0.0000000 0.0000000
v -0.0275000 0.0000000 -0.0476314
v 0.0275000 0.0000000 -0.0476314
vn 0.0000000 -1.0000000 -0.0000000
f 61/1/21 62/1/21 63/1/21
v 0.0000000 1.0000000 0.0000000
v 0.0275000 1.0000000 -0.0476314
v -0.0275000 1.0000000 -0.0476314
vn 0.0000000 1.0000000 0.0000000
f 64/1/22 65/1/22 66/1/22
v 0.0000000 0.0000000 0.0000000
v 0.0275000 0.0000000 -0.0476314
v 0.0550000 0.0000000 0.0000000
vn 0.0000000 -1.0000000 0.0000000
f 67/1/23 68/1/23 69/1/23
v 0.0000000 1.0000000 0.0000000
v 0.0550000 1.0000000 0.0000000
v 0.0275000 1.0000000 -0.0476314
vn -0.0000000 1.0000000 0.0000000
f 70/1/24 71/1/24 72/1/24
v 0.1000000 0.2500000 0.0000000
v 0.3340000 0.4050000 0.0000000
v 0.3475000 0.3700000 -0.1080000
vn -0.5229638 0.7895066 -0.3212291
f 73/1/25 74/1/25 75/1/25
v 0.3475000 0.3700000 -0.1080000
v 0.3340000 0.4050000 0.0000000
v 0.5500000 0.5000000 0.0000000
vn -0.3803516 0.8647993 -0.3278030
f 76/1/26 77/1/26 78/1/26
v 0.5500000 0.5000000 0.0000000
v 0.3340000 0.4050000 0.0000000
v 0.3475000 0.3700000 0.1080000
vn -0.3803516 0.8647993 0.3278030
f 79/1/27 80/1/27 81/1/27
v 0.3475000 0.3700000 0.1080000
v 0.3340000 0.4050000 0.0000000
v 0.1000000 0.2500000 0.0000000
vn -0.5229638 0.7895066 0.3212291
f 82/1/28 83/1/28 84/1/28
v 0.3475000 0.3700000 -0.1080000
v 0.3340000 0.3450000 0.0000000
v 0.1000000 0.2500000 0.0000000
vn 0.3709987 -0.9138284 -0.1651595
f 85/1/29 86/1/29 87/1/29
v 0.5500000 0.5000000 0.0000000
v 0.3340000 0.3450000 0.0000000
v 0.3475000 0.3700000 -0.1080000
vn 0.5791858 -0.8071234 -0.1144359
f 88/1/30 89/1/30 90/1/30
v 0.3475000 0.3700000 0.1080000
v 0.3340000 0.3450000 0.0000000
v 0.5500000 0.5000000 0.0000000
vn 0.5791858 -0.8071234 0.1144359
f 91/1/31 92/1/31 93/1/31
v 0.1000000 0.2500000 0.0000000
v 0.3340000 0.3450000 0.0000000
v 0.3475000 0.3700000 0.1080000
vn 0.3709987 -0.9138284 0.1651595
f 94/1/32 95/1/32 96/1/32
v 0.1000000 0.2500000 0.0000000
v 0.1723100 0.4050000 0.2225472
v 0.2791958 0.3700000 0.2020127
vn 0.1439023 0.7895066 -0.5966334
f 97/1/33 98/1/33 99/1/33
v 0.2791958 0.3700000 0.2020127
v 0.1723100 0.4050000 0.2225472
v 0.2390576 0.5000000 0.4279754
vn 0.1942241 0.8647993 -0.4630325
f 100/1/34 101/1/34 102/1/34
v 0.2390576 0.5000000 0.4279754
v 0.1723100 0.4050000 0.2225472
v 0.0737676 0.3700000 0.2687603
vn -0.4292943 0.8647993 -0.2604391
f 103/1/35 104/1/35 105/1/35
v 0.0737676 0.3700000 0.2687603
v 0.1723100 0.4050000 0.2225472
v 0.1000000 0.2500000 0.0000000
vn -0.4671117 0.7895066 -0.3981029
f 106/1/36 107/1/36 108/1/36
v 0.2791958 0.3700000 0.2020127
v 0.1723100 0.3450000 0.2225472
v 0.1000000 0.2500000 0.0000000
vn 0.2717209 -0.9138284 0.3018036
f 109/1/37 110/1/37 111/1/37
v 0.2390576 0.5000000 0.4279754
v 0.1723100 0.3450000 0.2225472
v 0.2791958 0.3700000 0.2020127
vn 0.2878133 -0.8071234 0.5154758
f 112/1/38 113/1/38 114/1/38
v 0.0737676 0.3700000 0.2687603
v 0.1723100 0.3450000 0.2225472
v 0.2390576 0.5000000 0.4279754
vn 0.0701432 -0.8071234 0.5862011
f 115/1/39 116/1/39 117/1/39
v 0.1000000 0.2500000 0.0000000
v 0.1723100 0.3450000 0.2225472
v 0.0737676 0.3700000 0.2687603
vn -0.0424311 -0.9138284 0.4038778
f 118/1/40 119/1/40 120/1/40
v 0.1000000 0.2500000 0.0000000
v -0.0893100 0.4050000 0.1375417
v -0.0367509 0.3700000 0.2328507
vn 0.6119003 0.7895066 -0.0475106
f 121/1/41 122/1/41 123/1/41
v -0.0367509 0.3700000 0.2328507
v -0.0893100 0.4050000 0.1375417
v -0.2640576 0.5000000 0.2645034
vn 0.5003886 0.8647993 0.0416332
f 124/1/42 125/1/42 126/1/42
v -0.2640576 0.5000000 0.2645034
v -0.0893100 0.4050000 0.1375417
v -0.1637125 0.3700000 0.0581030
vn 0.1150331 0.8647993 -0.4887632
f 127/1/43 128/1/43 129/1/43
v -0.1637125 0.3700000 0.0581030
v -0.0893100 0.4050000 0.1375417
v 0.1000000 0.2500000 0.0000000
vn 0.2342729 0.7895066 -0.5672702
f 130/1/44 131/1/44 132/1/44
v -0.0367509 0.3700000 0.2328507
v -0.0893100 0.3450000 0.1375417
v 0.1000000 0.2500000 0.0000000
vn -0.2030659 -0.9138284 0.3516844
f 133/1/45 134/1/45 135/1/45
v -0.2640576 0.5000000 0.2645034
v -0.0893100 0.3450000 0.1375417
v -0.0367509 0.3700000 0.2328507
vn -0.4013074 -0.8071234 0.4330175
f 136/1/46 137/1/46 138/1/46
v -0.1637125 0.3700000 0.0581030
v -0.0893100 0.3450000 0.1375417
v -0.2640576 0.5000000 0.2645034
vn -0.5358349 -0.8071234 0.2478563
f 139/1/47 140/1/47 141/1/47
v 0.1000000 0.2500000 0.0000000
v -0.0893100 0.3450000 0.1375417
v -0.1637125 0.3700000 0.0581030
vn -0.3972226 -0.9138284 0.0844507
f 142/1/48 143/1/48 144/1/48
v 0.1000000 0.2500000 0.0000000
v -0.0893100 0.4050000 -0.1375417
v -0.1637125 0.3700000 -0.0581030
vn 0.2342729 0.7895066 0.5672702
f 145/1/49 146/1/49 147/1/49
v -0.1637125 0.3700000 -0.0581030
v -0.0893100 0.4050000 -0.1375417
v -0.2640576 0.5000000 -0.2645034
vn 0.1150331 0.8647993 0.4887632
f 148/1/50 149/1/50 150/1/50
v -0.2640576 0.5000000 -0.2645034
v -0.0893100 0.4050000 -0.1375417
v -0.0367509 0.3700000 -0.2328507
vn 0.5003886 0.8647993 -0.0416332
f 151/1/51 152/1/51 153/1/51
v -0.0367509 0.3700000 -0.2328507
v -0.0893100 0.4050000 -0.1375417
v 0.1000000 0.2500000 0.0000000
vn 0.6119003 0.7895066 0.0475106
f 154/1/52 155/1/52 156/1/52
v -0.1637125 0.3700000 -0.0581030
v -0.0893100 0.3450000 -0.1375417
v 0.1000000 0.2500000 0.0000000
vn -0.3972226 -0.9138284 -0.0844507
f 157/1/53 158/1/53 159/1/53
v -0.2640576 0.5000000 -0.2645034
v -0.0893100 0.3450000 -0.1375417
v -0.1637125 0.3700000 -0.0581030
vn -0.5358349 -0.8071234 -0.2478563
f 160/1/54 161/1/54 162/1/54
v -0.0367509 0.3700000 -0.2328507
v -0.0893100 0.3450000 -0.1375417
v -0.2640576 0.5000000 -0.2645034
vn -0.4013074 -0.8071234 -0.4330175
f 163/1/55 164/1/55 165/1/55
v 0.1000000 0.2500000 0.0000000
v -0.0893100 0.3450000 -0.1375417
v -0.0367509 0.3700000 -0.2328507
vn -0.2030659 -0.9138284 -0.3516844
f 166/1/56 167/1/56 168/1/56
v 0.1000000 0.2500000 0.0000000
v 0.1723100 0.4050000 -0.2225472
v 0.0737676 0.3700000 -0.2687603
vn -0.4671117 0.7895066 0.3981029
f 169/1/57 170/1/57 171/1/57
v 0.0737676 0.3700000 -0.2687603
v 0.1723100 0.4050000 -0.2225472
v 0.2390576 0.5000000 -0.4279754
vn -0.4292943 0.8647993 0.2604391
f 172/1/58 173/1/58 174/1/58
v 0.2390576 0.5000000 -0.4279754
v 0.1723100 0.4050000 -0.2225472
v 0.2791958 0.3700000 -0.2020127
vn 0.1942241 0.8647993 0.4630325
f 175/1/59 176/1/59 177/1/59
v 0.2791958 0.3700000 -0.2020127
v 0.1723100 0.4050000 -0.2225472
v 0.1000000 0.2500000 0.0000000
vn 0.1439023 0.7895066 0.5966334
f 178/1/60 179/1/60 180/1/60
v 0.0737676 0.3700000 -0.2687603
v 0.1723100 0.3450000 -0.2225472
v 0.1000000 0.2500000 0.0000000
vn -0.0424311 -0.9138284 -0.4038778
f 181/1/61 182/1/61 183/1/61
v 0.2390576 0.5000000 -0.4279754
v 0.1723100 0.3450000 -0.2225472
v 0.0737676 0.3700000 -0.2687603
vn 0.0701432 -0.8071234 -0.5862011
f 184/1/62 185/1/62 186/1/62
v 0.2791958 0.3700000 -0.2020127
v 0.1723100 0.3450000 -0.2225472
v 0.2390576 0.5000000 -0.4279754
vn 0.2878133 -0.8071234 -0.5154758
f 187/1/63 188/1/63 189/1/63
v 0.1000000 0.2500000 0.0000000
v 0.1723100 0.3450000 -0.2225472
v 0.2791958 0.3700000 -0.2020127
vn 0.2717209 -0.9138284 -0.3018036
f 190/1/64 191/1/64 192/1/64
v -0.0416147 0.5000000 0.0909297
v 0.1923853 0.6550000 0.0909297
v 0.2058853 0.6200000 -0.0170703
vn -0.5229638 0.7895066 -0.3212291
f 193/1/65 194/1/65 195/1/65
v 0.2058853 0.6200000 -0.0170703
v 0.1923853 0.6550000 0.0909297
v 0.4083853 0.7500000 0.0909297
vn -0.3803516 0.8647993 -0.3278030
f 196/1/66 197/1/66 198/1/66
v 0.4083853 0.7500000 0.0909297
v 0.1923853 0.6550000 0.0909297
v 0.2058853 0.6200000 0.1989297
vn -0.3803516 0.8647993 0.3278030
f 199/1/67 200/1/67 201/1/67
v 0.2058853 0.6200000 0.1989297
v 0.1923853 0.6550000 0.0909297
v -0.0416147 0.5000000 0.0909297
vn -0.5229638 0.7895066 0.3212291
f 202/1/68 203/1/68 204/1/68
v 0.2058853 0.6200000 -0.0170703
v 0.1923853 0.5950000 0.0909297
v -0.0416147 0.5000000 0.0909297
vn 0.3709987 -0.9138284 -0.1651595
f 205/1/69 206/1/69 207/1/69
v 0.4083853 0.7500000 0.0909297
v 0.1923853 0.5950000 0.0909297
v 0.2058853 0.6200000 -0.0170703
vn 0.5791858 -0.8071234 -0.1144359
f 208/1/70 209/1/70 210/1/70
v 0.2058853 0.6200000 0.1989297
v 0.1923853 0.5950000 0.0909297
v 0.4083853 0.7500000 0.0909297
vn 0.5791858 -0.8071234 0.1144359
f 211/1/71 212/1/71 213/1/71
v -0.0416147 0.5000000 0.0909297
v 0.1923853 0.5950000 0.0909297
v 0.2058853 0.6200000 0.1989297
vn 0.3709987 -0.9138284 0.1651595
f 214/1/72 215/1/72 216/1/72
v -0.0416147 0.5000000 0.0909297
v 0.0306953 0.6550000 0.3134770
v 0.1375811 0.6200000 0.2929424
vn 0.1439023 0.7895066 -0.5966334
f 217/1/73 218/1/73 219/1/73
v 0.1375811 0.6200000 0.2929424
v 0.0306953 0.6550000 0.3134770
v 0.0974430 0.7500000 0.5189052
vn 0.1942241 0.8647993 -0.4630325
f 220/1/74 221/1/74 222/1/74
v 0.0974430 0.7500000 0.5189052
v 0.0306953 0.6550000 0.3134770
v -0.0678471 0.6200000 0.3596901
vn -0.4292943 0.8647993 -0.2604391
f 223/1/75 224/1/75 225/1/75
v -0.0678471 0.6200000 0.3596901
v 0.0306953 0.6550000 0.3134770
v -0.0416147 0.5000000 0.0909297
vn -0.4671117 0.7895066 -0.3981029
f 226/1/76 227/1/76 228/1/76
v 0.1375811 0.6200000 0.2929424
v 0.0306953 0.5950000 0.3134770
v -0.0416147 0.5000000 0.0909297
vn 0.2717209 -0.9138284 0.3018036
f 229/1/77 230/1/77 231/1/77
v 0.0974430 0.7500000 0.5189052
v 0.0306953 0.5950000 0.3134770
v 0.1375811 0.6200000 0.2929424
vn 0.2878133 -0.8071234 0.5154758
f 232/1/78 233/1/78 234/1/78
v -0.0678471 0.6200000 0.3596901
v 0.0306953 0.5950000 0.3134770
v 0.0974430 0.7500000 0.5189052
vn 0.0701432 -0.8071234 0.5862011
f 235/1/79 236/1/79 237/1/79
v -0.0416147 0.5000000 0.0909297
v 0.0306953 0.5950000 0.3134770
v -0.0678471 0.6200000 0.3596901
vn -0.0424311 -0.9138284 0.4038778
f 238/1/80 239/1/80 240/1/80
v -0.0416147 0.5000000 0.0909297
v -0.2309247 0.6550000 0.2284715
v -0.1783656 0.6200000 0.3237804
vn 0.6119003 0.7895066 -0.0475106
f 241/1/81 242/1/81 243/1/81
v -0.1783656 0.6200000 0.3237804
v -0.2309247 0.6550000 0.2284715
v -0.4056723 0.7500000 0.3554331
vn 0.5003886 0.8647993 0.0416332
f 244/1/82 245/1/82 246/1/82
v -0.4056723 0.7500000 0.3554331
v -0.2309247 0.6550000 0.2284715
v -0.3053272 0.6200000 0.1490328
vn 0.1150331 0.8647993 -0.4887632
f 247/1/83 248/1/83 249/1/83
v -0.3053272 0.6200000 0.1490328
v -0.2309247 0.6550000 0.2284715
v -0.0416147 0.5000000 0.0909297
vn 0.2342729 0.7895066 -0.5672702
f 250/1/84 251/1/84 252/1/84
v -0.1783656 0.6200000 0.3237804
v -0.2309247 0.5950000 0.2284715
v -0.0416147 0.5000000 0.0909297
vn -0.2030659 -0.9138284 0.3516844
f 253/1/85 254/1/85 255/1/85
v -0.4056723 0.7500000 0.3554331
v -0.2309247 0.5950000 0.2284715
v -0.1783656 0.6200000 0.3237804
vn -0.4013074 -0.8071234 0.4330175
f 256/1/86 257/1/86 258/1/86
v -0.3053272 0.6200000 0.1490328
v -0.2309247 0.5950000 0.2284715
v -0.4056723 0.7500000 0.3554331
vn -0.5358349 -0.8071234 0.2478563
f 259/1/87 260/1/87 261/1/87
v -0.0416147 0.5000000 0.0909297
v -0.2309247 0.5950000 0.2284715
v -0.3053272 0.6200000 0.1490328
vn -0.3972226 -0.9138284 0.0844507
f 262/1/88 263/1/88 264/1/88
v -0.0416147 0.5000000 0.0909297
v -0.2309247 0.6550000 -0.0466120
v -0.3053272 0.6200000 0.0328267
vn 0.2342729 0.7895066 0.5672702
f 265/1/89 266/1/89 267/1/89
v -0.3053272 0.6200000 0.0328267
v -0.2309247 0.6550000 -0.0466120
v -0.4056723 0.7500000 -0.1735736
vn 0.1150331 0.8647993 0.4887632
f 268/1/90 269/1/90 270/1/90
v -0.4056723 0.7500000 -0.1735736
v -0.2309247 0.6550000 -0.0466120
v -0.1783656 0.6200000 -0.1419209
vn 0.5003886 0.8647993 -0.0416332
f 271/1/91 272/1/91 273/1/91
v -0.1783656 0.6200000 -0.1419209
v -0.2309247 0.6550000 -0.0466120
v -0.0416147 0.5000000 0.0909297
vn 0.6119003 0.7895066 0.0475106
f 274/1/92 275/1/92 276/1/92
v -0.3053272 0.6200000 0.0328267
v -0.2309247 0.5950000 -0.0466120
v -0.0416147 0.5000000 0.0909297
vn -0.3972226 -0.9138284 -0.0844507
f 277/1/93 278/1/93 279/1/93
v -0.4056723 0.7500000 -0.1735736
v -0.2309247 0.5950000 -0.0466120
v -0.3053272 0.6200000 0.0328267
vn -0.5358349 -0.8071234 -0.2478563
f 280/1/94 281/1/94 282/1/94
v -0.1783656 0.6200000 -0.1419209
v -0.2309247 0.5950000 -0.0466120
v -0.4056723 0.7500000 -0.1735736
vn -0.4013074 -0.8071234 -0.4330175
f 283/1/95 284/1/95 285/1/95
v -0.0416147 0.5000000 0.0909297
v -0.2309247 0.5950000 -0.0466120
v -0.1783656 0.6200000 -0.1419209
vn -0.2030659 -0.9138284 -0.3516844
f 286/1/96 287/1/96 288/1/96
v -0.0416147 0.5000000 0.0909297
v 0.0306953 0.6550000 -0.1316175
v -0.0678471 0.6200000 -0.1778306
vn -0.4671117 0.7895066 0.3981029
f 289/1/97 290/1/97 291/1/97
v -0.0678471 0.6200000 -0.1778306
v 0.0306953 0.6550000 -0.1316175
v 0.0974430 0.7500000 -0.3370457
vn -0.4292943 0.8647993 0.2604391
f 292/1/98 293/1/98 294/1/98
v 0.0974430 0.7500000 -0.3370457
v 0.0306953 0.6550000 -0.1316175
v 0.1375811 0.6200000 -0.1110829
vn 0.1942241 0.8647993 0.4630325
f 295/1/99 296/1/99 297/1/99
v 0.1375811 0.6200000 -0.1110829
v 0.0306953 0.6550000 -0.1316175
v -0.0416147 0.5000000 0.0909297
vn 0.1439023 0.7895066 0.5966334
f 298/1/100 299/1/100 300/1/100
v -0.0678471 0.6200000 -0.1778306
v 0.0306953 0.5950000 -0.1316175
v -0.0416147 0.5000000 0.0909297
vn -0.0424311 -0.9138284 -0.4038778
f 301/1/101 302/1/101 303/1/101
v 0.0974430 0.7500000 -0.3370457
v 0.0306953 0.5950000 -0.1316175
v -0.0678471 0.6200000 -0.1778306
vn 0.0701432 -0.8071234 -0.5862011
f 304/1/102 305/1/102 306/1/102
v 0.1375811 0.6200000 -0.1110829
v 0.0306953 0.5950000 -0.1316175
v 0.0974430 0.7500000 -0.3370457
vn 0.2878133 -0.8071234 -0.5154758
f 307/1/103 308/1/103 309/1/103
v -0.0416147 0.5000000 0.0909297
v 0.0306953 0.5950000 -0.1316175
v 0.1375811 0.6200000 -0.1110829
vn 0.2717209 -0.9138284 -0.3018036
f 310/1/104 311/1/104 312/1/104
v -0.0653644 0.7000000 -0.0756802
v 0.1686356 0.8550000 -0.0756802
v 0.1821356 0.8200000 -0.1836802
vn -0.5229638 0.7895066 -0.3212291
f 313/1/105 314/1/105 315/1/105
v 0.1821356 0.8200000 -0.1836802
v 0.1686356 0.8550000 -0.0756802
v 0.3846356 0.9500000 -0.0756802
vn -0.3803516 0.8647993 -0.3278030
f 316/1/106 317/1/106 318/1/106
v 0.3846356 0.9500000 -0.0756802
v 0.1686356 0.8550000 -0.0756802
v 0.1821356 0.8200000 0.0323198
vn -0.3803516 0.8647993 0.3278030
f 319/1/107 320/1/107 321/1/107
v 0.1821356 0.8200000 0.0323198
v 0.1686356 0.8550000 -0.0756802
v -0.0653644 0.7000000 -0.0756802
vn -0.5229638 0.7895066 0.3212291
f 322/1/108 323/1/108 324/1/108
v 0.1821356 0.8200000 -0.1836802
v 0.1686356 0.7950000 -0.0756802
v -0.0653644 0.7000000 -0.0756802
vn 0.3709987 -0.9138284 -0.1651595
f 325/1/109 326/1/109 327/1/109
v 0.3846356 0.9500000 -0.0756802
v 0.1686356 0.7950000 -0.0756802
v 0.1821356 0.8200000 -0.1836802
vn 0.5791858 -0.8071234 -0.1144359
f 328/1/110 329/1/110 330/1/110
v 0.1821356 0.8200000 0.0323198
v 0.1686356 0.7950000 -0.0756802
v 0.3846356 0.9500000 -0.0756802
vn 0.5791858 -0.8071234 0.1144359
f 331/1/111 332/1/111 333/1/111
v -0.0653644 0.7000000 -0.0756802
v 0.1686356 0.7950000 -0.0756802
v 0.1821356 0.8200000 0.0323198
vn 0.3709987 -0.9138284 0.1651595
f 334/1/112 335/1/112 336/1/112
v -0.0653644 0.7000000 -0.0756802
v 0.0069456 0.8550000 0.1468670
v 0.1138314 0.8200000 0.1263324
vn 0.1439023 0.7895066 -0.5966334
f 337/1/113 338/1/113 339/1/113
v 0.1138314 0.8200000 0.1263324
v 0.0069456 0.8550000 0.1468670
v 0.0736933 0.9500000 0.3522952
vn 0.1942241 0.8647993 -0.4630325
f 340/1/114 341/1/114 342/1/114
v 0.0736933 0.9500000 0.3522952
v 0.0069456 0.8550000 0.1468670
v -0.0915968 0.8200000 0.1930801
vn -0.4292943 0.8647993 -0.2604391
f 343/1/115 344/1/115 345/1/115
v -0.0915968 0.8200000 0.1930801
v 0.0069456 0.8550000 0.1468670
v -0.0653644 0.7000000 -0.0756802
vn -0.4671117 0.7895066 -0.3981029
f 346/1/116 347/1/116 348/1/116
v 0.1138314 0.8200000 0.1263324
v 0.0069456 0.7950000 0.1468670
v -0.0653644 0.7000000 -0.0756802
vn 0.2717209 -0.9138284 0.3018036
f 349/1/117 350/1/117 351/1/117
v 0.0736933 0.9500000 0.3522952
v 0.0069456 0.7950000 0.1468670
v 0.1138314 0.8200000 0.1263324
vn 0.2878133 -0.8071234 0.5154758
f 352/1/118 353/1/118 354/1/118
v -0.0915968 0.8200000 0.1930801
v 0.0069456 0.7950000 0.1468670
v 0.0736933 0.9500000 0.3522952
vn 0.0701432 -0.8071234 0.5862011
f 355/1/119 356/1/119 357/1/119
v -0.0653644 0.7000000 -0.0756802
v 0.0069456 0.7950000 0.1468670
v -0.0915968 0.8200000 0.1930801
vn -0.0424311 -0.9138284 0.4038778
f 358/1/120 359/1/120 360/1/120
v -0.0653644 0.7000000 -0.0756802
v -0.2546743 0.8550000 0.0618615
v -0.2021153 0.8200000 0.1571704
vn 0.6119003 0.7895066 -0.0475106
f 361/1/121 362/1/121 363/1/121
v -0.2021153 0.8200000 0.1571704
v -0.2546743 0.8550000 0.0618615
v -0.4294220 0.9500000 0.1888231
vn 0.5003886 0.8647993 0.0416332
f 364/1/122 365/1/122 366/1/122
v -0.4294220 0.9500000 0.1888231
v -0.2546743 0.8550000 0.0618615
v -0.3290769 0.8200000 -0.0175772
vn 0.1150331 0.8647993 -0.4887632
f 367/1/123 368/1/123 369/1/123
v -0.3290769 0.8200000 -0.0175772
v -0.2546743 0.8550000 0.0618615
v -0.0653644 0.7000000 -0.0756802
vn 0.2342729 0.7895066 -0.5672702
f 370/1/124 371/1/124 372/1/124
v -0.2021153 0.8200000 0.1571704
v -0.2546743 0.7950000 0.0618615
v -0.0653644 0.7000000 -0.0756802
vn -0.2030659 -0.9138284 0.3516844
f 373/1/125 374/1/125 375/1/125
v -0.4294220 0.9500000 0.1888231
v -0.2546743 0.7950000 0.0618615
v -0.2021153 0.8200000 0.1571704
vn -0.4013074 -0.8071234 0.4330175
f 376/1/126 377/1/126 378/1/126
v -0.3290769 0.8200000 -0.0175772
v -0.2546743 0.7950000 0.0618615
v -0.4294220 0.9500000 0.1888231
vn -0.5358349 -0.8071234 0.2478563
f 379/1/127 380/1/127 381/1/127
v -0.0653644 0.7000000 -0.0756802
v -0.2546743 0.7950000 0.0618615
v -0.3290769 0.8200000 -0.0175772
vn -0.3972226 -0.9138284 0.0844507
f 382/1/128 383/1/128 384/1/128
v -0.0653644 0.7000000 -0.0756802
v -0.2546743 0.8550000 -0.2132220
v -0.3290769 0.8200000 -0.1337833
vn 0.2342729 0.7895066 0.5672702
f 385/1/129 386/1/129 387/1/129
v -0.3290769 0.8200000 -0.1337833
v -0.2546743 0.8550000 -0.2132220
v -0.4294220 0.9500000 -0.3401836
vn 0.1150331 0.8647993 0.4887632
f 388/1/130 389/1/130 390/1/130
v -0.4294220 0.9500000 -0.3401836
v -0.2546743 0.8550000 -0.2132220
v -0.2021153 0.8200000 -0.3085309
vn 0.5003886 0.8647993 -0.0416332
f 391/1/131 392/1/131 393/1/131
v -0.2021153 0.8200000 -0.3085309
v -0.2546743 0.8550000 -0.2132220
v -0.0653644 0.7000000 -0.0756802
vn 0.6119003 0.7895066 0.0475106
f 394/1/132 395/1/132 396/1/132
v -0.3290769 0.8200000 -0.1337833
v -0.2546743 0.7950000 -0.2132220
v -0.0653644 0.7000000 -0.0756802
vn -0.3972226 -0.9138284 -0.0844507
f 397/1/133 398/1/133 399/1/133
v -0.4294220 0.9500000 -0.3401836
v -0.2546743 0.7950000 -0.2132220
v -0.3290769 0.8200000 -0.1337833
vn -0.5358349 -0.8071234 -0.2478563
f 400/1/134 401/1/134 402/1/134
v -0.2021153 0.8200000 -0.3085309
v -0.2546743 0.7950000 -0.2132220
v -0.4294220 0.9500000 -0.3401836
vn -0.4013074 -0.8071234 -0.4330175
f 403/1/135 404/1/135 405/1/135
v -0.0653644 0.7000000 -0.0756802
v -0.2546743 0.7950000 -0.2132220
v -0.2021153 0.8200000 -0.3085309
vn -0.2030659 -0.9138284 -0.3516844
f 406/1/136 407/1/136 408/1/136
v -0.0653644 0.7000000 -0.0756802
v 0.0069456 0.8550000 -0.2982275
v -0.0915968 0.8200000 -0.3444406
vn -0.4671117 0.7895066 0.3981029
f 409/1/137 410/1/137 411/1/137
v -0.0915968 0.8200000 -0.3444406
v 0.0069456 0.8550000 -0.2982275
v 0.0736933 0.9500000 -0.5036557
vn -0.4292943 0.8647993 0.2604391
f 412/1/138 413/1/138 414/1/138
v 0.0736933 0.9500000 -0.5036557
v 0.0069456 0.8550000 -0.2982275
v 0.1138314 0.8200000 -0.2776929
vn 0.1942241 0.8647993 0.4630325
f 415/1/139 416/1/139 417/1/139
v 0.1138314 0.8200000 -0.2776929
v 0.0069456 0.8550000 -0.2982275
v -0.0653644 0.7000000 -0.0756802
vn 0.1439023 0.7895066 0.5966334
f 418/1/140 419/1/140 420/1/140
v -0.0915968 0.8200000 -0.3444406
v 0.0069456 0.7950000 -0.2982275
v -0.0653644 0.7000000 -0.0756802
vn -0.0424311 -0.9138284 -0.4038778
f 421/1/141 422/1/141 423/1/141
v 0.0736933 0.9500000 -0.5036557
v 0.0069456 0.7950000 -0.2982275
v -0.0915968 0.8200000 -0.3444406
vn 0.0701432 -0.8071234 -0.5862011
f 424/1/142 425/1/142 426/1/142
v 0.1138314 0.8200000 -0.2776929
v 0.0069456 0.7950000 -0.2982275
v 0.0736933 0.9500000 -0.5036557
vn 0.2878133 -0.8071234 -0.5154758
f 427/1/143 428/1/143 429/1/143
v -0.0653644 0.7000000 -0.0756802
v 0.0069456 0.7950000 -0.2982275
v 0.1138314 0.8200000 -0.2776929
vn 0.2717209 -0.9138284 -0.3018036
f 430/1/144 431/1/144 432/1/144
