# Generated by tools/generate_farm_crop_meshes.py
o crop_tomato
vt 0.5 0.5
s off
v -0.3510000 0.2000000 0.0000000
v -0.0750000 0.2900000 0.0000000
v -0.1212212 0.2900000 0.1725000
vn 0.3089564 -0.9474664 0.0827846
f 1/1/1 2/1/1 3/1/1
v -0.3510000 0.2000000 0.0000000
v -0.1212212 0.2900000 0.1725000
v -0.3602442 0.2000000 0.0345000
vn 0.3089564 -0.9474664 0.0827846
f 4/1/2 5/1/2 6/1/2
v -0.3602442 0.2000000 0.0345000
v -0.1212212 0.2900000 0.1725000
v -0.2475000 0.2900000 0.2987788
vn 0.2261718 -0.9474664 0.2261718
f 7/1/3 8/1/3 9/1/3
v -0.3602442 0.2000000 0.0345000
v -0.2475000 0.2900000 0.2987788
v -0.3855000 0.2000000 0.0597558
vn 0.2261718 -0.9474664 0.2261718
f 10/1/4 11/1/4 12/1/4
v -0.3855000 0.2000000 0.0597558
v -0.2475000 0.2900000 0.2987788
v -0.4200000 0.2900000 0.3450000
vn 0.0827846 -0.9474664 0.3089564
f 13/1/5 14/1/5 15/1/5
v -0.3855000 0.2000000 0.0597558
v -0.4200000 0.2900000 0.3450000
v -0.4200000 0.2000000 0.0690000
vn 0.0827846 -0.9474664 0.3089564
f 16/1/6 17/1/6 18/1/6
v -0.4200000 0.2000000 0.0690000
v -0.4200000 0.2900000 0.3450000
v -0.5925000 0.2900000 0.2987788
vn -0.0827846 -0.9474664 0.3089564
f 19/1/7 20/1/7 21/1/7
v -0.4200000 0.2000000 0.0690000
v -0.5925000 0.2900000 0.2987788
v -0.4545000 0.2000000 0.0597558
vn -0.0827846 -0.9474664 0.3089564
f 22/1/8 23/1/8 24/1/8
v -0.4545000 0.2000000 0.0597558
v -0.5925000 0.2900000 0.2987788
v -0.7187788 0.2900000 0.1725000
vn -0.2261718 -0.9474664 0.2261718
f 25/1/9 26/1/9 27/1/9
v -0.4545000 0.2000000 0.0597558
v -0.7187788 0.2900000 0.1725000
v -0.4797558 0.2000000 0.0345000
vn -0.2261718 -0.9474664 0.2261718
f 28/1/10 29/1/10 30/1/10
v -0.4797558 0.2000000 0.0345000
v -0.7187788 0.2900000 0.1725000
v -0.7650000 0.2900000 0.0000000
vn -0.3089564 -0.9474664 0.0827846
f 31/1/11 32/1/11 33/1/11
v -0.4797558 0.2000000 0.0345000
v -0.7650000 0.2900000 0.0000000
v -0.4890000 0.2000000 0.0000000
vn -0.3089564 -0.9474664 0.0827846
f 34/1/12 35/1/12 36/1/12
v -0.4890000 0.2000000 0.0000000
v -0.7650000 0.2900000 0.0000000
v -0.7187788 0.2900000 -0.1725000
vn -0.3089564 -0.9474664 -0.0827846
f 37/1/13 38/1/13 39/1/13
v -0.4890000 0.2000000 0.0000000
v -0.7187788 0.2900000 -0.1725000
v -0.4797558 0.2000000 -0.0345000
vn -0.3089564 -0.9474664 -0.0827846
f 40/1/14 41/1/14 42/1/14
v -0.4797558 0.2000000 -0.0345000
v -0.7187788 0.2900000 -0.1725000
v -0.5925000 0.2900000 -0.2987788
vn -0.2261718 -0.9474664 -0.2261718
f 43/1/15 44/1/15 45/1/15
v -0.4797558 0.2000000 -0.0345000
v -0.5925000 0.2900000 -0.2987788
v -0.4545000 0.2000000 -0.0597558
vn -0.2261718 -0.9474664 -0.2261718
f 46/1/16 47/1/16 48/1/16
v -0.4545000 0.2000000 -0.0597558
v -0.5925000 0.2900000 -0.2987788
v -0.4200000 0.2900000 -0.3450000
vn -0.0827846 -0.9474664 -0.3089564
f 49/1/17 50/1/17 51/1/17
v -0.4545000 0.2000000 -0.0597558
v -0.4200000 0.2900000 -0.3450000
v -0.4200000 0.2000000 -0.0690000
vn -0.0827846 -0.9474664 -0.3089564
f 52/1/18 53/1/18 54/1/18
v -0.4200000 0.2000000 -0.0690000
v -0.4200000 0.2900000 -0.3450000
v -0.2475000 0.2900000 -0.2987788
vn 0.0827846 -0.9474664 -0.3089564
f 55/1/19 56/1/19 57/1/19
v -0.4200000 0.2000000 -0.0690000
v -0.2475000 0.2900000 -0.2987788
v -0.3855000 0.2000000 -0.0597558
vn 0.0827846 -0.9474664 -0.3089564
f 58/1/20 59/1/20 60/1/20
v -0.3855000 0.2000000 -0.0597558
v -0.2475000 0.2900000 -0.2987788
v -0.1212212 0.2900000 -0.1725000
vn 0.2261718 -0.9474664 -0.2261718
f 61/1/21 62/1/21 63/1/21
v -0.3855000 0.2000000 -0.0597558
v -0.1212212 0.2900000 -0.1725000
v -0.3602442 0.2000000 -0.0345000
vn 0.2261718 -0.9474664 -0.2261718
f 64/1/22 65/1/22 66/1/22
v -0.3602442 0.2000000 -0.0345000
v -0.1212212 0.2900000 -0.1725000
v -0.0750000 0.2900000 0.0000000
vn 0.3089564 -0.9474664 -0.0827846
f 67/1/23 68/1/23 69/1/23
v -0.3602442 0.2000000 -0.0345000
v -0.0750000 0.2900000 0.0000000
v -0.3510000 0.2000000 0.0000000
vn 0.3089564 -0.9474664 -0.0827846
f 70/1/24 71/1/24 72/1/24
v -0.0750000 0.2900000 0.0000000
v 0.0400000 0.4250000 0.0000000
v -0.0216283 0.4250000 0.2300000
vn 0.7458849 -0.6353834 0.1998592
f 73/1/25 74/1/25 75/1/25
v -0.0750000 0.2900000 0.0000000
v -0.0216283 0.4250000 0.2300000
v -0.1212212 0.2900000 0.1725000
vn 0.7458849 -0.6353834 0.1998592
f 76/1/26 77/1/26 78/1/26
v -0.1212212 0.2900000 0.1725000
v -0.0216283 0.4250000 0.2300000
v -0.1900000 0.4250000 0.3983717
vn 0.5460256 -0.6353834 0.5460256
f 79/1/27 80/1/27 81/1/27
v -0.1212212 0.2900000 0.1725000
v -0.1900000 0.4250000 0.3983717
v -0.2475000 0.2900000 0.2987788
vn 0.5460256 -0.6353834 0.5460256
f 82/1/28 83/1/28 84/1/28
v -0.2475000 0.2900000 0.2987788
v -0.1900000 0.4250000 0.3983717
v -0.4200000 0.4250000 0.4600000
vn 0.1998592 -0.6353834 0.7458849
f 85/1/29 86/1/29 87/1/29
v -0.2475000 0.2900000 0.2987788
v -0.4200000 0.4250000 0.4600000
v -0.4200000 0.2900000 0.3450000
vn 0.1998592 -0.6353834 0.7458849
f 88/1/30 89/1/30 90/1/30
v -0.4200000 0.2900000 0.3450000
v -0.4200000 0.4250000 0.4600000
v -0.6500000 0.4250000 0.3983717
vn -0.1998592 -0.6353834 0.7458849
f 91/1/31 92/1/31 93/1/31
v -0.4200000 0.2900000 0.3450000
v -0.6500000 0.4250000 0.3983717
v -0.5925000 0.2900000 0.2987788
vn -0.1998592 -0.6353834 0.7458849
f 94/1/32 95/1/32 96/1/32
v -0.5925000 0.2900000 0.2987788
v -0.6500000 0.4250000 0.3983717
v -0.8183717 0.4250000 0.2300000
vn -0.5460256 -0.6353834 0.5460256
f 97/1/33 98/1/33 99/1/33
v -0.5925000 0.2900000 0.2987788
v -0.8183717 0.4250000 0.2300000
v -0.7187788 0.2900000 0.1725000
vn -0.5460256 -0.6353834 0.5460256
f 100/1/34 101/1/34 102/1/34
v -0.7187788 0.2900000 0.1725000
v -0.8183717 0.4250000 0.2300000
v -0.8800000 0.4250000 0.0000000
vn -0.7458849 -0.6353834 0.1998592
f 103/1/35 104/1/35 105/1/35
v -0.7187788 0.2900000 0.1725000
v -0.8800000 0.4250000 0.0000000
v -0.7650000 0.2900000 0.0000000
vn -0.7458849 -0.6353834 0.1998592
f 106/1/36 107/1/36 108/1/36
v -0.7650000 0.2900000 0.0000000
v -0.8800000 0.4250000 0.0000000
v -0.8183717 0.4250000 -0.2300000
vn -0.7458849 -0.6353834 -0.1998592
f 109/1/37 110/1/37 111/1/37
v -0.7650000 0.2900000 0.0000000
v -0.8183717 0.4250000 -0.2300000
v -0.7187788 0.2900000 -0.1725000
vn -0.7458849 -0.6353834 -0.1998592
f 112/1/38 113/1/38 114/1/38
v -0.7187788 0.2900000 -0.1725000
v -0.8183717 0.4250000 -0.2300000
v -0.6500000 0.4250000 -0.3983717
vn -0.5460256 -0.6353834 -0.5460256
f 115/1/39 116/1/39 117/1/39
v -0.7187788 0.2900000 -0.1725000
v -0.6500000 0.4250000 -0.3983717
v -0.5925000 0.2900000 -0.2987788
vn -0.5460256 -0.6353834 -0.5460256
f 118/1/40 119/1/40 120/1/40
v -0.5925000 0.2900000 -0.2987788
v -0.6500000 0.4250000 -0.3983717
v -0.4200000 0.4250000 -0.4600000
vn -0.1998592 -0.6353834 -0.7458849
f 121/1/41 122/1/41 123/1/41
v -0.5925000 0.2900000 -0.2987788
v -0.4200000 0.4250000 -0.4600000
v -0.4200000 0.2900000 -0.3450000
vn -0.1998592 -0.6353834 -0.7458849
f 124/1/42 125/1/42 126/1/42
v -0.4200000 0.2900000 -0.3450000
v -0.4200000 0.4250000 -0.4600000
v -0.1900000 0.4250000 -0.3983717
vn 0.1998592 -0.6353834 -0.7458849
f 127/1/43 128/1/43 129/1/43
v -0.4200000 0.2900000 -0.3450000
v -0.1900000 0.4250000 -0.3983717
v -0.2475000 0.2900000 -0.2987788
vn 0.1998592 -0.6353834 -0.7458849
f 130/1/44 131/1/44 132/1/44
v -0.2475000 0.2900000 -0.2987788
v -0.1900000 0.4250000 -0.3983717
v -0.0216283 0.4250000 -0.2300000
vn 0.5460256 -0.6353834 -0.5460256
f 133/1/45 134/1/45 135/1/45
v -0.2475000 0.2900000 -0.2987788
v -0.0216283 0.4250000 -0.2300000
v -0.1212212 0.2900000 -0.1725000
vn 0.5460256 -0.6353834 -0.5460256
f 136/1/46 137/1/46 138/1/46
v -0.1212212 0.2900000 -0.1725000
v -0.0216283 0.4250000 -0.2300000
v 0.0400000 0.4250000 0.0000000
vn 0.7458849 -0.6353834 -0.1998592
f 139/1/47 140/1/47 141/1/47
v -0.1212212 0.2900000 -0.1725000
v 0.0400000 0.4250000 0.0000000
v -0.0750000 0.2900000 0.0000000
vn 0.7458849 -0.6353834 -0.1998592
f 142/1/48 143/1/48 144/1/48
v 0.0400000 0.4250000 0.0000000
v -0.0244000 0.5900000 0.0000000
v -0.0774004 0.5900000 0.1978000
vn 0.9038277 0.3527667 0.2421799
f 145/1/49 146/1/49 147/1/49
v 0.0400000 0.4250000 0.0000000
v -0.0774004 0.5900000 0.1978000
v -0.0216283 0.4250000 0.2300000
vn 0.9038277 0.3527667 0.2421799
f 148/1/50 149/1/50 150/1/50
v -0.0216283 0.4250000 0.2300000
v -0.0774004 0.5900000 0.1978000
v -0.2222000 0.5900000 0.3425996
vn 0.6616478 0.3527667 0.6616478
f 151/1/51 152/1/51 153/1/51
v -0.0216283 0.4250000 0.2300000
v -0.2222000 0.5900000 0.3425996
v -0.1900000 0.4250000 0.3983717
vn 0.6616478 0.3527667 0.6616478
f 154/1/52 155/1/52 156/1/52
v -0.1900000 0.4250000 0.3983717
v -0.2222000 0.5900000 0.3425996
v -0.4200000 0.5900000 0.3956000
vn 0.2421799 0.3527667 0.9038277
f 157/1/53 158/1/53 159/1/53
v -0.1900000 0.4250000 0.3983717
v -0.4200000 0.5900000 0.3956000
v -0.4200000 0.4250000 0.4600000
vn 0.2421799 0.3527667 0.9038277
f 160/1/54 161/1/54 162/1/54
v -0.4200000 0.4250000 0.4600000
v -0.4200000 0.5900000 0.3956000
v -0.6178000 0.5900000 0.3425996
vn -0.2421799 0.3527667 0.9038277
f 163/1/55 164/1/55 165/1/55
v -0.4200000 0.4250000 0.4600000
v -0.6178000 0.5900000 0.3425996
v -0.6500000 0.4250000 0.3983717
vn -0.2421799 0.3527667 0.9038277
f 166/1/56 167/1/56 168/1/56
v -0.6500000 0.4250000 0.3983717
v -0.6178000 0.5900000 0.3425996
v -0.7625996 0.5900000 0.1978000
vn -0.6616478 0.3527667 0.6616478
f 169/1/57 170/1/57 171/1/57
v -0.6500000 0.4250000 0.3983717
v -0.7625996 0.5900000 0.1978000
v -0.8183717 0.4250000 0.2300000
vn -0.6616478 0.3527667 0.6616478
f 172/1/58 173/1/58 174/1/58
v -0.8183717 0.4250000 0.2300000
v -0.7625996 0.5900000 0.1978000
v -0.8156000 0.5900000 0.0000000
vn -0.9038277 0.3527667 0.2421799
f 175/1/59 176/1/59 177/1/59
v -0.8183717 0.4250000 0.2300000
v -0.8156000 0.5900000 0.0000000
v -0.8800000 0.4250000 0.0000000
vn -0.9038277 0.3527667 0.2421799
f 178/1/60 179/1/60 180/1/60
v -0.8800000 0.4250000 0.0000000
v -0.8156000 0.5900000 0.0000000
v -0.7625996 0.5900000 -0.1978000
vn -0.9038277 0.3527667 -0.2421799
f 181/1/61 182/1/61 183/1/61
v -0.8800000 0.4250000 0.0000000
v -0.7625996 0.5900000 -0.1978000
v -0.8183717 0.4250000 -0.2300000
vn -0.9038277 0.3527667 -0.2421799
f 184/1/62 185/1/62 186/1/62
v -0.8183717 0.4250000 -0.2300000
v -0.7625996 0.5900000 -0.1978000
v -0.6178000 0.5900000 -0.3425996
vn -0.6616478 0.3527667 -0.6616478
f 187/1/63 188/1/63 189/1/63
v -0.8183717 0.4250000 -0.2300000
v -0.6178000 0.5900000 -0.3425996
v -0.6500000 0.4250000 -0.3983717
vn -0.6616478 0.3527667 -0.6616478
f 190/1/64 191/1/64 192/1/64
v -0.6500000 0.4250000 -0.3983717
v -0.6178000 0.5900000 -0.3425996
v -0.4200000 0.5900000 -0.3956000
vn -0.2421799 0.3527667 -0.9038277
f 193/1/65 194/1/65 195/1/65
v -0.6500000 0.4250000 -0.3983717
v -0.4200000 0.5900000 -0.3956000
v -0.4200000 0.4250000 -0.4600000
vn -0.2421799 0.3527667 -0.9038277
f 196/1/66 197/1/66 198/1/66
v -0.4200000 0.4250000 -0.4600000
v -0.4200000 0.5900000 -0.3956000
v -0.2222000 0.5900000 -0.3425996
vn 0.2421799 0.3527667 -0.9038277
f 199/1/67 200/1/67 201/1/67
v -0.4200000 0.4250000 -0.4600000
v -0.2222000 0.5900000 -0.3425996
v -0.1900000 0.4250000 -0.3983717
vn 0.2421799 0.3527667 -0.9038277
f 202/1/68 203/1/68 204/1/68
v -0.1900000 0.4250000 -0.3983717
v -0.2222000 0.5900000 -0.3425996
v -0.0774004 0.5900000 -0.1978000
vn 0.6616478 0.3527667 -0.6616478
f 205/1/69 206/1/69 207/1/69
v -0.1900000 0.4250000 -0.3983717
v -0.0774004 0.5900000 -0.1978000
v -0.0216283 0.4250000 -0.2300000
vn 0.6616478 0.3527667 -0.6616478
f 208/1/70 209/1/70 210/1/70
v -0.0216283 0.4250000 -0.2300000
v -0.0774004 0.5900000 -0.1978000
v -0.0244000 0.5900000 0.0000000
vn 0.9038277 0.3527667 -0.2421799
f 211/1/71 212/1/71 213/1/71
v -0.0216283 0.4250000 -0.2300000
v -0.0244000 0.5900000 0.0000000
v 0.0400000 0.4250000 0.0000000
vn 0.9038277 0.3527667 -0.2421799
f 214/1/72 215/1/72 216/1/72
v -0.0244000 0.5900000 0.0000000
v -0.3280000 0.7000000 0.0000000
v -0.3403257 0.7000000 0.0460000
vn 0.3392385 0.9362984 0.0908987
f 217/1/73 218/1/73 219/1/73
v -0.0244000 0.5900000 0.0000000
v -0.3403257 0.7000000 0.0460000
v -0.0774004 0.5900000 0.1978000
vn 0.3392385 0.9362984 0.0908987
f 220/1/74 221/1/74 222/1/74
v -0.0774004 0.5900000 0.1978000
v -0.3403257 0.7000000 0.0460000
v -0.3740000 0.7000000 0.0796743
vn 0.2483398 0.9362984 0.2483398
f 223/1/75 224/1/75 225/1/75
v -0.0774004 0.5900000 0.1978000
v -0.3740000 0.7000000 0.0796743
v -0.2222000 0.5900000 0.3425996
vn 0.2483398 0.9362984 0.2483398
f 226/1/76 227/1/76 228/1/76
v -0.2222000 0.5900000 0.3425996
v -0.3740000 0.7000000 0.0796743
v -0.4200000 0.7000000 0.0920000
vn 0.0908987 0.9362984 0.3392385
f 229/1/77 230/1/77 231/1/77
v -0.2222000 0.5900000 0.3425996
v -0.4200000 0.7000000 0.0920000
v -0.4200000 0.5900000 0.3956000
vn 0.0908987 0.9362984 0.3392385
f 232/1/78 233/1/78 234/1/78
v -0.4200000 0.5900000 0.3956000
v -0.4200000 0.7000000 0.0920000
v -0.4660000 0.7000000 0.0796743
vn -0.0908987 0.9362984 0.3392385
f 235/1/79 236/1/79 237/1/79
v -0.4200000 0.5900000 0.3956000
v -0.4660000 0.7000000 0.0796743
v -0.6178000 0.5900000 0.3425996
vn -0.0908987 0.9362984 0.3392385
f 238/1/80 239/1/80 240/1/80
v -0.6178000 0.5900000 0.3425996
v -0.4660000 0.7000000 0.0796743
v -0.4996743 0.7000000 0.0460000
vn -0.2483398 0.9362984 0.2483398
f 241/1/81 242/1/81 243/1/81
v -0.6178000 0.5900000 0.3425996
v -0.4996743 0.7000000 0.0460000
v -0.7625996 0.5900000 0.1978000
vn -0.2483398 0.9362984 0.2483398
f 244/1/82 245/1/82 246/1/82
v -0.7625996 0.5900000 0.1978000
v -0.4996743 0.7000000 0.0460000
v -0.5120000 0.7000000 0.0000000
vn -0.3392385 0.9362984 0.0908987
f 247/1/83 248/1/83 249/1/83
v -0.7625996 0.5900000 0.1978000
v -0.5120000 0.7000000 0.0000000
v -0.8156000 0.5900000 0.0000000
vn -0.3392385 0.9362984 0.0908987
f 250/1/84 251/1/84 252/1/84
v -0.8156000 0.5900000 0.0000000
v -0.5120000 0.7000000 0.0000000
v -0.4996743 0.7000000 -0.0460000
vn -0.3392385 0.9362984 -0.0908987
f 253/1/85 254/1/85 255/1/85
v -0.8156000 0.5900000 0.0000000
v -0.4996743 0.7000000 -0.0460000
v -0.7625996 0.5900000 -0.1978000
vn -0.3392385 0.9362984 -0.0908987
f 256/1/86 257/1/86 258/1/86
v -0.7625996 0.5900000 -0.1978000
v -0.4996743 0.7000000 -0.0460000
v -0.4660000 0.7000000 -0.0796743
vn -0.2483398 0.9362984 -0.2483398
f 259/1/87 260/1/87 261/1/87
v -0.7625996 0.5900000 -0.1978000
v -0.4660000 0.7000000 -0.0796743
v -0.6178000 0.5900000 -0.3425996
vn -0.2483398 0.9362984 -0.2483398
f 262/1/88 263/1/88 264/1/88
v -0.6178000 0.5900000 -0.3425996
v -0.4660000 0.7000000 -0.0796743
v -0.4200000 0.7000000 -0.0920000
vn -0.0908987 0.9362984 -0.3392385
f 265/1/89 266/1/89 267/1/89
v -0.6178000 0.5900000 -0.3425996
v -0.4200000 0.7000000 -0.0920000
v -0.4200000 0.5900000 -0.3956000
vn -0.0908987 0.9362984 -0.3392385
f 268/1/90 269/1/90 270/1/90
v -0.4200000 0.5900000 -0.3956000
v -0.4200000 0.7000000 -0.0920000
v -0.3740000 0.7000000 -0.0796743
vn 0.0908987 0.9362984 -0.3392385
f 271/1/91 272/1/91 273/1/91
v -0.4200000 0.5900000 -0.3956000
v -0.3740000 0.7000000 -0.0796743
v -0.2222000 0.5900000 -0.3425996
vn 0.0908987 0.9362984 -0.3392385
f 274/1/92 275/1/92 276/1/92
v -0.2222000 0.5900000 -0.3425996
v -0.3740000 0.7000000 -0.0796743
v -0.3403257 0.7000000 -0.0460000
vn 0.2483398 0.9362984 -0.2483398
f 277/1/93 278/1/93 279/1/93
v -0.2222000 0.5900000 -0.3425996
v -0.3403257 0.7000000 -0.0460000
v -0.0774004 0.5900000 -0.1978000
vn 0.2483398 0.9362984 -0.2483398
f 280/1/94 281/1/94 282/1/94
v -0.0774004 0.5900000 -0.1978000
v -0.3403257 0.7000000 -0.0460000
v -0.3280000 0.7000000 0.0000000
vn 0.3392385 0.9362984 -0.0908987
f 283/1/95 284/1/95 285/1/95
v -0.0774004 0.5900000 -0.1978000
v -0.3280000 0.7000000 0.0000000
v -0.0244000 0.5900000 0.0000000
vn 0.3392385 0.9362984 -0.0908987
f 286/1/96 287/1/96 288/1/96
v -0.4200000 0.2000000 0.0000000
v -0.3510000 0.2000000 0.0000000
v -0.3602442 0.2000000 0.0345000
vn 0.0000000 -1.0000000 0.0000000
f 289/1/97 290/1/97 291/1/97
v -0.4200000 0.7000000 0.0000000
v -0.3403257 0.7000000 0.0460000
v -0.3280000 0.7000000 0.0000000
vn 0.0000000 1.0000000 0.0000000
f 292/1/98 293/1/98 294/1/98
v -0.4200000 0.2000000 0.0000000
v -0.3602442 0.2000000 0.0345000
v -0.3855000 0.2000000 0.0597558
vn 0.0000000 -1.0000000 0.0000000
f 295/1/99 296/1/99 297/1/99
v -0.4200000 0.7000000 0.0000000
v -0.3740000 0.7000000 0.0796743
v -0.3403257 0.7000000 0.0460000
vn 0.0000000 1.0000000 0.0000000
f 298/1/100 299/1/100 300/1/100
v -0.4200000 0.2000000 0.0000000
v -0.3855000 0.2000000 0.0597558
v -0.4200000 0.2000000 0.0690000
vn 0.0000000 -1.0000000 0.0000000
f 301/1/101 302/1/101 303/1/101
v -0.4200000 0.7000000 0.0000000
v -0.4200000 0.7000000 0.0920000
v -0.3740000 0.7000000 0.0796743
vn 0.0000000 1.0000000 0.0000000
f 304/1/102 305/1/102 306/1/102
v -0.4200000 0.2000000 0.0000000
v -0.4200000 0.2000000 0.0690000
v -0.4545000 0.2000000 0.0597558
vn 0.0000000 -1.0000000 0.0000000
f 307/1/103 308/1/103 309/1/103
v -0.4200000 0.7000000 0.0000000
v -0.4660000 0.7000000 0.0796743
v -0.4200000 0.7000000 0.0920000
vn 0.0000000 1.0000000 -0.0000000
f 310/1/104 311/1/104 312/1/104
v -0.4200000 0.2000000 0.0000000
v -0.4545000 0.2000000 0.0597558
v -0.4797558 0.2000000 0.0345000
vn 0.0000000 -1.0000000 0.0000000
f 313/1/105 314/1/105 315/1/105
v -0.4200000 0.7000000 0.0000000
v -0.4996743 0.7000000 0.0460000
v -0.4660000 0.7000000 0.0796743
vn 0.0000000 1.0000000 0.0000000
f 316/1/106 317/1/106 318/1/106
v -0.4200000 0.2000000 0.0000000
v -0.4797558 0.2000000 0.0345000
v -0.4890000 0.2000000 0.0000000
vn 0.0000000 -1.0000000 0.0000000
f 319/1/107 320/1/107 321/1/107
v -0.4200000 0.7000000 0.0000000
v -0.5120000 0.7000000 0.0000000
v -0.4996743 0.7000000 0.0460000
vn 0.0000000 1.0000000 0.0000000
f 322/1/108 323/1/108 324/1/108
v -0.4200000 0.2000000 0.0000000
v -0.4890000 0.2000000 0.0000000
v -0.4797558 0.2000000 -0.0345000
vn -0.0000000 -1.0000000 0.0000000
f 325/1/109 326/1/109 327/1/109
v -0.4200000 0.7000000 0.0000000
v -0.4996743 0.7000000 -0.0460000
v -0.5120000 0.7000000 0.0000000
vn 0.0000000 1.0000000 0.0000000
f 328/1/110 329/1/110 330/1/110
v -0.4200000 0.2000000 0.0000000
v -0.4797558 0.2000000 -0.0345000
v -0.4545000 0.2000000 -0.0597558
vn 0.0000000 -1.0000000 0.0000000
f 331/1/111 332/1/111 333/1/111
v -0.4200000 0.7000000 0.0000000
v -0.4660000 0.7000000 -0.0796743
v -0.4996743 0.7000000 -0.0460000
vn 0.0000000 1.0000000 0.0000000
f 334/1/112 335/1/112 336/1/112
v -0.4200000 0.2000000 0.0000000
v -0.4545000 0.2000000 -0.0597558
v -0.4200000 0.2000000 -0.0690000
vn 0.0000000 -1.0000000 -0.0000000
f 337/1/113 338/1/113 339/1/113
v -0.4200000 0.7000000 0.0000000
v -0.4200000 0.7000000 -0.0920000
v -0.4660000 0.7000000 -0.0796743
vn 0.0000000 1.0000000 0.0000000
f 340/1/114 341/1/114 342/1/114
v -0.4200000 0.2000000 0.0000000
v -0.4200000 0.2000000 -0.0690000
v -0.3855000 0.2000000 -0.0597558
vn 0.0000000 -1.0000000 0.0000000
f 343/1/115 344/1/115 345/1/115
v -0.4200000 0.7000000 0.0000000
v -0.3740000 0.7000000 -0.0796743
v -0.4200000 0.7000000 -0.0920000
vn 0.0000000 1.0000000 0.0000000
f 346/1/116 347/1/116 348/1/116
v -0.4200000 0.2000000 0.0000000
v -0.3855000 0.2000000 -0.0597558
v -0.3602442 0.2000000 -0.0345000
vn 0.0000000 -1.0000000 0.0000000
f 349/1/117 350/1/117 351/1/117
v -0.4200000 0.7000000 0.0000000
v -0.3403257 0.7000000 -0.0460000
v -0.3740000 0.7000000 -0.0796743
vn 0.0000000 1.0000000 0.0000000
f 352/1/118 353/1/118 354/1/118
v -0.4200000 0.2000000 0.0000000
v -0.3602442 0.2000000 -0.0345000
v -0.3510000 0.2000000 0.0000000
vn 0.0000000 -1.0000000 0.0000000
f 355/1/119 356/1/119 357/1/119
v -0.4200000 0.7000000 0.0000000
v -0.3280000 0.7000000 0.0000000
v -0.3403257 0.7000000 -0.0460000
vn -0.0000000 1.0000000 0.0000000
f 358/1/120 359/1/120 360/1/120
v 0.4845000 0.3800000 0.0800000
v 0.7425000 0.4664000 0.0800000
v 0.6992932 0.4664000 0.2412500
vn 0.3164073 -0.9448273 0.0847811
f 361/1/121 362/1/121 363/1/121
v 0.4845000 0.3800000 0.0800000
v 0.6992932 0.4664000 0.2412500
v 0.4758586 0.3800000 0.1122500
vn 0.3164073 -0.9448273 0.0847811
f 364/1/122 365/1/122 366/1/122
v 0.4758586 0.3800000 0.1122500
v 0.6992932 0.4664000 0.2412500
v 0.5812500 0.4664000 0.3592932
vn 0.2316262 -0.9448273 0.2316262
f 367/1/123 368/1/123 369/1/123
v 0.4758586 0.3800000 0.1122500
v 0.5812500 0.4664000 0.3592932
v 0.4522500 0.3800000 0.1358586
vn 0.2316262 -0.9448273 0.2316262
f 370/1/124 371/1/124 372/1/124
v 0.4522500 0.3800000 0.1358586
v 0.5812500 0.4664000 0.3592932
v 0.4200000 0.4664000 0.4025000
vn 0.0847811 -0.9448273 0.3164073
f 373/1/125 374/1/125 375/1/125
v 0.4522500 0.3800000 0.1358586
v 0.4200000 0.4664000 0.4025000
v 0.4200000 0.3800000 0.1445000
vn 0.0847811 -0.9448273 0.3164073
f 376/1/126 377/1/126 378/1/126
v 0.4200000 0.3800000 0.1445000
v 0.4200000 0.4664000 0.4025000
v 0.2587500 0.4664000 0.3592932
vn -0.0847811 -0.9448273 0.3164073
f 379/1/127 380/1/127 381/1/127
v 0.4200000 0.3800000 0.1445000
v 0.2587500 0.4664000 0.3592932
v 0.3877500 0.3800000 0.1358586
vn -0.0847811 -0.9448273 0.3164073
f 382/1/128 383/1/128 384/1/128
v 0.3877500 0.3800000 0.1358586
v 0.2587500 0.4664000 0.3592932
v 0.1407068 0.4664000 0.2412500
vn -0.2316262 -0.9448273 0.2316262
f 385/1/129 386/1/129 387/1/129
v 0.3877500 0.3800000 0.1358586
v 0.1407068 0.4664000 0.2412500
v 0.3641414 0.3800000 0.1122500
vn -0.2316262 -0.9448273 0.2316262
f 388/1/130 389/1/130 390/1/130
v 0.3641414 0.3800000 0.1122500
v 0.1407068 0.4664000 0.2412500
v 0.0975000 0.4664000 0.0800000
vn -0.3164073 -0.9448273 0.0847811
f 391/1/131 392/1/131 393/1/131
v 0.3641414 0.3800000 0.1122500
v 0.0975000 0.4664000 0.0800000
v 0.3555000 0.3800000 0.0800000
vn -0.3164073 -0.9448273 0.0847811
f 394/1/132 395/1/132 396/1/132
v 0.3555000 0.3800000 0.0800000
v 0.0975000 0.4664000 0.0800000
v 0.1407068 0.4664000 -0.0812500
vn -0.3164073 -0.9448273 -0.0847811
f 397/1/133 398/1/133 399/1/133
v 0.3555000 0.3800000 0.0800000
v 0.1407068 0.4664000 -0.0812500
v 0.3641414 0.3800000 0.0477500
vn -0.3164073 -0.9448273 -0.0847811
f 400/1/134 401/1/134 402/1/134
v 0.3641414 0.3800000 0.0477500
v 0.1407068 0.4664000 -0.0812500
v 0.2587500 0.4664000 -0.1992932
vn -0.2316262 -0.9448273 -0.2316262
f 403/1/135 404/1/135 405/1/135
v 0.3641414 0.3800000 0.0477500
v 0.2587500 0.4664000 -0.1992932
v 0.3877500 0.3800000 0.0241414
vn -0.2316262 -0.9448273 -0.2316262
f 406/1/136 407/1/136 408/1/136
v 0.3877500 0.3800000 0.0241414
v 0.2587500 0.4664000 -0.1992932
v 0.4200000 0.4664000 -0.2425000
vn -0.0847811 -0.9448273 -0.3164073
f 409/1/137 410/1/137 411/1/137
v 0.3877500 0.3800000 0.0241414
v 0.4200000 0.4664000 -0.2425000
v 0.4200000 0.3800000 0.0155000
vn -0.0847811 -0.9448273 -0.3164073
f 412/1/138 413/1/138 414/1/138
v 0.4200000 0.3800000 0.0155000
v 0.4200000 0.4664000 -0.2425000
v 0.5812500 0.4664000 -0.1992932
vn 0.0847811 -0.9448273 -0.3164073
f 415/1/139 416/1/139 417/1/139
v 0.4200000 0.3800000 0.0155000
v 0.5812500 0.4664000 -0.1992932
v 0.4522500 0.3800000 0.0241414
vn 0.0847811 -0.9448273 -0.3164073
f 418/1/140 419/1/140 420/1/140
v 0.4522500 0.3800000 0.0241414
v 0.5812500 0.4664000 -0.1992932
v 0.6992932 0.4664000 -0.0812500
vn 0.2316262 -0.9448273 -0.2316262
f 421/1/141 422/1/141 423/1/141
v 0.4522500 0.3800000 0.0241414
v 0.6992932 0.4664000 -0.0812500
v 0.4758586 0.3800000 0.0477500
vn 0.2316262 -0.9448273 -0.2316262
f 424/1/142 425/1/142 426/1/142
v 0.4758586 0.3800000 0.0477500
v 0.6992932 0.4664000 -0.0812500
v 0.7425000 0.4664000 0.0800000
vn 0.3164073 -0.9448273 -0.0847811
f 427/1/143 428/1/143 429/1/143
v 0.4758586 0.3800000 0.0477500
v 0.7425000 0.4664000 0.0800000
v 0.4845000 0.3800000 0.0800000
vn 0.3164073 -0.9448273 -0.0847811
f 430/1/144 431/1/144 432/1/144
v 0.7425000 0.4664000 0.0800000
v 0.8500000 0.5960000 0.0800000
v 0.7923909 0.5960000 0.2950000
vn 0.7538156 -0.6252714 0.2019843
f 433/1/145 434/1/145 435/1/145
v 0.7425000 0.4664000 0.0800000
v 0.7923909 0.5960000 0.2950000
v 0.6992932 0.4664000 0.2412500
vn 0.7538156 -0.6252714 0.2019843
f 436/1/146 437/1/146 438/1/146
v 0.6992932 0.4664000 0.2412500
v 0.7923909 0.5960000 0.2950000
v 0.6350000 0.5960000 0.4523909
vn 0.5518313 -0.6252714 0.5518313
f 439/1/147 440/1/147 441/1/147
v 0.6992932 0.4664000 0.2412500
v 0.6350000 0.5960000 0.4523909
v 0.5812500 0.4664000 0.3592932
vn 0.5518313 -0.6252714 0.5518313
f 442/1/148 443/1/148 444/1/148
v 0.5812500 0.4664000 0.3592932
v 0.6350000 0.5960000 0.4523909
v 0.4200000 0.5960000 0.5100000
vn 0.2019843 -0.6252714 0.7538156
f 445/1/149 446/1/149 447/1/149
v 0.5812500 0.4664000 0.3592932
v 0.4200000 0.5960000 0.5100000
v 0.4200000 0.4664000 0.4025000
vn 0.2019843 -0.6252714 0.7538156
f 448/1/150 449/1/150 450/1/150
v 0.4200000 0.4664000 0.4025000
v 0.4200000 0.5960000 0.5100000
v 0.2050000 0.5960000 0.4523909
vn -0.2019843 -0.6252714 0.7538156
f 451/1/151 452/1/151 453/1/151
v 0.4200000 0.4664000 0.4025000
v 0.2050000 0.5960000 0.4523909
v 0.2587500 0.4664000 0.3592932
vn -0.2019843 -0.6252714 0.7538156
f 454/1/152 455/1/152 456/1/152
v 0.2587500 0.4664000 0.3592932
v 0.2050000 0.5960000 0.4523909
v 0.0476091 0.5960000 0.2950000
vn -0.5518313 -0.6252714 0.5518313
f 457/1/153 458/1/153 459/1/153
v 0.2587500 0.4664000 0.3592932
v 0.0476091 0.5960000 0.2950000
v 0.1407068 0.4664000 0.2412500
vn -0.5518313 -0.6252714 0.5518313
f 460/1/154 461/1/154 462/1/154
v 0.1407068 0.4664000 0.2412500
v 0.0476091 0.5960000 0.2950000
v -0.0100000 0.5960000 0.0800000
vn -0.7538156 -0.6252714 0.2019843
f 463/1/155 464/1/155 465/1/155
v 0.1407068 0.4664000 0.2412500
v -0.0100000 0.5960000 0.0800000
v 0.0975000 0.4664000 0.0800000
vn -0.7538156 -0.6252714 0.2019843
f 466/1/156 467/1/156 468/1/156
v 0.0975000 0.4664000 0.0800000
v -0.0100000 0.5960000 0.0800000
v 0.0476091 0.5960000 -0.1350000
vn -0.7538156 -0.6252714 -0.2019843
f 469/1/157 470/1/157 471/1/157
v 0.0975000 0.4664000 0.0800000
v 0.0476091 0.5960000 -0.1350000
v 0.1407068 0.4664000 -0.0812500
vn -0.7538156 -0.6252714 -0.2019843
f 472/1/158 473/1/158 474/1/158
v 0.1407068 0.4664000 -0.0812500
v 0.0476091 0.5960000 -0.1350000
v 0.2050000 0.5960000 -0.2923909
vn -0.5518313 -0.6252714 -0.5518313
f 475/1/159 476/1/159 477/1/159
v 0.1407068 0.4664000 -0.0812500
v 0.2050000 0.5960000 -0.2923909
v 0.2587500 0.4664000 -0.1992932
vn -0.5518313 -0.6252714 -0.5518313
f 478/1/160 479/1/160 480/1/160
v 0.2587500 0.4664000 -0.1992932
v 0.2050000 0.5960000 -0.2923909
v 0.4200000 0.5960000 -0.3500000
vn -0.2019843 -0.6252714 -0.7538156
f 481/1/161 482/1/161 483/1/161
v 0.2587500 0.4664000 -0.1992932
v 0.4200000 0.5960000 -0.3500000
v 0.4200000 0.4664000 -0.2425000
vn -0.2019843 -0.6252714 -0.7538156
f 484/1/162 485/1/162 486/1/162
v 0.4200000 0.4664000 -0.2425000
v 0.4200000 0.5960000 -0.3500000
v 0.6350000 0.5960000 -0.2923909
vn 0.2019843 -0.6252714 -0.7538156
f 487/1/163 488/1/163 489/1/163
v 0.4200000 0.4664000 -0.2425000
v 0.6350000 0.5960000 -0.2923909
v 0.5812500 0.4664000 -0.1992932
vn 0.2019843 -0.6252714 -0.7538156
f 490/1/164 491/1/164 492/1/164
v 0.5812500 0.4664000 -0.1992932
v 0.6350000 0.5960000 -0.2923909
v 0.7923909 0.5960000 -0.1350000
vn 0.5518313 -0.6252714 -0.5518313
f 493/1/165 494/1/165 495/1/165
v 0.5812500 0.4664000 -0.1992932
v 0.7923909 0.5960000 -0.1350000
v 0.6992932 0.4664000 -0.0812500
vn 0.5518313 -0.6252714 -0.5518313
f 496/1/166 497/1/166 498/1/166
v 0.6992932 0.4664000 -0.0812500
v 0.7923909 0.5960000 -0.1350000
v 0.8500000 0.5960000 0.0800000
vn 0.7538156 -0.6252714 -0.2019843
f 499/1/167 500/1/167 501/1/167
v 0.6992932 0.4664000 -0.0812500
v 0.8500000 0.5960000 0.0800000
v 0.7425000 0.4664000 0.0800000
vn 0.7538156 -0.6252714 -0.2019843
f 502/1/168 503/1/168 504/1/168
v 0.8500000 0.5960000 0.0800000
v 0.7898000 0.7544000 0.0800000
v 0.7402562 0.7544000 0.2649000
vn 0.9067576 0.3446137 0.2429650
f 505/1/169 506/1/169 507/1/169
v 0.8500000 0.5960000 0.0800000
v 0.7402562 0.7544000 0.2649000
v 0.7923909 0.5960000 0.2950000
vn 0.9067576 0.3446137 0.2429650
f 508/1/170 509/1/170 510/1/170
v 0.7923909 0.5960000 0.2950000
v 0.7402562 0.7544000 0.2649000
v 0.6049000 0.7544000 0.4002562
vn 0.6637927 0.3446137 0.6637927
f 511/1/171 512/1/171 513/1/171
v 0.7923909 0.5960000 0.2950000
v 0.6049000 0.7544000 0.4002562
v 0.6350000 0.5960000 0.4523909
vn 0.6637927 0.3446137 0.6637927
f 514/1/172 515/1/172 516/1/172
v 0.6350000 0.5960000 0.4523909
v 0.6049000 0.7544000 0.4002562
v 0.4200000 0.7544000 0.4498000
vn 0.2429650 0.3446137 0.9067576
f 517/1/173 518/1/173 519/1/173
v 0.6350000 0.5960000 0.4523909
v 0.4200000 0.7544000 0.4498000
v 0.4200000 0.5960000 0.5100000
vn 0.2429650 0.3446137 0.9067576
f 520/1/174 521/1/174 522/1/174
v 0.4200000 0.5960000 0.5100000
v 0.4200000 0.7544000 0.4498000
v 0.2351000 0.7544000 0.4002562
vn -0.2429650 0.3446137 0.9067576
f 523/1/175 524/1/175 525/1/175
v 0.4200000 0.5960000 0.5100000
v 0.2351000 0.7544000 0.4002562
v 0.2050000 0.5960000 0.4523909
vn -0.2429650 0.3446137 0.9067576
f 526/1/176 527/1/176 528/1/176
v 0.2050000 0.5960000 0.4523909
v 0.2351000 0.7544000 0.4002562
v 0.0997438 0.7544000 0.2649000
vn -0.6637927 0.3446137 0.6637927
f 529/1/177 530/1/177 531/1/177
v 0.2050000 0.5960000 0.4523909
v 0.0997438 0.7544000 0.2649000
v 0.0476091 0.5960000 0.2950000
vn -0.6637927 0.3446137 0.6637927
f 532/1/178 533/1/178 534/1/178
v 0.0476091 0.5960000 0.2950000
v 0.0997438 0.7544000 0.2649000
v 0.0502000 0.7544000 0.0800000
vn -0.9067576 0.3446137 0.2429650
f 535/1/179 536/1/179 537/1/179
v 0.0476091 0.5960000 0.2950000
v 0.0502000 0.7544000 0.0800000
v -0.0100000 0.5960000 0.0800000
vn -0.9067576 0.3446137 0.2429650
f 538/1/180 539/1/180 540/1/180
v -0.0100000 0.5960000 0.0800000
v 0.0502000 0.7544000 0.0800000
v 0.0997438 0.7544000 -0.1049000
vn -0.9067576 0.3446137 -0.2429650
f 541/1/181 542/1/181 543/1/181
v -0.0100000 0.5960000 0.0800000
v 0.0997438 0.7544000 -0.1049000
v 0.0476091 0.5960000 -0.1350000
vn -0.9067576 0.3446137 -0.2429650
f 544/1/182 545/1/182 546/1/182
v 0.0476091 0.5960000 -0.1350000
v 0.0997438 0.7544000 -0.1049000
v 0.2351000 0.7544000 -0.2402562
vn -0.6637927 0.3446137 -0.6637927
f 547/1/183 548/1/183 549/1/183
v 0.0476091 0.5960000 -0.1350000
v 0.2351000 0.7544000 -0.2402562
v 0.2050000 0.5960000 -0.2923909
vn -0.6637927 0.3446137 -0.6637927
f 550/1/184 551/1/184 552/1/184
v 0.2050000 0.5960000 -0.2923909
v 0.2351000 0.7544000 -0.2402562
v 0.4200000 0.7544000 -0.2898000
vn -0.2429650 0.3446137 -0.9067576
f 553/1/185 554/1/185 555/1/185
v 0.2050000 0.5960000 -0.2923909
v 0.4200000 0.7544000 -0.2898000
v 0.4200000 0.5960000 -0.3500000
vn -0.2429650 0.3446137 -0.9067576
f 556/1/186 557/1/186 558/1/186
v 0.4200000 0.5960000 -0.3500000
v 0.4200000 0.7544000 -0.2898000
v 0.6049000 0.7544000 -0.2402562
vn 0.2429650 0.3446137 -0.9067576
f 559/1/187 560/1/187 561/1/187
v 0.4200000 0.5960000 -0.3500000
v 0.6049000 0.7544000 -0.2402562
v 0.6350000 0.5960000 -0.2923909
vn 0.2429650 0.3446137 -0.9067576
f 562/1/188 563/1/188 564/1/188
v 0.6350000 0.5960000 -0.2923909
v 0.6049000 0.7544000 -0.2402562
v 0.7402562 0.7544000 -0.1049000
vn 0.6637927 0.3446137 -0.6637927
f 565/1/189 566/1/189 567/1/189
v 0.6350000 0.5960000 -0.2923909
v 0.7402562 0.7544000 -0.1049000
v 0.7923909 0.5960000 -0.1350000
vn 0.6637927 0.3446137 -0.6637927
f 568/1/190 569/1/190 570/1/190
v 0.7923909 0.5960000 -0.1350000
v 0.7402562 0.7544000 -0.1049000
v 0.7898000 0.7544000 0.0800000
vn 0.9067576 0.3446137 -0.2429650
f 571/1/191 572/1/191 573/1/191
v 0.7923909 0.5960000 -0.1350000
v 0.7898000 0.7544000 0.0800000
v 0.8500000 0.5960000 0.0800000
vn 0.9067576 0.3446137 -0.2429650
f 574/1/192 575/1/192 576/1/192
v 0.7898000 0.7544000 0.0800000
v 0.5060000 0.8600000 0.0800000
v 0.4944782 0.8600000 0.1230000
vn 0.3472211 0.9331567 0.0930376
f 577/1/193 578/1/193 579/1/193
v 0.7898000 0.7544000 0.0800000
v 0.4944782 0.8600000 0.1230000
v 0.7402562 0.7544000 0.2649000
vn 0.3472211 0.9331567 0.0930376
f 580/1/194 581/1/194 582/1/194
v 0.7402562 0.7544000 0.2649000
v 0.4944782 0.8600000 0.1230000
v 0.4630000 0.8600000 0.1544782
vn 0.2541835 0.9331567 0.2541835
f 583/1/195 584/1/195 585/1/195
v 0.7402562 0.7544000 0.2649000
v 0.4630000 0.8600000 0.1544782
v 0.6049000 0.7544000 0.4002562
vn 0.2541835 0.9331567 0.2541835
f 586/1/196 587/1/196 588/1/196
v 0.6049000 0.7544000 0.4002562
v 0.4630000 0.8600000 0.1544782
v 0.4200000 0.8600000 0.1660000
vn 0.0930376 0.9331567 0.3472211
f 589/1/197 590/1/197 591/1/197
v 0.6049000 0.7544000 0.4002562
v 0.4200000 0.8600000 0.1660000
v 0.4200000 0.7544000 0.4498000
vn 0.0930376 0.9331567 0.3472211
f 592/1/198 593/1/198 594/1/198
v 0.4200000 0.7544000 0.4498000
v 0.4200000 0.8600000 0.1660000
v 0.3770000 0.8600000 0.1544782
vn -0.0930376 0.9331567 0.3472211
f 595/1/199 596/1/199 597/1/199
v 0.4200000 0.7544000 0.4498000
v 0.3770000 0.8600000 0.1544782
v 0.2351000 0.7544000 0.4002562
vn -0.0930376 0.9331567 0.3472211
f 598/1/200 599/1/200 600/1/200
v 0.2351000 0.7544000 0.4002562
v 0.3770000 0.8600000 0.1544782
v 0.3455218 0.8600000 0.1230000
vn -0.2541835 0.9331567 0.2541835
f 601/1/201 602/1/201 603/1/201
v 0.2351000 0.7544000 0.4002562
v 0.3455218 0.8600000 0.1230000
v 0.0997438 0.7544000 0.2649000
vn -0.2541835 0.9331567 0.2541835
f 604/1/202 605/1/202 606/1/202
v 0.0997438 0.7544000 0.2649000
v 0.3455218 0.8600000 0.1230000
v 0.3340000 0.8600000 0.0800000
vn -0.3472211 0.9331567 0.0930376
f 607/1/203 608/1/203 609/1/203
v 0.0997438 0.7544000 0.2649000
v 0.3340000 0.8600000 0.0800000
v 0.0502000 0.7544000 0.0800000
vn -0.3472211 0.9331567 0.0930376
f 610/1/204 611/1/204 612/1/204
v 0.0502000 0.7544000 0.0800000
v 0.3340000 0.8600000 0.0800000
v 0.3455218 0.8600000 0.0370000
vn -0.3472211 0.9331567 -0.0930376
f 613/1/205 614/1/205 615/1/205
v 0.0502000 0.7544000 0.0800000
v 0.3455218 0.8600000 0.0370000
v 0.0997438 0.7544000 -0.1049000
vn -0.3472211 0.9331567 -0.0930376
f 616/1/206 617/1/206 618/1/206
v 0.0997438 0.7544000 -0.1049000
v 0.3455218 0.8600000 0.0370000
v 0.3770000 0.8600000 0.0055218
vn -0.2541835 0.9331567 -0.2541835
f 619/1/207 620/1/207 621/1/207
v 0.0997438 0.7544000 -0.1049000
v 0.3770000 0.8600000 0.0055218
v 0.2351000 0.7544000 -0.2402562
vn -0.2541835 0.9331567 -0.2541835
f 622/1/208 623/1/208 624/1/208
v 0.2351000 0.7544000 -0.2402562
v 0.3770000 0.8600000 0.0055218
v 0.4200000 0.8600000 -0.0060000
vn -0.0930376 0.9331567 -0.3472211
f 625/1/209 626/1/209 627/1/209
v 0.2351000 0.7544000 -0.2402562
v 0.4200000 0.8600000 -0.0060000
v 0.4200000 0.7544000 -0.2898000
vn -0.0930376 0.9331567 -0.3472211
f 628/1/210 629/1/210 630/1/210
v 0.4200000 0.7544000 -0.2898000
v 0.4200000 0.8600000 -0.0060000
v 0.4630000 0.8600000 0.0055218
vn 0.0930376 0.9331567 -0.3472211
f 631/1/211 632/1/211 633/1/211
v 0.4200000 0.7544000 -0.2898000
v 0.4630000 0.8600000 0.0055218
v 0.6049000 0.7544000 -0.2402562
vn 0.0930376 0.9331567 -0.3472211
f 634/1/212 635/1/212 636/1/212
v 0.6049000 0.7544000 -0.2402562
v 0.4630000 0.8600000 0.0055218
v 0.4944782 0.8600000 0.0370000
vn 0.2541835 0.9331567 -0.2541835
f 637/1/213 638/1/213 639/1/213
v 0.6049000 0.7544000 -0.2402562
v 0.4944782 0.8600000 0.0370000
v 0.7402562 0.7544000 -0.1049000
vn 0.2541835 0.9331567 -0.2541835
f 640/1/214 641/1/214 642/1/214
v 0.7402562 0.7544000 -0.1049000
v 0.4944782 0.8600000 0.0370000
v 0.5060000 0.8600000 0.0800000
vn 0.3472211 0.9331567 -0.0930376
f 643/1/215 644/1/215 645/1/215
v 0.7402562 0.7544000 -0.1049000
v 0.5060000 0.8600000 0.0800000
v 0.7898000 0.7544000 0.0800000
vn 0.3472211 0.9331567 -0.0930376
f 646/1/216 647/1/216 648/1/216
v 0.4200000 0.3800000 0.0800000
v 0.4845000 0.3800000 0.0800000
v 0.4758586 0.3800000 0.1122500
vn 0.0000000 -1.0000000 0.0000000
f 649/1/217 650/1/217 651/1/217
v 0.4200000 0.8600000 0.0800000
v 0.4944782 0.8600000 0.1230000
v 0.5060000 0.8600000 0.0800000
vn 0.0000000 1.0000000 0.0000000
f 652/1/218 653/1/218 654/1/218
v 0.4200000 0.3800000 0.0800000
v 0.4758586 0.3800000 0.1122500
v 0.4522500 0.3800000 0.1358586
vn 0.0000000 -1.0000000 0.0000000
f 655/1/219 656/1/219 657/1/219
v 0.4200000 0.8600000 0.0800000
v 0.4630000 0.8600000 0.1544782
v 0.4944782 0.8600000 0.1230000
vn 0.0000000 1.0000000 0.0000000
f 658/1/220 659/1/220 660/1/220
v 0.4200000 0.3800000 0.0800000
v 0.4522500 0.3800000 0.1358586
v 0.4200000 0.3800000 0.1445000
vn 0.0000000 -1.0000000 0.0000000
f 661/1/221 662/1/221 663/1/221
v 0.4200000 0.8600000 0.0800000
v 0.4200000 0.8600000 0.1660000
v 0.4630000 0.8600000 0.1544782
vn 0.0000000 1.0000000 0.0000000
f 664/1/222 665/1/222 666/1/222
v 0.4200000 0.3800000 0.0800000
v 0.4200000 0.3800000 0.1445000
v 0.3877500 0.3800000 0.1358586
vn 0.0000000 -1.0000000 0.0000000
f 667/1/223 668/1/223 669/1/223
v 0.4200000 0.8600000 0.0800000
v 0.3770000 0.8600000 0.1544782
v 0.4200000 0.8600000 0.1660000
vn 0.0000000 1.0000000 -0.0000000
f 670/1/224 671/1/224 672/1/224
v 0.4200000 0.3800000 0.0800000
v 0.3877500 0.3800000 0.1358586
v 0.3641414 0.3800000 0.1122500
vn 0.0000000 -1.0000000 0.0000000
f 673/1/225 674/1/225 675/1/225
v 0.4200000 0.8600000 0.0800000
v 0.3455218 0.8600000 0.1230000
v 0.3770000 0.8600000 0.1544782
vn 0.0000000 1.0000000 0.0000000
f 676/1/226 677/1/226 678/1/226
v 0.4200000 0.3800000 0.0800000
v 0.3641414 0.3800000 0.1122500
v 0.3555000 0.3800000 0.0800000
vn 0.0000000 -1.0000000 0.0000000
f 679/1/227 680/1/227 681/1/227
v 0.4200000 0.8600000 0.0800000
v 0.3340000 0.8600000 0.0800000
v 0.3455218 0.8600000 0.1230000
vn 0.0000000 1.0000000 0.0000000
f 682/1/228 683/1/228 684/1/228
v 0.4200000 0.3800000 0.0800000
v 0.3555000 0.3800000 0.0800000
v 0.3641414 0.3800000 0.0477500
vn -0.0000000 -1.0000000 0.0000000
f 685/1/229 686/1/229 687/1/229
v 0.4200000 0.8600000 0.0800000
v 0.3455218 0.8600000 0.0370000
v 0.3340000 0.8600000 0.0800000
vn 0.0000000 1.0000000 0.0000000
f 688/1/230 689/1/230 690/1/230
v 0.4200000 0.3800000 0.0800000
v 0.3641414 0.3800000 0.0477500
v 0.3877500 0.3800000 0.0241414
vn 0.0000000 -1.0000000 0.0000000
f 691/1/231 692/1/231 693/1/231
v 0.4200000 0.8600000 0.0800000
v 0.3770000 0.8600000 0.0055218
v 0.3455218 0.8600000 0.0370000
vn 0.0000000 1.0000000 0.0000000
f 694/1/232 695/1/232 696/1/232
v 0.4200000 0.3800000 0.0800000
v 0.3877500 0.3800000 0.0241414
v 0.4200000 0.3800000 0.0155000
vn 0.0000000 -1.0000000 -0.0000000
f 697/1/233 698/1/233 699/1/233
v 0.4200000 0.8600000 0.0800000
v 0.4200000 0.8600000 -0.0060000
v 0.3770000 0.8600000 0.0055218
vn 0.0000000 1.0000000 0.0000000
f 700/1/234 701/1/234 702/1/234
v 0.4200000 0.3800000 0.0800000
v 0.4200000 0.3800000 0.0155000
v 0.4522500 0.3800000 0.0241414
vn 0.0000000 -1.0000000 0.0000000
f 703/1/235 704/1/235 705/1/235
v 0.4200000 0.8600000 0.0800000
v 0.4630000 0.8600000 0.0055218
v 0.4200000 0.8600000 -0.0060000
vn 0.0000000 1.0000000 0.0000000
f 706/1/236 707/1/236 708/1/236
v 0.4200000 0.3800000 0.0800000
v 0.4522500 0.3800000 0.0241414
v 0.4758586 0.3800000 0.0477500
vn 0.0000000 -1.0000000 0.0000000
f 709/1/237 710/1/237 711/1/237
v 0.4200000 0.8600000 0.0800000
v 0.4944782 0.8600000 0.0370000
v 0.4630000 0.8600000 0.0055218
vn 0.0000000 1.0000000 0.0000000
f 712/1/238 713/1/238 714/1/238
v 0.4200000 0.3800000 0.0800000
v 0.4758586 0.3800000 0.0477500
v 0.4845000 0.3800000 0.0800000
vn 0.0000000 -1.0000000 0.0000000
f 715/1/239 716/1/239 717/1/239
v 0.4200000 0.8600000 0.0800000
v 0.5060000 0.8600000 0.0800000
v 0.4944782 0.8600000 0.0370000
vn -0.0000000 1.0000000 0.0000000
f 718/1/240 719/1/240 720/1/240
v 0.0570000 0.0000000 -0.3200000
v 0.2850000 0.0810000 -0.3200000
v 0.2468172 0.0810000 -0.1775000
vn 0.3334263 -0.9385334 0.0893413
f 721/1/241 722/1/241 723/1/241
v 0.0570000 0.0000000 -0.3200000
v 0.2468172 0.0810000 -0.1775000
v 0.0493634 0.0000000 -0.2915000
vn 0.3334263 -0.9385334 0.0893413
f 724/1/242 725/1/242 726/1/242
v 0.0493634 0.0000000 -0.2915000
v 0.2468172 0.0810000 -0.1775000
v 0.1425000 0.0810000 -0.0731828
vn 0.2440850 -0.9385334 0.2440850
f 727/1/243 728/1/243 729/1/243
v 0.0493634 0.0000000 -0.2915000
v 0.1425000 0.0810000 -0.0731828
v 0.0285000 0.0000000 -0.2706366
vn 0.2440850 -0.9385334 0.2440850
f 730/1/244 731/1/244 732/1/244
v 0.0285000 0.0000000 -0.2706366
v 0.1425000 0.0810000 -0.0731828
v 0.0000000 0.0810000 -0.0350000
vn 0.0893413 -0.9385334 0.3334263
f 733/1/245 734/1/245 735/1/245
v 0.0285000 0.0000000 -0.2706366
v 0.0000000 0.0810000 -0.0350000
v 0.0000000 0.0000000 -0.2630000
vn 0.0893413 -0.9385334 0.3334263
f 736/1/246 737/1/246 738/1/246
v 0.0000000 0.0000000 -0.2630000
v 0.0000000 0.0810000 -0.0350000
v -0.1425000 0.0810000 -0.0731828
vn -0.0893413 -0.9385334 0.3334263
f 739/1/247 740/1/247 741/1/247
v 0.0000000 0.0000000 -0.2630000
v -0.1425000 0.0810000 -0.0731828
v -0.0285000 0.0000000 -0.2706366
vn -0.0893413 -0.9385334 0.3334263
f 742/1/248 743/1/248 744/1/248
v -0.0285000 0.0000000 -0.2706366
v -0.1425000 0.0810000 -0.0731828
v -0.2468172 0.0810000 -0.1775000
vn -0.2440850 -0.9385334 0.2440850
f 745/1/249 746/1/249 747/1/249
v -0.0285000 0.0000000 -0.2706366
v -0.2468172 0.0810000 -0.1775000
v -0.0493634 0.0000000 -0.2915000
vn -0.2440850 -0.9385334 0.2440850
f 748/1/250 749/1/250 750/1/250
v -0.0493634 0.0000000 -0.2915000
v -0.2468172 0.0810000 -0.1775000
v -0.2850000 0.0810000 -0.3200000
vn -0.3334263 -0.9385334 0.0893413
f 751/1/251 752/1/251 753/1/251
v -0.0493634 0.0000000 -0.2915000
v -0.2850000 0.0810000 -0.3200000
v -0.0570000 0.0000000 -0.3200000
vn -0.3334263 -0.9385334 0.0893413
f 754/1/252 755/1/252 756/1/252
v -0.0570000 0.0000000 -0.3200000
v -0.2850000 0.0810000 -0.3200000
v -0.2468172 0.0810000 -0.4625000
vn -0.3334263 -0.9385334 -0.0893413
f 757/1/253 758/1/253 759/1/253
v -0.0570000 0.0000000 -0.3200000
v -0.2468172 0.0810000 -0.4625000
v -0.0493634 0.0000000 -0.3485000
vn -0.3334263 -0.9385334 -0.0893413
f 760/1/254 761/1/254 762/1/254
v -0.0493634 0.0000000 -0.3485000
v -0.2468172 0.0810000 -0.4625000
v -0.1425000 0.0810000 -0.5668172
vn -0.2440850 -0.9385334 -0.2440850
f 763/1/255 764/1/255 765/1/255
v -0.0493634 0.0000000 -0.3485000
v -0.1425000 0.0810000 -0.5668172
v -0.0285000 0.0000000 -0.3693634
vn -0.2440850 -0.9385334 -0.2440850
f 766/1/256 767/1/256 768/1/256
v -0.0285000 0.0000000 -0.3693634
v -0.1425000 0.0810000 -0.5668172
v -0.0000000 0.0810000 -0.6050000
vn -0.0893413 -0.9385334 -0.3334263
f 769/1/257 770/1/257 771/1/257
v -0.0285000 0.0000000 -0.3693634
v -0.0000000 0.0810000 -0.6050000
v -0.0000000 0.0000000 -0.3770000
vn -0.0893413 -0.9385334 -0.3334263
f 772/1/258 773/1/258 774/1/258
v -0.0000000 0.0000000 -0.3770000
v -0.0000000 0.0810000 -0.6050000
v 0.1425000 0.0810000 -0.5668172
vn 0.0893413 -0.9385334 -0.3334263
f 775/1/259 776/1/259 777/1/259
v -0.0000000 0.0000000 -0.3770000
v 0.1425000 0.0810000 -0.5668172
v 0.0285000 0.0000000 -0.3693634
vn 0.0893413 -0.9385334 -0.3334263
f 778/1/260 779/1/260 780/1/260
v 0.0285000 0.0000000 -0.3693634
v 0.1425000 0.0810000 -0.5668172
v 0.2468172 0.0810000 -0.4625000
vn 0.2440850 -0.9385334 -0.2440850
f 781/1/261 782/1/261 783/1/261
v 0.0285000 0.0000000 -0.3693634
v 0.2468172 0.0810000 -0.4625000
v 0.0493634 0.0000000 -0.3485000
vn 0.2440850 -0.9385334 -0.2440850
f 784/1/262 785/1/262 786/1/262
v 0.0493634 0.0000000 -0.3485000
v 0.2468172 0.0810000 -0.4625000
v 0.2850000 0.0810000 -0.3200000
vn 0.3334263 -0.9385334 -0.0893413
f 787/1/263 788/1/263 789/1/263
v 0.0493634 0.0000000 -0.3485000
v 0.2850000 0.0810000 -0.3200000
v 0.0570000 0.0000000 -0.3200000
vn 0.3334263 -0.9385334 -0.0893413
f 790/1/264 791/1/264 792/1/264
v 0.2850000 0.0810000 -0.3200000
v 0.3800000 0.2025000 -0.3200000
v 0.3290897 0.2025000 -0.1300000
vn 0.7707937 -0.6026782 0.2065335
f 793/1/265 794/1/265 795/1/265
v 0.2850000 0.0810000 -0.3200000
v 0.3290897 0.2025000 -0.1300000
v 0.2468172 0.0810000 -0.1775000
vn 0.7707937 -0.6026782 0.2065335
f 796/1/266 797/1/266 798/1/266
v 0.2468172 0.0810000 -0.1775000
v 0.3290897 0.2025000 -0.1300000
v 0.1900000 0.2025000 0.0090897
vn 0.5642601 -0.6026782 0.5642601
f 799/1/267 800/1/267 801/1/267
v 0.2468172 0.0810000 -0.1775000
v 0.1900000 0.2025000 0.0090897
v 0.1425000 0.0810000 -0.0731828
vn 0.5642601 -0.6026782 0.5642601
f 802/1/268 803/1/268 804/1/268
v 0.1425000 0.0810000 -0.0731828
v 0.1900000 0.2025000 0.0090897
v 0.0000000 0.2025000 0.0600000
vn 0.2065335 -0.6026782 0.7707937
f 805/1/269 806/1/269 807/1/269
v 0.1425000 0.0810000 -0.0731828
v 0.0000000 0.2025000 0.0600000
v 0.0000000 0.0810000 -0.0350000
vn 0.2065335 -0.6026782 0.7707937
f 808/1/270 809/1/270 810/1/270
v 0.0000000 0.0810000 -0.0350000
v 0.0000000 0.2025000 0.0600000
v -0.1900000 0.2025000 0.0090897
vn -0.2065335 -0.6026782 0.7707937
f 811/1/271 812/1/271 813/1/271
v 0.0000000 0.0810000 -0.0350000
v -0.1900000 0.2025000 0.0090897
v -0.1425000 0.0810000 -0.0731828
vn -0.2065335 -0.6026782 0.7707937
f 814/1/272 815/1/272 816/1/272
v -0.1425000 0.0810000 -0.0731828
v -0.1900000 0.2025000 0.0090897
v -0.3290897 0.2025000 -0.1300000
vn -0.5642601 -0.6026782 0.5642601
f 817/1/273 818/1/273 819/1/273
v -0.1425000 0.0810000 -0.0731828
v -0.3290897 0.2025000 -0.1300000
v -0.2468172 0.0810000 -0.1775000
vn -0.5642601 -0.6026782 0.5642601
f 820/1/274 821/1/274 822/1/274
v -0.2468172 0.0810000 -0.1775000
v -0.3290897 0.2025000 -0.1300000
v -0.3800000 0.2025000 -0.3200000
vn -0.7707937 -0.6026782 0.2065335
f 823/1/275 824/1/275 825/1/275
v -0.2468172 0.0810000 -0.1775000
v -0.3800000 0.2025000 -0.3200000
v -0.2850000 0.0810000 -0.3200000
vn -0.7707937 -0.6026782 0.2065335
f 826/1/276 827/1/276 828/1/276
v -0.2850000 0.0810000 -0.3200000
v -0.3800000 0.2025000 -0.3200000
v -0.3290897 0.2025000 -0.5100000
vn -0.7707937 -0.6026782 -0.2065335
f 829/1/277 830/1/277 831/1/277
v -0.2850000 0.0810000 -0.3200000
v -0.3290897 0.2025000 -0.5100000
v -0.2468172 0.0810000 -0.4625000
vn -0.7707937 -0.6026782 -0.2065335
f 832/1/278 833/1/278 834/1/278
v -0.2468172 0.0810000 -0.4625000
v -0.3290897 0.2025000 -0.5100000
v -0.1900000 0.2025000 -0.6490897
vn -0.5642601 -0.6026782 -0.5642601
f 835/1/279 836/1/279 837/1/279
v -0.2468172 0.0810000 -0.4625000
v -0.1900000 0.2025000 -0.6490897
v -0.1425000 0.0810000 -0.5668172
vn -0.5642601 -0.6026782 -0.5642601
f 838/1/280 839/1/280 840/1/280
v -0.1425000 0.0810000 -0.5668172
v -0.1900000 0.2025000 -0.6490897
v -0.0000000 0.2025000 -0.7000000
vn -0.2065335 -0.6026782 -0.7707937
f 841/1/281 842/1/281 843/1/281
v -0.1425000 0.0810000 -0.5668172
v -0.0000000 0.2025000 -0.7000000
v -0.0000000 0.0810000 -0.6050000
vn -0.2065335 -0.6026782 -0.7707937
f 844/1/282 845/1/282 846/1/282
v -0.0000000 0.0810000 -0.6050000
v -0.0000000 0.2025000 -0.7000000
v 0.1900000 0.2025000 -0.6490897
vn 0.2065335 -0.6026782 -0.7707937
f 847/1/283 848/1/283 849/1/283
v -0.0000000 0.0810000 -0.6050000
v 0.1900000 0.2025000 -0.6490897
v 0.1425000 0.0810000 -0.5668172
vn 0.2065335 -0.6026782 -0.7707937
f 850/1/284 851/1/284 852/1/284
v 0.1425000 0.0810000 -0.5668172
v 0.1900000 0.2025000 -0.6490897
v 0.3290897 0.2025000 -0.5100000
vn 0.5642601 -0.6026782 -0.5642601
f 853/1/285 854/1/285 855/1/285
v 0.1425000 0.0810000 -0.5668172
v 0.3290897 0.2025000 -0.5100000
v 0.2468172 0.0810000 -0.4625000
vn 0.5642601 -0.6026782 -0.5642601
f 856/1/286 857/1/286 858/1/286
v 0.2468172 0.0810000 -0.4625000
v 0.3290897 0.2025000 -0.5100000
v 0.3800000 0.2025000 -0.3200000
vn 0.7707937 -0.6026782 -0.2065335
f 859/1/287 860/1/287 861/1/287
v 0.2468172 0.0810000 -0.4625000
v 0.3800000 0.2025000 -0.3200000
v 0.2850000 0.0810000 -0.3200000
vn 0.7707937 -0.6026782 -0.2065335
f 862/1/288 863/1/288 864/1/288
v 0.3800000 0.2025000 -0.3200000
v 0.3268000 0.3510000 -0.3200000
v 0.2830171 0.3510000 -0.1566000
vn 0.9128180 0.3270163 0.2445888
f 865/1/289 866/1/289 867/1/289
v 0.3800000 0.2025000 -0.3200000
v 0.2830171 0.3510000 -0.1566000
v 0.3290897 0.2025000 -0.1300000
vn 0.9128180 0.3270163 0.2445888
f 868/1/290 869/1/290 870/1/290
v 0.3290897 0.2025000 -0.1300000
v 0.2830171 0.3510000 -0.1566000
v 0.1634000 0.3510000 -0.0369829
vn 0.6682291 0.3270163 0.6682291
f 871/1/291 872/1/291 873/1/291
v 0.3290897 0.2025000 -0.1300000
v 0.1634000 0.3510000 -0.0369829
v 0.1900000 0.2025000 0.0090897
vn 0.6682291 0.3270163 0.6682291
f 874/1/292 875/1/292 876/1/292
v 0.1900000 0.2025000 0.0090897
v 0.1634000 0.3510000 -0.0369829
v 0.0000000 0.3510000 0.0068000
vn 0.2445888 0.3270163 0.9128180
f 877/1/293 878/1/293 879/1/293
v 0.1900000 0.2025000 0.0090897
v 0.0000000 0.3510000 0.0068000
v 0.0000000 0.2025000 0.0600000
vn 0.2445888 0.3270163 0.9128180
f 880/1/294 881/1/294 882/1/294
v 0.0000000 0.2025000 0.0600000
v 0.0000000 0.3510000 0.0068000
v -0.1634000 0.3510000 -0.0369829
vn -0.2445888 0.3270163 0.9128180
f 883/1/295 884/1/295 885/1/295
v 0.0000000 0.2025000 0.0600000
v -0.1634000 0.3510000 -0.0369829
v -0.1900000 0.2025000 0.0090897
vn -0.2445888 0.3270163 0.9128180
f 886/1/296 887/1/296 888/1/296
v -0.1900000 0.2025000 0.0090897
v -0.1634000 0.3510000 -0.0369829
v -0.2830171 0.3510000 -0.1566000
vn -0.6682291 0.3270163 0.6682291
f 889/1/297 890/1/297 891/1/297
v -0.1900000 0.2025000 0.0090897
v -0.2830171 0.3510000 -0.1566000
v -0.3290897 0.2025000 -0.1300000
vn -0.6682291 0.3270163 0.6682291
f 892/1/298 893/1/298 894/1/298
v -0.3290897 0.2025000 -0.1300000
v -0.2830171 0.3510000 -0.1566000
v -0.3268000 0.3510000 -0.3200000
vn -0.9128180 0.3270163 0.2445888
f 895/1/299 896/1/299 897/1/299
v -0.3290897 0.2025000 -0.1300000
v -0.3268000 0.3510000 -0.3200000
v -0.3800000 0.2025000 -0.3200000
vn -0.9128180 0.3270163 0.2445888
f 898/1/300 899/1/300 900/1/300
v -0.3800000 0.2025000 -0.3200000
v -0.3268000 0.3510000 -0.3200000
v -0.2830171 0.3510000 -0.4834000
vn -0.9128180 0.3270163 -0.2445888
f 901/1/301 902/1/301 903/1/301
v -0.3800000 0.2025000 -0.3200000
v -0.2830171 0.3510000 -0.4834000
v -0.3290897 0.2025000 -0.5100000
vn -0.9128180 0.3270163 -0.2445888
f 904/1/302 905/1/302 906/1/302
v -0.3290897 0.2025000 -0.5100000
v -0.2830171 0.3510000 -0.4834000
v -0.1634000 0.3510000 -0.6030171
vn -0.6682291 0.3270163 -0.6682291
f 907/1/303 908/1/303 909/1/303
v -0.3290897 0.2025000 -0.5100000
v -0.1634000 0.3510000 -0.6030171
v -0.1900000 0.2025000 -0.6490897
vn -0.6682291 0.3270163 -0.6682291
f 910/1/304 911/1/304 912/1/304
v -0.1900000 0.2025000 -0.6490897
v -0.1634000 0.3510000 -0.6030171
v -0.0000000 0.3510000 -0.6468000
vn -0.2445888 0.3270163 -0.9128180
f 913/1/305 914/1/305 915/1/305
v -0.1900000 0.2025000 -0.6490897
v -0.0000000 0.3510000 -0.6468000
v -0.0000000 0.2025000 -0.7000000
vn -0.2445888 0.3270163 -0.9128180
f 916/1/306 917/1/306 918/1/306
v -0.0000000 0.2025000 -0.7000000
v -0.0000000 0.3510000 -0.6468000
v 0.1634000 0.3510000 -0.6030171
vn 0.2445888 0.3270163 -0.9128180
f 919/1/307 920/1/307 921/1/307
v -0.0000000 0.2025000 -0.7000000
v 0.1634000 0.3510000 -0.6030171
v 0.1900000 0.2025000 -0.6490897
vn 0.2445888 0.3270163 -0.9128180
f 922/1/308 923/1/308 924/1/308
v 0.1900000 0.2025000 -0.6490897
v 0.1634000 0.3510000 -0.6030171
v 0.2830171 0.3510000 -0.4834000
vn 0.6682291 0.3270163 -0.6682291
f 925/1/309 926/1/309 927/1/309
v 0.1900000 0.2025000 -0.6490897
v 0.2830171 0.3510000 -0.4834000
v 0.3290897 0.2025000 -0.5100000
vn 0.6682291 0.3270163 -0.6682291
f 928/1/310 929/1/310 930/1/310
v 0.3290897 0.2025000 -0.5100000
v 0.2830171 0.3510000 -0.4834000
v 0.3268000 0.3510000 -0.3200000
vn 0.9128180 0.3270163 -0.2445888
f 931/1/311 932/1/311 933/1/311
v 0.3290897 0.2025000 -0.5100000
v 0.3268000 0.3510000 -0.3200000
v 0.3800000 0.2025000 -0.3200000
vn 0.9128180 0.3270163 -0.2445888
f 934/1/312 935/1/312 936/1/312
v 0.3268000 0.3510000 -0.3200000
v 0.0760000 0.4500000 -0.3200000
v 0.0658179 0.4500000 -0.2820000
vn 0.3654024 0.9256861 0.0979093
f 937/1/313 938/1/313 939/1/313
v 0.3268000 0.3510000 -0.3200000
v 0.0658179 0.4500000 -0.2820000
v 0.2830171 0.3510000 -0.1566000
vn 0.3654024 0.9256861 0.0979093
f 940/1/314 941/1/314 942/1/314
v 0.2830171 0.3510000 -0.1566000
v 0.0658179 0.4500000 -0.2820000
v 0.0380000 0.4500000 -0.2541821
vn 0.2674931 0.9256861 0.2674931
f 943/1/315 944/1/315 945/1/315
v 0.2830171 0.3510000 -0.1566000
v 0.0380000 0.4500000 -0.2541821
v 0.1634000 0.3510000 -0.0369829
vn 0.2674931 0.9256861 0.2674931
f 946/1/316 947/1/316 948/1/316
v 0.1634000 0.3510000 -0.0369829
v 0.0380000 0.4500000 -0.2541821
v 0.0000000 0.4500000 -0.2440000
vn 0.0979093 0.9256861 0.3654024
f 949/1/317 950/1/317 951/1/317
v 0.1634000 0.3510000 -0.0369829
v 0.0000000 0.4500000 -0.2440000
v 0.0000000 0.3510000 0.0068000
vn 0.0979093 0.9256861 0.3654024
f 952/1/318 953/1/318 954/1/318
v 0.0000000 0.3510000 0.0068000
v 0.0000000 0.4500000 -0.2440000
v -0.0380000 0.4500000 -0.2541821
vn -0.0979093 0.9256861 0.3654024
f 955/1/319 956/1/319 957/1/319
v 0.0000000 0.3510000 0.0068000
v -0.0380000 0.4500000 -0.2541821
v -0.1634000 0.3510000 -0.0369829
vn -0.0979093 0.9256861 0.3654024
f 958/1/320 959/1/320 960/1/320
v -0.1634000 0.3510000 -0.0369829
v -0.0380000 0.4500000 -0.2541821
v -0.0658179 0.4500000 -0.2820000
vn -0.2674931 0.9256861 0.2674931
f 961/1/321 962/1/321 963/1/321
v -0.1634000 0.3510000 -0.0369829
v -0.0658179 0.4500000 -0.2820000
v -0.2830171 0.3510000 -0.1566000
vn -0.2674931 0.9256861 0.2674931
f 964/1/322 965/1/322 966/1/322
v -0.2830171 0.3510000 -0.1566000
v -0.0658179 0.4500000 -0.2820000
v -0.0760000 0.4500000 -0.3200000
vn -0.3654024 0.9256861 0.0979093
f 967/1/323 968/1/323 969/1/323
v -0.2830171 0.3510000 -0.1566000
v -0.0760000 0.4500000 -0.3200000
v -0.3268000 0.3510000 -0.3200000
vn -0.3654024 0.9256861 0.0979093
f 970/1/324 971/1/324 972/1/324
v -0.3268000 0.3510000 -0.3200000
v -0.0760000 0.4500000 -0.3200000
v -0.0658179 0.4500000 -0.3580000
vn -0.3654024 0.9256861 -0.0979093
f 973/1/325 974/1/325 975/1/325
v -0.3268000 0.3510000 -0.3200000
v -0.0658179 0.4500000 -0.3580000
v -0.2830171 0.3510000 -0.4834000
vn -0.3654024 0.9256861 -0.0979093
f 976/1/326 977/1/326 978/1/326
v -0.2830171 0.3510000 -0.4834000
v -0.0658179 0.4500000 -0.3580000
v -0.0380000 0.4500000 -0.3858179
vn -0.2674931 0.9256861 -0.2674931
f 979/1/327 980/1/327 981/1/327
v -0.2830171 0.3510000 -0.4834000
v -0.0380000 0.4500000 -0.3858179
v -0.1634000 0.3510000 -0.6030171
vn -0.2674931 0.9256861 -0.2674931
f 982/1/328 983/1/328 984/1/328
v -0.1634000 0.3510000 -0.6030171
v -0.0380000 0.4500000 -0.3858179
v -0.0000000 0.4500000 -0.3960000
vn -0.0979093 0.9256861 -0.3654024
f 985/1/329 986/1/329 987/1/329
v -0.1634000 0.3510000 -0.6030171
v -0.0000000 0.4500000 -0.3960000
v -0.0000000 0.3510000 -0.6468000
vn -0.0979093 0.9256861 -0.3654024
f 988/1/330 989/1/330 990/1/330
v -0.0000000 0.3510000 -0.6468000
v -0.0000000 0.4500000 -0.3960000
v 0.0380000 0.4500000 -0.3858179
vn 0.0979093 0.9256861 -0.3654024
f 991/1/331 992/1/331 993/1/331
v -0.0000000 0.3510000 -0.6468000
v 0.0380000 0.4500000 -0.3858179
v 0.1634000 0.3510000 -0.6030171
vn 0.0979093 0.9256861 -0.3654024
f 994/1/332 995/1/332 996/1/332
v 0.1634000 0.3510000 -0.6030171
v 0.0380000 0.4500000 -0.3858179
v 0.0658179 0.4500000 -0.3580000
vn 0.2674931 0.9256861 -0.2674931
f 997/1/333 998/1/333 999/1/333
v 0.1634000 0.3510000 -0.6030171
v 0.0658179 0.4500000 -0.3580000
v 0.2830171 0.3510000 -0.4834000
vn 0.2674931 0.9256861 -0.2674931
f 1000/1/334 1001/1/334 1002/1/334
v 0.2830171 0.3510000 -0.4834000
v 0.0658179 0.4500000 -0.3580000
v 0.0760000 0.4500000 -0.3200000
vn 0.3654024 0.9256861 -0.0979093
f 1003/1/335 1004/1/335 1005/1/335
v 0.2830171 0.3510000 -0.4834000
v 0.0760000 0.4500000 -0.3200000
v 0.3268000 0.3510000 -0.3200000
vn 0.3654024 0.9256861 -0.0979093
f 1006/1/336 1007/1/336 1008/1/336
v 0.0000000 0.0000000 -0.3200000
v 0.0570000 0.0000000 -0.3200000
v 0.0493634 0.0000000 -0.2915000
vn 0.0000000 -1.0000000 0.0000000
f 1009/1/337 1010/1/337 1011/1/337
v 0.0000000 0.4500000 -0.3200000
v 0.0658179 0.4500000 -0.2820000
v 0.0760000 0.4500000 -0.3200000
vn 0.0000000 1.0000000 0.0000000
f 1012/1/338 1013/1/338 1014/1/338
v 0.0000000 0.0000000 -0.3200000
v 0.0493634 0.0000000 -0.2915000
v 0.0285000 0.0000000 -0.2706366
vn 0.0000000 -1.0000000 0.0000000
f 1015/1/339 1016/1/339 1017/1/339
v 0.0000000 0.4500000 -0.3200000
v 0.0380000 0.4500000 -0.2541821
v 0.0658179 0.4500000 -0.2820000
vn 0.0000000 1.0000000 0.0000000
f 1018/1/340 1019/1/340 1020/1/340
v 0.0000000 0.0000000 -0.3200000
v 0.0285000 0.0000000 -0.2706366
v 0.0000000 0.0000000 -0.2630000
vn 0.0000000 -1.0000000 0.0000000
f 1021/1/341 1022/1/341 1023/1/341
v 0.0000000 0.4500000 -0.3200000
v 0.0000000 0.4500000 -0.2440000
v 0.0380000 0.4500000 -0.2541821
vn 0.0000000 1.0000000 0.0000000
f 1024/1/342 1025/1/342 1026/1/342
v 0.0000000 0.0000000 -0.3200000
v 0.0000000 0.0000000 -0.2630000
v -0.0285000 0.0000000 -0.2706366
vn 0.0000000 -1.0000000 0.0000000
f 1027/1/343 1028/1/343 1029/1/343
v 0.0000000 0.4500000 -0.3200000
v -0.0380000 0.4500000 -0.2541821
v 0.0000000 0.4500000 -0.2440000
vn 0.0000000 1.0000000 -0.0000000
f 1030/1/344 1031/1/344 1032/1/344
v 0.0000000 0.0000000 -0.3200000
v -0.0285000 0.0000000 -0.2706366
v -0.0493634 0.0000000 -0.2915000
vn 0.0000000 -1.0000000 0.0000000
f 1033/1/345 1034/1/345 1035/1/345
v 0.0000000 0.4500000 -0.3200000
v -0.0658179 0.4500000 -0.2820000
v -0.0380000 0.4500000 -0.2541821
vn 0.0000000 1.0000000 0.0000000
f 1036/1/346 1037/1/346 1038/1/346
v 0.0000000 0.0000000 -0.3200000
v -0.0493634 0.0000000 -0.2915000
v -0.0570000 0.0000000 -0.3200000
vn 0.0000000 -1.0000000 0.0000000
f 1039/1/347 1040/1/347 1041/1/347
v 0.0000000 0.4500000 -0.3200000
v -0.0760000 0.4500000 -0.3200000
v -0.0658179 0.4500000 -0.2820000
vn 0.0000000 1.0000000 0.0000000
f 1042/1/348 1043/1/348 1044/1/348
v 0.0000000 0.0000000 -0.3200000
v -0.0570000 0.0000000 -0.3200000
v -0.0493634 0.0000000 -0.3485000
vn -0.0000000 -1.0000000 0.0000000
f 1045/1/349 1046/1/349 1047/1/349
v 0.0000000 0.4500000 -0.3200000
v -0.0658179 0.4500000 -0.3580000
v -0.0760000 0.4500000 -0.3200000
vn 0.0000000 1.0000000 0.0000000
f 1048/1/350 1049/1/350 1050/1/350
v 0.0000000 0.0000000 -0.3200000
v -0.0493634 0.0000000 -0.3485000
v -0.0285000 0.0000000 -0.3693634
vn 0.0000000 -1.0000000 0.0000000
f 1051/1/351 1052/1/351 1053/1/351
v 0.0000000 0.4500000 -0.3200000
v -0.0380000 0.4500000 -0.3858179
v -0.0658179 0.4500000 -0.3580000
vn 0.0000000 1.0000000 0.0000000
f 1054/1/352 1055/1/352 1056/1/352
v 0.0000000 0.0000000 -0.3200000
v -0.0285000 0.0000000 -0.3693634
v -0.0000000 0.0000000 -0.3770000
vn 0.0000000 -1.0000000 0.0000000
f 1057/1/353 1058/1/353 1059/1/353
v 0.0000000 0.4500000 -0.3200000
v -0.0000000 0.4500000 -0.3960000
v -0.0380000 0.4500000 -0.3858179
vn 0.0000000 1.0000000 0.0000000
f 1060/1/354 1061/1/354 1062/1/354
v 0.0000000 0.0000000 -0.3200000
v -0.0000000 0.0000000 -0.3770000
v 0.0285000 0.0000000 -0.3693634
vn 0.0000000 -1.0000000 -0.0000000
f 1063/1/355 1064/1/355 1065/1/355
v 0.0000000 0.4500000 -0.3200000
v 0.0380000 0.4500000 -0.3858179
v -0.0000000 0.4500000 -0.3960000
vn 0.0000000 1.0000000 0.0000000
f 1066/1/356 1067/1/356 1068/1/356
v 0.0000000 0.0000000 -0.3200000
v 0.0285000 0.0000000 -0.3693634
v 0.0493634 0.0000000 -0.3485000
vn 0.0000000 -1.0000000 0.0000000
f 1069/1/357 1070/1/357 1071/1/357
v 0.0000000 0.4500000 -0.3200000
v 0.0658179 0.4500000 -0.3580000
v 0.0380000 0.4500000 -0.3858179
vn 0.0000000 1.0000000 0.0000000
f 1072/1/358 1073/1/358 1074/1/358
v 0.0000000 0.0000000 -0.3200000
v 0.0493634 0.0000000 -0.3485000
v 0.0570000 0.0000000 -0.3200000
vn 0.0000000 -1.0000000 0.0000000
f 1075/1/359 1076/1/359 1077/1/359
v 0.0000000 0.4500000 -0.3200000
v 0.0760000 0.4500000 -0.3200000
v 0.0658179 0.4500000 -0.3580000
vn -0.0000000 1.0000000 0.0000000
f 1078/1/360 1079/1/360 1080/1/360
