# Generated by tools/generate_farm_crop_meshes.py
o crop_leaves
vt 0.5 0.5
s off
v 0.0000000 0.0000000 0.0000000
v 0.5200000 0.6200000 0.0000000
v 0.5500000 0.4800000 -0.2400000
vn -0.6932530 0.5814380 -0.4258288
f 1/1/1 2/1/1 3/1/1
v 0.5500000 0.4800000 -0.2400000
v 0.5200000 0.6200000 0.0000000
v 1.0000000 1.0000000 0.0000000
vn -0.5473117 0.6913411 -0.4716963
f 4/1/2 5/1/2 6/1/2
v 1.0000000 1.0000000 0.0000000
v 0.5200000 0.6200000 0.0000000
v 0.5500000 0.4800000 0.2400000
vn -0.5473117 0.6913411 0.4716963
f 7/1/3 8/1/3 9/1/3
v 0.5500000 0.4800000 0.2400000
v 0.5200000 0.6200000 0.0000000
v 0.0000000 0.0000000 0.0000000
vn -0.6932530 0.5814380 0.4258288
f 10/1/4 11/1/4 12/1/4
v 0.5500000 0.4800000 -0.2400000
v 0.5200000 0.3800000 0.0000000
v 0.0000000 0.0000000 0.0000000
vn 0.5706598 -0.7809028 -0.2540437
f 13/1/5 14/1/5 15/1/5
v 1.0000000 1.0000000 0.0000000
v 0.5200000 0.3800000 0.0000000
v 0.5500000 0.4800000 -0.2400000
vn 0.7812467 -0.6048362 -0.1543592
f 16/1/6 17/1/6 18/1/6
v 0.5500000 0.4800000 0.2400000
v 0.5200000 0.3800000 0.0000000
v 1.0000000 1.0000000 0.0000000
vn 0.7812467 -0.6048362 0.1543592
f 19/1/7 20/1/7 21/1/7
v 0.0000000 0.0000000 0.0000000
v 0.5200000 0.3800000 0.0000000
v 0.5500000 0.4800000 0.2400000
vn 0.5706598 -0.7809028 0.2540437
f 22/1/8 23/1/8 24/1/8
v 0.0000000 0.0000000 0.0000000
v 0.1606888 0.6200000 0.4945494
v 0.3982129 0.4800000 0.4489170
vn 0.1907603 0.5814380 -0.7909111
f 25/1/9 26/1/9 27/1/9
v 0.3982129 0.4800000 0.4489170
v 0.1606888 0.6200000 0.4945494
v 0.3090170 1.0000000 0.9510565
vn 0.2794812 0.6913411 -0.6662865
f 28/1/10 29/1/10 30/1/10
v 0.3090170 1.0000000 0.9510565
v 0.1606888 0.6200000 0.4945494
v -0.0582942 0.4800000 0.5972452
vn -0.6177384 0.6913411 -0.3747622
f 31/1/11 32/1/11 33/1/11
v -0.0582942 0.4800000 0.5972452
v 0.1606888 0.6200000 0.4945494
v 0.0000000 0.0000000 0.0000000
vn -0.6192142 0.5814380 -0.5277344
f 34/1/12 35/1/12 36/1/12
v 0.3982129 0.4800000 0.4489170
v 0.1606888 0.3800000 0.4945494
v 0.0000000 0.0000000 0.0000000
vn 0.4179535 -0.7809028 0.4642259
f 37/1/13 38/1/13 39/1/13
v 0.3090170 1.0000000 0.9510565
v 0.1606888 0.3800000 0.4945494
v 0.3982129 0.4800000 0.4489170
vn 0.3882229 -0.6048362 0.6953102
f 40/1/14 41/1/14 42/1/14
v -0.0582942 0.4800000 0.5972452
v 0.1606888 0.3800000 0.4945494
v 0.3090170 1.0000000 0.9510565
vn 0.0946142 -0.6048362 0.7907094
f 43/1/15 44/1/15 45/1/15
v 0.0000000 0.0000000 0.0000000
v 0.1606888 0.3800000 0.4945494
v -0.0582942 0.4800000 0.5972452
vn -0.0652664 -0.7809028 0.6212335
f 46/1/16 47/1/16 48/1/16
v -0.0000000 0.0000000 0.0000000
v -0.4206888 0.6200000 0.3056483
v -0.3038909 0.4800000 0.5174460
vn 0.8111493 0.5814380 -0.0629812
f 49/1/17 50/1/17 51/1/17
v -0.3038909 0.4800000 0.5174460
v -0.4206888 0.6200000 0.3056483
v -0.8090170 1.0000000 0.5877853
vn 0.7200406 0.6913411 0.0599086
f 52/1/18 53/1/18 54/1/18
v -0.8090170 1.0000000 0.5877853
v -0.4206888 0.6200000 0.3056483
v -0.5860278 0.4800000 0.1291178
vn 0.1655284 0.6913411 -0.7033121
f 55/1/19 56/1/19 57/1/19
v -0.5860278 0.4800000 0.1291178
v -0.4206888 0.6200000 0.3056483
v -0.0000000 0.0000000 0.0000000
vn 0.3105576 0.5814380 -0.7519866
f 58/1/20 59/1/20 60/1/20
v -0.3038909 0.4800000 0.5174460
v -0.4206888 0.3800000 0.3056483
v -0.0000000 0.0000000 0.0000000
vn -0.3123503 -0.7809028 0.5409511
f 61/1/21 62/1/21 63/1/21
v -0.8090170 1.0000000 0.5877853
v -0.4206888 0.3800000 0.3056483
v -0.3038909 0.4800000 0.5174460
vn -0.5413118 -0.6048362 0.5840845
f 64/1/22 65/1/22 66/1/22
v -0.5860278 0.4800000 0.1291178
v -0.4206888 0.3800000 0.3056483
v -0.8090170 1.0000000 0.5877853
vn -0.7227720 -0.6048362 0.3343261
f 67/1/23 68/1/23 69/1/23
v -0.0000000 0.0000000 0.0000000
v -0.4206888 0.3800000 0.3056483
v -0.5860278 0.4800000 0.1291178
vn -0.6109966 -0.7809028 0.1298997
f 70/1/24 71/1/24 72/1/24
v 0.0000000 0.0000000 -0.0000000
v -0.4206888 0.6200000 -0.3056483
v -0.5860278 0.4800000 -0.1291178
vn 0.3105576 0.5814380 0.7519866
f 73/1/25 74/1/25 75/1/25
v -0.5860278 0.4800000 -0.1291178
v -0.4206888 0.6200000 -0.3056483
v -0.8090170 1.0000000 -0.5877853
vn 0.1655284 0.6913411 0.7033121
f 76/1/26 77/1/26 78/1/26
v -0.8090170 1.0000000 -0.5877853
v -0.4206888 0.6200000 -0.3056483
v -0.3038909 0.4800000 -0.5174460
vn 0.7200406 0.6913411 -0.0599086
f 79/1/27 80/1/27 81/1/27
v -0.3038909 0.4800000 -0.5174460
v -0.4206888 0.6200000 -0.3056483
v 0.0000000 0.0000000 -0.0000000
vn 0.8111493 0.5814380 0.0629812
f 82/1/28 83/1/28 84/1/28
v -0.5860278 0.4800000 -0.1291178
v -0.4206888 0.3800000 -0.3056483
v 0.0000000 0.0000000 -0.0000000
vn -0.6109966 -0.7809028 -0.1298997
f 85/1/29 86/1/29 87/1/29
v -0.8090170 1.0000000 -0.5877853
v -0.4206888 0.3800000 -0.3056483
v -0.5860278 0.4800000 -0.1291178
vn -0.7227720 -0.6048362 -0.3343261
f 88/1/30 89/1/30 90/1/30
v -0.3038909 0.4800000 -0.5174460
v -0.4206888 0.3800000 -0.3056483
v -0.8090170 1.0000000 -0.5877853
vn -0.5413118 -0.6048362 -0.5840845
f 91/1/31 92/1/31 93/1/31
v 0.0000000 0.0000000 -0.0000000
v -0.4206888 0.3800000 -0.3056483
v -0.3038909 0.4800000 -0.5174460
vn -0.3123503 -0.7809028 -0.5409511
f 94/1/32 95/1/32 96/1/32
v 0.0000000 0.0000000 0.0000000
v 0.1606888 0.6200000 -0.4945494
v -0.0582942 0.4800000 -0.5972452
vn -0.6192142 0.5814380 0.5277344
f 97/1/33 98/1/33 99/1/33
v -0.0582942 0.4800000 -0.5972452
v 0.1606888 0.6200000 -0.4945494
v 0.3090170 1.0000000 -0.9510565
vn -0.6177384 0.6913411 0.3747622
f 100/1/34 101/1/34 102/1/34
v 0.3090170 1.0000000 -0.9510565
v 0.1606888 0.6200000 -0.4945494
v 0.3982129 0.4800000 -0.4489170
vn 0.2794812 0.6913411 0.6662865
f 103/1/35 104/1/35 105/1/35
v 0.3982129 0.4800000 -0.4489170
v 0.1606888 0.6200000 -0.4945494
v 0.0000000 0.0000000 0.0000000
vn 0.1907603 0.5814380 0.7909111
f 106/1/36 107/1/36 108/1/36
v -0.0582942 0.4800000 -0.5972452
v 0.1606888 0.3800000 -0.4945494
v 0.0000000 0.0000000 0.0000000
vn -0.0652664 -0.7809028 -0.6212335
f 109/1/37 110/1/37 111/1/37
v 0.3090170 1.0000000 -0.9510565
v 0.1606888 0.3800000 -0.4945494
v -0.0582942 0.4800000 -0.5972452
vn 0.0946142 -0.6048362 -0.7907094
f 112/1/38 113/1/38 114/1/38
v 0.3982129 0.4800000 -0.4489170
v 0.1606888 0.3800000 -0.4945494
v 0.3090170 1.0000000 -0.9510565
vn 0.3882229 -0.6048362 -0.6953102
f 115/1/39 116/1/39 117/1/39
v 0.0000000 0.0000000 0.0000000
v 0.1606888 0.3800000 -0.4945494
v 0.3982129 0.4800000 -0.4489170
vn 0.4179535 -0.7809028 -0.4642259
f 118/1/40 119/1/40 120/1/40
