# Blender 4.4.1
# www.blender.org
mtllib chainsaw.mtl
o ChainsawBody
v -0.181201 -1.162137 0.090741
v -0.220384 -1.194240 0.123148
v -0.200793 -1.130033 0.090741
v -0.200793 -1.171539 0.113656
v -0.200793 -1.162137 0.109452
v -0.206531 -1.162137 0.113656
v -0.195054 -1.152734 0.090741
v -0.220384 0.997304 0.123148
v -0.200793 0.995200 0.090741
v -0.206531 0.995816 0.113656
v -0.213070 1.088331 0.123148
v -0.193984 1.079951 0.090741
v -0.199574 1.082405 0.113656
v -0.191133 1.175116 0.123148
v -0.174021 1.158926 0.090741
v -0.179033 1.163668 0.113656
v -0.156237 1.249640 0.123148
v -0.142264 1.226744 0.090741
v -0.146357 1.233450 0.113656
v -0.110758 1.306824 0.123148
v -0.100878 1.278782 0.090741
v -0.103772 1.286996 0.113656
v -0.057798 1.342772 0.123148
v -0.052683 1.311495 0.090741
v -0.054181 1.320656 0.113656
v -0.000964 1.355033 0.123148
v -0.000964 1.322653 0.090741
v -0.000964 1.332137 0.113656
v 0.055870 1.342772 0.123148
v 0.050756 1.311495 0.090741
v 0.052254 1.320656 0.113656
v 0.108831 1.306824 0.123148
v 0.098951 1.278782 0.090741
v 0.101844 1.286996 0.113656
v 0.154309 1.249640 0.123148
v 0.140337 1.226744 0.090741
v 0.144429 1.233450 0.113656
v 0.189206 1.175116 0.123148
v 0.172093 1.158926 0.090741
v 0.177105 1.163668 0.113656
v 0.211143 1.088331 0.123148
v 0.192056 1.079951 0.090741
v 0.197647 1.082405 0.113656
v 0.218456 0.997304 0.123148
v 0.198865 0.995200 0.090741
v 0.204603 0.995816 0.113656
v 0.179274 -1.162137 0.090741
v 0.198865 -1.130033 0.090741
v 0.218456 -1.194240 0.123148
v 0.193127 -1.152734 0.090741
v 0.198865 -1.162137 0.109452
v 0.204603 -1.162136 0.113656
v 0.198865 -1.171539 0.113656
v -0.181201 -1.162137 -0.090741
v -0.200793 -1.130033 -0.090741
v -0.181201 -1.130033 -0.123148
v -0.195054 -1.152734 -0.090741
v -0.192512 -1.148568 -0.109451
v -0.195054 -1.130033 -0.113656
v -0.181201 -1.152734 -0.113656
v -0.200793 0.995200 -0.090741
v -0.181202 0.993096 -0.123148
v -0.195055 0.994583 -0.113656
v -0.193984 1.079951 -0.090741
v -0.174897 1.071570 -0.123148
v -0.188393 1.077496 -0.113656
v -0.174021 1.158926 -0.090741
v -0.156908 1.142736 -0.123148
v -0.169008 1.154184 -0.113656
v -0.142264 1.226744 -0.090741
v -0.128291 1.203848 -0.123148
v -0.138172 1.220038 -0.113656
v -0.100878 1.278782 -0.090741
v -0.090998 1.250740 -0.123148
v -0.097984 1.270569 -0.113656
v -0.052683 1.311495 -0.090741
v -0.047569 1.280218 -0.123148
v -0.051185 1.302334 -0.113656
v -0.000964 1.322653 -0.090741
v -0.000964 1.290272 -0.123148
v -0.000964 1.313168 -0.113656
v 0.050756 1.311495 -0.090741
v 0.045641 1.280218 -0.123148
v 0.049258 1.302334 -0.113656
v 0.098951 1.278782 -0.090741
v 0.089071 1.250740 -0.123148
v 0.096057 1.270569 -0.113656
v 0.140337 1.226744 -0.090741
v 0.126364 1.203848 -0.123148
v 0.136244 1.220038 -0.113656
v 0.172093 1.158926 -0.090741
v 0.154980 1.142736 -0.123148
v 0.167081 1.154184 -0.113656
v 0.192056 1.079951 -0.090741
v 0.172969 1.071570 -0.123148
v 0.186466 1.077496 -0.113656
v 0.198865 0.995200 -0.090741
v 0.179274 0.993096 -0.123148
v 0.193127 0.994583 -0.113656
v 0.179274 -1.162137 -0.090741
v 0.179274 -1.130033 -0.123148
v 0.198865 -1.130033 -0.090741
v 0.179274 -1.152734 -0.113656
v 0.190585 -1.148568 -0.109451
v 0.193127 -1.130033 -0.113656
v 0.193127 -1.152734 -0.090741
vn -0.9789 0.1602 -0.1267
vn -0.9917 0.0400 -0.1224
vn -0.9916 0.0396 -0.1232
vn -0.0000 -0.0000 -1.0000
vn -0.9344 0.3297 -0.1347
vn -0.9786 0.1634 -0.1253
vn -0.8434 0.5163 -0.1487
vn -0.9323 0.3362 -0.1333
vn -0.6752 0.7181 -0.1687
vn -0.8380 0.5254 -0.1471
vn -0.3915 0.9003 -0.1900
vn -0.6661 0.7274 -0.1652
vn -0.0000 0.9798 -0.2001
vn -0.3825 0.9057 -0.1826
vn 0.3915 0.9003 -0.1900
vn -0.0000 0.9818 -0.1901
vn 0.6752 0.7181 -0.1687
vn 0.3825 0.9057 -0.1826
vn 0.8434 0.5163 -0.1487
vn 0.6661 0.7274 -0.1652
vn 0.9344 0.3297 -0.1347
vn 0.8380 0.5254 -0.1471
vn 0.9789 0.1602 -0.1267
vn 0.9323 0.3362 -0.1333
vn 0.9916 0.0396 -0.1232
vn 0.9786 0.1635 -0.1253
vn 0.9916 -0.0691 -0.1093
vn 0.9917 0.0400 -0.1224
vn -0.1780 0.1770 -0.9680
vn 0.1780 0.1770 -0.9680
vn 0.3017 0.0117 -0.9533
vn -0.9868 -0.1152 -0.1141
vn -0.9916 -0.0691 -0.1093
vn -0.5400 -0.6234 -0.5655
vn -0.6342 -0.4052 -0.6585
vn -0.7517 -0.4673 -0.4654
vn -0.5122 -0.1167 -0.8509
vn -0.1888 -0.3009 -0.9348
vn -0.2204 -0.2474 -0.9435
vn -0.8330 -0.2786 -0.4780
vn -0.5349 -0.4255 -0.7300
vn 0.5400 -0.6234 -0.5655
vn 0.6342 -0.4052 -0.6585
vn 0.6572 -0.3077 -0.6881
vn 0.8330 -0.2786 -0.4780
vn 0.7517 -0.4673 -0.4654
vn 0.1888 -0.3009 -0.9348
vn 0.5122 -0.1167 -0.8509
vn 0.2204 -0.2474 -0.9435
vn -0.2729 -0.9466 -0.1717
vn -0.4750 -0.8236 -0.3101
vn -0.2089 -0.9047 -0.3712
vn -0.9540 -0.2129 -0.2113
vn -0.9659 -0.2441 -0.0864
vn -0.2746 -0.1746 -0.9456
vn -0.4779 -0.3145 -0.8202
vn -0.5605 -0.1296 -0.8180
vn 0.2729 -0.9466 -0.1717
vn 0.4750 -0.8236 -0.3101
vn 0.5570 -0.8206 -0.1276
vn 0.2746 -0.1746 -0.9456
vn 0.4779 -0.3145 -0.8202
vn 0.2107 -0.3771 -0.9019
vn 0.9868 -0.1152 -0.1141
vn 0.9540 -0.2129 -0.2113
vn 0.9664 -0.0872 -0.2420
vn 0.1732 -0.9706 -0.1670
vn -0.0000 -0.9251 -0.3796
vn -0.1732 -0.9706 -0.1670
vn -0.5634 0.0234 -0.8259
vn -0.9691 0.0393 -0.2437
vn -0.9701 -0.0000 -0.2429
vn -0.5483 0.0840 -0.8321
vn -0.5635 0.0218 -0.8258
vn -0.5441 0.0958 -0.8335
vn -0.5057 0.1672 -0.8464
vn -0.9547 0.1611 -0.2502
vn -0.4911 0.1865 -0.8509
vn -0.4300 0.2467 -0.8684
vn -0.9055 0.3302 -0.2664
vn -0.4040 0.2665 -0.8751
vn -0.3178 0.3160 -0.8940
vn -0.8070 0.5121 -0.2940
vn -0.2867 0.3296 -0.8995
vn -0.1704 0.3650 -0.9153
vn -0.6326 0.7003 -0.3309
vn -0.1481 0.3695 -0.9174
vn -0.0000 0.3830 -0.9238
vn -0.3572 0.8590 -0.3668
vn 0.1481 0.3695 -0.9174
vn 0.3572 0.8590 -0.3668
vn -0.0000 0.9240 -0.3824
vn 0.2867 0.3296 -0.8995
vn 0.1704 0.3650 -0.9153
vn 0.6326 0.7003 -0.3309
vn 0.4040 0.2665 -0.8751
vn 0.3178 0.3160 -0.8940
vn 0.8070 0.5121 -0.2940
vn 0.4911 0.1865 -0.8509
vn 0.4300 0.2467 -0.8684
vn 0.9055 0.3302 -0.2664
vn 0.5441 0.0958 -0.8335
vn 0.5057 0.1672 -0.8464
vn 0.9547 0.1611 -0.2502
vn 0.5634 0.0234 -0.8259
vn 0.5483 0.0840 -0.8321
vn 0.9691 0.0393 -0.2437
vn 0.5635 0.0218 -0.8258
vn -0.2107 -0.3771 -0.9019
vn 0.2089 -0.9047 -0.3712
vn -0.9691 0.0385 -0.2437
vn -0.9664 -0.0872 -0.2420
vn -0.3017 0.0117 -0.9533
vn -0.9559 0.1547 -0.2498
vn -0.3003 0.0460 -0.9527
vn -0.9105 0.3175 -0.2649
vn -0.2777 0.0918 -0.9563
vn -0.8188 0.4949 -0.2910
vn -0.2378 0.1364 -0.9617
vn -0.6522 0.6837 -0.3274
vn -0.3763 0.8516 -0.3650
vn -0.0971 0.2081 -0.9733
vn -0.0000 0.2204 -0.9754
vn 0.3763 0.8516 -0.3650
vn 0.0971 0.2081 -0.9733
vn 0.6522 0.6837 -0.3274
vn 0.8188 0.4949 -0.2910
vn 0.2378 0.1364 -0.9617
vn 0.9105 0.3175 -0.2649
vn 0.2777 0.0918 -0.9563
vn 0.9559 0.1547 -0.2498
vn 0.3003 0.0460 -0.9527
vn 0.9691 0.0385 -0.2437
vn 0.5605 -0.1296 -0.8180
vn -0.9695 -0.2451 -0.0000
vn -0.5570 -0.8206 -0.1276
vn -0.5616 -0.8274 -0.0000
vn 0.5616 -0.8274 -0.0000
vn 0.9659 -0.2442 -0.0864
vn 0.9695 -0.2451 -0.0000
vn -0.6572 -0.3077 -0.6881
vn -0.5560 -0.3393 -0.7588
vn 0.5349 -0.4254 -0.7300
vn 0.5560 -0.3393 -0.7588
vn 0.9701 -0.0000 -0.2429
vt 0.635722 0.881168
vt 0.568236 0.847113
vt 0.636487 0.847707
vt 0.074244 0.022569
vt 0.215344 0.022569
vt 0.285785 0.143061
vt 0.632820 0.912980
vt 0.567471 0.880574
vt 0.627979 0.940975
vt 0.564570 0.912386
vt 0.839381 0.294740
vt 0.766106 0.268885
vt 0.834812 0.270894
vt 0.842253 0.323865
vt 0.770675 0.292731
vt 0.843233 0.356285
vt 0.773547 0.321857
vt 0.842253 0.389791
vt 0.774527 0.354277
vt 0.839381 0.422099
vt 0.773547 0.387782
vt 0.834812 0.451006
vt 0.770675 0.420090
vt 0.736028 0.034305
vt 0.662937 0.006904
vt 0.731187 0.006310
vt 0.738930 0.066117
vt 0.667777 0.034899
vt 0.739694 0.099578
vt 0.670679 0.066711
vt 0.731425 0.930736
vt 0.671444 0.100172
vt 0.360253 0.028548
vt 0.475959 0.028548
vt 0.533920 0.128845
vt 0.559967 0.015955
vt 0.628218 0.016549
vt 0.766326 0.016391
vt 0.759226 0.003803
vt 0.767114 0.007490
vt 0.012704 0.984143
vt 0.016391 0.987804
vt 0.003803 0.996197
vt 0.635129 0.004055
vt 0.637633 0.003803
vt 0.766326 0.248020
vt 0.759226 0.260608
vt 0.756842 0.260608
vt 0.738337 0.943231
vt 0.730415 0.939348
vt 0.273197 0.987804
vt 0.276884 0.984143
vt 0.285785 0.996198
vt 0.835194 0.016391
vt 0.843431 0.009123
vt 0.844677 0.016391
vt 0.551528 0.009029
vt 0.558957 0.007343
vt 0.302292 0.955349
vt 0.295024 0.961925
vt 0.293390 0.954906
vt 0.835194 0.248020
vt 0.843431 0.255288
vt 0.835981 0.256921
vt 0.533920 0.955349
vt 0.541188 0.961925
vt 0.533920 0.963743
vt 0.663175 0.931330
vt 0.654735 0.938256
vt 0.653635 0.931139
vt 0.756842 0.003803
vt 0.003803 0.143061
vt 0.646029 0.847757
vt 0.017174 0.110376
vt 0.012704 0.144084
vt 0.008502 0.107626
vt 0.030373 0.078741
vt 0.645248 0.881944
vt 0.022598 0.073841
vt 0.051370 0.051576
vt 0.642262 0.914677
vt 0.045021 0.044831
vt 0.078733 0.030732
vt 0.844077 0.268213
vt 0.110598 0.017628
vt 0.848778 0.292750
vt 0.108274 0.008576
vt 0.144794 0.013159
vt 0.851733 0.322719
vt 0.181313 0.008576
vt 0.144794 0.003803
vt 0.851733 0.390554
vt 0.852741 0.356078
vt 0.178990 0.017628
vt 0.848778 0.423797
vt 0.244567 0.044831
vt 0.210855 0.030732
vt 0.844077 0.453542
vt 0.266990 0.073841
vt 0.238218 0.051576
vt 0.745470 0.032608
vt 0.740489 0.003803
vt 0.281086 0.107626
vt 0.259215 0.078741
vt 0.748456 0.065342
vt 0.272414 0.110376
vt 0.749237 0.099528
vt 0.276884 0.144084
vt 0.302292 0.963743
vt 0.844677 0.248020
vt 0.558694 0.847063
vt 0.550427 0.016146
vt 0.302292 0.128845
vt 0.557945 0.879798
vt 0.293390 0.127823
vt 0.306343 0.098296
vt 0.555128 0.910689
vt 0.297671 0.095546
vt 0.317902 0.070592
vt 0.550427 0.937873
vt 0.310127 0.065693
vt 0.336290 0.046802
vt 0.761279 0.294721
vt 0.756842 0.271566
vt 0.329941 0.040057
vt 0.764068 0.323003
vt 0.355764 0.020386
vt 0.388159 0.017073
vt 0.765019 0.354484
vt 0.385836 0.008020
vt 0.418106 0.013159
vt 0.450377 0.008020
vt 0.418106 0.003803
vt 0.764068 0.387019
vt 0.480448 0.020386
vt 0.448053 0.017073
vt 0.766106 0.448998
vt 0.761279 0.418391
vt 0.506271 0.040057
vt 0.653635 0.009412
vt 0.526086 0.065693
vt 0.499922 0.046802
vt 0.658335 0.036596
vt 0.538541 0.095546
vt 0.518310 0.070592
vt 0.661153 0.067487
vt 0.542822 0.127823
vt 0.529869 0.098296
vt 0.661901 0.100222
vt 0.542822 0.954906
vt 0.627207 0.007937
vt 0.835981 0.007490
vt 0.767114 0.256921
vt 0.662164 0.939942
vt 0.559729 0.940381
vt 0.016391 0.984339
vt 0.740841 0.943483
vt 0.273197 0.984339
vt 0.637281 0.943483
vt 0.756842 0.446462
s 1
usemtl BladeMetal
f 12/1/1 61/2/2 9/3/3
f 20/4/4 32/5/4 44/6/4
f 15/7/5 64/8/6 12/1/1
f 18/9/7 67/10/8 15/7/5
f 21/11/9 70/12/10 18/13/7
f 24/14/11 73/15/12 21/11/9
f 27/16/13 76/17/14 24/14/11
f 30/18/15 79/19/16 27/16/13
f 33/20/17 82/21/18 30/18/15
f 36/22/19 85/23/20 33/20/17
f 39/24/21 88/25/22 36/26/19
f 42/27/23 91/28/24 39/24/21
f 45/29/25 94/30/26 42/27/23
f 48/31/27 97/32/28 45/29/25
f 74/33/29 86/34/30 98/35/31
f 9/3/3 55/36/32 3/37/33
f 1/38/34 5/39/35 7/40/36
f 6/41/37 4/42/38 2/43/39
f 3/37/40 5/44/35 6/45/41
f 47/46/42 51/47/43 53/48/44
f 48/31/45 51/49/43 50/50/46
f 53/51/47 52/52/48 49/53/49
f 54/54/50 58/55/51 60/56/52
f 55/36/32 58/57/53 57/58/54
f 56/59/55 58/60/56 59/61/57
f 100/62/58 104/63/59 106/64/60
f 101/65/61 104/66/62 103/67/63
f 102/68/64 104/69/65 105/70/66
f 47/46/67 4/71/68 1/38/69
f 53/51/47 2/43/39 4/42/38
f 8/72/70 6/41/37 2/43/39
f 10/73/71 3/37/33 6/45/72
f 8/72/70 13/74/73 10/75/74
f 10/73/71 12/1/1 9/3/3
f 11/76/75 16/77/76 13/74/73
f 13/78/77 15/7/5 12/1/1
f 14/79/78 19/80/79 16/77/76
f 16/81/80 18/9/7 15/7/5
f 17/82/81 22/83/82 19/80/79
f 19/84/83 21/11/9 18/13/7
f 20/4/84 25/85/85 22/83/82
f 22/86/86 24/14/11 21/11/9
f 23/87/87 28/88/88 25/85/85
f 25/89/89 27/16/13 24/14/11
f 29/90/90 28/88/88 26/91/88
f 31/92/91 27/16/13 28/93/92
f 32/5/93 31/94/94 29/90/90
f 34/95/95 30/18/15 31/92/91
f 35/96/96 34/97/97 32/5/93
f 37/98/98 33/20/17 34/95/95
f 38/99/99 37/100/100 35/96/96
f 40/101/101 36/26/19 37/102/98
f 41/103/102 40/104/103 38/99/99
f 43/105/104 39/24/21 40/101/101
f 44/6/105 43/106/106 41/103/102
f 46/107/107 42/27/23 43/105/104
f 44/6/105 52/52/48 46/108/108
f 46/107/107 48/31/27 45/29/25
f 101/65/61 60/109/109 56/59/55
f 103/110/110 54/54/50 60/56/52
f 55/36/32 63/111/111 59/112/112
f 59/61/57 62/113/113 56/59/55
f 61/2/2 66/114/114 63/111/111
f 63/115/70 65/116/115 62/113/113
f 64/8/6 69/117/116 66/114/114
f 66/118/75 68/119/117 65/116/115
f 67/10/8 72/120/118 69/117/116
f 69/121/78 71/122/119 68/119/117
f 70/12/10 75/123/120 72/124/118
f 72/125/81 74/33/29 71/122/119
f 73/15/12 78/126/121 75/123/120
f 75/127/84 77/128/122 74/33/29
f 76/17/14 81/129/92 78/126/121
f 78/130/87 80/131/123 77/128/122
f 82/21/18 81/129/92 79/19/16
f 84/132/90 80/131/123 81/133/88
f 85/23/20 84/134/124 82/21/18
f 87/135/93 83/136/125 84/132/90
f 88/137/22 87/138/126 85/23/20
f 90/139/96 86/34/30 87/135/93
f 91/28/24 90/140/127 88/25/22
f 93/141/99 89/142/128 90/139/96
f 94/30/26 93/143/129 91/28/24
f 96/144/102 92/145/130 93/141/99
f 97/32/28 96/146/131 94/30/26
f 99/147/105 95/148/132 96/144/102
f 102/68/64 99/149/133 97/32/28
f 105/150/134 98/35/31 99/147/105
f 55/36/32 7/151/135 3/37/33
f 57/152/136 1/38/69 7/40/137
f 100/62/58 50/153/138 47/46/67
f 106/154/139 48/31/27 50/50/140
f 1/38/69 100/62/58 47/46/67
f 12/1/1 64/8/6 61/2/2
f 49/53/4 2/43/4 8/72/4
f 8/72/4 11/76/4 14/79/4
f 14/79/4 17/82/4 20/4/4
f 20/4/4 23/87/4 26/91/4
f 26/91/4 29/90/4 32/5/4
f 32/5/4 35/96/4 38/99/4
f 38/99/4 41/103/4 44/6/4
f 44/6/4 49/53/4 8/72/4
f 8/72/4 14/79/4 20/4/4
f 20/4/4 26/91/4 32/5/4
f 32/5/4 38/99/4 44/6/4
f 44/6/4 8/72/4 20/4/4
f 15/7/5 67/10/8 64/8/6
f 18/9/7 70/155/10 67/10/8
f 21/11/9 73/15/12 70/12/10
f 24/14/11 76/17/14 73/15/12
f 27/16/13 79/19/16 76/17/14
f 30/18/15 82/21/18 79/19/16
f 33/20/17 85/23/20 82/21/18
f 36/22/19 88/137/22 85/23/20
f 39/24/21 91/28/24 88/25/22
f 42/27/23 94/30/26 91/28/24
f 45/29/25 97/32/28 94/30/26
f 48/31/27 102/68/64 97/32/28
f 101/65/61 56/59/55 62/113/113
f 62/113/113 65/116/115 68/119/117
f 68/119/117 71/122/119 74/33/29
f 74/33/29 77/128/122 80/131/123
f 80/131/123 83/136/125 86/34/30
f 86/34/30 89/142/128 92/145/130
f 92/145/130 95/148/132 98/35/31
f 98/35/31 101/65/61 62/113/113
f 62/113/113 68/119/117 74/33/29
f 74/33/29 80/131/123 86/34/30
f 86/34/30 92/145/130 98/35/31
f 98/35/31 62/113/113 74/33/29
f 9/3/3 61/2/2 55/36/32
f 1/38/34 4/71/141 5/39/35
f 6/41/37 5/156/142 4/42/38
f 3/37/40 7/151/36 5/44/35
f 47/46/42 50/153/46 51/47/43
f 48/31/45 52/157/143 51/49/43
f 53/51/47 51/158/144 52/52/48
f 54/54/50 57/152/136 58/55/51
f 55/36/32 59/112/112 58/57/53
f 56/59/55 60/109/109 58/60/56
f 100/62/58 103/110/110 104/63/59
f 101/65/61 105/150/134 104/66/62
f 102/68/64 106/154/139 104/69/65
f 47/46/67 53/48/68 4/71/68
f 53/51/47 49/53/49 2/43/39
f 8/72/70 10/75/74 6/41/37
f 10/73/71 9/3/3 3/37/33
f 8/72/70 11/76/75 13/74/73
f 10/73/71 13/78/77 12/1/1
f 11/76/75 14/79/78 16/77/76
f 13/78/77 16/81/80 15/7/5
f 14/79/78 17/82/81 19/80/79
f 16/81/80 19/159/83 18/9/7
f 17/82/81 20/4/84 22/83/82
f 19/84/83 22/86/86 21/11/9
f 20/4/84 23/87/87 25/85/85
f 22/86/86 25/89/89 24/14/11
f 23/87/87 26/91/88 28/88/88
f 25/89/89 28/93/92 27/16/13
f 29/90/90 31/94/94 28/88/88
f 31/92/91 30/18/15 27/16/13
f 32/5/93 34/97/97 31/94/94
f 34/95/95 33/20/17 30/18/15
f 35/96/96 37/100/100 34/97/97
f 37/98/98 36/22/19 33/20/17
f 38/99/99 40/104/103 37/100/100
f 40/101/101 39/24/21 36/26/19
f 41/103/102 43/106/106 40/104/103
f 43/105/104 42/27/23 39/24/21
f 44/6/105 46/108/108 43/106/106
f 46/107/107 45/29/25 42/27/23
f 44/6/105 49/53/49 52/52/48
f 46/107/107 52/157/145 48/31/27
f 101/65/61 103/67/63 60/109/109
f 103/110/110 100/62/58 54/54/50
f 55/36/32 61/2/2 63/111/111
f 59/61/57 63/115/70 62/113/113
f 61/2/2 64/8/6 66/114/114
f 63/115/70 66/118/75 65/116/115
f 64/8/6 67/10/8 69/117/116
f 66/118/75 69/121/78 68/119/117
f 67/10/8 70/155/10 72/120/118
f 69/121/78 72/125/81 71/122/119
f 70/12/10 73/15/12 75/123/120
f 72/125/81 75/127/84 74/33/29
f 73/15/12 76/17/14 78/126/121
f 75/127/84 78/130/87 77/128/122
f 76/17/14 79/19/16 81/129/92
f 78/130/87 81/133/88 80/131/123
f 82/21/18 84/134/124 81/129/92
f 84/132/90 83/136/125 80/131/123
f 85/23/20 87/138/126 84/134/124
f 87/135/93 86/34/30 83/136/125
f 88/137/22 90/160/127 87/138/126
f 90/139/96 89/142/128 86/34/30
f 91/28/24 93/143/129 90/140/127
f 93/141/99 92/145/130 89/142/128
f 94/30/26 96/146/131 93/143/129
f 96/144/102 95/148/132 92/145/130
f 97/32/28 99/149/133 96/146/131
f 99/147/105 98/35/31 95/148/132
f 102/68/64 105/70/66 99/149/133
f 105/150/134 101/65/61 98/35/31
f 55/36/32 57/58/54 7/151/135
f 57/152/136 54/54/50 1/38/69
f 100/62/58 106/64/60 50/153/138
f 106/154/139 102/68/64 48/31/27
f 1/38/69 54/54/50 100/62/58
