# Blender 4.4.1
# www.blender.org
mtllib chainsaw_chain_2.mtl
o ChainsawChainFrame_2
v -0.293262 -0.969517 0.175000
v -0.202360 -0.969517 0.175000
v -0.293262 0.969889 0.175000
v -0.202360 0.969145 0.175000
v -0.285934 1.076100 0.175000
v -0.197310 1.042954 0.175000
v -0.264316 1.177339 0.175000
v -0.182415 1.112708 0.175000
v -0.229492 1.268156 0.175000
v -0.158422 1.175282 0.175000
v -0.183209 1.343999 0.175000
v -0.126532 1.227538 0.175000
v -0.127787 1.401063 0.175000
v -0.088346 1.266856 0.175000
v -0.066006 1.436488 0.175000
v -0.045779 1.291264 0.175000
v -0.000964 1.448497 0.175000
v -0.000964 1.299538 0.175000
v 0.064079 1.436488 0.175000
v 0.043851 1.291264 0.175000
v 0.125860 1.401063 0.175000
v 0.086419 1.266856 0.175000
v 0.181282 1.343999 0.175000
v 0.124605 1.227538 0.175000
v 0.227565 1.268156 0.175000
v 0.156494 1.175282 0.175000
v 0.262388 1.177339 0.175000
v 0.180488 1.112708 0.175000
v 0.284006 1.076100 0.175000
v 0.195383 1.042954 0.175000
v 0.291334 0.969889 0.175000
v 0.200433 0.969145 0.175000
v 0.291334 -0.969889 0.175000
v 0.200433 -0.969145 0.175000
v 0.284007 -1.076100 0.175000
v 0.195383 -1.042954 0.175000
v 0.262388 -1.177339 0.175000
v 0.180488 -1.112708 0.175000
v 0.227565 -1.268156 0.175000
v 0.156494 -1.175282 0.175000
v 0.181282 -1.343999 0.175000
v 0.124605 -1.227538 0.175000
v 0.125860 -1.401063 0.175000
v 0.086419 -1.266856 0.175000
v 0.064079 -1.436488 0.175000
v 0.043851 -1.291264 0.175000
v -0.000964 -1.448497 0.175000
v -0.000964 -1.299538 0.175000
v -0.066006 -1.436488 0.175000
v -0.045779 -1.291264 0.175000
v -0.127787 -1.401063 0.175000
v -0.088346 -1.266856 0.175000
v -0.183209 -1.343999 0.175000
v -0.126532 -1.227538 0.175000
v -0.229492 -1.268156 0.175000
v -0.158422 -1.175282 0.175000
v -0.264316 -1.177339 0.175000
v -0.182415 -1.112708 0.175000
v -0.285934 -1.076100 0.175000
v -0.197310 -1.042954 0.175000
v -0.292977 -0.977856 0.175000
v -0.202646 -0.961178 0.175000
v -0.293262 -0.969517 -0.175000
v -0.202360 -0.969517 -0.175000
v -0.293262 0.969889 -0.175000
v -0.202360 0.969145 -0.175000
v -0.285934 1.076100 -0.175000
v -0.197310 1.042954 -0.175000
v -0.264316 1.177339 -0.175000
v -0.182415 1.112708 -0.175000
v -0.229492 1.268156 -0.175000
v -0.158422 1.175282 -0.175000
v -0.183209 1.343999 -0.175000
v -0.126532 1.227538 -0.175000
v -0.127787 1.401063 -0.175000
v -0.088346 1.266856 -0.175000
v -0.066006 1.436488 -0.175000
v -0.045779 1.291264 -0.175000
v -0.000964 1.448497 -0.175000
v -0.000964 1.299538 -0.175000
v 0.064079 1.436488 -0.175000
v 0.043851 1.291264 -0.175000
v 0.125860 1.401063 -0.175000
v 0.086419 1.266856 -0.175000
v 0.181282 1.343999 -0.175000
v 0.124605 1.227538 -0.175000
v 0.227565 1.268156 -0.175000
v 0.156494 1.175282 -0.175000
v 0.262388 1.177339 -0.175000
v 0.180488 1.112708 -0.175000
v 0.284006 1.076100 -0.175000
v 0.195383 1.042954 -0.175000
v 0.291334 0.969889 -0.175000
v 0.200433 0.969145 -0.175000
v 0.291334 -0.969889 -0.175000
v 0.200433 -0.969145 -0.175000
v 0.284007 -1.076100 -0.175000
v 0.195383 -1.042954 -0.175000
v 0.262388 -1.177339 -0.175000
v 0.180488 -1.112708 -0.175000
v 0.227565 -1.268156 -0.175000
v 0.156494 -1.175282 -0.175000
v 0.181282 -1.343999 -0.175000
v 0.124605 -1.227538 -0.175000
v 0.125860 -1.401063 -0.175000
v 0.086419 -1.266856 -0.175000
v 0.064079 -1.436488 -0.175000
v 0.043851 -1.291264 -0.175000
v -0.000964 -1.448497 -0.175000
v -0.000964 -1.299538 -0.175000
v -0.066006 -1.436488 -0.175000
v -0.045779 -1.291264 -0.175000
v -0.127787 -1.401063 -0.175000
v -0.088346 -1.266856 -0.175000
v -0.183209 -1.343999 -0.175000
v -0.126532 -1.227538 -0.175000
v -0.229492 -1.268156 -0.175000
v -0.158422 -1.175282 -0.175000
v -0.264316 -1.177339 -0.175000
v -0.182415 -1.112708 -0.175000
v -0.285934 -1.076100 -0.175000
v -0.197310 -1.042954 -0.175000
v -0.292977 -0.977856 -0.175000
v -0.202646 -0.961178 -0.175000
v -0.289736 -0.871200 0.051852
v -0.325000 -0.871200 0.051852
v -0.289736 -0.871200 -0.051852
v -0.325000 -0.871200 -0.051852
v -0.289736 -0.800573 0.051852
v -0.325000 -0.800573 0.051852
v -0.289736 -0.800573 -0.051852
v -0.325000 -0.800573 -0.051852
v -0.289736 -0.603938 0.051852
v -0.325000 -0.603938 0.051852
v -0.289736 -0.603938 -0.051852
v -0.325000 -0.603938 -0.051852
v -0.289736 -0.533311 0.051852
v -0.325000 -0.533311 0.051852
v -0.289736 -0.533311 -0.051852
v -0.325000 -0.533311 -0.051852
v -0.289736 -0.336675 0.051852
v -0.325000 -0.336675 0.051852
v -0.289736 -0.336675 -0.051852
v -0.325000 -0.336675 -0.051852
v -0.289736 -0.266048 0.051852
v -0.325000 -0.266048 0.051852
v -0.289736 -0.266048 -0.051852
v -0.325000 -0.266048 -0.051852
v -0.289736 -0.069413 0.051852
v -0.325000 -0.069413 0.051852
v -0.289736 -0.069413 -0.051852
v -0.325000 -0.069413 -0.051852
v -0.289736 0.001214 0.051852
v -0.325000 0.001214 0.051852
v -0.289736 0.001214 -0.051852
v -0.325000 0.001214 -0.051852
v -0.289736 0.197849 0.051852
v -0.325000 0.197849 0.051852
v -0.289736 0.197849 -0.051852
v -0.325000 0.197849 -0.051852
v -0.289736 0.268476 0.051852
v -0.325000 0.268476 0.051852
v -0.289736 0.268476 -0.051852
v -0.325000 0.268476 -0.051852
v -0.289736 0.465111 0.051852
v -0.325000 0.465111 0.051852
v -0.289736 0.465111 -0.051852
v -0.325000 0.465111 -0.051852
v -0.289736 0.535738 0.051852
v -0.325000 0.535738 0.051852
v -0.289736 0.535738 -0.051852
v -0.325000 0.535738 -0.051852
v -0.289736 0.732373 0.051852
v -0.325000 0.732373 0.051852
v -0.289736 0.732373 -0.051852
v -0.325000 0.732373 -0.051852
v -0.289736 0.803000 0.051852
v -0.325000 0.803000 0.051852
v -0.289736 0.803000 -0.051852
v -0.325000 0.803000 -0.051852
v -0.287415 1.007138 0.051852
v -0.322457 1.013608 0.051852
v -0.287415 1.007138 -0.051852
v -0.322457 1.013608 -0.051852
v -0.282589 1.077321 0.051852
v -0.317631 1.083791 0.051852
v -0.282589 1.077321 -0.051852
v -0.317631 1.083791 -0.051852
v -0.212537 1.288430 0.051852
v -0.237473 1.329291 0.051852
v -0.212537 1.288430 -0.051852
v -0.237473 1.329291 -0.051852
v -0.182061 1.338371 0.051852
v -0.206996 1.379231 0.051852
v -0.182061 1.338371 -0.051852
v -0.206996 1.379231 -0.051852
v -0.047751 1.434515 0.051852
v -0.051699 1.491937 0.051852
v -0.047751 1.434515 -0.051852
v -0.051699 1.491937 -0.051852
v -0.004922 1.442423 0.051852
v -0.008870 1.499845 0.051852
v -0.004922 1.442423 -0.051852
v -0.008870 1.499845 -0.051852
v 0.137069 1.383251 0.051852
v 0.155830 1.432179 0.051852
v 0.137069 1.383251 -0.051852
v 0.155830 1.432179 -0.051852
v 0.173563 1.345675 0.051852
v 0.192324 1.394603 0.051852
v 0.173563 1.345675 -0.051852
v 0.192324 1.394603 -0.051852
v 0.263472 1.156185 0.051852
v 0.296757 1.175271 0.051852
v 0.263472 1.156185 -0.051852
v 0.296757 1.175271 -0.051852
v 0.277707 1.089522 0.051852
v 0.310992 1.108607 0.051852
v 0.277707 1.089522 -0.051852
v 0.310992 1.108607 -0.051852
v 0.287809 0.871200 0.051852
v 0.323072 0.871200 0.051852
v 0.287809 0.871200 -0.051852
v 0.323072 0.871200 -0.051852
v 0.287809 0.800573 0.051852
v 0.323072 0.800573 0.051852
v 0.287809 0.800573 -0.051852
v 0.323072 0.800573 -0.051852
v 0.287809 0.603937 0.051852
v 0.323073 0.603937 0.051852
v 0.287809 0.603937 -0.051852
v 0.323073 0.603937 -0.051852
v 0.287809 0.533310 0.051852
v 0.323073 0.533310 0.051852
v 0.287809 0.533310 -0.051852
v 0.323073 0.533310 -0.051852
v 0.287809 0.336675 0.051852
v 0.323073 0.336675 0.051852
v 0.287809 0.336675 -0.051852
v 0.323073 0.336675 -0.051852
v 0.287809 0.266048 0.051852
v 0.323073 0.266048 0.051852
v 0.287809 0.266048 -0.051852
v 0.323073 0.266048 -0.051852
v 0.287809 0.069413 0.051852
v 0.323073 0.069413 0.051852
v 0.287809 0.069413 -0.051852
v 0.323073 0.069413 -0.051852
v 0.287809 -0.001214 0.051852
v 0.323073 -0.001214 0.051852
v 0.287809 -0.001214 -0.051852
v 0.323073 -0.001214 -0.051852
v 0.287809 -0.197849 0.051852
v 0.323073 -0.197849 0.051852
v 0.287809 -0.197849 -0.051852
v 0.323073 -0.197849 -0.051852
v 0.287809 -0.268476 0.051852
v 0.323073 -0.268476 0.051852
v 0.287809 -0.268476 -0.051852
v 0.323073 -0.268476 -0.051852
v 0.287809 -0.465111 0.051852
v 0.323073 -0.465111 0.051852
v 0.287809 -0.465111 -0.051852
v 0.323073 -0.465111 -0.051852
v 0.287809 -0.535738 0.051852
v 0.323073 -0.535738 0.051852
v 0.287809 -0.535738 -0.051852
v 0.323073 -0.535738 -0.051852
v 0.287809 -0.732373 0.051852
v 0.323073 -0.732373 0.051852
v 0.287809 -0.732373 -0.051852
v 0.323073 -0.732373 -0.051852
v 0.287809 -0.803000 0.051852
v 0.323073 -0.803000 0.051852
v 0.287809 -0.803000 -0.051852
v 0.323073 -0.803000 -0.051852
v 0.285487 -1.007138 0.051852
v 0.320529 -1.013608 0.051852
v 0.285487 -1.007138 -0.051852
v 0.320529 -1.013608 -0.051852
v 0.280661 -1.077321 0.051852
v 0.315704 -1.083791 0.051852
v 0.280661 -1.077321 -0.051852
v 0.315704 -1.083791 -0.051852
v 0.210610 -1.288430 0.051852
v 0.235545 -1.329291 0.051852
v 0.210610 -1.288430 -0.051852
v 0.235545 -1.329291 -0.051852
v 0.180133 -1.338371 0.051852
v 0.205069 -1.379231 0.051852
v 0.180133 -1.338371 -0.051852
v 0.205069 -1.379231 -0.051852
v 0.045824 -1.434515 0.051852
v 0.049772 -1.491937 0.051852
v 0.045824 -1.434515 -0.051852
v 0.049772 -1.491937 -0.051852
v 0.002994 -1.442423 0.051852
v 0.006943 -1.499845 0.051852
v 0.002994 -1.442423 -0.051852
v 0.006943 -1.499845 -0.051852
v -0.138996 -1.383251 0.051852
v -0.157758 -1.432179 0.051852
v -0.138996 -1.383251 -0.051852
v -0.157758 -1.432179 -0.051852
v -0.175490 -1.345675 0.051852
v -0.194252 -1.394603 0.051852
v -0.175490 -1.345675 -0.051852
v -0.194252 -1.394603 -0.051852
v -0.265400 -1.156185 0.051852
v -0.298685 -1.175271 0.051852
v -0.265400 -1.156185 -0.051852
v -0.298685 -1.175271 -0.051852
v -0.279635 -1.089522 0.051852
v -0.312920 -1.108607 0.051852
v -0.279635 -1.089522 -0.051852
v -0.312920 -1.108607 -0.051852
vn -0.0000 -0.0000 -1.0000
vn -0.0000 -0.0000 1.0000
vn 1.0000 -0.0000 -0.0000
vn -1.0000 -0.0000 -0.0000
vn 0.9976 -0.0688 -0.0000
vn -0.9977 0.0683 -0.0000
vn 0.9780 -0.2088 -0.0000
vn -0.9780 0.2088 -0.0000
vn 0.9337 -0.3580 -0.0000
vn -0.9337 0.3580 -0.0000
vn 0.8536 -0.5209 -0.0000
vn -0.8536 0.5209 -0.0000
vn 0.7174 -0.6967 -0.0000
vn -0.7174 0.6967 -0.0000
vn 0.4974 -0.8675 -0.0000
vn -0.4974 0.8675 -0.0000
vn 0.1816 -0.9834 -0.0000
vn -0.1816 0.9834 -0.0000
vn -0.1816 -0.9834 -0.0000
vn 0.1816 0.9834 -0.0000
vn -0.4974 -0.8675 -0.0000
vn 0.4974 0.8675 -0.0000
vn -0.7174 -0.6967 -0.0000
vn 0.7174 0.6967 -0.0000
vn -0.8536 -0.5209 -0.0000
vn 0.8536 0.5209 -0.0000
vn -0.9337 -0.3580 -0.0000
vn 0.9337 0.3580 -0.0000
vn -0.9780 -0.2088 -0.0000
vn 0.9780 0.2088 -0.0000
vn -0.9976 -0.0688 -0.0000
vn 0.9977 0.0683 -0.0000
vn -0.9976 0.0688 -0.0000
vn 0.9977 -0.0683 -0.0000
vn 0.9974 0.0715 -0.0000
vn -0.9979 -0.0651 -0.0000
vn 0.9994 0.0342 -0.0000
vn 0.9994 0.0343 -0.0000
vn -0.0000 -1.0000 -0.0000
vn -0.0000 1.0000 -0.0000
vn 0.9976 -0.0686 -0.0000
vn -0.9976 0.0686 -0.0000
vn -0.9976 -0.0686 -0.0000
vn 0.9976 0.0686 -0.0000
vt 0.000000 1.000000
vt 3.627589 0.000000
vt 0.000000 0.000000
vt 3.627589 1.000000
vt 3.797047 0.000000
vt 3.797047 1.000000
vt 3.966505 0.000000
vt 3.966505 1.000000
vt 4.135962 0.000000
vt 4.135962 1.000000
vt 4.305420 0.000000
vt 4.305420 1.000000
vt 4.474879 0.000000
vt 4.474879 1.000000
vt 4.644337 0.000000
vt 4.644337 1.000000
vt 4.813795 0.000000
vt 4.813795 1.000000
vt 4.983253 1.000000
vt 4.983253 0.000000
vt 5.152710 1.000000
vt 5.152710 0.000000
vt 5.322168 1.000000
vt 5.322168 0.000000
vt 5.491626 1.000000
vt 5.491626 0.000000
vt 5.661084 1.000000
vt 5.661084 0.000000
vt 5.830542 1.000000
vt 5.830542 0.000000
vt 6.000000 1.000000
vt 6.000000 0.000000
vt 9.627589 1.000000
vt 9.627589 0.000000
vt 9.797047 0.000000
vt 9.797047 1.000000
vt 9.966505 0.000000
vt 9.966505 1.000000
vt 10.135962 0.000000
vt 10.135962 1.000000
vt 10.305421 0.000000
vt 10.305421 1.000000
vt 10.474878 0.000000
vt 10.474878 1.000000
vt 10.644337 0.000000
vt 10.644337 1.000000
vt 10.813794 0.000000
vt 10.813794 1.000000
vt 10.983253 1.000000
vt 10.983253 0.000000
vt 11.152710 1.000000
vt 11.152710 0.000000
vt 11.322168 1.000000
vt 11.322168 0.000000
vt 11.491626 1.000000
vt 11.491626 0.000000
vt 11.661084 1.000000
vt 11.661084 0.000000
vt 11.830542 1.000000
vt 11.830542 0.000000
vt 12.000000 1.000000
vt 12.000000 0.000000
s 0
usemtl MovingChain
f 1/1/1 4/2/1 2/3/1
f 63/1/2 66/2/2 65/4/2
f 63/1/3 3/4/3 1/1/3
f 4/2/4 64/3/4 2/3/4
f 3/4/1 6/5/1 4/2/1
f 65/4/2 68/5/2 67/6/2
f 65/4/5 5/6/5 3/4/5
f 6/5/6 66/2/6 4/2/6
f 5/6/1 8/7/1 6/5/1
f 67/6/2 70/7/2 69/8/2
f 67/6/7 7/8/7 5/6/7
f 8/7/8 68/5/8 6/5/8
f 7/8/1 10/9/1 8/7/1
f 69/8/2 72/9/2 71/10/2
f 69/8/9 9/10/9 7/8/9
f 10/9/10 70/7/10 8/7/10
f 9/10/1 12/11/1 10/9/1
f 71/10/2 74/11/2 73/12/2
f 71/10/11 11/12/11 9/10/11
f 12/11/12 72/9/12 10/9/12
f 11/12/1 14/13/1 12/11/1
f 73/12/2 76/13/2 75/14/2
f 73/12/13 13/14/13 11/12/13
f 14/13/14 74/11/14 12/11/14
f 13/14/1 16/15/1 14/13/1
f 75/14/2 78/15/2 77/16/2
f 75/14/15 15/16/15 13/14/15
f 16/15/16 76/13/16 14/13/16
f 15/16/1 18/17/1 16/15/1
f 77/16/2 80/17/2 79/18/2
f 77/16/17 17/18/17 15/16/17
f 18/17/18 78/15/18 16/15/18
f 19/19/1 18/17/1 17/18/1
f 80/17/2 81/19/2 79/18/2
f 79/18/19 19/19/19 17/18/19
f 20/20/20 80/17/20 18/17/20
f 21/21/1 20/20/1 19/19/1
f 82/20/2 83/21/2 81/19/2
f 81/19/21 21/21/21 19/19/21
f 22/22/22 82/20/22 20/20/22
f 23/23/1 22/22/1 21/21/1
f 84/22/2 85/23/2 83/21/2
f 83/21/23 23/23/23 21/21/23
f 24/24/24 84/22/24 22/22/24
f 25/25/1 24/24/1 23/23/1
f 86/24/2 87/25/2 85/23/2
f 85/23/25 25/25/25 23/23/25
f 26/26/26 86/24/26 24/24/26
f 27/27/1 26/26/1 25/25/1
f 88/26/2 89/27/2 87/25/2
f 87/25/27 27/27/27 25/25/27
f 28/28/28 88/26/28 26/26/28
f 29/29/1 28/28/1 27/27/1
f 90/28/2 91/29/2 89/27/2
f 89/27/29 29/29/29 27/27/29
f 30/30/30 90/28/30 28/28/30
f 31/31/1 30/30/1 29/29/1
f 92/30/2 93/31/2 91/29/2
f 91/29/31 31/31/31 29/29/31
f 32/32/32 92/30/32 30/30/32
f 33/33/1 32/32/1 31/31/1
f 93/31/2 96/34/2 95/33/2
f 93/31/4 33/33/4 31/31/4
f 34/34/3 94/32/3 32/32/3
f 33/33/1 36/35/1 34/34/1
f 95/33/2 98/35/2 97/36/2
f 95/33/33 35/36/33 33/33/33
f 36/35/34 96/34/34 34/34/34
f 35/36/1 38/37/1 36/35/1
f 97/36/2 100/37/2 99/38/2
f 97/36/8 37/38/8 35/36/8
f 38/37/7 98/35/7 36/35/7
f 37/38/1 40/39/1 38/37/1
f 99/38/2 102/39/2 101/40/2
f 99/38/10 39/40/10 37/38/10
f 40/39/9 100/37/9 38/37/9
f 39/40/1 42/41/1 40/39/1
f 101/40/2 104/41/2 103/42/2
f 101/40/12 41/42/12 39/40/12
f 42/41/11 102/39/11 40/39/11
f 41/42/1 44/43/1 42/41/1
f 103/42/2 106/43/2 105/44/2
f 103/42/14 43/44/14 41/42/14
f 44/43/13 104/41/13 42/41/13
f 43/44/1 46/45/1 44/43/1
f 105/44/2 108/45/2 107/46/2
f 105/44/16 45/46/16 43/44/16
f 46/45/15 106/43/15 44/43/15
f 45/46/1 48/47/1 46/45/1
f 107/46/2 110/47/2 109/48/2
f 107/46/18 47/48/18 45/46/18
f 48/47/17 108/45/17 46/45/17
f 49/49/1 48/47/1 47/48/1
f 110/47/2 111/49/2 109/48/2
f 109/48/20 49/49/20 47/48/20
f 50/50/19 110/47/19 48/47/19
f 51/51/1 50/50/1 49/49/1
f 112/50/2 113/51/2 111/49/2
f 111/49/22 51/51/22 49/49/22
f 52/52/21 112/50/21 50/50/21
f 53/53/1 52/52/1 51/51/1
f 114/52/2 115/53/2 113/51/2
f 113/51/24 53/53/24 51/51/24
f 54/54/23 114/52/23 52/52/23
f 55/55/1 54/54/1 53/53/1
f 116/54/2 117/55/2 115/53/2
f 115/53/26 55/55/26 53/53/26
f 56/56/25 116/54/25 54/54/25
f 57/57/1 56/56/1 55/55/1
f 118/56/2 119/57/2 117/55/2
f 117/55/28 57/57/28 55/55/28
f 58/58/27 118/56/27 56/56/27
f 59/59/1 58/58/1 57/57/1
f 120/58/2 121/59/2 119/57/2
f 119/57/30 59/59/30 57/57/30
f 60/60/29 120/58/29 58/58/29
f 61/61/1 60/60/1 59/59/1
f 122/60/2 123/61/2 121/59/2
f 121/59/35 61/61/35 59/59/35
f 62/62/36 122/60/36 60/60/36
f 61/61/2 2/3/2 62/62/2
f 123/61/2 64/3/2 63/1/2
f 123/61/37 1/1/37 61/61/37
f 2/3/38 124/62/38 62/62/38
f 1/1/1 3/4/1 4/2/1
f 63/1/2 64/3/2 66/2/2
f 63/1/3 65/4/3 3/4/3
f 4/2/4 66/2/4 64/3/4
f 3/4/1 5/6/1 6/5/1
f 65/4/2 66/2/2 68/5/2
f 65/4/5 67/6/5 5/6/5
f 6/5/6 68/5/6 66/2/6
f 5/6/1 7/8/1 8/7/1
f 67/6/2 68/5/2 70/7/2
f 67/6/7 69/8/7 7/8/7
f 8/7/8 70/7/8 68/5/8
f 7/8/1 9/10/1 10/9/1
f 69/8/2 70/7/2 72/9/2
f 69/8/9 71/10/9 9/10/9
f 10/9/10 72/9/10 70/7/10
f 9/10/1 11/12/1 12/11/1
f 71/10/2 72/9/2 74/11/2
f 71/10/11 73/12/11 11/12/11
f 12/11/12 74/11/12 72/9/12
f 11/12/1 13/14/1 14/13/1
f 73/12/2 74/11/2 76/13/2
f 73/12/13 75/14/13 13/14/13
f 14/13/14 76/13/14 74/11/14
f 13/14/1 15/16/1 16/15/1
f 75/14/2 76/13/2 78/15/2
f 75/14/15 77/16/15 15/16/15
f 16/15/16 78/15/16 76/13/16
f 15/16/1 17/18/1 18/17/1
f 77/16/2 78/15/2 80/17/2
f 77/16/17 79/18/17 17/18/17
f 18/17/18 80/17/18 78/15/18
f 19/19/1 20/20/1 18/17/1
f 80/17/2 82/20/2 81/19/2
f 79/18/19 81/19/19 19/19/19
f 20/20/20 82/20/20 80/17/20
f 21/21/1 22/22/1 20/20/1
f 82/20/2 84/22/2 83/21/2
f 81/19/21 83/21/21 21/21/21
f 22/22/22 84/22/22 82/20/22
f 23/23/1 24/24/1 22/22/1
f 84/22/2 86/24/2 85/23/2
f 83/21/23 85/23/23 23/23/23
f 24/24/24 86/24/24 84/22/24
f 25/25/1 26/26/1 24/24/1
f 86/24/2 88/26/2 87/25/2
f 85/23/25 87/25/25 25/25/25
f 26/26/26 88/26/26 86/24/26
f 27/27/1 28/28/1 26/26/1
f 88/26/2 90/28/2 89/27/2
f 87/25/27 89/27/27 27/27/27
f 28/28/28 90/28/28 88/26/28
f 29/29/1 30/30/1 28/28/1
f 90/28/2 92/30/2 91/29/2
f 89/27/29 91/29/29 29/29/29
f 30/30/30 92/30/30 90/28/30
f 31/31/1 32/32/1 30/30/1
f 92/30/2 94/32/2 93/31/2
f 91/29/31 93/31/31 31/31/31
f 32/32/32 94/32/32 92/30/32
f 33/33/1 34/34/1 32/32/1
f 93/31/2 94/32/2 96/34/2
f 93/31/4 95/33/4 33/33/4
f 34/34/3 96/34/3 94/32/3
f 33/33/1 35/36/1 36/35/1
f 95/33/2 96/34/2 98/35/2
f 95/33/33 97/36/33 35/36/33
f 36/35/34 98/35/34 96/34/34
f 35/36/1 37/38/1 38/37/1
f 97/36/2 98/35/2 100/37/2
f 97/36/8 99/38/8 37/38/8
f 38/37/7 100/37/7 98/35/7
f 37/38/1 39/40/1 40/39/1
f 99/38/2 100/37/2 102/39/2
f 99/38/10 101/40/10 39/40/10
f 40/39/9 102/39/9 100/37/9
f 39/40/1 41/42/1 42/41/1
f 101/40/2 102/39/2 104/41/2
f 101/40/12 103/42/12 41/42/12
f 42/41/11 104/41/11 102/39/11
f 41/42/1 43/44/1 44/43/1
f 103/42/2 104/41/2 106/43/2
f 103/42/14 105/44/14 43/44/14
f 44/43/13 106/43/13 104/41/13
f 43/44/1 45/46/1 46/45/1
f 105/44/2 106/43/2 108/45/2
f 105/44/16 107/46/16 45/46/16
f 46/45/15 108/45/15 106/43/15
f 45/46/1 47/48/1 48/47/1
f 107/46/2 108/45/2 110/47/2
f 107/46/18 109/48/18 47/48/18
f 48/47/17 110/47/17 108/45/17
f 49/49/1 50/50/1 48/47/1
f 110/47/2 112/50/2 111/49/2
f 109/48/20 111/49/20 49/49/20
f 50/50/19 112/50/19 110/47/19
f 51/51/1 52/52/1 50/50/1
f 112/50/2 114/52/2 113/51/2
f 111/49/22 113/51/22 51/51/22
f 52/52/21 114/52/21 112/50/21
f 53/53/1 54/54/1 52/52/1
f 114/52/2 116/54/2 115/53/2
f 113/51/24 115/53/24 53/53/24
f 54/54/23 116/54/23 114/52/23
f 55/55/1 56/56/1 54/54/1
f 116/54/2 118/56/2 117/55/2
f 115/53/26 117/55/26 55/55/26
f 56/56/25 118/56/25 116/54/25
f 57/57/1 58/58/1 56/56/1
f 118/56/2 120/58/2 119/57/2
f 117/55/28 119/57/28 57/57/28
f 58/58/27 120/58/27 118/56/27
f 59/59/1 60/60/1 58/58/1
f 120/58/2 122/60/2 121/59/2
f 119/57/30 121/59/30 59/59/30
f 60/60/29 122/60/29 120/58/29
f 61/61/1 62/62/1 60/60/1
f 122/60/2 124/62/2 123/61/2
f 121/59/35 123/61/35 61/61/35
f 62/62/36 124/62/36 122/60/36
f 61/61/1 1/1/1 2/3/1
f 123/61/1 124/62/1 64/3/1
f 123/61/37 63/1/37 1/1/37
f 2/3/38 64/3/38 124/62/38
s 1
usemtl ChainToothMetal
f 126/3/39 127/3/39 125/3/39
f 128/3/1 131/3/1 127/3/1
f 132/3/40 129/3/40 131/3/40
f 130/3/2 125/3/2 129/3/2
f 131/3/3 125/3/3 127/3/3
f 128/3/4 130/3/4 132/3/4
f 134/3/39 135/3/39 133/3/39
f 136/3/1 139/3/1 135/3/1
f 140/3/40 137/3/40 139/3/40
f 138/3/2 133/3/2 137/3/2
f 139/3/3 133/3/3 135/3/3
f 136/3/4 138/3/4 140/3/4
f 142/3/39 143/3/39 141/3/39
f 144/3/1 147/3/1 143/3/1
f 148/3/40 145/3/40 147/3/40
f 146/3/2 141/3/2 145/3/2
f 147/3/3 141/3/3 143/3/3
f 144/3/4 146/3/4 148/3/4
f 150/3/39 151/3/39 149/3/39
f 152/3/1 155/3/1 151/3/1
f 156/3/40 153/3/40 155/3/40
f 154/3/2 149/3/2 153/3/2
f 155/3/3 149/3/3 151/3/3
f 152/3/4 154/3/4 156/3/4
f 158/3/39 159/3/39 157/3/39
f 160/3/1 163/3/1 159/3/1
f 164/3/40 161/3/40 163/3/40
f 162/3/2 157/3/2 161/3/2
f 163/3/3 157/3/3 159/3/3
f 160/3/4 162/3/4 164/3/4
f 166/3/39 167/3/39 165/3/39
f 168/3/1 171/3/1 167/3/1
f 172/3/40 169/3/40 171/3/40
f 170/3/2 165/3/2 169/3/2
f 171/3/3 165/3/3 167/3/3
f 168/3/4 170/3/4 172/3/4
f 174/3/39 175/3/39 173/3/39
f 176/3/1 179/3/1 175/3/1
f 180/3/40 177/3/40 179/3/40
f 177/3/2 174/3/2 173/3/2
f 179/3/3 173/3/3 175/3/3
f 176/3/4 178/3/4 180/3/4
f 182/3/19 183/3/19 181/3/19
f 184/3/1 187/3/1 183/3/1
f 188/3/20 185/3/20 187/3/20
f 185/3/2 182/3/2 181/3/2
f 187/3/41 181/3/41 183/3/41
f 184/3/42 186/3/42 188/3/42
f 190/3/25 191/3/25 189/3/25
f 192/3/1 195/3/1 191/3/1
f 196/3/26 193/3/26 195/3/26
f 193/3/2 190/3/2 189/3/2
f 195/3/11 189/3/11 191/3/11
f 192/3/12 194/3/12 196/3/12
f 198/3/43 199/3/43 197/3/43
f 200/3/1 203/3/1 199/3/1
f 204/3/44 201/3/44 203/3/44
f 201/3/2 198/3/2 197/3/2
f 203/3/17 197/3/17 199/3/17
f 200/3/18 202/3/18 204/3/18
f 206/3/10 207/3/10 205/3/10
f 207/3/1 212/3/1 211/3/1
f 212/3/9 209/3/9 211/3/9
f 210/3/2 205/3/2 209/3/2
f 211/3/23 205/3/23 207/3/23
f 208/3/24 210/3/24 212/3/24
f 214/3/16 215/3/16 213/3/16
f 215/3/1 220/3/1 219/3/1
f 220/3/15 217/3/15 219/3/15
f 218/3/2 213/3/2 217/3/2
f 219/3/29 213/3/29 215/3/29
f 216/3/30 218/3/30 220/3/30
f 222/3/40 223/3/40 221/3/40
f 224/3/1 227/3/1 223/3/1
f 228/3/39 225/3/39 227/3/39
f 226/3/2 221/3/2 225/3/2
f 227/3/4 221/3/4 223/3/4
f 224/3/3 226/3/3 228/3/3
f 230/3/40 231/3/40 229/3/40
f 232/3/1 235/3/1 231/3/1
f 236/3/39 233/3/39 235/3/39
f 234/3/2 229/3/2 233/3/2
f 235/3/4 229/3/4 231/3/4
f 232/3/3 234/3/3 236/3/3
f 238/3/40 239/3/40 237/3/40
f 240/3/1 243/3/1 239/3/1
f 244/3/39 241/3/39 243/3/39
f 242/3/2 237/3/2 241/3/2
f 243/3/4 237/3/4 239/3/4
f 240/3/3 242/3/3 244/3/3
f 246/3/40 247/3/40 245/3/40
f 248/3/1 251/3/1 247/3/1
f 252/3/39 249/3/39 251/3/39
f 250/3/2 245/3/2 249/3/2
f 251/3/4 245/3/4 247/3/4
f 248/3/3 250/3/3 252/3/3
f 254/3/40 255/3/40 253/3/40
f 256/3/1 259/3/1 255/3/1
f 260/3/39 257/3/39 259/3/39
f 258/3/2 253/3/2 257/3/2
f 259/3/4 253/3/4 255/3/4
f 256/3/3 258/3/3 260/3/3
f 262/3/40 263/3/40 261/3/40
f 264/3/1 267/3/1 263/3/1
f 268/3/39 265/3/39 267/3/39
f 266/3/2 261/3/2 265/3/2
f 267/3/4 261/3/4 263/3/4
f 264/3/3 266/3/3 268/3/3
f 270/3/40 271/3/40 269/3/40
f 272/3/1 275/3/1 271/3/1
f 276/3/39 273/3/39 275/3/39
f 274/3/2 269/3/2 273/3/2
f 275/3/4 269/3/4 271/3/4
f 272/3/3 274/3/3 276/3/3
f 278/3/20 279/3/20 277/3/20
f 280/3/1 283/3/1 279/3/1
f 284/3/19 281/3/19 283/3/19
f 281/3/2 278/3/2 277/3/2
f 283/3/42 277/3/42 279/3/42
f 280/3/41 282/3/41 284/3/41
f 286/3/26 287/3/26 285/3/26
f 288/3/1 291/3/1 287/3/1
f 292/3/25 289/3/25 291/3/25
f 289/3/2 286/3/2 285/3/2
f 291/3/12 285/3/12 287/3/12
f 288/3/11 290/3/11 292/3/11
f 294/3/44 295/3/44 293/3/44
f 296/3/1 299/3/1 295/3/1
f 300/3/43 297/3/43 299/3/43
f 297/3/2 294/3/2 293/3/2
f 299/3/18 293/3/18 295/3/18
f 296/3/17 298/3/17 300/3/17
f 302/3/9 303/3/9 301/3/9
f 303/3/1 308/3/1 307/3/1
f 308/3/10 305/3/10 307/3/10
f 306/3/2 301/3/2 305/3/2
f 307/3/24 301/3/24 303/3/24
f 304/3/23 306/3/23 308/3/23
f 310/3/15 311/3/15 309/3/15
f 311/3/1 316/3/1 315/3/1
f 316/3/16 313/3/16 315/3/16
f 314/3/2 309/3/2 313/3/2
f 315/3/30 309/3/30 311/3/30
f 312/3/29 314/3/29 316/3/29
f 126/3/39 128/3/39 127/3/39
f 128/3/1 132/3/1 131/3/1
f 132/3/40 130/3/40 129/3/40
f 130/3/2 126/3/2 125/3/2
f 131/3/3 129/3/3 125/3/3
f 128/3/4 126/3/4 130/3/4
f 134/3/39 136/3/39 135/3/39
f 136/3/1 140/3/1 139/3/1
f 140/3/40 138/3/40 137/3/40
f 138/3/2 134/3/2 133/3/2
f 139/3/3 137/3/3 133/3/3
f 136/3/4 134/3/4 138/3/4
f 142/3/39 144/3/39 143/3/39
f 144/3/1 148/3/1 147/3/1
f 148/3/40 146/3/40 145/3/40
f 146/3/2 142/3/2 141/3/2
f 147/3/3 145/3/3 141/3/3
f 144/3/4 142/3/4 146/3/4
f 150/3/39 152/3/39 151/3/39
f 152/3/1 156/3/1 155/3/1
f 156/3/40 154/3/40 153/3/40
f 154/3/2 150/3/2 149/3/2
f 155/3/3 153/3/3 149/3/3
f 152/3/4 150/3/4 154/3/4
f 158/3/39 160/3/39 159/3/39
f 160/3/1 164/3/1 163/3/1
f 164/3/40 162/3/40 161/3/40
f 162/3/2 158/3/2 157/3/2
f 163/3/3 161/3/3 157/3/3
f 160/3/4 158/3/4 162/3/4
f 166/3/39 168/3/39 167/3/39
f 168/3/1 172/3/1 171/3/1
f 172/3/40 170/3/40 169/3/40
f 170/3/2 166/3/2 165/3/2
f 171/3/3 169/3/3 165/3/3
f 168/3/4 166/3/4 170/3/4
f 174/3/39 176/3/39 175/3/39
f 176/3/1 180/3/1 179/3/1
f 180/3/40 178/3/40 177/3/40
f 177/3/2 178/3/2 174/3/2
f 179/3/3 177/3/3 173/3/3
f 176/3/4 174/3/4 178/3/4
f 182/3/19 184/3/19 183/3/19
f 184/3/1 188/3/1 187/3/1
f 188/3/20 186/3/20 185/3/20
f 185/3/2 186/3/2 182/3/2
f 187/3/41 185/3/41 181/3/41
f 184/3/42 182/3/42 186/3/42
f 190/3/25 192/3/25 191/3/25
f 192/3/1 196/3/1 195/3/1
f 196/3/26 194/3/26 193/3/26
f 193/3/2 194/3/2 190/3/2
f 195/3/11 193/3/11 189/3/11
f 192/3/12 190/3/12 194/3/12
f 198/3/43 200/3/43 199/3/43
f 200/3/1 204/3/1 203/3/1
f 204/3/44 202/3/44 201/3/44
f 201/3/2 202/3/2 198/3/2
f 203/3/17 201/3/17 197/3/17
f 200/3/18 198/3/18 202/3/18
f 206/3/10 208/3/10 207/3/10
f 207/3/1 208/3/1 212/3/1
f 212/3/9 210/3/9 209/3/9
f 210/3/2 206/3/2 205/3/2
f 211/3/23 209/3/23 205/3/23
f 208/3/24 206/3/24 210/3/24
f 214/3/16 216/3/16 215/3/16
f 215/3/1 216/3/1 220/3/1
f 220/3/15 218/3/15 217/3/15
f 218/3/2 214/3/2 213/3/2
f 219/3/29 217/3/29 213/3/29
f 216/3/30 214/3/30 218/3/30
f 222/3/40 224/3/40 223/3/40
f 224/3/1 228/3/1 227/3/1
f 228/3/39 226/3/39 225/3/39
f 226/3/2 222/3/2 221/3/2
f 227/3/4 225/3/4 221/3/4
f 224/3/3 222/3/3 226/3/3
f 230/3/40 232/3/40 231/3/40
f 232/3/1 236/3/1 235/3/1
f 236/3/39 234/3/39 233/3/39
f 234/3/2 230/3/2 229/3/2
f 235/3/4 233/3/4 229/3/4
f 232/3/3 230/3/3 234/3/3
f 238/3/40 240/3/40 239/3/40
f 240/3/1 244/3/1 243/3/1
f 244/3/39 242/3/39 241/3/39
f 242/3/2 238/3/2 237/3/2
f 243/3/4 241/3/4 237/3/4
f 240/3/3 238/3/3 242/3/3
f 246/3/40 248/3/40 247/3/40
f 248/3/1 252/3/1 251/3/1
f 252/3/39 250/3/39 249/3/39
f 250/3/2 246/3/2 245/3/2
f 251/3/4 249/3/4 245/3/4
f 248/3/3 246/3/3 250/3/3
f 254/3/40 256/3/40 255/3/40
f 256/3/1 260/3/1 259/3/1
f 260/3/39 258/3/39 257/3/39
f 258/3/2 254/3/2 253/3/2
f 259/3/4 257/3/4 253/3/4
f 256/3/3 254/3/3 258/3/3
f 262/3/40 264/3/40 263/3/40
f 264/3/1 268/3/1 267/3/1
f 268/3/39 266/3/39 265/3/39
f 266/3/2 262/3/2 261/3/2
f 267/3/4 265/3/4 261/3/4
f 264/3/3 262/3/3 266/3/3
f 270/3/40 272/3/40 271/3/40
f 272/3/1 276/3/1 275/3/1
f 276/3/39 274/3/39 273/3/39
f 274/3/2 270/3/2 269/3/2
f 275/3/4 273/3/4 269/3/4
f 272/3/3 270/3/3 274/3/3
f 278/3/20 280/3/20 279/3/20
f 280/3/1 284/3/1 283/3/1
f 284/3/19 282/3/19 281/3/19
f 281/3/2 282/3/2 278/3/2
f 283/3/42 281/3/42 277/3/42
f 280/3/41 278/3/41 282/3/41
f 286/3/26 288/3/26 287/3/26
f 288/3/1 292/3/1 291/3/1
f 292/3/25 290/3/25 289/3/25
f 289/3/2 290/3/2 286/3/2
f 291/3/12 289/3/12 285/3/12
f 288/3/11 286/3/11 290/3/11
f 294/3/44 296/3/44 295/3/44
f 296/3/1 300/3/1 299/3/1
f 300/3/43 298/3/43 297/3/43
f 297/3/2 298/3/2 294/3/2
f 299/3/18 297/3/18 293/3/18
f 296/3/17 294/3/17 298/3/17
f 302/3/9 304/3/9 303/3/9
f 303/3/1 304/3/1 308/3/1
f 308/3/10 306/3/10 305/3/10
f 306/3/2 302/3/2 301/3/2
f 307/3/24 305/3/24 301/3/24
f 304/3/23 302/3/23 306/3/23
f 310/3/15 312/3/15 311/3/15
f 311/3/1 312/3/1 316/3/1
f 316/3/16 314/3/16 313/3/16
f 314/3/2 310/3/2 309/3/2
f 315/3/30 313/3/30 309/3/30
f 312/3/29 310/3/29 314/3/29
